%FSLAX44Y44*%
%MOMM*%
G71*
G01*
G75*
G04 Layer_Color=32896*
%ADD10R,1.5000X0.4000*%
%ADD11R,0.6000X0.5000*%
%ADD12R,1.2000X1.6000*%
%ADD13R,0.5000X0.6000*%
%ADD14R,1.3970X1.3970*%
%ADD15R,1.2700X0.5080*%
%ADD16R,1.0160X0.8890*%
%ADD17R,0.8890X1.0160*%
%ADD18P,1.8385X4X90.0*%
%ADD19R,0.7000X0.6000*%
%ADD20R,1.4000X0.6000*%
%ADD21R,0.8000X1.6000*%
%ADD22R,1.2500X0.3000*%
%ADD23R,1.2000X1.4000*%
%ADD24R,1.2000X2.2000*%
%ADD25R,1.6000X1.4000*%
%ADD26R,1.1000X1.4000*%
%ADD27R,0.7000X1.6000*%
%ADD28R,1.0668X0.8128*%
G04:AMPARAMS|DCode=29|XSize=0.22mm|YSize=0.8mm|CornerRadius=0mm|HoleSize=0mm|Usage=FLASHONLY|Rotation=180.000|XOffset=0mm|YOffset=0mm|HoleType=Round|Shape=RoundedRectangle|*
%AMROUNDEDRECTD29*
21,1,0.2200,0.8000,0,0,180.0*
21,1,0.2200,0.8000,0,0,180.0*
1,1,0.0000,-0.1100,0.4000*
1,1,0.0000,0.1100,0.4000*
1,1,0.0000,0.1100,-0.4000*
1,1,0.0000,-0.1100,-0.4000*
%
%ADD29ROUNDEDRECTD29*%
%ADD30R,4.3000X4.3000*%
G04:AMPARAMS|DCode=31|XSize=0.22mm|YSize=0.8mm|CornerRadius=0mm|HoleSize=0mm|Usage=FLASHONLY|Rotation=270.000|XOffset=0mm|YOffset=0mm|HoleType=Round|Shape=RoundedRectangle|*
%AMROUNDEDRECTD31*
21,1,0.2200,0.8000,0,0,270.0*
21,1,0.2200,0.8000,0,0,270.0*
1,1,0.0000,-0.4000,-0.1100*
1,1,0.0000,-0.4000,0.1100*
1,1,0.0000,0.4000,0.1100*
1,1,0.0000,0.4000,-0.1100*
%
%ADD31ROUNDEDRECTD31*%
%ADD32R,0.8128X0.8128*%
%ADD33R,0.7600X1.5200*%
%ADD34R,1.2954X1.6002*%
%ADD35R,1.2000X1.2500*%
%ADD36R,2.4000X1.2500*%
%ADD37C,0.4000*%
%ADD38C,0.2000*%
%ADD39C,0.1270*%
%ADD40C,0.2540*%
%ADD41C,0.6000*%
%ADD42C,0.3000*%
%ADD43R,1.3000X1.2000*%
%ADD44C,0.0254*%
%ADD45C,1.5240*%
%ADD46R,1.5240X1.5240*%
G04:AMPARAMS|DCode=47|XSize=4mm|YSize=4mm|CornerRadius=2mm|HoleSize=0mm|Usage=FLASHONLY|Rotation=0.000|XOffset=0mm|YOffset=0mm|HoleType=Round|Shape=RoundedRectangle|*
%AMROUNDEDRECTD47*
21,1,4.0000,0.0000,0,0,0.0*
21,1,0.0000,4.0000,0,0,0.0*
1,1,4.0000,0.0000,0.0000*
1,1,4.0000,0.0000,0.0000*
1,1,4.0000,0.0000,0.0000*
1,1,4.0000,0.0000,0.0000*
%
%ADD47ROUNDEDRECTD47*%
%ADD48C,0.5000*%
%ADD49C,4.4000*%
%ADD50C,3.6000*%
%ADD51C,0.8000*%
%ADD52R,0.7250X2.3500*%
%ADD53P,1.8385X4X180.0*%
%ADD54R,0.8128X0.8128*%
%ADD55R,1.1000X0.5000*%
%ADD56R,0.6000X0.3500*%
%ADD57R,0.3500X0.6000*%
%ADD58R,0.3500X1.0000*%
%ADD59R,2.1500X6.3000*%
G04:AMPARAMS|DCode=60|XSize=2mm|YSize=2mm|CornerRadius=0mm|HoleSize=0mm|Usage=FLASHONLY|Rotation=180.000|XOffset=0mm|YOffset=0mm|HoleType=Round|Shape=RoundedRectangle|*
%AMROUNDEDRECTD60*
21,1,2.0000,2.0000,0,0,180.0*
21,1,2.0000,2.0000,0,0,180.0*
1,1,0.0000,-1.0000,1.0000*
1,1,0.0000,1.0000,1.0000*
1,1,0.0000,1.0000,-1.0000*
1,1,0.0000,-1.0000,-1.0000*
%
%ADD60ROUNDEDRECTD60*%
%ADD61R,1.3970X1.3970*%
%ADD62R,1.6000X2.2000*%
%ADD63R,2.1000X3.0000*%
%ADD64R,0.8000X2.1000*%
%ADD65R,1.0000X1.5000*%
%ADD66R,1.5000X0.8000*%
%ADD67R,0.7500X0.2000*%
%ADD68R,0.2000X0.7500*%
%ADD69R,0.5000X1.1000*%
%ADD70R,2.0320X0.6096*%
%ADD71O,2.0320X0.6096*%
%ADD72R,1.6000X1.2000*%
%ADD73C,0.8000*%
%ADD74R,1.9250X2.3500*%
%ADD75C,4.0000*%
%ADD76C,0.1200*%
%ADD77C,0.1250*%
%ADD78C,0.1524*%
%ADD79C,0.2032*%
%ADD80C,0.1000*%
%ADD81R,1.7000X0.6000*%
%ADD82R,0.8000X0.7000*%
%ADD83R,1.4000X1.8000*%
%ADD84R,0.7000X0.8000*%
%ADD85R,1.5970X1.5970*%
%ADD86R,1.4700X0.7080*%
%ADD87R,1.2160X1.0890*%
%ADD88R,1.0890X1.2160*%
%ADD89P,2.1213X4X90.0*%
%ADD90R,0.9000X0.8000*%
%ADD91R,1.6000X0.8000*%
%ADD92R,1.0000X1.8000*%
%ADD93R,1.4500X0.5000*%
%ADD94R,1.4000X1.6000*%
%ADD95R,1.4000X2.4000*%
%ADD96R,1.8000X1.6000*%
%ADD97R,1.3000X1.6000*%
%ADD98R,0.9000X1.8000*%
%ADD99R,1.2668X1.0128*%
G04:AMPARAMS|DCode=100|XSize=0.42mm|YSize=1mm|CornerRadius=0mm|HoleSize=0mm|Usage=FLASHONLY|Rotation=180.000|XOffset=0mm|YOffset=0mm|HoleType=Round|Shape=RoundedRectangle|*
%AMROUNDEDRECTD100*
21,1,0.4200,1.0000,0,0,180.0*
21,1,0.4200,1.0000,0,0,180.0*
1,1,0.0000,-0.2100,0.5000*
1,1,0.0000,0.2100,0.5000*
1,1,0.0000,0.2100,-0.5000*
1,1,0.0000,-0.2100,-0.5000*
%
%ADD100ROUNDEDRECTD100*%
%ADD101R,4.5000X4.5000*%
G04:AMPARAMS|DCode=102|XSize=0.42mm|YSize=1mm|CornerRadius=0mm|HoleSize=0mm|Usage=FLASHONLY|Rotation=270.000|XOffset=0mm|YOffset=0mm|HoleType=Round|Shape=RoundedRectangle|*
%AMROUNDEDRECTD102*
21,1,0.4200,1.0000,0,0,270.0*
21,1,0.4200,1.0000,0,0,270.0*
1,1,0.0000,-0.5000,-0.2100*
1,1,0.0000,-0.5000,0.2100*
1,1,0.0000,0.5000,0.2100*
1,1,0.0000,0.5000,-0.2100*
%
%ADD102ROUNDEDRECTD102*%
%ADD103R,1.0128X1.0128*%
%ADD104R,0.9600X1.7200*%
%ADD105R,1.4954X1.8002*%
%ADD106R,1.4000X1.4500*%
%ADD107R,2.6000X1.4500*%
%ADD108C,1.7240*%
%ADD109R,1.7240X1.7240*%
G04:AMPARAMS|DCode=110|XSize=4.2mm|YSize=4.2mm|CornerRadius=2.1mm|HoleSize=0mm|Usage=FLASHONLY|Rotation=0.000|XOffset=0mm|YOffset=0mm|HoleType=Round|Shape=RoundedRectangle|*
%AMROUNDEDRECTD110*
21,1,4.2000,0.0000,0,0,0.0*
21,1,0.0000,4.2000,0,0,0.0*
1,1,4.2000,0.0000,0.0000*
1,1,4.2000,0.0000,0.0000*
1,1,4.2000,0.0000,0.0000*
1,1,4.2000,0.0000,0.0000*
%
%ADD110ROUNDEDRECTD110*%
%ADD111C,0.7000*%
%ADD112C,4.6000*%
%ADD113R,1.4000X2.5500*%
%ADD114C,1.0000*%
%ADD115R,0.9250X2.5500*%
%ADD116P,2.1213X4X180.0*%
%ADD117R,1.0128X1.0128*%
%ADD118R,1.3000X0.7000*%
%ADD119R,0.8000X0.5500*%
%ADD120R,0.5500X0.8000*%
%ADD121R,0.5500X1.2000*%
%ADD122R,2.3500X6.5000*%
G04:AMPARAMS|DCode=123|XSize=2.2mm|YSize=2.2mm|CornerRadius=0mm|HoleSize=0mm|Usage=FLASHONLY|Rotation=180.000|XOffset=0mm|YOffset=0mm|HoleType=Round|Shape=RoundedRectangle|*
%AMROUNDEDRECTD123*
21,1,2.2000,2.2000,0,0,180.0*
21,1,2.2000,2.2000,0,0,180.0*
1,1,0.0000,-1.1000,1.1000*
1,1,0.0000,1.1000,1.1000*
1,1,0.0000,1.1000,-1.1000*
1,1,0.0000,-1.1000,-1.1000*
%
%ADD123ROUNDEDRECTD123*%
%ADD124R,1.5970X1.5970*%
%ADD125R,1.8000X2.4000*%
%ADD126R,2.3000X3.2000*%
%ADD127R,1.0000X2.3000*%
%ADD128R,1.2000X1.7000*%
%ADD129R,1.7000X1.0000*%
%ADD130R,0.9500X0.4000*%
%ADD131R,0.4000X0.9500*%
%ADD132R,0.7000X1.3000*%
%ADD133R,2.2320X0.8096*%
%ADD134O,2.2320X0.8096*%
%ADD135R,1.8000X1.4000*%
%ADD136C,4.2000*%
%ADD137C,0.1999*%
%ADD138C,0.1501*%
%ADD139C,0.1500*%
%ADD140C,1.4000*%
D38*
X-114000Y-104000D02*
Y-101500D01*
Y-130500D02*
Y-128000D01*
X-110000Y-130500D02*
Y-128000D01*
X-114000Y-130500D02*
X-64000D01*
X-110000Y-104000D02*
Y-101500D01*
X-64000Y-104000D02*
Y-101500D01*
Y-130500D02*
Y-128000D01*
X-114000Y-101500D02*
X-64000D01*
X-83780Y-116000D02*
X-79000D01*
X-95000D02*
X-90800D01*
Y-123200D02*
Y-108800D01*
X-83780Y-123000D02*
Y-109000D01*
X-90800Y-116000D02*
X-83775Y-108975D01*
X-90800Y-116000D02*
X-83800Y-123000D01*
X-290000Y190000D02*
G03*
X-300000Y180000I0J-10000D01*
G01*
Y-180000D02*
G03*
X-290000Y-190000I10000J0D01*
G01*
X299941Y180000D02*
G03*
X289941Y190000I-10000J0D01*
G01*
Y-190000D02*
G03*
X299941Y-180000I0J10000D01*
G01*
X-290000Y190000D02*
X289941Y190000D01*
X-290000Y-190000D02*
X289941Y-190000D01*
X-300000Y-180000D02*
Y180000D01*
X300000Y-180000D02*
Y180000D01*
D39*
X-125250Y-66000D02*
Y-64750D01*
Y-95250D02*
Y-94000D01*
X-94750Y-66000D02*
Y-64750D01*
Y-95250D02*
Y-94000D01*
X-125250Y-95250D02*
X-94750D01*
X-125250Y-64750D02*
X-94750D01*
X-32000Y32500D02*
X32000D01*
X-32000Y-32500D02*
X32000D01*
Y32500D01*
X-32000Y-32500D02*
Y32500D01*
X94750Y-66000D02*
Y-64750D01*
Y-95250D02*
Y-94000D01*
X125250Y-66000D02*
Y-64750D01*
Y-95250D02*
Y-94000D01*
X94750Y-95250D02*
X125250D01*
X94750Y-64750D02*
X125250D01*
Y64750D02*
Y66000D01*
Y94000D02*
Y95250D01*
X94750Y64750D02*
Y66000D01*
Y94000D02*
Y95250D01*
X125250D01*
X94750Y64750D02*
X125250D01*
X-94750D02*
Y66000D01*
Y94000D02*
Y95250D01*
X-125250Y64750D02*
Y66000D01*
Y94000D02*
Y95250D01*
X-94750D01*
X-125250Y64750D02*
X-94750D01*
X-246450Y74164D02*
X-249782Y67500D01*
X-253114Y74164D01*
X-256447Y75830D02*
X-258113Y77497D01*
X-261445D01*
X-263111Y75830D01*
Y69166D01*
X-261445Y67500D01*
X-258113D01*
X-256447Y69166D01*
Y75830D01*
X-266444Y67500D02*
Y69166D01*
X-268110D01*
Y67500D01*
X-266444D01*
X-281439Y77497D02*
X-278106Y75830D01*
X-274774Y72498D01*
Y69166D01*
X-276440Y67500D01*
X-279773D01*
X-281439Y69166D01*
Y70832D01*
X-279773Y72498D01*
X-274774D01*
D40*
X212000Y-95000D02*
G03*
X212000Y-95000I-1000J0D01*
G01*
X-135000Y69000D02*
Y84235D01*
X-145157Y69000D01*
Y84235D01*
X-152774Y79157D02*
X-157853D01*
X-160392Y76617D01*
Y69000D01*
X-152774D01*
X-150235Y71539D01*
X-152774Y74078D01*
X-160392D01*
X-165470Y69000D02*
X-170548D01*
X-168009D01*
Y79157D01*
X-165470D01*
X-188323Y81696D02*
X-185784Y84235D01*
X-180705D01*
X-178166Y81696D01*
Y79157D01*
X-180705Y76617D01*
X-185784D01*
X-188323Y74078D01*
Y71539D01*
X-185784Y69000D01*
X-180705D01*
X-178166Y71539D01*
X-193401Y81696D02*
X-195940Y84235D01*
X-201019D01*
X-203558Y81696D01*
Y79157D01*
X-201019Y76617D01*
X-203558Y74078D01*
Y71539D01*
X-201019Y69000D01*
X-195940D01*
X-193401Y71539D01*
Y74078D01*
X-195940Y76617D01*
X-193401Y79157D01*
Y81696D01*
X-195940Y76617D02*
X-201019D01*
X-208636Y81696D02*
X-211175Y84235D01*
X-216254D01*
X-218793Y81696D01*
Y71539D01*
X-216254Y69000D01*
X-211175D01*
X-208636Y71539D01*
Y81696D01*
X-234028Y69000D02*
X-223871D01*
X-234028Y79157D01*
Y81696D01*
X-231489Y84235D01*
X-226410D01*
X-223871Y81696D01*
D44*
X28993Y-154584D02*
X29000D01*
X2493Y-143984D02*
X2500D01*
X27493D02*
X27500D01*
X53993Y-154584D02*
X54000D01*
D76*
X-209410Y-97500D02*
G03*
X-209410Y-97500I-5590J0D01*
G01*
X267590Y-91000D02*
G03*
X267590Y-91000I-5590J0D01*
G01*
X-264810Y-117500D02*
G03*
X-264810Y-117500I-5590J0D01*
G01*
Y-87500D02*
G03*
X-264810Y-87500I-5590J0D01*
G01*
X-96000Y-137000D02*
G03*
X-99000Y-134000I-3000J0D01*
G01*
Y-184000D02*
G03*
X-96000Y-181000I0J3000D01*
G01*
X-118000D02*
G03*
X-115000Y-184000I3000J0D01*
G01*
Y-134000D02*
G03*
X-118000Y-137000I0J-3000D01*
G01*
X85000Y110750D02*
Y122000D01*
X85000Y110750D02*
X89750Y106000D01*
X89750Y106000D02*
X101250D01*
X100000Y119000D02*
Y123000D01*
X98000Y121000D02*
X102000D01*
X115000Y120000D02*
Y132000D01*
X99000Y136000D02*
X111000D01*
Y136000D02*
X115000Y132000D01*
X-114081Y120546D02*
X-100081D01*
X-114081Y180546D02*
X-100081D01*
X-109081Y150546D02*
X-105081D01*
X-107081Y148546D02*
Y152546D01*
X35377Y10854D02*
Y50854D01*
Y10854D02*
X65377D01*
Y50854D01*
X35377D02*
X65377D01*
X53377Y28854D02*
Y32854D01*
X51377Y28854D02*
Y32854D01*
X49377Y28854D02*
X51377D01*
X49377D02*
Y32854D01*
X51377D01*
X47377Y28854D02*
Y32854D01*
X66377Y41854D02*
X70377Y45854D01*
Y37854D02*
Y45854D01*
X66377Y41854D02*
X70377Y37854D01*
X53377Y30854D02*
X58377D01*
Y32854D01*
X42377Y30854D02*
X47377D01*
X42377Y28854D02*
Y30854D01*
X35377Y10854D02*
Y50854D01*
Y10854D02*
X65377D01*
Y50854D01*
X35377D02*
X65377D01*
X-44500Y-127934D02*
X-42500D01*
X-43500Y-128934D02*
X-42500Y-127934D01*
X-49500Y-125934D02*
X-37500D01*
X-43500Y-131934D02*
X-37500Y-125934D01*
X-49500D02*
X-43500Y-131934D01*
X-44500Y-127934D02*
X-43500Y-128934D01*
X-47000Y-126934D02*
X-40000D01*
X-43500Y-130434D02*
X-40000Y-126934D01*
X-47000D02*
X-43500Y-130434D01*
X50000Y-148584D02*
X58750D01*
X-56260Y-185584D02*
X55680D01*
X-5080Y-171584D02*
X5080D01*
X0Y-176134D02*
Y-167244D01*
X58750Y-154014D02*
Y-148584D01*
X-58750D02*
X-50000D01*
X-58750Y-154514D02*
Y-148584D01*
X9000Y110750D02*
Y122000D01*
X9000Y110750D02*
X13750Y106000D01*
X13750Y106000D02*
X25250D01*
X24000Y119000D02*
Y123000D01*
X22000Y121000D02*
X26000D01*
X39000Y120000D02*
Y132000D01*
X23000Y136000D02*
X35000D01*
Y136000D02*
X39000Y132000D01*
X-107000Y-157000D02*
Y-153000D01*
Y-165000D02*
Y-161000D01*
X-111000D02*
X-103000D01*
X-111000Y-157000D02*
X-103000D01*
X-115000Y-134000D02*
X-99000D01*
X-96000Y-181000D02*
Y-137000D01*
X-115000Y-184000D02*
X-99000D01*
X-118000Y-181000D02*
Y-137000D01*
D77*
X148269Y-106190D02*
G03*
X148272Y-109999I-634J-1905D01*
G01*
X148269Y-110000D02*
G03*
X148272Y-113809I-634J-1905D01*
G01*
X-28592Y41837D02*
G03*
X-28592Y41837I-2500J0D01*
G01*
X107731Y-36000D02*
G03*
X107728Y-32191I634J1905D01*
G01*
X107731Y-39810D02*
G03*
X107728Y-36001I634J1905D01*
G01*
X52461Y-40517D02*
G03*
X52461Y-40517I-2500J0D01*
G01*
X132190Y-41487D02*
G03*
X135999Y-41483I1905J-634D01*
G01*
X136000Y-41487D02*
G03*
X139809Y-41483I1905J-634D01*
G01*
X-245181Y-98689D02*
G03*
X-245178Y-102499I-634J-1905D01*
G01*
X-245181Y-102499D02*
G03*
X-245178Y-106309I-634J-1905D01*
G01*
X168190Y16269D02*
G03*
X171999Y16272I1905J-634D01*
G01*
X172000Y16269D02*
G03*
X175809Y16272I1905J-634D01*
G01*
X-198936Y-119202D02*
G03*
X-207715Y-126569I16500J-28579D01*
G01*
X-201653Y-114434D02*
G03*
X-209568Y-120519I19308J-33308D01*
G01*
X-201653Y-181128D02*
G03*
X-201361Y-181295I19308J33308D01*
G01*
X-199285Y-177082D02*
G03*
X-197570Y-178003I16849J29301D01*
G01*
X-197570Y-178003D02*
G03*
X-197040Y-178263I15134J30222D01*
G01*
X-207715Y-168993D02*
G03*
X-198936Y-176360I25280J21212D01*
G01*
X-209568Y-175043D02*
G03*
X-201653Y-181127I27224J27224D01*
G01*
X-163209Y-181125D02*
G03*
X-155061Y-174906I-19075J33442D01*
G01*
Y-120656D02*
G03*
X-163209Y-114437I-27224J-27224D01*
G01*
X-167302Y-178003D02*
G03*
X-165536Y-177052I-15134J30222D01*
G01*
X-165536Y-118509D02*
G03*
X-167302Y-117558I-16900J-29272D01*
G01*
X-197623Y-117585D02*
G03*
X-199336Y-118509I15187J-30196D01*
G01*
X-197040Y-117299D02*
G03*
X-197570Y-117558I14605J-30482D01*
G01*
X-165834Y-172768D02*
G03*
X-160711Y-168469I-16602J24988D01*
G01*
X-165936Y-176360D02*
G03*
X-157156Y-168993I-16500J28579D01*
G01*
X-160711Y-127092D02*
G03*
X-165834Y-122793I-21725J-20689D01*
G01*
X-157156Y-126569D02*
G03*
X-165936Y-119202I-25280J-21212D01*
G01*
X-199038Y-122793D02*
G03*
X-204161Y-127092I16602J-24988D01*
G01*
Y-168469D02*
G03*
X-199038Y-172768I21725J20689D01*
G01*
X-167302Y-117558D02*
G03*
X-167831Y-117299I-15134J-30222D01*
G01*
Y-178263D02*
G03*
X-167302Y-178003I-14605J30482D01*
G01*
X-156544Y-169507D02*
G03*
X-150147Y-157776I-25892J21726D01*
G01*
X-214218Y-159286D02*
G03*
X-208328Y-169507I31782J11505D01*
G01*
X-150147Y-137786D02*
G03*
X-156544Y-126055I-32288J-9995D01*
G01*
X-214563Y-158281D02*
G03*
X-214218Y-159285I32127J10501D01*
G01*
X-208328Y-126055D02*
G03*
X-214218Y-136276I25892J-21726D01*
G01*
X-214218Y-136276D02*
G03*
X-214563Y-137280I31782J-11505D01*
G01*
X-149939Y-157778D02*
G03*
X-149939Y-137783I-32497J9997D01*
G01*
X-167745Y-117119D02*
G03*
X-197127Y-117119I-14691J-30662D01*
G01*
X-214772Y-137274D02*
G03*
X-214772Y-158287I32336J-10507D01*
G01*
X-197127Y-178443D02*
G03*
X-167745Y-178443I14691J30662D01*
G01*
X34000Y140230D02*
G03*
X34000Y140230I-2500J0D01*
G01*
X110730D02*
G03*
X110730Y140230I-2500J0D01*
G01*
X-245181Y-113689D02*
G03*
X-245178Y-117499I-634J-1905D01*
G01*
X-245181Y-117499D02*
G03*
X-245178Y-121309I-634J-1905D01*
G01*
X215380Y60920D02*
X223000D01*
Y71080D01*
X215380D02*
X223000D01*
Y60920D02*
X230620D01*
X223000D02*
Y71080D01*
X230620D01*
X118920Y-167000D02*
Y-159380D01*
Y-167000D02*
X129080D01*
Y-159380D01*
X118920Y-174620D02*
Y-167000D01*
X129080D01*
Y-174620D02*
Y-167000D01*
X135257Y53540D02*
X142877D01*
Y63700D01*
X135257D02*
X142877D01*
Y53540D02*
X150497D01*
X142877D02*
Y63700D01*
X150497D01*
X140950Y105840D02*
X179050D01*
X140950Y126160D02*
X179050D01*
X160000Y105840D02*
Y126160D01*
X127730Y159910D02*
X135350D01*
X127730Y149750D02*
Y159910D01*
Y149750D02*
X135350D01*
X120110Y159910D02*
X127730D01*
Y149750D02*
Y159910D01*
X120110Y149750D02*
X127730D01*
X118840Y174150D02*
X123920D01*
X118840D02*
Y184310D01*
X123920D01*
X131540Y174150D02*
X136620D01*
Y184310D01*
X131540D02*
X136620D01*
X127730Y174150D02*
X129000Y175420D01*
X126460Y177960D02*
X129000Y175420D01*
X126460Y177960D02*
X129000Y180500D01*
X126460Y183040D02*
X129000Y180500D01*
X126460Y183040D02*
X127730Y184310D01*
X134300Y-86380D02*
X159700D01*
X134300Y-101620D02*
X159700D01*
X147000D02*
Y-86380D01*
Y-106190D02*
Y-104000D01*
Y-116000D02*
Y-113810D01*
X157160Y-103650D02*
X160970D01*
Y-116350D02*
Y-103650D01*
X133030Y-116350D02*
X160970D01*
X133030D02*
Y-103650D01*
X157160D01*
X196623Y-86431D02*
X197893Y-85161D01*
X195353Y-82620D02*
X197893Y-85161D01*
X195353Y-82620D02*
X197893Y-80080D01*
X195353Y-77540D02*
X197893Y-80080D01*
X195353Y-77540D02*
X196623Y-76270D01*
X187733Y-86431D02*
X192813D01*
X187733D02*
Y-76270D01*
X192813D01*
X200433Y-86431D02*
X205513D01*
Y-76270D01*
X200433D02*
X205513D01*
X195810Y-98730D02*
X197080Y-100000D01*
X193270Y-101270D02*
X195810Y-98730D01*
X190730D02*
X193270Y-101270D01*
X188190D02*
X190730Y-98730D01*
X186920Y-100000D02*
X188190Y-101270D01*
X197080Y-108890D02*
Y-103810D01*
X186920Y-108890D02*
X197080D01*
X186920D02*
Y-103810D01*
X197080Y-96190D02*
Y-91110D01*
X186920D02*
X197080D01*
X186920Y-96190D02*
Y-91110D01*
X-13092Y36837D02*
X-8342D01*
Y38649D01*
X-5842D01*
Y36837D02*
Y38649D01*
Y36837D02*
X-1092D01*
Y65837D01*
X-13092D02*
X-1092D01*
X-13092Y36837D02*
Y65837D01*
X-7092Y48837D02*
Y53837D01*
X-9592Y51337D02*
X-4592D01*
X-196601Y48920D02*
X-195331Y50190D01*
X-197871Y52730D02*
X-195331Y50190D01*
X-197871Y52730D02*
X-195331Y55270D01*
X-197871Y57810D02*
X-195331Y55270D01*
X-197871Y57810D02*
X-196601Y59080D01*
X-205491Y48920D02*
X-200411D01*
X-205491D02*
Y59080D01*
X-200411D01*
X-192791Y48920D02*
X-187711D01*
Y59080D01*
X-192791D02*
X-187711D01*
X-192791Y34784D02*
X-187711D01*
Y24624D02*
Y34784D01*
X-192791Y24624D02*
X-187711D01*
X-205491Y34784D02*
X-200411D01*
X-205491Y24624D02*
Y34784D01*
Y24624D02*
X-200411D01*
X-197871Y33514D02*
X-196601Y34784D01*
X-197871Y33514D02*
X-195331Y30974D01*
X-197871Y28434D02*
X-195331Y30974D01*
X-197871Y28434D02*
X-195331Y25894D01*
X-196601Y24624D02*
X-195331Y25894D01*
X-192791Y46979D02*
X-187711D01*
Y36819D02*
Y46979D01*
X-192791Y36819D02*
X-187711D01*
X-205491Y46979D02*
X-200411D01*
X-205491Y36819D02*
Y46979D01*
Y36819D02*
X-200411D01*
X-197871Y45709D02*
X-196601Y46979D01*
X-197871Y45709D02*
X-195331Y43169D01*
X-197871Y40629D02*
X-195331Y43169D01*
X-197871Y40629D02*
X-195331Y38089D01*
X-196601Y36819D02*
X-195331Y38089D01*
X-192791Y-14002D02*
X-187711D01*
Y-24162D02*
Y-14002D01*
X-192791Y-24162D02*
X-187711D01*
X-205491Y-14002D02*
X-200411D01*
X-205491Y-24162D02*
Y-14002D01*
Y-24162D02*
X-200411D01*
X-197871Y-15272D02*
X-196601Y-14002D01*
X-197871Y-15272D02*
X-195331Y-17812D01*
X-197871Y-20352D02*
X-195331Y-17812D01*
X-197871Y-20352D02*
X-195331Y-22892D01*
X-196601Y-24162D02*
X-195331Y-22892D01*
X-192791Y-1973D02*
X-187711D01*
Y-12133D02*
Y-1973D01*
X-192791Y-12133D02*
X-187711D01*
X-205491Y-1973D02*
X-200411D01*
X-205491Y-12133D02*
Y-1973D01*
Y-12133D02*
X-200411D01*
X-197871Y-3243D02*
X-196601Y-1973D01*
X-197871Y-3243D02*
X-195331Y-5783D01*
X-197871Y-8323D02*
X-195331Y-5783D01*
X-197871Y-8323D02*
X-195331Y-10863D01*
X-196601Y-12133D02*
X-195331Y-10863D01*
X-192791Y22593D02*
X-187711D01*
Y12433D02*
Y22593D01*
X-192791Y12433D02*
X-187711D01*
X-205491Y22593D02*
X-200411D01*
X-205491Y12433D02*
Y22593D01*
Y12433D02*
X-200411D01*
X-197871Y21323D02*
X-196601Y22593D01*
X-197871Y21323D02*
X-195331Y18783D01*
X-197871Y16243D02*
X-195331Y18783D01*
X-197871Y16243D02*
X-195331Y13703D01*
X-196601Y12433D02*
X-195331Y13703D01*
X-192791Y10324D02*
X-187711D01*
Y164D02*
Y10324D01*
X-192791Y164D02*
X-187711D01*
X-205491Y10324D02*
X-200411D01*
X-205491Y164D02*
Y10324D01*
Y164D02*
X-200411D01*
X-197871Y9054D02*
X-196601Y10324D01*
X-197871Y9054D02*
X-195331Y6514D01*
X-197871Y3974D02*
X-195331Y6514D01*
X-197871Y3974D02*
X-195331Y1434D01*
X-196601Y164D02*
X-195331Y1434D01*
X155552Y-14034D02*
Y-6414D01*
Y-14034D02*
X165712D01*
Y-6414D01*
X155552Y-21654D02*
Y-14034D01*
X165712D01*
Y-21654D02*
Y-14034D01*
X98840Y-42350D02*
X122970D01*
Y-29650D01*
X95030D02*
X122970D01*
X95030Y-42350D02*
Y-29650D01*
Y-42350D02*
X98840D01*
X109000Y-32190D02*
Y-30000D01*
Y-42000D02*
Y-39810D01*
X54966Y172111D02*
X60046D01*
Y161951D02*
Y172111D01*
X54966Y161951D02*
X60046D01*
X42266Y172111D02*
X47346D01*
X42266Y161951D02*
Y172111D01*
Y161951D02*
X47346D01*
X49886Y170841D02*
X51156Y172111D01*
X49886Y170841D02*
X52426Y168301D01*
X49886Y165761D02*
X52426Y168301D01*
X49886Y165761D02*
X52426Y163221D01*
X51156Y161951D02*
X52426Y163221D01*
X15223Y55707D02*
X22843D01*
Y65867D01*
X15223D02*
X22843D01*
Y55707D02*
X30463D01*
X22843D02*
Y65867D01*
X30463D01*
X-5088Y-57090D02*
X2531D01*
X-5088Y-67250D02*
Y-57090D01*
Y-67250D02*
X2531D01*
X-12708Y-57090D02*
X-5088D01*
Y-67250D02*
Y-57090D01*
X-12708Y-67250D02*
X-5088D01*
X27211Y-35517D02*
X31961D01*
X27211Y-37329D02*
Y-35517D01*
X24711Y-37329D02*
X27211D01*
X24711D02*
Y-35517D01*
X19961D02*
X24711D01*
X19961Y-64517D02*
Y-35517D01*
Y-64517D02*
X31961D01*
Y-35517D01*
X25961Y-52517D02*
Y-47517D01*
X23461Y-50017D02*
X28461D01*
X47880Y-10252D02*
Y-5172D01*
X37720Y-10252D02*
X47880D01*
X37720D02*
Y-5172D01*
X47880Y2448D02*
Y7528D01*
X37720D02*
X47880D01*
X37720Y2448D02*
Y7528D01*
X46610Y-92D02*
X47880Y-1362D01*
X44070Y-2632D02*
X46610Y-92D01*
X41530D02*
X44070Y-2632D01*
X38990D02*
X41530Y-92D01*
X37720Y-1362D02*
X38990Y-2632D01*
X-185182Y103807D02*
X-177561D01*
Y113967D01*
X-185182D02*
X-177561D01*
Y103807D02*
X-169942D01*
X-177561D02*
Y113967D01*
X-169942D01*
X-205393Y170562D02*
X-200313D01*
X-205393D02*
Y180722D01*
X-200313D01*
X-192693Y170562D02*
X-187613D01*
Y180722D01*
X-192693D02*
X-187613D01*
X-196503Y170562D02*
X-195233Y171832D01*
X-197773Y174372D02*
X-195233Y171832D01*
X-197773Y174372D02*
X-195233Y176912D01*
X-197773Y179452D02*
X-195233Y176912D01*
X-197773Y179452D02*
X-196503Y180722D01*
X130000Y-42755D02*
X132190D01*
X139810D02*
X142000D01*
X129650Y-32595D02*
Y-28785D01*
X142350D01*
Y-56725D02*
Y-28785D01*
X129650Y-56725D02*
X142350D01*
X129650D02*
Y-32595D01*
X-246450Y-98690D02*
Y-96500D01*
Y-108500D02*
Y-106310D01*
X-236290Y-96150D02*
X-232480D01*
Y-108850D02*
Y-96150D01*
X-260420Y-108850D02*
X-232480D01*
X-260420D02*
Y-96150D01*
X-236290D01*
X-259584Y137249D02*
X-254504D01*
Y127089D02*
Y137249D01*
X-259584Y127089D02*
X-254504D01*
X-272284Y137249D02*
X-267204D01*
X-272284Y127089D02*
Y137249D01*
Y127089D02*
X-267204D01*
X-264664Y135979D02*
X-263394Y137249D01*
X-264664Y135979D02*
X-262124Y133439D01*
X-264664Y130899D02*
X-262124Y133439D01*
X-264664Y130899D02*
X-262124Y128359D01*
X-263394Y127089D02*
X-262124Y128359D01*
X-250014Y127089D02*
X-242394D01*
Y137249D01*
X-250014D02*
X-242394D01*
Y127089D02*
X-234774D01*
X-242394D02*
Y137249D01*
X-234774D01*
X207920Y17000D02*
Y24620D01*
Y17000D02*
X218080D01*
Y24620D01*
X207920Y9380D02*
Y17000D01*
X218080D01*
Y9380D02*
Y17000D01*
X218920Y-2190D02*
Y2890D01*
X229080D01*
Y-2190D02*
Y2890D01*
X218920Y-14890D02*
Y-9810D01*
Y-14890D02*
X229080D01*
Y-9810D01*
X218920Y-6000D02*
X220190Y-7270D01*
X222730Y-4730D01*
X225270Y-7270D01*
X227810Y-4730D01*
X229080Y-6000D01*
X241080Y-14890D02*
Y-9810D01*
X230920Y-14890D02*
X241080D01*
X230920D02*
Y-9810D01*
X241080Y-2190D02*
Y2890D01*
X230920D02*
X241080D01*
X230920Y-2190D02*
Y2890D01*
X239810Y-4730D02*
X241080Y-6000D01*
X237270Y-7270D02*
X239810Y-4730D01*
X234730D02*
X237270Y-7270D01*
X232190D02*
X234730Y-4730D01*
X230920Y-6000D02*
X232190Y-7270D01*
X193080Y8110D02*
Y13190D01*
X182920Y8110D02*
X193080D01*
X182920D02*
Y13190D01*
X193080Y20810D02*
Y25890D01*
X182920D02*
X193080D01*
X182920Y20810D02*
Y25890D01*
X191810Y18270D02*
X193080Y17000D01*
X189270Y15730D02*
X191810Y18270D01*
X186730D02*
X189270Y15730D01*
X184190D02*
X186730Y18270D01*
X182920Y17000D02*
X184190Y15730D01*
X262110Y-33080D02*
X267190D01*
X262110D02*
Y-22920D01*
X267190D01*
X274810Y-33080D02*
X279890D01*
Y-22920D01*
X274810D02*
X279890D01*
X271000Y-33080D02*
X272270Y-31810D01*
X269730Y-29270D02*
X272270Y-31810D01*
X269730Y-29270D02*
X272270Y-26730D01*
X269730Y-24190D02*
X272270Y-26730D01*
X269730Y-24190D02*
X271000Y-22920D01*
X205080Y8110D02*
Y13190D01*
X194920Y8110D02*
X205080D01*
X194920D02*
Y13190D01*
X205080Y20810D02*
Y25890D01*
X194920D02*
X205080D01*
X194920Y20810D02*
Y25890D01*
X203810Y18270D02*
X205080Y17000D01*
X201270Y15730D02*
X203810Y18270D01*
X198730D02*
X201270Y15730D01*
X196190D02*
X198730Y18270D01*
X194920Y17000D02*
X196190Y15730D01*
X269730Y-9190D02*
X271000Y-7920D01*
X269730Y-9190D02*
X272270Y-11730D01*
X269730Y-14270D02*
X272270Y-11730D01*
X269730Y-14270D02*
X272270Y-16810D01*
X271000Y-18080D02*
X272270Y-16810D01*
X274810Y-7920D02*
X279890D01*
Y-18080D02*
Y-7920D01*
X274810Y-18080D02*
X279890D01*
X262110Y-7920D02*
X267190D01*
X262110Y-18080D02*
Y-7920D01*
Y-18080D02*
X267190D01*
X-216920Y171380D02*
Y179000D01*
X-227080D02*
X-216920D01*
X-227080Y171380D02*
Y179000D01*
X-216920D02*
Y186620D01*
X-227080Y179000D02*
X-216920D01*
X-227080D02*
Y186620D01*
X-150854Y179933D02*
X-143234D01*
X-150854Y169773D02*
Y179933D01*
Y169773D02*
X-143234D01*
X-158474Y179933D02*
X-150854D01*
Y169773D02*
Y179933D01*
X-158474Y169773D02*
X-150854D01*
X166000Y15000D02*
X168190D01*
X175810D02*
X178000D01*
X165650Y25160D02*
Y28970D01*
X178350D01*
Y1030D02*
Y28970D01*
X165650Y1030D02*
X178350D01*
X165650D02*
Y25160D01*
X-19108Y-45153D02*
Y-37533D01*
Y-45153D02*
X-8948D01*
Y-37533D01*
X-19108Y-52773D02*
Y-45153D01*
X-8948D01*
Y-52773D02*
Y-45153D01*
X15302Y36573D02*
X22922D01*
Y46733D01*
X15302D02*
X22922D01*
Y36573D02*
X30542D01*
X22922D02*
Y46733D01*
X30542D01*
X175758Y-75620D02*
Y-68000D01*
X165598D02*
X175758D01*
X165598Y-75620D02*
Y-68000D01*
X175758D02*
Y-60380D01*
X165598Y-68000D02*
X175758D01*
X165598D02*
Y-60380D01*
X145598Y-68000D02*
Y-60380D01*
Y-68000D02*
X155758D01*
Y-60380D01*
X145598Y-75620D02*
Y-68000D01*
X155758D01*
Y-75620D02*
Y-68000D01*
X151920Y26000D02*
Y33620D01*
Y26000D02*
X162080D01*
Y33620D01*
X151920Y18380D02*
Y26000D01*
X162080D01*
Y18380D02*
Y26000D01*
X144080Y-75620D02*
Y-68000D01*
X133920D02*
X144080D01*
X133920Y-75620D02*
Y-68000D01*
X144080D02*
Y-60380D01*
X133920Y-68000D02*
X144080D01*
X133920D02*
Y-60380D01*
X217000Y79920D02*
X218270Y81190D01*
X215730Y83730D02*
X218270Y81190D01*
X215730Y83730D02*
X218270Y86270D01*
X215730Y88810D02*
X218270Y86270D01*
X215730Y88810D02*
X217000Y90080D01*
X208110Y79920D02*
X213190D01*
X208110D02*
Y90080D01*
X213190D01*
X220810Y79920D02*
X225890D01*
Y90080D01*
X220810D02*
X225890D01*
X179230Y-112190D02*
X180500Y-110920D01*
X179230Y-112190D02*
X181770Y-114730D01*
X179230Y-117270D02*
X181770Y-114730D01*
X179230Y-117270D02*
X181770Y-119810D01*
X180500Y-121080D02*
X181770Y-119810D01*
X184310Y-110920D02*
X189390D01*
Y-121080D02*
Y-110920D01*
X184310Y-121080D02*
X189390D01*
X171610Y-110920D02*
X176690D01*
X171610Y-121080D02*
Y-110920D01*
Y-121080D02*
X176690D01*
X38465Y-23147D02*
X46085D01*
Y-12987D01*
X38465D02*
X46085D01*
Y-23147D02*
X53705D01*
X46085D02*
Y-12987D01*
X53705D01*
X81730Y-109190D02*
X83000Y-107920D01*
X81730Y-109190D02*
X84270Y-111730D01*
X81730Y-114270D02*
X84270Y-111730D01*
X81730Y-114270D02*
X84270Y-116810D01*
X83000Y-118080D02*
X84270Y-116810D01*
X86810Y-107920D02*
X91890D01*
Y-118080D02*
Y-107920D01*
X86810Y-118080D02*
X91890D01*
X74110Y-107920D02*
X79190D01*
X74110Y-118080D02*
Y-107920D01*
Y-118080D02*
X79190D01*
X239080Y82380D02*
Y90000D01*
X228920D02*
X239080D01*
X228920Y82380D02*
Y90000D01*
X239080D02*
Y97620D01*
X228920Y90000D02*
X239080D01*
X228920D02*
Y97620D01*
X-32349Y124598D02*
Y162698D01*
X-12029Y124598D02*
Y162698D01*
X-32349Y143648D02*
X-12029D01*
X-220899Y-137581D02*
X-219399D01*
X-220899Y-157981D02*
X-219399D01*
X-212009Y-122959D02*
X-209568Y-120519D01*
X-219330Y-130281D02*
X-218136Y-129086D01*
X-212009Y-122959D01*
X-207710Y-126563D02*
X-206895Y-127246D01*
X-212009Y-122959D02*
X-207710Y-126563D01*
X-199334Y-118508D02*
X-198936Y-119202D01*
X-201665Y-114441D02*
X-199334Y-118508D01*
X-152814Y-122902D02*
X-143436Y-132281D01*
X-155061Y-120656D02*
X-152814Y-122902D01*
X-157164Y-126559D02*
X-152814Y-122902D01*
X-157977Y-127242D02*
X-157164Y-126559D01*
X-212009Y-172602D02*
X-207710Y-168999D01*
X-206895Y-168315D01*
X-218136Y-166475D02*
X-212009Y-172602D01*
X-219330Y-165281D02*
X-218136Y-166475D01*
X-212009Y-172602D02*
X-209568Y-175043D01*
X-198936Y-176360D02*
X-198404Y-175432D01*
X-199334Y-177054D02*
X-198936Y-176360D01*
X-201665Y-181120D02*
X-199334Y-177054D01*
X-201386Y-181281D02*
X-199452D01*
X-197586Y-178026D01*
X-197595Y-177991D02*
X-197586Y-178026D01*
X-163486Y-181281D02*
X-163205Y-181122D01*
X-163486Y-114281D02*
X-163205Y-114439D01*
X-165538Y-177054D02*
X-163205Y-181122D01*
X-167286Y-178025D02*
X-167277Y-177991D01*
X-167286Y-178025D02*
X-165420Y-181281D01*
X-163486D01*
X-165538Y-118508D02*
X-163205Y-114439D01*
X-165420Y-114281D02*
X-163486D01*
X-167286Y-117536D02*
X-165420Y-114281D01*
X-167286Y-117536D02*
X-167277Y-117571D01*
X-197595Y-117571D02*
X-197586Y-117536D01*
X-199452Y-114281D02*
X-197586Y-117536D01*
X-201386Y-114281D02*
X-199452D01*
X-201665Y-114441D02*
X-201386Y-114281D01*
X-198936Y-119202D02*
X-198404Y-120130D01*
X-166467Y-175432D02*
X-165935Y-176360D01*
X-157977Y-168319D02*
X-157164Y-169002D01*
X-166467Y-120129D02*
X-165935Y-119202D01*
X-157164Y-169002D02*
X-152814Y-172659D01*
X-165935Y-176360D02*
X-165538Y-177054D01*
X-155061Y-174906D02*
X-152814Y-172659D01*
X-143436Y-163281D01*
X-165935Y-119202D02*
X-165538Y-118508D01*
X-176626Y-181281D02*
X-172916D01*
X-191955D02*
X-188245D01*
X-199452D02*
X-191955D01*
X-172916D02*
X-165420D01*
X-191955Y-114281D02*
X-188245D01*
X-176626D02*
X-172916D01*
X-165420D01*
X-199452D02*
X-191955D01*
X-197586Y-178026D02*
X-197063Y-178328D01*
Y-178252D01*
Y-117310D02*
Y-117233D01*
X-197586Y-117536D02*
X-197063Y-117233D01*
X-167809Y-117234D02*
X-167286Y-117536D01*
X-167809Y-117310D02*
Y-117234D01*
Y-178328D02*
Y-178252D01*
Y-178328D02*
X-167286Y-178025D01*
X-143436Y-163281D02*
Y-157781D01*
X-150149D02*
X-143436D01*
X-218136Y-159281D02*
Y-158281D01*
Y-166475D02*
Y-159281D01*
X-214219D01*
X-143436Y-137781D02*
Y-132281D01*
X-150149Y-137781D02*
X-143436D01*
X-218136Y-158281D02*
X-214564D01*
X-218136Y-136281D02*
Y-129086D01*
Y-136281D02*
X-214219D01*
X-218136Y-137281D02*
X-214564D01*
X-218136D02*
Y-136281D01*
X-195894Y-179004D02*
X-191955Y-181281D01*
X-197128Y-178442D02*
X-197063Y-178328D01*
X-167809Y-178328D02*
X-167743Y-178442D01*
X-172916Y-181281D02*
X-168979Y-179005D01*
X-197128Y-117119D02*
X-197063Y-117233D01*
X-195894Y-116558D02*
X-191955Y-114281D01*
X-172916D02*
X-168979Y-116557D01*
X-167809Y-117234D02*
X-167743Y-117119D01*
X-220936Y-137281D02*
X-218136D01*
X-220936Y-158281D02*
X-218136D01*
X-191955Y-115141D02*
Y-114281D01*
Y-181281D02*
Y-180421D01*
X-172916Y-181281D02*
Y-180421D01*
Y-115141D02*
Y-114281D01*
X-148599Y-151112D02*
X-147838D01*
Y-144450D01*
X-148599D02*
X-147838D01*
X-221899Y-153781D02*
X-219399D01*
X-221899Y-141781D02*
X-219399D01*
Y-157481D02*
Y-153781D01*
Y-157481D02*
X-219399Y-157565D01*
X-221899Y-150281D02*
X-219694D01*
X-221899Y-145281D02*
X-219694D01*
X-219399Y-138081D02*
X-219399Y-137997D01*
X-219399Y-141781D02*
Y-138081D01*
X-144887Y-145365D02*
X-144754Y-145281D01*
X-142387D01*
Y-141781D01*
X-144887D02*
X-142387D01*
X-144887Y-145365D02*
Y-141781D01*
X-142387Y-145281D02*
X-141436D01*
Y-141781D01*
X-142387D02*
X-141436D01*
Y-153781D02*
Y-150281D01*
X-142387Y-153781D02*
X-141436D01*
X-144887D02*
X-142387D01*
X-145887D02*
X-144887D01*
X-146838D02*
X-145887D01*
X-147838D02*
X-146838D01*
X-148969D02*
X-147838D01*
Y-141781D02*
X-146838D01*
X-145887D01*
X-144887D01*
X-148969D02*
X-147838D01*
X-142387Y-150281D02*
X-141436D01*
X-144754D02*
X-142387D01*
Y-153781D02*
Y-150281D01*
X-144887Y-153781D02*
Y-150197D01*
X-220899Y-141781D02*
X-220899Y-137997D01*
X-220899Y-141781D02*
Y-138081D01*
X-220899Y-137997D01*
X-220899Y-157565D02*
Y-157481D01*
Y-157565D02*
Y-157481D01*
Y-153781D01*
Y-145553D02*
X-219399D01*
X-220899Y-150009D02*
X-219399D01*
X-144887Y-145365D02*
X-143387D01*
X-144887Y-150197D02*
X-143387D01*
X-147838Y-142540D02*
Y-141781D01*
Y-143691D02*
Y-142540D01*
Y-144450D02*
Y-143691D01*
Y-151870D02*
Y-151112D01*
Y-153022D02*
Y-151870D01*
Y-153781D02*
Y-153022D01*
X-143387Y-145549D02*
Y-145365D01*
Y-150197D02*
Y-150013D01*
X-144887Y-147281D02*
X-143436D01*
Y-145549D02*
X-143387D01*
X-144887Y-147281D02*
Y-145365D01*
Y-150197D02*
Y-148281D01*
Y-147281D01*
X-143436Y-150013D02*
X-143387D01*
X-144887Y-148281D02*
X-143436D01*
X-220899Y-157481D02*
X-219399D01*
X-220899Y-157565D02*
X-219399D01*
X-220899Y-137997D02*
X-219399D01*
X-220899Y-138081D02*
X-219399D01*
X-219399Y-157981D02*
Y-157565D01*
Y-137997D02*
Y-137581D01*
Y-147281D02*
Y-145553D01*
Y-148281D02*
Y-147281D01*
Y-150009D02*
Y-148281D01*
X-220899Y-157981D02*
Y-157565D01*
Y-150009D02*
Y-148281D01*
Y-147281D01*
Y-145553D01*
Y-147281D02*
X-219399D01*
X-220899Y-148281D02*
X-219399D01*
X-143436Y-157781D02*
Y-153781D01*
Y-163281D02*
X-138436D01*
X-135436Y-160329D01*
X-141436Y-150281D02*
Y-145281D01*
X-138436Y-132281D02*
X-135436Y-135281D01*
X-143436Y-132281D02*
X-138436D01*
X-143436Y-141781D02*
Y-137781D01*
Y-150013D02*
Y-145549D01*
X-224436Y-130281D02*
X-219330D01*
X-229436Y-160281D02*
X-224436Y-165281D01*
X-219330D01*
X-221936Y-159281D02*
X-218136D01*
X-221936Y-141781D02*
Y-136281D01*
Y-150281D02*
Y-145281D01*
Y-159281D02*
Y-153781D01*
Y-136281D02*
X-218136D01*
X-229436Y-135281D02*
X-224436Y-130281D01*
X-221936Y-136281D02*
X-220936Y-137281D01*
X-221936Y-159281D02*
X-220936Y-158281D01*
Y-141781D02*
Y-137281D01*
Y-150195D02*
Y-145362D01*
Y-158281D02*
Y-153781D01*
X-215394Y-157281D02*
X-215389D01*
X-215476D02*
X-215394D01*
X-216899D02*
X-215476D01*
X-219399D02*
X-216899D01*
X-215476Y-138281D02*
X-215394D01*
X-215389D01*
X-219399D02*
X-216899D01*
X-215476D01*
X-148683Y-151870D02*
X-147838D01*
X-148683Y-143691D02*
X-147838D01*
X-148842Y-142540D02*
X-147838D01*
X-148842Y-153022D02*
X-147838D01*
X-216899Y-157281D02*
Y-138281D01*
X-146838Y-153781D02*
Y-141781D01*
X-145887Y-153781D02*
Y-141781D01*
X-148436D02*
Y-137781D01*
Y-157781D02*
Y-153781D01*
X-215476Y-157281D02*
Y-155804D01*
Y-139757D02*
Y-138281D01*
X-220899Y-137583D02*
Y-137581D01*
Y-137611D02*
Y-137583D01*
Y-137671D02*
Y-137611D01*
Y-137760D02*
Y-137671D01*
Y-137871D02*
Y-137760D01*
Y-137871D02*
X-220899Y-137997D01*
X-215899Y-152781D02*
X-180899D01*
X-178399Y-150281D01*
Y-145281D01*
X-180899Y-142781D02*
X-178399Y-145281D01*
X-215899Y-142781D02*
X-180899D01*
X-122149Y-147781D02*
X-118399Y-151531D01*
X-122149Y-147781D02*
X-118399Y-144031D01*
Y-151531D02*
Y-144031D01*
X107640Y-50379D02*
X115260D01*
X107640Y-60539D02*
Y-50379D01*
Y-60539D02*
X115260D01*
X100020Y-50379D02*
X107640D01*
Y-60539D02*
Y-50379D01*
X100020Y-60539D02*
X107640D01*
X193258Y-66620D02*
Y-59000D01*
X183098D02*
X193258D01*
X183098Y-66620D02*
Y-59000D01*
X193258D02*
Y-51380D01*
X183098Y-59000D02*
X193258D01*
X183098D02*
Y-51380D01*
X188000Y-18920D02*
X195620D01*
X188000Y-29080D02*
Y-18920D01*
Y-29080D02*
X195620D01*
X180380Y-18920D02*
X188000D01*
Y-29080D02*
Y-18920D01*
X180380Y-29080D02*
X188000D01*
X-196601Y-60080D02*
X-195331Y-58810D01*
X-197871Y-56270D02*
X-195331Y-58810D01*
X-197871Y-56270D02*
X-195331Y-53730D01*
X-197871Y-51190D02*
X-195331Y-53730D01*
X-197871Y-51190D02*
X-196601Y-49920D01*
X-205491Y-60080D02*
X-200411D01*
X-205491D02*
Y-49920D01*
X-200411D01*
X-192791Y-60080D02*
X-187711D01*
Y-49920D01*
X-192791D02*
X-187711D01*
X3531Y-52659D02*
Y-45038D01*
X-6629D02*
X3531D01*
X-6629Y-52659D02*
Y-45038D01*
X3531D02*
Y-37418D01*
X-6629Y-45038D02*
X3531D01*
X-6629D02*
Y-37418D01*
X193730Y88810D02*
X195000Y90080D01*
X193730Y88810D02*
X196270Y86270D01*
X193730Y83730D02*
X196270Y86270D01*
X193730Y83730D02*
X196270Y81190D01*
X195000Y79920D02*
X196270Y81190D01*
X198810Y90080D02*
X203890D01*
Y79920D02*
Y90080D01*
X198810Y79920D02*
X203890D01*
X186110Y90080D02*
X191190D01*
X186110Y79920D02*
Y90080D01*
Y79920D02*
X191190D01*
X-213368Y103649D02*
X-208288D01*
X-213368D02*
Y113808D01*
X-208288D01*
X-200668Y103649D02*
X-195588D01*
Y113808D01*
X-200668D02*
X-195588D01*
X-204478Y103649D02*
X-203208Y104918D01*
X-205748Y107458D02*
X-203208Y104918D01*
X-205748Y107458D02*
X-203208Y109999D01*
X-205748Y112538D02*
X-203208Y109999D01*
X-205748Y112538D02*
X-204478Y113808D01*
X221110Y-72080D02*
X226190D01*
X221110D02*
Y-61920D01*
X226190D01*
X233810Y-72080D02*
X238890D01*
Y-61920D01*
X233810D02*
X238890D01*
X230000Y-72080D02*
X231270Y-70810D01*
X228730Y-68270D02*
X231270Y-70810D01*
X228730Y-68270D02*
X231270Y-65730D01*
X228730Y-63190D02*
X231270Y-65730D01*
X228730Y-63190D02*
X230000Y-61920D01*
X221110Y-84080D02*
X226190D01*
X221110D02*
Y-73920D01*
X226190D01*
X233810Y-84080D02*
X238890D01*
Y-73920D01*
X233810D02*
X238890D01*
X230000Y-84080D02*
X231270Y-82810D01*
X228730Y-80270D02*
X231270Y-82810D01*
X228730Y-80270D02*
X231270Y-77730D01*
X228730Y-75190D02*
X231270Y-77730D01*
X228730Y-75190D02*
X230000Y-73920D01*
X176371Y-128056D02*
X181371Y-123056D01*
X171371D02*
X181371D01*
X171371D02*
X176371Y-128056D01*
X162000Y-185584D02*
X228000D01*
X243750Y-155084D02*
Y-148834D01*
X220000D02*
X243750D01*
X146250D02*
X170250D01*
X146250Y-155084D02*
Y-148834D01*
X47840Y117000D02*
X68160D01*
X47840Y97950D02*
Y136050D01*
X68160Y97950D02*
Y136050D01*
X42266Y174150D02*
X47346D01*
X42266D02*
Y184310D01*
X47346D01*
X54966Y174150D02*
X60046D01*
Y184310D01*
X54966D02*
X60046D01*
X51156Y174150D02*
X52426Y175420D01*
X49886Y177960D02*
X52426Y175420D01*
X49886Y177960D02*
X52426Y180500D01*
X49886Y183040D02*
X52426Y180500D01*
X49886Y183040D02*
X51156Y184310D01*
X36500Y158230D02*
Y162980D01*
X34688D02*
X36500D01*
X34688D02*
Y165480D01*
X36500D01*
Y170230D01*
X7500D02*
X36500D01*
X7500Y158230D02*
Y170230D01*
Y158230D02*
X36500D01*
X19500Y164230D02*
X24500D01*
X22000Y161730D02*
Y166730D01*
X43536Y149750D02*
X51156D01*
Y159910D01*
X43536D02*
X51156D01*
Y149750D02*
X58776D01*
X51156D02*
Y159910D01*
X58776D01*
X-56410Y143648D02*
X-36091D01*
Y124598D02*
Y162698D01*
X-56410Y124598D02*
Y162698D01*
X131540Y172111D02*
X136620D01*
Y161951D02*
Y172111D01*
X131540Y161951D02*
X136620D01*
X118840Y172111D02*
X123920D01*
X118840Y161951D02*
Y172111D01*
Y161951D02*
X123920D01*
X126460Y170841D02*
X127730Y172111D01*
X126460Y170841D02*
X129000Y168301D01*
X126460Y165761D02*
X129000Y168301D01*
X126460Y165761D02*
X129000Y163221D01*
X127730Y161951D02*
X129000Y163221D01*
X113230Y158230D02*
Y162980D01*
X111418D02*
X113230D01*
X111418D02*
Y165480D01*
X113230D01*
Y170230D01*
X84230D02*
X113230D01*
X84230Y158230D02*
Y170230D01*
Y158230D02*
X113230D01*
X96230Y164230D02*
X101230D01*
X98730Y161730D02*
Y166730D01*
X-225756Y108251D02*
Y113331D01*
X-215595D01*
Y108251D02*
Y113331D01*
X-225756Y95551D02*
Y100631D01*
Y95551D02*
X-215595D01*
Y100631D01*
X-225756Y104441D02*
X-224485Y103171D01*
X-221945Y105711D01*
X-219405Y103171D01*
X-216866Y105711D01*
X-215595Y104441D01*
X-246450Y-113690D02*
Y-111500D01*
Y-123500D02*
Y-121310D01*
X-236290Y-111150D02*
X-232480D01*
Y-123850D02*
Y-111150D01*
X-260420Y-123850D02*
X-232480D01*
X-260420D02*
Y-111150D01*
X-236290D01*
D78*
X230700Y152220D02*
G03*
X230700Y152220I-1000J0D01*
G01*
X232200D02*
G03*
X232200Y152220I-2500J0D01*
G01*
X217000Y157300D02*
Y182700D01*
X191600Y157300D02*
X242400D01*
X191600D02*
Y182700D01*
X242400D01*
Y157300D02*
Y182700D01*
D79*
X161456Y153811D02*
X174156D01*
X161456Y184291D02*
X174156D01*
X166574Y169051D02*
X171578D01*
X161456Y153811D02*
Y162701D01*
Y175401D02*
Y184291D01*
X169076Y166549D02*
Y171553D01*
D80*
X262460Y83000D02*
X267540D01*
X265000Y79800D02*
Y86100D01*
X223000Y-116000D02*
X227000D01*
X209000D02*
X213250D01*
X223000Y-98000D02*
X227000D01*
X209000D02*
X213000D01*
X251000Y-95002D02*
Y-99167D01*
X250167Y-100000D01*
X248501D01*
X247668Y-99167D01*
Y-95002D01*
X246002Y-100000D02*
X244335D01*
X245169D01*
Y-95002D01*
X246002Y-95835D01*
X241836Y-99167D02*
X241003Y-100000D01*
X239337D01*
X238504Y-99167D01*
Y-95835D01*
X239337Y-95002D01*
X241003D01*
X241836Y-95835D01*
Y-96668D01*
X241003Y-97501D01*
X238504D01*
X119668Y-22002D02*
X123000D01*
Y-24501D01*
X121334D01*
X123000D01*
Y-27000D01*
X118002Y-22002D02*
Y-27000D01*
X115503D01*
X114669Y-26167D01*
Y-25334D01*
X115503Y-24501D01*
X118002D01*
X115503D01*
X114669Y-23668D01*
Y-22835D01*
X115503Y-22002D01*
X118002D01*
X113003Y-27000D02*
X111337D01*
X112170D01*
Y-22002D01*
X113003Y-22835D01*
X108838Y-27000D02*
X107172D01*
X108005D01*
Y-22002D01*
X108838Y-22835D01*
X60000Y-53002D02*
Y-57167D01*
X59167Y-58000D01*
X57501D01*
X56668Y-57167D01*
Y-53002D01*
X55002Y-58000D02*
X53335D01*
X54169D01*
Y-53002D01*
X55002Y-53835D01*
X50836Y-58000D02*
X49170D01*
X50003D01*
Y-53002D01*
X50836Y-53835D01*
X-207500Y-83002D02*
X-210832D01*
X-209166D01*
Y-88000D01*
X-212498D02*
Y-83002D01*
X-214997D01*
X-215830Y-83835D01*
Y-85501D01*
X-214997Y-86334D01*
X-212498D01*
X-219996Y-88000D02*
Y-83002D01*
X-217496Y-85501D01*
X-220829D01*
X284000Y-89002D02*
X280668D01*
X282334D01*
Y-94000D01*
X279002D02*
Y-89002D01*
X276502D01*
X275669Y-89835D01*
Y-91501D01*
X276502Y-92334D01*
X279002D01*
X274003Y-89835D02*
X273170Y-89002D01*
X271504D01*
X270671Y-89835D01*
Y-90668D01*
X271504Y-91501D01*
X272337D01*
X271504D01*
X270671Y-92334D01*
Y-93167D01*
X271504Y-94000D01*
X273170D01*
X274003Y-93167D01*
X-267163Y-74002D02*
X-270495D01*
X-268829D01*
Y-79000D01*
X-272161D02*
Y-74002D01*
X-274660D01*
X-275494Y-74835D01*
Y-76501D01*
X-274660Y-77334D01*
X-272161D01*
X-280492Y-79000D02*
X-277160D01*
X-280492Y-75668D01*
Y-74835D01*
X-279659Y-74002D01*
X-277993D01*
X-277160Y-74835D01*
X-280713Y-115123D02*
X-284045D01*
X-282379D01*
Y-120122D01*
X-285711D02*
Y-115123D01*
X-288210D01*
X-289044Y-115956D01*
Y-117622D01*
X-288210Y-118456D01*
X-285711D01*
X-290710Y-120122D02*
X-292376D01*
X-291543D01*
Y-115123D01*
X-290710Y-115956D01*
X253668Y127165D02*
X254501Y127998D01*
X256167D01*
X257000Y127165D01*
Y126332D01*
X256167Y125499D01*
X254501D01*
X253668Y124666D01*
Y123833D01*
X254501Y123000D01*
X256167D01*
X257000Y123833D01*
X252002Y127998D02*
Y123000D01*
X250336Y124666D01*
X248669Y123000D01*
Y127998D01*
X247003Y123000D02*
X245337D01*
X246170D01*
Y127998D01*
X247003Y127165D01*
X-171000Y40000D02*
Y44998D01*
X-173499D01*
X-174332Y44165D01*
Y42499D01*
X-173499Y41666D01*
X-171000D01*
X-172666D02*
X-174332Y40000D01*
X-175998Y44998D02*
X-179331D01*
Y44165D01*
X-175998Y40833D01*
Y40000D01*
X-184329Y44998D02*
X-180997D01*
Y42499D01*
X-182663Y43332D01*
X-183496D01*
X-184329Y42499D01*
Y40833D01*
X-183496Y40000D01*
X-181830D01*
X-180997Y40833D01*
X-171331Y-8308D02*
Y-3309D01*
X-173830D01*
X-174663Y-4142D01*
Y-5809D01*
X-173830Y-6642D01*
X-171331D01*
X-172997D02*
X-174663Y-8308D01*
X-176329Y-3309D02*
X-179661D01*
Y-4142D01*
X-176329Y-7475D01*
Y-8308D01*
X-183827D02*
Y-3309D01*
X-181327Y-5809D01*
X-184660D01*
X-171331Y-21122D02*
Y-16124D01*
X-173830D01*
X-174663Y-16957D01*
Y-18623D01*
X-173830Y-19456D01*
X-171331D01*
X-172997D02*
X-174663Y-21122D01*
X-176329Y-16124D02*
X-179661D01*
Y-16957D01*
X-176329Y-20289D01*
Y-21122D01*
X-181327Y-16957D02*
X-182161Y-16124D01*
X-183827D01*
X-184660Y-16957D01*
Y-17790D01*
X-183827Y-18623D01*
X-182994D01*
X-183827D01*
X-184660Y-19456D01*
Y-20289D01*
X-183827Y-21122D01*
X-182161D01*
X-181327Y-20289D01*
X-171331Y3343D02*
Y8342D01*
X-173830D01*
X-174663Y7509D01*
Y5842D01*
X-173830Y5009D01*
X-171331D01*
X-172997D02*
X-174663Y3343D01*
X-176329Y8342D02*
X-179661D01*
Y7509D01*
X-176329Y4176D01*
Y3343D01*
X-184660D02*
X-181327D01*
X-184660Y6676D01*
Y7509D01*
X-183827Y8342D01*
X-182161D01*
X-181327Y7509D01*
X-171331Y14924D02*
Y19922D01*
X-173830D01*
X-174663Y19089D01*
Y17423D01*
X-173830Y16590D01*
X-171331D01*
X-172997D02*
X-174663Y14924D01*
X-176329Y19922D02*
X-179661D01*
Y19089D01*
X-176329Y15757D01*
Y14924D01*
X-181327D02*
X-182994D01*
X-182161D01*
Y19922D01*
X-181327Y19089D01*
X-188509Y-45998D02*
Y-40999D01*
X-191009D01*
X-191842Y-41833D01*
Y-43499D01*
X-191009Y-44332D01*
X-188509D01*
X-190175D02*
X-191842Y-45998D01*
X-196840Y-40999D02*
X-195174Y-41833D01*
X-193508Y-43499D01*
Y-45165D01*
X-194341Y-45998D01*
X-196007D01*
X-196840Y-45165D01*
Y-44332D01*
X-196007Y-43499D01*
X-193508D01*
X-201838Y-40999D02*
X-200172Y-41833D01*
X-198506Y-43499D01*
Y-45165D01*
X-199339Y-45998D01*
X-201005D01*
X-201838Y-45165D01*
Y-44332D01*
X-201005Y-43499D01*
X-198506D01*
X51000Y-9000D02*
X55998D01*
Y-6501D01*
X55165Y-5668D01*
X53499D01*
X52666Y-6501D01*
Y-9000D01*
Y-7334D02*
X51000Y-5668D01*
X55998Y-669D02*
Y-4002D01*
X53499D01*
X54332Y-2335D01*
Y-1503D01*
X53499Y-669D01*
X51833D01*
X51000Y-1503D01*
Y-3169D01*
X51833Y-4002D01*
X55998Y4329D02*
Y997D01*
X53499D01*
X54332Y2663D01*
Y3496D01*
X53499Y4329D01*
X51833D01*
X51000Y3496D01*
Y1830D01*
X51833Y997D01*
X90042Y-104760D02*
Y-99762D01*
X87543D01*
X86710Y-100595D01*
Y-102261D01*
X87543Y-103094D01*
X90042D01*
X88376D02*
X86710Y-104760D01*
X82545D02*
Y-99762D01*
X85044Y-102261D01*
X81712D01*
X80046Y-103927D02*
X79213Y-104760D01*
X77547D01*
X76713Y-103927D01*
Y-100595D01*
X77547Y-99762D01*
X79213D01*
X80046Y-100595D01*
Y-101428D01*
X79213Y-102261D01*
X76713D01*
X179000Y-102000D02*
X183998D01*
Y-99501D01*
X183165Y-98668D01*
X181499D01*
X180666Y-99501D01*
Y-102000D01*
Y-100334D02*
X179000Y-98668D01*
Y-94502D02*
X183998D01*
X181499Y-97002D01*
Y-93669D01*
X183998Y-88671D02*
X183165Y-90337D01*
X181499Y-92003D01*
X179833D01*
X179000Y-91170D01*
Y-89504D01*
X179833Y-88671D01*
X180666D01*
X181499Y-89504D01*
Y-92003D01*
X206000Y-74000D02*
Y-69002D01*
X203501D01*
X202668Y-69835D01*
Y-71501D01*
X203501Y-72334D01*
X206000D01*
X204334D02*
X202668Y-74000D01*
X198502D02*
Y-69002D01*
X201002Y-71501D01*
X197669D01*
X193504Y-74000D02*
Y-69002D01*
X196003Y-71501D01*
X192671D01*
X221558Y6620D02*
X226557D01*
Y9119D01*
X225724Y9952D01*
X224057D01*
X223224Y9119D01*
Y6620D01*
Y8286D02*
X221558Y9952D01*
Y14117D02*
X226557D01*
X224057Y11618D01*
Y14950D01*
X221558Y19949D02*
Y16617D01*
X224890Y19949D01*
X225724D01*
X226557Y19116D01*
Y17450D01*
X225724Y16617D01*
X203000Y-124000D02*
Y-119002D01*
X200501D01*
X199668Y-119835D01*
Y-121501D01*
X200501Y-122334D01*
X203000D01*
X201334D02*
X199668Y-124000D01*
X195502D02*
Y-119002D01*
X198002Y-121501D01*
X194669D01*
X193003Y-124000D02*
X191337D01*
X192170D01*
Y-119002D01*
X193003Y-119835D01*
X236000Y-60000D02*
Y-55002D01*
X233501D01*
X232668Y-55835D01*
Y-57501D01*
X233501Y-58334D01*
X236000D01*
X234334D02*
X232668Y-60000D01*
X227669D02*
X231002D01*
X227669Y-56668D01*
Y-55835D01*
X228503Y-55002D01*
X230169D01*
X231002Y-55835D01*
X226003D02*
X225170Y-55002D01*
X223504D01*
X222671Y-55835D01*
Y-56668D01*
X223504Y-57501D01*
X222671Y-58334D01*
Y-59167D01*
X223504Y-60000D01*
X225170D01*
X226003Y-59167D01*
Y-58334D01*
X225170Y-57501D01*
X226003Y-56668D01*
Y-55835D01*
X225170Y-57501D02*
X223504D01*
X255000Y-81000D02*
Y-76002D01*
X252501D01*
X251668Y-76835D01*
Y-78501D01*
X252501Y-79334D01*
X255000D01*
X253334D02*
X251668Y-81000D01*
X246669D02*
X250002D01*
X246669Y-77668D01*
Y-76835D01*
X247502Y-76002D01*
X249169D01*
X250002Y-76835D01*
X245003Y-76002D02*
X241671D01*
Y-76835D01*
X245003Y-80167D01*
Y-81000D01*
X-277394Y129022D02*
Y134020D01*
X-279893D01*
X-280727Y133187D01*
Y131521D01*
X-279893Y130688D01*
X-277394D01*
X-279060D02*
X-280727Y129022D01*
X-282393D02*
X-284059D01*
X-283226D01*
Y134020D01*
X-282393Y133187D01*
X-289890Y134020D02*
X-288224Y133187D01*
X-286558Y131521D01*
Y129855D01*
X-287391Y129022D01*
X-289057D01*
X-289890Y129855D01*
Y130688D01*
X-289057Y131521D01*
X-286558D01*
X-198000Y95000D02*
Y99998D01*
X-200499D01*
X-201332Y99165D01*
Y97499D01*
X-200499Y96666D01*
X-198000D01*
X-199666D02*
X-201332Y95000D01*
X-202998D02*
X-204664D01*
X-203831D01*
Y99998D01*
X-202998Y99165D01*
X-210496Y95000D02*
X-207164D01*
X-210496Y98332D01*
Y99165D01*
X-209663Y99998D01*
X-207997D01*
X-207164Y99165D01*
X-174000Y174000D02*
Y178998D01*
X-176499D01*
X-177332Y178165D01*
Y176499D01*
X-176499Y175666D01*
X-174000D01*
X-175666D02*
X-177332Y174000D01*
X-178998D02*
X-180665D01*
X-179831D01*
Y178998D01*
X-178998Y178165D01*
X-183164Y174000D02*
X-184830D01*
X-183997D01*
Y178998D01*
X-183164Y178165D01*
X221000Y93000D02*
Y97998D01*
X218501D01*
X217668Y97165D01*
Y95499D01*
X218501Y94666D01*
X221000D01*
X219334D02*
X217668Y93000D01*
X216002Y97998D02*
X212669D01*
Y97165D01*
X216002Y93833D01*
Y93000D01*
X198000Y94000D02*
Y98998D01*
X195501D01*
X194668Y98165D01*
Y96499D01*
X195501Y95666D01*
X198000D01*
X196334D02*
X194668Y94000D01*
X189669Y98998D02*
X191336Y98165D01*
X193002Y96499D01*
Y94833D01*
X192169Y94000D01*
X190502D01*
X189669Y94833D01*
Y95666D01*
X190502Y96499D01*
X193002D01*
X63501Y58998D02*
X65167D01*
X66000Y58165D01*
Y54833D01*
X65167Y54000D01*
X63501D01*
X62668Y54833D01*
Y58165D01*
X63501Y58998D01*
X57669Y58165D02*
X58502Y58998D01*
X60169D01*
X61002Y58165D01*
Y57332D01*
X60169Y56499D01*
X58502D01*
X57669Y55666D01*
Y54833D01*
X58502Y54000D01*
X60169D01*
X61002Y54833D01*
X52671Y58165D02*
X53504Y58998D01*
X55170D01*
X56003Y58165D01*
Y54833D01*
X55170Y54000D01*
X53504D01*
X52671Y54833D01*
X51005Y54000D02*
X49339D01*
X50172D01*
Y58998D01*
X51005Y58165D01*
X98000Y102544D02*
Y97546D01*
X94668D01*
X89669D02*
X93002D01*
X89669Y100878D01*
Y101711D01*
X90502Y102544D01*
X92169D01*
X93002Y101711D01*
X216668Y153998D02*
X218334D01*
X217501D01*
Y149833D01*
X218334Y149000D01*
X219167D01*
X220000Y149833D01*
X212502Y149000D02*
Y153998D01*
X215002Y151499D01*
X211669D01*
X-34002Y-196751D02*
Y-198417D01*
Y-197584D01*
X-38167D01*
X-39000Y-198417D01*
Y-199251D01*
X-38167Y-200084D01*
X-34835Y-195085D02*
X-34002Y-194252D01*
Y-192586D01*
X-34835Y-191753D01*
X-35668D01*
X-36501Y-192586D01*
Y-193419D01*
Y-192586D01*
X-37334Y-191753D01*
X-38167D01*
X-39000Y-192586D01*
Y-194252D01*
X-38167Y-195085D01*
X173998Y35332D02*
Y32000D01*
X171499D01*
Y33666D01*
Y32000D01*
X169000D01*
X173998Y36998D02*
X169000D01*
Y39498D01*
X169833Y40331D01*
X170666D01*
X171499Y39498D01*
Y36998D01*
Y39498D01*
X172332Y40331D01*
X173165D01*
X173998Y39498D01*
Y36998D01*
X173165Y41997D02*
X173998Y42830D01*
Y44496D01*
X173165Y45329D01*
X172332D01*
X171499Y44496D01*
Y43663D01*
Y44496D01*
X170666Y45329D01*
X169833D01*
X169000Y44496D01*
Y42830D01*
X169833Y41997D01*
X150603Y-119324D02*
X153936D01*
Y-121824D01*
X152269D01*
X153936D01*
Y-124323D01*
X148937Y-119324D02*
Y-124323D01*
X146438D01*
X145605Y-123490D01*
Y-122657D01*
X146438Y-121824D01*
X148937D01*
X146438D01*
X145605Y-120990D01*
Y-120157D01*
X146438Y-119324D01*
X148937D01*
X140607Y-124323D02*
X143939D01*
X140607Y-120990D01*
Y-120157D01*
X141440Y-119324D01*
X143106D01*
X143939Y-120157D01*
X178000Y149998D02*
Y145000D01*
X175501D01*
X174668Y145833D01*
Y149165D01*
X175501Y149998D01*
X178000D01*
X173002Y149165D02*
X172169Y149998D01*
X170502D01*
X169669Y149165D01*
Y148332D01*
X170502Y147499D01*
X171336D01*
X170502D01*
X169669Y146666D01*
Y145833D01*
X170502Y145000D01*
X172169D01*
X173002Y145833D01*
X-75000Y-93002D02*
Y-98000D01*
X-77499D01*
X-78332Y-97167D01*
Y-93835D01*
X-77499Y-93002D01*
X-75000D01*
X-83331Y-98000D02*
X-79998D01*
X-83331Y-94668D01*
Y-93835D01*
X-82498Y-93002D01*
X-80831D01*
X-79998Y-93835D01*
X-37332Y-58835D02*
X-36499Y-58002D01*
X-34833D01*
X-34000Y-58835D01*
Y-62167D01*
X-34833Y-63000D01*
X-36499D01*
X-37332Y-62167D01*
X-38998Y-58835D02*
X-39831Y-58002D01*
X-41498D01*
X-42331Y-58835D01*
Y-59668D01*
X-41498Y-60501D01*
X-40665D01*
X-41498D01*
X-42331Y-61334D01*
Y-62167D01*
X-41498Y-63000D01*
X-39831D01*
X-38998Y-62167D01*
X-43997Y-63000D02*
X-45663D01*
X-44830D01*
Y-58002D01*
X-43997Y-58835D01*
X43668Y65165D02*
X44501Y65998D01*
X46167D01*
X47000Y65165D01*
Y61833D01*
X46167Y61000D01*
X44501D01*
X43668Y61833D01*
X38669Y61000D02*
X42002D01*
X38669Y64332D01*
Y65165D01*
X39502Y65998D01*
X41169D01*
X42002Y65165D01*
X37003Y65998D02*
X33671D01*
Y65165D01*
X37003Y61833D01*
Y61000D01*
X-42835Y-50668D02*
X-42002Y-51501D01*
Y-53167D01*
X-42835Y-54000D01*
X-46167D01*
X-47000Y-53167D01*
Y-51501D01*
X-46167Y-50668D01*
X-47000Y-45669D02*
Y-49002D01*
X-43668Y-45669D01*
X-42835D01*
X-42002Y-46502D01*
Y-48169D01*
X-42835Y-49002D01*
X-47000Y-41504D02*
X-42002D01*
X-44501Y-44003D01*
Y-40671D01*
X-238889Y144940D02*
X-238056Y145773D01*
X-236390D01*
X-235557Y144940D01*
Y141608D01*
X-236390Y140774D01*
X-238056D01*
X-238889Y141608D01*
X-240555Y140774D02*
X-242221D01*
X-241388D01*
Y145773D01*
X-240555Y144940D01*
X-244720D02*
X-245554Y145773D01*
X-247220D01*
X-248053Y144940D01*
Y141608D01*
X-247220Y140774D01*
X-245554D01*
X-244720Y141608D01*
Y144940D01*
X-229835Y178332D02*
X-229002Y177499D01*
Y175833D01*
X-229835Y175000D01*
X-233167D01*
X-234000Y175833D01*
Y177499D01*
X-233167Y178332D01*
Y179998D02*
X-234000Y180831D01*
Y182498D01*
X-233167Y183331D01*
X-229835D01*
X-229002Y182498D01*
Y180831D01*
X-229835Y179998D01*
X-230668D01*
X-231501Y180831D01*
Y183331D01*
X-176332Y98165D02*
X-175499Y98998D01*
X-173833D01*
X-173000Y98165D01*
Y94833D01*
X-173833Y94000D01*
X-175499D01*
X-176332Y94833D01*
X-177998Y98165D02*
X-178831Y98998D01*
X-180498D01*
X-181331Y98165D01*
Y97332D01*
X-180498Y96499D01*
X-181331Y95666D01*
Y94833D01*
X-180498Y94000D01*
X-178831D01*
X-177998Y94833D01*
Y95666D01*
X-178831Y96499D01*
X-177998Y97332D01*
Y98165D01*
X-178831Y96499D02*
X-180498D01*
X161259Y99938D02*
X162092Y100771D01*
X163758D01*
X164592Y99938D01*
Y96606D01*
X163758Y95773D01*
X162092D01*
X161259Y96606D01*
X159593Y100771D02*
X156261D01*
Y99938D01*
X159593Y96606D01*
Y95773D01*
X146858Y150435D02*
X147691Y151268D01*
X149357D01*
X150190Y150435D01*
Y147103D01*
X149357Y146270D01*
X147691D01*
X146858Y147103D01*
X141859Y151268D02*
X143525Y150435D01*
X145192Y148769D01*
Y147103D01*
X144359Y146270D01*
X142692D01*
X141859Y147103D01*
Y147936D01*
X142692Y148769D01*
X145192D01*
X-22332Y120135D02*
X-21499Y120968D01*
X-19833D01*
X-19000Y120135D01*
Y116803D01*
X-19833Y115970D01*
X-21499D01*
X-22332Y116803D01*
X-26497Y115970D02*
Y120968D01*
X-23998Y118469D01*
X-27331D01*
X-165332Y174165D02*
X-164499Y174998D01*
X-162833D01*
X-162000Y174165D01*
Y170833D01*
X-162833Y170000D01*
X-164499D01*
X-165332Y170833D01*
X-166998Y174165D02*
X-167831Y174998D01*
X-169498D01*
X-170331Y174165D01*
Y173332D01*
X-169498Y172499D01*
X-168664D01*
X-169498D01*
X-170331Y171666D01*
Y170833D01*
X-169498Y170000D01*
X-167831D01*
X-166998Y170833D01*
X246516Y88832D02*
X247349Y87999D01*
Y86333D01*
X246516Y85500D01*
X243184D01*
X242351Y86333D01*
Y87999D01*
X243184Y88832D01*
X242351Y93831D02*
Y90498D01*
X245683Y93831D01*
X246516D01*
X247349Y92998D01*
Y91331D01*
X246516Y90498D01*
X208668Y74165D02*
X209501Y74998D01*
X211167D01*
X212000Y74165D01*
Y70833D01*
X211167Y70000D01*
X209501D01*
X208668Y70833D01*
X207002Y70000D02*
X205336D01*
X206169D01*
Y74998D01*
X207002Y74165D01*
X-33002Y-54000D02*
X-38000D01*
Y-51501D01*
X-37167Y-50668D01*
X-36334D01*
X-35501Y-51501D01*
Y-54000D01*
Y-51501D01*
X-34668Y-50668D01*
X-33835D01*
X-33002Y-51501D01*
Y-54000D01*
X-33835Y-45669D02*
X-33002Y-46502D01*
Y-48169D01*
X-33835Y-49002D01*
X-37167D01*
X-38000Y-48169D01*
Y-46502D01*
X-37167Y-45669D01*
X-38000Y-40671D02*
Y-44003D01*
X-34668Y-40671D01*
X-33835D01*
X-33002Y-41504D01*
Y-43170D01*
X-33835Y-44003D01*
X-33002Y-35673D02*
Y-39005D01*
X-35501D01*
X-34668Y-37339D01*
Y-36506D01*
X-35501Y-35673D01*
X-37167D01*
X-38000Y-36506D01*
Y-38172D01*
X-37167Y-39005D01*
X23249Y53665D02*
Y48667D01*
X20749D01*
X19916Y49500D01*
Y50333D01*
X20749Y51166D01*
X23249D01*
X20749D01*
X19916Y51999D01*
Y52832D01*
X20749Y53665D01*
X23249D01*
X14918Y52832D02*
X15751Y53665D01*
X17417D01*
X18250Y52832D01*
Y49500D01*
X17417Y48667D01*
X15751D01*
X14918Y49500D01*
X9920Y48667D02*
X13252D01*
X9920Y51999D01*
Y52832D01*
X10753Y53665D01*
X12419D01*
X13252Y52832D01*
X8253D02*
X7420Y53665D01*
X5754D01*
X4921Y52832D01*
Y49500D01*
X5754Y48667D01*
X7420D01*
X8253Y49500D01*
Y52832D01*
X55236Y-25113D02*
Y-30112D01*
X52737D01*
X51904Y-29279D01*
Y-28446D01*
X52737Y-27613D01*
X55236D01*
X52737D01*
X51904Y-26779D01*
Y-25946D01*
X52737Y-25113D01*
X55236D01*
X46906Y-25946D02*
X47739Y-25113D01*
X49405D01*
X50238Y-25946D01*
Y-29279D01*
X49405Y-30112D01*
X47739D01*
X46906Y-29279D01*
X45240Y-30112D02*
X43574D01*
X44407D01*
Y-25113D01*
X45240Y-25946D01*
X41074D02*
X40241Y-25113D01*
X38575D01*
X37742Y-25946D01*
Y-26779D01*
X38575Y-27613D01*
X37742Y-28446D01*
Y-29279D01*
X38575Y-30112D01*
X40241D01*
X41074Y-29279D01*
Y-28446D01*
X40241Y-27613D01*
X41074Y-26779D01*
Y-25946D01*
X40241Y-27613D02*
X38575D01*
X172998Y-57000D02*
X168000D01*
Y-54501D01*
X168833Y-53668D01*
X169666D01*
X170499Y-54501D01*
Y-57000D01*
Y-54501D01*
X171332Y-53668D01*
X172165D01*
X172998Y-54501D01*
Y-57000D01*
X172165Y-48669D02*
X172998Y-49502D01*
Y-51169D01*
X172165Y-52002D01*
X168833D01*
X168000Y-51169D01*
Y-49502D01*
X168833Y-48669D01*
X168000Y-47003D02*
Y-45337D01*
Y-46170D01*
X172998D01*
X172165Y-47003D01*
X172998Y-39506D02*
X172165Y-41172D01*
X170499Y-42838D01*
X168833D01*
X168000Y-42005D01*
Y-40339D01*
X168833Y-39506D01*
X169666D01*
X170499Y-40339D01*
Y-42838D01*
X158998Y-56000D02*
X154000D01*
Y-53501D01*
X154833Y-52668D01*
X155666D01*
X156499Y-53501D01*
Y-56000D01*
Y-53501D01*
X157332Y-52668D01*
X158165D01*
X158998Y-53501D01*
Y-56000D01*
X158165Y-47669D02*
X158998Y-48502D01*
Y-50169D01*
X158165Y-51002D01*
X154833D01*
X154000Y-50169D01*
Y-48502D01*
X154833Y-47669D01*
X154000Y-46003D02*
Y-44337D01*
Y-45170D01*
X158998D01*
X158165Y-46003D01*
X158998Y-38506D02*
Y-41838D01*
X156499D01*
X157332Y-40172D01*
Y-39339D01*
X156499Y-38506D01*
X154833D01*
X154000Y-39339D01*
Y-41005D01*
X154833Y-41838D01*
X92998Y-63000D02*
X88000D01*
Y-60501D01*
X88833Y-59668D01*
X89666D01*
X90499Y-60501D01*
Y-63000D01*
Y-60501D01*
X91332Y-59668D01*
X92165D01*
X92998Y-60501D01*
Y-63000D01*
X92165Y-54669D02*
X92998Y-55503D01*
Y-57169D01*
X92165Y-58002D01*
X88833D01*
X88000Y-57169D01*
Y-55503D01*
X88833Y-54669D01*
X88000Y-53003D02*
Y-51337D01*
Y-52170D01*
X92998D01*
X92165Y-53003D01*
X88000Y-46339D02*
X92998D01*
X90499Y-48838D01*
Y-45506D01*
X148998Y17000D02*
X144000D01*
Y19499D01*
X144833Y20332D01*
X145666D01*
X146499Y19499D01*
Y17000D01*
Y19499D01*
X147332Y20332D01*
X148165D01*
X148998Y19499D01*
Y17000D01*
X148165Y25331D02*
X148998Y24497D01*
Y22831D01*
X148165Y21998D01*
X144833D01*
X144000Y22831D01*
Y24497D01*
X144833Y25331D01*
X144000Y26997D02*
Y28663D01*
Y27830D01*
X148998D01*
X148165Y26997D01*
Y31162D02*
X148998Y31995D01*
Y33661D01*
X148165Y34494D01*
X147332D01*
X146499Y33661D01*
Y32828D01*
Y33661D01*
X145666Y34494D01*
X144833D01*
X144000Y33661D01*
Y31995D01*
X144833Y31162D01*
X195000Y-10002D02*
Y-15000D01*
X192501D01*
X191668Y-14167D01*
Y-13334D01*
X192501Y-12501D01*
X195000D01*
X192501D01*
X191668Y-11668D01*
Y-10835D01*
X192501Y-10002D01*
X195000D01*
X186669Y-10835D02*
X187502Y-10002D01*
X189169D01*
X190002Y-10835D01*
Y-14167D01*
X189169Y-15000D01*
X187502D01*
X186669Y-14167D01*
X185003Y-15000D02*
X183337D01*
X184170D01*
Y-10002D01*
X185003Y-10835D01*
X177506Y-15000D02*
X180838D01*
X177506Y-11668D01*
Y-10835D01*
X178339Y-10002D01*
X180005D01*
X180838Y-10835D01*
X215791Y27000D02*
X210793D01*
Y29499D01*
X211626Y30332D01*
X212459D01*
X213292Y29499D01*
Y27000D01*
Y29499D01*
X214125Y30332D01*
X214958D01*
X215791Y29499D01*
Y27000D01*
X214958Y35330D02*
X215791Y34497D01*
Y32831D01*
X214958Y31998D01*
X211626D01*
X210793Y32831D01*
Y34497D01*
X211626Y35330D01*
X210793Y36996D02*
Y38663D01*
Y37829D01*
X215791D01*
X214958Y36996D01*
Y41162D02*
X215791Y41995D01*
Y43661D01*
X214958Y44494D01*
X211626D01*
X210793Y43661D01*
Y41995D01*
X211626Y41162D01*
X214958D01*
X150998Y-56000D02*
X146000D01*
Y-53501D01*
X146833Y-52668D01*
X147666D01*
X148499Y-53501D01*
Y-56000D01*
Y-53501D01*
X149332Y-52668D01*
X150165D01*
X150998Y-53501D01*
Y-56000D01*
X150165Y-47669D02*
X150998Y-48502D01*
Y-50169D01*
X150165Y-51002D01*
X146833D01*
X146000Y-50169D01*
Y-48502D01*
X146833Y-47669D01*
Y-46003D02*
X146000Y-45170D01*
Y-43504D01*
X146833Y-42671D01*
X150165D01*
X150998Y-43504D01*
Y-45170D01*
X150165Y-46003D01*
X149332D01*
X148499Y-45170D01*
Y-42671D01*
X201369Y-65576D02*
X196370D01*
Y-63077D01*
X197203Y-62244D01*
X198036D01*
X198869Y-63077D01*
Y-65576D01*
Y-63077D01*
X199702Y-62244D01*
X200536D01*
X201369Y-63077D01*
Y-65576D01*
X200536Y-57246D02*
X201369Y-58079D01*
Y-59745D01*
X200536Y-60578D01*
X197203D01*
X196370Y-59745D01*
Y-58079D01*
X197203Y-57246D01*
X200536Y-55579D02*
X201369Y-54746D01*
Y-53080D01*
X200536Y-52247D01*
X199702D01*
X198869Y-53080D01*
X198036Y-52247D01*
X197203D01*
X196370Y-53080D01*
Y-54746D01*
X197203Y-55579D01*
X198036D01*
X198869Y-54746D01*
X199702Y-55579D01*
X200536D01*
X198869Y-54746D02*
Y-53080D01*
X153181Y-77965D02*
Y-82963D01*
X150682D01*
X149849Y-82130D01*
Y-81297D01*
X150682Y-80464D01*
X153181D01*
X150682D01*
X149849Y-79631D01*
Y-78798D01*
X150682Y-77965D01*
X153181D01*
X144851Y-78798D02*
X145684Y-77965D01*
X147350D01*
X148183Y-78798D01*
Y-82130D01*
X147350Y-82963D01*
X145684D01*
X144851Y-82130D01*
X143185Y-77965D02*
X139852D01*
Y-78798D01*
X143185Y-82130D01*
Y-82963D01*
X138086Y44977D02*
Y49975D01*
X140585D01*
X141418Y49142D01*
Y48309D01*
X140585Y47476D01*
X138086D01*
X140585D01*
X141418Y46643D01*
Y45810D01*
X140585Y44977D01*
X138086D01*
X146416Y45810D02*
X145583Y44977D01*
X143917D01*
X143084Y45810D01*
Y49142D01*
X143917Y49975D01*
X145583D01*
X146416Y49142D01*
X151414Y44977D02*
X148082D01*
Y47476D01*
X149748Y46643D01*
X150582D01*
X151414Y47476D01*
Y49142D01*
X150582Y49975D01*
X148915D01*
X148082Y49142D01*
X151998Y-21000D02*
X147000D01*
Y-18501D01*
X147833Y-17668D01*
X148666D01*
X149499Y-18501D01*
Y-21000D01*
Y-18501D01*
X150332Y-17668D01*
X151165D01*
X151998Y-18501D01*
Y-21000D01*
X151165Y-12669D02*
X151998Y-13503D01*
Y-15169D01*
X151165Y-16002D01*
X147833D01*
X147000Y-15169D01*
Y-13503D01*
X147833Y-12669D01*
X147000Y-8504D02*
X151998D01*
X149499Y-11003D01*
Y-7671D01*
X139341Y-170609D02*
X134343D01*
Y-168110D01*
X135176Y-167277D01*
X136009D01*
X136842Y-168110D01*
Y-170609D01*
Y-168110D01*
X137675Y-167277D01*
X138508D01*
X139341Y-168110D01*
Y-170609D01*
X138508Y-162279D02*
X139341Y-163112D01*
Y-164778D01*
X138508Y-165611D01*
X135176D01*
X134343Y-164778D01*
Y-163112D01*
X135176Y-162279D01*
X134343Y-160613D02*
Y-158947D01*
Y-159780D01*
X139341D01*
X138508Y-160613D01*
X-165399Y-102532D02*
Y-107531D01*
X-167898D01*
X-168731Y-106698D01*
Y-105865D01*
X-167898Y-105032D01*
X-165399D01*
X-167898D01*
X-168731Y-104199D01*
Y-103365D01*
X-167898Y-102532D01*
X-165399D01*
X-170397Y-107531D02*
Y-104199D01*
X-172063Y-102532D01*
X-173729Y-104199D01*
Y-107531D01*
Y-105032D01*
X-170397D01*
X-175396Y-102532D02*
X-178728D01*
X-177062D01*
Y-107531D01*
X-180394D02*
X-182060D01*
X-181227D01*
Y-102532D01*
X-180394Y-103365D01*
X230689Y-136781D02*
X232355D01*
X231522D01*
Y-140946D01*
X232355Y-141779D01*
X233188D01*
X234021Y-140946D01*
X225691Y-136781D02*
X229023D01*
Y-139280D01*
X227357Y-138447D01*
X226524D01*
X225691Y-139280D01*
Y-140946D01*
X226524Y-141779D01*
X228190D01*
X229023Y-140946D01*
X233460Y6620D02*
X238458D01*
Y9119D01*
X237625Y9952D01*
X235959D01*
X235126Y9119D01*
Y6620D01*
Y8286D02*
X233460Y9952D01*
X237625Y11618D02*
X238458Y12451D01*
Y14117D01*
X237625Y14950D01*
X236792D01*
X235959Y14117D01*
Y13284D01*
Y14117D01*
X235126Y14950D01*
X234293D01*
X233460Y14117D01*
Y12451D01*
X234293Y11618D01*
X237625Y16617D02*
X238458Y17450D01*
Y19116D01*
X237625Y19949D01*
X234293D01*
X233460Y19116D01*
Y17450D01*
X234293Y16617D01*
X237625D01*
X296252Y-30666D02*
Y-25667D01*
X293753D01*
X292920Y-26500D01*
Y-28166D01*
X293753Y-29000D01*
X296252D01*
X294586D02*
X292920Y-30666D01*
X287921D02*
X291254D01*
X287921Y-27333D01*
Y-26500D01*
X288754Y-25667D01*
X290420D01*
X291254Y-26500D01*
X286255Y-29832D02*
X285422Y-30666D01*
X283756D01*
X282923Y-29832D01*
Y-26500D01*
X283756Y-25667D01*
X285422D01*
X286255Y-26500D01*
Y-27333D01*
X285422Y-28166D01*
X282923D01*
X295040Y-15430D02*
Y-10432D01*
X292540D01*
X291707Y-11265D01*
Y-12931D01*
X292540Y-13764D01*
X295040D01*
X293373D02*
X291707Y-15430D01*
X290041Y-11265D02*
X289208Y-10432D01*
X287542D01*
X286709Y-11265D01*
Y-12098D01*
X287542Y-12931D01*
X288375D01*
X287542D01*
X286709Y-13764D01*
Y-14597D01*
X287542Y-15430D01*
X289208D01*
X290041Y-14597D01*
X285043Y-15430D02*
X283377D01*
X284210D01*
Y-10432D01*
X285043Y-11265D01*
X197000Y29000D02*
X201998D01*
Y31499D01*
X201165Y32332D01*
X199499D01*
X198666Y31499D01*
Y29000D01*
Y30666D02*
X197000Y32332D01*
X201165Y33998D02*
X201998Y34831D01*
Y36497D01*
X201165Y37331D01*
X200332D01*
X199499Y36497D01*
Y35665D01*
Y36497D01*
X198666Y37331D01*
X197833D01*
X197000Y36497D01*
Y34831D01*
X197833Y33998D01*
X201998Y42329D02*
X201165Y40663D01*
X199499Y38997D01*
X197833D01*
X197000Y39830D01*
Y41496D01*
X197833Y42329D01*
X198666D01*
X199499Y41496D01*
Y38997D01*
X185000Y29000D02*
X189998D01*
Y31499D01*
X189165Y32332D01*
X187499D01*
X186666Y31499D01*
Y29000D01*
Y30666D02*
X185000Y32332D01*
X189165Y33998D02*
X189998Y34831D01*
Y36497D01*
X189165Y37331D01*
X188332D01*
X187499Y36497D01*
Y35665D01*
Y36497D01*
X186666Y37331D01*
X185833D01*
X185000Y36497D01*
Y34831D01*
X185833Y33998D01*
X189165Y38997D02*
X189998Y39830D01*
Y41496D01*
X189165Y42329D01*
X188332D01*
X187499Y41496D01*
X186666Y42329D01*
X185833D01*
X185000Y41496D01*
Y39830D01*
X185833Y38997D01*
X186666D01*
X187499Y39830D01*
X188332Y38997D01*
X189165D01*
X187499Y39830D02*
Y41496D01*
X-170300Y50151D02*
Y55149D01*
X-172799D01*
X-173632Y54316D01*
Y52650D01*
X-172799Y51817D01*
X-170300D01*
X-171966D02*
X-173632Y50151D01*
X-175299Y55149D02*
X-178631D01*
Y54316D01*
X-175299Y50984D01*
Y50151D01*
X-180297Y54316D02*
X-181130Y55149D01*
X-182796D01*
X-183629Y54316D01*
Y50984D01*
X-182796Y50151D01*
X-181130D01*
X-180297Y50984D01*
Y54316D01*
X-113000Y114998D02*
Y110000D01*
X-116332D01*
X-117998D02*
X-119664D01*
X-118831D01*
Y114998D01*
X-117998Y114165D01*
X153000Y178000D02*
Y182998D01*
X150501D01*
X149668Y182165D01*
Y180499D01*
X150501Y179666D01*
X153000D01*
X151334D02*
X149668Y178000D01*
X148002D02*
X146335D01*
X147169D01*
Y182998D01*
X148002Y182165D01*
X140504Y182998D02*
X143836D01*
Y180499D01*
X142170Y181332D01*
X141337D01*
X140504Y180499D01*
Y178833D01*
X141337Y178000D01*
X143003D01*
X143836Y178833D01*
X-45962Y120165D02*
X-45129Y120998D01*
X-43463D01*
X-42629Y120165D01*
Y116833D01*
X-43463Y116000D01*
X-45129D01*
X-45962Y116833D01*
X-50960Y120998D02*
X-47628D01*
Y118499D01*
X-49294Y119332D01*
X-50127D01*
X-50960Y118499D01*
Y116833D01*
X-50127Y116000D01*
X-48461D01*
X-47628Y116833D01*
X-88835Y-161668D02*
X-88002Y-162501D01*
Y-164167D01*
X-88835Y-165000D01*
X-92167D01*
X-93000Y-164167D01*
Y-162501D01*
X-92167Y-161668D01*
X-93000Y-160002D02*
Y-158336D01*
Y-159169D01*
X-88002D01*
X-88835Y-160002D01*
X-93000Y-155836D02*
Y-154170D01*
Y-155003D01*
X-88002D01*
X-88835Y-155836D01*
X72668Y156165D02*
X73501Y156998D01*
X75167D01*
X76000Y156165D01*
Y152833D01*
X75167Y152000D01*
X73501D01*
X72668Y152833D01*
X67669Y152000D02*
X71002D01*
X67669Y155332D01*
Y156165D01*
X68502Y156998D01*
X70169D01*
X71002Y156165D01*
X66003D02*
X65170Y156998D01*
X63504D01*
X62671Y156165D01*
Y155332D01*
X63504Y154499D01*
X62671Y153666D01*
Y152833D01*
X63504Y152000D01*
X65170D01*
X66003Y152833D01*
Y153666D01*
X65170Y154499D01*
X66003Y155332D01*
Y156165D01*
X65170Y154499D02*
X63504D01*
X61668Y93165D02*
X62501Y93998D01*
X64167D01*
X65000Y93165D01*
Y89833D01*
X64167Y89000D01*
X62501D01*
X61668Y89833D01*
X60002Y93165D02*
X59169Y93998D01*
X57502D01*
X56669Y93165D01*
Y92332D01*
X57502Y91499D01*
X58335D01*
X57502D01*
X56669Y90666D01*
Y89833D01*
X57502Y89000D01*
X59169D01*
X60002Y89833D01*
X55003Y93165D02*
X54170Y93998D01*
X52504D01*
X51671Y93165D01*
Y92332D01*
X52504Y91499D01*
X51671Y90666D01*
Y89833D01*
X52504Y89000D01*
X54170D01*
X55003Y89833D01*
Y90666D01*
X54170Y91499D01*
X55003Y92332D01*
Y93165D01*
X54170Y91499D02*
X52504D01*
X138531Y-17099D02*
X141863D01*
Y-19598D01*
X140197D01*
X141863D01*
Y-22097D01*
X136865Y-17099D02*
Y-22097D01*
X134366D01*
X133533Y-21264D01*
Y-20431D01*
X134366Y-19598D01*
X136865D01*
X134366D01*
X133533Y-18765D01*
Y-17932D01*
X134366Y-17099D01*
X136865D01*
X129368Y-22097D02*
Y-17099D01*
X131867Y-19598D01*
X128534D01*
X-249838Y-128002D02*
X-246506D01*
Y-130501D01*
X-248172D01*
X-246506D01*
Y-133000D01*
X-251504Y-128002D02*
Y-133000D01*
X-254003D01*
X-254836Y-132167D01*
Y-131334D01*
X-254003Y-130501D01*
X-251504D01*
X-254003D01*
X-254836Y-129668D01*
Y-128835D01*
X-254003Y-128002D01*
X-251504D01*
X-256503Y-132167D02*
X-257336Y-133000D01*
X-259002D01*
X-259835Y-132167D01*
Y-128835D01*
X-259002Y-128002D01*
X-257336D01*
X-256503Y-128835D01*
Y-129668D01*
X-257336Y-130501D01*
X-259835D01*
X-239782Y-85501D02*
X-236450D01*
Y-88001D01*
X-238116D01*
X-236450D01*
Y-90500D01*
X-241448Y-85501D02*
Y-90500D01*
X-243948D01*
X-244781Y-89667D01*
Y-88834D01*
X-243948Y-88001D01*
X-241448D01*
X-243948D01*
X-244781Y-87168D01*
Y-86334D01*
X-243948Y-85501D01*
X-241448D01*
X-246447Y-90500D02*
X-248113D01*
X-247280D01*
Y-85501D01*
X-246447Y-86334D01*
X-250612D02*
X-251445Y-85501D01*
X-253111D01*
X-253944Y-86334D01*
Y-89667D01*
X-253111Y-90500D01*
X-251445D01*
X-250612Y-89667D01*
Y-86334D01*
X103172Y46998D02*
X104838D01*
X104005D01*
Y42833D01*
X104838Y42000D01*
X105671D01*
X106504Y42833D01*
X101505Y46998D02*
X98173D01*
Y46165D01*
X101505Y42833D01*
Y42000D01*
X27000Y100998D02*
Y96000D01*
X23668D01*
X18669Y100998D02*
X20336Y100165D01*
X22002Y98499D01*
Y96833D01*
X21169Y96000D01*
X19503D01*
X18669Y96833D01*
Y97666D01*
X19503Y98499D01*
X22002D01*
X-93359Y-53085D02*
Y-58083D01*
X-96691D01*
X-98357Y-53085D02*
Y-58083D01*
X-100857D01*
X-101690Y-57250D01*
Y-53918D01*
X-100857Y-53085D01*
X-98357D01*
X-103356Y-58083D02*
X-105022D01*
X-104189D01*
Y-53085D01*
X-103356Y-53918D01*
X-102000Y60998D02*
Y56000D01*
X-105332D01*
X-106998Y60998D02*
Y56000D01*
X-109497D01*
X-110331Y56833D01*
Y60165D01*
X-109497Y60998D01*
X-106998D01*
X-115329Y56000D02*
X-111997D01*
X-115329Y59332D01*
Y60165D01*
X-114496Y60998D01*
X-112830D01*
X-111997Y60165D01*
X116000Y61998D02*
Y57000D01*
X112668D01*
X111002Y61998D02*
Y57000D01*
X108502D01*
X107669Y57833D01*
Y61165D01*
X108502Y61998D01*
X111002D01*
X106003Y61165D02*
X105170Y61998D01*
X103504D01*
X102671Y61165D01*
Y60332D01*
X103504Y59499D01*
X104337D01*
X103504D01*
X102671Y58666D01*
Y57833D01*
X103504Y57000D01*
X105170D01*
X106003Y57833D01*
X114000Y-99002D02*
Y-104000D01*
X110668D01*
X109002Y-99002D02*
Y-104000D01*
X106503D01*
X105669Y-103167D01*
Y-99835D01*
X106503Y-99002D01*
X109002D01*
X101504Y-104000D02*
Y-99002D01*
X104003Y-101501D01*
X100671D01*
X154000Y156000D02*
Y160998D01*
X151501D01*
X150668Y160165D01*
Y158499D01*
X151501Y157666D01*
X154000D01*
X152334D02*
X150668Y156000D01*
X149002D02*
X147336D01*
X148169D01*
Y160998D01*
X149002Y160165D01*
X144836D02*
X144003Y160998D01*
X142337D01*
X141504Y160165D01*
Y159332D01*
X142337Y158499D01*
X143170D01*
X142337D01*
X141504Y157666D01*
Y156833D01*
X142337Y156000D01*
X144003D01*
X144836Y156833D01*
X-235000Y97000D02*
X-230002D01*
Y99499D01*
X-230835Y100332D01*
X-232501D01*
X-233334Y99499D01*
Y97000D01*
Y98666D02*
X-235000Y100332D01*
Y101998D02*
Y103665D01*
Y102831D01*
X-230002D01*
X-230835Y101998D01*
X-230002Y106164D02*
Y109496D01*
X-230835D01*
X-234167Y106164D01*
X-235000D01*
X76000Y164000D02*
Y168998D01*
X73501D01*
X72668Y168165D01*
Y166499D01*
X73501Y165666D01*
X76000D01*
X74334D02*
X72668Y164000D01*
X67669Y168998D02*
X71002D01*
Y166499D01*
X69335Y167332D01*
X68502D01*
X67669Y166499D01*
Y164833D01*
X68502Y164000D01*
X70169D01*
X71002Y164833D01*
X66003Y168165D02*
X65170Y168998D01*
X63504D01*
X62671Y168165D01*
Y167332D01*
X63504Y166499D01*
X62671Y165666D01*
Y164833D01*
X63504Y164000D01*
X65170D01*
X66003Y164833D01*
Y165666D01*
X65170Y166499D01*
X66003Y167332D01*
Y168165D01*
X65170Y166499D02*
X63504D01*
X74000Y177000D02*
Y181998D01*
X71501D01*
X70668Y181165D01*
Y179499D01*
X71501Y178666D01*
X74000D01*
X72334D02*
X70668Y177000D01*
X65669Y181998D02*
X67336Y181165D01*
X69002Y179499D01*
Y177833D01*
X68169Y177000D01*
X66502D01*
X65669Y177833D01*
Y178666D01*
X66502Y179499D01*
X69002D01*
X64003Y177000D02*
X62337D01*
X63170D01*
Y181998D01*
X64003Y181165D01*
X-171000Y27000D02*
Y31998D01*
X-173499D01*
X-174332Y31165D01*
Y29499D01*
X-173499Y28666D01*
X-171000D01*
X-172666D02*
X-174332Y27000D01*
X-175998Y31998D02*
X-179331D01*
Y31165D01*
X-175998Y27833D01*
Y27000D01*
X-184329Y31998D02*
X-182663Y31165D01*
X-180997Y29499D01*
Y27833D01*
X-181830Y27000D01*
X-183496D01*
X-184329Y27833D01*
Y28666D01*
X-183496Y29499D01*
X-180997D01*
X83000Y146998D02*
Y142833D01*
X82167Y142000D01*
X80501D01*
X79668Y142833D01*
Y146998D01*
X78002Y142000D02*
X76336D01*
X77169D01*
Y146998D01*
X78002Y146165D01*
X-31000Y65998D02*
Y61833D01*
X-31833Y61000D01*
X-33499D01*
X-34332Y61833D01*
Y65998D01*
X-35998Y65165D02*
X-36831Y65998D01*
X-38498D01*
X-39331Y65165D01*
Y64332D01*
X-38498Y63499D01*
X-39331Y62666D01*
Y61833D01*
X-38498Y61000D01*
X-36831D01*
X-35998Y61833D01*
Y62666D01*
X-36831Y63499D01*
X-35998Y64332D01*
Y65165D01*
X-36831Y63499D02*
X-38498D01*
X-147000Y116998D02*
Y112833D01*
X-147833Y112000D01*
X-149499D01*
X-150332Y112833D01*
Y116998D01*
X-151998Y112000D02*
X-153665D01*
X-152831D01*
Y116998D01*
X-151998Y116165D01*
X-156164D02*
X-156997Y116998D01*
X-158663D01*
X-159496Y116165D01*
Y115332D01*
X-158663Y114499D01*
X-157830D01*
X-158663D01*
X-159496Y113666D01*
Y112833D01*
X-158663Y112000D01*
X-156997D01*
X-156164Y112833D01*
X-35000Y33998D02*
Y29833D01*
X-35833Y29000D01*
X-37499D01*
X-38332Y29833D01*
Y33998D01*
X-39998Y29000D02*
X-41665D01*
X-40831D01*
Y33998D01*
X-39998Y33165D01*
X-44164Y33998D02*
X-47496D01*
Y33165D01*
X-44164Y29833D01*
Y29000D01*
X6000Y150998D02*
Y146833D01*
X5167Y146000D01*
X3501D01*
X2668Y146833D01*
Y150998D01*
X1002Y146000D02*
X-664D01*
X169D01*
Y150998D01*
X1002Y150165D01*
X-3164D02*
X-3997Y150998D01*
X-5663D01*
X-6496Y150165D01*
Y149332D01*
X-5663Y148499D01*
X-6496Y147666D01*
Y146833D01*
X-5663Y146000D01*
X-3997D01*
X-3164Y146833D01*
Y147666D01*
X-3997Y148499D01*
X-3164Y149332D01*
Y150165D01*
X-3997Y148499D02*
X-5663D01*
D137*
X-200490Y167740D02*
G03*
X-187790Y167740I6350J0D01*
G01*
X-181440D01*
X-206840D02*
X-200490D01*
X-206840Y116940D02*
Y167740D01*
Y116940D02*
X-181440D01*
Y167740D01*
D138*
X257800Y70820D02*
Y96220D01*
Y118900D02*
X268480D01*
X281000Y60140D02*
Y106380D01*
X291200Y68200D02*
Y98100D01*
Y68200D02*
Y98100D01*
Y68200D02*
Y98100D01*
Y68200D02*
Y98100D01*
X281200Y68200D02*
X291100D01*
X281200D02*
X291100D01*
X281200D02*
X291100D01*
X281200D02*
X291100D01*
X281100Y98300D02*
X291100D01*
X281100D02*
X291100D01*
X281100D02*
X291100D01*
X281100D02*
X291100D01*
D139*
X257800Y47700D02*
X268040D01*
X257800Y108920D02*
Y118900D01*
Y47700D02*
Y55580D01*
X291200Y68200D02*
Y98100D01*
Y68200D02*
Y98100D01*
Y68200D02*
Y98100D01*
Y68200D02*
Y98100D01*
X281200Y68200D02*
X291100D01*
X281200D02*
X291100D01*
X281200D02*
X291100D01*
X281200D02*
X291100D01*
X281100Y98300D02*
X291100D01*
X281100D02*
X291100D01*
X281100D02*
X291100D01*
X281100D02*
X291100D01*
D140*
X77000Y19000D02*
Y76000D01*
X-77000D02*
X77000D01*
X-77000Y19000D02*
Y76000D01*
Y-78000D02*
Y-21000D01*
X77000Y-78000D02*
Y-21000D01*
X-77000Y-78000D02*
X77000D01*
M02*
