%FSLAX44Y44*%
%MOMM*%
G71*
G01*
G75*
G04 Layer_Physical_Order=3*
G04 Layer_Color=16440176*
%ADD10R,1.5000X0.4000*%
%ADD11R,0.6000X0.5000*%
%ADD12R,1.2000X1.6000*%
%ADD13R,0.5000X0.6000*%
%ADD14R,1.3970X1.3970*%
%ADD15R,1.2700X0.5080*%
%ADD16R,1.0160X0.8890*%
%ADD17R,0.8890X1.0160*%
%ADD18P,1.8385X4X90.0*%
%ADD19R,0.7000X0.6000*%
%ADD20R,1.4000X0.6000*%
%ADD21R,0.8000X1.6000*%
%ADD22R,1.2500X0.3000*%
%ADD23R,1.2000X1.4000*%
%ADD24R,1.2000X2.2000*%
%ADD25R,1.6000X1.4000*%
%ADD26R,1.1000X1.4000*%
%ADD27R,0.7000X1.6000*%
%ADD28R,1.0668X0.8128*%
G04:AMPARAMS|DCode=29|XSize=0.22mm|YSize=0.8mm|CornerRadius=0mm|HoleSize=0mm|Usage=FLASHONLY|Rotation=180.000|XOffset=0mm|YOffset=0mm|HoleType=Round|Shape=RoundedRectangle|*
%AMROUNDEDRECTD29*
21,1,0.2200,0.8000,0,0,180.0*
21,1,0.2200,0.8000,0,0,180.0*
1,1,0.0000,-0.1100,0.4000*
1,1,0.0000,0.1100,0.4000*
1,1,0.0000,0.1100,-0.4000*
1,1,0.0000,-0.1100,-0.4000*
%
%ADD29ROUNDEDRECTD29*%
%ADD30R,4.3000X4.3000*%
G04:AMPARAMS|DCode=31|XSize=0.22mm|YSize=0.8mm|CornerRadius=0mm|HoleSize=0mm|Usage=FLASHONLY|Rotation=270.000|XOffset=0mm|YOffset=0mm|HoleType=Round|Shape=RoundedRectangle|*
%AMROUNDEDRECTD31*
21,1,0.2200,0.8000,0,0,270.0*
21,1,0.2200,0.8000,0,0,270.0*
1,1,0.0000,-0.4000,-0.1100*
1,1,0.0000,-0.4000,0.1100*
1,1,0.0000,0.4000,0.1100*
1,1,0.0000,0.4000,-0.1100*
%
%ADD31ROUNDEDRECTD31*%
%ADD32R,0.8128X0.8128*%
%ADD33R,0.7600X1.5200*%
%ADD34R,1.2954X1.6002*%
%ADD35R,1.2000X1.2500*%
%ADD36R,2.4000X1.2500*%
%ADD37C,0.4000*%
%ADD38C,0.2000*%
%ADD39C,0.1270*%
%ADD40C,0.2540*%
%ADD41C,0.6000*%
%ADD42C,0.3000*%
%ADD43R,1.3000X1.2000*%
%ADD44C,0.0254*%
%ADD45C,1.5240*%
%ADD46R,1.5240X1.5240*%
G04:AMPARAMS|DCode=47|XSize=4mm|YSize=4mm|CornerRadius=2mm|HoleSize=0mm|Usage=FLASHONLY|Rotation=0.000|XOffset=0mm|YOffset=0mm|HoleType=Round|Shape=RoundedRectangle|*
%AMROUNDEDRECTD47*
21,1,4.0000,0.0000,0,0,0.0*
21,1,0.0000,4.0000,0,0,0.0*
1,1,4.0000,0.0000,0.0000*
1,1,4.0000,0.0000,0.0000*
1,1,4.0000,0.0000,0.0000*
1,1,4.0000,0.0000,0.0000*
%
%ADD47ROUNDEDRECTD47*%
%ADD48C,0.5000*%
%ADD49C,4.4000*%
%ADD50C,3.6000*%
G36*
X-215563Y186941D02*
X-214802Y185802D01*
X-215158Y185270D01*
X-210842D01*
X-211198Y185802D01*
X-210437Y186941D01*
X289941Y186941D01*
Y186932D01*
X291735Y186696D01*
X293407Y186004D01*
X294843Y184902D01*
X295944Y183466D01*
X296637Y181794D01*
X296873Y180000D01*
X296882D01*
X296941Y179702D01*
Y-16437D01*
X295802Y-17198D01*
X295270Y-16842D01*
Y-19000D01*
Y-21158D01*
X295802Y-20802D01*
X296941Y-21563D01*
Y-32411D01*
X295726Y-32780D01*
X295523Y-32477D01*
X294366Y-31703D01*
X294177Y-31666D01*
X293930Y-30420D01*
X294523Y-30023D01*
X295297Y-28866D01*
X295569Y-27500D01*
X295297Y-26134D01*
X294523Y-24977D01*
X293366Y-24203D01*
X292000Y-23931D01*
X290634Y-24203D01*
X289477Y-24977D01*
X288703Y-26134D01*
X288431Y-27500D01*
X288703Y-28866D01*
X289477Y-30023D01*
X290634Y-30797D01*
X290823Y-30834D01*
X291070Y-32080D01*
X290477Y-32477D01*
X289703Y-33634D01*
X289431Y-35000D01*
X289703Y-36366D01*
X290477Y-37523D01*
X291070Y-37920D01*
X290823Y-39166D01*
X290634Y-39203D01*
X289477Y-39977D01*
X288703Y-41134D01*
X288431Y-42500D01*
X288703Y-43866D01*
X289477Y-45023D01*
X290634Y-45797D01*
X292000Y-46069D01*
X293366Y-45797D01*
X294523Y-45023D01*
X295297Y-43866D01*
X295569Y-42500D01*
X295297Y-41134D01*
X294523Y-39977D01*
X293930Y-39580D01*
X294177Y-38334D01*
X294366Y-38297D01*
X295523Y-37523D01*
X295726Y-37220D01*
X296941Y-37589D01*
Y-63409D01*
X295821Y-64008D01*
X295366Y-63703D01*
X294000Y-63431D01*
X292634Y-63703D01*
X291477Y-64477D01*
X290703Y-65634D01*
X290431Y-67000D01*
X290703Y-68366D01*
X291477Y-69523D01*
X292634Y-70297D01*
X294000Y-70569D01*
X295366Y-70297D01*
X295821Y-69992D01*
X296941Y-70591D01*
Y-85963D01*
X295726Y-86332D01*
X295302Y-85697D01*
X294770Y-85342D01*
Y-87500D01*
Y-89658D01*
X295302Y-89302D01*
X295726Y-88668D01*
X296941Y-89037D01*
Y-179702D01*
X296882Y-180000D01*
X296873D01*
X296637Y-181794D01*
X295944Y-183466D01*
X294843Y-184902D01*
X293407Y-186004D01*
X291735Y-186696D01*
X289941Y-186932D01*
X289941Y-186932D01*
Y-186932D01*
X289932Y-186941D01*
X-290000Y-186941D01*
Y-186932D01*
X-291794Y-186696D01*
X-293466Y-186004D01*
X-294902Y-184902D01*
X-296004Y-183466D01*
X-296696Y-181794D01*
X-296932Y-180000D01*
X-296941D01*
Y180000D01*
X-296932D01*
X-296696Y181794D01*
X-296004Y183466D01*
X-294902Y184902D01*
X-293466Y186004D01*
X-291794Y186696D01*
X-290000Y186932D01*
X-290000Y186932D01*
X-290000Y186932D01*
X-290000D01*
X-290000Y186941D01*
D01*
X-290000Y186941D01*
X-215563D01*
D02*
G37*
%LPC*%
G36*
X-106730Y-57842D02*
Y-58730D01*
X-105842D01*
X-106198Y-58198D01*
X-106730Y-57842D01*
D02*
G37*
G36*
X179230Y-55770D02*
X178342D01*
X178697Y-56302D01*
X179230Y-56658D01*
Y-55770D01*
D02*
G37*
G36*
X-109270Y-57842D02*
X-109802Y-58198D01*
X-110158Y-58730D01*
X-109270D01*
Y-57842D01*
D02*
G37*
G36*
X169408Y-58376D02*
X168520D01*
X168875Y-58908D01*
X169408Y-59264D01*
Y-58376D01*
D02*
G37*
G36*
X172836D02*
X171948D01*
Y-59264D01*
X172480Y-58908D01*
X172836Y-58376D01*
D02*
G37*
G36*
X182658Y-55770D02*
X181770D01*
Y-56658D01*
X182302Y-56302D01*
X182658Y-55770D01*
D02*
G37*
G36*
X171948Y-54948D02*
Y-55836D01*
X172836D01*
X172480Y-55304D01*
X171948Y-54948D01*
D02*
G37*
G36*
X209000Y-47431D02*
X207634Y-47703D01*
X206477Y-48477D01*
X205703Y-49634D01*
X205431Y-51000D01*
X205703Y-52366D01*
X206477Y-53523D01*
X207634Y-54297D01*
X209000Y-54569D01*
X210366Y-54297D01*
X211523Y-53523D01*
X212297Y-52366D01*
X213554Y-52616D01*
X213703Y-53366D01*
X214477Y-54523D01*
X215634Y-55297D01*
X217000Y-55569D01*
X218366Y-55297D01*
X219523Y-54523D01*
X220297Y-53366D01*
X220569Y-52000D01*
X220297Y-50634D01*
X219523Y-49477D01*
X218366Y-48703D01*
X217000Y-48431D01*
X215634Y-48703D01*
X214477Y-49477D01*
X213703Y-50634D01*
X212446Y-50384D01*
X212297Y-49634D01*
X211523Y-48477D01*
X210366Y-47703D01*
X209000Y-47431D01*
D02*
G37*
G36*
X169408Y-54948D02*
X168875Y-55304D01*
X168520Y-55836D01*
X169408D01*
Y-54948D01*
D02*
G37*
G36*
X149408D02*
X148875Y-55304D01*
X148520Y-55836D01*
X149408D01*
Y-54948D01*
D02*
G37*
G36*
X151948D02*
Y-55836D01*
X152836D01*
X152480Y-55304D01*
X151948Y-54948D01*
D02*
G37*
G36*
X152836Y-58376D02*
X151948D01*
Y-59264D01*
X152480Y-58908D01*
X152836Y-58376D01*
D02*
G37*
G36*
X-105842Y-61270D02*
X-106730D01*
Y-62158D01*
X-106198Y-61802D01*
X-105842Y-61270D01*
D02*
G37*
G36*
X-50000Y-54431D02*
X-51366Y-54703D01*
X-52523Y-55477D01*
X-53297Y-56634D01*
X-53569Y-58000D01*
X-53297Y-59366D01*
X-52523Y-60523D01*
X-51366Y-61297D01*
X-50000Y-61569D01*
X-48634Y-61297D01*
X-47477Y-60523D01*
X-46703Y-59366D01*
X-46431Y-58000D01*
X-46703Y-56634D01*
X-47477Y-55477D01*
X-48634Y-54703D01*
X-50000Y-54431D01*
D02*
G37*
G36*
X-109270Y-61270D02*
X-110158D01*
X-109802Y-61802D01*
X-109270Y-62158D01*
Y-61270D01*
D02*
G37*
G36*
X29946Y-55948D02*
X28580Y-56220D01*
X27422Y-56993D01*
X26649Y-58151D01*
X26377Y-59517D01*
X26649Y-60882D01*
X27422Y-62040D01*
X28580Y-62814D01*
X29946Y-63085D01*
X31311Y-62814D01*
X32469Y-62040D01*
X33243Y-60882D01*
X33514Y-59517D01*
X33243Y-58151D01*
X32469Y-56993D01*
X31311Y-56220D01*
X29946Y-55948D01*
D02*
G37*
G36*
X119755Y-55431D02*
X118390Y-55703D01*
X117232Y-56477D01*
X116459Y-57634D01*
X116187Y-59000D01*
X116459Y-60366D01*
X117232Y-61523D01*
X118390Y-62297D01*
X119755Y-62569D01*
X121121Y-62297D01*
X122279Y-61523D01*
X123052Y-60366D01*
X123324Y-59000D01*
X123052Y-57634D01*
X122279Y-56477D01*
X121121Y-55703D01*
X119755Y-55431D01*
D02*
G37*
G36*
X-231578Y-48931D02*
X-232943Y-49203D01*
X-234101Y-49977D01*
X-234875Y-51134D01*
X-235146Y-52500D01*
X-234875Y-53866D01*
X-234101Y-55023D01*
X-232943Y-55797D01*
X-231578Y-56069D01*
X-230326Y-55820D01*
X-229936Y-56210D01*
X-229467Y-56912D01*
X-229606Y-57610D01*
X-229334Y-58975D01*
X-228561Y-60133D01*
X-227403Y-60907D01*
X-226037Y-61178D01*
X-224672Y-60907D01*
X-223514Y-60133D01*
X-222740Y-58975D01*
X-222469Y-57610D01*
X-222740Y-56244D01*
X-223514Y-55086D01*
X-224672Y-54313D01*
X-226037Y-54041D01*
X-227288Y-54290D01*
X-227679Y-53899D01*
X-228148Y-53198D01*
X-228009Y-52500D01*
X-228281Y-51134D01*
X-229054Y-49977D01*
X-230212Y-49203D01*
X-231578Y-48931D01*
D02*
G37*
G36*
X-14730Y-59842D02*
Y-60730D01*
X-13842D01*
X-14198Y-60198D01*
X-14730Y-59842D01*
D02*
G37*
G36*
X149408Y-58376D02*
X148520D01*
X148875Y-58908D01*
X149408Y-59264D01*
Y-58376D01*
D02*
G37*
G36*
X-17270Y-59842D02*
X-17802Y-60198D01*
X-18158Y-60730D01*
X-17270D01*
Y-59842D01*
D02*
G37*
G36*
X-159500Y-53931D02*
X-160866Y-54203D01*
X-162023Y-54977D01*
X-162797Y-56134D01*
X-163069Y-57500D01*
X-162797Y-58866D01*
X-162023Y-60023D01*
X-160866Y-60797D01*
X-159500Y-61069D01*
X-158134Y-60797D01*
X-156977Y-60023D01*
X-156203Y-58866D01*
X-155931Y-57500D01*
X-156203Y-56134D01*
X-156977Y-54977D01*
X-158134Y-54203D01*
X-159500Y-53931D01*
D02*
G37*
G36*
X292000Y-53931D02*
X290634Y-54203D01*
X289477Y-54977D01*
X288703Y-56134D01*
X288431Y-57500D01*
X288703Y-58866D01*
X289477Y-60023D01*
X290634Y-60797D01*
X292000Y-61069D01*
X293366Y-60797D01*
X294523Y-60023D01*
X295297Y-58866D01*
X295569Y-57500D01*
X295297Y-56134D01*
X294523Y-54977D01*
X293366Y-54203D01*
X292000Y-53931D01*
D02*
G37*
G36*
X106158Y-47270D02*
X105270D01*
Y-48158D01*
X105802Y-47802D01*
X106158Y-47270D01*
D02*
G37*
G36*
X-266270Y-45270D02*
X-267158D01*
X-266802Y-45802D01*
X-266270Y-46158D01*
Y-45270D01*
D02*
G37*
G36*
X102730Y-47270D02*
X101842D01*
X102198Y-47802D01*
X102730Y-48158D01*
Y-47270D01*
D02*
G37*
G36*
X10730Y-47842D02*
X10198Y-48198D01*
X9842Y-48730D01*
X10730D01*
Y-47842D01*
D02*
G37*
G36*
X13270D02*
Y-48730D01*
X14158D01*
X13802Y-48198D01*
X13270Y-47842D01*
D02*
G37*
G36*
X-262842Y-45270D02*
X-263730D01*
Y-46158D01*
X-263198Y-45802D01*
X-262842Y-45270D01*
D02*
G37*
G36*
X-289342Y-43770D02*
X-290230D01*
Y-44658D01*
X-289697Y-44302D01*
X-289342Y-43770D01*
D02*
G37*
G36*
X265000Y-33931D02*
X263634Y-34203D01*
X262477Y-34977D01*
X261703Y-36134D01*
X261431Y-37500D01*
X261703Y-38866D01*
X262477Y-40023D01*
X263634Y-40797D01*
X265000Y-41069D01*
X265390Y-40991D01*
X266096Y-42047D01*
X265703Y-42634D01*
X265464Y-43835D01*
X264291Y-44321D01*
X263366Y-43703D01*
X262000Y-43431D01*
X260634Y-43703D01*
X259477Y-44477D01*
X258703Y-45634D01*
X258431Y-47000D01*
X258703Y-48366D01*
X259477Y-49523D01*
X260634Y-50297D01*
X262000Y-50569D01*
X263366Y-50297D01*
X264523Y-49523D01*
X265297Y-48366D01*
X265536Y-47165D01*
X266709Y-46679D01*
X267634Y-47297D01*
X269000Y-47569D01*
X270366Y-47297D01*
X271523Y-46523D01*
X272297Y-45366D01*
X272569Y-44000D01*
X272297Y-42634D01*
X271523Y-41477D01*
X270366Y-40703D01*
X269000Y-40431D01*
X268610Y-40509D01*
X267904Y-39453D01*
X268297Y-38866D01*
X268569Y-37500D01*
X268297Y-36134D01*
X267523Y-34977D01*
X266366Y-34203D01*
X265000Y-33931D01*
D02*
G37*
G36*
X-292770Y-43770D02*
X-293658D01*
X-293302Y-44302D01*
X-292770Y-44658D01*
Y-43770D01*
D02*
G37*
G36*
X102730Y-43842D02*
X102198Y-44198D01*
X101842Y-44730D01*
X102730D01*
Y-43842D01*
D02*
G37*
G36*
X105270D02*
Y-44730D01*
X106158D01*
X105802Y-44198D01*
X105270Y-43842D01*
D02*
G37*
G36*
X-208730Y-47842D02*
Y-48730D01*
X-207842D01*
X-208198Y-48198D01*
X-208730Y-47842D01*
D02*
G37*
G36*
X25619Y-51287D02*
X24731D01*
Y-52175D01*
X25263Y-51819D01*
X25619Y-51287D01*
D02*
G37*
G36*
X-211270Y-51270D02*
X-212158D01*
X-211802Y-51802D01*
X-211270Y-52158D01*
Y-51270D01*
D02*
G37*
G36*
X22191Y-51287D02*
X21303D01*
X21659Y-51819D01*
X22191Y-52175D01*
Y-51287D01*
D02*
G37*
G36*
X179230Y-52342D02*
X178697Y-52698D01*
X178342Y-53230D01*
X179230D01*
Y-52342D01*
D02*
G37*
G36*
X181770D02*
Y-53230D01*
X182658D01*
X182302Y-52698D01*
X181770Y-52342D01*
D02*
G37*
G36*
X-207842Y-51270D02*
X-208730D01*
Y-52158D01*
X-208198Y-51802D01*
X-207842Y-51270D01*
D02*
G37*
G36*
X24731Y-47859D02*
Y-48747D01*
X25619D01*
X25263Y-48214D01*
X24731Y-47859D01*
D02*
G37*
G36*
X-211270Y-47842D02*
X-211802Y-48198D01*
X-212158Y-48730D01*
X-211270D01*
Y-47842D01*
D02*
G37*
G36*
X22191Y-47859D02*
X21659Y-48214D01*
X21303Y-48747D01*
X22191D01*
Y-47859D01*
D02*
G37*
G36*
X10730Y-51270D02*
X9842D01*
X10198Y-51802D01*
X10730Y-52158D01*
Y-51270D01*
D02*
G37*
G36*
X14158D02*
X13270D01*
Y-52158D01*
X13802Y-51802D01*
X14158Y-51270D01*
D02*
G37*
G36*
X258270Y-80342D02*
Y-81230D01*
X259158D01*
X258802Y-80697D01*
X258270Y-80342D01*
D02*
G37*
G36*
X214828Y-66603D02*
X213463Y-66875D01*
X212305Y-67648D01*
X211532Y-68806D01*
X211260Y-70172D01*
X211532Y-71537D01*
X212305Y-72695D01*
X213398Y-73425D01*
Y-73795D01*
X213191Y-74833D01*
X212976Y-74977D01*
X212203Y-76134D01*
X211931Y-77500D01*
X212203Y-78865D01*
X212976Y-80023D01*
X214134Y-80797D01*
X215500Y-81068D01*
X216866Y-80797D01*
X218023Y-80023D01*
X218797Y-78865D01*
X219069Y-77500D01*
X218797Y-76134D01*
X218023Y-74977D01*
X216931Y-74246D01*
Y-73876D01*
X217137Y-72839D01*
X217352Y-72695D01*
X218125Y-71537D01*
X218397Y-70172D01*
X218125Y-68806D01*
X217352Y-67648D01*
X216194Y-66875D01*
X214828Y-66603D01*
D02*
G37*
G36*
X255730Y-80342D02*
X255198Y-80697D01*
X254842Y-81230D01*
X255730D01*
Y-80342D01*
D02*
G37*
G36*
X-143629Y-81273D02*
X-144161Y-81629D01*
X-144517Y-82161D01*
X-143629D01*
Y-81273D01*
D02*
G37*
G36*
X-141089D02*
Y-82161D01*
X-140201D01*
X-140557Y-81629D01*
X-141089Y-81273D01*
D02*
G37*
G36*
X292000Y-73931D02*
X290634Y-74203D01*
X289477Y-74977D01*
X288703Y-76134D01*
X288431Y-77500D01*
X288703Y-78865D01*
X289477Y-80023D01*
X290634Y-80797D01*
X292000Y-81068D01*
X293366Y-80797D01*
X294523Y-80023D01*
X295297Y-78865D01*
X295569Y-77500D01*
X295297Y-76134D01*
X294523Y-74977D01*
X293366Y-74203D01*
X292000Y-73931D01*
D02*
G37*
G36*
X-289342Y-78770D02*
X-290230D01*
Y-79658D01*
X-289697Y-79302D01*
X-289342Y-78770D01*
D02*
G37*
G36*
X-201101Y-69931D02*
X-202467Y-70203D01*
X-203624Y-70977D01*
X-204398Y-72134D01*
X-204669Y-73500D01*
X-204398Y-74866D01*
X-203624Y-76023D01*
X-202467Y-76797D01*
X-201101Y-77069D01*
X-199735Y-76797D01*
X-198578Y-76023D01*
X-197804Y-74866D01*
X-197532Y-73500D01*
X-197804Y-72134D01*
X-198578Y-70977D01*
X-199735Y-70203D01*
X-201101Y-69931D01*
D02*
G37*
G36*
X-292770Y-78770D02*
X-293658D01*
X-293302Y-79302D01*
X-292770Y-79658D01*
Y-78770D01*
D02*
G37*
G36*
X83230Y-79342D02*
X82698Y-79698D01*
X82342Y-80230D01*
X83230D01*
Y-79342D01*
D02*
G37*
G36*
X85770D02*
Y-80230D01*
X86658D01*
X86302Y-79698D01*
X85770Y-79342D01*
D02*
G37*
G36*
X-185000Y-68431D02*
X-186366Y-68703D01*
X-187523Y-69477D01*
X-188297Y-70634D01*
X-188569Y-72000D01*
X-188297Y-73366D01*
X-187523Y-74523D01*
X-187259Y-74700D01*
Y-75970D01*
X-187721Y-76279D01*
X-188494Y-77437D01*
X-188766Y-78802D01*
X-188494Y-80168D01*
X-187721Y-81326D01*
X-186563Y-82099D01*
X-185198Y-82371D01*
X-183832Y-82099D01*
X-182674Y-81326D01*
X-181901Y-80168D01*
X-181629Y-78802D01*
X-181901Y-77437D01*
X-182674Y-76279D01*
X-182939Y-76102D01*
Y-74832D01*
X-182477Y-74523D01*
X-181703Y-73366D01*
X-181431Y-72000D01*
X-181703Y-70634D01*
X-182477Y-69477D01*
X-183634Y-68703D01*
X-185000Y-68431D01*
D02*
G37*
G36*
X-140201Y-84701D02*
X-141089D01*
Y-85590D01*
X-140557Y-85234D01*
X-140201Y-84701D01*
D02*
G37*
G36*
X170678Y-77620D02*
X169312Y-77892D01*
X168154Y-78665D01*
X167381Y-79823D01*
X167109Y-81188D01*
X167381Y-82554D01*
X168154Y-83712D01*
X169312Y-84485D01*
X170678Y-84757D01*
X172043Y-84485D01*
X173201Y-83712D01*
X173975Y-82554D01*
X174246Y-81188D01*
X173975Y-79823D01*
X173201Y-78665D01*
X172043Y-77892D01*
X170678Y-77620D01*
D02*
G37*
G36*
X-143629Y-84701D02*
X-144517D01*
X-144161Y-85234D01*
X-143629Y-85590D01*
Y-84701D01*
D02*
G37*
G36*
X292230Y-85342D02*
X291697Y-85697D01*
X291342Y-86230D01*
X292230D01*
Y-85342D01*
D02*
G37*
G36*
X270000Y-78931D02*
X268634Y-79203D01*
X267477Y-79977D01*
X266703Y-81134D01*
X266431Y-82500D01*
X266703Y-83865D01*
X267477Y-85023D01*
X268634Y-85797D01*
X270000Y-86068D01*
X271366Y-85797D01*
X272523Y-85023D01*
X273297Y-83865D01*
X273569Y-82500D01*
X273297Y-81134D01*
X272523Y-79977D01*
X271366Y-79203D01*
X270000Y-78931D01*
D02*
G37*
G36*
X182043Y-83842D02*
X181510Y-84198D01*
X181155Y-84730D01*
X182043D01*
Y-83842D01*
D02*
G37*
G36*
X83230Y-82770D02*
X82342D01*
X82698Y-83302D01*
X83230Y-83658D01*
Y-82770D01*
D02*
G37*
G36*
X86658D02*
X85770D01*
Y-83658D01*
X86302Y-83302D01*
X86658Y-82770D01*
D02*
G37*
G36*
X259158Y-83770D02*
X258270D01*
Y-84658D01*
X258802Y-84302D01*
X259158Y-83770D01*
D02*
G37*
G36*
X184583Y-83842D02*
Y-84730D01*
X185471D01*
X185115Y-84198D01*
X184583Y-83842D01*
D02*
G37*
G36*
X255730Y-83770D02*
X254842D01*
X255198Y-84302D01*
X255730Y-84658D01*
Y-83770D01*
D02*
G37*
G36*
X-77730Y-65842D02*
Y-66730D01*
X-76842D01*
X-77198Y-66198D01*
X-77730Y-65842D01*
D02*
G37*
G36*
X256730Y-65342D02*
X256198Y-65697D01*
X255842Y-66230D01*
X256730D01*
Y-65342D01*
D02*
G37*
G36*
X-80270Y-65842D02*
X-80802Y-66198D01*
X-81158Y-66730D01*
X-80270D01*
Y-65842D01*
D02*
G37*
G36*
X50581Y-66567D02*
X49693D01*
X50048Y-67099D01*
X50581Y-67455D01*
Y-66567D01*
D02*
G37*
G36*
X54009D02*
X53121D01*
Y-67455D01*
X53653Y-67099D01*
X54009Y-66567D01*
D02*
G37*
G36*
X259270Y-65342D02*
Y-66230D01*
X260158D01*
X259802Y-65697D01*
X259270Y-65342D01*
D02*
G37*
G36*
X50581Y-63139D02*
X50048Y-63495D01*
X49693Y-64027D01*
X50581D01*
Y-63139D01*
D02*
G37*
G36*
X53121D02*
Y-64027D01*
X54009D01*
X53653Y-63495D01*
X53121Y-63139D01*
D02*
G37*
G36*
X211500Y-56931D02*
X210134Y-57203D01*
X208977Y-57977D01*
X208203Y-59134D01*
X207931Y-60500D01*
X208203Y-61866D01*
X208977Y-63023D01*
X210134Y-63797D01*
X211500Y-64069D01*
X212866Y-63797D01*
X214023Y-63023D01*
X214797Y-61866D01*
X215069Y-60500D01*
X214797Y-59134D01*
X214023Y-57977D01*
X212866Y-57203D01*
X211500Y-56931D01*
D02*
G37*
G36*
X-17270Y-63270D02*
X-18158D01*
X-17802Y-63802D01*
X-17270Y-64158D01*
Y-63270D01*
D02*
G37*
G36*
X-13842D02*
X-14730D01*
Y-64158D01*
X-14198Y-63802D01*
X-13842Y-63270D01*
D02*
G37*
G36*
X-263730Y-67842D02*
Y-68730D01*
X-262842D01*
X-263198Y-68198D01*
X-263730Y-67842D01*
D02*
G37*
G36*
X188178Y-66431D02*
X186812Y-66703D01*
X185654Y-67477D01*
X184881Y-68635D01*
X184609Y-70000D01*
X184881Y-71366D01*
X185654Y-72523D01*
X186812Y-73297D01*
X188178Y-73569D01*
X189543Y-73297D01*
X190701Y-72523D01*
X191475Y-71366D01*
X191746Y-70000D01*
X191475Y-68635D01*
X190701Y-67477D01*
X189543Y-66703D01*
X188178Y-66431D01*
D02*
G37*
G36*
X-266270Y-71270D02*
X-267158D01*
X-266802Y-71802D01*
X-266270Y-72158D01*
Y-71270D01*
D02*
G37*
G36*
X133178Y-68682D02*
X131812Y-68953D01*
X130654Y-69727D01*
X129881Y-70884D01*
X129609Y-72250D01*
X129881Y-73616D01*
X130654Y-74774D01*
X131812Y-75547D01*
X133178Y-75819D01*
X134544Y-75547D01*
X135701Y-74774D01*
X136475Y-73616D01*
X136746Y-72250D01*
X136475Y-70884D01*
X135701Y-69727D01*
X134544Y-68953D01*
X133178Y-68682D01*
D02*
G37*
G36*
X-292770Y-75342D02*
X-293302Y-75697D01*
X-293658Y-76230D01*
X-292770D01*
Y-75342D01*
D02*
G37*
G36*
X-290230D02*
Y-76230D01*
X-289342D01*
X-289697Y-75697D01*
X-290230Y-75342D01*
D02*
G37*
G36*
X-262842Y-71270D02*
X-263730D01*
Y-72158D01*
X-263198Y-71802D01*
X-262842Y-71270D01*
D02*
G37*
G36*
X260158Y-68770D02*
X259270D01*
Y-69658D01*
X259802Y-69302D01*
X260158Y-68770D01*
D02*
G37*
G36*
X-266270Y-67842D02*
X-266802Y-68198D01*
X-267158Y-68730D01*
X-266270D01*
Y-67842D01*
D02*
G37*
G36*
X256730Y-68770D02*
X255842D01*
X256198Y-69302D01*
X256730Y-69658D01*
Y-68770D01*
D02*
G37*
G36*
X-80270Y-69270D02*
X-81158D01*
X-80802Y-69802D01*
X-80270Y-70158D01*
Y-69270D01*
D02*
G37*
G36*
X-76842D02*
X-77730D01*
Y-70158D01*
X-77198Y-69802D01*
X-76842Y-69270D01*
D02*
G37*
G36*
X-271670Y-15342D02*
X-272203Y-15698D01*
X-272558Y-16230D01*
X-271670D01*
Y-15342D01*
D02*
G37*
G36*
X-269130D02*
Y-16230D01*
X-268242D01*
X-268598Y-15698D01*
X-269130Y-15342D01*
D02*
G37*
G36*
X-150730Y-15842D02*
Y-16730D01*
X-149842D01*
X-150198Y-16198D01*
X-150730Y-15842D01*
D02*
G37*
G36*
X57203Y-15908D02*
Y-16797D01*
X58092D01*
X57736Y-16264D01*
X57203Y-15908D01*
D02*
G37*
G36*
X-153270Y-15842D02*
X-153802Y-16198D01*
X-154158Y-16730D01*
X-153270D01*
Y-15842D01*
D02*
G37*
G36*
X259500Y-8931D02*
X258134Y-9203D01*
X256977Y-9977D01*
X256203Y-11134D01*
X255931Y-12500D01*
X256203Y-13866D01*
X256977Y-15023D01*
X258134Y-15797D01*
X259500Y-16069D01*
X260866Y-15797D01*
X262023Y-15023D01*
X262797Y-13866D01*
X263069Y-12500D01*
X262797Y-11134D01*
X262023Y-9977D01*
X260866Y-9203D01*
X259500Y-8931D01*
D02*
G37*
G36*
X-289342Y-13770D02*
X-290230D01*
Y-14658D01*
X-289697Y-14302D01*
X-289342Y-13770D01*
D02*
G37*
G36*
X-39035Y-13270D02*
X-39923D01*
X-39567Y-13802D01*
X-39035Y-14158D01*
Y-13270D01*
D02*
G37*
G36*
X-292770Y-13770D02*
X-293658D01*
X-293302Y-14302D01*
X-292770Y-14658D01*
Y-13770D01*
D02*
G37*
G36*
X15730Y-14842D02*
X15198Y-15198D01*
X14842Y-15730D01*
X15730D01*
Y-14842D01*
D02*
G37*
G36*
X18270D02*
Y-15730D01*
X19158D01*
X18802Y-15198D01*
X18270Y-14842D01*
D02*
G37*
G36*
X54663Y-15908D02*
X54131Y-16264D01*
X53775Y-16797D01*
X54663D01*
Y-15908D01*
D02*
G37*
G36*
X15730Y-18270D02*
X14842D01*
X15198Y-18802D01*
X15730Y-19158D01*
Y-18270D01*
D02*
G37*
G36*
X19158D02*
X18270D01*
Y-19158D01*
X18802Y-18802D01*
X19158Y-18270D01*
D02*
G37*
G36*
X-268242Y-18770D02*
X-269130D01*
Y-19658D01*
X-268598Y-19302D01*
X-268242Y-18770D01*
D02*
G37*
G36*
X-149842Y-19270D02*
X-150730D01*
Y-20158D01*
X-150198Y-19802D01*
X-149842Y-19270D01*
D02*
G37*
G36*
X-271670Y-18770D02*
X-272558D01*
X-272203Y-19302D01*
X-271670Y-19658D01*
Y-18770D01*
D02*
G37*
G36*
X-101270Y-2270D02*
X-117962D01*
X-117739Y-4529D01*
X-116710Y-7922D01*
X-115039Y-11049D01*
X-112789Y-13789D01*
X-110049Y-16039D01*
X-106922Y-17710D01*
X-103529Y-18740D01*
X-101270Y-18962D01*
Y-2270D01*
D02*
G37*
G36*
X0Y-11431D02*
X-1366Y-11703D01*
X-2523Y-12477D01*
X-3297Y-13634D01*
X-3569Y-15000D01*
X-3297Y-16366D01*
X-2523Y-17523D01*
X-1366Y-18297D01*
X0Y-18569D01*
X1366Y-18297D01*
X2523Y-17523D01*
X3297Y-16366D01*
X3569Y-15000D01*
X3297Y-13634D01*
X2523Y-12477D01*
X1366Y-11703D01*
X0Y-11431D01*
D02*
G37*
G36*
X292730Y-16842D02*
X292198Y-17198D01*
X291842Y-17730D01*
X292730D01*
Y-16842D01*
D02*
G37*
G36*
X117962Y-2270D02*
X101270D01*
Y-18962D01*
X103529Y-18740D01*
X106922Y-17710D01*
X110049Y-16039D01*
X112789Y-13789D01*
X115039Y-11049D01*
X116710Y-7922D01*
X117739Y-4529D01*
X117962Y-2270D01*
D02*
G37*
G36*
X-82038D02*
X-98730D01*
Y-18962D01*
X-96471Y-18740D01*
X-93078Y-17710D01*
X-89951Y-16039D01*
X-87211Y-13789D01*
X-84961Y-11049D01*
X-83290Y-7922D01*
X-82261Y-4529D01*
X-82038Y-2270D01*
D02*
G37*
G36*
X98730D02*
X82038D01*
X82261Y-4529D01*
X83290Y-7922D01*
X84961Y-11049D01*
X87211Y-13789D01*
X89951Y-16039D01*
X93078Y-17710D01*
X96471Y-18740D01*
X98730Y-18962D01*
Y-2270D01*
D02*
G37*
G36*
X255730Y-2842D02*
X255198Y-3198D01*
X254842Y-3730D01*
X255730D01*
Y-2842D01*
D02*
G37*
G36*
X258270D02*
Y-3730D01*
X259158D01*
X258802Y-3198D01*
X258270Y-2842D01*
D02*
G37*
G36*
X-232730D02*
Y-3730D01*
X-231842D01*
X-232198Y-3198D01*
X-232730Y-2842D01*
D02*
G37*
G36*
X-48313Y-3799D02*
X-49201D01*
Y-4688D01*
X-48668Y-4332D01*
X-48313Y-3799D01*
D02*
G37*
G36*
X-235270Y-2842D02*
X-235802Y-3198D01*
X-236158Y-3730D01*
X-235270D01*
Y-2842D01*
D02*
G37*
G36*
X-42079Y3569D02*
X-43445Y3297D01*
X-44602Y2523D01*
X-45376Y1366D01*
X-45648Y0D01*
X-45376Y-1366D01*
X-44602Y-2523D01*
X-43445Y-3297D01*
X-42079Y-3569D01*
X-40713Y-3297D01*
X-39556Y-2523D01*
X-38782Y-1366D01*
X-38510Y0D01*
X-38782Y1366D01*
X-39556Y2523D01*
X-40713Y3297D01*
X-42079Y3569D01*
D02*
G37*
G36*
X206000Y4069D02*
X204634Y3797D01*
X203477Y3023D01*
X202703Y1866D01*
X202432Y500D01*
X202703Y-866D01*
X203477Y-2023D01*
X204634Y-2797D01*
X206000Y-3069D01*
X207366Y-2797D01*
X208523Y-2023D01*
X209297Y-866D01*
X209569Y500D01*
X209297Y1866D01*
X208523Y3023D01*
X207366Y3797D01*
X206000Y4069D01*
D02*
G37*
G36*
X261730Y-1270D02*
X260842D01*
X261198Y-1802D01*
X261730Y-2158D01*
Y-1270D01*
D02*
G37*
G36*
X-143842Y-2270D02*
X-144730D01*
Y-3158D01*
X-144198Y-2802D01*
X-143842Y-2270D01*
D02*
G37*
G36*
X148000Y3569D02*
X146634Y3297D01*
X145477Y2523D01*
X144703Y1366D01*
X144431Y0D01*
X144703Y-1366D01*
X145477Y-2523D01*
X146634Y-3297D01*
X148000Y-3569D01*
X149366Y-3297D01*
X150523Y-2523D01*
X151297Y-1366D01*
X151569Y0D01*
X151297Y1366D01*
X150523Y2523D01*
X149366Y3297D01*
X148000Y3569D01*
D02*
G37*
G36*
X-147270Y-2270D02*
X-148158D01*
X-147802Y-2802D01*
X-147270Y-3158D01*
Y-2270D01*
D02*
G37*
G36*
X-51741Y-3799D02*
X-52629D01*
X-52273Y-4332D01*
X-51741Y-4688D01*
Y-3799D01*
D02*
G37*
G36*
X-290230Y-10342D02*
Y-11230D01*
X-289342D01*
X-289697Y-10698D01*
X-290230Y-10342D01*
D02*
G37*
G36*
X-210000Y-3431D02*
X-211366Y-3703D01*
X-212523Y-4477D01*
X-213297Y-5634D01*
X-213569Y-7000D01*
X-213297Y-8366D01*
X-212523Y-9523D01*
X-211366Y-10297D01*
X-210000Y-10569D01*
X-208634Y-10297D01*
X-207477Y-9523D01*
X-206703Y-8366D01*
X-206431Y-7000D01*
X-206703Y-5634D01*
X-207477Y-4477D01*
X-208634Y-3703D01*
X-210000Y-3431D01*
D02*
G37*
G36*
X-292770Y-10342D02*
X-293302Y-10698D01*
X-293658Y-11230D01*
X-292770D01*
Y-10342D01*
D02*
G37*
G36*
X-35607Y-13270D02*
X-36495D01*
Y-14158D01*
X-35962Y-13802D01*
X-35607Y-13270D01*
D02*
G37*
G36*
X-13389Y-5960D02*
X-14754Y-6232D01*
X-15912Y-7005D01*
X-16686Y-8163D01*
X-16957Y-9529D01*
X-16743Y-10605D01*
X-17641Y-11503D01*
X-18000Y-11431D01*
X-19366Y-11703D01*
X-20523Y-12477D01*
X-21297Y-13634D01*
X-21569Y-15000D01*
X-21297Y-16366D01*
X-20523Y-17523D01*
X-19366Y-18297D01*
X-18000Y-18569D01*
X-16634Y-18297D01*
X-15477Y-17523D01*
X-14703Y-16366D01*
X-14431Y-15000D01*
X-14646Y-13924D01*
X-13747Y-13026D01*
X-13389Y-13097D01*
X-12023Y-12826D01*
X-10865Y-12052D01*
X-10092Y-10894D01*
X-9820Y-9529D01*
X-10092Y-8163D01*
X-10865Y-7005D01*
X-12023Y-6232D01*
X-13389Y-5960D01*
D02*
G37*
G36*
X-34000Y-2431D02*
X-35366Y-2703D01*
X-36523Y-3477D01*
X-37297Y-4634D01*
X-37569Y-6000D01*
X-37297Y-7366D01*
X-36540Y-8498D01*
X-37246Y-9554D01*
X-37765Y-9451D01*
X-38740Y-9645D01*
X-39567Y-10198D01*
X-39923Y-10730D01*
X-35607D01*
X-35826Y-10402D01*
X-35120Y-9346D01*
X-34000Y-9569D01*
X-32634Y-9297D01*
X-31477Y-8523D01*
X-30703Y-7366D01*
X-30431Y-6000D01*
X-30703Y-4634D01*
X-31477Y-3477D01*
X-32634Y-2703D01*
X-34000Y-2431D01*
D02*
G37*
G36*
X259158Y-6270D02*
X258270D01*
Y-7158D01*
X258802Y-6802D01*
X259158Y-6270D01*
D02*
G37*
G36*
X160632Y1702D02*
X159266Y1431D01*
X158109Y657D01*
X157335Y-501D01*
X157063Y-1866D01*
X157335Y-3232D01*
X158109Y-4390D01*
X159266Y-5163D01*
X160632Y-5435D01*
X161998Y-5163D01*
X163155Y-4390D01*
X163929Y-3232D01*
X164200Y-1866D01*
X163929Y-501D01*
X163155Y657D01*
X161998Y1431D01*
X160632Y1702D01*
D02*
G37*
G36*
X255730Y-6270D02*
X254842D01*
X255198Y-6802D01*
X255730Y-7158D01*
Y-6270D01*
D02*
G37*
G36*
X-235270D02*
X-236158D01*
X-235802Y-6802D01*
X-235270Y-7158D01*
Y-6270D01*
D02*
G37*
G36*
X-231842D02*
X-232730D01*
Y-7158D01*
X-232198Y-6802D01*
X-231842Y-6270D01*
D02*
G37*
G36*
X80895Y-32534D02*
X80006D01*
Y-33422D01*
X80539Y-33066D01*
X80895Y-32534D01*
D02*
G37*
G36*
X-26270Y-30842D02*
X-26802Y-31198D01*
X-27158Y-31730D01*
X-26270D01*
Y-30842D01*
D02*
G37*
G36*
X77466Y-32534D02*
X76578D01*
X76934Y-33066D01*
X77466Y-33422D01*
Y-32534D01*
D02*
G37*
G36*
X-26270Y-34270D02*
X-27158D01*
X-26802Y-34802D01*
X-26270Y-35158D01*
Y-34270D01*
D02*
G37*
G36*
X-22842D02*
X-23730D01*
Y-35158D01*
X-23198Y-34802D01*
X-22842Y-34270D01*
D02*
G37*
G36*
X-23730Y-30842D02*
Y-31730D01*
X-22842D01*
X-23198Y-31198D01*
X-23730Y-30842D01*
D02*
G37*
G36*
X236000Y-23931D02*
X234634Y-24203D01*
X233477Y-24977D01*
X232703Y-26134D01*
X232431Y-27500D01*
X232703Y-28866D01*
X233477Y-30023D01*
X234634Y-30797D01*
X236000Y-31068D01*
X237366Y-30797D01*
X238523Y-30023D01*
X239297Y-28866D01*
X239569Y-27500D01*
X239297Y-26134D01*
X238523Y-24977D01*
X237366Y-24203D01*
X236000Y-23931D01*
D02*
G37*
G36*
X77466Y-29105D02*
X76934Y-29461D01*
X76578Y-29994D01*
X77466D01*
Y-29105D01*
D02*
G37*
G36*
X-159842Y-30270D02*
X-160730D01*
Y-31158D01*
X-160198Y-30802D01*
X-159842Y-30270D01*
D02*
G37*
G36*
X260500Y-24431D02*
X259134Y-24703D01*
X257977Y-25477D01*
X257203Y-26634D01*
X256931Y-28000D01*
X257203Y-29366D01*
X257977Y-30523D01*
X259134Y-31297D01*
X260500Y-31569D01*
X261866Y-31297D01*
X263023Y-30523D01*
X263797Y-29366D01*
X264069Y-28000D01*
X263797Y-26634D01*
X263023Y-25477D01*
X261866Y-24703D01*
X260500Y-24431D01*
D02*
G37*
G36*
X-163270Y-30270D02*
X-164158D01*
X-163802Y-30802D01*
X-163270Y-31158D01*
Y-30270D01*
D02*
G37*
G36*
X-6000Y-28931D02*
X-7366Y-29203D01*
X-8523Y-29977D01*
X-9297Y-31134D01*
X-9569Y-32500D01*
X-9297Y-33866D01*
X-8523Y-35023D01*
X-7366Y-35797D01*
X-6000Y-36069D01*
X-4634Y-35797D01*
X-3477Y-35023D01*
X-2703Y-33866D01*
X-2431Y-32500D01*
X-2703Y-31134D01*
X-3477Y-29977D01*
X-4634Y-29203D01*
X-6000Y-28931D01*
D02*
G37*
G36*
X49450Y-41787D02*
X48562D01*
X48917Y-42319D01*
X49450Y-42675D01*
Y-41787D01*
D02*
G37*
G36*
X52878D02*
X51990D01*
Y-42675D01*
X52522Y-42319D01*
X52878Y-41787D01*
D02*
G37*
G36*
X-263730Y-41842D02*
Y-42730D01*
X-262842D01*
X-263198Y-42198D01*
X-263730Y-41842D01*
D02*
G37*
G36*
X29964Y-36948D02*
X28598Y-37220D01*
X27441Y-37993D01*
X26667Y-39151D01*
X26395Y-40517D01*
X26667Y-41882D01*
X27441Y-43040D01*
X28598Y-43814D01*
X29964Y-44085D01*
X31330Y-43814D01*
X32487Y-43040D01*
X33261Y-41882D01*
X33533Y-40517D01*
X33261Y-39151D01*
X32487Y-37993D01*
X31330Y-37220D01*
X29964Y-36948D01*
D02*
G37*
G36*
X-266270Y-41842D02*
X-266802Y-42198D01*
X-267158Y-42730D01*
X-266270D01*
Y-41842D01*
D02*
G37*
G36*
X-292770Y-40342D02*
X-293302Y-40698D01*
X-293658Y-41230D01*
X-292770D01*
Y-40342D01*
D02*
G37*
G36*
X51990Y-38359D02*
Y-39247D01*
X52878D01*
X52522Y-38714D01*
X51990Y-38359D01*
D02*
G37*
G36*
X201640Y-20491D02*
X200275Y-20762D01*
X199117Y-21536D01*
X198343Y-22694D01*
X198071Y-24059D01*
X198343Y-25425D01*
X199117Y-26583D01*
X200275Y-27356D01*
X201640Y-27628D01*
X202668Y-27423D01*
X203566Y-28321D01*
X203431Y-29000D01*
X203703Y-30366D01*
X204476Y-31523D01*
X205634Y-32297D01*
X207000Y-32569D01*
X208365Y-32297D01*
X208606Y-32136D01*
X209662Y-32842D01*
X209431Y-34000D01*
X209703Y-35366D01*
X210477Y-36523D01*
X211634Y-37297D01*
X213000Y-37569D01*
X214366Y-37297D01*
X215523Y-36523D01*
X216297Y-35366D01*
X216569Y-34000D01*
X216297Y-32634D01*
X215523Y-31477D01*
X214366Y-30703D01*
X213000Y-30431D01*
X211634Y-30703D01*
X211394Y-30864D01*
X210338Y-30158D01*
X210568Y-29000D01*
X210296Y-27634D01*
X209523Y-26477D01*
X208365Y-25703D01*
X207000Y-25431D01*
X205972Y-25636D01*
X205074Y-24738D01*
X205209Y-24059D01*
X204937Y-22694D01*
X204163Y-21536D01*
X203006Y-20762D01*
X201640Y-20491D01*
D02*
G37*
G36*
X49450Y-38359D02*
X48917Y-38714D01*
X48562Y-39247D01*
X49450D01*
Y-38359D01*
D02*
G37*
G36*
X-290230Y-40342D02*
Y-41230D01*
X-289342D01*
X-289697Y-40698D01*
X-290230Y-40342D01*
D02*
G37*
G36*
X220979Y-24431D02*
X219614Y-24703D01*
X218456Y-25477D01*
X217682Y-26634D01*
X217411Y-28000D01*
X217682Y-29366D01*
X218456Y-30523D01*
X219614Y-31297D01*
X220385Y-31450D01*
X220634Y-32703D01*
X219477Y-33477D01*
X218703Y-34634D01*
X218431Y-36000D01*
X218703Y-37366D01*
X219477Y-38523D01*
X220634Y-39297D01*
X222000Y-39569D01*
X223366Y-39297D01*
X224523Y-38523D01*
X225297Y-37366D01*
X225569Y-36000D01*
X225297Y-34634D01*
X224523Y-33477D01*
X223366Y-32703D01*
X222594Y-32550D01*
X222345Y-31297D01*
X223503Y-30523D01*
X224276Y-29366D01*
X224548Y-28000D01*
X224276Y-26634D01*
X223503Y-25477D01*
X222345Y-24703D01*
X220979Y-24431D01*
D02*
G37*
G36*
X-215000Y-15431D02*
X-216366Y-15703D01*
X-217523Y-16477D01*
X-218297Y-17634D01*
X-218569Y-19000D01*
X-218297Y-20366D01*
X-217523Y-21523D01*
X-216366Y-22297D01*
X-215000Y-22569D01*
X-213634Y-22297D01*
X-212477Y-21523D01*
X-211703Y-20366D01*
X-211431Y-19000D01*
X-211703Y-17634D01*
X-212477Y-16477D01*
X-213634Y-15703D01*
X-215000Y-15431D01*
D02*
G37*
G36*
X35695Y-14431D02*
X34330Y-14703D01*
X33172Y-15477D01*
X32398Y-16634D01*
X32127Y-18000D01*
X32398Y-19366D01*
X33172Y-20523D01*
X34330Y-21297D01*
X35695Y-21569D01*
X37061Y-21297D01*
X38219Y-20523D01*
X38992Y-19366D01*
X39264Y-18000D01*
X38992Y-16634D01*
X38219Y-15477D01*
X37061Y-14703D01*
X35695Y-14431D01*
D02*
G37*
G36*
X177270Y-21842D02*
Y-22730D01*
X178158D01*
X177802Y-22198D01*
X177270Y-21842D01*
D02*
G37*
G36*
X161902Y-22210D02*
Y-23098D01*
X162790D01*
X162434Y-22566D01*
X161902Y-22210D01*
D02*
G37*
G36*
X174730Y-21842D02*
X174198Y-22198D01*
X173842Y-22730D01*
X174730D01*
Y-21842D01*
D02*
G37*
G36*
X292730Y-20270D02*
X291842D01*
X292198Y-20802D01*
X292730Y-21158D01*
Y-20270D01*
D02*
G37*
G36*
X58092Y-19337D02*
X57203D01*
Y-20225D01*
X57736Y-19869D01*
X58092Y-19337D01*
D02*
G37*
G36*
X-153270Y-19270D02*
X-154158D01*
X-153802Y-19802D01*
X-153270Y-20158D01*
Y-19270D01*
D02*
G37*
G36*
X54663Y-19337D02*
X53775D01*
X54131Y-19869D01*
X54663Y-20225D01*
Y-19337D01*
D02*
G37*
G36*
X224000Y-13931D02*
X222634Y-14203D01*
X221477Y-14977D01*
X220703Y-16134D01*
X220431Y-17500D01*
X220703Y-18866D01*
X221477Y-20023D01*
X222634Y-20797D01*
X224000Y-21068D01*
X225366Y-20797D01*
X226523Y-20023D01*
X227297Y-18866D01*
X227569Y-17500D01*
X227297Y-16134D01*
X226523Y-14977D01*
X225366Y-14203D01*
X224000Y-13931D01*
D02*
G37*
G36*
X236000D02*
X234634Y-14203D01*
X233477Y-14977D01*
X232703Y-16134D01*
X232431Y-17500D01*
X232703Y-18866D01*
X233477Y-20023D01*
X234634Y-20797D01*
X236000Y-21068D01*
X237366Y-20797D01*
X238523Y-20023D01*
X239297Y-18866D01*
X239569Y-17500D01*
X239297Y-16134D01*
X238523Y-14977D01*
X237366Y-14203D01*
X236000Y-13931D01*
D02*
G37*
G36*
X159362Y-22210D02*
X158830Y-22566D01*
X158474Y-23098D01*
X159362D01*
Y-22210D01*
D02*
G37*
G36*
X-163270Y-26842D02*
X-163802Y-27198D01*
X-164158Y-27730D01*
X-163270D01*
Y-26842D01*
D02*
G37*
G36*
X-160730D02*
Y-27730D01*
X-159842D01*
X-160198Y-27198D01*
X-160730Y-26842D01*
D02*
G37*
G36*
X60970Y-27081D02*
X60082D01*
Y-27970D01*
X60614Y-27614D01*
X60970Y-27081D01*
D02*
G37*
G36*
X80006Y-29105D02*
Y-29994D01*
X80895D01*
X80539Y-29461D01*
X80006Y-29105D01*
D02*
G37*
G36*
X57541Y-27081D02*
X56653D01*
X57009Y-27614D01*
X57541Y-27970D01*
Y-27081D01*
D02*
G37*
G36*
X159362Y-25638D02*
X158474D01*
X158830Y-26170D01*
X159362Y-26526D01*
Y-25638D01*
D02*
G37*
G36*
X57541Y-23653D02*
X57009Y-24009D01*
X56653Y-24541D01*
X57541D01*
Y-23653D01*
D02*
G37*
G36*
X60082D02*
Y-24541D01*
X60970D01*
X60614Y-24009D01*
X60082Y-23653D01*
D02*
G37*
G36*
X178158Y-25270D02*
X177270D01*
Y-26158D01*
X177802Y-25802D01*
X178158Y-25270D01*
D02*
G37*
G36*
X162790Y-25638D02*
X161902D01*
Y-26526D01*
X162434Y-26170D01*
X162790Y-25638D01*
D02*
G37*
G36*
X174730Y-25270D02*
X173842D01*
X174198Y-25802D01*
X174730Y-26158D01*
Y-25270D01*
D02*
G37*
G36*
X149000Y-79431D02*
X147634Y-79703D01*
X146477Y-80477D01*
X145703Y-81634D01*
X145431Y-83000D01*
X145703Y-84366D01*
X146477Y-85523D01*
X147634Y-86297D01*
X149000Y-86569D01*
X150366Y-86297D01*
X151523Y-85523D01*
X152297Y-84366D01*
X152569Y-83000D01*
X152297Y-81634D01*
X151523Y-80477D01*
X150366Y-79703D01*
X149000Y-79431D01*
D02*
G37*
G36*
X-70270Y-149270D02*
X-71158D01*
X-70802Y-149802D01*
X-70270Y-150158D01*
Y-149270D01*
D02*
G37*
G36*
X-66842D02*
X-67730D01*
Y-150158D01*
X-67198Y-149802D01*
X-66842Y-149270D01*
D02*
G37*
G36*
X242158Y-151270D02*
X241270D01*
Y-152158D01*
X241802Y-151802D01*
X242158Y-151270D01*
D02*
G37*
G36*
X124750Y-151681D02*
X123384Y-151953D01*
X122227Y-152727D01*
X121453Y-153884D01*
X121181Y-155250D01*
X121453Y-156616D01*
X122227Y-157773D01*
X123384Y-158547D01*
X124750Y-158819D01*
X126116Y-158547D01*
X127273Y-157773D01*
X128047Y-156616D01*
X128319Y-155250D01*
X128047Y-153884D01*
X127273Y-152727D01*
X126116Y-151953D01*
X124750Y-151681D01*
D02*
G37*
G36*
X238730Y-151270D02*
X237842D01*
X238198Y-151802D01*
X238730Y-152158D01*
Y-151270D01*
D02*
G37*
G36*
X-245270Y-148270D02*
X-246158D01*
X-245802Y-148802D01*
X-245270Y-149158D01*
Y-148270D01*
D02*
G37*
G36*
X238730Y-147842D02*
X238198Y-148198D01*
X237842Y-148730D01*
X238730D01*
Y-147842D01*
D02*
G37*
G36*
X241270D02*
Y-148730D01*
X242158D01*
X241802Y-148198D01*
X241270Y-147842D01*
D02*
G37*
G36*
X73158Y-148270D02*
X72270D01*
Y-149158D01*
X72802Y-148802D01*
X73158Y-148270D01*
D02*
G37*
G36*
X-241842D02*
X-242730D01*
Y-149158D01*
X-242198Y-148802D01*
X-241842Y-148270D01*
D02*
G37*
G36*
X69730D02*
X68842D01*
X69198Y-148802D01*
X69730Y-149158D01*
Y-148270D01*
D02*
G37*
G36*
X274270Y-143028D02*
Y-161730D01*
X292972D01*
X292711Y-159079D01*
X291567Y-155309D01*
X289710Y-151835D01*
X287211Y-148789D01*
X284165Y-146290D01*
X280691Y-144433D01*
X276921Y-143289D01*
X274270Y-143028D01*
D02*
G37*
G36*
X-44380Y-157431D02*
X-45746Y-157703D01*
X-46903Y-158477D01*
X-47677Y-159634D01*
X-47949Y-161000D01*
X-47677Y-162366D01*
X-46903Y-163523D01*
X-45746Y-164297D01*
X-44380Y-164569D01*
X-43014Y-164297D01*
X-41857Y-163523D01*
X-41083Y-162366D01*
X-40811Y-161000D01*
X-41083Y-159634D01*
X-41857Y-158477D01*
X-43014Y-157703D01*
X-44380Y-157431D01*
D02*
G37*
G36*
X-19000D02*
X-20366Y-157703D01*
X-21523Y-158477D01*
X-22297Y-159634D01*
X-22569Y-161000D01*
X-22297Y-162366D01*
X-21523Y-163523D01*
X-20366Y-164297D01*
X-19000Y-164569D01*
X-17634Y-164297D01*
X-16477Y-163523D01*
X-15703Y-162366D01*
X-15431Y-161000D01*
X-15703Y-159634D01*
X-16477Y-158477D01*
X-17634Y-157703D01*
X-19000Y-157431D01*
D02*
G37*
G36*
X113270Y-164842D02*
Y-165730D01*
X114158D01*
X113802Y-165198D01*
X113270Y-164842D01*
D02*
G37*
G36*
X84933Y-164844D02*
Y-165732D01*
X85821D01*
X85465Y-165199D01*
X84933Y-164844D01*
D02*
G37*
G36*
X110730Y-164842D02*
X110198Y-165198D01*
X109842Y-165730D01*
X110730D01*
Y-164842D01*
D02*
G37*
G36*
X196250Y-155431D02*
X194884Y-155703D01*
X193727Y-156477D01*
X192953Y-157634D01*
X192682Y-159000D01*
X192953Y-160366D01*
X193727Y-161523D01*
X194884Y-162297D01*
X196250Y-162569D01*
X197616Y-162297D01*
X198773Y-161523D01*
X199547Y-160366D01*
X199819Y-159000D01*
X199547Y-157634D01*
X198773Y-156477D01*
X197616Y-155703D01*
X196250Y-155431D01*
D02*
G37*
G36*
X-271730Y-143028D02*
Y-161730D01*
X-253028D01*
X-253289Y-159079D01*
X-254433Y-155309D01*
X-256290Y-151835D01*
X-258789Y-148789D01*
X-261835Y-146290D01*
X-265309Y-144433D01*
X-269079Y-143289D01*
X-271730Y-143028D01*
D02*
G37*
G36*
X271730D02*
X269079Y-143289D01*
X265309Y-144433D01*
X261835Y-146290D01*
X258789Y-148789D01*
X256290Y-151835D01*
X254433Y-155309D01*
X253289Y-159079D01*
X253028Y-161730D01*
X271730D01*
Y-143028D01*
D02*
G37*
G36*
X-274270D02*
X-276921Y-143289D01*
X-280691Y-144433D01*
X-284165Y-146290D01*
X-287211Y-148789D01*
X-289710Y-151835D01*
X-291567Y-155309D01*
X-292711Y-159079D01*
X-292972Y-161730D01*
X-274270D01*
Y-143028D01*
D02*
G37*
G36*
X208750Y-155431D02*
X207384Y-155703D01*
X206227Y-156477D01*
X205453Y-157634D01*
X205182Y-159000D01*
X205453Y-160366D01*
X206227Y-161523D01*
X207384Y-162297D01*
X208750Y-162569D01*
X210116Y-162297D01*
X211273Y-161523D01*
X212047Y-160366D01*
X212319Y-159000D01*
X212047Y-157634D01*
X211273Y-156477D01*
X210116Y-155703D01*
X208750Y-155431D01*
D02*
G37*
G36*
X221250D02*
X219884Y-155703D01*
X218727Y-156477D01*
X217953Y-157634D01*
X217682Y-159000D01*
X217953Y-160366D01*
X218727Y-161523D01*
X219884Y-162297D01*
X221250Y-162569D01*
X222616Y-162297D01*
X223773Y-161523D01*
X224547Y-160366D01*
X224819Y-159000D01*
X224547Y-157634D01*
X223773Y-156477D01*
X222616Y-155703D01*
X221250Y-155431D01*
D02*
G37*
G36*
X-197230Y-140342D02*
Y-141230D01*
X-196342D01*
X-196698Y-140698D01*
X-197230Y-140342D01*
D02*
G37*
G36*
X-79270Y-137842D02*
X-79802Y-138198D01*
X-80158Y-138730D01*
X-79270D01*
Y-137842D01*
D02*
G37*
G36*
X-199770Y-140342D02*
X-200302Y-140698D01*
X-200658Y-141230D01*
X-199770D01*
Y-140342D01*
D02*
G37*
G36*
X-79270Y-141270D02*
X-80158D01*
X-79802Y-141802D01*
X-79270Y-142158D01*
Y-141270D01*
D02*
G37*
G36*
X-75842D02*
X-76730D01*
Y-142158D01*
X-76198Y-141802D01*
X-75842Y-141270D01*
D02*
G37*
G36*
X-76730Y-137842D02*
Y-138730D01*
X-75842D01*
X-76198Y-138198D01*
X-76730Y-137842D01*
D02*
G37*
G36*
X63000Y-128431D02*
X61634Y-128703D01*
X60477Y-129477D01*
X59703Y-130634D01*
X59431Y-132000D01*
X59703Y-133366D01*
X60477Y-134523D01*
X61634Y-135297D01*
X63000Y-135569D01*
X64366Y-135297D01*
X65523Y-134523D01*
X66297Y-133366D01*
X66569Y-132000D01*
X66297Y-130634D01*
X65523Y-129477D01*
X64366Y-128703D01*
X63000Y-128431D01*
D02*
G37*
G36*
X-247793Y-134393D02*
X-248681D01*
X-248326Y-134925D01*
X-247793Y-135281D01*
Y-134393D01*
D02*
G37*
G36*
X276200Y-126902D02*
X274249Y-127290D01*
X272595Y-128395D01*
X271490Y-130049D01*
X271102Y-132000D01*
X271490Y-133951D01*
X272595Y-135605D01*
X274249Y-136710D01*
X276200Y-137098D01*
X278151Y-136710D01*
X279805Y-135605D01*
X280910Y-133951D01*
X281298Y-132000D01*
X280910Y-130049D01*
X279805Y-128395D01*
X278151Y-127290D01*
X276200Y-126902D01*
D02*
G37*
G36*
X220730Y-137270D02*
X219842D01*
X220198Y-137802D01*
X220730Y-138158D01*
Y-137270D01*
D02*
G37*
G36*
X224158D02*
X223270D01*
Y-138158D01*
X223802Y-137802D01*
X224158Y-137270D01*
D02*
G37*
G36*
X-196342Y-143770D02*
X-197230D01*
Y-144658D01*
X-196698Y-144302D01*
X-196342Y-143770D01*
D02*
G37*
G36*
X-245270Y-144842D02*
X-245802Y-145198D01*
X-246158Y-145730D01*
X-245270D01*
Y-144842D01*
D02*
G37*
G36*
X-242730D02*
Y-145730D01*
X-241842D01*
X-242198Y-145198D01*
X-242730Y-144842D01*
D02*
G37*
G36*
X-159000Y-139431D02*
X-160366Y-139703D01*
X-161523Y-140477D01*
X-162297Y-141634D01*
X-162569Y-143000D01*
X-162297Y-144366D01*
X-161523Y-145523D01*
X-160366Y-146297D01*
X-159000Y-146569D01*
X-157634Y-146297D01*
X-156477Y-145523D01*
X-155703Y-144366D01*
X-155431Y-143000D01*
X-155703Y-141634D01*
X-156477Y-140477D01*
X-157634Y-139703D01*
X-159000Y-139431D01*
D02*
G37*
G36*
X-70270Y-145842D02*
X-70802Y-146198D01*
X-71158Y-146730D01*
X-70270D01*
Y-145842D01*
D02*
G37*
G36*
X-67730D02*
Y-146730D01*
X-66842D01*
X-67198Y-146198D01*
X-67730Y-145842D01*
D02*
G37*
G36*
X69730Y-144842D02*
X69198Y-145198D01*
X68842Y-145730D01*
X69730D01*
Y-144842D01*
D02*
G37*
G36*
X158703Y-137614D02*
X157338Y-137886D01*
X156180Y-138660D01*
X155406Y-139817D01*
X155134Y-141183D01*
X155406Y-142549D01*
X156180Y-143706D01*
X157338Y-144480D01*
X158703Y-144752D01*
X160069Y-144480D01*
X161226Y-143706D01*
X162000Y-142549D01*
X162272Y-141183D01*
X162000Y-139817D01*
X161226Y-138660D01*
X160069Y-137886D01*
X158703Y-137614D01*
D02*
G37*
G36*
X-199770Y-143770D02*
X-200658D01*
X-200302Y-144302D01*
X-199770Y-144658D01*
Y-143770D01*
D02*
G37*
G36*
X146440Y-137614D02*
X145074Y-137886D01*
X143917Y-138660D01*
X143143Y-139817D01*
X142871Y-141183D01*
X143143Y-142549D01*
X143917Y-143706D01*
X145074Y-144480D01*
X146440Y-144752D01*
X147806Y-144480D01*
X148963Y-143706D01*
X149737Y-142549D01*
X150009Y-141183D01*
X149737Y-139817D01*
X148963Y-138660D01*
X147806Y-137886D01*
X146440Y-137614D01*
D02*
G37*
G36*
X72270Y-144842D02*
Y-145730D01*
X73158D01*
X72802Y-145198D01*
X72270Y-144842D01*
D02*
G37*
G36*
X134233Y-137614D02*
X132867Y-137886D01*
X131709Y-138660D01*
X130936Y-139817D01*
X130664Y-141183D01*
X130936Y-142549D01*
X131709Y-143706D01*
X132867Y-144480D01*
X134233Y-144752D01*
X135598Y-144480D01*
X136756Y-143706D01*
X137529Y-142549D01*
X137801Y-141183D01*
X137529Y-139817D01*
X136756Y-138660D01*
X135598Y-137886D01*
X134233Y-137614D01*
D02*
G37*
G36*
X1158Y-180270D02*
X270D01*
Y-181158D01*
X802Y-180802D01*
X1158Y-180270D01*
D02*
G37*
G36*
X-224270Y-179842D02*
X-224802Y-180198D01*
X-225158Y-180730D01*
X-224270D01*
Y-179842D01*
D02*
G37*
G36*
X-2270Y-180270D02*
X-3158D01*
X-2802Y-180802D01*
X-2270Y-181158D01*
Y-180270D01*
D02*
G37*
G36*
X256730Y-180842D02*
X256198Y-181198D01*
X255842Y-181730D01*
X256730D01*
Y-180842D01*
D02*
G37*
G36*
X259270D02*
Y-181730D01*
X260158D01*
X259802Y-181198D01*
X259270Y-180842D01*
D02*
G37*
G36*
X-221730Y-179842D02*
Y-180730D01*
X-220842D01*
X-221198Y-180198D01*
X-221730Y-179842D01*
D02*
G37*
G36*
X-117842Y-179270D02*
X-118730D01*
Y-180158D01*
X-118198Y-179802D01*
X-117842Y-179270D01*
D02*
G37*
G36*
X133730Y-177842D02*
X133198Y-178198D01*
X132842Y-178730D01*
X133730D01*
Y-177842D01*
D02*
G37*
G36*
X-121270Y-179270D02*
X-122158D01*
X-121802Y-179802D01*
X-121270Y-180158D01*
Y-179270D01*
D02*
G37*
G36*
X169980Y-179592D02*
X169448Y-179948D01*
X169092Y-180480D01*
X169980D01*
Y-179592D01*
D02*
G37*
G36*
X172520D02*
Y-180480D01*
X173408D01*
X173052Y-179948D01*
X172520Y-179592D01*
D02*
G37*
G36*
X137158Y-181270D02*
X136270D01*
Y-182158D01*
X136802Y-181802D01*
X137158Y-181270D01*
D02*
G37*
G36*
X-220842Y-183270D02*
X-221730D01*
Y-184158D01*
X-221198Y-183802D01*
X-220842Y-183270D01*
D02*
G37*
G36*
X169980Y-183020D02*
X169092D01*
X169448Y-183552D01*
X169980Y-183908D01*
Y-183020D01*
D02*
G37*
G36*
X-224270Y-183270D02*
X-225158D01*
X-224802Y-183802D01*
X-224270Y-184158D01*
Y-183270D01*
D02*
G37*
G36*
X256730Y-184270D02*
X255842D01*
X256198Y-184802D01*
X256730Y-185158D01*
Y-184270D01*
D02*
G37*
G36*
X260158D02*
X259270D01*
Y-185158D01*
X259802Y-184802D01*
X260158Y-184270D01*
D02*
G37*
G36*
X173408Y-183020D02*
X172520D01*
Y-183908D01*
X173052Y-183552D01*
X173408Y-183020D01*
D02*
G37*
G36*
X292972Y-164270D02*
X274270D01*
Y-182972D01*
X276921Y-182711D01*
X280691Y-181567D01*
X284165Y-179710D01*
X287211Y-177211D01*
X289710Y-174165D01*
X291567Y-170691D01*
X292711Y-166921D01*
X292972Y-164270D01*
D02*
G37*
G36*
X133730Y-181270D02*
X132842D01*
X133198Y-181802D01*
X133730Y-182158D01*
Y-181270D01*
D02*
G37*
G36*
X271730Y-164270D02*
X253028D01*
X253289Y-166921D01*
X254433Y-170691D01*
X256290Y-174165D01*
X258789Y-177211D01*
X261835Y-179710D01*
X265309Y-181567D01*
X269079Y-182711D01*
X271730Y-182972D01*
Y-164270D01*
D02*
G37*
G36*
X-274270D02*
X-292972D01*
X-292711Y-166921D01*
X-291567Y-170691D01*
X-289710Y-174165D01*
X-287211Y-177211D01*
X-284165Y-179710D01*
X-280691Y-181567D01*
X-276921Y-182711D01*
X-274270Y-182972D01*
Y-164270D01*
D02*
G37*
G36*
X-253028D02*
X-271730D01*
Y-182972D01*
X-269079Y-182711D01*
X-265309Y-181567D01*
X-261835Y-179710D01*
X-258789Y-177211D01*
X-256290Y-174165D01*
X-254433Y-170691D01*
X-253289Y-166921D01*
X-253028Y-164270D01*
D02*
G37*
G36*
X101270Y-168842D02*
Y-169730D01*
X102158D01*
X101802Y-169198D01*
X101270Y-168842D01*
D02*
G37*
G36*
X82393Y-168272D02*
X81505D01*
X81861Y-168804D01*
X82393Y-169160D01*
Y-168272D01*
D02*
G37*
G36*
X98730Y-168842D02*
X98198Y-169198D01*
X97842Y-169730D01*
X98730D01*
Y-168842D01*
D02*
G37*
G36*
X-121270D02*
X-121802Y-169198D01*
X-122158Y-169730D01*
X-121270D01*
Y-168842D01*
D02*
G37*
G36*
X-118730D02*
Y-169730D01*
X-117842D01*
X-118198Y-169198D01*
X-118730Y-168842D01*
D02*
G37*
G36*
X85821Y-168272D02*
X84933D01*
Y-169160D01*
X85465Y-168804D01*
X85821Y-168272D01*
D02*
G37*
G36*
X136270Y-167842D02*
Y-168730D01*
X137158D01*
X136802Y-168198D01*
X136270Y-167842D01*
D02*
G37*
G36*
X82393Y-164844D02*
X81861Y-165199D01*
X81505Y-165732D01*
X82393D01*
Y-164844D01*
D02*
G37*
G36*
X133730Y-167842D02*
X133198Y-168198D01*
X132842Y-168730D01*
X133730D01*
Y-167842D01*
D02*
G37*
G36*
X110730Y-168270D02*
X109842D01*
X110198Y-168802D01*
X110730Y-169158D01*
Y-168270D01*
D02*
G37*
G36*
X114158D02*
X113270D01*
Y-169158D01*
X113802Y-168802D01*
X114158Y-168270D01*
D02*
G37*
G36*
X137158Y-171270D02*
X136270D01*
Y-172158D01*
X136802Y-171802D01*
X137158Y-171270D01*
D02*
G37*
G36*
X-121270Y-175842D02*
X-121802Y-176198D01*
X-122158Y-176730D01*
X-121270D01*
Y-175842D01*
D02*
G37*
G36*
X-118730D02*
Y-176730D01*
X-117842D01*
X-118198Y-176198D01*
X-118730Y-175842D01*
D02*
G37*
G36*
X270Y-176842D02*
Y-177730D01*
X1158D01*
X802Y-177198D01*
X270Y-176842D01*
D02*
G37*
G36*
X136270Y-177842D02*
Y-178730D01*
X137158D01*
X136802Y-178198D01*
X136270Y-177842D01*
D02*
G37*
G36*
X-2270Y-176842D02*
X-2802Y-177198D01*
X-3158Y-177730D01*
X-2270D01*
Y-176842D01*
D02*
G37*
G36*
X-219500Y-168931D02*
X-220866Y-169203D01*
X-222023Y-169977D01*
X-222797Y-171134D01*
X-223069Y-172500D01*
X-222797Y-173866D01*
X-222023Y-175023D01*
X-220866Y-175797D01*
X-219500Y-176069D01*
X-218134Y-175797D01*
X-216977Y-175023D01*
X-216203Y-173866D01*
X-215931Y-172500D01*
X-216203Y-171134D01*
X-216977Y-169977D01*
X-218134Y-169203D01*
X-219500Y-168931D01*
D02*
G37*
G36*
X102158Y-172270D02*
X101270D01*
Y-173158D01*
X101802Y-172802D01*
X102158Y-172270D01*
D02*
G37*
G36*
X133730Y-171270D02*
X132842D01*
X133198Y-171802D01*
X133730Y-172158D01*
Y-171270D01*
D02*
G37*
G36*
X98730Y-172270D02*
X97842D01*
X98198Y-172802D01*
X98730Y-173158D01*
Y-172270D01*
D02*
G37*
G36*
X-121270D02*
X-122158D01*
X-121802Y-172802D01*
X-121270Y-173158D01*
Y-172270D01*
D02*
G37*
G36*
X-117842D02*
X-118730D01*
Y-173158D01*
X-118198Y-172802D01*
X-117842Y-172270D01*
D02*
G37*
G36*
X-268242Y-108770D02*
X-269130D01*
Y-109658D01*
X-268598Y-109302D01*
X-268242Y-108770D01*
D02*
G37*
G36*
X-226140Y-101773D02*
X-227506Y-102045D01*
X-228664Y-102818D01*
X-229438Y-103976D01*
X-229709Y-105342D01*
X-229438Y-106707D01*
X-228664Y-107865D01*
X-227506Y-108639D01*
X-226140Y-108910D01*
X-224775Y-108639D01*
X-223617Y-107865D01*
X-222844Y-106707D01*
X-222572Y-105342D01*
X-222844Y-103976D01*
X-223617Y-102818D01*
X-224775Y-102045D01*
X-226140Y-101773D01*
D02*
G37*
G36*
X-271670Y-108770D02*
X-272558D01*
X-272203Y-109302D01*
X-271670Y-109658D01*
Y-108770D01*
D02*
G37*
G36*
X266730Y-111270D02*
X265842D01*
X266198Y-111802D01*
X266730Y-112158D01*
Y-111270D01*
D02*
G37*
G36*
X270158D02*
X269270D01*
Y-112158D01*
X269802Y-111802D01*
X270158Y-111270D01*
D02*
G37*
G36*
X266730Y-107842D02*
X266198Y-108198D01*
X265842Y-108730D01*
X266730D01*
Y-107842D01*
D02*
G37*
G36*
X171658Y-106270D02*
X170770D01*
Y-107158D01*
X171302Y-106802D01*
X171658Y-106270D01*
D02*
G37*
G36*
X-271670Y-105342D02*
X-272203Y-105697D01*
X-272558Y-106230D01*
X-271670D01*
Y-105342D01*
D02*
G37*
G36*
X168230Y-106270D02*
X167342D01*
X167698Y-106802D01*
X168230Y-107158D01*
Y-106270D01*
D02*
G37*
G36*
X269270Y-107842D02*
Y-108730D01*
X270158D01*
X269802Y-108198D01*
X269270Y-107842D01*
D02*
G37*
G36*
X184500Y-100931D02*
X183134Y-101203D01*
X181977Y-101977D01*
X181203Y-103134D01*
X180931Y-104500D01*
X181203Y-105866D01*
X181977Y-107023D01*
X183134Y-107797D01*
X184500Y-108069D01*
X185866Y-107797D01*
X187023Y-107023D01*
X187797Y-105866D01*
X188069Y-104500D01*
X187797Y-103134D01*
X187023Y-101977D01*
X185866Y-101203D01*
X184500Y-100931D01*
D02*
G37*
G36*
X258000Y-108931D02*
X256634Y-109203D01*
X255477Y-109976D01*
X254703Y-111134D01*
X254431Y-112500D01*
X254703Y-113865D01*
X255477Y-115023D01*
X256634Y-115797D01*
X258000Y-116068D01*
X259366Y-115797D01*
X260523Y-115023D01*
X261297Y-113865D01*
X261569Y-112500D01*
X261297Y-111134D01*
X260523Y-109976D01*
X259366Y-109203D01*
X258000Y-108931D01*
D02*
G37*
G36*
X-48270Y-115842D02*
X-48802Y-116198D01*
X-49158Y-116730D01*
X-48270D01*
Y-115842D01*
D02*
G37*
G36*
X-45730D02*
Y-116730D01*
X-44842D01*
X-45198Y-116198D01*
X-45730Y-115842D01*
D02*
G37*
G36*
X169500Y-112431D02*
X168134Y-112703D01*
X166977Y-113477D01*
X166203Y-114634D01*
X165931Y-116000D01*
X166203Y-117366D01*
X166977Y-118523D01*
X168134Y-119297D01*
X169500Y-119569D01*
X170866Y-119297D01*
X172023Y-118523D01*
X172797Y-117366D01*
X173069Y-116000D01*
X172797Y-114634D01*
X172023Y-113477D01*
X170866Y-112703D01*
X169500Y-112431D01*
D02*
G37*
G36*
X223730Y-118842D02*
X223198Y-119198D01*
X222842Y-119730D01*
X223730D01*
Y-118842D01*
D02*
G37*
G36*
X226270D02*
Y-119730D01*
X227158D01*
X226802Y-119198D01*
X226270Y-118842D01*
D02*
G37*
G36*
X-41270Y-115842D02*
X-41802Y-116198D01*
X-42158Y-116730D01*
X-41270D01*
Y-115842D01*
D02*
G37*
G36*
X-27270D02*
X-27802Y-116198D01*
X-28158Y-116730D01*
X-27270D01*
Y-115842D01*
D02*
G37*
G36*
X-24730D02*
Y-116730D01*
X-23842D01*
X-24198Y-116198D01*
X-24730Y-115842D01*
D02*
G37*
G36*
X-31730D02*
Y-116730D01*
X-30842D01*
X-31198Y-116198D01*
X-31730Y-115842D01*
D02*
G37*
G36*
X-38730D02*
Y-116730D01*
X-37842D01*
X-38198Y-116198D01*
X-38730Y-115842D01*
D02*
G37*
G36*
X-34270D02*
X-34802Y-116198D01*
X-35158Y-116730D01*
X-34270D01*
Y-115842D01*
D02*
G37*
G36*
X225000Y-89431D02*
X223634Y-89703D01*
X222477Y-90477D01*
X221703Y-91634D01*
X221431Y-93000D01*
X221703Y-94366D01*
X222477Y-95523D01*
X223634Y-96297D01*
X225000Y-96569D01*
X226366Y-96297D01*
X227523Y-95523D01*
X228297Y-94366D01*
X228569Y-93000D01*
X228297Y-91634D01*
X227523Y-90477D01*
X226366Y-89703D01*
X225000Y-89431D01*
D02*
G37*
G36*
X262000Y-87431D02*
X260634Y-87703D01*
X259477Y-88477D01*
X258703Y-89634D01*
X258431Y-91000D01*
X258703Y-92366D01*
X259477Y-93523D01*
X260634Y-94297D01*
X262000Y-94569D01*
X263366Y-94297D01*
X264523Y-93523D01*
X265297Y-92366D01*
X265569Y-91000D01*
X265297Y-89634D01*
X264523Y-88477D01*
X263366Y-87703D01*
X262000Y-87431D01*
D02*
G37*
G36*
X-194442Y-89606D02*
X-195808Y-89877D01*
X-196965Y-90651D01*
X-197739Y-91809D01*
X-198011Y-93174D01*
X-197739Y-94540D01*
X-196965Y-95697D01*
X-195808Y-96471D01*
X-194442Y-96743D01*
X-193076Y-96471D01*
X-191919Y-95697D01*
X-191145Y-94540D01*
X-190873Y-93174D01*
X-191145Y-91809D01*
X-191919Y-90651D01*
X-193076Y-89877D01*
X-194442Y-89606D01*
D02*
G37*
G36*
X-31820Y-91251D02*
X-33186Y-91523D01*
X-34343Y-92297D01*
X-35117Y-93454D01*
X-35389Y-94820D01*
X-35117Y-96186D01*
X-34343Y-97343D01*
X-33186Y-98117D01*
X-31820Y-98389D01*
X-30454Y-98117D01*
X-29297Y-97343D01*
X-28523Y-96186D01*
X-28251Y-94820D01*
X-28523Y-93454D01*
X-29297Y-92297D01*
X-30454Y-91523D01*
X-31820Y-91251D01*
D02*
G37*
G36*
X31680Y-91111D02*
X30314Y-91383D01*
X29157Y-92157D01*
X28383Y-93314D01*
X28111Y-94680D01*
X28383Y-96046D01*
X29157Y-97203D01*
X30314Y-97977D01*
X31680Y-98249D01*
X33046Y-97977D01*
X34203Y-97203D01*
X34977Y-96046D01*
X35249Y-94680D01*
X34977Y-93314D01*
X34203Y-92157D01*
X33046Y-91383D01*
X31680Y-91111D01*
D02*
G37*
G36*
X-270400Y-83931D02*
X-271766Y-84203D01*
X-272924Y-84977D01*
X-273697Y-86134D01*
X-273969Y-87500D01*
X-273697Y-88865D01*
X-272924Y-90023D01*
X-271766Y-90797D01*
X-270400Y-91068D01*
X-269035Y-90797D01*
X-267877Y-90023D01*
X-267103Y-88865D01*
X-266832Y-87500D01*
X-267103Y-86134D01*
X-267877Y-84977D01*
X-269035Y-84203D01*
X-270400Y-83931D01*
D02*
G37*
G36*
X182043Y-87270D02*
X181155D01*
X181510Y-87802D01*
X182043Y-88158D01*
Y-87270D01*
D02*
G37*
G36*
X185471D02*
X184583D01*
Y-88158D01*
X185115Y-87802D01*
X185471Y-87270D01*
D02*
G37*
G36*
X-234750Y-78931D02*
X-236116Y-79203D01*
X-237273Y-79977D01*
X-238047Y-81134D01*
X-238319Y-82500D01*
X-238047Y-83865D01*
X-237273Y-85023D01*
X-236116Y-85797D01*
X-234750Y-86068D01*
X-234750Y-86068D01*
X-234750Y-86068D01*
X-234135Y-86094D01*
X-233350Y-87092D01*
X-233431Y-87500D01*
X-233296Y-88181D01*
X-234194Y-89079D01*
X-234556Y-89007D01*
X-235922Y-89278D01*
X-237080Y-90052D01*
X-237853Y-91209D01*
X-238125Y-92575D01*
X-237853Y-93941D01*
X-237080Y-95098D01*
X-235922Y-95872D01*
X-234556Y-96144D01*
X-233191Y-95872D01*
X-232033Y-95098D01*
X-231259Y-93941D01*
X-230988Y-92575D01*
X-231123Y-91894D01*
X-230225Y-90996D01*
X-229863Y-91068D01*
X-228497Y-90797D01*
X-227339Y-90023D01*
X-226566Y-88865D01*
X-226294Y-87500D01*
X-226566Y-86134D01*
X-227339Y-84977D01*
X-228497Y-84203D01*
X-229863Y-83931D01*
X-229863Y-83931D01*
X-229863Y-83931D01*
X-230477Y-83906D01*
X-231262Y-82908D01*
X-231181Y-82500D01*
X-231453Y-81134D01*
X-232227Y-79977D01*
X-233384Y-79203D01*
X-234750Y-78931D01*
D02*
G37*
G36*
X-89000Y-83431D02*
X-90366Y-83703D01*
X-91523Y-84477D01*
X-92297Y-85634D01*
X-92569Y-87000D01*
X-92297Y-88366D01*
X-91523Y-89523D01*
X-90366Y-90297D01*
X-89000Y-90569D01*
X-87634Y-90297D01*
X-86477Y-89523D01*
X-85703Y-88366D01*
X-85431Y-87000D01*
X-85703Y-85634D01*
X-86477Y-84477D01*
X-87634Y-83703D01*
X-89000Y-83431D01*
D02*
G37*
G36*
X292230Y-88770D02*
X291342D01*
X291697Y-89302D01*
X292230Y-89658D01*
Y-88770D01*
D02*
G37*
G36*
X206000Y-91431D02*
X204634Y-91703D01*
X203477Y-92477D01*
X202703Y-93634D01*
X202431Y-95000D01*
X202703Y-96366D01*
X203477Y-97523D01*
X204634Y-98297D01*
X206000Y-98569D01*
X207366Y-98297D01*
X208523Y-97523D01*
X209297Y-96366D01*
X209569Y-95000D01*
X209297Y-93634D01*
X208523Y-92477D01*
X207366Y-91703D01*
X206000Y-91431D01*
D02*
G37*
G36*
X168230Y-102842D02*
X167698Y-103198D01*
X167342Y-103730D01*
X168230D01*
Y-102842D01*
D02*
G37*
G36*
X170770D02*
Y-103730D01*
X171658D01*
X171302Y-103198D01*
X170770Y-102842D01*
D02*
G37*
G36*
X-289342Y-103770D02*
X-290230D01*
Y-104658D01*
X-289697Y-104302D01*
X-289342Y-103770D01*
D02*
G37*
G36*
X-269130Y-105342D02*
Y-106230D01*
X-268242D01*
X-268598Y-105697D01*
X-269130Y-105342D01*
D02*
G37*
G36*
X-292770Y-103770D02*
X-293658D01*
X-293302Y-104302D01*
X-292770Y-104658D01*
Y-103770D01*
D02*
G37*
G36*
X-134000Y-95431D02*
X-135366Y-95703D01*
X-136523Y-96477D01*
X-137297Y-97634D01*
X-137569Y-99000D01*
X-137297Y-100366D01*
X-136523Y-101523D01*
X-135366Y-102297D01*
X-134000Y-102569D01*
X-132634Y-102297D01*
X-131477Y-101523D01*
X-130703Y-100366D01*
X-130431Y-99000D01*
X-130703Y-97634D01*
X-131477Y-96477D01*
X-132634Y-95703D01*
X-134000Y-95431D01*
D02*
G37*
G36*
X179500Y-91931D02*
X178134Y-92203D01*
X176977Y-92977D01*
X176203Y-94134D01*
X175931Y-95500D01*
X176203Y-96866D01*
X176977Y-98023D01*
X178134Y-98797D01*
X179500Y-99069D01*
X180866Y-98797D01*
X182023Y-98023D01*
X182797Y-96866D01*
X183069Y-95500D01*
X182797Y-94134D01*
X182023Y-92977D01*
X180866Y-92203D01*
X179500Y-91931D01*
D02*
G37*
G36*
X83000Y-91431D02*
X81634Y-91703D01*
X80477Y-92477D01*
X79703Y-93634D01*
X79431Y-95000D01*
X79703Y-96366D01*
X80477Y-97523D01*
X81634Y-98297D01*
X83000Y-98569D01*
X84366Y-98297D01*
X85523Y-97523D01*
X86297Y-96366D01*
X86569Y-95000D01*
X86297Y-93634D01*
X85523Y-92477D01*
X84366Y-91703D01*
X83000Y-91431D01*
D02*
G37*
G36*
X-215000Y-93931D02*
X-216366Y-94203D01*
X-217523Y-94977D01*
X-218297Y-96134D01*
X-218569Y-97500D01*
X-218297Y-98865D01*
X-217523Y-100023D01*
X-216366Y-100797D01*
X-215000Y-101068D01*
X-213634Y-100797D01*
X-212477Y-100023D01*
X-211703Y-98865D01*
X-211431Y-97500D01*
X-211703Y-96134D01*
X-212477Y-94977D01*
X-213634Y-94203D01*
X-215000Y-93931D01*
D02*
G37*
G36*
X-292770Y-100342D02*
X-293302Y-100697D01*
X-293658Y-101230D01*
X-292770D01*
Y-100342D01*
D02*
G37*
G36*
X-290230D02*
Y-101230D01*
X-289342D01*
X-289697Y-100697D01*
X-290230Y-100342D01*
D02*
G37*
G36*
X-44842Y-126270D02*
X-45730D01*
Y-127158D01*
X-45198Y-126802D01*
X-44842Y-126270D01*
D02*
G37*
G36*
X-41270D02*
X-42158D01*
X-41802Y-126802D01*
X-41270Y-127158D01*
Y-126270D01*
D02*
G37*
G36*
X-48270D02*
X-49158D01*
X-48802Y-126802D01*
X-48270Y-127158D01*
Y-126270D01*
D02*
G37*
G36*
X201250Y-123019D02*
X199884Y-123290D01*
X198727Y-124064D01*
X197953Y-125222D01*
X197681Y-126587D01*
X197953Y-127953D01*
X198727Y-129110D01*
X199884Y-129884D01*
X201250Y-130156D01*
X202616Y-129884D01*
X203773Y-129110D01*
X204547Y-127953D01*
X204819Y-126587D01*
X204547Y-125222D01*
X203773Y-124064D01*
X202616Y-123290D01*
X201250Y-123019D01*
D02*
G37*
G36*
X259000Y-122431D02*
X257634Y-122703D01*
X256477Y-123477D01*
X255703Y-124634D01*
X255431Y-126000D01*
X255703Y-127366D01*
X256477Y-128523D01*
X257634Y-129297D01*
X259000Y-129569D01*
X260366Y-129297D01*
X261523Y-128523D01*
X262297Y-127366D01*
X262569Y-126000D01*
X262297Y-124634D01*
X261523Y-123477D01*
X260366Y-122703D01*
X259000Y-122431D01*
D02*
G37*
G36*
X-37842Y-126270D02*
X-38730D01*
Y-127158D01*
X-38198Y-126802D01*
X-37842Y-126270D01*
D02*
G37*
G36*
X-23842D02*
X-24730D01*
Y-127158D01*
X-24198Y-126802D01*
X-23842Y-126270D01*
D02*
G37*
G36*
X266730Y-123770D02*
X265842D01*
X266198Y-124302D01*
X266730Y-124658D01*
Y-123770D01*
D02*
G37*
G36*
X-27270Y-126270D02*
X-28158D01*
X-27802Y-126802D01*
X-27270Y-127158D01*
Y-126270D01*
D02*
G37*
G36*
X-34270D02*
X-35158D01*
X-34802Y-126802D01*
X-34270Y-127158D01*
Y-126270D01*
D02*
G37*
G36*
X-30842D02*
X-31730D01*
Y-127158D01*
X-31198Y-126802D01*
X-30842Y-126270D01*
D02*
G37*
G36*
X188750Y-123019D02*
X187384Y-123290D01*
X186227Y-124064D01*
X185453Y-125222D01*
X185181Y-126587D01*
X185453Y-127953D01*
X186227Y-129110D01*
X187384Y-129884D01*
X188750Y-130156D01*
X190116Y-129884D01*
X191273Y-129110D01*
X192047Y-127953D01*
X192319Y-126587D01*
X192047Y-125222D01*
X191273Y-124064D01*
X190116Y-123290D01*
X188750Y-123019D01*
D02*
G37*
G36*
X220730Y-133842D02*
X220198Y-134198D01*
X219842Y-134730D01*
X220730D01*
Y-133842D01*
D02*
G37*
G36*
X223270D02*
Y-134730D01*
X224158D01*
X223802Y-134198D01*
X223270Y-133842D01*
D02*
G37*
G36*
X-273440Y-133270D02*
X-274930D01*
Y-134760D01*
X-274037Y-134163D01*
X-273440Y-133270D01*
D02*
G37*
G36*
X-244365Y-134393D02*
X-245253D01*
Y-135281D01*
X-244721Y-134925D01*
X-244365Y-134393D01*
D02*
G37*
G36*
X-277470Y-133270D02*
X-278960D01*
X-278363Y-134163D01*
X-277470Y-134760D01*
Y-133270D01*
D02*
G37*
G36*
X-18750Y-127431D02*
X-20116Y-127703D01*
X-21273Y-128477D01*
X-22047Y-129634D01*
X-22319Y-131000D01*
X-22047Y-132366D01*
X-21273Y-133523D01*
X-20116Y-134297D01*
X-18750Y-134569D01*
X-17384Y-134297D01*
X-16227Y-133523D01*
X-15453Y-132366D01*
X-15181Y-131000D01*
X-15453Y-129634D01*
X-16227Y-128477D01*
X-17384Y-127703D01*
X-18750Y-127431D01*
D02*
G37*
G36*
X-277470Y-129241D02*
X-278363Y-129837D01*
X-278960Y-130730D01*
X-277470D01*
Y-129241D01*
D02*
G37*
G36*
X-274930D02*
Y-130730D01*
X-273440D01*
X-274037Y-129837D01*
X-274930Y-129241D01*
D02*
G37*
G36*
X-245253Y-130964D02*
Y-131853D01*
X-244365D01*
X-244721Y-131320D01*
X-245253Y-130964D01*
D02*
G37*
G36*
X-6250Y-127431D02*
X-7616Y-127703D01*
X-8773Y-128477D01*
X-9547Y-129634D01*
X-9819Y-131000D01*
X-9547Y-132366D01*
X-8773Y-133523D01*
X-7616Y-134297D01*
X-6250Y-134569D01*
X-4884Y-134297D01*
X-3727Y-133523D01*
X-2953Y-132366D01*
X-2681Y-131000D01*
X-2953Y-129634D01*
X-3727Y-128477D01*
X-4884Y-127703D01*
X-6250Y-127431D01*
D02*
G37*
G36*
X-247793Y-130964D02*
X-248326Y-131320D01*
X-248681Y-131853D01*
X-247793D01*
Y-130964D01*
D02*
G37*
G36*
X-48270Y-119270D02*
X-49158D01*
X-48802Y-119802D01*
X-48270Y-120158D01*
Y-119270D01*
D02*
G37*
G36*
X-44842D02*
X-45730D01*
Y-120158D01*
X-45198Y-119802D01*
X-44842Y-119270D01*
D02*
G37*
G36*
X-270400Y-113931D02*
X-271766Y-114203D01*
X-272924Y-114976D01*
X-273697Y-116134D01*
X-273969Y-117500D01*
X-273697Y-118865D01*
X-272924Y-120023D01*
X-271766Y-120797D01*
X-270400Y-121068D01*
X-269035Y-120797D01*
X-267877Y-120023D01*
X-267103Y-118865D01*
X-266832Y-117500D01*
X-267103Y-116134D01*
X-267877Y-114976D01*
X-269035Y-114203D01*
X-270400Y-113931D01*
D02*
G37*
G36*
X266730Y-120342D02*
X266198Y-120697D01*
X265842Y-121230D01*
X266730D01*
Y-120342D01*
D02*
G37*
G36*
X269270D02*
Y-121230D01*
X270158D01*
X269802Y-120697D01*
X269270Y-120342D01*
D02*
G37*
G36*
X-41270Y-119270D02*
X-42158D01*
X-41802Y-119802D01*
X-41270Y-120158D01*
Y-119270D01*
D02*
G37*
G36*
X-27270D02*
X-28158D01*
X-27802Y-119802D01*
X-27270Y-120158D01*
Y-119270D01*
D02*
G37*
G36*
X-23842D02*
X-24730D01*
Y-120158D01*
X-24198Y-119802D01*
X-23842Y-119270D01*
D02*
G37*
G36*
X-30842D02*
X-31730D01*
Y-120158D01*
X-31198Y-119802D01*
X-30842Y-119270D01*
D02*
G37*
G36*
X-37842D02*
X-38730D01*
Y-120158D01*
X-38198Y-119802D01*
X-37842Y-119270D01*
D02*
G37*
G36*
X-34270D02*
X-35158D01*
X-34802Y-119802D01*
X-34270Y-120158D01*
Y-119270D01*
D02*
G37*
G36*
X154620Y-114431D02*
X153254Y-114703D01*
X152097Y-115477D01*
X151323Y-116634D01*
X151051Y-118000D01*
X151323Y-119366D01*
X152097Y-120523D01*
X153254Y-121297D01*
X154620Y-121569D01*
X155986Y-121297D01*
X157143Y-120523D01*
X157917Y-119366D01*
X158189Y-118000D01*
X157917Y-116634D01*
X157143Y-115477D01*
X155986Y-114703D01*
X154620Y-114431D01*
D02*
G37*
G36*
X-41270Y-122842D02*
X-41802Y-123198D01*
X-42158Y-123730D01*
X-41270D01*
Y-122842D01*
D02*
G37*
G36*
X-38730D02*
Y-123730D01*
X-37842D01*
X-38198Y-123198D01*
X-38730Y-122842D01*
D02*
G37*
G36*
X-45730D02*
Y-123730D01*
X-44842D01*
X-45198Y-123198D01*
X-45730Y-122842D01*
D02*
G37*
G36*
X270158Y-123770D02*
X269270D01*
Y-124658D01*
X269802Y-124302D01*
X270158Y-123770D01*
D02*
G37*
G36*
X-48270Y-122842D02*
X-48802Y-123198D01*
X-49158Y-123730D01*
X-48270D01*
Y-122842D01*
D02*
G37*
G36*
X-34270D02*
X-34802Y-123198D01*
X-35158Y-123730D01*
X-34270D01*
Y-122842D01*
D02*
G37*
G36*
X223730Y-122270D02*
X222842D01*
X223198Y-122802D01*
X223730Y-123158D01*
Y-122270D01*
D02*
G37*
G36*
X227158D02*
X226270D01*
Y-123158D01*
X226802Y-122802D01*
X227158Y-122270D01*
D02*
G37*
G36*
X-24730Y-122842D02*
Y-123730D01*
X-23842D01*
X-24198Y-123198D01*
X-24730Y-122842D01*
D02*
G37*
G36*
X-31730D02*
Y-123730D01*
X-30842D01*
X-31198Y-123198D01*
X-31730Y-122842D01*
D02*
G37*
G36*
X-27270D02*
X-27802Y-123198D01*
X-28158Y-123730D01*
X-27270D01*
Y-122842D01*
D02*
G37*
G36*
X265158Y-1270D02*
X264270D01*
Y-2158D01*
X264802Y-1802D01*
X265158Y-1270D01*
D02*
G37*
G36*
X-147730Y119158D02*
Y118270D01*
X-146842D01*
X-147198Y118802D01*
X-147730Y119158D01*
D02*
G37*
G36*
X96730Y119730D02*
X95842D01*
X96198Y119198D01*
X96730Y118842D01*
Y119730D01*
D02*
G37*
G36*
X-150270Y119158D02*
X-150802Y118802D01*
X-151158Y118270D01*
X-150270D01*
Y119158D01*
D02*
G37*
G36*
X-157540D02*
X-158072Y118802D01*
X-158428Y118270D01*
X-157540D01*
Y119158D01*
D02*
G37*
G36*
X-155000D02*
Y118270D01*
X-154112D01*
X-154468Y118802D01*
X-155000Y119158D01*
D02*
G37*
G36*
X100158Y119730D02*
X99270D01*
Y118842D01*
X99802Y119198D01*
X100158Y119730D01*
D02*
G37*
G36*
X-292770Y121230D02*
X-293658D01*
X-293302Y120697D01*
X-292770Y120342D01*
Y121230D01*
D02*
G37*
G36*
X-289342D02*
X-290230D01*
Y120342D01*
X-289697Y120697D01*
X-289342Y121230D01*
D02*
G37*
G36*
X-43842Y120730D02*
X-44730D01*
Y119842D01*
X-44198Y120198D01*
X-43842Y120730D01*
D02*
G37*
G36*
X75000Y126569D02*
X73634Y126297D01*
X72477Y125523D01*
X71703Y124366D01*
X71431Y123000D01*
X71703Y121634D01*
X72477Y120477D01*
X73634Y119703D01*
X75000Y119431D01*
X76366Y119703D01*
X77523Y120477D01*
X78297Y121634D01*
X78569Y123000D01*
X78297Y124366D01*
X77523Y125523D01*
X76366Y126297D01*
X75000Y126569D01*
D02*
G37*
G36*
X-47270Y120730D02*
X-48158D01*
X-47802Y120198D01*
X-47270Y119842D01*
Y120730D01*
D02*
G37*
G36*
X-162000Y119158D02*
Y118270D01*
X-161112D01*
X-161468Y118802D01*
X-162000Y119158D01*
D02*
G37*
G36*
X-150270Y115730D02*
X-151158D01*
X-150802Y115198D01*
X-150270Y114842D01*
Y115730D01*
D02*
G37*
G36*
X-146842D02*
X-147730D01*
Y114842D01*
X-147198Y115198D01*
X-146842Y115730D01*
D02*
G37*
G36*
X-154112D02*
X-155000D01*
Y114842D01*
X-154468Y115198D01*
X-154112Y115730D01*
D02*
G37*
G36*
X-161112D02*
X-162000D01*
Y114842D01*
X-161468Y115198D01*
X-161112Y115730D01*
D02*
G37*
G36*
X-157540D02*
X-158428D01*
X-158072Y115198D01*
X-157540Y114842D01*
Y115730D01*
D02*
G37*
G36*
X180730Y117158D02*
X180198Y116802D01*
X179842Y116270D01*
X180730D01*
Y117158D01*
D02*
G37*
G36*
X-168730Y119158D02*
Y118270D01*
X-167842D01*
X-168198Y118802D01*
X-168730Y119158D01*
D02*
G37*
G36*
X-164540D02*
X-165072Y118802D01*
X-165428Y118270D01*
X-164540D01*
Y119158D01*
D02*
G37*
G36*
X-171270D02*
X-171802Y118802D01*
X-172158Y118270D01*
X-171270D01*
Y119158D01*
D02*
G37*
G36*
X183270Y117158D02*
Y116270D01*
X184158D01*
X183802Y116802D01*
X183270Y117158D01*
D02*
G37*
G36*
X125000Y123569D02*
X123634Y123297D01*
X122477Y122523D01*
X121703Y121366D01*
X121431Y120000D01*
X121703Y118634D01*
X122477Y117477D01*
X123634Y116703D01*
X125000Y116431D01*
X126366Y116703D01*
X127523Y117477D01*
X128297Y118634D01*
X128569Y120000D01*
X128297Y121366D01*
X127523Y122523D01*
X126366Y123297D01*
X125000Y123569D01*
D02*
G37*
G36*
X276200Y137098D02*
X274249Y136710D01*
X272595Y135605D01*
X271490Y133951D01*
X271102Y132000D01*
X271490Y130049D01*
X272595Y128395D01*
X274249Y127290D01*
X276200Y126902D01*
X278151Y127290D01*
X279805Y128395D01*
X280910Y130049D01*
X281298Y132000D01*
X280910Y133951D01*
X279805Y135605D01*
X278151Y136710D01*
X276200Y137098D01*
D02*
G37*
G36*
X250730Y128730D02*
X249842D01*
X250198Y128198D01*
X250730Y127842D01*
Y128730D01*
D02*
G37*
G36*
X-7842Y127730D02*
X-8730D01*
Y126842D01*
X-8198Y127198D01*
X-7842Y127730D01*
D02*
G37*
G36*
X-31842D02*
X-32730D01*
Y126842D01*
X-32198Y127198D01*
X-31842Y127730D01*
D02*
G37*
G36*
X-11270D02*
X-12158D01*
X-11802Y127198D01*
X-11270Y126842D01*
Y127730D01*
D02*
G37*
G36*
X254158Y128730D02*
X253270D01*
Y127842D01*
X253802Y128198D01*
X254158Y128730D01*
D02*
G37*
G36*
X-32730Y131158D02*
Y130270D01*
X-31842D01*
X-32198Y130802D01*
X-32730Y131158D01*
D02*
G37*
G36*
X-11270D02*
X-11802Y130802D01*
X-12158Y130270D01*
X-11270D01*
Y131158D01*
D02*
G37*
G36*
X-35270D02*
X-35802Y130802D01*
X-36158Y130270D01*
X-35270D01*
Y131158D01*
D02*
G37*
G36*
X-277470Y130730D02*
X-278960D01*
X-278363Y129837D01*
X-277470Y129241D01*
Y130730D01*
D02*
G37*
G36*
X-273440D02*
X-274930D01*
Y129241D01*
X-274037Y129837D01*
X-273440Y130730D01*
D02*
G37*
G36*
X-35270Y127730D02*
X-36158D01*
X-35802Y127198D01*
X-35270Y126842D01*
Y127730D01*
D02*
G37*
G36*
X96730Y123158D02*
X96198Y122802D01*
X95842Y122270D01*
X96730D01*
Y123158D01*
D02*
G37*
G36*
X99270D02*
Y122270D01*
X100158D01*
X99802Y122802D01*
X99270Y123158D01*
D02*
G37*
G36*
X-197000Y127569D02*
X-198366Y127297D01*
X-199523Y126523D01*
X-200297Y125366D01*
X-200569Y124000D01*
X-200297Y122634D01*
X-199523Y121477D01*
X-198366Y120703D01*
X-197000Y120431D01*
X-195634Y120703D01*
X-194477Y121477D01*
X-193703Y122634D01*
X-193431Y124000D01*
X-193703Y125366D01*
X-194477Y126523D01*
X-195634Y127297D01*
X-197000Y127569D01*
D02*
G37*
G36*
X-258270Y121230D02*
X-259158D01*
X-258802Y120697D01*
X-258270Y120342D01*
Y121230D01*
D02*
G37*
G36*
X-254842D02*
X-255730D01*
Y120342D01*
X-255197Y120697D01*
X-254842Y121230D01*
D02*
G37*
G36*
X-47270Y124158D02*
X-47802Y123802D01*
X-48158Y123270D01*
X-47270D01*
Y124158D01*
D02*
G37*
G36*
X-258270Y124658D02*
X-258802Y124302D01*
X-259158Y123770D01*
X-258270D01*
Y124658D01*
D02*
G37*
G36*
X-255730D02*
Y123770D01*
X-254842D01*
X-255197Y124302D01*
X-255730Y124658D01*
D02*
G37*
G36*
X-290230D02*
Y123770D01*
X-289342D01*
X-289697Y124302D01*
X-290230Y124658D01*
D02*
G37*
G36*
X-44730Y124158D02*
Y123270D01*
X-43842D01*
X-44198Y123802D01*
X-44730Y124158D01*
D02*
G37*
G36*
X-292770Y124658D02*
X-293302Y124302D01*
X-293658Y123770D01*
X-292770D01*
Y124658D01*
D02*
G37*
G36*
X-237170Y94658D02*
X-237703Y94302D01*
X-238058Y93770D01*
X-237170D01*
Y94658D01*
D02*
G37*
G36*
X-234630D02*
Y93770D01*
X-233742D01*
X-234098Y94302D01*
X-234630Y94658D01*
D02*
G37*
G36*
X-290230D02*
Y93770D01*
X-289342D01*
X-289697Y94302D01*
X-290230Y94658D01*
D02*
G37*
G36*
X227158Y93730D02*
X226270D01*
Y92842D01*
X226802Y93198D01*
X227158Y93730D01*
D02*
G37*
G36*
X-292770Y94658D02*
X-293302Y94302D01*
X-293658Y93770D01*
X-292770D01*
Y94658D01*
D02*
G37*
G36*
X-221945D02*
X-222478Y94302D01*
X-222834Y93770D01*
X-221945D01*
Y94658D01*
D02*
G37*
G36*
X15428Y95888D02*
X14540D01*
Y95000D01*
X15072Y95356D01*
X15428Y95888D01*
D02*
G37*
G36*
X164321Y96931D02*
X163789Y96575D01*
X163433Y96043D01*
X164321D01*
Y96931D01*
D02*
G37*
G36*
X12000Y95888D02*
X11112D01*
X11468Y95356D01*
X12000Y95000D01*
Y95888D01*
D02*
G37*
G36*
X-219405Y94658D02*
Y93770D01*
X-218517D01*
X-218873Y94302D01*
X-219405Y94658D01*
D02*
G37*
G36*
X-269250Y106068D02*
X-270616Y105797D01*
X-271773Y105023D01*
X-272547Y103865D01*
X-272819Y102500D01*
X-272547Y101134D01*
X-271773Y99976D01*
X-270616Y99203D01*
X-269250Y98931D01*
X-269250Y98931D01*
X-269250Y98931D01*
X-268635Y98906D01*
X-267850Y97907D01*
X-267931Y97500D01*
X-267660Y96134D01*
X-266886Y94976D01*
X-265728Y94203D01*
X-264363Y93931D01*
X-262997Y94203D01*
X-261839Y94976D01*
X-261066Y96134D01*
X-260794Y97500D01*
X-261066Y98865D01*
X-261839Y100023D01*
X-262997Y100797D01*
X-264363Y101068D01*
X-264363Y101068D01*
X-264363Y101068D01*
X-264977Y101094D01*
X-265763Y102092D01*
X-265681Y102500D01*
X-265953Y103865D01*
X-266727Y105023D01*
X-267884Y105797D01*
X-269250Y106068D01*
D02*
G37*
G36*
X223730Y93730D02*
X222842D01*
X223198Y93198D01*
X223730Y92842D01*
Y93730D01*
D02*
G37*
G36*
X-292770Y91230D02*
X-293658D01*
X-293302Y90697D01*
X-292770Y90342D01*
Y91230D01*
D02*
G37*
G36*
X-289342D02*
X-290230D01*
Y90342D01*
X-289697Y90697D01*
X-289342Y91230D01*
D02*
G37*
G36*
X268300Y100518D02*
X265959Y100052D01*
X263974Y98726D01*
X262648Y96741D01*
X262183Y94400D01*
X262648Y92059D01*
X263974Y90074D01*
X265959Y88748D01*
X268300Y88282D01*
X270641Y88748D01*
X272626Y90074D01*
X273952Y92059D01*
X274417Y94400D01*
X273952Y96741D01*
X272626Y98726D01*
X270641Y100052D01*
X268300Y100518D01*
D02*
G37*
G36*
X-269250Y91068D02*
X-270616Y90797D01*
X-271773Y90023D01*
X-272547Y88865D01*
X-272819Y87500D01*
X-272547Y86134D01*
X-271773Y84976D01*
X-270616Y84203D01*
X-269250Y83931D01*
X-269250Y83931D01*
X-269250Y83931D01*
X-268635Y83906D01*
X-267850Y82907D01*
X-267931Y82500D01*
X-267660Y81134D01*
X-266886Y79976D01*
X-265728Y79203D01*
X-264363Y78931D01*
X-262997Y79203D01*
X-261839Y79976D01*
X-261066Y81134D01*
X-260794Y82500D01*
X-261066Y83865D01*
X-261839Y85023D01*
X-262997Y85797D01*
X-264363Y86068D01*
X-264363Y86068D01*
X-264363Y86068D01*
X-264977Y86094D01*
X-265763Y87092D01*
X-265681Y87500D01*
X-265953Y88865D01*
X-266727Y90023D01*
X-267884Y90797D01*
X-269250Y91068D01*
D02*
G37*
G36*
X44000Y110039D02*
X43220Y109884D01*
X42558Y109442D01*
X34455Y101339D01*
X34013Y100677D01*
X33858Y99897D01*
Y97753D01*
X34013Y96973D01*
X34455Y96311D01*
X36208Y94558D01*
X36870Y94116D01*
X37650Y93961D01*
X40000D01*
X40226Y94006D01*
X52116Y82116D01*
X52116Y82116D01*
X53439Y81232D01*
X55000Y80922D01*
X182000D01*
X183561Y81232D01*
X184884Y82116D01*
X185768Y83439D01*
X186078Y85000D01*
X185768Y86561D01*
X184884Y87884D01*
X183561Y88768D01*
X182000Y89078D01*
X56689D01*
X46326Y99442D01*
X49282Y102398D01*
X49724Y103060D01*
X49879Y103840D01*
Y107000D01*
X49724Y107780D01*
X49282Y108442D01*
X48282Y109442D01*
X47620Y109884D01*
X46840Y110039D01*
X44000D01*
X44000Y110039D01*
D02*
G37*
G36*
X-237170Y91230D02*
X-238058D01*
X-237703Y90697D01*
X-237170Y90342D01*
Y91230D01*
D02*
G37*
G36*
X164321Y93503D02*
X163433D01*
X163789Y92970D01*
X164321Y92614D01*
Y93503D01*
D02*
G37*
G36*
X167750D02*
X166861D01*
Y92614D01*
X167394Y92970D01*
X167750Y93503D01*
D02*
G37*
G36*
X-218517Y91230D02*
X-219405D01*
Y90342D01*
X-218873Y90697D01*
X-218517Y91230D01*
D02*
G37*
G36*
X-233742D02*
X-234630D01*
Y90342D01*
X-234098Y90697D01*
X-233742Y91230D01*
D02*
G37*
G36*
X-221945D02*
X-222834D01*
X-222478Y90697D01*
X-221945Y90342D01*
Y91230D01*
D02*
G37*
G36*
X-255730Y109658D02*
Y108770D01*
X-254842D01*
X-255197Y109302D01*
X-255730Y109658D01*
D02*
G37*
G36*
X-269250Y121068D02*
X-270616Y120797D01*
X-271773Y120023D01*
X-272547Y118865D01*
X-272819Y117500D01*
X-272547Y116134D01*
X-271773Y114976D01*
X-270616Y114203D01*
X-269250Y113931D01*
X-269250Y113931D01*
X-269250Y113931D01*
X-268635Y113906D01*
X-267850Y112907D01*
X-267931Y112500D01*
X-267660Y111134D01*
X-266886Y109976D01*
X-265728Y109203D01*
X-264363Y108931D01*
X-262997Y109203D01*
X-261839Y109976D01*
X-261066Y111134D01*
X-260794Y112500D01*
X-261066Y113865D01*
X-261839Y115023D01*
X-262997Y115796D01*
X-264363Y116068D01*
X-264363Y116068D01*
X-264363Y116068D01*
X-264977Y116094D01*
X-265763Y117092D01*
X-265681Y117500D01*
X-265953Y118865D01*
X-266727Y120023D01*
X-267884Y120797D01*
X-269250Y121068D01*
D02*
G37*
G36*
X-258270Y109658D02*
X-258802Y109302D01*
X-259158Y108770D01*
X-258270D01*
Y109658D01*
D02*
G37*
G36*
X-292770D02*
X-293302Y109302D01*
X-293658Y108770D01*
X-292770D01*
Y109658D01*
D02*
G37*
G36*
X-290230D02*
Y108770D01*
X-289342D01*
X-289697Y109302D01*
X-290230Y109658D01*
D02*
G37*
G36*
X231000Y118569D02*
X229634Y118297D01*
X228477Y117523D01*
X227703Y116366D01*
X227431Y115000D01*
X227703Y113634D01*
X228477Y112477D01*
X229634Y111703D01*
X231000Y111431D01*
X232366Y111703D01*
X233523Y112477D01*
X234297Y113634D01*
X234569Y115000D01*
X234297Y116366D01*
X233523Y117523D01*
X232366Y118297D01*
X231000Y118569D01*
D02*
G37*
G36*
X-167842Y115730D02*
X-168730D01*
Y114842D01*
X-168198Y115198D01*
X-167842Y115730D01*
D02*
G37*
G36*
X-164540D02*
X-165428D01*
X-165072Y115198D01*
X-164540Y114842D01*
Y115730D01*
D02*
G37*
G36*
X-171270D02*
X-172158D01*
X-171802Y115198D01*
X-171270Y114842D01*
Y115730D01*
D02*
G37*
G36*
X180730Y113730D02*
X179842D01*
X180198Y113198D01*
X180730Y112842D01*
Y113730D01*
D02*
G37*
G36*
X184158D02*
X183270D01*
Y112842D01*
X183802Y113198D01*
X184158Y113730D01*
D02*
G37*
G36*
X130000Y115569D02*
X128634Y115297D01*
X127477Y114523D01*
X126703Y113366D01*
X126431Y112000D01*
X126703Y110634D01*
X127477Y109477D01*
X128634Y108703D01*
X130000Y108431D01*
X131366Y108703D01*
X132523Y109477D01*
X133297Y110634D01*
X133569Y112000D01*
X133297Y113366D01*
X132523Y114523D01*
X131366Y115297D01*
X130000Y115569D01*
D02*
G37*
G36*
X12000Y99316D02*
X11468Y98961D01*
X11112Y98428D01*
X12000D01*
Y99316D01*
D02*
G37*
G36*
X14540D02*
Y98428D01*
X15428D01*
X15072Y98961D01*
X14540Y99316D01*
D02*
G37*
G36*
X226270Y97158D02*
Y96270D01*
X227158D01*
X226802Y96802D01*
X226270Y97158D01*
D02*
G37*
G36*
X166861Y96931D02*
Y96043D01*
X167750D01*
X167394Y96575D01*
X166861Y96931D01*
D02*
G37*
G36*
X223730Y97158D02*
X223198Y96802D01*
X222842Y96270D01*
X223730D01*
Y97158D01*
D02*
G37*
G36*
X-54000Y100569D02*
X-55366Y100297D01*
X-56523Y99523D01*
X-57103Y98655D01*
X-58373D01*
X-58953Y99523D01*
X-60111Y100297D01*
X-61477Y100569D01*
X-62842Y100297D01*
X-64000Y99523D01*
X-64774Y98366D01*
X-65045Y97000D01*
X-64774Y95634D01*
X-64000Y94477D01*
X-62842Y93703D01*
X-61477Y93431D01*
X-60111Y93703D01*
X-58953Y94477D01*
X-58373Y95345D01*
X-57103D01*
X-56523Y94477D01*
X-55366Y93703D01*
X-54000Y93431D01*
X-52634Y93703D01*
X-51477Y94477D01*
X-50703Y95634D01*
X-50431Y97000D01*
X-50703Y98366D01*
X-51477Y99523D01*
X-52634Y100297D01*
X-54000Y100569D01*
D02*
G37*
G36*
X-254842Y106230D02*
X-255730D01*
Y105342D01*
X-255197Y105697D01*
X-254842Y106230D01*
D02*
G37*
G36*
X0Y113189D02*
X-1366Y112917D01*
X-2523Y112143D01*
X-3297Y110986D01*
X-3569Y109620D01*
X-3297Y108254D01*
X-2523Y107097D01*
X-1366Y106323D01*
X0Y106051D01*
X1366Y106323D01*
X2523Y107097D01*
X3297Y108254D01*
X3569Y109620D01*
X3297Y110986D01*
X2523Y112143D01*
X1366Y112917D01*
X0Y113189D01*
D02*
G37*
G36*
X-258270Y106230D02*
X-259158D01*
X-258802Y105697D01*
X-258270Y105342D01*
Y106230D01*
D02*
G37*
G36*
X-292770D02*
X-293658D01*
X-293302Y105697D01*
X-292770Y105342D01*
Y106230D01*
D02*
G37*
G36*
X-289342D02*
X-290230D01*
Y105342D01*
X-289697Y105697D01*
X-289342Y106230D01*
D02*
G37*
G36*
X274270Y182972D02*
Y164270D01*
X292972D01*
X292711Y166921D01*
X291567Y170691D01*
X289710Y174165D01*
X287211Y177211D01*
X284165Y179710D01*
X280691Y181567D01*
X276921Y182711D01*
X274270Y182972D01*
D02*
G37*
G36*
X-51000Y171569D02*
X-52366Y171297D01*
X-53523Y170523D01*
X-54297Y169366D01*
X-54569Y168000D01*
X-54297Y166634D01*
X-53523Y165477D01*
X-52366Y164703D01*
X-51000Y164431D01*
X-49634Y164703D01*
X-48477Y165477D01*
X-47703Y166634D01*
X-47431Y168000D01*
X-47703Y169366D01*
X-48477Y170523D01*
X-49634Y171297D01*
X-51000Y171569D01*
D02*
G37*
G36*
X271730Y182972D02*
X269079Y182711D01*
X265309Y181567D01*
X261835Y179710D01*
X258789Y177211D01*
X256290Y174165D01*
X254433Y170691D01*
X253289Y166921D01*
X253028Y164270D01*
X271730D01*
Y182972D01*
D02*
G37*
G36*
X-274270D02*
X-276921Y182711D01*
X-280691Y181567D01*
X-284165Y179710D01*
X-287211Y177211D01*
X-289710Y174165D01*
X-291567Y170691D01*
X-292711Y166921D01*
X-292972Y164270D01*
X-274270D01*
Y182972D01*
D02*
G37*
G36*
X-271730D02*
Y164270D01*
X-253028D01*
X-253289Y166921D01*
X-254433Y170691D01*
X-256290Y174165D01*
X-258789Y177211D01*
X-261835Y179710D01*
X-265309Y181567D01*
X-269079Y182711D01*
X-271730Y182972D01*
D02*
G37*
G36*
X-40000Y171569D02*
X-41366Y171297D01*
X-42523Y170523D01*
X-43297Y169366D01*
X-43569Y168000D01*
X-43297Y166634D01*
X-42523Y165477D01*
X-41366Y164703D01*
X-40000Y164431D01*
X-38634Y164703D01*
X-37477Y165477D01*
X-36703Y166634D01*
X-36431Y168000D01*
X-36703Y169366D01*
X-37477Y170523D01*
X-38634Y171297D01*
X-40000Y171569D01*
D02*
G37*
G36*
X23270Y166388D02*
Y165500D01*
X24158D01*
X23802Y166032D01*
X23270Y166388D01*
D02*
G37*
G36*
X97460D02*
X96928Y166032D01*
X96572Y165500D01*
X97460D01*
Y166388D01*
D02*
G37*
G36*
X20730D02*
X20198Y166032D01*
X19842Y165500D01*
X20730D01*
Y166388D01*
D02*
G37*
G36*
X-30000Y171569D02*
X-31366Y171297D01*
X-32523Y170523D01*
X-33297Y169366D01*
X-33569Y168000D01*
X-33297Y166634D01*
X-32523Y165477D01*
X-31366Y164703D01*
X-30000Y164431D01*
X-28634Y164703D01*
X-27477Y165477D01*
X-26703Y166634D01*
X-26431Y168000D01*
X-26703Y169366D01*
X-27477Y170523D01*
X-28634Y171297D01*
X-30000Y171569D01*
D02*
G37*
G36*
X-20000D02*
X-21366Y171297D01*
X-22523Y170523D01*
X-23297Y169366D01*
X-23569Y168000D01*
X-23297Y166634D01*
X-22523Y165477D01*
X-21366Y164703D01*
X-20000Y164431D01*
X-18634Y164703D01*
X-17477Y165477D01*
X-16703Y166634D01*
X-16431Y168000D01*
X-16703Y169366D01*
X-17477Y170523D01*
X-18634Y171297D01*
X-20000Y171569D01*
D02*
G37*
G36*
X237320Y168730D02*
X230970D01*
Y162380D01*
X237320D01*
Y168730D01*
D02*
G37*
G36*
X108230Y164799D02*
X106864Y164527D01*
X105707Y163753D01*
X104933Y162596D01*
X104661Y161230D01*
X104933Y159864D01*
X105707Y158707D01*
X106864Y157933D01*
X108230Y157661D01*
X109596Y157933D01*
X110753Y158707D01*
X111527Y159864D01*
X111799Y161230D01*
X111527Y162596D01*
X110753Y163753D01*
X109596Y164527D01*
X108230Y164799D01*
D02*
G37*
G36*
X31500Y165069D02*
X30134Y164797D01*
X28977Y164023D01*
X28203Y162866D01*
X27931Y161500D01*
X28203Y160134D01*
X28977Y158977D01*
X30134Y158203D01*
X31500Y157931D01*
X32866Y158203D01*
X34023Y158977D01*
X34797Y160134D01*
X35069Y161500D01*
X34797Y162866D01*
X34023Y164023D01*
X32866Y164797D01*
X31500Y165069D01*
D02*
G37*
G36*
X73270Y156158D02*
Y155270D01*
X74158D01*
X73802Y155802D01*
X73270Y156158D01*
D02*
G37*
G36*
X-2730Y154158D02*
Y153270D01*
X-1842D01*
X-2198Y153802D01*
X-2730Y154158D01*
D02*
G37*
G36*
X70730Y156158D02*
X70198Y155802D01*
X69842Y155270D01*
X70730D01*
Y156158D01*
D02*
G37*
G36*
X204300Y179703D02*
X201789Y179372D01*
X199449Y178403D01*
X197439Y176861D01*
X195897Y174851D01*
X194928Y172511D01*
X194597Y170000D01*
X194928Y167489D01*
X195897Y165149D01*
X197439Y163139D01*
X199449Y161597D01*
X201789Y160628D01*
X204300Y160297D01*
X206811Y160628D01*
X209151Y161597D01*
X211161Y163139D01*
X212703Y165149D01*
X213672Y167489D01*
X214003Y170000D01*
X213672Y172511D01*
X212703Y174851D01*
X211161Y176861D01*
X209151Y178403D01*
X206811Y179372D01*
X204300Y179703D01*
D02*
G37*
G36*
X100888Y162960D02*
X100000D01*
Y162072D01*
X100532Y162428D01*
X100888Y162960D01*
D02*
G37*
G36*
X228430Y168730D02*
X222080D01*
Y162380D01*
X228430D01*
Y168730D01*
D02*
G37*
G36*
X97460Y162960D02*
X96572D01*
X96928Y162428D01*
X97460Y162072D01*
Y162960D01*
D02*
G37*
G36*
X20730D02*
X19842D01*
X20198Y162428D01*
X20730Y162072D01*
Y162960D01*
D02*
G37*
G36*
X24158D02*
X23270D01*
Y162072D01*
X23802Y162428D01*
X24158Y162960D01*
D02*
G37*
G36*
X63730Y182158D02*
X63198Y181802D01*
X62842Y181270D01*
X63730D01*
Y182158D01*
D02*
G37*
G36*
X66270D02*
Y181270D01*
X67158D01*
X66802Y181802D01*
X66270Y182158D01*
D02*
G37*
G36*
X172158Y178730D02*
X171270D01*
Y177842D01*
X171802Y178198D01*
X172158Y178730D01*
D02*
G37*
G36*
X143158D02*
X142270D01*
Y177842D01*
X142802Y178198D01*
X143158Y178730D01*
D02*
G37*
G36*
X168730D02*
X167842D01*
X168198Y178198D01*
X168730Y177842D01*
Y178730D01*
D02*
G37*
G36*
X139730Y182158D02*
X139198Y181802D01*
X138842Y181270D01*
X139730D01*
Y182158D01*
D02*
G37*
G36*
X-214270Y182730D02*
X-215158D01*
X-214802Y182198D01*
X-214270Y181842D01*
Y182730D01*
D02*
G37*
G36*
X-210842D02*
X-211730D01*
Y181842D01*
X-211198Y182198D01*
X-210842Y182730D01*
D02*
G37*
G36*
X171270Y182158D02*
Y181270D01*
X172158D01*
X171802Y181802D01*
X171270Y182158D01*
D02*
G37*
G36*
X142270D02*
Y181270D01*
X143158D01*
X142802Y181802D01*
X142270Y182158D01*
D02*
G37*
G36*
X168730D02*
X168198Y181802D01*
X167842Y181270D01*
X168730D01*
Y182158D01*
D02*
G37*
G36*
X139730Y178730D02*
X138842D01*
X139198Y178198D01*
X139730Y177842D01*
Y178730D01*
D02*
G37*
G36*
X-51000Y180569D02*
X-52366Y180297D01*
X-53523Y179523D01*
X-54297Y178366D01*
X-54569Y177000D01*
X-54297Y175634D01*
X-53523Y174477D01*
X-52366Y173703D01*
X-51000Y173431D01*
X-49634Y173703D01*
X-48477Y174477D01*
X-47703Y175634D01*
X-47431Y177000D01*
X-47703Y178366D01*
X-48477Y179523D01*
X-49634Y180297D01*
X-51000Y180569D01*
D02*
G37*
G36*
X-40000D02*
X-41366Y180297D01*
X-42523Y179523D01*
X-43297Y178366D01*
X-43569Y177000D01*
X-43297Y175634D01*
X-42523Y174477D01*
X-41366Y173703D01*
X-40000Y173431D01*
X-38634Y173703D01*
X-37477Y174477D01*
X-36703Y175634D01*
X-36431Y177000D01*
X-36703Y178366D01*
X-37477Y179523D01*
X-38634Y180297D01*
X-40000Y180569D01*
D02*
G37*
G36*
X237320Y177620D02*
X230970D01*
Y171270D01*
X237320D01*
Y177620D01*
D02*
G37*
G36*
X100000Y166388D02*
Y165500D01*
X100888D01*
X100532Y166032D01*
X100000Y166388D01*
D02*
G37*
G36*
X228430Y177620D02*
X222080D01*
Y171270D01*
X228430D01*
Y177620D01*
D02*
G37*
G36*
X-30000Y180569D02*
X-31366Y180297D01*
X-32523Y179523D01*
X-33297Y178366D01*
X-33569Y177000D01*
X-33297Y175634D01*
X-32523Y174477D01*
X-31366Y173703D01*
X-30000Y173431D01*
X-28634Y173703D01*
X-27477Y174477D01*
X-26703Y175634D01*
X-26431Y177000D01*
X-26703Y178366D01*
X-27477Y179523D01*
X-28634Y180297D01*
X-30000Y180569D01*
D02*
G37*
G36*
X63730Y178730D02*
X62842D01*
X63198Y178198D01*
X63730Y177842D01*
Y178730D01*
D02*
G37*
G36*
X67158D02*
X66270D01*
Y177842D01*
X66802Y178198D01*
X67158Y178730D01*
D02*
G37*
G36*
X5000Y182069D02*
X3634Y181797D01*
X2477Y181023D01*
X1703Y179866D01*
X1431Y178500D01*
X1703Y177134D01*
X2477Y175977D01*
X3634Y175203D01*
X5000Y174931D01*
X6366Y175203D01*
X7523Y175977D01*
X8297Y177134D01*
X8569Y178500D01*
X8297Y179866D01*
X7523Y181023D01*
X6366Y181797D01*
X5000Y182069D01*
D02*
G37*
G36*
X-20000Y180569D02*
X-21366Y180297D01*
X-22523Y179523D01*
X-23297Y178366D01*
X-23569Y177000D01*
X-23297Y175634D01*
X-22523Y174477D01*
X-21366Y173703D01*
X-20000Y173431D01*
X-18634Y173703D01*
X-17477Y174477D01*
X-16703Y175634D01*
X-16431Y177000D01*
X-16703Y178366D01*
X-17477Y179523D01*
X-18634Y180297D01*
X-20000Y180569D01*
D02*
G37*
G36*
X81730Y181799D02*
X80364Y181527D01*
X79207Y180753D01*
X78433Y179596D01*
X78161Y178230D01*
X78433Y176864D01*
X79207Y175707D01*
X80364Y174933D01*
X81730Y174661D01*
X83096Y174933D01*
X84253Y175707D01*
X85027Y176864D01*
X85299Y178230D01*
X85027Y179596D01*
X84253Y180753D01*
X83096Y181527D01*
X81730Y181799D01*
D02*
G37*
G36*
X165000Y144069D02*
X163634Y143797D01*
X162477Y143023D01*
X161703Y141866D01*
X161431Y140500D01*
X161703Y139134D01*
X162477Y137977D01*
X163634Y137203D01*
X165000Y136931D01*
X166366Y137203D01*
X167523Y137977D01*
X168297Y139134D01*
X168569Y140500D01*
X168297Y141866D01*
X167523Y143023D01*
X166366Y143797D01*
X165000Y144069D01*
D02*
G37*
G36*
X-269270Y138728D02*
X-270158D01*
X-269802Y138196D01*
X-269270Y137840D01*
Y138728D01*
D02*
G37*
G36*
X65000Y137460D02*
X64112D01*
Y136572D01*
X64644Y136928D01*
X65000Y137460D01*
D02*
G37*
G36*
X230888Y136572D02*
X230000D01*
Y135684D01*
X230532Y136039D01*
X230888Y136572D01*
D02*
G37*
G36*
X61572Y137460D02*
X60684D01*
X61040Y136928D01*
X61572Y136572D01*
Y137460D01*
D02*
G37*
G36*
X-265842Y138728D02*
X-266730D01*
Y137840D01*
X-266198Y138196D01*
X-265842Y138728D01*
D02*
G37*
G36*
X230000Y140000D02*
Y139112D01*
X230888D01*
X230532Y139644D01*
X230000Y140000D01*
D02*
G37*
G36*
X-204270Y140730D02*
X-205158D01*
X-204802Y140198D01*
X-204270Y139842D01*
Y140730D01*
D02*
G37*
G36*
X227460Y140000D02*
X226928Y139644D01*
X226572Y139112D01*
X227460D01*
Y140000D01*
D02*
G37*
G36*
X-11270Y139270D02*
X-11802Y138914D01*
X-12158Y138382D01*
X-11270D01*
Y139270D01*
D02*
G37*
G36*
X-8730D02*
Y138382D01*
X-7842D01*
X-8198Y138914D01*
X-8730Y139270D01*
D02*
G37*
G36*
X227460Y136572D02*
X226572D01*
X226928Y136039D01*
X227460Y135684D01*
Y136572D01*
D02*
G37*
G36*
X250730Y132158D02*
X250198Y131802D01*
X249842Y131270D01*
X250730D01*
Y132158D01*
D02*
G37*
G36*
X253270D02*
Y131270D01*
X254158D01*
X253802Y131802D01*
X253270Y132158D01*
D02*
G37*
G36*
X-54842Y131730D02*
X-55730D01*
Y130842D01*
X-55198Y131198D01*
X-54842Y131730D01*
D02*
G37*
G36*
X-8730Y131158D02*
Y130270D01*
X-7842D01*
X-8198Y130802D01*
X-8730Y131158D01*
D02*
G37*
G36*
X-58270Y131730D02*
X-59158D01*
X-58802Y131198D01*
X-58270Y130842D01*
Y131730D01*
D02*
G37*
G36*
X-277470Y134760D02*
X-278363Y134163D01*
X-278960Y133270D01*
X-277470D01*
Y134760D01*
D02*
G37*
G36*
X-11270Y135842D02*
X-12158D01*
X-11802Y135309D01*
X-11270Y134954D01*
Y135842D01*
D02*
G37*
G36*
X-7842D02*
X-8730D01*
Y134954D01*
X-8198Y135309D01*
X-7842Y135842D01*
D02*
G37*
G36*
X-55730Y135158D02*
Y134270D01*
X-54842D01*
X-55198Y134802D01*
X-55730Y135158D01*
D02*
G37*
G36*
X-274930Y134760D02*
Y133270D01*
X-273440D01*
X-274037Y134163D01*
X-274930Y134760D01*
D02*
G37*
G36*
X-58270Y135158D02*
X-58802Y134802D01*
X-59158Y134270D01*
X-58270D01*
Y135158D01*
D02*
G37*
G36*
X-5270Y150730D02*
X-6158D01*
X-5802Y150198D01*
X-5270Y149842D01*
Y150730D01*
D02*
G37*
G36*
X-1842D02*
X-2730D01*
Y149842D01*
X-2198Y150198D01*
X-1842Y150730D01*
D02*
G37*
G36*
X214158Y147730D02*
X213270D01*
Y146842D01*
X213802Y147198D01*
X214158Y147730D01*
D02*
G37*
G36*
X55656Y150724D02*
X54290Y150453D01*
X53133Y149679D01*
X52359Y148521D01*
X52087Y147156D01*
X52359Y145790D01*
X53133Y144633D01*
X54290Y143859D01*
X55656Y143587D01*
X57021Y143859D01*
X58179Y144633D01*
X58953Y145790D01*
X59224Y147156D01*
X58953Y148521D01*
X58179Y149679D01*
X57021Y150453D01*
X55656Y150724D01*
D02*
G37*
G36*
X210730Y147730D02*
X209842D01*
X210198Y147198D01*
X210730Y146842D01*
Y147730D01*
D02*
G37*
G36*
Y151158D02*
X210198Y150802D01*
X209842Y150270D01*
X210730D01*
Y151158D01*
D02*
G37*
G36*
X154000Y159569D02*
X152634Y159297D01*
X151477Y158523D01*
X150703Y157366D01*
X150431Y156000D01*
X150703Y154634D01*
X151477Y153477D01*
X152634Y152703D01*
X154000Y152431D01*
X155366Y152703D01*
X156523Y153477D01*
X157297Y154634D01*
X157569Y156000D01*
X157297Y157366D01*
X156523Y158523D01*
X155366Y159297D01*
X154000Y159569D01*
D02*
G37*
G36*
X-5270Y154158D02*
X-5802Y153802D01*
X-6158Y153270D01*
X-5270D01*
Y154158D01*
D02*
G37*
G36*
X74158Y152730D02*
X73270D01*
Y151842D01*
X73802Y152198D01*
X74158Y152730D01*
D02*
G37*
G36*
X213270Y151158D02*
Y150270D01*
X214158D01*
X213802Y150802D01*
X213270Y151158D01*
D02*
G37*
G36*
X70730Y152730D02*
X69842D01*
X70198Y152198D01*
X70730Y151842D01*
Y152730D01*
D02*
G37*
G36*
X-201730Y144158D02*
Y143270D01*
X-200842D01*
X-201198Y143802D01*
X-201730Y144158D01*
D02*
G37*
G36*
X-253028Y161730D02*
X-271730D01*
Y143028D01*
X-269915Y143207D01*
X-269487Y142011D01*
X-269802Y141801D01*
X-270158Y141268D01*
X-265842D01*
X-266198Y141801D01*
X-267025Y142353D01*
X-267566Y142461D01*
X-267628Y143729D01*
X-265309Y144433D01*
X-261835Y146290D01*
X-258789Y148789D01*
X-256290Y151835D01*
X-254433Y155309D01*
X-253289Y159079D01*
X-253028Y161730D01*
D02*
G37*
G36*
X132000Y148569D02*
X130634Y148297D01*
X129477Y147523D01*
X128703Y146366D01*
X128431Y145000D01*
X128703Y143634D01*
X129477Y142477D01*
X130634Y141703D01*
X132000Y141431D01*
X133366Y141703D01*
X134523Y142477D01*
X135297Y143634D01*
X135569Y145000D01*
X135297Y146366D01*
X134523Y147523D01*
X133366Y148297D01*
X132000Y148569D01*
D02*
G37*
G36*
X64112Y140888D02*
Y140000D01*
X65000D01*
X64644Y140532D01*
X64112Y140888D01*
D02*
G37*
G36*
X-200842Y140730D02*
X-201730D01*
Y139842D01*
X-201198Y140198D01*
X-200842Y140730D01*
D02*
G37*
G36*
X61572Y140888D02*
X61040Y140532D01*
X60684Y140000D01*
X61572D01*
Y140888D01*
D02*
G37*
G36*
X-66676Y156268D02*
X-68503Y156027D01*
X-70206Y155322D01*
X-71669Y154200D01*
X-72791Y152738D01*
X-73496Y151035D01*
X-73737Y149208D01*
X-73496Y147380D01*
X-72791Y145677D01*
X-71669Y144215D01*
X-70206Y143093D01*
X-68503Y142388D01*
X-66676Y142147D01*
X-64849Y142388D01*
X-63146Y143093D01*
X-61684Y144215D01*
X-60562Y145677D01*
X-59856Y147380D01*
X-59616Y149208D01*
X-59856Y151035D01*
X-60562Y152738D01*
X-61684Y154200D01*
X-63146Y155322D01*
X-64849Y156027D01*
X-66676Y156268D01*
D02*
G37*
G36*
X292972Y161730D02*
X274270D01*
Y143028D01*
X276921Y143289D01*
X280691Y144433D01*
X284165Y146290D01*
X287211Y148789D01*
X289710Y151835D01*
X291567Y155309D01*
X292711Y159079D01*
X292972Y161730D01*
D02*
G37*
G36*
X-204270Y144158D02*
X-204802Y143802D01*
X-205158Y143270D01*
X-204270D01*
Y144158D01*
D02*
G37*
G36*
X271730Y161730D02*
X253028D01*
X253289Y159079D01*
X254433Y155309D01*
X256290Y151835D01*
X258789Y148789D01*
X261835Y146290D01*
X265309Y144433D01*
X269079Y143289D01*
X271730Y143028D01*
Y161730D01*
D02*
G37*
G36*
X-146563Y156305D02*
X-148390Y156064D01*
X-150093Y155359D01*
X-151555Y154237D01*
X-152677Y152775D01*
X-153383Y151072D01*
X-153623Y149244D01*
X-153383Y147417D01*
X-152677Y145714D01*
X-151555Y144252D01*
X-150093Y143130D01*
X-148390Y142425D01*
X-146563Y142184D01*
X-144735Y142425D01*
X-143033Y143130D01*
X-141570Y144252D01*
X-140448Y145714D01*
X-139743Y147417D01*
X-139502Y149244D01*
X-139743Y151072D01*
X-140448Y152775D01*
X-141570Y154237D01*
X-143033Y155359D01*
X-144735Y156064D01*
X-146563Y156305D01*
D02*
G37*
G36*
X-274270Y161730D02*
X-292972D01*
X-292711Y159079D01*
X-291567Y155309D01*
X-289710Y151835D01*
X-287211Y148789D01*
X-284165Y146290D01*
X-280691Y144433D01*
X-276921Y143289D01*
X-274270Y143028D01*
Y161730D01*
D02*
G37*
G36*
X211730Y26730D02*
X210842D01*
X211198Y26198D01*
X211730Y25842D01*
Y26730D01*
D02*
G37*
G36*
X215158D02*
X214270D01*
Y25842D01*
X214802Y26198D01*
X215158Y26730D01*
D02*
G37*
G36*
X190158D02*
X189270D01*
Y25842D01*
X189802Y26198D01*
X190158Y26730D01*
D02*
G37*
G36*
X-263730Y26158D02*
Y25270D01*
X-262842D01*
X-263198Y25802D01*
X-263730Y26158D01*
D02*
G37*
G36*
X186730Y26730D02*
X185842D01*
X186198Y26198D01*
X186730Y25842D01*
Y26730D01*
D02*
G37*
G36*
X-184000Y33273D02*
X-185366Y33001D01*
X-186523Y32228D01*
X-187297Y31070D01*
X-187569Y29704D01*
X-187297Y28339D01*
X-186523Y27181D01*
X-185366Y26407D01*
X-184000Y26136D01*
X-182634Y26407D01*
X-181477Y27181D01*
X-180703Y28339D01*
X-180431Y29704D01*
X-180703Y31070D01*
X-181477Y32228D01*
X-182634Y33001D01*
X-184000Y33273D01*
D02*
G37*
G36*
X-234158Y28682D02*
X-234690Y28327D01*
X-235046Y27794D01*
X-234158D01*
Y28682D01*
D02*
G37*
G36*
X-231618D02*
Y27794D01*
X-230730D01*
X-231085Y28327D01*
X-231618Y28682D01*
D02*
G37*
G36*
X-91730Y28158D02*
Y27270D01*
X-90842D01*
X-91198Y27802D01*
X-91730Y28158D01*
D02*
G37*
G36*
X115000Y33569D02*
X113634Y33297D01*
X112477Y32523D01*
X111703Y31366D01*
X111431Y30000D01*
X111703Y28634D01*
X112477Y27477D01*
X113634Y26703D01*
X115000Y26431D01*
X116366Y26703D01*
X117523Y27477D01*
X118297Y28634D01*
X118569Y30000D01*
X118297Y31366D01*
X117523Y32523D01*
X116366Y33297D01*
X115000Y33569D01*
D02*
G37*
G36*
X-94270Y28158D02*
X-94802Y27802D01*
X-95158Y27270D01*
X-94270D01*
Y28158D01*
D02*
G37*
G36*
X-266270Y26158D02*
X-266802Y25802D01*
X-267158Y25270D01*
X-266270D01*
Y26158D01*
D02*
G37*
G36*
Y22730D02*
X-267158D01*
X-266802Y22198D01*
X-266270Y21842D01*
Y22730D01*
D02*
G37*
G36*
X-262842D02*
X-263730D01*
Y21842D01*
X-263198Y22198D01*
X-262842Y22730D01*
D02*
G37*
G36*
X26500Y27773D02*
X25134Y27501D01*
X23977Y26728D01*
X23203Y25570D01*
X22931Y24204D01*
X23203Y22839D01*
X23977Y21681D01*
X25134Y20907D01*
X26500Y20636D01*
X27866Y20907D01*
X29023Y21681D01*
X29797Y22839D01*
X30069Y24204D01*
X29797Y25570D01*
X29023Y26728D01*
X27866Y27501D01*
X26500Y27773D01*
D02*
G37*
G36*
X-126270Y16158D02*
X-126802Y15802D01*
X-127158Y15270D01*
X-126270D01*
Y16158D01*
D02*
G37*
G36*
X-123730D02*
Y15270D01*
X-122842D01*
X-123198Y15802D01*
X-123730Y16158D01*
D02*
G37*
G36*
X-26500Y29069D02*
X-27866Y28797D01*
X-29023Y28023D01*
X-29797Y26866D01*
X-30069Y25500D01*
X-29797Y24134D01*
X-29023Y22977D01*
X-27866Y22203D01*
X-26500Y21932D01*
X-25134Y22203D01*
X-23977Y22977D01*
X-23203Y24134D01*
X-22931Y25500D01*
X-23203Y26866D01*
X-23977Y28023D01*
X-25134Y28797D01*
X-26500Y29069D01*
D02*
G37*
G36*
X-230730Y25254D02*
X-231618D01*
Y24366D01*
X-231085Y24722D01*
X-230730Y25254D01*
D02*
G37*
G36*
X231200Y26369D02*
X229834Y26097D01*
X228677Y25323D01*
X228412Y24927D01*
X227142D01*
X226877Y25323D01*
X225719Y26097D01*
X224354Y26369D01*
X222988Y26097D01*
X221830Y25323D01*
X221057Y24166D01*
X220785Y22800D01*
X221057Y21434D01*
X221830Y20277D01*
X222717Y19684D01*
Y18414D01*
X221830Y17822D01*
X221057Y16664D01*
X220785Y15298D01*
X221057Y13933D01*
X221830Y12775D01*
X222988Y12002D01*
X224354Y11730D01*
X225719Y12002D01*
X226877Y12775D01*
X227142Y13171D01*
X228412D01*
X228677Y12775D01*
X229834Y12002D01*
X231200Y11730D01*
X232566Y12002D01*
X233723Y12775D01*
X234497Y13933D01*
X234769Y15298D01*
X234497Y16664D01*
X233723Y17822D01*
X232837Y18414D01*
Y19684D01*
X233723Y20277D01*
X234497Y21434D01*
X234769Y22800D01*
X234497Y24166D01*
X233723Y25323D01*
X232566Y26097D01*
X231200Y26369D01*
D02*
G37*
G36*
X-234158Y25254D02*
X-235046D01*
X-234690Y24722D01*
X-234158Y24366D01*
Y25254D01*
D02*
G37*
G36*
X-94270Y24730D02*
X-95158D01*
X-94802Y24198D01*
X-94270Y23842D01*
Y24730D01*
D02*
G37*
G36*
X-90842D02*
X-91730D01*
Y23842D01*
X-91198Y24198D01*
X-90842Y24730D01*
D02*
G37*
G36*
X-28270Y35158D02*
X-28802Y34802D01*
X-29158Y34270D01*
X-28270D01*
Y35158D01*
D02*
G37*
G36*
X-25730D02*
Y34270D01*
X-24842D01*
X-25198Y34802D01*
X-25730Y35158D01*
D02*
G37*
G36*
X-269250Y46069D02*
X-270616Y45797D01*
X-271773Y45023D01*
X-272547Y43865D01*
X-272819Y42500D01*
X-272547Y41134D01*
X-271773Y39976D01*
X-270616Y39203D01*
X-269250Y38931D01*
X-269250Y38931D01*
X-269250Y38931D01*
X-268635Y38906D01*
X-267850Y37908D01*
X-267931Y37500D01*
X-267660Y36134D01*
X-266886Y34976D01*
X-265728Y34203D01*
X-264363Y33931D01*
X-262997Y34203D01*
X-261839Y34976D01*
X-261066Y36134D01*
X-260794Y37500D01*
X-261066Y38865D01*
X-261839Y40023D01*
X-262997Y40797D01*
X-264363Y41069D01*
X-264363Y41069D01*
X-264363Y41069D01*
X-264977Y41094D01*
X-265763Y42092D01*
X-265681Y42500D01*
X-265953Y43865D01*
X-266727Y45023D01*
X-267884Y45797D01*
X-269250Y46069D01*
D02*
G37*
G36*
X-292770Y34658D02*
X-293302Y34302D01*
X-293658Y33770D01*
X-292770D01*
Y34658D01*
D02*
G37*
G36*
X-290230D02*
Y33770D01*
X-289342D01*
X-289697Y34302D01*
X-290230Y34658D01*
D02*
G37*
G36*
X201730Y37730D02*
X200842D01*
X201198Y37198D01*
X201730Y36842D01*
Y37730D01*
D02*
G37*
G36*
X-11206Y45361D02*
X-12572Y45090D01*
X-13729Y44316D01*
X-14503Y43158D01*
X-14774Y41793D01*
X-14503Y40427D01*
X-13729Y39269D01*
X-12572Y38496D01*
X-11206Y38224D01*
X-9840Y38496D01*
X-8683Y39269D01*
X-7909Y40427D01*
X-7637Y41793D01*
X-7909Y43158D01*
X-8683Y44316D01*
X-9840Y45090D01*
X-11206Y45361D01*
D02*
G37*
G36*
X228730Y39730D02*
X227842D01*
X228198Y39198D01*
X228730Y38842D01*
Y39730D01*
D02*
G37*
G36*
X237540Y38000D02*
Y37112D01*
X238428D01*
X238072Y37644D01*
X237540Y38000D01*
D02*
G37*
G36*
X205158Y37730D02*
X204270D01*
Y36842D01*
X204802Y37198D01*
X205158Y37730D01*
D02*
G37*
G36*
X235000Y38000D02*
X234468Y37644D01*
X234112Y37112D01*
X235000D01*
Y38000D01*
D02*
G37*
G36*
X238428Y34572D02*
X237540D01*
Y33684D01*
X238072Y34039D01*
X238428Y34572D01*
D02*
G37*
G36*
X214270Y30158D02*
Y29270D01*
X215158D01*
X214802Y29802D01*
X214270Y30158D01*
D02*
G37*
G36*
X-6000Y36871D02*
X-7366Y36599D01*
X-8523Y35825D01*
X-9297Y34668D01*
X-9569Y33302D01*
X-9297Y31936D01*
X-8523Y30779D01*
X-7366Y30005D01*
X-6000Y29734D01*
X-4634Y30005D01*
X-3477Y30779D01*
X-2703Y31936D01*
X-2431Y33302D01*
X-2703Y34668D01*
X-3477Y35825D01*
X-4634Y36599D01*
X-6000Y36871D01*
D02*
G37*
G36*
X211730Y30158D02*
X211198Y29802D01*
X210842Y29270D01*
X211730D01*
Y30158D01*
D02*
G37*
G36*
X186730D02*
X186198Y29802D01*
X185842Y29270D01*
X186730D01*
Y30158D01*
D02*
G37*
G36*
X189270D02*
Y29270D01*
X190158D01*
X189802Y29802D01*
X189270Y30158D01*
D02*
G37*
G36*
X6000Y37146D02*
X4634Y36874D01*
X3477Y36100D01*
X2703Y34943D01*
X2431Y33577D01*
X2703Y32211D01*
X3477Y31054D01*
X4634Y30280D01*
X6000Y30008D01*
X7366Y30280D01*
X8523Y31054D01*
X9297Y32211D01*
X9568Y33577D01*
X9297Y34943D01*
X8523Y36100D01*
X7366Y36874D01*
X6000Y37146D01*
D02*
G37*
G36*
X-24842Y31730D02*
X-25730D01*
Y30842D01*
X-25198Y31198D01*
X-24842Y31730D01*
D02*
G37*
G36*
X235000Y34572D02*
X234112D01*
X234468Y34039D01*
X235000Y33684D01*
Y34572D01*
D02*
G37*
G36*
X-28270Y31730D02*
X-29158D01*
X-28802Y31198D01*
X-28270Y30842D01*
Y31730D01*
D02*
G37*
G36*
X-292770Y31230D02*
X-293658D01*
X-293302Y30698D01*
X-292770Y30342D01*
Y31230D01*
D02*
G37*
G36*
X-289342D02*
X-290230D01*
Y30342D01*
X-289697Y30698D01*
X-289342Y31230D01*
D02*
G37*
G36*
X3965Y2241D02*
Y1353D01*
X4853D01*
X4497Y1886D01*
X3965Y2241D01*
D02*
G37*
G36*
X213000Y8569D02*
X211634Y8297D01*
X210477Y7523D01*
X209703Y6366D01*
X209431Y5000D01*
X209703Y3634D01*
X210477Y2477D01*
X211634Y1703D01*
X213000Y1431D01*
X214366Y1703D01*
X215523Y2477D01*
X216297Y3634D01*
X216569Y5000D01*
X216297Y6366D01*
X215523Y7523D01*
X214366Y8297D01*
X213000Y8569D01*
D02*
G37*
G36*
X1425Y2241D02*
X892Y1886D01*
X537Y1353D01*
X1425D01*
Y2241D01*
D02*
G37*
G36*
X261730Y2158D02*
X261198Y1802D01*
X260842Y1270D01*
X261730D01*
Y2158D01*
D02*
G37*
G36*
X264270D02*
Y1270D01*
X265158D01*
X264802Y1802D01*
X264270Y2158D01*
D02*
G37*
G36*
X255730Y3000D02*
X254842D01*
X255198Y2468D01*
X255730Y2112D01*
Y3000D01*
D02*
G37*
G36*
X-11842Y4730D02*
X-12730D01*
Y3842D01*
X-12198Y4198D01*
X-11842Y4730D01*
D02*
G37*
G36*
X292000Y11069D02*
X290634Y10797D01*
X289477Y10023D01*
X288703Y8866D01*
X288431Y7500D01*
X288703Y6134D01*
X289477Y4977D01*
X290634Y4203D01*
X292000Y3931D01*
X293366Y4203D01*
X294523Y4977D01*
X295297Y6134D01*
X295569Y7500D01*
X295297Y8866D01*
X294523Y10023D01*
X293366Y10797D01*
X292000Y11069D01*
D02*
G37*
G36*
X-15270Y4730D02*
X-16158D01*
X-15802Y4198D01*
X-15270Y3842D01*
Y4730D01*
D02*
G37*
G36*
X259158Y3000D02*
X258270D01*
Y2112D01*
X258802Y2468D01*
X259158Y3000D01*
D02*
G37*
G36*
X14030Y15497D02*
X12664Y15225D01*
X11506Y14452D01*
X10733Y13294D01*
X10461Y11928D01*
X10733Y10563D01*
X11506Y9405D01*
X12664Y8631D01*
X14030Y8360D01*
X15003Y8553D01*
X15709Y7497D01*
X15621Y7366D01*
X15349Y6000D01*
X15621Y4634D01*
X16394Y3477D01*
X17552Y2703D01*
X18917Y2431D01*
X20283Y2703D01*
X21441Y3477D01*
X22215Y4634D01*
X22486Y6000D01*
X22215Y7366D01*
X21441Y8523D01*
X20283Y9297D01*
X18917Y9569D01*
X17944Y9375D01*
X17239Y10431D01*
X17327Y10563D01*
X17598Y11928D01*
X17327Y13294D01*
X16553Y14452D01*
X15395Y15225D01*
X14030Y15497D01*
D02*
G37*
G36*
X-159842Y1730D02*
X-160730D01*
Y842D01*
X-160198Y1198D01*
X-159842Y1730D01*
D02*
G37*
G36*
X-49201Y-371D02*
Y-1259D01*
X-48313D01*
X-48668Y-727D01*
X-49201Y-371D01*
D02*
G37*
G36*
X-147270Y1158D02*
X-147802Y802D01*
X-148158Y270D01*
X-147270D01*
Y1158D01*
D02*
G37*
G36*
X-51741Y-371D02*
X-52273Y-727D01*
X-52629Y-1259D01*
X-51741D01*
Y-371D01*
D02*
G37*
G36*
X1425Y-1187D02*
X537D01*
X892Y-1719D01*
X1425Y-2075D01*
Y-1187D01*
D02*
G37*
G36*
X4853D02*
X3965D01*
Y-2075D01*
X4497Y-1719D01*
X4853Y-1187D01*
D02*
G37*
G36*
X-144730Y1158D02*
Y270D01*
X-143842D01*
X-144198Y802D01*
X-144730Y1158D01*
D02*
G37*
G36*
X101270Y16962D02*
Y270D01*
X117962D01*
X117739Y2529D01*
X116710Y5922D01*
X115039Y9049D01*
X112789Y11789D01*
X110049Y14039D01*
X106922Y15710D01*
X103529Y16739D01*
X101270Y16962D01*
D02*
G37*
G36*
X-163270Y1730D02*
X-164158D01*
X-163802Y1198D01*
X-163270Y842D01*
Y1730D01*
D02*
G37*
G36*
X98730Y16962D02*
X96471Y16739D01*
X93078Y15710D01*
X89951Y14039D01*
X87211Y11789D01*
X84961Y9049D01*
X83290Y5922D01*
X82261Y2529D01*
X82038Y270D01*
X98730D01*
Y16962D01*
D02*
G37*
G36*
X-101270D02*
X-103529Y16739D01*
X-106922Y15710D01*
X-110049Y14039D01*
X-112789Y11789D01*
X-115039Y9049D01*
X-116710Y5922D01*
X-117739Y2529D01*
X-117962Y270D01*
X-101270D01*
Y16962D01*
D02*
G37*
G36*
X-98730D02*
Y270D01*
X-82038D01*
X-82261Y2529D01*
X-83290Y5922D01*
X-84961Y9049D01*
X-87211Y11789D01*
X-89951Y14039D01*
X-93078Y15710D01*
X-96471Y16739D01*
X-98730Y16962D01*
D02*
G37*
G36*
X-289342Y11230D02*
X-290230D01*
Y10342D01*
X-289697Y10698D01*
X-289342Y11230D01*
D02*
G37*
G36*
X56607Y11281D02*
X56075Y10925D01*
X55719Y10393D01*
X56607D01*
Y11281D01*
D02*
G37*
G36*
X-292770Y11230D02*
X-293658D01*
X-293302Y10698D01*
X-292770Y10342D01*
Y11230D01*
D02*
G37*
G36*
X155Y11004D02*
X-377Y10648D01*
X-733Y10116D01*
X155D01*
Y11004D01*
D02*
G37*
G36*
X2695D02*
Y10116D01*
X3583D01*
X3227Y10648D01*
X2695Y11004D01*
D02*
G37*
G36*
X59147Y11281D02*
Y10393D01*
X60035D01*
X59679Y10925D01*
X59147Y11281D01*
D02*
G37*
G36*
X-290230Y14658D02*
Y13770D01*
X-289342D01*
X-289697Y14302D01*
X-290230Y14658D01*
D02*
G37*
G36*
X-12064Y22092D02*
X-13429Y21820D01*
X-14587Y21046D01*
X-15360Y19889D01*
X-15632Y18523D01*
X-15360Y17157D01*
X-14587Y16000D01*
X-13429Y15226D01*
X-12064Y14954D01*
X-10698Y15226D01*
X-9540Y16000D01*
X-8767Y17157D01*
X-8495Y18523D01*
X-8767Y19889D01*
X-9540Y21046D01*
X-10698Y21820D01*
X-12064Y22092D01*
D02*
G37*
G36*
X-292770Y14658D02*
X-293302Y14302D01*
X-293658Y13770D01*
X-292770D01*
Y14658D01*
D02*
G37*
G36*
X-126270Y12730D02*
X-127158D01*
X-126802Y12198D01*
X-126270Y11842D01*
Y12730D01*
D02*
G37*
G36*
X-122842D02*
X-123730D01*
Y11842D01*
X-123198Y12198D01*
X-122842Y12730D01*
D02*
G37*
G36*
X-229000Y42569D02*
X-230366Y42297D01*
X-231523Y41523D01*
X-232297Y40366D01*
X-232569Y39000D01*
X-232297Y37634D01*
X-231523Y36477D01*
X-230366Y35703D01*
X-229000Y35431D01*
X-228358Y35559D01*
X-227653Y34503D01*
X-227745Y34366D01*
X-228016Y33000D01*
X-227745Y31634D01*
X-226971Y30477D01*
X-225813Y29703D01*
X-224448Y29431D01*
X-223855Y29549D01*
X-223149Y28493D01*
X-223235Y28366D01*
X-223506Y27000D01*
X-223235Y25634D01*
X-222461Y24477D01*
X-221303Y23703D01*
X-219938Y23431D01*
X-218851Y23648D01*
X-218146Y22592D01*
X-218297Y22366D01*
X-218568Y21000D01*
X-218297Y19634D01*
X-217523Y18477D01*
X-216365Y17703D01*
X-216023Y17635D01*
Y16365D01*
X-216366Y16297D01*
X-217523Y15523D01*
X-218297Y14366D01*
X-218569Y13000D01*
X-218297Y11634D01*
X-217523Y10477D01*
X-216366Y9703D01*
X-215000Y9431D01*
X-213634Y9703D01*
X-212477Y10477D01*
X-211703Y11634D01*
X-211431Y13000D01*
X-211703Y14366D01*
X-212477Y15523D01*
X-213634Y16297D01*
X-213976Y16365D01*
Y17635D01*
X-213634Y17703D01*
X-212476Y18477D01*
X-211703Y19634D01*
X-211431Y21000D01*
X-211703Y22366D01*
X-212476Y23523D01*
X-213634Y24297D01*
X-215000Y24569D01*
X-216086Y24352D01*
X-216792Y25408D01*
X-216641Y25634D01*
X-216369Y27000D01*
X-216641Y28366D01*
X-217414Y29523D01*
X-218572Y30297D01*
X-219938Y30569D01*
X-220530Y30451D01*
X-221236Y31507D01*
X-221151Y31634D01*
X-220879Y33000D01*
X-221151Y34366D01*
X-221924Y35523D01*
X-223082Y36297D01*
X-224448Y36569D01*
X-225089Y36441D01*
X-225795Y37497D01*
X-225703Y37634D01*
X-225431Y39000D01*
X-225703Y40366D01*
X-226477Y41523D01*
X-227634Y42297D01*
X-229000Y42569D01*
D02*
G37*
G36*
X258270Y6428D02*
Y5540D01*
X259158D01*
X258802Y6072D01*
X258270Y6428D01*
D02*
G37*
G36*
X155Y7576D02*
X-733D01*
X-377Y7044D01*
X155Y6688D01*
Y7576D01*
D02*
G37*
G36*
X255730Y6428D02*
X255198Y6072D01*
X254842Y5540D01*
X255730D01*
Y6428D01*
D02*
G37*
G36*
X-163270Y5158D02*
X-163802Y4802D01*
X-164158Y4270D01*
X-163270D01*
Y5158D01*
D02*
G37*
G36*
X-160730D02*
Y4270D01*
X-159842D01*
X-160198Y4802D01*
X-160730Y5158D01*
D02*
G37*
G36*
X3583Y7576D02*
X2695D01*
Y6688D01*
X3227Y7044D01*
X3583Y7576D01*
D02*
G37*
G36*
X-18000Y15569D02*
X-19366Y15297D01*
X-20523Y14523D01*
X-21297Y13366D01*
X-21569Y12000D01*
X-21297Y10634D01*
X-20523Y9477D01*
X-19366Y8703D01*
X-18000Y8431D01*
X-16634Y8703D01*
X-16475Y8809D01*
X-15802Y7802D01*
X-16158Y7270D01*
X-15270D01*
Y8796D01*
X-15534Y9190D01*
X-15477Y9477D01*
D01*
X-14703Y10634D01*
X-14431Y12000D01*
X-14703Y13366D01*
X-15477Y14523D01*
X-16634Y15297D01*
X-18000Y15569D01*
D02*
G37*
G36*
X-12730Y8158D02*
Y7270D01*
X-11842D01*
X-12198Y7802D01*
X-12730Y8158D01*
D02*
G37*
G36*
X195000Y8569D02*
X193634Y8297D01*
X192477Y7523D01*
X192125Y6996D01*
X190855D01*
X190503Y7523D01*
X189345Y8297D01*
X187979Y8569D01*
X186614Y8297D01*
X185456Y7523D01*
X184682Y6366D01*
X184411Y5000D01*
X184682Y3634D01*
X185456Y2477D01*
X186614Y1703D01*
X187979Y1431D01*
X189345Y1703D01*
X190503Y2477D01*
X190855Y3003D01*
X192125D01*
X192477Y2477D01*
X193634Y1703D01*
X195000Y1431D01*
X196366Y1703D01*
X197523Y2477D01*
X198297Y3634D01*
X198569Y5000D01*
X198297Y6366D01*
X197523Y7523D01*
X196366Y8297D01*
X195000Y8569D01*
D02*
G37*
G36*
X56607Y7853D02*
X55719D01*
X56075Y7321D01*
X56607Y6965D01*
Y7853D01*
D02*
G37*
G36*
X60035D02*
X59147D01*
Y6965D01*
X59679Y7321D01*
X60035Y7853D01*
D02*
G37*
G36*
X232158Y39730D02*
X231270D01*
Y38842D01*
X231802Y39198D01*
X232158Y39730D01*
D02*
G37*
G36*
X292000Y71068D02*
X290634Y70797D01*
X289477Y70023D01*
X288703Y68865D01*
X288431Y67500D01*
X288703Y66134D01*
X289477Y64977D01*
X290634Y64203D01*
X292000Y63931D01*
X293366Y64203D01*
X294523Y64977D01*
X295297Y66134D01*
X295569Y67500D01*
X295297Y68865D01*
X294523Y70023D01*
X293366Y70797D01*
X292000Y71068D01*
D02*
G37*
G36*
X-37825Y65318D02*
X-38357Y64962D01*
X-38713Y64430D01*
X-37825D01*
Y65318D01*
D02*
G37*
G36*
X-269250Y76068D02*
X-270616Y75797D01*
X-271773Y75023D01*
X-272547Y73865D01*
X-272819Y72500D01*
X-272547Y71134D01*
X-271773Y69977D01*
X-270616Y69203D01*
X-269250Y68931D01*
X-269250Y68931D01*
X-269250Y68931D01*
X-268635Y68906D01*
X-267850Y67908D01*
X-267931Y67500D01*
X-267660Y66134D01*
X-266886Y64976D01*
X-265728Y64203D01*
X-264363Y63931D01*
X-262997Y64203D01*
X-261839Y64976D01*
X-261066Y66134D01*
X-260794Y67500D01*
X-261066Y68865D01*
X-261839Y70023D01*
X-262997Y70797D01*
X-264363Y71068D01*
X-264363Y71068D01*
X-264363Y71068D01*
X-264977Y71094D01*
X-265763Y72092D01*
X-265681Y72500D01*
X-265953Y73865D01*
X-266727Y75023D01*
X-267884Y75797D01*
X-269250Y76068D01*
D02*
G37*
G36*
X-237170Y64658D02*
X-237703Y64302D01*
X-238058Y63770D01*
X-237170D01*
Y64658D01*
D02*
G37*
G36*
X-234630D02*
Y63770D01*
X-233742D01*
X-234098Y64302D01*
X-234630Y64658D01*
D02*
G37*
G36*
X-35285Y65318D02*
Y64430D01*
X-34397D01*
X-34752Y64962D01*
X-35285Y65318D01*
D02*
G37*
G36*
X212270Y66158D02*
Y65270D01*
X213158D01*
X212802Y65802D01*
X212270Y66158D01*
D02*
G37*
G36*
X26073Y66387D02*
X25185D01*
X25540Y65855D01*
X26073Y65499D01*
Y66387D01*
D02*
G37*
G36*
X209730Y66158D02*
X209198Y65802D01*
X208842Y65270D01*
X209730D01*
Y66158D01*
D02*
G37*
G36*
X146107Y65925D02*
X145219D01*
X145575Y65392D01*
X146107Y65036D01*
Y65925D01*
D02*
G37*
G36*
X149536D02*
X148647D01*
Y65036D01*
X149180Y65392D01*
X149536Y65925D01*
D02*
G37*
G36*
X-34397Y61890D02*
X-35285D01*
Y61002D01*
X-34752Y61357D01*
X-34397Y61890D01*
D02*
G37*
G36*
X209730Y62730D02*
X208842D01*
X209198Y62198D01*
X209730Y61842D01*
Y62730D01*
D02*
G37*
G36*
X-37825Y61890D02*
X-38713D01*
X-38357Y61357D01*
X-37825Y61002D01*
Y61890D01*
D02*
G37*
G36*
X-237170Y61230D02*
X-238058D01*
X-237703Y60697D01*
X-237170Y60342D01*
Y61230D01*
D02*
G37*
G36*
X-233742D02*
X-234630D01*
Y60342D01*
X-234098Y60697D01*
X-233742Y61230D01*
D02*
G37*
G36*
X213158Y62730D02*
X212270D01*
Y61842D01*
X212802Y62198D01*
X213158Y62730D01*
D02*
G37*
G36*
X-292770Y64658D02*
X-293302Y64302D01*
X-293658Y63770D01*
X-292770D01*
Y64658D01*
D02*
G37*
G36*
X-290230D02*
Y63770D01*
X-289342D01*
X-289697Y64302D01*
X-290230Y64658D01*
D02*
G37*
G36*
X158270Y64158D02*
Y63270D01*
X159158D01*
X158802Y63802D01*
X158270Y64158D01*
D02*
G37*
G36*
X233000Y69569D02*
X231634Y69297D01*
X230477Y68523D01*
X229703Y67366D01*
X229431Y66000D01*
X229703Y64634D01*
X230477Y63477D01*
X231634Y62703D01*
X233000Y62431D01*
X234366Y62703D01*
X235523Y63477D01*
X236297Y64634D01*
X236569Y66000D01*
X236297Y67366D01*
X235523Y68523D01*
X234366Y69297D01*
X233000Y69569D01*
D02*
G37*
G36*
X155730Y64158D02*
X155198Y63802D01*
X154842Y63270D01*
X155730D01*
Y64158D01*
D02*
G37*
G36*
X29501Y66387D02*
X28613D01*
Y65499D01*
X29145Y65855D01*
X29501Y66387D01*
D02*
G37*
G36*
X-237170Y76230D02*
X-238058D01*
X-237703Y75697D01*
X-237170Y75342D01*
Y76230D01*
D02*
G37*
G36*
X-233742D02*
X-234630D01*
Y75342D01*
X-234098Y75697D01*
X-233742Y76230D01*
D02*
G37*
G36*
X-289342D02*
X-290230D01*
Y75342D01*
X-289697Y75697D01*
X-289342Y76230D01*
D02*
G37*
G36*
X-19730Y76158D02*
Y75270D01*
X-18842D01*
X-19198Y75802D01*
X-19730Y76158D01*
D02*
G37*
G36*
X-292770Y76230D02*
X-293658D01*
X-293302Y75697D01*
X-292770Y75342D01*
Y76230D01*
D02*
G37*
G36*
X14541Y76525D02*
X14009Y76169D01*
X13653Y75637D01*
X14541D01*
Y76525D01*
D02*
G37*
G36*
X-237170Y79658D02*
X-237703Y79302D01*
X-238058Y78770D01*
X-237170D01*
Y79658D01*
D02*
G37*
G36*
X-234630D02*
Y78770D01*
X-233742D01*
X-234098Y79302D01*
X-234630Y79658D01*
D02*
G37*
G36*
X-290230D02*
Y78770D01*
X-289342D01*
X-289697Y79302D01*
X-290230Y79658D01*
D02*
G37*
G36*
X17081Y76525D02*
Y75637D01*
X17969D01*
X17614Y76169D01*
X17081Y76525D01*
D02*
G37*
G36*
X-292770Y79658D02*
X-293302Y79302D01*
X-293658Y78770D01*
X-292770D01*
Y79658D01*
D02*
G37*
G36*
X26073Y69815D02*
X25540Y69460D01*
X25185Y68927D01*
X26073D01*
Y69815D01*
D02*
G37*
G36*
X28613D02*
Y68927D01*
X29501D01*
X29145Y69460D01*
X28613Y69815D01*
D02*
G37*
G36*
X148647Y69353D02*
Y68465D01*
X149536D01*
X149180Y68997D01*
X148647Y69353D01*
D02*
G37*
G36*
X268300Y78318D02*
X265959Y77852D01*
X263974Y76526D01*
X262648Y74541D01*
X262183Y72200D01*
X262648Y69859D01*
X263974Y67874D01*
X265959Y66548D01*
X268300Y66083D01*
X270641Y66548D01*
X272626Y67874D01*
X273952Y69859D01*
X274417Y72200D01*
X273952Y74541D01*
X272626Y76526D01*
X270641Y77852D01*
X268300Y78318D01*
D02*
G37*
G36*
X146107Y69353D02*
X145575Y68997D01*
X145219Y68465D01*
X146107D01*
Y69353D01*
D02*
G37*
G36*
X228000Y78569D02*
X226634Y78297D01*
X225477Y77523D01*
X224703Y76366D01*
X224431Y75000D01*
X224703Y73634D01*
X225477Y72477D01*
X226634Y71703D01*
X228000Y71431D01*
X229366Y71703D01*
X230523Y72477D01*
X231297Y73634D01*
X231569Y75000D01*
X231297Y76366D01*
X230523Y77523D01*
X229366Y78297D01*
X228000Y78569D01*
D02*
G37*
G36*
X17969Y73097D02*
X17081D01*
Y72208D01*
X17614Y72564D01*
X17969Y73097D01*
D02*
G37*
G36*
X-22270Y76158D02*
X-22802Y75802D01*
X-23158Y75270D01*
X-22270D01*
Y76158D01*
D02*
G37*
G36*
X14541Y73097D02*
X13653D01*
X14009Y72564D01*
X14541Y72208D01*
Y73097D01*
D02*
G37*
G36*
X-22270Y72730D02*
X-23158D01*
X-22802Y72198D01*
X-22270Y71842D01*
Y72730D01*
D02*
G37*
G36*
X-18842D02*
X-19730D01*
Y71842D01*
X-19198Y72198D01*
X-18842Y72730D01*
D02*
G37*
G36*
X-289342Y61230D02*
X-290230D01*
Y60342D01*
X-289697Y60697D01*
X-289342Y61230D01*
D02*
G37*
G36*
X187000Y60137D02*
X185634Y59865D01*
X184477Y59092D01*
X183703Y57934D01*
X183431Y56569D01*
X183703Y55203D01*
X184477Y54045D01*
X185091Y53635D01*
Y52365D01*
X184477Y51955D01*
X183703Y50797D01*
X183431Y49431D01*
X183703Y48066D01*
X184477Y46908D01*
X185634Y46135D01*
X187000Y45863D01*
X188366Y46135D01*
X189523Y46908D01*
X190297Y48066D01*
X190569Y49431D01*
X190297Y50797D01*
X189523Y51955D01*
X188909Y52365D01*
Y53635D01*
X189523Y54045D01*
X190297Y55203D01*
X190569Y56569D01*
X190297Y57934D01*
X189523Y59092D01*
X188366Y59865D01*
X187000Y60137D01*
D02*
G37*
G36*
X26152Y47152D02*
X25264D01*
X25620Y46620D01*
X26152Y46264D01*
Y47152D01*
D02*
G37*
G36*
X270198Y46430D02*
X269310D01*
Y45542D01*
X269842Y45898D01*
X270198Y46430D01*
D02*
G37*
G36*
X-165842Y46230D02*
X-166730D01*
Y45342D01*
X-166198Y45697D01*
X-165842Y46230D01*
D02*
G37*
G36*
X266770Y46430D02*
X265882D01*
X266238Y45898D01*
X266770Y45542D01*
Y46430D01*
D02*
G37*
G36*
X29580Y47152D02*
X28692D01*
Y46264D01*
X29225Y46620D01*
X29580Y47152D01*
D02*
G37*
G36*
X-290230Y49658D02*
Y48770D01*
X-289342D01*
X-289697Y49302D01*
X-290230Y49658D01*
D02*
G37*
G36*
X-237170D02*
X-237703Y49302D01*
X-238058Y48770D01*
X-237170D01*
Y49658D01*
D02*
G37*
G36*
X-292770D02*
X-293302Y49302D01*
X-293658Y48770D01*
X-292770D01*
Y49658D01*
D02*
G37*
G36*
X235000Y48000D02*
X234468Y47644D01*
X234112Y47112D01*
X235000D01*
Y48000D01*
D02*
G37*
G36*
X237540D02*
Y47112D01*
X238428D01*
X238072Y47644D01*
X237540Y48000D01*
D02*
G37*
G36*
X231270Y43158D02*
Y42270D01*
X232158D01*
X231802Y42802D01*
X231270Y43158D01*
D02*
G37*
G36*
X235000Y44572D02*
X234112D01*
X234468Y44040D01*
X235000Y43684D01*
Y44572D01*
D02*
G37*
G36*
X228730Y43158D02*
X228198Y42802D01*
X227842Y42270D01*
X228730D01*
Y43158D01*
D02*
G37*
G36*
X201730Y41158D02*
X201198Y40802D01*
X200842Y40270D01*
X201730D01*
Y41158D01*
D02*
G37*
G36*
X204270D02*
Y40270D01*
X205158D01*
X204802Y40802D01*
X204270Y41158D01*
D02*
G37*
G36*
X238428Y44572D02*
X237540D01*
Y43684D01*
X238072Y44040D01*
X238428Y44572D01*
D02*
G37*
G36*
X-233742Y46230D02*
X-234630D01*
Y45342D01*
X-234098Y45697D01*
X-233742Y46230D01*
D02*
G37*
G36*
X-169270D02*
X-170158D01*
X-169802Y45697D01*
X-169270Y45342D01*
Y46230D01*
D02*
G37*
G36*
X-237170D02*
X-238058D01*
X-237703Y45697D01*
X-237170Y45342D01*
Y46230D01*
D02*
G37*
G36*
X-292770D02*
X-293658D01*
X-293302Y45697D01*
X-292770Y45342D01*
Y46230D01*
D02*
G37*
G36*
X-289342D02*
X-290230D01*
Y45342D01*
X-289697Y45697D01*
X-289342Y46230D01*
D02*
G37*
G36*
X-234630Y49658D02*
Y48770D01*
X-233742D01*
X-234098Y49302D01*
X-234630Y49658D01*
D02*
G37*
G36*
X-11206Y63766D02*
X-12572Y63495D01*
X-13729Y62721D01*
X-14503Y61564D01*
X-14774Y60198D01*
X-14503Y58832D01*
X-13729Y57674D01*
X-12572Y56901D01*
X-11206Y56629D01*
X-9840Y56901D01*
X-8683Y57674D01*
X-7909Y58832D01*
X-7637Y60198D01*
X-7909Y61564D01*
X-8683Y62721D01*
X-9840Y63495D01*
X-11206Y63766D01*
D02*
G37*
G36*
X234730Y58158D02*
X234198Y57802D01*
X233842Y57270D01*
X234730D01*
Y58158D01*
D02*
G37*
G36*
X238158Y54730D02*
X237270D01*
Y53842D01*
X237802Y54198D01*
X238158Y54730D01*
D02*
G37*
G36*
X231270Y53158D02*
Y52270D01*
X232158D01*
X231802Y52802D01*
X231270Y53158D01*
D02*
G37*
G36*
X234730Y54730D02*
X233842D01*
X234198Y54198D01*
X234730Y53842D01*
Y54730D01*
D02*
G37*
G36*
X237270Y58158D02*
Y57270D01*
X238158D01*
X237802Y57802D01*
X237270Y58158D01*
D02*
G37*
G36*
X159158Y60730D02*
X158270D01*
Y59842D01*
X158802Y60198D01*
X159158Y60730D01*
D02*
G37*
G36*
X-292770Y61230D02*
X-293658D01*
X-293302Y60697D01*
X-292770Y60342D01*
Y61230D01*
D02*
G37*
G36*
X155730Y60730D02*
X154842D01*
X155198Y60198D01*
X155730Y59842D01*
Y60730D01*
D02*
G37*
G36*
X125730Y65299D02*
X124364Y65027D01*
X123207Y64253D01*
X122433Y63096D01*
X122161Y61730D01*
X122433Y60364D01*
X123207Y59207D01*
X124364Y58433D01*
X125730Y58161D01*
X127096Y58433D01*
X128253Y59207D01*
X129027Y60364D01*
X129299Y61730D01*
X129027Y63096D01*
X128253Y64253D01*
X127096Y65027D01*
X125730Y65299D01*
D02*
G37*
G36*
X90000Y65569D02*
X88634Y65297D01*
X87477Y64523D01*
X86703Y63366D01*
X86431Y62000D01*
X86703Y60634D01*
X87477Y59477D01*
X88634Y58703D01*
X90000Y58431D01*
X91366Y58703D01*
X92523Y59477D01*
X93297Y60634D01*
X93569Y62000D01*
X93297Y63366D01*
X92523Y64523D01*
X91366Y65297D01*
X90000Y65569D01*
D02*
G37*
G36*
X228730Y53158D02*
X228198Y52802D01*
X227842Y52270D01*
X228730D01*
Y53158D01*
D02*
G37*
G36*
X232158Y49730D02*
X231270D01*
Y48842D01*
X231802Y49198D01*
X232158Y49730D01*
D02*
G37*
G36*
X-269250Y61068D02*
X-270616Y60797D01*
X-271773Y60023D01*
X-272547Y58865D01*
X-272819Y57500D01*
X-272547Y56134D01*
X-271773Y54977D01*
X-270616Y54203D01*
X-269250Y53931D01*
X-269250Y53931D01*
X-269250Y53931D01*
X-268635Y53906D01*
X-267850Y52908D01*
X-267931Y52500D01*
X-267660Y51134D01*
X-266886Y49977D01*
X-265728Y49203D01*
X-264363Y48931D01*
X-262997Y49203D01*
X-261839Y49977D01*
X-261066Y51134D01*
X-260794Y52500D01*
X-261066Y53865D01*
X-261839Y55023D01*
X-262997Y55797D01*
X-264363Y56068D01*
X-264363Y56069D01*
X-264363Y56068D01*
X-264977Y56094D01*
X-265763Y57092D01*
X-265681Y57500D01*
X-265953Y58865D01*
X-266727Y60023D01*
X-267884Y60797D01*
X-269250Y61068D01*
D02*
G37*
G36*
X228730Y49730D02*
X227842D01*
X228198Y49198D01*
X228730Y48842D01*
Y49730D01*
D02*
G37*
G36*
X-169270Y49658D02*
X-169802Y49302D01*
X-170158Y48770D01*
X-169270D01*
Y49658D01*
D02*
G37*
G36*
X-166730D02*
Y48770D01*
X-165842D01*
X-166198Y49302D01*
X-166730Y49658D01*
D02*
G37*
G36*
X28692Y50580D02*
Y49692D01*
X29580D01*
X29225Y50225D01*
X28692Y50580D01*
D02*
G37*
G36*
X42551Y58569D02*
X41185Y58297D01*
X40027Y57523D01*
X39254Y56366D01*
X38982Y55000D01*
X39254Y53634D01*
X40027Y52477D01*
X41185Y51703D01*
X42551Y51431D01*
X43916Y51703D01*
X45074Y52477D01*
X45848Y53634D01*
X46119Y55000D01*
X45848Y56366D01*
X45074Y57523D01*
X43916Y58297D01*
X42551Y58569D01*
D02*
G37*
G36*
X26152Y50580D02*
X25620Y50225D01*
X25264Y49692D01*
X26152D01*
Y50580D01*
D02*
G37*
G36*
X266770Y49858D02*
X266238Y49502D01*
X265882Y48970D01*
X266770D01*
Y49858D01*
D02*
G37*
G36*
X269310D02*
Y48970D01*
X270198D01*
X269842Y49502D01*
X269310Y49858D01*
D02*
G37*
%LPD*%
G36*
X47840Y107000D02*
Y103840D01*
X40000Y96000D01*
X37650D01*
X35897Y97753D01*
Y99897D01*
X44000Y108000D01*
X46840D01*
X47840Y107000D01*
D02*
G37*
D37*
X40000Y100000D02*
X55000Y85000D01*
X182000D01*
D38*
X-290000Y190000D02*
G03*
X-300000Y180000I0J-10000D01*
G01*
Y-180000D02*
G03*
X-290000Y-190000I10000J0D01*
G01*
X299941Y180000D02*
G03*
X289941Y190000I-10000J0D01*
G01*
Y-190000D02*
G03*
X299941Y-180000I0J10000D01*
G01*
X-290000Y190000D02*
X289941Y190000D01*
X-290000Y-190000D02*
X289941Y-190000D01*
X-300000Y-180000D02*
Y180000D01*
X300000Y-180000D02*
Y180000D01*
X289941Y-190000D02*
G03*
X299941Y-180000I0J10000D01*
G01*
Y180000D02*
G03*
X289941Y190000I-10000J0D01*
G01*
X-300000Y-180000D02*
G03*
X-290000Y-190000I10000J0D01*
G01*
Y190000D02*
G03*
X-300000Y180000I0J-10000D01*
G01*
X300000Y-180000D02*
Y180000D01*
X-300000Y-180000D02*
Y180000D01*
X-290000Y-190000D02*
X289941Y-190000D01*
X-290000Y190000D02*
X289941Y190000D01*
D44*
X28993Y-154584D02*
X29000D01*
X2493Y-143984D02*
X2500D01*
X27493D02*
X27500D01*
X53993Y-154584D02*
X54000D01*
D45*
X204300Y170000D02*
D03*
D46*
X229700D02*
D03*
D47*
X273000Y-163000D02*
D03*
X-273000D02*
D03*
X273000Y163000D02*
D03*
X-273000D02*
D03*
D48*
X-276200Y132000D02*
D03*
Y-132000D02*
D03*
X284000Y151000D02*
D03*
X289000Y163000D02*
D03*
X261000Y174000D02*
D03*
X273000Y147000D02*
D03*
X284000Y174000D02*
D03*
X257000Y163000D02*
D03*
X261000Y152000D02*
D03*
X273000Y179000D02*
D03*
X284000Y-175000D02*
D03*
X289000Y-163000D02*
D03*
X261000Y-152000D02*
D03*
X273000Y-179000D02*
D03*
X284000Y-152000D02*
D03*
X257000Y-163000D02*
D03*
X261000Y-174000D02*
D03*
X273000Y-147000D02*
D03*
X-262000Y-175000D02*
D03*
X-257000Y-163000D02*
D03*
X-285000Y-152000D02*
D03*
X-273000Y-179000D02*
D03*
X-262000Y-152000D02*
D03*
X-289000Y-163000D02*
D03*
X-285000Y-174000D02*
D03*
X-273000Y-147000D02*
D03*
X-262000Y151000D02*
D03*
X-257000Y163000D02*
D03*
X-285000Y174000D02*
D03*
X-273000Y147000D02*
D03*
X-262000Y174000D02*
D03*
X-289000Y163000D02*
D03*
X-285000Y152000D02*
D03*
X-273000Y179000D02*
D03*
X-10000Y129000D02*
D03*
X171250Y-181750D02*
D03*
X158703Y-141183D02*
D03*
X221250Y-159000D02*
D03*
X134233Y-141183D02*
D03*
X208750Y-159000D02*
D03*
X146440Y-141183D02*
D03*
X196250Y-159000D02*
D03*
X259000Y-126000D02*
D03*
X201250Y-126587D02*
D03*
X188750D02*
D03*
X63000Y-132000D02*
D03*
X124750Y-155250D02*
D03*
X83663Y-167002D02*
D03*
X112000Y-167000D02*
D03*
X135000Y-180000D02*
D03*
X-185198Y-78802D02*
D03*
X-185000Y-72000D02*
D03*
X-215000Y-97500D02*
D03*
X231000Y115000D02*
D03*
X55656Y147156D02*
D03*
X262000Y-91000D02*
D03*
X-159500Y-57500D02*
D03*
X-134000Y-99000D02*
D03*
X115000Y30000D02*
D03*
X-50000Y-58000D02*
D03*
X-89000Y-87000D02*
D03*
X-201101Y-73500D02*
D03*
X-210000Y-50000D02*
D03*
X-168000Y47500D02*
D03*
X154620Y-118000D02*
D03*
X-197000Y124000D02*
D03*
X-54000Y97000D02*
D03*
X165000Y140500D02*
D03*
X-61477Y97000D02*
D03*
X130000Y112000D02*
D03*
X125000Y120000D02*
D03*
X154000Y156000D02*
D03*
X225000Y-93000D02*
D03*
X45000Y105000D02*
D03*
X40000Y100000D02*
D03*
X-226140Y-105342D02*
D03*
X240000Y-150000D02*
D03*
X260500Y-28000D02*
D03*
X259500Y-12500D02*
D03*
X187000Y56569D02*
D03*
X90000Y62000D02*
D03*
X125730Y61730D02*
D03*
X236000Y-17500D02*
D03*
X195000Y5000D02*
D03*
X207000Y-29000D02*
D03*
X292000Y-27500D02*
D03*
X214828Y-70172D02*
D03*
X213000Y5000D02*
D03*
X169500Y-116000D02*
D03*
X-18750Y-131000D02*
D03*
X-44380Y-161000D02*
D03*
X-19000D02*
D03*
X-6250Y-131000D02*
D03*
X-120000Y-178000D02*
D03*
X-159000Y-143000D02*
D03*
X-219500Y-172500D02*
D03*
X184500Y-104500D02*
D03*
X108230Y161230D02*
D03*
X31500Y161500D02*
D03*
X5000Y178500D02*
D03*
X-51000Y168000D02*
D03*
X-40000D02*
D03*
X-30000D02*
D03*
X-20000D02*
D03*
X-51000Y177000D02*
D03*
X-40000D02*
D03*
X-30000D02*
D03*
X-20000D02*
D03*
X233000Y66000D02*
D03*
X258000Y-112500D02*
D03*
X215500Y-77500D02*
D03*
X206000Y-95000D02*
D03*
X148000Y0D02*
D03*
X-229000Y39000D02*
D03*
X-184000Y29704D02*
D03*
X-210000Y-7000D02*
D03*
X-215000Y-19000D02*
D03*
X-219938Y27000D02*
D03*
X-224448Y33000D02*
D03*
X160632Y-1866D02*
D03*
X29964Y-40517D02*
D03*
X-11206Y60198D02*
D03*
Y41793D02*
D03*
X29946Y-59517D02*
D03*
X35695Y-18000D02*
D03*
X18917Y6000D02*
D03*
X14030Y11928D02*
D03*
X-229863Y-87500D02*
D03*
X-234750Y-82500D02*
D03*
X26500Y24204D02*
D03*
X-226037Y-57610D02*
D03*
X-215000Y13000D02*
D03*
X-231578Y-52500D02*
D03*
X-215000Y21000D02*
D03*
X-162000Y-29000D02*
D03*
X6000Y33577D02*
D03*
X-6000Y33302D02*
D03*
X-12064Y18523D02*
D03*
X-18000Y12000D02*
D03*
X-264363Y112500D02*
D03*
X-269250Y117500D02*
D03*
X-264363Y97500D02*
D03*
X-269250Y102500D02*
D03*
X-264363Y82500D02*
D03*
X-269250Y87500D02*
D03*
X188178Y-70000D02*
D03*
X133178Y-72250D02*
D03*
X149000Y-83000D02*
D03*
X-18000Y-15000D02*
D03*
X-13389Y-9529D02*
D03*
X236000Y-27500D02*
D03*
X222000Y-36000D02*
D03*
X217000Y-52000D02*
D03*
X269000Y-44000D02*
D03*
X265000Y-37500D02*
D03*
X187979Y5000D02*
D03*
X213000Y-34000D02*
D03*
X211500Y-60500D02*
D03*
X209000Y-51000D02*
D03*
X262000Y-47000D02*
D03*
X294000Y-67000D02*
D03*
X0Y-15000D02*
D03*
X-6000Y-32500D02*
D03*
X-34000Y-6000D02*
D03*
X-269250Y72500D02*
D03*
X292000Y-57500D02*
D03*
X270000Y-82500D02*
D03*
X292000Y-77500D02*
D03*
Y-42500D02*
D03*
X119755Y-59000D02*
D03*
X292000Y7500D02*
D03*
X-269250Y42500D02*
D03*
X-264363Y37500D02*
D03*
X-269250Y57500D02*
D03*
X-264363Y52500D02*
D03*
X-270400Y-117500D02*
D03*
Y-87500D02*
D03*
X160632Y-24368D02*
D03*
X176000Y-24000D02*
D03*
X104000Y-46000D02*
D03*
X170678Y-57106D02*
D03*
X257000Y4270D02*
D03*
X225000Y95000D02*
D03*
X258000Y-67500D02*
D03*
X268000Y-110000D02*
D03*
Y-122500D02*
D03*
X294000Y-19000D02*
D03*
X212000Y149000D02*
D03*
X12000Y-50000D02*
D03*
X84500Y-81500D02*
D03*
X211000Y64000D02*
D03*
X293500Y-87500D02*
D03*
X23461Y-50017D02*
D03*
X-265000Y-70000D02*
D03*
Y-44000D02*
D03*
X-232888Y26524D02*
D03*
X-78000Y-140000D02*
D03*
X15811Y74367D02*
D03*
X-14000Y6000D02*
D03*
X-244000Y-147000D02*
D03*
X-125000Y14000D02*
D03*
X-170000Y117000D02*
D03*
X236000Y56000D02*
D03*
X-21000Y74000D02*
D03*
X-223000Y-182000D02*
D03*
X62842Y138730D02*
D03*
X141000Y180000D02*
D03*
X72000Y154000D02*
D03*
X263000Y0D02*
D03*
X293000Y-35000D02*
D03*
X220979Y-28000D02*
D03*
X224000Y-17500D02*
D03*
X236270Y45842D02*
D03*
X257000Y-5000D02*
D03*
X231200Y15298D02*
D03*
X224354D02*
D03*
Y22800D02*
D03*
X231200D02*
D03*
X206000Y500D02*
D03*
X201640Y-24059D02*
D03*
X225000Y-121000D02*
D03*
X71000Y-147000D02*
D03*
X1425Y8846D02*
D03*
X170678Y-81188D02*
D03*
X-40000Y-125000D02*
D03*
X-234556Y-92575D02*
D03*
X81730Y178230D02*
D03*
X236270Y35842D02*
D03*
X-120000Y-171000D02*
D03*
X292000Y67500D02*
D03*
X0Y109620D02*
D03*
X150678Y-57106D02*
D03*
X182000Y115000D02*
D03*
X-79000Y-68000D02*
D03*
X-69000Y-148000D02*
D03*
X-10000Y137112D02*
D03*
X51851Y-65297D02*
D03*
X-265000Y24000D02*
D03*
X-234000Y-5000D02*
D03*
X-198500Y-142500D02*
D03*
X-37765Y-12000D02*
D03*
X-264363Y67500D02*
D03*
X83000Y-95000D02*
D03*
X75000Y123000D02*
D03*
X132000Y145000D02*
D03*
X-31820Y-94820D02*
D03*
X31680Y-94680D02*
D03*
X179500Y-95500D02*
D03*
X-268000Y139998D02*
D03*
X-291500Y122500D02*
D03*
X-203000Y142000D02*
D03*
X-213000Y184000D02*
D03*
X22000Y164230D02*
D03*
X-4000Y152000D02*
D03*
X98730Y164230D02*
D03*
X65000Y180000D02*
D03*
X170000D02*
D03*
X228730Y137842D02*
D03*
X252000Y130000D02*
D03*
X165592Y94773D02*
D03*
X98000Y121000D02*
D03*
X147377Y67195D02*
D03*
X203000Y39000D02*
D03*
X258000Y-183000D02*
D03*
X135000Y-170000D02*
D03*
X-1000Y-179000D02*
D03*
X-142359Y-83431D02*
D03*
X-108000Y-60000D02*
D03*
X-146000Y-1000D02*
D03*
X-162000Y3000D02*
D03*
X-152000Y-18000D02*
D03*
X-50471Y-2529D02*
D03*
X180500Y-54500D02*
D03*
X13270Y97158D02*
D03*
X42551Y55000D02*
D03*
X169500Y-105000D02*
D03*
X230000Y41000D02*
D03*
Y51000D02*
D03*
X228000Y75000D02*
D03*
X182000Y85000D02*
D03*
X257000Y-82500D02*
D03*
X222000Y-136000D02*
D03*
X-36555Y63160D02*
D03*
X-57000Y133000D02*
D03*
X-46000Y122000D02*
D03*
X-34000Y129000D02*
D03*
X-163270Y117000D02*
D03*
X-156270D02*
D03*
X-291500Y107500D02*
D03*
Y92500D02*
D03*
Y77500D02*
D03*
Y62500D02*
D03*
Y47500D02*
D03*
Y32500D02*
D03*
Y12500D02*
D03*
Y-12500D02*
D03*
X-270400Y-17500D02*
D03*
X-291500Y-42500D02*
D03*
Y-77500D02*
D03*
Y-102500D02*
D03*
X-270400Y-107500D02*
D03*
X-246523Y-133123D02*
D03*
X-235900Y47500D02*
D03*
Y62500D02*
D03*
Y77500D02*
D03*
Y92500D02*
D03*
X-257000Y122500D02*
D03*
Y107500D02*
D03*
X-33000Y-118000D02*
D03*
X-47000D02*
D03*
X-40000D02*
D03*
X-47000Y-125000D02*
D03*
X-33000D02*
D03*
X-26000D02*
D03*
Y-118000D02*
D03*
X27422Y48422D02*
D03*
X27343Y67657D02*
D03*
X17000Y-17000D02*
D03*
X55933Y-18067D02*
D03*
X58811Y-25812D02*
D03*
X-16000Y-62000D02*
D03*
X50720Y-40517D02*
D03*
X78736Y-31263D02*
D03*
X-25000Y-33000D02*
D03*
X-93000Y26000D02*
D03*
X-194442Y-93174D02*
D03*
X-42079Y0D02*
D03*
X-149000Y117000D02*
D03*
X-220676Y92500D02*
D03*
X-26500Y25500D02*
D03*
X-27000Y33000D02*
D03*
X188000Y28000D02*
D03*
X213000D02*
D03*
X100000Y-171000D02*
D03*
X2695Y83D02*
D03*
X183313Y-86000D02*
D03*
X157000Y62000D02*
D03*
X57877Y9123D02*
D03*
X268040Y47700D02*
D03*
X187000Y49431D02*
D03*
D50*
X100000Y-1000D02*
D03*
X-100000D02*
D03*
M02*
