%FSLAX44Y44*%
%MOMM*%
G71*
G01*
G75*
G04 Layer_Physical_Order=3*
G04 Layer_Color=16440176*
%ADD10R,0.5000X0.6000*%
%ADD11R,0.6000X0.5000*%
%ADD12R,0.5000X1.1000*%
%ADD13R,1.1000X0.5000*%
%ADD14R,0.8128X0.8128*%
%ADD15R,1.0160X0.8890*%
%ADD16R,2.4000X1.2500*%
%ADD17R,1.2000X1.2500*%
%ADD18R,0.8890X1.0160*%
%ADD19R,1.6002X1.2954*%
%ADD20R,0.7600X1.5200*%
%ADD21R,0.8128X0.8128*%
%ADD22R,1.0668X0.8128*%
G04:AMPARAMS|DCode=23|XSize=0.22mm|YSize=0.8mm|CornerRadius=0mm|HoleSize=0mm|Usage=FLASHONLY|Rotation=90.000|XOffset=0mm|YOffset=0mm|HoleType=Round|Shape=RoundedRectangle|*
%AMROUNDEDRECTD23*
21,1,0.2200,0.8000,0,0,90.0*
21,1,0.2200,0.8000,0,0,90.0*
1,1,0.0000,0.4000,0.1100*
1,1,0.0000,0.4000,-0.1100*
1,1,0.0000,-0.4000,-0.1100*
1,1,0.0000,-0.4000,0.1100*
%
%ADD23ROUNDEDRECTD23*%
G04:AMPARAMS|DCode=24|XSize=0.22mm|YSize=0.8mm|CornerRadius=0mm|HoleSize=0mm|Usage=FLASHONLY|Rotation=0.000|XOffset=0mm|YOffset=0mm|HoleType=Round|Shape=RoundedRectangle|*
%AMROUNDEDRECTD24*
21,1,0.2200,0.8000,0,0,0.0*
21,1,0.2200,0.8000,0,0,0.0*
1,1,0.0000,0.1100,-0.4000*
1,1,0.0000,-0.1100,-0.4000*
1,1,0.0000,-0.1100,0.4000*
1,1,0.0000,0.1100,0.4000*
%
%ADD24ROUNDEDRECTD24*%
%ADD25R,4.3000X4.3000*%
%ADD26R,0.7000X0.6000*%
%ADD27R,1.2500X0.3000*%
%ADD28R,0.7000X1.6000*%
%ADD29R,1.1000X1.4000*%
%ADD30R,1.6000X1.4000*%
%ADD31R,1.2000X2.2000*%
%ADD32R,1.2000X1.4000*%
%ADD33R,0.8000X1.6000*%
%ADD34R,1.4000X0.6000*%
%ADD35P,1.8385X4X90.0*%
%ADD36R,1.2700X0.5080*%
%ADD37R,1.3970X1.3970*%
%ADD38R,1.2000X1.6000*%
%ADD39R,1.5000X0.4000*%
%ADD40C,0.4000*%
%ADD41C,0.2000*%
%ADD42C,0.3000*%
%ADD43C,0.2540*%
%ADD44C,0.1270*%
%ADD45C,0.6000*%
%ADD46R,1.3000X1.2000*%
%ADD47C,0.0254*%
%ADD48C,4.4000*%
%ADD49C,0.5000*%
G04:AMPARAMS|DCode=50|XSize=4mm|YSize=4mm|CornerRadius=2mm|HoleSize=0mm|Usage=FLASHONLY|Rotation=0.000|XOffset=0mm|YOffset=0mm|HoleType=Round|Shape=RoundedRectangle|*
%AMROUNDEDRECTD50*
21,1,4.0000,0.0000,0,0,0.0*
21,1,0.0000,4.0000,0,0,0.0*
1,1,4.0000,0.0000,0.0000*
1,1,4.0000,0.0000,0.0000*
1,1,4.0000,0.0000,0.0000*
1,1,4.0000,0.0000,0.0000*
%
%ADD50ROUNDEDRECTD50*%
%ADD51R,1.5240X1.5240*%
%ADD52C,1.5240*%
%ADD53C,3.6000*%
G36*
X-215563Y186941D02*
X-214802Y185802D01*
X-215158Y185270D01*
X-210842D01*
X-211198Y185802D01*
X-210437Y186941D01*
X289941Y186941D01*
Y186932D01*
X291735Y186696D01*
X293407Y186004D01*
X294843Y184902D01*
X295944Y183466D01*
X296637Y181794D01*
X296873Y180000D01*
X296882D01*
X296941Y179702D01*
Y-16437D01*
X295802Y-17198D01*
X295270Y-16842D01*
Y-19000D01*
Y-21158D01*
X295802Y-20802D01*
X296941Y-21563D01*
Y-32411D01*
X295726Y-32780D01*
X295523Y-32477D01*
X294366Y-31703D01*
X294177Y-31666D01*
X293930Y-30420D01*
X294523Y-30023D01*
X295297Y-28866D01*
X295569Y-27500D01*
X295297Y-26134D01*
X294523Y-24977D01*
X293366Y-24203D01*
X292000Y-23931D01*
X290634Y-24203D01*
X289477Y-24977D01*
X288703Y-26134D01*
X288431Y-27500D01*
X288703Y-28866D01*
X289477Y-30023D01*
X290634Y-30797D01*
X290823Y-30834D01*
X291070Y-32080D01*
X290477Y-32477D01*
X289703Y-33634D01*
X289431Y-35000D01*
X289703Y-36366D01*
X290477Y-37523D01*
X291070Y-37920D01*
X290823Y-39166D01*
X290634Y-39203D01*
X289477Y-39977D01*
X288703Y-41134D01*
X288431Y-42500D01*
X288703Y-43866D01*
X289477Y-45023D01*
X290634Y-45797D01*
X292000Y-46069D01*
X293366Y-45797D01*
X294523Y-45023D01*
X295297Y-43866D01*
X295569Y-42500D01*
X295297Y-41134D01*
X294523Y-39977D01*
X293930Y-39580D01*
X294177Y-38334D01*
X294366Y-38297D01*
X295523Y-37523D01*
X295726Y-37220D01*
X296941Y-37589D01*
Y-179702D01*
X296882Y-180000D01*
X296873D01*
X296637Y-181794D01*
X295944Y-183466D01*
X294843Y-184902D01*
X293407Y-186004D01*
X291735Y-186696D01*
X289941Y-186932D01*
X289941Y-186932D01*
Y-186932D01*
X289932Y-186941D01*
X-290000Y-186941D01*
Y-186932D01*
X-291794Y-186696D01*
X-293466Y-186004D01*
X-294902Y-184902D01*
X-296004Y-183466D01*
X-296696Y-181794D01*
X-296932Y-180000D01*
X-296941D01*
Y180000D01*
X-296932D01*
X-296696Y181794D01*
X-296004Y183466D01*
X-294902Y184902D01*
X-293466Y186004D01*
X-291794Y186696D01*
X-290000Y186932D01*
X-290000Y186932D01*
X-290000Y186932D01*
X-290000D01*
X-290000Y186941D01*
D01*
X-290000Y186941D01*
X-215563D01*
D02*
G37*
%LPC*%
G36*
X169408Y-54948D02*
X168875Y-55304D01*
X168520Y-55836D01*
X169408D01*
Y-54948D01*
D02*
G37*
G36*
X171948D02*
Y-55836D01*
X172836D01*
X172480Y-55304D01*
X171948Y-54948D01*
D02*
G37*
G36*
X151948D02*
Y-55836D01*
X152836D01*
X152480Y-55304D01*
X151948Y-54948D01*
D02*
G37*
G36*
X17500Y-48931D02*
X16134Y-49203D01*
X14977Y-49977D01*
X14203Y-51134D01*
X13931Y-52500D01*
X14203Y-53866D01*
X14977Y-55023D01*
X16134Y-55797D01*
X17500Y-56069D01*
X18866Y-55797D01*
X20023Y-55023D01*
X20797Y-53866D01*
X21069Y-52500D01*
X20797Y-51134D01*
X20023Y-49977D01*
X18866Y-49203D01*
X17500Y-48931D01*
D02*
G37*
G36*
X149408Y-54948D02*
X148875Y-55304D01*
X148520Y-55836D01*
X149408D01*
Y-54948D01*
D02*
G37*
G36*
X209000Y-47431D02*
X207634Y-47703D01*
X206477Y-48477D01*
X205703Y-49634D01*
X205431Y-51000D01*
X205703Y-52366D01*
X206477Y-53523D01*
X207634Y-54297D01*
X209000Y-54569D01*
X210366Y-54297D01*
X211523Y-53523D01*
X212297Y-52366D01*
X213554Y-52616D01*
X213703Y-53366D01*
X214477Y-54523D01*
X215634Y-55297D01*
X217000Y-55569D01*
X218366Y-55297D01*
X219523Y-54523D01*
X220297Y-53366D01*
X220569Y-52000D01*
X220297Y-50634D01*
X219523Y-49477D01*
X218366Y-48703D01*
X217000Y-48431D01*
X215634Y-48703D01*
X214477Y-49477D01*
X213703Y-50634D01*
X212446Y-50384D01*
X212297Y-49634D01*
X211523Y-48477D01*
X210366Y-47703D01*
X209000Y-47431D01*
D02*
G37*
G36*
X105658Y-47270D02*
X104770D01*
Y-48158D01*
X105302Y-47802D01*
X105658Y-47270D01*
D02*
G37*
G36*
X-27000Y-40932D02*
X-28366Y-41203D01*
X-29523Y-41977D01*
X-30297Y-43134D01*
X-30569Y-44500D01*
X-30297Y-45866D01*
X-29523Y-47024D01*
X-28366Y-47797D01*
X-27000Y-48069D01*
X-25634Y-47797D01*
X-24477Y-47024D01*
X-23703Y-45866D01*
X-23431Y-44500D01*
X-23703Y-43134D01*
X-24477Y-41977D01*
X-25634Y-41203D01*
X-27000Y-40932D01*
D02*
G37*
G36*
X102230Y-47270D02*
X101342D01*
X101698Y-47802D01*
X102230Y-48158D01*
Y-47270D01*
D02*
G37*
G36*
X179230Y-52342D02*
X178697Y-52698D01*
X178342Y-53230D01*
X179230D01*
Y-52342D01*
D02*
G37*
G36*
X181770D02*
Y-53230D01*
X182658D01*
X182302Y-52698D01*
X181770Y-52342D01*
D02*
G37*
G36*
X182658Y-55770D02*
X181770D01*
Y-56658D01*
X182302Y-56302D01*
X182658Y-55770D01*
D02*
G37*
G36*
X292000Y-53931D02*
X290634Y-54203D01*
X289477Y-54977D01*
X288703Y-56134D01*
X288431Y-57500D01*
X288703Y-58866D01*
X289477Y-60023D01*
X290634Y-60797D01*
X292000Y-61069D01*
X293366Y-60797D01*
X294523Y-60023D01*
X295297Y-58866D01*
X295569Y-57500D01*
X295297Y-56134D01*
X294523Y-54977D01*
X293366Y-54203D01*
X292000Y-53931D01*
D02*
G37*
G36*
X149408Y-58376D02*
X148520D01*
X148875Y-58908D01*
X149408Y-59264D01*
Y-58376D01*
D02*
G37*
G36*
X-159500Y-53931D02*
X-160866Y-54203D01*
X-162023Y-54977D01*
X-162797Y-56134D01*
X-163069Y-57500D01*
X-162797Y-58866D01*
X-162023Y-60023D01*
X-160866Y-60797D01*
X-159500Y-61069D01*
X-158134Y-60797D01*
X-156977Y-60023D01*
X-156203Y-58866D01*
X-155931Y-57500D01*
X-156203Y-56134D01*
X-156977Y-54977D01*
X-158134Y-54203D01*
X-159500Y-53931D01*
D02*
G37*
G36*
X-105842Y-61270D02*
X-106730D01*
Y-62158D01*
X-106198Y-61802D01*
X-105842Y-61270D01*
D02*
G37*
G36*
X-234000Y-48931D02*
X-235366Y-49203D01*
X-236523Y-49977D01*
X-237297Y-51134D01*
X-237569Y-52500D01*
X-237297Y-53866D01*
X-236523Y-55023D01*
X-235366Y-55797D01*
X-234000Y-56069D01*
X-233311Y-55932D01*
X-232413Y-56830D01*
X-232569Y-57610D01*
X-232297Y-58975D01*
X-231523Y-60133D01*
X-230366Y-60907D01*
X-229000Y-61178D01*
X-227634Y-60907D01*
X-226477Y-60133D01*
X-225703Y-58975D01*
X-225431Y-57610D01*
X-225703Y-56244D01*
X-226477Y-55086D01*
X-227634Y-54313D01*
X-229000Y-54041D01*
X-229688Y-54178D01*
X-230587Y-53280D01*
X-230431Y-52500D01*
X-230703Y-51134D01*
X-231477Y-49977D01*
X-232634Y-49203D01*
X-234000Y-48931D01*
D02*
G37*
G36*
X152836Y-58376D02*
X151948D01*
Y-59264D01*
X152480Y-58908D01*
X152836Y-58376D01*
D02*
G37*
G36*
X-106730Y-57842D02*
Y-58730D01*
X-105842D01*
X-106198Y-58198D01*
X-106730Y-57842D01*
D02*
G37*
G36*
X179230Y-55770D02*
X178342D01*
X178697Y-56302D01*
X179230Y-56658D01*
Y-55770D01*
D02*
G37*
G36*
X-109270Y-57842D02*
X-109802Y-58198D01*
X-110158Y-58730D01*
X-109270D01*
Y-57842D01*
D02*
G37*
G36*
X169408Y-58376D02*
X168520D01*
X168875Y-58908D01*
X169408Y-59264D01*
Y-58376D01*
D02*
G37*
G36*
X172836D02*
X171948D01*
Y-59264D01*
X172480Y-58908D01*
X172836Y-58376D01*
D02*
G37*
G36*
X-17500Y-40932D02*
X-18866Y-41203D01*
X-20023Y-41977D01*
X-20797Y-43134D01*
X-21069Y-44500D01*
X-20797Y-45866D01*
X-20023Y-47024D01*
X-18866Y-47797D01*
X-17500Y-48069D01*
X-16134Y-47797D01*
X-14977Y-47024D01*
X-14203Y-45866D01*
X-13931Y-44500D01*
X-14087Y-43720D01*
X-14076Y-43719D01*
X-14080Y-43110D01*
X-14203Y-43134D01*
Y-43134D01*
X-14977Y-41977D01*
X-16134Y-41203D01*
X-17500Y-40932D01*
D02*
G37*
G36*
X-290230Y-40342D02*
Y-41230D01*
X-289342D01*
X-289697Y-40698D01*
X-290230Y-40342D01*
D02*
G37*
G36*
X220979Y-24431D02*
X219614Y-24703D01*
X218456Y-25477D01*
X217682Y-26634D01*
X217411Y-28000D01*
X217682Y-29366D01*
X218456Y-30523D01*
X219614Y-31297D01*
X220385Y-31450D01*
X220634Y-32703D01*
X219477Y-33477D01*
X218703Y-34634D01*
X218431Y-36000D01*
X218703Y-37366D01*
X219477Y-38523D01*
X220634Y-39297D01*
X222000Y-39569D01*
X223366Y-39297D01*
X224523Y-38523D01*
X225297Y-37366D01*
X225569Y-36000D01*
X225297Y-34634D01*
X224523Y-33477D01*
X223366Y-32703D01*
X222594Y-32550D01*
X222345Y-31297D01*
X223503Y-30523D01*
X224276Y-29366D01*
X224548Y-28000D01*
X224276Y-26634D01*
X223503Y-25477D01*
X222345Y-24703D01*
X220979Y-24431D01*
D02*
G37*
G36*
X-292770Y-40342D02*
X-293302Y-40698D01*
X-293658Y-41230D01*
X-292770D01*
Y-40342D01*
D02*
G37*
G36*
X3500Y-38932D02*
X2134Y-39203D01*
X977Y-39977D01*
X203Y-41134D01*
X191Y-41197D01*
X-734Y-41815D01*
X-1034Y-41939D01*
X-2134Y-41203D01*
X-3500Y-40932D01*
X-4866Y-41203D01*
X-6023Y-41977D01*
X-6797Y-43134D01*
Y-43134D01*
X-8029Y-42889D01*
X-7951Y-42500D01*
X-8145Y-41525D01*
X-8698Y-40698D01*
X-9230Y-40342D01*
Y-42500D01*
Y-44658D01*
X-8698Y-44303D01*
X-8145Y-43475D01*
Y-43476D01*
X-7693Y-43566D01*
X-7069Y-44500D01*
D01*
X-6797Y-45866D01*
X-6023Y-47024D01*
X-4866Y-47797D01*
X-3500Y-48069D01*
X-2134Y-47797D01*
X-977Y-47024D01*
X-203Y-45866D01*
X-191Y-45803D01*
X734Y-45185D01*
X1033Y-45061D01*
X2134Y-45797D01*
X3500Y-46069D01*
X4866Y-45797D01*
X6023Y-45023D01*
X6797Y-43866D01*
Y-43866D01*
X8029Y-44111D01*
X7951Y-44500D01*
X8145Y-45476D01*
X8698Y-46302D01*
X9230Y-46658D01*
Y-44500D01*
Y-42342D01*
X8698Y-42698D01*
X8145Y-43525D01*
Y-43525D01*
X7693Y-43435D01*
X7068Y-42500D01*
D01*
X6797Y-41134D01*
X6023Y-39977D01*
X4866Y-39203D01*
X3500Y-38932D01*
D02*
G37*
G36*
X-11770Y-40342D02*
X-12302Y-40698D01*
X-12658Y-41230D01*
X-11770D01*
Y-40342D01*
D02*
G37*
G36*
X41730Y-37842D02*
X41198Y-38198D01*
X40842Y-38730D01*
X41730D01*
Y-37842D01*
D02*
G37*
G36*
X77466Y-32534D02*
X76578D01*
X76934Y-33066D01*
X77466Y-33422D01*
Y-32534D01*
D02*
G37*
G36*
X80895D02*
X80006D01*
Y-33422D01*
X80539Y-33066D01*
X80895Y-32534D01*
D02*
G37*
G36*
X-222000Y-20431D02*
X-223366Y-20703D01*
X-224523Y-21477D01*
X-225297Y-22634D01*
X-225569Y-24000D01*
X-225297Y-25366D01*
X-224523Y-26523D01*
X-223366Y-27297D01*
X-222000Y-27569D01*
X-220789Y-27328D01*
X-220084Y-28384D01*
X-220297Y-28703D01*
X-220569Y-30069D01*
X-220297Y-31434D01*
X-219523Y-32592D01*
X-218366Y-33365D01*
X-217000Y-33637D01*
X-215634Y-33365D01*
X-214477Y-32592D01*
X-213703Y-31434D01*
X-213431Y-30069D01*
X-213703Y-28703D01*
X-214477Y-27545D01*
X-215634Y-26772D01*
X-217000Y-26500D01*
X-218211Y-26741D01*
X-218916Y-25685D01*
X-218703Y-25366D01*
X-218431Y-24000D01*
X-218703Y-22634D01*
X-219477Y-21477D01*
X-220634Y-20703D01*
X-222000Y-20431D01*
D02*
G37*
G36*
X44270Y-37842D02*
Y-38730D01*
X45158D01*
X44802Y-38198D01*
X44270Y-37842D01*
D02*
G37*
G36*
X201640Y-20491D02*
X200275Y-20762D01*
X199117Y-21536D01*
X198343Y-22694D01*
X198071Y-24059D01*
X198343Y-25425D01*
X199117Y-26583D01*
X200275Y-27356D01*
X201640Y-27628D01*
X202668Y-27423D01*
X203566Y-28321D01*
X203431Y-29000D01*
X203703Y-30366D01*
X204476Y-31523D01*
X205634Y-32297D01*
X207000Y-32569D01*
X208365Y-32297D01*
X208606Y-32136D01*
X209662Y-32842D01*
X209431Y-34000D01*
X209703Y-35366D01*
X210477Y-36523D01*
X211634Y-37297D01*
X213000Y-37569D01*
X214366Y-37297D01*
X215523Y-36523D01*
X216297Y-35366D01*
X216569Y-34000D01*
X216297Y-32634D01*
X215523Y-31477D01*
X214366Y-30703D01*
X213000Y-30431D01*
X211634Y-30703D01*
X211394Y-30864D01*
X210338Y-30158D01*
X210568Y-29000D01*
X210296Y-27634D01*
X209523Y-26477D01*
X208365Y-25703D01*
X207000Y-25431D01*
X205972Y-25636D01*
X205074Y-24738D01*
X205209Y-24059D01*
X204937Y-22694D01*
X204163Y-21536D01*
X203006Y-20762D01*
X201640Y-20491D01*
D02*
G37*
G36*
X45158Y-41270D02*
X44270D01*
Y-42158D01*
X44802Y-41802D01*
X45158Y-41270D01*
D02*
G37*
G36*
X104770Y-43842D02*
Y-44730D01*
X105658D01*
X105302Y-44198D01*
X104770Y-43842D01*
D02*
G37*
G36*
X-11770Y-43770D02*
X-12658D01*
X-12302Y-44303D01*
X-11770Y-44658D01*
Y-43770D01*
D02*
G37*
G36*
X102230Y-43842D02*
X101698Y-44198D01*
X101342Y-44730D01*
X102230D01*
Y-43842D01*
D02*
G37*
G36*
X12658Y-45770D02*
X11770D01*
Y-46658D01*
X12302Y-46302D01*
X12658Y-45770D01*
D02*
G37*
G36*
X24500Y-38932D02*
X23134Y-39203D01*
X21977Y-39977D01*
X21203Y-41134D01*
X20931Y-42500D01*
X21203Y-43866D01*
X21977Y-45023D01*
X23134Y-45797D01*
X24500Y-46069D01*
X25866Y-45797D01*
X27023Y-45023D01*
X27797Y-43866D01*
X28069Y-42500D01*
X27797Y-41134D01*
X27023Y-39977D01*
X25866Y-39203D01*
X24500Y-38932D01*
D02*
G37*
G36*
X-292770Y-43770D02*
X-293658D01*
X-293302Y-44302D01*
X-292770Y-44658D01*
Y-43770D01*
D02*
G37*
G36*
X-215000Y-35431D02*
X-216366Y-35703D01*
X-217523Y-36477D01*
X-218297Y-37634D01*
X-218569Y-39000D01*
X-218297Y-40366D01*
X-217523Y-41523D01*
X-216366Y-42297D01*
X-215000Y-42569D01*
X-213634Y-42297D01*
X-212477Y-41523D01*
X-211703Y-40366D01*
X-211431Y-39000D01*
X-211703Y-37634D01*
X-212477Y-36477D01*
X-213634Y-35703D01*
X-215000Y-35431D01*
D02*
G37*
G36*
X41730Y-41270D02*
X40842D01*
X41198Y-41802D01*
X41730Y-42158D01*
Y-41270D01*
D02*
G37*
G36*
X11770Y-42342D02*
Y-43230D01*
X12658D01*
X12302Y-42698D01*
X11770Y-42342D01*
D02*
G37*
G36*
X-289342Y-43770D02*
X-290230D01*
Y-44658D01*
X-289697Y-44302D01*
X-289342Y-43770D01*
D02*
G37*
G36*
X265000Y-33931D02*
X263634Y-34203D01*
X262477Y-34977D01*
X261703Y-36134D01*
X261431Y-37500D01*
X261703Y-38866D01*
X262477Y-40023D01*
X263634Y-40797D01*
X265000Y-41069D01*
X265390Y-40991D01*
X266096Y-42047D01*
X265703Y-42634D01*
X265464Y-43835D01*
X264291Y-44321D01*
X263366Y-43703D01*
X262000Y-43431D01*
X260634Y-43703D01*
X259477Y-44477D01*
X258703Y-45634D01*
X258431Y-47000D01*
X258703Y-48366D01*
X259477Y-49523D01*
X260634Y-50297D01*
X262000Y-50569D01*
X263366Y-50297D01*
X264523Y-49523D01*
X265297Y-48366D01*
X265536Y-47165D01*
X266709Y-46679D01*
X267634Y-47297D01*
X269000Y-47569D01*
X270366Y-47297D01*
X271523Y-46523D01*
X272297Y-45366D01*
X272569Y-44000D01*
X272297Y-42634D01*
X271523Y-41477D01*
X270366Y-40703D01*
X269000Y-40431D01*
X268610Y-40509D01*
X267904Y-39453D01*
X268297Y-38866D01*
X268569Y-37500D01*
X268297Y-36134D01*
X267523Y-34977D01*
X266366Y-34203D01*
X265000Y-33931D01*
D02*
G37*
G36*
X-141089Y-81273D02*
Y-82161D01*
X-140201D01*
X-140557Y-81629D01*
X-141089Y-81273D01*
D02*
G37*
G36*
X255730Y-80342D02*
X255198Y-80697D01*
X254842Y-81230D01*
X255730D01*
Y-80342D01*
D02*
G37*
G36*
X-143629Y-81273D02*
X-144161Y-81629D01*
X-144517Y-82161D01*
X-143629D01*
Y-81273D01*
D02*
G37*
G36*
X86658Y-82770D02*
X85770D01*
Y-83658D01*
X86302Y-83302D01*
X86658Y-82770D01*
D02*
G37*
G36*
X-185000Y-68431D02*
X-186366Y-68703D01*
X-187523Y-69477D01*
X-188297Y-70634D01*
X-188569Y-72000D01*
X-188297Y-73366D01*
X-187523Y-74523D01*
X-187259Y-74700D01*
Y-75970D01*
X-187721Y-76279D01*
X-188494Y-77437D01*
X-188766Y-78802D01*
X-188494Y-80168D01*
X-187721Y-81326D01*
X-186563Y-82099D01*
X-185198Y-82371D01*
X-183832Y-82099D01*
X-182674Y-81326D01*
X-181901Y-80168D01*
X-181629Y-78802D01*
X-181901Y-77437D01*
X-182674Y-76279D01*
X-182939Y-76102D01*
Y-74832D01*
X-182477Y-74523D01*
X-181703Y-73366D01*
X-181431Y-72000D01*
X-181703Y-70634D01*
X-182477Y-69477D01*
X-183634Y-68703D01*
X-185000Y-68431D01*
D02*
G37*
G36*
X258270Y-80342D02*
Y-81230D01*
X259158D01*
X258802Y-80697D01*
X258270Y-80342D01*
D02*
G37*
G36*
X85770Y-79342D02*
Y-80230D01*
X86658D01*
X86302Y-79698D01*
X85770Y-79342D01*
D02*
G37*
G36*
X-292770Y-78770D02*
X-293658D01*
X-293302Y-79302D01*
X-292770Y-79658D01*
Y-78770D01*
D02*
G37*
G36*
X83230Y-79342D02*
X82698Y-79698D01*
X82342Y-80230D01*
X83230D01*
Y-79342D01*
D02*
G37*
G36*
X215500Y-73931D02*
X214134Y-74203D01*
X212976Y-74977D01*
X212203Y-76134D01*
X211931Y-77500D01*
X212203Y-78865D01*
X212976Y-80023D01*
X214134Y-80797D01*
X215500Y-81068D01*
X216866Y-80797D01*
X218023Y-80023D01*
X218797Y-78865D01*
X219069Y-77500D01*
X218797Y-76134D01*
X218023Y-74977D01*
X216866Y-74203D01*
X215500Y-73931D01*
D02*
G37*
G36*
X292000D02*
X290634Y-74203D01*
X289477Y-74977D01*
X288703Y-76134D01*
X288431Y-77500D01*
X288703Y-78865D01*
X289477Y-80023D01*
X290634Y-80797D01*
X292000Y-81068D01*
X293366Y-80797D01*
X294523Y-80023D01*
X295297Y-78865D01*
X295569Y-77500D01*
X295297Y-76134D01*
X294523Y-74977D01*
X293366Y-74203D01*
X292000Y-73931D01*
D02*
G37*
G36*
X83230Y-82770D02*
X82342D01*
X82698Y-83302D01*
X83230Y-83658D01*
Y-82770D01*
D02*
G37*
G36*
X270000Y-78931D02*
X268634Y-79203D01*
X267477Y-79977D01*
X266703Y-81134D01*
X266431Y-82500D01*
X266703Y-83865D01*
X267477Y-85023D01*
X268634Y-85797D01*
X270000Y-86068D01*
X271366Y-85797D01*
X272523Y-85023D01*
X273297Y-83865D01*
X273569Y-82500D01*
X273297Y-81134D01*
X272523Y-79977D01*
X271366Y-79203D01*
X270000Y-78931D01*
D02*
G37*
G36*
X-143629Y-84701D02*
X-144517D01*
X-144161Y-85234D01*
X-143629Y-85590D01*
Y-84701D01*
D02*
G37*
G36*
X293270Y-85342D02*
Y-86230D01*
X294158D01*
X293802Y-85697D01*
X293270Y-85342D01*
D02*
G37*
G36*
X149000Y-79431D02*
X147634Y-79703D01*
X146477Y-80477D01*
X145703Y-81634D01*
X145431Y-83000D01*
X145703Y-84366D01*
X146477Y-85523D01*
X147634Y-86297D01*
X149000Y-86569D01*
X150366Y-86297D01*
X151523Y-85523D01*
X152297Y-84366D01*
X152569Y-83000D01*
X152297Y-81634D01*
X151523Y-80477D01*
X150366Y-79703D01*
X149000Y-79431D01*
D02*
G37*
G36*
X290730Y-85342D02*
X290198Y-85697D01*
X289842Y-86230D01*
X290730D01*
Y-85342D01*
D02*
G37*
G36*
X-140201Y-84701D02*
X-141089D01*
Y-85590D01*
X-140557Y-85234D01*
X-140201Y-84701D01*
D02*
G37*
G36*
X255730Y-83770D02*
X254842D01*
X255198Y-84302D01*
X255730Y-84658D01*
Y-83770D01*
D02*
G37*
G36*
X259158D02*
X258270D01*
Y-84658D01*
X258802Y-84302D01*
X259158Y-83770D01*
D02*
G37*
G36*
X184583Y-83842D02*
Y-84730D01*
X185471D01*
X185115Y-84198D01*
X184583Y-83842D01*
D02*
G37*
G36*
X170678Y-77620D02*
X169312Y-77892D01*
X168154Y-78665D01*
X167381Y-79823D01*
X167109Y-81188D01*
X167381Y-82554D01*
X168154Y-83712D01*
X169312Y-84485D01*
X170678Y-84757D01*
X172043Y-84485D01*
X173201Y-83712D01*
X173975Y-82554D01*
X174246Y-81188D01*
X173975Y-79823D01*
X173201Y-78665D01*
X172043Y-77892D01*
X170678Y-77620D01*
D02*
G37*
G36*
X182043Y-83842D02*
X181510Y-84198D01*
X181155Y-84730D01*
X182043D01*
Y-83842D01*
D02*
G37*
G36*
X-289342Y-78770D02*
X-290230D01*
Y-79658D01*
X-289697Y-79302D01*
X-289342Y-78770D01*
D02*
G37*
G36*
X54009Y-66567D02*
X53121D01*
Y-67455D01*
X53653Y-67099D01*
X54009Y-66567D01*
D02*
G37*
G36*
X-80270Y-65842D02*
X-80802Y-66198D01*
X-81158Y-66730D01*
X-80270D01*
Y-65842D01*
D02*
G37*
G36*
X50581Y-66567D02*
X49693D01*
X50048Y-67099D01*
X50581Y-67455D01*
Y-66567D01*
D02*
G37*
G36*
X261770Y-67842D02*
Y-68730D01*
X262658D01*
X262302Y-68198D01*
X261770Y-67842D01*
D02*
G37*
G36*
X269000Y-61431D02*
X267634Y-61703D01*
X266477Y-62477D01*
X265703Y-63634D01*
X265431Y-65000D01*
X265703Y-66366D01*
X266477Y-67523D01*
X267634Y-68297D01*
X269000Y-68569D01*
X270366Y-68297D01*
X271523Y-67523D01*
X272297Y-66366D01*
X272569Y-65000D01*
X272297Y-63634D01*
X271523Y-62477D01*
X270366Y-61703D01*
X269000Y-61431D01*
D02*
G37*
G36*
X-77730Y-65842D02*
Y-66730D01*
X-76842D01*
X-77198Y-66198D01*
X-77730Y-65842D01*
D02*
G37*
G36*
X53121Y-63139D02*
Y-64027D01*
X54009D01*
X53653Y-63495D01*
X53121Y-63139D01*
D02*
G37*
G36*
X-109270Y-61270D02*
X-110158D01*
X-109802Y-61802D01*
X-109270Y-62158D01*
Y-61270D01*
D02*
G37*
G36*
X50581Y-63139D02*
X50048Y-63495D01*
X49693Y-64027D01*
X50581D01*
Y-63139D01*
D02*
G37*
G36*
X120000Y-57431D02*
X118634Y-57703D01*
X117477Y-58477D01*
X116703Y-59634D01*
X116431Y-61000D01*
X116703Y-62366D01*
X117477Y-63523D01*
X118634Y-64297D01*
X120000Y-64569D01*
X121366Y-64297D01*
X122523Y-63523D01*
X123297Y-62366D01*
X123569Y-61000D01*
X123297Y-59634D01*
X122523Y-58477D01*
X121366Y-57703D01*
X120000Y-57431D01*
D02*
G37*
G36*
X211500Y-56931D02*
X210134Y-57203D01*
X208977Y-57977D01*
X208203Y-59134D01*
X207931Y-60500D01*
X208203Y-61866D01*
X208977Y-63023D01*
X210134Y-63797D01*
X211500Y-64069D01*
X212866Y-63797D01*
X214023Y-63023D01*
X214797Y-61866D01*
X215069Y-60500D01*
X214797Y-59134D01*
X214023Y-57977D01*
X212866Y-57203D01*
X211500Y-56931D01*
D02*
G37*
G36*
X259230Y-67842D02*
X258698Y-68198D01*
X258342Y-68730D01*
X259230D01*
Y-67842D01*
D02*
G37*
G36*
X133178Y-68682D02*
X131812Y-68953D01*
X130654Y-69727D01*
X129881Y-70884D01*
X129609Y-72250D01*
X129881Y-73616D01*
X130654Y-74774D01*
X131812Y-75547D01*
X133178Y-75819D01*
X134544Y-75547D01*
X135701Y-74774D01*
X136475Y-73616D01*
X136746Y-72250D01*
X136475Y-70884D01*
X135701Y-69727D01*
X134544Y-68953D01*
X133178Y-68682D01*
D02*
G37*
G36*
X188178Y-66431D02*
X186812Y-66703D01*
X185654Y-67477D01*
X184881Y-68635D01*
X184609Y-70000D01*
X184881Y-71366D01*
X185654Y-72523D01*
X186812Y-73297D01*
X188178Y-73569D01*
X189543Y-73297D01*
X190701Y-72523D01*
X191475Y-71366D01*
X191746Y-70000D01*
X191475Y-68635D01*
X190701Y-67477D01*
X189543Y-66703D01*
X188178Y-66431D01*
D02*
G37*
G36*
X-290230Y-75342D02*
Y-76230D01*
X-289342D01*
X-289697Y-75697D01*
X-290230Y-75342D01*
D02*
G37*
G36*
X-201101Y-69931D02*
X-202467Y-70203D01*
X-203624Y-70977D01*
X-204398Y-72134D01*
X-204669Y-73500D01*
X-204398Y-74866D01*
X-203624Y-76023D01*
X-202467Y-76797D01*
X-201101Y-77069D01*
X-199735Y-76797D01*
X-198578Y-76023D01*
X-197804Y-74866D01*
X-197532Y-73500D01*
X-197804Y-72134D01*
X-198578Y-70977D01*
X-199735Y-70203D01*
X-201101Y-69931D01*
D02*
G37*
G36*
X-292770Y-75342D02*
X-293302Y-75697D01*
X-293658Y-76230D01*
X-292770D01*
Y-75342D01*
D02*
G37*
G36*
X213657Y-65431D02*
X212291Y-65703D01*
X211133Y-66477D01*
X210360Y-67634D01*
X210088Y-69000D01*
X210360Y-70366D01*
X211133Y-71523D01*
X212291Y-72297D01*
X213657Y-72569D01*
X215023Y-72297D01*
X216180Y-71523D01*
X216954Y-70366D01*
X217225Y-69000D01*
X216954Y-67634D01*
X216180Y-66477D01*
X215023Y-65703D01*
X213657Y-65431D01*
D02*
G37*
G36*
X-76842Y-69270D02*
X-77730D01*
Y-70158D01*
X-77198Y-69802D01*
X-76842Y-69270D01*
D02*
G37*
G36*
X-2000Y-62431D02*
X-3366Y-62703D01*
X-4523Y-63477D01*
X-5297Y-64634D01*
X-5569Y-66000D01*
X-5297Y-67366D01*
X-4523Y-68523D01*
X-3366Y-69297D01*
X-2000Y-69569D01*
X-634Y-69297D01*
X523Y-68523D01*
X1297Y-67366D01*
X1569Y-66000D01*
X1297Y-64634D01*
X523Y-63477D01*
X-634Y-62703D01*
X-2000Y-62431D01*
D02*
G37*
G36*
X-80270Y-69270D02*
X-81158D01*
X-80802Y-69802D01*
X-80270Y-70158D01*
Y-69270D01*
D02*
G37*
G36*
X259230Y-71270D02*
X258342D01*
X258698Y-71802D01*
X259230Y-72158D01*
Y-71270D01*
D02*
G37*
G36*
X262658D02*
X261770D01*
Y-72158D01*
X262302Y-71802D01*
X262658Y-71270D01*
D02*
G37*
G36*
X260500Y-24431D02*
X259134Y-24703D01*
X257977Y-25477D01*
X257203Y-26634D01*
X256931Y-28000D01*
X257203Y-29366D01*
X257977Y-30523D01*
X259134Y-31297D01*
X260500Y-31569D01*
X261866Y-31297D01*
X263023Y-30523D01*
X263797Y-29366D01*
X264069Y-28000D01*
X263797Y-26634D01*
X263023Y-25477D01*
X261866Y-24703D01*
X260500Y-24431D01*
D02*
G37*
G36*
X6230Y-4770D02*
X5342D01*
X5698Y-5302D01*
X6230Y-5658D01*
Y-4770D01*
D02*
G37*
G36*
X9658D02*
X8770D01*
Y-5658D01*
X9302Y-5302D01*
X9658Y-4770D01*
D02*
G37*
G36*
X-48013Y69D02*
X-49379Y-203D01*
X-50536Y-977D01*
X-51310Y-2134D01*
X-51582Y-3500D01*
X-51310Y-4866D01*
X-50536Y-6023D01*
X-49379Y-6797D01*
X-48013Y-7069D01*
X-46648Y-6797D01*
X-45490Y-6023D01*
X-44716Y-4866D01*
X-44444Y-3500D01*
X-44716Y-2134D01*
X-45490Y-977D01*
X-46648Y-203D01*
X-48013Y69D01*
D02*
G37*
G36*
X255730Y-6270D02*
X254842D01*
X255198Y-6802D01*
X255730Y-7158D01*
Y-6270D01*
D02*
G37*
G36*
X259158D02*
X258270D01*
Y-7158D01*
X258802Y-6802D01*
X259158Y-6270D01*
D02*
G37*
G36*
X160632Y1702D02*
X159266Y1431D01*
X158109Y657D01*
X157335Y-501D01*
X157063Y-1866D01*
X157335Y-3232D01*
X158109Y-4390D01*
X159266Y-5163D01*
X160632Y-5435D01*
X161998Y-5163D01*
X163155Y-4390D01*
X163929Y-3232D01*
X164200Y-1866D01*
X163929Y-501D01*
X163155Y657D01*
X161998Y1431D01*
X160632Y1702D01*
D02*
G37*
G36*
X-147270Y-2270D02*
X-148158D01*
X-147802Y-2802D01*
X-147270Y-3158D01*
Y-2270D01*
D02*
G37*
G36*
X-143842D02*
X-144730D01*
Y-3158D01*
X-144198Y-2802D01*
X-143842Y-2270D01*
D02*
G37*
G36*
X148000Y3569D02*
X146634Y3297D01*
X145477Y2523D01*
X144703Y1366D01*
X144431Y0D01*
X144703Y-1366D01*
X145477Y-2523D01*
X146634Y-3297D01*
X148000Y-3569D01*
X149366Y-3297D01*
X150523Y-2523D01*
X151297Y-1366D01*
X151569Y0D01*
X151297Y1366D01*
X150523Y2523D01*
X149366Y3297D01*
X148000Y3569D01*
D02*
G37*
G36*
X255730Y-2842D02*
X255198Y-3198D01*
X254842Y-3730D01*
X255730D01*
Y-2842D01*
D02*
G37*
G36*
X258270D02*
Y-3730D01*
X259158D01*
X258802Y-3198D01*
X258270Y-2842D01*
D02*
G37*
G36*
X-42230Y-8342D02*
Y-9230D01*
X-41342D01*
X-41698Y-8698D01*
X-42230Y-8342D01*
D02*
G37*
G36*
X-41342Y-11770D02*
X-42230D01*
Y-12658D01*
X-41698Y-12302D01*
X-41342Y-11770D01*
D02*
G37*
G36*
X-292770Y-10342D02*
X-293302Y-10698D01*
X-293658Y-11230D01*
X-292770D01*
Y-10342D01*
D02*
G37*
G36*
X-44770Y-11770D02*
X-45658D01*
X-45302Y-12302D01*
X-44770Y-12658D01*
Y-11770D01*
D02*
G37*
G36*
X65230Y-12270D02*
X64342D01*
X64698Y-12802D01*
X65230Y-13158D01*
Y-12270D01*
D02*
G37*
G36*
X68658D02*
X67770D01*
Y-13158D01*
X68302Y-12802D01*
X68658Y-12270D01*
D02*
G37*
G36*
X-290230Y-10342D02*
Y-11230D01*
X-289342D01*
X-289697Y-10698D01*
X-290230Y-10342D01*
D02*
G37*
G36*
X67770Y-8842D02*
Y-9730D01*
X68658D01*
X68302Y-9198D01*
X67770Y-8842D01*
D02*
G37*
G36*
X-44770Y-8342D02*
X-45302Y-8698D01*
X-45658Y-9230D01*
X-44770D01*
Y-8342D01*
D02*
G37*
G36*
X65230Y-8842D02*
X64698Y-9198D01*
X64342Y-9730D01*
X65230D01*
Y-8842D01*
D02*
G37*
G36*
X19730Y-9842D02*
X19198Y-10198D01*
X18842Y-10730D01*
X19730D01*
Y-9842D01*
D02*
G37*
G36*
X22270D02*
Y-10730D01*
X23158D01*
X22802Y-10198D01*
X22270Y-9842D01*
D02*
G37*
G36*
X206000Y4069D02*
X204634Y3797D01*
X203477Y3023D01*
X202703Y1866D01*
X202432Y500D01*
X202703Y-866D01*
X203477Y-2023D01*
X204634Y-2797D01*
X206000Y-3069D01*
X207366Y-2797D01*
X208523Y-2023D01*
X209297Y-866D01*
X209569Y500D01*
X209297Y1866D01*
X208523Y3023D01*
X207366Y3797D01*
X206000Y4069D01*
D02*
G37*
G36*
X261730Y2158D02*
X261198Y1802D01*
X260842Y1270D01*
X261730D01*
Y2158D01*
D02*
G37*
G36*
X264270D02*
Y1270D01*
X265158D01*
X264802Y1802D01*
X264270Y2158D01*
D02*
G37*
G36*
X-159842Y1730D02*
X-160730D01*
Y842D01*
X-160198Y1198D01*
X-159842Y1730D01*
D02*
G37*
G36*
X-180842D02*
X-181730D01*
Y842D01*
X-181198Y1198D01*
X-180842Y1730D01*
D02*
G37*
G36*
X-163270D02*
X-164158D01*
X-163802Y1198D01*
X-163270Y842D01*
Y1730D01*
D02*
G37*
G36*
X213000Y8569D02*
X211634Y8297D01*
X210477Y7523D01*
X209703Y6366D01*
X209431Y5000D01*
X209703Y3634D01*
X210477Y2477D01*
X211634Y1703D01*
X213000Y1431D01*
X214366Y1703D01*
X215523Y2477D01*
X216297Y3634D01*
X216569Y5000D01*
X216297Y6366D01*
X215523Y7523D01*
X214366Y8297D01*
X213000Y8569D01*
D02*
G37*
G36*
X-184270Y5158D02*
X-184802Y4802D01*
X-185158Y4270D01*
X-184270D01*
Y5158D01*
D02*
G37*
G36*
X-181730D02*
Y4270D01*
X-180842D01*
X-181198Y4802D01*
X-181730Y5158D01*
D02*
G37*
G36*
X292000Y11069D02*
X290634Y10797D01*
X289477Y10023D01*
X288703Y8866D01*
X288431Y7500D01*
X288703Y6134D01*
X289477Y4977D01*
X290634Y4203D01*
X292000Y3931D01*
X293366Y4203D01*
X294523Y4977D01*
X295297Y6134D01*
X295569Y7500D01*
X295297Y8866D01*
X294523Y10023D01*
X293366Y10797D01*
X292000Y11069D01*
D02*
G37*
G36*
X255730Y3000D02*
X254842D01*
X255198Y2468D01*
X255730Y2112D01*
Y3000D01*
D02*
G37*
G36*
X259158D02*
X258270D01*
Y2112D01*
X258802Y2468D01*
X259158Y3000D01*
D02*
G37*
G36*
X-184270Y1730D02*
X-185158D01*
X-184802Y1198D01*
X-184270Y842D01*
Y1730D01*
D02*
G37*
G36*
X265158Y-1270D02*
X264270D01*
Y-2158D01*
X264802Y-1802D01*
X265158Y-1270D01*
D02*
G37*
G36*
X-26730Y49299D02*
X-28096Y49027D01*
X-29253Y48253D01*
X-30027Y47096D01*
X-30111Y46675D01*
X-67163Y9623D01*
X-67826Y8630D01*
X-68059Y7460D01*
X-68059Y7460D01*
Y-13733D01*
X-94267Y-39941D01*
X-191020D01*
X-192190Y-40174D01*
X-192588Y-40440D01*
X-193183Y-40837D01*
X-193183Y-40837D01*
X-231787Y-79441D01*
X-233028D01*
X-233384Y-79203D01*
X-234750Y-78931D01*
X-236116Y-79203D01*
X-237273Y-79977D01*
X-238047Y-81134D01*
X-238319Y-82500D01*
X-238047Y-83865D01*
X-237273Y-85023D01*
X-236116Y-85797D01*
X-234750Y-86068D01*
X-234750Y-86068D01*
X-234750Y-86068D01*
X-234135Y-86094D01*
X-233350Y-87092D01*
X-233431Y-87500D01*
X-233296Y-88181D01*
X-234194Y-89079D01*
X-234556Y-89007D01*
X-235922Y-89278D01*
X-237080Y-90052D01*
X-237853Y-91209D01*
X-238125Y-92575D01*
X-237853Y-93941D01*
X-237080Y-95098D01*
X-235922Y-95872D01*
X-234556Y-96144D01*
X-233191Y-95872D01*
X-232033Y-95098D01*
X-231259Y-93941D01*
X-230988Y-92575D01*
X-231123Y-91894D01*
X-230225Y-90996D01*
X-229863Y-91068D01*
X-228497Y-90797D01*
X-227339Y-90023D01*
X-226566Y-88865D01*
X-226482Y-88445D01*
X-188096Y-50059D01*
X-91343D01*
X-91343Y-50059D01*
X-90173Y-49826D01*
X-89180Y-49163D01*
X-58837Y-18820D01*
X-58174Y-17827D01*
X-57941Y-16657D01*
X-57941Y-16657D01*
Y911D01*
X-56726Y1280D01*
X-56523Y977D01*
X-55366Y203D01*
X-54000Y-69D01*
X-52634Y203D01*
X-51477Y977D01*
X-50703Y2134D01*
X-50431Y3500D01*
X-50703Y4866D01*
X-51477Y6023D01*
X-52547Y6739D01*
X-52672Y8003D01*
X-30055Y30619D01*
X-29634Y30703D01*
X-28477Y31477D01*
X-27703Y32634D01*
X-27431Y34000D01*
X-27703Y35366D01*
X-28477Y36523D01*
X-29523Y37223D01*
X-29648Y38487D01*
X-25785Y42349D01*
X-25364Y42433D01*
X-24207Y43207D01*
X-23433Y44364D01*
X-23161Y45730D01*
X-23433Y47096D01*
X-24207Y48253D01*
X-25364Y49027D01*
X-26730Y49299D01*
D02*
G37*
G36*
X261730Y-1270D02*
X260842D01*
X261198Y-1802D01*
X261730Y-2158D01*
Y-1270D01*
D02*
G37*
G36*
X6230Y-1342D02*
X5698Y-1698D01*
X5342Y-2230D01*
X6230D01*
Y-1342D01*
D02*
G37*
G36*
X8770D02*
Y-2230D01*
X9658D01*
X9302Y-1698D01*
X8770Y-1342D01*
D02*
G37*
G36*
X-147270Y1158D02*
X-147802Y802D01*
X-148158Y270D01*
X-147270D01*
Y1158D01*
D02*
G37*
G36*
X98730Y16962D02*
X96471Y16739D01*
X93078Y15710D01*
X89951Y14039D01*
X87211Y11789D01*
X84961Y9049D01*
X83290Y5922D01*
X82261Y2529D01*
X82038Y270D01*
X98730D01*
Y16962D01*
D02*
G37*
G36*
X101270D02*
Y270D01*
X117962D01*
X117739Y2529D01*
X116710Y5922D01*
X115039Y9049D01*
X112789Y11789D01*
X110049Y14039D01*
X106922Y15710D01*
X103529Y16739D01*
X101270Y16962D01*
D02*
G37*
G36*
X-98730D02*
Y270D01*
X-82038D01*
X-82261Y2529D01*
X-83290Y5922D01*
X-84961Y9049D01*
X-87211Y11789D01*
X-89951Y14039D01*
X-93078Y15710D01*
X-96471Y16739D01*
X-98730Y16962D01*
D02*
G37*
G36*
X-144730Y1158D02*
Y270D01*
X-143842D01*
X-144198Y802D01*
X-144730Y1158D01*
D02*
G37*
G36*
X-101270Y16962D02*
X-103529Y16739D01*
X-106922Y15710D01*
X-110049Y14039D01*
X-112789Y11789D01*
X-115039Y9049D01*
X-116710Y5922D01*
X-117739Y2529D01*
X-117962Y270D01*
X-101270D01*
Y16962D01*
D02*
G37*
G36*
X156270Y-22176D02*
Y-23064D01*
X157158D01*
X156802Y-22531D01*
X156270Y-22176D01*
D02*
G37*
G36*
X-165270Y-21842D02*
X-165802Y-22198D01*
X-166158Y-22730D01*
X-165270D01*
Y-21842D01*
D02*
G37*
G36*
X153730Y-22176D02*
X153198Y-22531D01*
X152842Y-23064D01*
X153730D01*
Y-22176D01*
D02*
G37*
G36*
X165362Y-22210D02*
X164830Y-22566D01*
X164474Y-23098D01*
X165362D01*
Y-22210D01*
D02*
G37*
G36*
X167902D02*
Y-23098D01*
X168790D01*
X168434Y-22566D01*
X167902Y-22210D01*
D02*
G37*
G36*
X-162730Y-21842D02*
Y-22730D01*
X-161842D01*
X-162198Y-22198D01*
X-162730Y-21842D01*
D02*
G37*
G36*
X224000Y-13931D02*
X222634Y-14203D01*
X221477Y-14977D01*
X220703Y-16134D01*
X220431Y-17500D01*
X220703Y-18866D01*
X221477Y-20023D01*
X222634Y-20797D01*
X224000Y-21068D01*
X225366Y-20797D01*
X226523Y-20023D01*
X227297Y-18866D01*
X227569Y-17500D01*
X227297Y-16134D01*
X226523Y-14977D01*
X225366Y-14203D01*
X224000Y-13931D01*
D02*
G37*
G36*
X236000D02*
X234634Y-14203D01*
X233477Y-14977D01*
X232703Y-16134D01*
X232431Y-17500D01*
X232703Y-18866D01*
X233477Y-20023D01*
X234634Y-20797D01*
X236000Y-21068D01*
X237366Y-20797D01*
X238523Y-20023D01*
X239297Y-18866D01*
X239569Y-17500D01*
X239297Y-16134D01*
X238523Y-14977D01*
X237366Y-14203D01*
X236000Y-13931D01*
D02*
G37*
G36*
X292730Y-20270D02*
X291842D01*
X292198Y-20802D01*
X292730Y-21158D01*
Y-20270D01*
D02*
G37*
G36*
X174730Y-21842D02*
X174198Y-22198D01*
X173842Y-22730D01*
X174730D01*
Y-21842D01*
D02*
G37*
G36*
X177270D02*
Y-22730D01*
X178158D01*
X177802Y-22198D01*
X177270Y-21842D01*
D02*
G37*
G36*
X178158Y-25270D02*
X177270D01*
Y-26158D01*
X177802Y-25802D01*
X178158Y-25270D01*
D02*
G37*
G36*
X43000Y-20931D02*
X41634Y-21203D01*
X40477Y-21977D01*
X39703Y-23134D01*
X39431Y-24500D01*
X39703Y-25866D01*
X40477Y-27023D01*
X41634Y-27797D01*
X43000Y-28069D01*
X44366Y-27797D01*
X45523Y-27023D01*
X46297Y-25866D01*
X46569Y-24500D01*
X46297Y-23134D01*
X45523Y-21977D01*
X44366Y-21203D01*
X43000Y-20931D01*
D02*
G37*
G36*
X165362Y-25638D02*
X164474D01*
X164830Y-26170D01*
X165362Y-26526D01*
Y-25638D01*
D02*
G37*
G36*
X80006Y-29105D02*
Y-29994D01*
X80895D01*
X80539Y-29461D01*
X80006Y-29105D01*
D02*
G37*
G36*
X236000Y-23931D02*
X234634Y-24203D01*
X233477Y-24977D01*
X232703Y-26134D01*
X232431Y-27500D01*
X232703Y-28866D01*
X233477Y-30023D01*
X234634Y-30797D01*
X236000Y-31068D01*
X237366Y-30797D01*
X238523Y-30023D01*
X239297Y-28866D01*
X239569Y-27500D01*
X239297Y-26134D01*
X238523Y-24977D01*
X237366Y-24203D01*
X236000Y-23931D01*
D02*
G37*
G36*
X77466Y-29105D02*
X76934Y-29461D01*
X76578Y-29994D01*
X77466D01*
Y-29105D01*
D02*
G37*
G36*
X168790Y-25638D02*
X167902D01*
Y-26526D01*
X168434Y-26170D01*
X168790Y-25638D01*
D02*
G37*
G36*
X-161842Y-25270D02*
X-162730D01*
Y-26158D01*
X-162198Y-25802D01*
X-161842Y-25270D01*
D02*
G37*
G36*
X174730D02*
X173842D01*
X174198Y-25802D01*
X174730Y-26158D01*
Y-25270D01*
D02*
G37*
G36*
X-165270D02*
X-166158D01*
X-165802Y-25802D01*
X-165270Y-26158D01*
Y-25270D01*
D02*
G37*
G36*
X153730Y-25604D02*
X152842D01*
X153198Y-26136D01*
X153730Y-26492D01*
Y-25604D01*
D02*
G37*
G36*
X157158D02*
X156270D01*
Y-26492D01*
X156802Y-26136D01*
X157158Y-25604D01*
D02*
G37*
G36*
X-153270Y-19270D02*
X-154158D01*
X-153802Y-19802D01*
X-153270Y-20158D01*
Y-19270D01*
D02*
G37*
G36*
X-6270Y-14273D02*
X-6802Y-14629D01*
X-7158Y-15161D01*
X-6270D01*
Y-14273D01*
D02*
G37*
G36*
X-3730D02*
Y-15161D01*
X-2842D01*
X-3198Y-14629D01*
X-3730Y-14273D01*
D02*
G37*
G36*
X259500Y-8931D02*
X258134Y-9203D01*
X256977Y-9977D01*
X256203Y-11134D01*
X255931Y-12500D01*
X256203Y-13866D01*
X256977Y-15023D01*
X258134Y-15797D01*
X259500Y-16069D01*
X260866Y-15797D01*
X262023Y-15023D01*
X262797Y-13866D01*
X263069Y-12500D01*
X262797Y-11134D01*
X262023Y-9977D01*
X260866Y-9203D01*
X259500Y-8931D01*
D02*
G37*
G36*
X-271670Y-15342D02*
X-272203Y-15698D01*
X-272558Y-16230D01*
X-271670D01*
Y-15342D01*
D02*
G37*
G36*
X-269130D02*
Y-16230D01*
X-268242D01*
X-268598Y-15698D01*
X-269130Y-15342D01*
D02*
G37*
G36*
X-292770Y-13770D02*
X-293658D01*
X-293302Y-14302D01*
X-292770Y-14658D01*
Y-13770D01*
D02*
G37*
G36*
X-21000Y-7431D02*
X-22366Y-7703D01*
X-23523Y-8477D01*
X-24297Y-9634D01*
X-24569Y-11000D01*
X-24297Y-12366D01*
X-23828Y-13068D01*
X-24533Y-14124D01*
X-25500Y-13931D01*
X-26866Y-14203D01*
X-28023Y-14977D01*
X-28797Y-16134D01*
X-29069Y-17500D01*
X-28797Y-18866D01*
X-28023Y-20023D01*
X-26866Y-20797D01*
X-25500Y-21069D01*
X-24134Y-20797D01*
X-22977Y-20023D01*
X-22203Y-18866D01*
X-21931Y-17500D01*
X-22203Y-16134D01*
X-22672Y-15432D01*
X-21967Y-14376D01*
X-21000Y-14569D01*
X-19634Y-14297D01*
X-18477Y-13523D01*
X-17703Y-12366D01*
X-17431Y-11000D01*
X-17703Y-9634D01*
X-18477Y-8477D01*
X-19634Y-7703D01*
X-21000Y-7431D01*
D02*
G37*
G36*
X43500Y-6931D02*
X42134Y-7203D01*
X40977Y-7977D01*
X40203Y-9134D01*
X39931Y-10500D01*
X40203Y-11866D01*
X40977Y-13023D01*
X42134Y-13797D01*
X43500Y-14069D01*
X44866Y-13797D01*
X46023Y-13023D01*
X46797Y-11866D01*
X47069Y-10500D01*
X46797Y-9134D01*
X46023Y-7977D01*
X44866Y-7203D01*
X43500Y-6931D01*
D02*
G37*
G36*
X23158Y-13270D02*
X22270D01*
Y-14158D01*
X22802Y-13802D01*
X23158Y-13270D01*
D02*
G37*
G36*
X-289342Y-13770D02*
X-290230D01*
Y-14658D01*
X-289697Y-14302D01*
X-289342Y-13770D01*
D02*
G37*
G36*
X19730Y-13270D02*
X18842D01*
X19198Y-13802D01*
X19730Y-14158D01*
Y-13270D01*
D02*
G37*
G36*
X-150730Y-15842D02*
Y-16730D01*
X-149842D01*
X-150198Y-16198D01*
X-150730Y-15842D01*
D02*
G37*
G36*
X-101270Y-2270D02*
X-117962D01*
X-117739Y-4529D01*
X-116710Y-7922D01*
X-115039Y-11049D01*
X-112789Y-13789D01*
X-110049Y-16039D01*
X-106922Y-17710D01*
X-103529Y-18740D01*
X-101270Y-18962D01*
Y-2270D01*
D02*
G37*
G36*
X-82038D02*
X-98730D01*
Y-18962D01*
X-96471Y-18740D01*
X-93078Y-17710D01*
X-89951Y-16039D01*
X-87211Y-13789D01*
X-84961Y-11049D01*
X-83290Y-7922D01*
X-82261Y-4529D01*
X-82038Y-2270D01*
D02*
G37*
G36*
X-268242Y-18770D02*
X-269130D01*
Y-19658D01*
X-268598Y-19302D01*
X-268242Y-18770D01*
D02*
G37*
G36*
X-149842Y-19270D02*
X-150730D01*
Y-20158D01*
X-150198Y-19802D01*
X-149842Y-19270D01*
D02*
G37*
G36*
X-271670Y-18770D02*
X-272558D01*
X-272203Y-19302D01*
X-271670Y-19658D01*
Y-18770D01*
D02*
G37*
G36*
X98730Y-2270D02*
X82038D01*
X82261Y-4529D01*
X83290Y-7922D01*
X84961Y-11049D01*
X87211Y-13789D01*
X89951Y-16039D01*
X93078Y-17710D01*
X96471Y-18740D01*
X98730Y-18962D01*
Y-2270D01*
D02*
G37*
G36*
X292730Y-16842D02*
X292198Y-17198D01*
X291842Y-17730D01*
X292730D01*
Y-16842D01*
D02*
G37*
G36*
X-153270Y-15842D02*
X-153802Y-16198D01*
X-154158Y-16730D01*
X-153270D01*
Y-15842D01*
D02*
G37*
G36*
X-2842Y-17701D02*
X-3730D01*
Y-18590D01*
X-3198Y-18234D01*
X-2842Y-17701D01*
D02*
G37*
G36*
X117962Y-2270D02*
X101270D01*
Y-18962D01*
X103529Y-18740D01*
X106922Y-17710D01*
X110049Y-16039D01*
X112789Y-13789D01*
X115039Y-11049D01*
X116710Y-7922D01*
X117739Y-4529D01*
X117962Y-2270D01*
D02*
G37*
G36*
X-6270Y-17701D02*
X-7158D01*
X-6802Y-18234D01*
X-6270Y-18590D01*
Y-17701D01*
D02*
G37*
G36*
X-66842Y-149270D02*
X-67730D01*
Y-150158D01*
X-67198Y-149802D01*
X-66842Y-149270D01*
D02*
G37*
G36*
X-245270Y-148270D02*
X-246158D01*
X-245802Y-148802D01*
X-245270Y-149158D01*
Y-148270D01*
D02*
G37*
G36*
X-70270Y-149270D02*
X-71158D01*
X-70802Y-149802D01*
X-70270Y-150158D01*
Y-149270D01*
D02*
G37*
G36*
X238730Y-151270D02*
X237842D01*
X238198Y-151802D01*
X238730Y-152158D01*
Y-151270D01*
D02*
G37*
G36*
X242158D02*
X241270D01*
Y-152158D01*
X241802Y-151802D01*
X242158Y-151270D01*
D02*
G37*
G36*
X-241842Y-148270D02*
X-242730D01*
Y-149158D01*
X-242198Y-148802D01*
X-241842Y-148270D01*
D02*
G37*
G36*
X241270Y-147842D02*
Y-148730D01*
X242158D01*
X241802Y-148198D01*
X241270Y-147842D01*
D02*
G37*
G36*
X-70270Y-145842D02*
X-70802Y-146198D01*
X-71158Y-146730D01*
X-70270D01*
Y-145842D01*
D02*
G37*
G36*
X238730Y-147842D02*
X238198Y-148198D01*
X237842Y-148730D01*
X238730D01*
Y-147842D01*
D02*
G37*
G36*
X69730Y-148270D02*
X68842D01*
X69198Y-148802D01*
X69730Y-149158D01*
Y-148270D01*
D02*
G37*
G36*
X73158D02*
X72270D01*
Y-149158D01*
X72802Y-148802D01*
X73158Y-148270D01*
D02*
G37*
G36*
X124750Y-151681D02*
X123384Y-151953D01*
X122227Y-152727D01*
X121453Y-153884D01*
X121181Y-155250D01*
X121453Y-156616D01*
X122227Y-157773D01*
X123384Y-158547D01*
X124750Y-158819D01*
X126116Y-158547D01*
X127273Y-157773D01*
X128047Y-156616D01*
X128319Y-155250D01*
X128047Y-153884D01*
X127273Y-152727D01*
X126116Y-151953D01*
X124750Y-151681D01*
D02*
G37*
G36*
X-44380Y-157431D02*
X-45746Y-157703D01*
X-46903Y-158477D01*
X-47677Y-159634D01*
X-47949Y-161000D01*
X-47677Y-162366D01*
X-46903Y-163523D01*
X-45746Y-164297D01*
X-44380Y-164569D01*
X-43014Y-164297D01*
X-41857Y-163523D01*
X-41083Y-162366D01*
X-40811Y-161000D01*
X-41083Y-159634D01*
X-41857Y-158477D01*
X-43014Y-157703D01*
X-44380Y-157431D01*
D02*
G37*
G36*
X-19000D02*
X-20366Y-157703D01*
X-21523Y-158477D01*
X-22297Y-159634D01*
X-22569Y-161000D01*
X-22297Y-162366D01*
X-21523Y-163523D01*
X-20366Y-164297D01*
X-19000Y-164569D01*
X-17634Y-164297D01*
X-16477Y-163523D01*
X-15703Y-162366D01*
X-15431Y-161000D01*
X-15703Y-159634D01*
X-16477Y-158477D01*
X-17634Y-157703D01*
X-19000Y-157431D01*
D02*
G37*
G36*
X84933Y-164844D02*
Y-165732D01*
X85821D01*
X85465Y-165199D01*
X84933Y-164844D01*
D02*
G37*
G36*
X173158Y-165270D02*
X172270D01*
Y-166158D01*
X172802Y-165802D01*
X173158Y-165270D01*
D02*
G37*
G36*
X82393Y-164844D02*
X81861Y-165199D01*
X81505Y-165732D01*
X82393D01*
Y-164844D01*
D02*
G37*
G36*
X169730Y-161842D02*
X169198Y-162198D01*
X168842Y-162730D01*
X169730D01*
Y-161842D01*
D02*
G37*
G36*
X271730Y-143028D02*
X269079Y-143289D01*
X265309Y-144433D01*
X261835Y-146290D01*
X258789Y-148789D01*
X256290Y-151835D01*
X254433Y-155309D01*
X253289Y-159079D01*
X253028Y-161730D01*
X271730D01*
Y-143028D01*
D02*
G37*
G36*
X274270D02*
Y-161730D01*
X292972D01*
X292711Y-159079D01*
X291567Y-155309D01*
X289710Y-151835D01*
X287211Y-148789D01*
X284165Y-146290D01*
X280691Y-144433D01*
X276921Y-143289D01*
X274270Y-143028D01*
D02*
G37*
G36*
X-271730D02*
Y-161730D01*
X-253028D01*
X-253289Y-159079D01*
X-254433Y-155309D01*
X-256290Y-151835D01*
X-258789Y-148789D01*
X-261835Y-146290D01*
X-265309Y-144433D01*
X-269079Y-143289D01*
X-271730Y-143028D01*
D02*
G37*
G36*
X172270Y-161842D02*
Y-162730D01*
X173158D01*
X172802Y-162198D01*
X172270Y-161842D01*
D02*
G37*
G36*
X-274270Y-143028D02*
X-276921Y-143289D01*
X-280691Y-144433D01*
X-284165Y-146290D01*
X-287211Y-148789D01*
X-289710Y-151835D01*
X-291567Y-155309D01*
X-292711Y-159079D01*
X-292972Y-161730D01*
X-274270D01*
Y-143028D01*
D02*
G37*
G36*
X-67730Y-145842D02*
Y-146730D01*
X-66842D01*
X-67198Y-146198D01*
X-67730Y-145842D01*
D02*
G37*
G36*
X-197230Y-140342D02*
Y-141230D01*
X-196342D01*
X-196698Y-140698D01*
X-197230Y-140342D01*
D02*
G37*
G36*
X-79270Y-137842D02*
X-79802Y-138198D01*
X-80158Y-138730D01*
X-79270D01*
Y-137842D01*
D02*
G37*
G36*
X-199770Y-140342D02*
X-200302Y-140698D01*
X-200658Y-141230D01*
X-199770D01*
Y-140342D01*
D02*
G37*
G36*
X58730Y-141270D02*
X57842D01*
X58198Y-141802D01*
X58730Y-142158D01*
Y-141270D01*
D02*
G37*
G36*
X62158D02*
X61270D01*
Y-142158D01*
X61802Y-141802D01*
X62158Y-141270D01*
D02*
G37*
G36*
X-76730Y-137842D02*
Y-138730D01*
X-75842D01*
X-76198Y-138198D01*
X-76730Y-137842D01*
D02*
G37*
G36*
X224158Y-137270D02*
X223270D01*
Y-138158D01*
X223802Y-137802D01*
X224158Y-137270D01*
D02*
G37*
G36*
X-247793Y-134393D02*
X-248681D01*
X-248326Y-134925D01*
X-247793Y-135281D01*
Y-134393D01*
D02*
G37*
G36*
X220730Y-137270D02*
X219842D01*
X220198Y-137802D01*
X220730Y-138158D01*
Y-137270D01*
D02*
G37*
G36*
X58730Y-137842D02*
X58198Y-138198D01*
X57842Y-138730D01*
X58730D01*
Y-137842D01*
D02*
G37*
G36*
X61270D02*
Y-138730D01*
X62158D01*
X61802Y-138198D01*
X61270Y-137842D01*
D02*
G37*
G36*
X-75842Y-141270D02*
X-76730D01*
Y-142158D01*
X-76198Y-141802D01*
X-75842Y-141270D01*
D02*
G37*
G36*
X69730Y-144842D02*
X69198Y-145198D01*
X68842Y-145730D01*
X69730D01*
Y-144842D01*
D02*
G37*
G36*
X72270D02*
Y-145730D01*
X73158D01*
X72802Y-145198D01*
X72270Y-144842D01*
D02*
G37*
G36*
X-242730D02*
Y-145730D01*
X-241842D01*
X-242198Y-145198D01*
X-242730Y-144842D01*
D02*
G37*
G36*
X-159000Y-139431D02*
X-160366Y-139703D01*
X-161523Y-140477D01*
X-162297Y-141634D01*
X-162569Y-143000D01*
X-162297Y-144366D01*
X-161523Y-145523D01*
X-160366Y-146297D01*
X-159000Y-146569D01*
X-157634Y-146297D01*
X-156477Y-145523D01*
X-155703Y-144366D01*
X-155431Y-143000D01*
X-155703Y-141634D01*
X-156477Y-140477D01*
X-157634Y-139703D01*
X-159000Y-139431D01*
D02*
G37*
G36*
X-245270Y-144842D02*
X-245802Y-145198D01*
X-246158Y-145730D01*
X-245270D01*
Y-144842D01*
D02*
G37*
G36*
X-199770Y-143770D02*
X-200658D01*
X-200302Y-144302D01*
X-199770Y-144658D01*
Y-143770D01*
D02*
G37*
G36*
X158993Y-136074D02*
X157627Y-136346D01*
X156470Y-137120D01*
X155696Y-138277D01*
X155424Y-139643D01*
X155696Y-141009D01*
X156470Y-142166D01*
X157627Y-142940D01*
X158993Y-143211D01*
X160359Y-142940D01*
X161516Y-142166D01*
X162290Y-141009D01*
X162562Y-139643D01*
X162290Y-138277D01*
X161516Y-137120D01*
X160359Y-136346D01*
X158993Y-136074D01*
D02*
G37*
G36*
X-79270Y-141270D02*
X-80158D01*
X-79802Y-141802D01*
X-79270Y-142158D01*
Y-141270D01*
D02*
G37*
G36*
X146730Y-136074D02*
X145364Y-136346D01*
X144207Y-137120D01*
X143433Y-138277D01*
X143161Y-139643D01*
X143433Y-141009D01*
X144207Y-142166D01*
X145364Y-142940D01*
X146730Y-143211D01*
X148096Y-142940D01*
X149253Y-142166D01*
X150027Y-141009D01*
X150299Y-139643D01*
X150027Y-138277D01*
X149253Y-137120D01*
X148096Y-136346D01*
X146730Y-136074D01*
D02*
G37*
G36*
X-196342Y-143770D02*
X-197230D01*
Y-144658D01*
X-196698Y-144302D01*
X-196342Y-143770D01*
D02*
G37*
G36*
X134523Y-136074D02*
X133157Y-136346D01*
X131999Y-137120D01*
X131226Y-138277D01*
X130954Y-139643D01*
X131226Y-141009D01*
X131999Y-142166D01*
X133157Y-142940D01*
X134523Y-143211D01*
X135888Y-142940D01*
X137046Y-142166D01*
X137819Y-141009D01*
X138091Y-139643D01*
X137819Y-138277D01*
X137046Y-137120D01*
X135888Y-136346D01*
X134523Y-136074D01*
D02*
G37*
G36*
X-221730Y-179842D02*
Y-180730D01*
X-220842D01*
X-221198Y-180198D01*
X-221730Y-179842D01*
D02*
G37*
G36*
X-121270Y-179270D02*
X-122158D01*
X-121802Y-179802D01*
X-121270Y-180158D01*
Y-179270D01*
D02*
G37*
G36*
X-224270Y-179842D02*
X-224802Y-180198D01*
X-225158Y-180730D01*
X-224270D01*
Y-179842D01*
D02*
G37*
G36*
X-2270Y-180270D02*
X-3158D01*
X-2802Y-180802D01*
X-2270Y-181158D01*
Y-180270D01*
D02*
G37*
G36*
X1158D02*
X270D01*
Y-181158D01*
X802Y-180802D01*
X1158Y-180270D01*
D02*
G37*
G36*
X-117842Y-179270D02*
X-118730D01*
Y-180158D01*
X-118198Y-179802D01*
X-117842Y-179270D01*
D02*
G37*
G36*
X136270Y-177842D02*
Y-178730D01*
X137158D01*
X136802Y-178198D01*
X136270Y-177842D01*
D02*
G37*
G36*
X-2270Y-176842D02*
X-2802Y-177198D01*
X-3158Y-177730D01*
X-2270D01*
Y-176842D01*
D02*
G37*
G36*
X133730Y-177842D02*
X133198Y-178198D01*
X132842Y-178730D01*
X133730D01*
Y-177842D01*
D02*
G37*
G36*
X123480Y-179020D02*
X122592D01*
X122948Y-179552D01*
X123480Y-179908D01*
Y-179020D01*
D02*
G37*
G36*
X126908D02*
X126020D01*
Y-179908D01*
X126552Y-179552D01*
X126908Y-179020D01*
D02*
G37*
G36*
X259270Y-180842D02*
Y-181730D01*
X260158D01*
X259802Y-181198D01*
X259270Y-180842D01*
D02*
G37*
G36*
X-220842Y-183270D02*
X-221730D01*
Y-184158D01*
X-221198Y-183802D01*
X-220842Y-183270D01*
D02*
G37*
G36*
X-274270Y-164270D02*
X-292972D01*
X-292711Y-166921D01*
X-291567Y-170691D01*
X-289710Y-174165D01*
X-287211Y-177211D01*
X-284165Y-179710D01*
X-280691Y-181567D01*
X-276921Y-182711D01*
X-274270Y-182972D01*
Y-164270D01*
D02*
G37*
G36*
X-224270Y-183270D02*
X-225158D01*
X-224802Y-183802D01*
X-224270Y-184158D01*
Y-183270D01*
D02*
G37*
G36*
X256730Y-184270D02*
X255842D01*
X256198Y-184802D01*
X256730Y-185158D01*
Y-184270D01*
D02*
G37*
G36*
X260158D02*
X259270D01*
Y-185158D01*
X259802Y-184802D01*
X260158Y-184270D01*
D02*
G37*
G36*
X-253028Y-164270D02*
X-271730D01*
Y-182972D01*
X-269079Y-182711D01*
X-265309Y-181567D01*
X-261835Y-179710D01*
X-258789Y-177211D01*
X-256290Y-174165D01*
X-254433Y-170691D01*
X-253289Y-166921D01*
X-253028Y-164270D01*
D02*
G37*
G36*
X137158Y-181270D02*
X136270D01*
Y-182158D01*
X136802Y-181802D01*
X137158Y-181270D01*
D02*
G37*
G36*
X256730Y-180842D02*
X256198Y-181198D01*
X255842Y-181730D01*
X256730D01*
Y-180842D01*
D02*
G37*
G36*
X133730Y-181270D02*
X132842D01*
X133198Y-181802D01*
X133730Y-182158D01*
Y-181270D01*
D02*
G37*
G36*
X271730Y-164270D02*
X253028D01*
X253289Y-166921D01*
X254433Y-170691D01*
X256290Y-174165D01*
X258789Y-177211D01*
X261835Y-179710D01*
X265309Y-181567D01*
X269079Y-182711D01*
X271730Y-182972D01*
Y-164270D01*
D02*
G37*
G36*
X292972D02*
X274270D01*
Y-182972D01*
X276921Y-182711D01*
X280691Y-181567D01*
X284165Y-179710D01*
X287211Y-177211D01*
X289710Y-174165D01*
X291567Y-170691D01*
X292711Y-166921D01*
X292972Y-164270D01*
D02*
G37*
G36*
X270Y-176842D02*
Y-177730D01*
X1158D01*
X802Y-177198D01*
X270Y-176842D01*
D02*
G37*
G36*
X82393Y-168272D02*
X81505D01*
X81861Y-168804D01*
X82393Y-169160D01*
Y-168272D01*
D02*
G37*
G36*
X85821D02*
X84933D01*
Y-169160D01*
X85465Y-168804D01*
X85821Y-168272D01*
D02*
G37*
G36*
X101270Y-168842D02*
Y-169730D01*
X102158D01*
X101802Y-169198D01*
X101270Y-168842D01*
D02*
G37*
G36*
X-118730D02*
Y-169730D01*
X-117842D01*
X-118198Y-169198D01*
X-118730Y-168842D01*
D02*
G37*
G36*
X98730D02*
X98198Y-169198D01*
X97842Y-169730D01*
X98730D01*
Y-168842D01*
D02*
G37*
G36*
X133730Y-167842D02*
X133198Y-168198D01*
X132842Y-168730D01*
X133730D01*
Y-167842D01*
D02*
G37*
G36*
X221250Y-160431D02*
X219884Y-160703D01*
X218727Y-161477D01*
X217953Y-162634D01*
X217682Y-164000D01*
X217953Y-165366D01*
X218727Y-166523D01*
X219884Y-167297D01*
X221250Y-167569D01*
X222616Y-167297D01*
X223773Y-166523D01*
X224547Y-165366D01*
X224819Y-164000D01*
X224547Y-162634D01*
X223773Y-161477D01*
X222616Y-160703D01*
X221250Y-160431D01*
D02*
G37*
G36*
X169730Y-165270D02*
X168842D01*
X169198Y-165802D01*
X169730Y-166158D01*
Y-165270D01*
D02*
G37*
G36*
X208750Y-160431D02*
X207384Y-160703D01*
X206227Y-161477D01*
X205453Y-162634D01*
X205182Y-164000D01*
X205453Y-165366D01*
X206227Y-166523D01*
X207384Y-167297D01*
X208750Y-167569D01*
X210116Y-167297D01*
X211273Y-166523D01*
X212047Y-165366D01*
X212319Y-164000D01*
X212047Y-162634D01*
X211273Y-161477D01*
X210116Y-160703D01*
X208750Y-160431D01*
D02*
G37*
G36*
X136270Y-167842D02*
Y-168730D01*
X137158D01*
X136802Y-168198D01*
X136270Y-167842D01*
D02*
G37*
G36*
X196250Y-160431D02*
X194884Y-160703D01*
X193727Y-161477D01*
X192953Y-162634D01*
X192682Y-164000D01*
X192953Y-165366D01*
X193727Y-166523D01*
X194884Y-167297D01*
X196250Y-167569D01*
X197616Y-167297D01*
X198773Y-166523D01*
X199547Y-165366D01*
X199819Y-164000D01*
X199547Y-162634D01*
X198773Y-161477D01*
X197616Y-160703D01*
X196250Y-160431D01*
D02*
G37*
G36*
X-121270Y-168842D02*
X-121802Y-169198D01*
X-122158Y-169730D01*
X-121270D01*
Y-168842D01*
D02*
G37*
G36*
X126020Y-175592D02*
Y-176480D01*
X126908D01*
X126552Y-175948D01*
X126020Y-175592D01*
D02*
G37*
G36*
X-219500Y-168931D02*
X-220866Y-169203D01*
X-222023Y-169977D01*
X-222797Y-171134D01*
X-223069Y-172500D01*
X-222797Y-173866D01*
X-222023Y-175023D01*
X-220866Y-175797D01*
X-219500Y-176069D01*
X-218134Y-175797D01*
X-216977Y-175023D01*
X-216203Y-173866D01*
X-215931Y-172500D01*
X-216203Y-171134D01*
X-216977Y-169977D01*
X-218134Y-169203D01*
X-219500Y-168931D01*
D02*
G37*
G36*
X123480Y-175592D02*
X122948Y-175948D01*
X122592Y-176480D01*
X123480D01*
Y-175592D01*
D02*
G37*
G36*
X-121270Y-175842D02*
X-121802Y-176198D01*
X-122158Y-176730D01*
X-121270D01*
Y-175842D01*
D02*
G37*
G36*
X-118730D02*
Y-176730D01*
X-117842D01*
X-118198Y-176198D01*
X-118730Y-175842D01*
D02*
G37*
G36*
X-121270Y-172270D02*
X-122158D01*
X-121802Y-172802D01*
X-121270Y-173158D01*
Y-172270D01*
D02*
G37*
G36*
X133730Y-171270D02*
X132842D01*
X133198Y-171802D01*
X133730Y-172158D01*
Y-171270D01*
D02*
G37*
G36*
X137158D02*
X136270D01*
Y-172158D01*
X136802Y-171802D01*
X137158Y-171270D01*
D02*
G37*
G36*
X102158Y-172270D02*
X101270D01*
Y-173158D01*
X101802Y-172802D01*
X102158Y-172270D01*
D02*
G37*
G36*
X-117842D02*
X-118730D01*
Y-173158D01*
X-118198Y-172802D01*
X-117842Y-172270D01*
D02*
G37*
G36*
X98730D02*
X97842D01*
X98198Y-172802D01*
X98730Y-173158D01*
Y-172270D01*
D02*
G37*
G36*
X-244365Y-134393D02*
X-245253D01*
Y-135281D01*
X-244721Y-134925D01*
X-244365Y-134393D01*
D02*
G37*
G36*
X270158Y-111270D02*
X269270D01*
Y-112158D01*
X269802Y-111802D01*
X270158Y-111270D01*
D02*
G37*
G36*
X-271670Y-108770D02*
X-272558D01*
X-272203Y-109302D01*
X-271670Y-109658D01*
Y-108770D01*
D02*
G37*
G36*
X266730Y-111270D02*
X265842D01*
X266198Y-111802D01*
X266730Y-112158D01*
Y-111270D01*
D02*
G37*
G36*
X-27270Y-115842D02*
X-27802Y-116198D01*
X-28158Y-116730D01*
X-27270D01*
Y-115842D01*
D02*
G37*
G36*
X-24730D02*
Y-116730D01*
X-23842D01*
X-24198Y-116198D01*
X-24730Y-115842D01*
D02*
G37*
G36*
X-268242Y-108770D02*
X-269130D01*
Y-109658D01*
X-268598Y-109302D01*
X-268242Y-108770D01*
D02*
G37*
G36*
X184500Y-100931D02*
X183134Y-101203D01*
X181977Y-101977D01*
X181203Y-103134D01*
X180931Y-104500D01*
X181203Y-105866D01*
X181977Y-107023D01*
X183134Y-107797D01*
X184500Y-108069D01*
X185866Y-107797D01*
X187023Y-107023D01*
X187797Y-105866D01*
X188069Y-104500D01*
X187797Y-103134D01*
X187023Y-101977D01*
X185866Y-101203D01*
X184500Y-100931D01*
D02*
G37*
G36*
X168230Y-106270D02*
X167342D01*
X167698Y-106802D01*
X168230Y-107158D01*
Y-106270D01*
D02*
G37*
G36*
X269270Y-107842D02*
Y-108730D01*
X270158D01*
X269802Y-108198D01*
X269270Y-107842D01*
D02*
G37*
G36*
X-226140Y-101773D02*
X-227506Y-102045D01*
X-228664Y-102818D01*
X-229438Y-103976D01*
X-229709Y-105342D01*
X-229438Y-106707D01*
X-228664Y-107865D01*
X-227506Y-108639D01*
X-226140Y-108910D01*
X-224775Y-108639D01*
X-223617Y-107865D01*
X-222844Y-106707D01*
X-222572Y-105342D01*
X-222844Y-103976D01*
X-223617Y-102818D01*
X-224775Y-102045D01*
X-226140Y-101773D01*
D02*
G37*
G36*
X266730Y-107842D02*
X266198Y-108198D01*
X265842Y-108730D01*
X266730D01*
Y-107842D01*
D02*
G37*
G36*
X-31730Y-115842D02*
Y-116730D01*
X-30842D01*
X-31198Y-116198D01*
X-31730Y-115842D01*
D02*
G37*
G36*
X223730Y-118842D02*
X223198Y-119198D01*
X222842Y-119730D01*
X223730D01*
Y-118842D01*
D02*
G37*
G36*
X226270D02*
Y-119730D01*
X227158D01*
X226802Y-119198D01*
X226270Y-118842D01*
D02*
G37*
G36*
X-23842Y-119270D02*
X-24730D01*
Y-120158D01*
X-24198Y-119802D01*
X-23842Y-119270D01*
D02*
G37*
G36*
X-30842D02*
X-31730D01*
Y-120158D01*
X-31198Y-119802D01*
X-30842Y-119270D01*
D02*
G37*
G36*
X-27270D02*
X-28158D01*
X-27802Y-119802D01*
X-27270Y-120158D01*
Y-119270D01*
D02*
G37*
G36*
X169500Y-112431D02*
X168134Y-112703D01*
X166977Y-113477D01*
X166203Y-114634D01*
X165931Y-116000D01*
X166203Y-117366D01*
X166977Y-118523D01*
X168134Y-119297D01*
X169500Y-119569D01*
X170866Y-119297D01*
X172023Y-118523D01*
X172797Y-117366D01*
X173069Y-116000D01*
X172797Y-114634D01*
X172023Y-113477D01*
X170866Y-112703D01*
X169500Y-112431D01*
D02*
G37*
G36*
X-38730Y-115842D02*
Y-116730D01*
X-37842D01*
X-38198Y-116198D01*
X-38730Y-115842D01*
D02*
G37*
G36*
X-34270D02*
X-34802Y-116198D01*
X-35158Y-116730D01*
X-34270D01*
Y-115842D01*
D02*
G37*
G36*
X-41270D02*
X-41802Y-116198D01*
X-42158Y-116730D01*
X-41270D01*
Y-115842D01*
D02*
G37*
G36*
X-48270D02*
X-48802Y-116198D01*
X-49158Y-116730D01*
X-48270D01*
Y-115842D01*
D02*
G37*
G36*
X-45730D02*
Y-116730D01*
X-44842D01*
X-45198Y-116198D01*
X-45730Y-115842D01*
D02*
G37*
G36*
X171658Y-106270D02*
X170770D01*
Y-107158D01*
X171302Y-106802D01*
X171658Y-106270D01*
D02*
G37*
G36*
X225000Y-89431D02*
X223634Y-89703D01*
X222477Y-90477D01*
X221703Y-91634D01*
X221431Y-93000D01*
X221703Y-94366D01*
X222477Y-95523D01*
X223634Y-96297D01*
X225000Y-96569D01*
X226366Y-96297D01*
X227523Y-95523D01*
X228297Y-94366D01*
X228569Y-93000D01*
X228297Y-91634D01*
X227523Y-90477D01*
X226366Y-89703D01*
X225000Y-89431D01*
D02*
G37*
G36*
X262000Y-87431D02*
X260634Y-87703D01*
X259477Y-88477D01*
X258703Y-89634D01*
X258431Y-91000D01*
X258703Y-92366D01*
X259477Y-93523D01*
X260634Y-94297D01*
X262000Y-94569D01*
X263366Y-94297D01*
X264523Y-93523D01*
X265297Y-92366D01*
X265569Y-91000D01*
X265297Y-89634D01*
X264523Y-88477D01*
X263366Y-87703D01*
X262000Y-87431D01*
D02*
G37*
G36*
X-194442Y-89606D02*
X-195808Y-89877D01*
X-196965Y-90651D01*
X-197739Y-91809D01*
X-198011Y-93174D01*
X-197739Y-94540D01*
X-196965Y-95697D01*
X-195808Y-96471D01*
X-194442Y-96743D01*
X-193076Y-96471D01*
X-191919Y-95697D01*
X-191145Y-94540D01*
X-190873Y-93174D01*
X-191145Y-91809D01*
X-191919Y-90651D01*
X-193076Y-89877D01*
X-194442Y-89606D01*
D02*
G37*
G36*
X206000Y-91431D02*
X204634Y-91703D01*
X203477Y-92477D01*
X202703Y-93634D01*
X202431Y-95000D01*
X202703Y-96366D01*
X203477Y-97523D01*
X204634Y-98297D01*
X206000Y-98569D01*
X207366Y-98297D01*
X208523Y-97523D01*
X209297Y-96366D01*
X209569Y-95000D01*
X209297Y-93634D01*
X208523Y-92477D01*
X207366Y-91703D01*
X206000Y-91431D01*
D02*
G37*
G36*
X31680Y-91111D02*
X30314Y-91383D01*
X29157Y-92157D01*
X28383Y-93314D01*
X28111Y-94680D01*
X28383Y-96046D01*
X29157Y-97203D01*
X30314Y-97977D01*
X31680Y-98249D01*
X33046Y-97977D01*
X34203Y-97203D01*
X34977Y-96046D01*
X35249Y-94680D01*
X34977Y-93314D01*
X34203Y-92157D01*
X33046Y-91383D01*
X31680Y-91111D01*
D02*
G37*
G36*
X-270400Y-83931D02*
X-271766Y-84203D01*
X-272924Y-84977D01*
X-273697Y-86134D01*
X-273969Y-87500D01*
X-273697Y-88865D01*
X-272924Y-90023D01*
X-271766Y-90797D01*
X-270400Y-91068D01*
X-269035Y-90797D01*
X-267877Y-90023D01*
X-267103Y-88865D01*
X-266832Y-87500D01*
X-267103Y-86134D01*
X-267877Y-84977D01*
X-269035Y-84203D01*
X-270400Y-83931D01*
D02*
G37*
G36*
X182043Y-87270D02*
X181155D01*
X181510Y-87802D01*
X182043Y-88158D01*
Y-87270D01*
D02*
G37*
G36*
X185471D02*
X184583D01*
Y-88158D01*
X185115Y-87802D01*
X185471Y-87270D01*
D02*
G37*
G36*
X294158Y-88770D02*
X293270D01*
Y-89658D01*
X293802Y-89302D01*
X294158Y-88770D01*
D02*
G37*
G36*
X-89000Y-83431D02*
X-90366Y-83703D01*
X-91523Y-84477D01*
X-92297Y-85634D01*
X-92569Y-87000D01*
X-92297Y-88366D01*
X-91523Y-89523D01*
X-90366Y-90297D01*
X-89000Y-90569D01*
X-87634Y-90297D01*
X-86477Y-89523D01*
X-85703Y-88366D01*
X-85431Y-87000D01*
X-85703Y-85634D01*
X-86477Y-84477D01*
X-87634Y-83703D01*
X-89000Y-83431D01*
D02*
G37*
G36*
X290730Y-88770D02*
X289842D01*
X290198Y-89302D01*
X290730Y-89658D01*
Y-88770D01*
D02*
G37*
G36*
X83000Y-91431D02*
X81634Y-91703D01*
X80477Y-92477D01*
X79703Y-93634D01*
X79431Y-95000D01*
X79703Y-96366D01*
X80477Y-97523D01*
X81634Y-98297D01*
X83000Y-98569D01*
X84366Y-98297D01*
X85523Y-97523D01*
X86297Y-96366D01*
X86569Y-95000D01*
X86297Y-93634D01*
X85523Y-92477D01*
X84366Y-91703D01*
X83000Y-91431D01*
D02*
G37*
G36*
X-289342Y-103770D02*
X-290230D01*
Y-104658D01*
X-289697Y-104302D01*
X-289342Y-103770D01*
D02*
G37*
G36*
X168230Y-102842D02*
X167698Y-103198D01*
X167342Y-103730D01*
X168230D01*
Y-102842D01*
D02*
G37*
G36*
X-292770Y-103770D02*
X-293658D01*
X-293302Y-104302D01*
X-292770Y-104658D01*
Y-103770D01*
D02*
G37*
G36*
X-271670Y-105342D02*
X-272203Y-105697D01*
X-272558Y-106230D01*
X-271670D01*
Y-105342D01*
D02*
G37*
G36*
X-269130D02*
Y-106230D01*
X-268242D01*
X-268598Y-105697D01*
X-269130Y-105342D01*
D02*
G37*
G36*
X170770Y-102842D02*
Y-103730D01*
X171658D01*
X171302Y-103198D01*
X170770Y-102842D01*
D02*
G37*
G36*
X-215000Y-93931D02*
X-216366Y-94203D01*
X-217523Y-94977D01*
X-218297Y-96134D01*
X-218569Y-97500D01*
X-218297Y-98865D01*
X-217523Y-100023D01*
X-216366Y-100797D01*
X-215000Y-101068D01*
X-213634Y-100797D01*
X-212477Y-100023D01*
X-211703Y-98865D01*
X-211431Y-97500D01*
X-211703Y-96134D01*
X-212477Y-94977D01*
X-213634Y-94203D01*
X-215000Y-93931D01*
D02*
G37*
G36*
X179500Y-91931D02*
X178134Y-92203D01*
X176977Y-92977D01*
X176203Y-94134D01*
X175931Y-95500D01*
X176203Y-96866D01*
X176977Y-98023D01*
X178134Y-98797D01*
X179500Y-99069D01*
X180866Y-98797D01*
X182023Y-98023D01*
X182797Y-96866D01*
X183069Y-95500D01*
X182797Y-94134D01*
X182023Y-92977D01*
X180866Y-92203D01*
X179500Y-91931D01*
D02*
G37*
G36*
X-290230Y-100342D02*
Y-101230D01*
X-289342D01*
X-289697Y-100697D01*
X-290230Y-100342D01*
D02*
G37*
G36*
X-134000Y-95431D02*
X-135366Y-95703D01*
X-136523Y-96477D01*
X-137297Y-97634D01*
X-137569Y-99000D01*
X-137297Y-100366D01*
X-136523Y-101523D01*
X-135366Y-102297D01*
X-134000Y-102569D01*
X-132634Y-102297D01*
X-131477Y-101523D01*
X-130703Y-100366D01*
X-130431Y-99000D01*
X-130703Y-97634D01*
X-131477Y-96477D01*
X-132634Y-95703D01*
X-134000Y-95431D01*
D02*
G37*
G36*
X-292770Y-100342D02*
X-293302Y-100697D01*
X-293658Y-101230D01*
X-292770D01*
Y-100342D01*
D02*
G37*
G36*
X-41270Y-126270D02*
X-42158D01*
X-41802Y-126802D01*
X-41270Y-127158D01*
Y-126270D01*
D02*
G37*
G36*
X-37842D02*
X-38730D01*
Y-127158D01*
X-38198Y-126802D01*
X-37842Y-126270D01*
D02*
G37*
G36*
X-44842D02*
X-45730D01*
Y-127158D01*
X-45198Y-126802D01*
X-44842Y-126270D01*
D02*
G37*
G36*
X70000Y-121431D02*
X68634Y-121703D01*
X67477Y-122477D01*
X66703Y-123634D01*
X66431Y-125000D01*
X66703Y-126366D01*
X67477Y-127523D01*
X68634Y-128297D01*
X70000Y-128569D01*
X71366Y-128297D01*
X72523Y-127523D01*
X73297Y-126366D01*
X73569Y-125000D01*
X73297Y-123634D01*
X72523Y-122477D01*
X71366Y-121703D01*
X70000Y-121431D01*
D02*
G37*
G36*
X-48270Y-126270D02*
X-49158D01*
X-48802Y-126802D01*
X-48270Y-127158D01*
Y-126270D01*
D02*
G37*
G36*
X-34270D02*
X-35158D01*
X-34802Y-126802D01*
X-34270Y-127158D01*
Y-126270D01*
D02*
G37*
G36*
X48730D02*
X47842D01*
X48198Y-126802D01*
X48730Y-127158D01*
Y-126270D01*
D02*
G37*
G36*
X52158D02*
X51270D01*
Y-127158D01*
X51802Y-126802D01*
X52158Y-126270D01*
D02*
G37*
G36*
X-23842D02*
X-24730D01*
Y-127158D01*
X-24198Y-126802D01*
X-23842Y-126270D01*
D02*
G37*
G36*
X-30842D02*
X-31730D01*
Y-127158D01*
X-31198Y-126802D01*
X-30842Y-126270D01*
D02*
G37*
G36*
X-27270D02*
X-28158D01*
X-27802Y-126802D01*
X-27270Y-127158D01*
Y-126270D01*
D02*
G37*
G36*
X201250Y-123019D02*
X199884Y-123290D01*
X198727Y-124064D01*
X197953Y-125222D01*
X197681Y-126587D01*
X197953Y-127953D01*
X198727Y-129110D01*
X199884Y-129884D01*
X201250Y-130156D01*
X202616Y-129884D01*
X203773Y-129110D01*
X204547Y-127953D01*
X204819Y-126587D01*
X204547Y-125222D01*
X203773Y-124064D01*
X202616Y-123290D01*
X201250Y-123019D01*
D02*
G37*
G36*
X223270Y-133842D02*
Y-134730D01*
X224158D01*
X223802Y-134198D01*
X223270Y-133842D01*
D02*
G37*
G36*
X-18750Y-127431D02*
X-20116Y-127703D01*
X-21273Y-128477D01*
X-22047Y-129634D01*
X-22319Y-131000D01*
X-22047Y-132366D01*
X-21273Y-133523D01*
X-20116Y-134297D01*
X-18750Y-134569D01*
X-17384Y-134297D01*
X-16227Y-133523D01*
X-15453Y-132366D01*
X-15181Y-131000D01*
X-15453Y-129634D01*
X-16227Y-128477D01*
X-17384Y-127703D01*
X-18750Y-127431D01*
D02*
G37*
G36*
X220730Y-133842D02*
X220198Y-134198D01*
X219842Y-134730D01*
X220730D01*
Y-133842D01*
D02*
G37*
G36*
X-277470Y-133270D02*
X-278960D01*
X-278363Y-134163D01*
X-277470Y-134760D01*
Y-133270D01*
D02*
G37*
G36*
X-273440D02*
X-274930D01*
Y-134760D01*
X-274037Y-134163D01*
X-273440Y-133270D01*
D02*
G37*
G36*
X-6250Y-127431D02*
X-7616Y-127703D01*
X-8773Y-128477D01*
X-9547Y-129634D01*
X-9819Y-131000D01*
X-9547Y-132366D01*
X-8773Y-133523D01*
X-7616Y-134297D01*
X-6250Y-134569D01*
X-4884Y-134297D01*
X-3727Y-133523D01*
X-2953Y-132366D01*
X-2681Y-131000D01*
X-2953Y-129634D01*
X-3727Y-128477D01*
X-4884Y-127703D01*
X-6250Y-127431D01*
D02*
G37*
G36*
X-274930Y-129241D02*
Y-130730D01*
X-273440D01*
X-274037Y-129837D01*
X-274930Y-129241D01*
D02*
G37*
G36*
X188750Y-123019D02*
X187384Y-123290D01*
X186227Y-124064D01*
X185453Y-125222D01*
X185181Y-126587D01*
X185453Y-127953D01*
X186227Y-129110D01*
X187384Y-129884D01*
X188750Y-130156D01*
X190116Y-129884D01*
X191273Y-129110D01*
X192047Y-127953D01*
X192319Y-126587D01*
X192047Y-125222D01*
X191273Y-124064D01*
X190116Y-123290D01*
X188750Y-123019D01*
D02*
G37*
G36*
X-277470Y-129241D02*
X-278363Y-129837D01*
X-278960Y-130730D01*
X-277470D01*
Y-129241D01*
D02*
G37*
G36*
X-247793Y-130964D02*
X-248326Y-131320D01*
X-248681Y-131853D01*
X-247793D01*
Y-130964D01*
D02*
G37*
G36*
X-245253D02*
Y-131853D01*
X-244365D01*
X-244721Y-131320D01*
X-245253Y-130964D01*
D02*
G37*
G36*
X268730Y-123770D02*
X267842D01*
X268198Y-124302D01*
X268730Y-124658D01*
Y-123770D01*
D02*
G37*
G36*
Y-120342D02*
X268198Y-120697D01*
X267842Y-121230D01*
X268730D01*
Y-120342D01*
D02*
G37*
G36*
X271270D02*
Y-121230D01*
X272158D01*
X271802Y-120697D01*
X271270Y-120342D01*
D02*
G37*
G36*
X154620Y-114431D02*
X153254Y-114703D01*
X152097Y-115477D01*
X151323Y-116634D01*
X151051Y-118000D01*
X151323Y-119366D01*
X152097Y-120523D01*
X153254Y-121297D01*
X154620Y-121569D01*
X155986Y-121297D01*
X157143Y-120523D01*
X157917Y-119366D01*
X158189Y-118000D01*
X157917Y-116634D01*
X157143Y-115477D01*
X155986Y-114703D01*
X154620Y-114431D01*
D02*
G37*
G36*
X223730Y-122270D02*
X222842D01*
X223198Y-122802D01*
X223730Y-123158D01*
Y-122270D01*
D02*
G37*
G36*
X227158D02*
X226270D01*
Y-123158D01*
X226802Y-122802D01*
X227158Y-122270D01*
D02*
G37*
G36*
X-270400Y-113931D02*
X-271766Y-114203D01*
X-272924Y-114976D01*
X-273697Y-116134D01*
X-273969Y-117500D01*
X-273697Y-118865D01*
X-272924Y-120023D01*
X-271766Y-120797D01*
X-270400Y-121068D01*
X-269035Y-120797D01*
X-267877Y-120023D01*
X-267103Y-118865D01*
X-266832Y-117500D01*
X-267103Y-116134D01*
X-267877Y-114976D01*
X-269035Y-114203D01*
X-270400Y-113931D01*
D02*
G37*
G36*
X-37842Y-119270D02*
X-38730D01*
Y-120158D01*
X-38198Y-119802D01*
X-37842Y-119270D01*
D02*
G37*
G36*
X-34270D02*
X-35158D01*
X-34802Y-119802D01*
X-34270Y-120158D01*
Y-119270D01*
D02*
G37*
G36*
X-41270D02*
X-42158D01*
X-41802Y-119802D01*
X-41270Y-120158D01*
Y-119270D01*
D02*
G37*
G36*
X-48270D02*
X-49158D01*
X-48802Y-119802D01*
X-48270Y-120158D01*
Y-119270D01*
D02*
G37*
G36*
X-44842D02*
X-45730D01*
Y-120158D01*
X-45198Y-119802D01*
X-44842Y-119270D01*
D02*
G37*
G36*
X258000Y-108931D02*
X256634Y-109203D01*
X255477Y-109976D01*
X254703Y-111134D01*
X254431Y-112500D01*
X254703Y-113865D01*
X255477Y-115023D01*
X256634Y-115797D01*
X258000Y-116068D01*
X258487Y-115971D01*
X258973Y-117145D01*
X258477Y-117477D01*
X257703Y-118634D01*
X257431Y-120000D01*
X257703Y-121366D01*
X258477Y-122523D01*
X259634Y-123297D01*
X261000Y-123569D01*
X262366Y-123297D01*
X263523Y-122523D01*
X264297Y-121366D01*
X264569Y-120000D01*
X264297Y-118634D01*
X263523Y-117477D01*
X262366Y-116703D01*
X261000Y-116431D01*
X260513Y-116528D01*
X260027Y-115355D01*
X260523Y-115023D01*
X261297Y-113865D01*
X261569Y-112500D01*
X261297Y-111134D01*
X260523Y-109976D01*
X259366Y-109203D01*
X258000Y-108931D01*
D02*
G37*
G36*
X-41270Y-122842D02*
X-41802Y-123198D01*
X-42158Y-123730D01*
X-41270D01*
Y-122842D01*
D02*
G37*
G36*
X-38730D02*
Y-123730D01*
X-37842D01*
X-38198Y-123198D01*
X-38730Y-122842D01*
D02*
G37*
G36*
X-45730D02*
Y-123730D01*
X-44842D01*
X-45198Y-123198D01*
X-45730Y-122842D01*
D02*
G37*
G36*
X272158Y-123770D02*
X271270D01*
Y-124658D01*
X271802Y-124302D01*
X272158Y-123770D01*
D02*
G37*
G36*
X-48270Y-122842D02*
X-48802Y-123198D01*
X-49158Y-123730D01*
X-48270D01*
Y-122842D01*
D02*
G37*
G36*
X-34270D02*
X-34802Y-123198D01*
X-35158Y-123730D01*
X-34270D01*
Y-122842D01*
D02*
G37*
G36*
X48730D02*
X48198Y-123198D01*
X47842Y-123730D01*
X48730D01*
Y-122842D01*
D02*
G37*
G36*
X51270D02*
Y-123730D01*
X52158D01*
X51802Y-123198D01*
X51270Y-122842D01*
D02*
G37*
G36*
X-24730D02*
Y-123730D01*
X-23842D01*
X-24198Y-123198D01*
X-24730Y-122842D01*
D02*
G37*
G36*
X-31730D02*
Y-123730D01*
X-30842D01*
X-31198Y-123198D01*
X-31730Y-122842D01*
D02*
G37*
G36*
X-27270D02*
X-27802Y-123198D01*
X-28158Y-123730D01*
X-27270D01*
Y-122842D01*
D02*
G37*
G36*
X-154112Y115730D02*
X-155000D01*
Y114842D01*
X-154468Y115198D01*
X-154112Y115730D01*
D02*
G37*
G36*
X180730Y117158D02*
X180198Y116802D01*
X179842Y116270D01*
X180730D01*
Y117158D01*
D02*
G37*
G36*
X-157540Y115730D02*
X-158428D01*
X-158072Y115198D01*
X-157540Y114842D01*
Y115730D01*
D02*
G37*
G36*
X-164540D02*
X-165428D01*
X-165072Y115198D01*
X-164540Y114842D01*
Y115730D01*
D02*
G37*
G36*
X-161112D02*
X-162000D01*
Y114842D01*
X-161468Y115198D01*
X-161112Y115730D01*
D02*
G37*
G36*
X183270Y117158D02*
Y116270D01*
X184158D01*
X183802Y116802D01*
X183270Y117158D01*
D02*
G37*
G36*
X-164540Y119158D02*
X-165072Y118802D01*
X-165428Y118270D01*
X-164540D01*
Y119158D01*
D02*
G37*
G36*
X-162000D02*
Y118270D01*
X-161112D01*
X-161468Y118802D01*
X-162000Y119158D01*
D02*
G37*
G36*
X-168730D02*
Y118270D01*
X-167842D01*
X-168198Y118802D01*
X-168730Y119158D01*
D02*
G37*
G36*
X125000Y123569D02*
X123634Y123297D01*
X122477Y122523D01*
X121703Y121366D01*
X121431Y120000D01*
X121703Y118634D01*
X122477Y117477D01*
X123634Y116703D01*
X125000Y116431D01*
X126366Y116703D01*
X127523Y117477D01*
X128297Y118634D01*
X128569Y120000D01*
X128297Y121366D01*
X127523Y122523D01*
X126366Y123297D01*
X125000Y123569D01*
D02*
G37*
G36*
X-171270Y119158D02*
X-171802Y118802D01*
X-172158Y118270D01*
X-171270D01*
Y119158D01*
D02*
G37*
G36*
X-167842Y115730D02*
X-168730D01*
Y114842D01*
X-168198Y115198D01*
X-167842Y115730D01*
D02*
G37*
G36*
X11730Y110730D02*
X10842D01*
X11198Y110198D01*
X11730Y109842D01*
Y110730D01*
D02*
G37*
G36*
X15158D02*
X14270D01*
Y109842D01*
X14802Y110198D01*
X15158Y110730D01*
D02*
G37*
G36*
X-269250Y121068D02*
X-270616Y120797D01*
X-271773Y120023D01*
X-272547Y118865D01*
X-272819Y117500D01*
X-272547Y116134D01*
X-271773Y114976D01*
X-270616Y114203D01*
X-269250Y113931D01*
X-269250Y113931D01*
X-269250Y113931D01*
X-268635Y113906D01*
X-267850Y112907D01*
X-267931Y112500D01*
X-267660Y111134D01*
X-266886Y109976D01*
X-265728Y109203D01*
X-264363Y108931D01*
X-262997Y109203D01*
X-261839Y109976D01*
X-261066Y111134D01*
X-260794Y112500D01*
X-261066Y113865D01*
X-261839Y115023D01*
X-262997Y115796D01*
X-264363Y116068D01*
X-264363Y116068D01*
X-264363Y116068D01*
X-264977Y116094D01*
X-265763Y117092D01*
X-265681Y117500D01*
X-265953Y118865D01*
X-266727Y120023D01*
X-267884Y120797D01*
X-269250Y121068D01*
D02*
G37*
G36*
X-237170Y109658D02*
X-237703Y109302D01*
X-238058Y108770D01*
X-237170D01*
Y109658D01*
D02*
G37*
G36*
X-234630D02*
Y108770D01*
X-233742D01*
X-234098Y109302D01*
X-234630Y109658D01*
D02*
G37*
G36*
X231000Y118569D02*
X229634Y118297D01*
X228477Y117523D01*
X227703Y116366D01*
X227431Y115000D01*
X227703Y113634D01*
X228477Y112477D01*
X229634Y111703D01*
X231000Y111431D01*
X232366Y111703D01*
X233523Y112477D01*
X234297Y113634D01*
X234569Y115000D01*
X234297Y116366D01*
X233523Y117523D01*
X232366Y118297D01*
X231000Y118569D01*
D02*
G37*
G36*
X14270Y114158D02*
Y113270D01*
X15158D01*
X14802Y113802D01*
X14270Y114158D01*
D02*
G37*
G36*
X-171270Y115730D02*
X-172158D01*
X-171802Y115198D01*
X-171270Y114842D01*
Y115730D01*
D02*
G37*
G36*
X11730Y114158D02*
X11198Y113802D01*
X10842Y113270D01*
X11730D01*
Y114158D01*
D02*
G37*
G36*
X180730Y113730D02*
X179842D01*
X180198Y113198D01*
X180730Y112842D01*
Y113730D01*
D02*
G37*
G36*
X184158D02*
X183270D01*
Y112842D01*
X183802Y113198D01*
X184158Y113730D01*
D02*
G37*
G36*
X-157540Y119158D02*
X-158072Y118802D01*
X-158428Y118270D01*
X-157540D01*
Y119158D01*
D02*
G37*
G36*
X-292770Y124658D02*
X-293302Y124302D01*
X-293658Y123770D01*
X-292770D01*
Y124658D01*
D02*
G37*
G36*
X-290230D02*
Y123770D01*
X-289342D01*
X-289697Y124302D01*
X-290230Y124658D01*
D02*
G37*
G36*
X-44730Y124158D02*
Y123270D01*
X-43842D01*
X-44198Y123802D01*
X-44730Y124158D01*
D02*
G37*
G36*
X99270Y123158D02*
Y122270D01*
X100158D01*
X99802Y122802D01*
X99270Y123158D01*
D02*
G37*
G36*
X-47270Y124158D02*
X-47802Y123802D01*
X-48158Y123270D01*
X-47270D01*
Y124158D01*
D02*
G37*
G36*
X-258270Y124658D02*
X-258802Y124302D01*
X-259158Y123770D01*
X-258270D01*
Y124658D01*
D02*
G37*
G36*
X-11270Y127730D02*
X-12158D01*
X-11802Y127198D01*
X-11270Y126842D01*
Y127730D01*
D02*
G37*
G36*
X-7842D02*
X-8730D01*
Y126842D01*
X-8198Y127198D01*
X-7842Y127730D01*
D02*
G37*
G36*
X-31842D02*
X-32730D01*
Y126842D01*
X-32198Y127198D01*
X-31842Y127730D01*
D02*
G37*
G36*
X-255730Y124658D02*
Y123770D01*
X-254842D01*
X-255197Y124302D01*
X-255730Y124658D01*
D02*
G37*
G36*
X-35270Y127730D02*
X-36158D01*
X-35802Y127198D01*
X-35270Y126842D01*
Y127730D01*
D02*
G37*
G36*
X96730Y123158D02*
X96198Y122802D01*
X95842Y122270D01*
X96730D01*
Y123158D01*
D02*
G37*
G36*
X75000Y126569D02*
X73634Y126297D01*
X72477Y125523D01*
X71703Y124366D01*
X71431Y123000D01*
X71703Y121634D01*
X72477Y120477D01*
X73634Y119703D01*
X75000Y119431D01*
X76366Y119703D01*
X77523Y120477D01*
X78297Y121634D01*
X78569Y123000D01*
X78297Y124366D01*
X77523Y125523D01*
X76366Y126297D01*
X75000Y126569D01*
D02*
G37*
G36*
X-47270Y120730D02*
X-48158D01*
X-47802Y120198D01*
X-47270Y119842D01*
Y120730D01*
D02*
G37*
G36*
X100158Y119730D02*
X99270D01*
Y118842D01*
X99802Y119198D01*
X100158Y119730D01*
D02*
G37*
G36*
X-155000Y119158D02*
Y118270D01*
X-154112D01*
X-154468Y118802D01*
X-155000Y119158D01*
D02*
G37*
G36*
X96730Y119730D02*
X95842D01*
X96198Y119198D01*
X96730Y118842D01*
Y119730D01*
D02*
G37*
G36*
X-43842Y120730D02*
X-44730D01*
Y119842D01*
X-44198Y120198D01*
X-43842Y120730D01*
D02*
G37*
G36*
X-254842Y121230D02*
X-255730D01*
Y120342D01*
X-255197Y120697D01*
X-254842Y121230D01*
D02*
G37*
G36*
X-197000Y127569D02*
X-198366Y127297D01*
X-199523Y126523D01*
X-200297Y125366D01*
X-200569Y124000D01*
X-200297Y122634D01*
X-199523Y121477D01*
X-198366Y120703D01*
X-197000Y120431D01*
X-195634Y120703D01*
X-194477Y121477D01*
X-193703Y122634D01*
X-193431Y124000D01*
X-193703Y125366D01*
X-194477Y126523D01*
X-195634Y127297D01*
X-197000Y127569D01*
D02*
G37*
G36*
X-258270Y121230D02*
X-259158D01*
X-258802Y120697D01*
X-258270Y120342D01*
Y121230D01*
D02*
G37*
G36*
X-292770D02*
X-293658D01*
X-293302Y120697D01*
X-292770Y120342D01*
Y121230D01*
D02*
G37*
G36*
X-289342D02*
X-290230D01*
Y120342D01*
X-289697Y120697D01*
X-289342Y121230D01*
D02*
G37*
G36*
X-145270Y103730D02*
X-146158D01*
X-145802Y103198D01*
X-145270Y102842D01*
Y103730D01*
D02*
G37*
G36*
X-141842D02*
X-142730D01*
Y102842D01*
X-142198Y103198D01*
X-141842Y103730D01*
D02*
G37*
G36*
X-153842D02*
X-154730D01*
Y102842D01*
X-154198Y103198D01*
X-153842Y103730D01*
D02*
G37*
G36*
X-212671Y102099D02*
Y101211D01*
X-211783D01*
X-212139Y101743D01*
X-212671Y102099D01*
D02*
G37*
G36*
X-157270Y103730D02*
X-158158D01*
X-157802Y103198D01*
X-157270Y102842D01*
Y103730D01*
D02*
G37*
G36*
X-133270D02*
X-134158D01*
X-133802Y103198D01*
X-133270Y102842D01*
Y103730D01*
D02*
G37*
G36*
X-109270D02*
X-110158D01*
X-109802Y103198D01*
X-109270Y102842D01*
Y103730D01*
D02*
G37*
G36*
X-105842D02*
X-106730D01*
Y102842D01*
X-106198Y103198D01*
X-105842Y103730D01*
D02*
G37*
G36*
X-117842D02*
X-118730D01*
Y102842D01*
X-118198Y103198D01*
X-117842Y103730D01*
D02*
G37*
G36*
X-129842D02*
X-130730D01*
Y102842D01*
X-130198Y103198D01*
X-129842Y103730D01*
D02*
G37*
G36*
X-121270D02*
X-122158D01*
X-121802Y103198D01*
X-121270Y102842D01*
Y103730D01*
D02*
G37*
G36*
X-215211Y102099D02*
X-215743Y101743D01*
X-216099Y101211D01*
X-215211D01*
Y102099D01*
D02*
G37*
G36*
X12158Y97730D02*
X11270D01*
Y96842D01*
X11802Y97198D01*
X12158Y97730D01*
D02*
G37*
G36*
X-215211Y98671D02*
X-216099D01*
X-215743Y98139D01*
X-215211Y97783D01*
Y98671D01*
D02*
G37*
G36*
X8730Y97730D02*
X7842D01*
X8198Y97198D01*
X8730Y96842D01*
Y97730D01*
D02*
G37*
G36*
X223730Y97158D02*
X223198Y96802D01*
X222842Y96270D01*
X223730D01*
Y97158D01*
D02*
G37*
G36*
X226270D02*
Y96270D01*
X227158D01*
X226802Y96802D01*
X226270Y97158D01*
D02*
G37*
G36*
X-211783Y98671D02*
X-212671D01*
Y97783D01*
X-212139Y98139D01*
X-211783Y98671D01*
D02*
G37*
G36*
X8730Y101158D02*
X8198Y100802D01*
X7842Y100270D01*
X8730D01*
Y101158D01*
D02*
G37*
G36*
X11270D02*
Y100270D01*
X12158D01*
X11802Y100802D01*
X11270Y101158D01*
D02*
G37*
G36*
X183658Y100730D02*
X182770D01*
Y99842D01*
X183302Y100198D01*
X183658Y100730D01*
D02*
G37*
G36*
X-54000Y100569D02*
X-55366Y100297D01*
X-56523Y99523D01*
X-57103Y98655D01*
X-58373D01*
X-58953Y99523D01*
X-60111Y100297D01*
X-61477Y100569D01*
X-62842Y100297D01*
X-64000Y99523D01*
X-64774Y98366D01*
X-65045Y97000D01*
X-64774Y95634D01*
X-64000Y94477D01*
X-62842Y93703D01*
X-61477Y93431D01*
X-60111Y93703D01*
X-58953Y94477D01*
X-58373Y95345D01*
X-57103D01*
X-56523Y94477D01*
X-55366Y93703D01*
X-54000Y93431D01*
X-52634Y93703D01*
X-51477Y94477D01*
X-50703Y95634D01*
X-50431Y97000D01*
X-50703Y98366D01*
X-51477Y99523D01*
X-52634Y100297D01*
X-54000Y100569D01*
D02*
G37*
G36*
X180230Y100730D02*
X179342D01*
X179698Y100198D01*
X180230Y99842D01*
Y100730D01*
D02*
G37*
G36*
X-97270Y103730D02*
X-98158D01*
X-97802Y103198D01*
X-97270Y102842D01*
Y103730D01*
D02*
G37*
G36*
X-118730Y107158D02*
Y106270D01*
X-117842D01*
X-118198Y106802D01*
X-118730Y107158D01*
D02*
G37*
G36*
X-109270D02*
X-109802Y106802D01*
X-110158Y106270D01*
X-109270D01*
Y107158D01*
D02*
G37*
G36*
X-121270D02*
X-121802Y106802D01*
X-122158Y106270D01*
X-121270D01*
Y107158D01*
D02*
G37*
G36*
X-133270D02*
X-133802Y106802D01*
X-134158Y106270D01*
X-133270D01*
Y107158D01*
D02*
G37*
G36*
X-130730D02*
Y106270D01*
X-129842D01*
X-130198Y106802D01*
X-130730Y107158D01*
D02*
G37*
G36*
X-106730D02*
Y106270D01*
X-105842D01*
X-106198Y106802D01*
X-106730Y107158D01*
D02*
G37*
G36*
X-292770Y109658D02*
X-293302Y109302D01*
X-293658Y108770D01*
X-292770D01*
Y109658D01*
D02*
G37*
G36*
X-290230D02*
Y108770D01*
X-289342D01*
X-289697Y109302D01*
X-290230Y109658D01*
D02*
G37*
G36*
X130000Y115569D02*
X128634Y115297D01*
X127477Y114523D01*
X126703Y113366D01*
X126431Y112000D01*
X126703Y110634D01*
X127477Y109477D01*
X128634Y108703D01*
X130000Y108431D01*
X131366Y108703D01*
X132523Y109477D01*
X133297Y110634D01*
X133569Y112000D01*
X133297Y113366D01*
X132523Y114523D01*
X131366Y115297D01*
X130000Y115569D01*
D02*
G37*
G36*
X-97270Y107158D02*
X-97802Y106802D01*
X-98158Y106270D01*
X-97270D01*
Y107158D01*
D02*
G37*
G36*
X-94730D02*
Y106270D01*
X-93842D01*
X-94198Y106802D01*
X-94730Y107158D01*
D02*
G37*
G36*
X-142730D02*
Y106270D01*
X-141842D01*
X-142198Y106802D01*
X-142730Y107158D01*
D02*
G37*
G36*
X-292770Y106230D02*
X-293658D01*
X-293302Y105697D01*
X-292770Y105342D01*
Y106230D01*
D02*
G37*
G36*
X-289342D02*
X-290230D01*
Y105342D01*
X-289697Y105697D01*
X-289342Y106230D01*
D02*
G37*
G36*
X182770Y104158D02*
Y103270D01*
X183658D01*
X183302Y103802D01*
X182770Y104158D01*
D02*
G37*
G36*
X-93842Y103730D02*
X-94730D01*
Y102842D01*
X-94198Y103198D01*
X-93842Y103730D01*
D02*
G37*
G36*
X180230Y104158D02*
X179698Y103802D01*
X179342Y103270D01*
X180230D01*
Y104158D01*
D02*
G37*
G36*
X-237170Y106230D02*
X-238058D01*
X-237703Y105697D01*
X-237170Y105342D01*
Y106230D01*
D02*
G37*
G36*
X-154730Y107158D02*
Y106270D01*
X-153842D01*
X-154198Y106802D01*
X-154730Y107158D01*
D02*
G37*
G36*
X-145270D02*
X-145802Y106802D01*
X-146158Y106270D01*
X-145270D01*
Y107158D01*
D02*
G37*
G36*
X-157270D02*
X-157802Y106802D01*
X-158158Y106270D01*
X-157270D01*
Y107158D01*
D02*
G37*
G36*
X-233742Y106230D02*
X-234630D01*
Y105342D01*
X-234098Y105697D01*
X-233742Y106230D01*
D02*
G37*
G36*
X0Y113189D02*
X-1366Y112917D01*
X-2523Y112143D01*
X-3297Y110986D01*
X-3569Y109620D01*
X-3297Y108254D01*
X-2523Y107097D01*
X-1366Y106323D01*
X0Y106051D01*
X1366Y106323D01*
X2523Y107097D01*
X3297Y108254D01*
X3569Y109620D01*
X3297Y110986D01*
X2523Y112143D01*
X1366Y112917D01*
X0Y113189D01*
D02*
G37*
G36*
X-271730Y182972D02*
Y164270D01*
X-253028D01*
X-253289Y166921D01*
X-254433Y170691D01*
X-256290Y174165D01*
X-258789Y177211D01*
X-261835Y179710D01*
X-265309Y181567D01*
X-269079Y182711D01*
X-271730Y182972D01*
D02*
G37*
G36*
X271730D02*
X269079Y182711D01*
X265309Y181567D01*
X261835Y179710D01*
X258789Y177211D01*
X256290Y174165D01*
X254433Y170691D01*
X253289Y166921D01*
X253028Y164270D01*
X271730D01*
Y182972D01*
D02*
G37*
G36*
X-274270D02*
X-276921Y182711D01*
X-280691Y181567D01*
X-284165Y179710D01*
X-287211Y177211D01*
X-289710Y174165D01*
X-291567Y170691D01*
X-292711Y166921D01*
X-292972Y164270D01*
X-274270D01*
Y182972D01*
D02*
G37*
G36*
X228430Y168730D02*
X222080D01*
Y162380D01*
X228430D01*
Y168730D01*
D02*
G37*
G36*
X237320D02*
X230970D01*
Y162380D01*
X237320D01*
Y168730D01*
D02*
G37*
G36*
X274270Y182972D02*
Y164270D01*
X292972D01*
X292711Y166921D01*
X291567Y170691D01*
X289710Y174165D01*
X287211Y177211D01*
X284165Y179710D01*
X280691Y181567D01*
X276921Y182711D01*
X274270Y182972D01*
D02*
G37*
G36*
X-20000Y171569D02*
X-21366Y171297D01*
X-22523Y170523D01*
X-23297Y169366D01*
X-23569Y168000D01*
X-23297Y166634D01*
X-22523Y165477D01*
X-21366Y164703D01*
X-20000Y164431D01*
X-18634Y164703D01*
X-17477Y165477D01*
X-16703Y166634D01*
X-16431Y168000D01*
X-16703Y169366D01*
X-17477Y170523D01*
X-18634Y171297D01*
X-20000Y171569D01*
D02*
G37*
G36*
X20730Y166388D02*
X20198Y166032D01*
X19842Y165500D01*
X20730D01*
Y166388D01*
D02*
G37*
G36*
X-30000Y171569D02*
X-31366Y171297D01*
X-32523Y170523D01*
X-33297Y169366D01*
X-33569Y168000D01*
X-33297Y166634D01*
X-32523Y165477D01*
X-31366Y164703D01*
X-30000Y164431D01*
X-28634Y164703D01*
X-27477Y165477D01*
X-26703Y166634D01*
X-26431Y168000D01*
X-26703Y169366D01*
X-27477Y170523D01*
X-28634Y171297D01*
X-30000Y171569D01*
D02*
G37*
G36*
X-51000D02*
X-52366Y171297D01*
X-53523Y170523D01*
X-54297Y169366D01*
X-54569Y168000D01*
X-54297Y166634D01*
X-53523Y165477D01*
X-52366Y164703D01*
X-51000Y164431D01*
X-49634Y164703D01*
X-48477Y165477D01*
X-47703Y166634D01*
X-47431Y168000D01*
X-47703Y169366D01*
X-48477Y170523D01*
X-49634Y171297D01*
X-51000Y171569D01*
D02*
G37*
G36*
X-40000D02*
X-41366Y171297D01*
X-42523Y170523D01*
X-43297Y169366D01*
X-43569Y168000D01*
X-43297Y166634D01*
X-42523Y165477D01*
X-41366Y164703D01*
X-40000Y164431D01*
X-38634Y164703D01*
X-37477Y165477D01*
X-36703Y166634D01*
X-36431Y168000D01*
X-36703Y169366D01*
X-37477Y170523D01*
X-38634Y171297D01*
X-40000Y171569D01*
D02*
G37*
G36*
X100888Y162960D02*
X100000D01*
Y162072D01*
X100532Y162428D01*
X100888Y162960D01*
D02*
G37*
G36*
X70730Y156158D02*
X70198Y155802D01*
X69842Y155270D01*
X70730D01*
Y156158D01*
D02*
G37*
G36*
X73270D02*
Y155270D01*
X74158D01*
X73802Y155802D01*
X73270Y156158D01*
D02*
G37*
G36*
X161000Y160569D02*
X159634Y160297D01*
X158477Y159523D01*
X157703Y158366D01*
X157431Y157000D01*
X157703Y155634D01*
X158477Y154477D01*
X159634Y153703D01*
X161000Y153431D01*
X162366Y153703D01*
X163523Y154477D01*
X164297Y155634D01*
X164569Y157000D01*
X164297Y158366D01*
X163523Y159523D01*
X162366Y160297D01*
X161000Y160569D01*
D02*
G37*
G36*
X-5270Y154158D02*
X-5802Y153802D01*
X-6158Y153270D01*
X-5270D01*
Y154158D01*
D02*
G37*
G36*
X-2730D02*
Y153270D01*
X-1842D01*
X-2198Y153802D01*
X-2730Y154158D01*
D02*
G37*
G36*
X108230Y164799D02*
X106864Y164527D01*
X105707Y163753D01*
X104933Y162596D01*
X104661Y161230D01*
X104933Y159864D01*
X105707Y158707D01*
X106864Y157933D01*
X108230Y157661D01*
X109596Y157933D01*
X110753Y158707D01*
X111527Y159864D01*
X111799Y161230D01*
X111527Y162596D01*
X110753Y163753D01*
X109596Y164527D01*
X108230Y164799D01*
D02*
G37*
G36*
X24158Y162960D02*
X23270D01*
Y162072D01*
X23802Y162428D01*
X24158Y162960D01*
D02*
G37*
G36*
X97460D02*
X96572D01*
X96928Y162428D01*
X97460Y162072D01*
Y162960D01*
D02*
G37*
G36*
X20730D02*
X19842D01*
X20198Y162428D01*
X20730Y162072D01*
Y162960D01*
D02*
G37*
G36*
X31500Y165069D02*
X30134Y164797D01*
X28977Y164023D01*
X28203Y162866D01*
X27931Y161500D01*
X28203Y160134D01*
X28977Y158977D01*
X30134Y158203D01*
X31500Y157931D01*
X32866Y158203D01*
X34023Y158977D01*
X34797Y160134D01*
X35069Y161500D01*
X34797Y162866D01*
X34023Y164023D01*
X32866Y164797D01*
X31500Y165069D01*
D02*
G37*
G36*
X204300Y179703D02*
X201789Y179372D01*
X199449Y178403D01*
X197439Y176861D01*
X195897Y174851D01*
X194928Y172511D01*
X194597Y170000D01*
X194928Y167489D01*
X195897Y165149D01*
X197439Y163139D01*
X199449Y161597D01*
X201789Y160628D01*
X204300Y160297D01*
X206811Y160628D01*
X209151Y161597D01*
X211161Y163139D01*
X212703Y165149D01*
X213672Y167489D01*
X214003Y170000D01*
X213672Y172511D01*
X212703Y174851D01*
X211161Y176861D01*
X209151Y178403D01*
X206811Y179372D01*
X204300Y179703D01*
D02*
G37*
G36*
X23270Y166388D02*
Y165500D01*
X24158D01*
X23802Y166032D01*
X23270Y166388D01*
D02*
G37*
G36*
X172158Y178730D02*
X171270D01*
Y177842D01*
X171802Y178198D01*
X172158Y178730D01*
D02*
G37*
G36*
X63730Y182158D02*
X63198Y181802D01*
X62842Y181270D01*
X63730D01*
Y182158D01*
D02*
G37*
G36*
X168730Y178730D02*
X167842D01*
X168198Y178198D01*
X168730Y177842D01*
Y178730D01*
D02*
G37*
G36*
X139730D02*
X138842D01*
X139198Y178198D01*
X139730Y177842D01*
Y178730D01*
D02*
G37*
G36*
X143158D02*
X142270D01*
Y177842D01*
X142802Y178198D01*
X143158Y178730D01*
D02*
G37*
G36*
X66270Y182158D02*
Y181270D01*
X67158D01*
X66802Y181802D01*
X66270Y182158D01*
D02*
G37*
G36*
X171270D02*
Y181270D01*
X172158D01*
X171802Y181802D01*
X171270Y182158D01*
D02*
G37*
G36*
X-214270Y182730D02*
X-215158D01*
X-214802Y182198D01*
X-214270Y181842D01*
Y182730D01*
D02*
G37*
G36*
X168730Y182158D02*
X168198Y181802D01*
X167842Y181270D01*
X168730D01*
Y182158D01*
D02*
G37*
G36*
X139730D02*
X139198Y181802D01*
X138842Y181270D01*
X139730D01*
Y182158D01*
D02*
G37*
G36*
X142270D02*
Y181270D01*
X143158D01*
X142802Y181802D01*
X142270Y182158D01*
D02*
G37*
G36*
X67158Y178730D02*
X66270D01*
Y177842D01*
X66802Y178198D01*
X67158Y178730D01*
D02*
G37*
G36*
X237320Y177620D02*
X230970D01*
Y171270D01*
X237320D01*
Y177620D01*
D02*
G37*
G36*
X-51000Y180569D02*
X-52366Y180297D01*
X-53523Y179523D01*
X-54297Y178366D01*
X-54569Y177000D01*
X-54297Y175634D01*
X-53523Y174477D01*
X-52366Y173703D01*
X-51000Y173431D01*
X-49634Y173703D01*
X-48477Y174477D01*
X-47703Y175634D01*
X-47431Y177000D01*
X-47703Y178366D01*
X-48477Y179523D01*
X-49634Y180297D01*
X-51000Y180569D01*
D02*
G37*
G36*
X228430Y177620D02*
X222080D01*
Y171270D01*
X228430D01*
Y177620D01*
D02*
G37*
G36*
X97460Y166388D02*
X96928Y166032D01*
X96572Y165500D01*
X97460D01*
Y166388D01*
D02*
G37*
G36*
X100000D02*
Y165500D01*
X100888D01*
X100532Y166032D01*
X100000Y166388D01*
D02*
G37*
G36*
X-40000Y180569D02*
X-41366Y180297D01*
X-42523Y179523D01*
X-43297Y178366D01*
X-43569Y177000D01*
X-43297Y175634D01*
X-42523Y174477D01*
X-41366Y173703D01*
X-40000Y173431D01*
X-38634Y173703D01*
X-37477Y174477D01*
X-36703Y175634D01*
X-36431Y177000D01*
X-36703Y178366D01*
X-37477Y179523D01*
X-38634Y180297D01*
X-40000Y180569D01*
D02*
G37*
G36*
X5000Y182069D02*
X3634Y181797D01*
X2477Y181023D01*
X1703Y179866D01*
X1431Y178500D01*
X1703Y177134D01*
X2477Y175977D01*
X3634Y175203D01*
X5000Y174931D01*
X6366Y175203D01*
X7523Y175977D01*
X8297Y177134D01*
X8569Y178500D01*
X8297Y179866D01*
X7523Y181023D01*
X6366Y181797D01*
X5000Y182069D01*
D02*
G37*
G36*
X63730Y178730D02*
X62842D01*
X63198Y178198D01*
X63730Y177842D01*
Y178730D01*
D02*
G37*
G36*
X81730Y181799D02*
X80364Y181527D01*
X79207Y180753D01*
X78433Y179596D01*
X78161Y178230D01*
X78433Y176864D01*
X79207Y175707D01*
X80364Y174933D01*
X81730Y174661D01*
X83096Y174933D01*
X84253Y175707D01*
X85027Y176864D01*
X85299Y178230D01*
X85027Y179596D01*
X84253Y180753D01*
X83096Y181527D01*
X81730Y181799D01*
D02*
G37*
G36*
X-30000Y180569D02*
X-31366Y180297D01*
X-32523Y179523D01*
X-33297Y178366D01*
X-33569Y177000D01*
X-33297Y175634D01*
X-32523Y174477D01*
X-31366Y173703D01*
X-30000Y173431D01*
X-28634Y173703D01*
X-27477Y174477D01*
X-26703Y175634D01*
X-26431Y177000D01*
X-26703Y178366D01*
X-27477Y179523D01*
X-28634Y180297D01*
X-30000Y180569D01*
D02*
G37*
G36*
X-20000D02*
X-21366Y180297D01*
X-22523Y179523D01*
X-23297Y178366D01*
X-23569Y177000D01*
X-23297Y175634D01*
X-22523Y174477D01*
X-21366Y173703D01*
X-20000Y173431D01*
X-18634Y173703D01*
X-17477Y174477D01*
X-16703Y175634D01*
X-16431Y177000D01*
X-16703Y178366D01*
X-17477Y179523D01*
X-18634Y180297D01*
X-20000Y180569D01*
D02*
G37*
G36*
X-274930Y134760D02*
Y133270D01*
X-273440D01*
X-274037Y134163D01*
X-274930Y134760D01*
D02*
G37*
G36*
X-58270Y135158D02*
X-58802Y134802D01*
X-59158Y134270D01*
X-58270D01*
Y135158D01*
D02*
G37*
G36*
X-277470Y134760D02*
X-278363Y134163D01*
X-278960Y133270D01*
X-277470D01*
Y134760D01*
D02*
G37*
G36*
X106730Y133730D02*
X105842D01*
X106198Y133198D01*
X106730Y132842D01*
Y133730D01*
D02*
G37*
G36*
X110158D02*
X109270D01*
Y132842D01*
X109802Y133198D01*
X110158Y133730D01*
D02*
G37*
G36*
X-55730Y135158D02*
Y134270D01*
X-54842D01*
X-55198Y134802D01*
X-55730Y135158D01*
D02*
G37*
G36*
X230888Y136572D02*
X230000D01*
Y135684D01*
X230532Y136039D01*
X230888Y136572D01*
D02*
G37*
G36*
X106730Y137158D02*
X106198Y136802D01*
X105842Y136270D01*
X106730D01*
Y137158D01*
D02*
G37*
G36*
X227460Y136572D02*
X226572D01*
X226928Y136039D01*
X227460Y135684D01*
Y136572D01*
D02*
G37*
G36*
X-11270Y135842D02*
X-12158D01*
X-11802Y135309D01*
X-11270Y134954D01*
Y135842D01*
D02*
G37*
G36*
X-7842D02*
X-8730D01*
Y134954D01*
X-8198Y135309D01*
X-7842Y135842D01*
D02*
G37*
G36*
X253270Y132158D02*
Y131270D01*
X254158D01*
X253802Y131802D01*
X253270Y132158D01*
D02*
G37*
G36*
X-273440Y130730D02*
X-274930D01*
Y129241D01*
X-274037Y129837D01*
X-273440Y130730D01*
D02*
G37*
G36*
X-35270Y131158D02*
X-35802Y130802D01*
X-36158Y130270D01*
X-35270D01*
Y131158D01*
D02*
G37*
G36*
X-277470Y130730D02*
X-278960D01*
X-278363Y129837D01*
X-277470Y129241D01*
Y130730D01*
D02*
G37*
G36*
X250730Y128730D02*
X249842D01*
X250198Y128198D01*
X250730Y127842D01*
Y128730D01*
D02*
G37*
G36*
X254158D02*
X253270D01*
Y127842D01*
X253802Y128198D01*
X254158Y128730D01*
D02*
G37*
G36*
X-32730Y131158D02*
Y130270D01*
X-31842D01*
X-32198Y130802D01*
X-32730Y131158D01*
D02*
G37*
G36*
X-54842Y131730D02*
X-55730D01*
Y130842D01*
X-55198Y131198D01*
X-54842Y131730D01*
D02*
G37*
G36*
X250730Y132158D02*
X250198Y131802D01*
X249842Y131270D01*
X250730D01*
Y132158D01*
D02*
G37*
G36*
X-58270Y131730D02*
X-59158D01*
X-58802Y131198D01*
X-58270Y130842D01*
Y131730D01*
D02*
G37*
G36*
X-11270Y131158D02*
X-11802Y130802D01*
X-12158Y130270D01*
X-11270D01*
Y131158D01*
D02*
G37*
G36*
X-8730D02*
Y130270D01*
X-7842D01*
X-8198Y130802D01*
X-8730Y131158D01*
D02*
G37*
G36*
X109270Y137158D02*
Y136270D01*
X110158D01*
X109802Y136802D01*
X109270Y137158D01*
D02*
G37*
G36*
X210730Y147730D02*
X209842D01*
X210198Y147198D01*
X210730Y146842D01*
Y147730D01*
D02*
G37*
G36*
X214158D02*
X213270D01*
Y146842D01*
X213802Y147198D01*
X214158Y147730D01*
D02*
G37*
G36*
X55656Y150724D02*
X54290Y150453D01*
X53133Y149679D01*
X52359Y148521D01*
X52087Y147156D01*
X52359Y145790D01*
X53133Y144633D01*
X54290Y143859D01*
X55656Y143587D01*
X57021Y143859D01*
X58179Y144633D01*
X58953Y145790D01*
X59224Y147156D01*
X58953Y148521D01*
X58179Y149679D01*
X57021Y150453D01*
X55656Y150724D01*
D02*
G37*
G36*
X271730Y161730D02*
X253028D01*
X253289Y159079D01*
X254433Y155309D01*
X256290Y151835D01*
X258789Y148789D01*
X261835Y146290D01*
X265309Y144433D01*
X269079Y143289D01*
X271730Y143028D01*
Y161730D01*
D02*
G37*
G36*
X292972D02*
X274270D01*
Y143028D01*
X276921Y143289D01*
X280691Y144433D01*
X284165Y146290D01*
X287211Y148789D01*
X289710Y151835D01*
X291567Y155309D01*
X292711Y159079D01*
X292972Y161730D01*
D02*
G37*
G36*
X-5270Y150730D02*
X-6158D01*
X-5802Y150198D01*
X-5270Y149842D01*
Y150730D01*
D02*
G37*
G36*
X70730Y152730D02*
X69842D01*
X70198Y152198D01*
X70730Y151842D01*
Y152730D01*
D02*
G37*
G36*
X74158D02*
X73270D01*
Y151842D01*
X73802Y152198D01*
X74158Y152730D01*
D02*
G37*
G36*
X213270Y151158D02*
Y150270D01*
X214158D01*
X213802Y150802D01*
X213270Y151158D01*
D02*
G37*
G36*
X-1842Y150730D02*
X-2730D01*
Y149842D01*
X-2198Y150198D01*
X-1842Y150730D01*
D02*
G37*
G36*
X210730Y151158D02*
X210198Y150802D01*
X209842Y150270D01*
X210730D01*
Y151158D01*
D02*
G37*
G36*
X-253028Y161730D02*
X-271730D01*
Y143028D01*
X-269079Y143289D01*
X-265309Y144433D01*
X-261835Y146290D01*
X-258789Y148789D01*
X-256290Y151835D01*
X-254433Y155309D01*
X-253289Y159079D01*
X-253028Y161730D01*
D02*
G37*
G36*
X-11270Y139270D02*
X-11802Y138914D01*
X-12158Y138382D01*
X-11270D01*
Y139270D01*
D02*
G37*
G36*
X-8730D02*
Y138382D01*
X-7842D01*
X-8198Y138914D01*
X-8730Y139270D01*
D02*
G37*
G36*
X169500Y144069D02*
X168134Y143797D01*
X166977Y143023D01*
X166203Y141866D01*
X165931Y140500D01*
X166203Y139134D01*
X166977Y137977D01*
X168134Y137203D01*
X169500Y136931D01*
X170866Y137203D01*
X172023Y137977D01*
X172797Y139134D01*
X173069Y140500D01*
X172797Y141866D01*
X172023Y143023D01*
X170866Y143797D01*
X169500Y144069D01*
D02*
G37*
G36*
X61572Y137460D02*
X60684D01*
X61040Y136928D01*
X61572Y136572D01*
Y137460D01*
D02*
G37*
G36*
X65000D02*
X64112D01*
Y136572D01*
X64644Y136928D01*
X65000Y137460D01*
D02*
G37*
G36*
X227460Y140000D02*
X226928Y139644D01*
X226572Y139112D01*
X227460D01*
Y140000D01*
D02*
G37*
G36*
X132000Y148569D02*
X130634Y148297D01*
X129477Y147523D01*
X128703Y146366D01*
X128431Y145000D01*
X128703Y143634D01*
X129477Y142477D01*
X130634Y141703D01*
X132000Y141431D01*
X133366Y141703D01*
X134523Y142477D01*
X135297Y143634D01*
X135569Y145000D01*
X135297Y146366D01*
X134523Y147523D01*
X133366Y148297D01*
X132000Y148569D01*
D02*
G37*
G36*
X-274270Y161730D02*
X-292972D01*
X-292711Y159079D01*
X-291567Y155309D01*
X-289710Y151835D01*
X-287211Y148789D01*
X-284165Y146290D01*
X-280691Y144433D01*
X-276921Y143289D01*
X-274270Y143028D01*
Y161730D01*
D02*
G37*
G36*
X64112Y140888D02*
Y140000D01*
X65000D01*
X64644Y140532D01*
X64112Y140888D01*
D02*
G37*
G36*
X230000Y140000D02*
Y139112D01*
X230888D01*
X230532Y139644D01*
X230000Y140000D01*
D02*
G37*
G36*
X61572Y140888D02*
X61040Y140532D01*
X60684Y140000D01*
X61572D01*
Y140888D01*
D02*
G37*
G36*
X-210842Y182730D02*
X-211730D01*
Y181842D01*
X-211198Y182198D01*
X-210842Y182730D01*
D02*
G37*
G36*
X186730Y30158D02*
X186198Y29802D01*
X185842Y29270D01*
X186730D01*
Y30158D01*
D02*
G37*
G36*
X189270D02*
Y29270D01*
X190158D01*
X189802Y29802D01*
X189270Y30158D01*
D02*
G37*
G36*
X67270D02*
Y29270D01*
X68158D01*
X67802Y29802D01*
X67270Y30158D01*
D02*
G37*
G36*
X-259730Y29158D02*
Y28270D01*
X-258842D01*
X-259198Y28802D01*
X-259730Y29158D01*
D02*
G37*
G36*
X64730Y30158D02*
X64198Y29802D01*
X63842Y29270D01*
X64730D01*
Y30158D01*
D02*
G37*
G36*
X211730D02*
X211198Y29802D01*
X210842Y29270D01*
X211730D01*
Y30158D01*
D02*
G37*
G36*
X85070Y32070D02*
X84182D01*
X84538Y31538D01*
X85070Y31182D01*
Y32070D01*
D02*
G37*
G36*
X88498D02*
X87610D01*
Y31182D01*
X88142Y31538D01*
X88498Y32070D01*
D02*
G37*
G36*
X-289342Y31230D02*
X-290230D01*
Y30342D01*
X-289697Y30698D01*
X-289342Y31230D01*
D02*
G37*
G36*
X214270Y30158D02*
Y29270D01*
X215158D01*
X214802Y29802D01*
X214270Y30158D01*
D02*
G37*
G36*
X-292770Y31230D02*
X-293658D01*
X-293302Y30698D01*
X-292770Y30342D01*
Y31230D01*
D02*
G37*
G36*
X-262270Y29158D02*
X-262802Y28802D01*
X-263158Y28270D01*
X-262270D01*
Y29158D01*
D02*
G37*
G36*
X186730Y26730D02*
X185842D01*
X186198Y26198D01*
X186730Y25842D01*
Y26730D01*
D02*
G37*
G36*
X190158D02*
X189270D01*
Y25842D01*
X189802Y26198D01*
X190158Y26730D01*
D02*
G37*
G36*
X68158D02*
X67270D01*
Y25842D01*
X67802Y26198D01*
X68158Y26730D01*
D02*
G37*
G36*
X231200Y26369D02*
X229834Y26097D01*
X228677Y25323D01*
X228412Y24927D01*
X227142D01*
X226877Y25323D01*
X225719Y26097D01*
X224354Y26369D01*
X222988Y26097D01*
X221830Y25323D01*
X221057Y24166D01*
X220785Y22800D01*
X221057Y21434D01*
X221830Y20277D01*
X222717Y19684D01*
Y18414D01*
X221830Y17822D01*
X221057Y16664D01*
X220785Y15298D01*
X221057Y13933D01*
X221830Y12775D01*
X222988Y12002D01*
X224354Y11730D01*
X225719Y12002D01*
X226877Y12775D01*
X227142Y13171D01*
X228412D01*
X228677Y12775D01*
X229834Y12002D01*
X231200Y11730D01*
X232566Y12002D01*
X233723Y12775D01*
X234497Y13933D01*
X234769Y15298D01*
X234497Y16664D01*
X233723Y17822D01*
X232837Y18414D01*
Y19684D01*
X233723Y20277D01*
X234497Y21434D01*
X234769Y22800D01*
X234497Y24166D01*
X233723Y25323D01*
X232566Y26097D01*
X231200Y26369D01*
D02*
G37*
G36*
X64730Y26730D02*
X63842D01*
X64198Y26198D01*
X64730Y25842D01*
Y26730D01*
D02*
G37*
G36*
X211730D02*
X210842D01*
X211198Y26198D01*
X211730Y25842D01*
Y26730D01*
D02*
G37*
G36*
X-94270Y28158D02*
X-94802Y27802D01*
X-95158Y27270D01*
X-94270D01*
Y28158D01*
D02*
G37*
G36*
X-91730D02*
Y27270D01*
X-90842D01*
X-91198Y27802D01*
X-91730Y28158D01*
D02*
G37*
G36*
X-210500Y33569D02*
X-211865Y33297D01*
X-213023Y32523D01*
X-213797Y31366D01*
X-214068Y30000D01*
X-213797Y28634D01*
X-213023Y27477D01*
X-211865Y26703D01*
X-210500Y26431D01*
X-209134Y26703D01*
X-207976Y27477D01*
X-207203Y28634D01*
X-206931Y30000D01*
X-207203Y31366D01*
X-207976Y32523D01*
X-209134Y33297D01*
X-210500Y33569D01*
D02*
G37*
G36*
X215158Y26730D02*
X214270D01*
Y25842D01*
X214802Y26198D01*
X215158Y26730D01*
D02*
G37*
G36*
X-184000Y33273D02*
X-185366Y33001D01*
X-186523Y32228D01*
X-187297Y31070D01*
X-187569Y29704D01*
X-187297Y28339D01*
X-186523Y27181D01*
X-185366Y26407D01*
X-184000Y26136D01*
X-182634Y26407D01*
X-181477Y27181D01*
X-180703Y28339D01*
X-180431Y29704D01*
X-180703Y31070D01*
X-181477Y32228D01*
X-182634Y33001D01*
X-184000Y33273D01*
D02*
G37*
G36*
X235000Y34572D02*
X234112D01*
X234468Y34039D01*
X235000Y33684D01*
Y34572D01*
D02*
G37*
G36*
X228730Y39730D02*
X227842D01*
X228198Y39198D01*
X228730Y38842D01*
Y39730D01*
D02*
G37*
G36*
X232158D02*
X231270D01*
Y38842D01*
X231802Y39198D01*
X232158Y39730D01*
D02*
G37*
G36*
X-215000Y45569D02*
X-216366Y45297D01*
X-217523Y44523D01*
X-218297Y43366D01*
X-218569Y42000D01*
X-218297Y40634D01*
X-217523Y39477D01*
X-216366Y38703D01*
X-215000Y38431D01*
X-213634Y38703D01*
X-212477Y39477D01*
X-211703Y40634D01*
X-211431Y42000D01*
X-211703Y43366D01*
X-212477Y44523D01*
X-213634Y45297D01*
X-215000Y45569D01*
D02*
G37*
G36*
X140460Y38888D02*
X139572D01*
X139928Y38356D01*
X140460Y38000D01*
Y38888D01*
D02*
G37*
G36*
X143888D02*
X143000D01*
Y38000D01*
X143532Y38356D01*
X143888Y38888D01*
D02*
G37*
G36*
X37500Y46569D02*
X36134Y46297D01*
X34977Y45523D01*
X34203Y44366D01*
X33931Y43000D01*
X34203Y41634D01*
X34977Y40477D01*
X36134Y39703D01*
X37500Y39431D01*
X38866Y39703D01*
X40023Y40477D01*
X40797Y41634D01*
X41069Y43000D01*
X40797Y44366D01*
X40023Y45523D01*
X38866Y46297D01*
X37500Y46569D01*
D02*
G37*
G36*
X140460Y42316D02*
X139928Y41961D01*
X139572Y41428D01*
X140460D01*
Y42316D01*
D02*
G37*
G36*
X143000D02*
Y41428D01*
X143888D01*
X143532Y41961D01*
X143000Y42316D01*
D02*
G37*
G36*
X204270Y41158D02*
Y40270D01*
X205158D01*
X204802Y40802D01*
X204270Y41158D01*
D02*
G37*
G36*
X10500Y47069D02*
X9134Y46797D01*
X7977Y46023D01*
X7203Y44866D01*
X6931Y43500D01*
X7203Y42134D01*
X7977Y40977D01*
X9134Y40203D01*
X10500Y39931D01*
X11866Y40203D01*
X13023Y40977D01*
X13797Y42134D01*
X14069Y43500D01*
X13797Y44866D01*
X13023Y46023D01*
X11866Y46797D01*
X10500Y47069D01*
D02*
G37*
G36*
X201730Y41158D02*
X201198Y40802D01*
X200842Y40270D01*
X201730D01*
Y41158D01*
D02*
G37*
G36*
X237540Y38000D02*
Y37112D01*
X238428D01*
X238072Y37644D01*
X237540Y38000D01*
D02*
G37*
G36*
X-269250Y46069D02*
X-270616Y45797D01*
X-271773Y45023D01*
X-272547Y43865D01*
X-272819Y42500D01*
X-272547Y41134D01*
X-271773Y39976D01*
X-270616Y39203D01*
X-269250Y38931D01*
X-269250Y38931D01*
X-269250Y38931D01*
X-268635Y38906D01*
X-267850Y37908D01*
X-267931Y37500D01*
X-267660Y36134D01*
X-266886Y34976D01*
X-265728Y34203D01*
X-264363Y33931D01*
X-262997Y34203D01*
X-261839Y34976D01*
X-261066Y36134D01*
X-260794Y37500D01*
X-261066Y38865D01*
X-261839Y40023D01*
X-262997Y40797D01*
X-264363Y41069D01*
X-264363Y41069D01*
X-264363Y41069D01*
X-264977Y41094D01*
X-265763Y42092D01*
X-265681Y42500D01*
X-265953Y43865D01*
X-266727Y45023D01*
X-267884Y45797D01*
X-269250Y46069D01*
D02*
G37*
G36*
X85070Y35498D02*
X84538Y35142D01*
X84182Y34610D01*
X85070D01*
Y35498D01*
D02*
G37*
G36*
X-290230Y34658D02*
Y33770D01*
X-289342D01*
X-289697Y34302D01*
X-290230Y34658D01*
D02*
G37*
G36*
X238428Y34572D02*
X237540D01*
Y33684D01*
X238072Y34039D01*
X238428Y34572D01*
D02*
G37*
G36*
X-292770Y34658D02*
X-293302Y34302D01*
X-293658Y33770D01*
X-292770D01*
Y34658D01*
D02*
G37*
G36*
X87610Y35498D02*
Y34610D01*
X88498D01*
X88142Y35142D01*
X87610Y35498D01*
D02*
G37*
G36*
X205158Y37730D02*
X204270D01*
Y36842D01*
X204802Y37198D01*
X205158Y37730D01*
D02*
G37*
G36*
X235000Y38000D02*
X234468Y37644D01*
X234112Y37112D01*
X235000D01*
Y38000D01*
D02*
G37*
G36*
X201730Y37730D02*
X200842D01*
X201198Y37198D01*
X201730Y36842D01*
Y37730D01*
D02*
G37*
G36*
X-229000Y42569D02*
X-230366Y42297D01*
X-231523Y41523D01*
X-232297Y40366D01*
X-232569Y39000D01*
X-232297Y37634D01*
X-231523Y36477D01*
X-230366Y35703D01*
X-229000Y35431D01*
X-227634Y35703D01*
X-226477Y36477D01*
X-225703Y37634D01*
X-225431Y39000D01*
X-225703Y40366D01*
X-226477Y41523D01*
X-227634Y42297D01*
X-229000Y42569D01*
D02*
G37*
G36*
X83340Y52418D02*
X82038Y52159D01*
X81779Y52108D01*
X80456Y51224D01*
X80456Y51224D01*
X73311Y44078D01*
X66000D01*
X64439Y43768D01*
X63116Y42884D01*
X62232Y41561D01*
X61922Y40000D01*
X62232Y38439D01*
X63116Y37116D01*
X64439Y36232D01*
X66000Y35922D01*
X75000D01*
X75000Y35922D01*
X76302Y36181D01*
X76561Y36232D01*
X77884Y37116D01*
X85029Y44262D01*
X130340D01*
X131901Y44572D01*
X133224Y45456D01*
X134108Y46779D01*
X134418Y48340D01*
X134108Y49901D01*
X133224Y51224D01*
X131901Y52108D01*
X130340Y52418D01*
X83340D01*
X83340Y52418D01*
D02*
G37*
G36*
X-44770Y12658D02*
X-45302Y12302D01*
X-45658Y11770D01*
X-44770D01*
Y12658D01*
D02*
G37*
G36*
X-42230D02*
Y11770D01*
X-41342D01*
X-41698Y12302D01*
X-42230Y12658D01*
D02*
G37*
G36*
X-289342Y11230D02*
X-290230D01*
Y10342D01*
X-289697Y10698D01*
X-289342Y11230D01*
D02*
G37*
G36*
X27658Y9230D02*
X26770D01*
Y8342D01*
X27302Y8698D01*
X27658Y9230D01*
D02*
G37*
G36*
X-292770Y11230D02*
X-293658D01*
X-293302Y10698D01*
X-292770Y10342D01*
Y11230D01*
D02*
G37*
G36*
X24230Y12658D02*
X23698Y12302D01*
X23342Y11770D01*
X24230D01*
Y12658D01*
D02*
G37*
G36*
X64730Y14730D02*
X63842D01*
X64198Y14198D01*
X64730Y13842D01*
Y14730D01*
D02*
G37*
G36*
X68158D02*
X67270D01*
Y13842D01*
X67802Y14198D01*
X68158Y14730D01*
D02*
G37*
G36*
X-290230Y14658D02*
Y13770D01*
X-289342D01*
X-289697Y14302D01*
X-290230Y14658D01*
D02*
G37*
G36*
X26770Y12658D02*
Y11770D01*
X27658D01*
X27302Y12302D01*
X26770Y12658D01*
D02*
G37*
G36*
X-292770Y14658D02*
X-293302Y14302D01*
X-293658Y13770D01*
X-292770D01*
Y14658D01*
D02*
G37*
G36*
X24230Y9230D02*
X23342D01*
X23698Y8698D01*
X24230Y8342D01*
Y9230D01*
D02*
G37*
G36*
X-129110Y5730D02*
X-129998D01*
Y4842D01*
X-129466Y5198D01*
X-129110Y5730D01*
D02*
G37*
G36*
X255730Y6428D02*
X255198Y6072D01*
X254842Y5540D01*
X255730D01*
Y6428D01*
D02*
G37*
G36*
X-132538Y5730D02*
X-133427D01*
X-133071Y5198D01*
X-132538Y4842D01*
Y5730D01*
D02*
G37*
G36*
X-163270Y5158D02*
X-163802Y4802D01*
X-164158Y4270D01*
X-163270D01*
Y5158D01*
D02*
G37*
G36*
X-160730D02*
Y4270D01*
X-159842D01*
X-160198Y4802D01*
X-160730Y5158D01*
D02*
G37*
G36*
X258270Y6428D02*
Y5540D01*
X259158D01*
X258802Y6072D01*
X258270Y6428D01*
D02*
G37*
G36*
X-44770Y9230D02*
X-45658D01*
X-45302Y8698D01*
X-44770Y8342D01*
Y9230D01*
D02*
G37*
G36*
X-41342D02*
X-42230D01*
Y8342D01*
X-41698Y8698D01*
X-41342Y9230D01*
D02*
G37*
G36*
X-129998Y9158D02*
Y8270D01*
X-129110D01*
X-129466Y8802D01*
X-129998Y9158D01*
D02*
G37*
G36*
X195000Y8569D02*
X193634Y8297D01*
X192477Y7523D01*
X192125Y6996D01*
X190855D01*
X190503Y7523D01*
X189345Y8297D01*
X187979Y8569D01*
X186614Y8297D01*
X185456Y7523D01*
X184682Y6366D01*
X184411Y5000D01*
X184682Y3634D01*
X185456Y2477D01*
X186614Y1703D01*
X187979Y1431D01*
X189345Y1703D01*
X190503Y2477D01*
X190855Y3003D01*
X192125D01*
X192477Y2477D01*
X193634Y1703D01*
X195000Y1431D01*
X196366Y1703D01*
X197523Y2477D01*
X198297Y3634D01*
X198569Y5000D01*
X198297Y6366D01*
X197523Y7523D01*
X196366Y8297D01*
X195000Y8569D01*
D02*
G37*
G36*
X-132538Y9158D02*
X-133071Y8802D01*
X-133427Y8270D01*
X-132538D01*
Y9158D01*
D02*
G37*
G36*
X-207000Y21569D02*
X-208366Y21297D01*
X-209523Y20523D01*
X-210297Y19366D01*
X-210569Y18000D01*
X-210297Y16634D01*
X-209523Y15477D01*
X-208366Y14703D01*
X-207000Y14431D01*
X-205634Y14703D01*
X-204477Y15477D01*
X-203703Y16634D01*
X-203431Y18000D01*
X-203703Y19366D01*
X-204477Y20523D01*
X-205634Y21297D01*
X-207000Y21569D01*
D02*
G37*
G36*
X10730Y20658D02*
X10198Y20302D01*
X9842Y19770D01*
X10730D01*
Y20658D01*
D02*
G37*
G36*
X13270D02*
Y19770D01*
X14158D01*
X13802Y20302D01*
X13270Y20658D01*
D02*
G37*
G36*
X4770D02*
Y19770D01*
X5658D01*
X5302Y20302D01*
X4770Y20658D01*
D02*
G37*
G36*
X-24230Y19658D02*
Y18770D01*
X-23342D01*
X-23698Y19302D01*
X-24230Y19658D01*
D02*
G37*
G36*
X2230Y20658D02*
X1698Y20302D01*
X1342Y19770D01*
X2230D01*
Y20658D01*
D02*
G37*
G36*
X-16401Y21290D02*
X-16934Y20934D01*
X-17290Y20401D01*
X-16401D01*
Y21290D01*
D02*
G37*
G36*
X-262270Y25730D02*
X-263158D01*
X-262802Y25198D01*
X-262270Y24842D01*
Y25730D01*
D02*
G37*
G36*
X-258842D02*
X-259730D01*
Y24842D01*
X-259198Y25198D01*
X-258842Y25730D01*
D02*
G37*
G36*
X-90842Y24730D02*
X-91730D01*
Y23842D01*
X-91198Y24198D01*
X-90842Y24730D01*
D02*
G37*
G36*
X-13861Y21290D02*
Y20401D01*
X-12973D01*
X-13329Y20934D01*
X-13861Y21290D01*
D02*
G37*
G36*
X-94270Y24730D02*
X-95158D01*
X-94802Y24198D01*
X-94270Y23842D01*
Y24730D01*
D02*
G37*
G36*
X-26770Y19658D02*
X-27302Y19302D01*
X-27658Y18770D01*
X-26770D01*
Y19658D01*
D02*
G37*
G36*
X2230Y17230D02*
X1342D01*
X1698Y16698D01*
X2230Y16342D01*
Y17230D01*
D02*
G37*
G36*
X5658D02*
X4770D01*
Y16342D01*
X5302Y16698D01*
X5658Y17230D01*
D02*
G37*
G36*
X-23342Y16230D02*
X-24230D01*
Y15342D01*
X-23698Y15698D01*
X-23342Y16230D01*
D02*
G37*
G36*
X142000Y21890D02*
X140634Y21619D01*
X139477Y20845D01*
X138703Y19688D01*
X138431Y18322D01*
X138703Y16956D01*
X139477Y15799D01*
X140634Y15025D01*
X142000Y14753D01*
X143366Y15025D01*
X144523Y15799D01*
X145297Y16956D01*
X145569Y18322D01*
X145297Y19688D01*
X144523Y20845D01*
X143366Y21619D01*
X142000Y21890D01*
D02*
G37*
G36*
X-26770Y16230D02*
X-27658D01*
X-27302Y15698D01*
X-26770Y15342D01*
Y16230D01*
D02*
G37*
G36*
X10730Y17230D02*
X9842D01*
X10198Y16698D01*
X10730Y16342D01*
Y17230D01*
D02*
G37*
G36*
X64730Y18158D02*
X64198Y17802D01*
X63842Y17270D01*
X64730D01*
Y18158D01*
D02*
G37*
G36*
X67270D02*
Y17270D01*
X68158D01*
X67802Y17802D01*
X67270Y18158D01*
D02*
G37*
G36*
X-12973Y17861D02*
X-13861D01*
Y16973D01*
X-13329Y17329D01*
X-12973Y17861D01*
D02*
G37*
G36*
X14158Y17230D02*
X13270D01*
Y16342D01*
X13802Y16698D01*
X14158Y17230D01*
D02*
G37*
G36*
X-16401Y17861D02*
X-17290D01*
X-16934Y17329D01*
X-16401Y16973D01*
Y17861D01*
D02*
G37*
G36*
X209730Y66158D02*
X209198Y65802D01*
X208842Y65270D01*
X209730D01*
Y66158D01*
D02*
G37*
G36*
X212270D02*
Y65270D01*
X213158D01*
X212802Y65802D01*
X212270Y66158D01*
D02*
G37*
G36*
X292000Y71068D02*
X290634Y70797D01*
X289477Y70023D01*
X288703Y68865D01*
X288431Y67500D01*
X288703Y66134D01*
X289477Y64977D01*
X290634Y64203D01*
X292000Y63931D01*
X293366Y64203D01*
X294523Y64977D01*
X295297Y66134D01*
X295569Y67500D01*
X295297Y68865D01*
X294523Y70023D01*
X293366Y70797D01*
X292000Y71068D01*
D02*
G37*
G36*
X137770Y64658D02*
Y63770D01*
X138658D01*
X138302Y64302D01*
X137770Y64658D01*
D02*
G37*
G36*
X-269250Y76068D02*
X-270616Y75797D01*
X-271773Y75023D01*
X-272547Y73865D01*
X-272819Y72500D01*
X-272547Y71134D01*
X-271773Y69977D01*
X-270616Y69203D01*
X-269250Y68931D01*
X-269250Y68931D01*
X-269250Y68931D01*
X-268635Y68906D01*
X-267850Y67908D01*
X-267931Y67500D01*
X-267660Y66134D01*
X-266886Y64976D01*
X-265728Y64203D01*
X-264363Y63931D01*
X-262997Y64203D01*
X-261839Y64976D01*
X-261066Y66134D01*
X-260794Y67500D01*
X-261066Y68865D01*
X-261839Y70023D01*
X-262997Y70797D01*
X-264363Y71068D01*
X-264363Y71068D01*
X-264363Y71068D01*
X-264977Y71094D01*
X-265763Y72092D01*
X-265681Y72500D01*
X-265953Y73865D01*
X-266727Y75023D01*
X-267884Y75797D01*
X-269250Y76068D01*
D02*
G37*
G36*
X58000Y72569D02*
X56634Y72297D01*
X55477Y71523D01*
X54703Y70366D01*
X54431Y69000D01*
X54703Y67634D01*
X55477Y66477D01*
X56634Y65703D01*
X58000Y65431D01*
X59366Y65703D01*
X60523Y66477D01*
X61297Y67634D01*
X61569Y69000D01*
X61297Y70366D01*
X60523Y71523D01*
X59366Y72297D01*
X58000Y72569D01*
D02*
G37*
G36*
X-36438Y70730D02*
X-37326D01*
Y69842D01*
X-36794Y70198D01*
X-36438Y70730D01*
D02*
G37*
G36*
X-15857Y71571D02*
X-16390Y71215D01*
X-16746Y70683D01*
X-15857D01*
Y71571D01*
D02*
G37*
G36*
X-39866Y70730D02*
X-40754D01*
X-40399Y70198D01*
X-39866Y69842D01*
Y70730D01*
D02*
G37*
G36*
X-15857Y68142D02*
X-16746D01*
X-16390Y67610D01*
X-15857Y67254D01*
Y68142D01*
D02*
G37*
G36*
X-12429D02*
X-13318D01*
Y67254D01*
X-12785Y67610D01*
X-12429Y68142D01*
D02*
G37*
G36*
X135230Y64658D02*
X134698Y64302D01*
X134342Y63770D01*
X135230D01*
Y64658D01*
D02*
G37*
G36*
X213158Y62730D02*
X212270D01*
Y61842D01*
X212802Y62198D01*
X213158Y62730D01*
D02*
G37*
G36*
X233000Y69569D02*
X231634Y69297D01*
X230477Y68523D01*
X229703Y67366D01*
X229431Y66000D01*
X229703Y64634D01*
X230477Y63477D01*
X231634Y62703D01*
X233000Y62431D01*
X234366Y62703D01*
X235523Y63477D01*
X236297Y64634D01*
X236569Y66000D01*
X236297Y67366D01*
X235523Y68523D01*
X234366Y69297D01*
X233000Y69569D01*
D02*
G37*
G36*
X209730Y62730D02*
X208842D01*
X209198Y62198D01*
X209730Y61842D01*
Y62730D01*
D02*
G37*
G36*
X138658Y61230D02*
X137770D01*
Y60342D01*
X138302Y60698D01*
X138658Y61230D01*
D02*
G37*
G36*
X-54000Y68569D02*
X-55366Y68297D01*
X-56523Y67523D01*
X-57297Y66366D01*
X-57569Y65000D01*
X-57297Y63634D01*
X-56523Y62477D01*
X-55366Y61703D01*
X-54000Y61431D01*
X-52634Y61703D01*
X-51477Y62477D01*
X-50703Y63634D01*
X-50431Y65000D01*
X-50703Y66366D01*
X-51477Y67523D01*
X-52634Y68297D01*
X-54000Y68569D01*
D02*
G37*
G36*
X25572Y63428D02*
X25040Y63072D01*
X24684Y62540D01*
X25572D01*
Y63428D01*
D02*
G37*
G36*
X-237170Y64658D02*
X-237703Y64302D01*
X-238058Y63770D01*
X-237170D01*
Y64658D01*
D02*
G37*
G36*
X-234630D02*
Y63770D01*
X-233742D01*
X-234098Y64302D01*
X-234630Y64658D01*
D02*
G37*
G36*
X-290230D02*
Y63770D01*
X-289342D01*
X-289697Y64302D01*
X-290230Y64658D01*
D02*
G37*
G36*
X28112Y63428D02*
Y62540D01*
X29000D01*
X28644Y63072D01*
X28112Y63428D01*
D02*
G37*
G36*
X-292770Y64658D02*
X-293302Y64302D01*
X-293658Y63770D01*
X-292770D01*
Y64658D01*
D02*
G37*
G36*
X-13318Y71571D02*
Y70683D01*
X-12429D01*
X-12785Y71215D01*
X-13318Y71571D01*
D02*
G37*
G36*
X-8000Y88069D02*
X-9366Y87797D01*
X-10523Y87023D01*
X-11297Y85866D01*
X-11569Y84500D01*
X-11297Y83134D01*
X-10523Y81977D01*
X-9366Y81203D01*
X-8000Y80931D01*
X-6634Y81203D01*
X-5477Y81977D01*
X-4703Y83134D01*
X-4431Y84500D01*
X-4703Y85866D01*
X-5477Y87023D01*
X-6634Y87797D01*
X-8000Y88069D01*
D02*
G37*
G36*
X-292770Y91230D02*
X-293658D01*
X-293302Y90697D01*
X-292770Y90342D01*
Y91230D01*
D02*
G37*
G36*
X44000Y110039D02*
X43220Y109884D01*
X42558Y109442D01*
X34455Y101339D01*
X34013Y100677D01*
X33858Y99897D01*
Y97753D01*
X34013Y96973D01*
X34455Y96311D01*
X36208Y94558D01*
X36870Y94116D01*
X37650Y93961D01*
X40000D01*
X40226Y94006D01*
X52116Y82116D01*
X52116Y82116D01*
X53439Y81232D01*
X55000Y80922D01*
X182000D01*
X183561Y81232D01*
X184884Y82116D01*
X185768Y83439D01*
X186078Y85000D01*
X185768Y86561D01*
X184884Y87884D01*
X183561Y88768D01*
X182000Y89078D01*
X153233D01*
X152986Y90323D01*
X154143Y91097D01*
X154917Y92254D01*
X155189Y93620D01*
X154917Y94986D01*
X154143Y96143D01*
X152986Y96917D01*
X151620Y97189D01*
X150254Y96917D01*
X149097Y96143D01*
X148323Y94986D01*
X148051Y93620D01*
X148323Y92254D01*
X149097Y91097D01*
X150254Y90323D01*
X150007Y89078D01*
X56689D01*
X46326Y99442D01*
X49282Y102398D01*
X49724Y103060D01*
X49879Y103840D01*
Y107000D01*
X49724Y107780D01*
X49282Y108442D01*
X48282Y109442D01*
X47620Y109884D01*
X46840Y110039D01*
X44000D01*
X44000Y110039D01*
D02*
G37*
G36*
X-234630Y79658D02*
Y78770D01*
X-233742D01*
X-234098Y79302D01*
X-234630Y79658D01*
D02*
G37*
G36*
X-269250Y91068D02*
X-270616Y90797D01*
X-271773Y90023D01*
X-272547Y88865D01*
X-272819Y87500D01*
X-272547Y86134D01*
X-271773Y84976D01*
X-270616Y84203D01*
X-269250Y83931D01*
X-269250Y83931D01*
X-269250Y83931D01*
X-268635Y83906D01*
X-267850Y82907D01*
X-267931Y82500D01*
X-267660Y81134D01*
X-266886Y79976D01*
X-265728Y79203D01*
X-264363Y78931D01*
X-262997Y79203D01*
X-261839Y79976D01*
X-261066Y81134D01*
X-260794Y82500D01*
X-261066Y83865D01*
X-261839Y85023D01*
X-262997Y85797D01*
X-264363Y86068D01*
X-264363Y86068D01*
X-264363Y86068D01*
X-264977Y86094D01*
X-265763Y87092D01*
X-265681Y87500D01*
X-265953Y88865D01*
X-266727Y90023D01*
X-267884Y90797D01*
X-269250Y91068D01*
D02*
G37*
G36*
X-289342Y91230D02*
X-290230D01*
Y90342D01*
X-289697Y90697D01*
X-289342Y91230D01*
D02*
G37*
G36*
X-290230Y94658D02*
Y93770D01*
X-289342D01*
X-289697Y94302D01*
X-290230Y94658D01*
D02*
G37*
G36*
X-269250Y106068D02*
X-270616Y105797D01*
X-271773Y105023D01*
X-272547Y103865D01*
X-272819Y102500D01*
X-272547Y101134D01*
X-271773Y99976D01*
X-270616Y99203D01*
X-269250Y98931D01*
X-269250Y98931D01*
X-269250Y98931D01*
X-268635Y98906D01*
X-267850Y97907D01*
X-267931Y97500D01*
X-267660Y96134D01*
X-266886Y94976D01*
X-265728Y94203D01*
X-264363Y93931D01*
X-262997Y94203D01*
X-261839Y94976D01*
X-261066Y96134D01*
X-260794Y97500D01*
X-261066Y98865D01*
X-261839Y100023D01*
X-262997Y100797D01*
X-264363Y101068D01*
X-264363Y101068D01*
X-264363Y101068D01*
X-264977Y101094D01*
X-265763Y102092D01*
X-265681Y102500D01*
X-265953Y103865D01*
X-266727Y105023D01*
X-267884Y105797D01*
X-269250Y106068D01*
D02*
G37*
G36*
X-292770Y94658D02*
X-293302Y94302D01*
X-293658Y93770D01*
X-292770D01*
Y94658D01*
D02*
G37*
G36*
X223730Y93730D02*
X222842D01*
X223198Y93198D01*
X223730Y92842D01*
Y93730D01*
D02*
G37*
G36*
X227158D02*
X226270D01*
Y92842D01*
X226802Y93198D01*
X227158Y93730D01*
D02*
G37*
G36*
X-237170Y79658D02*
X-237703Y79302D01*
X-238058Y78770D01*
X-237170D01*
Y79658D01*
D02*
G37*
G36*
X-39866Y74158D02*
X-40399Y73802D01*
X-40754Y73270D01*
X-39866D01*
Y74158D01*
D02*
G37*
G36*
X-37326D02*
Y73270D01*
X-36438D01*
X-36794Y73802D01*
X-37326Y74158D01*
D02*
G37*
G36*
X37500Y79569D02*
X36134Y79297D01*
X34977Y78523D01*
X34203Y77366D01*
X33931Y76000D01*
X34203Y74634D01*
X34977Y73477D01*
X36134Y72703D01*
X37500Y72431D01*
X38866Y72703D01*
X40023Y73477D01*
X40797Y74634D01*
X41069Y76000D01*
X40797Y77366D01*
X40023Y78523D01*
X38866Y79297D01*
X37500Y79569D01*
D02*
G37*
G36*
X-26730Y77824D02*
X-28096Y77552D01*
X-29253Y76779D01*
X-30027Y75621D01*
X-30299Y74255D01*
X-30027Y72890D01*
X-29253Y71732D01*
X-28096Y70958D01*
X-26730Y70687D01*
X-25364Y70958D01*
X-24207Y71732D01*
X-23433Y72890D01*
X-23161Y74255D01*
X-23433Y75621D01*
X-24207Y76779D01*
X-25364Y77552D01*
X-26730Y77824D01*
D02*
G37*
G36*
X228000Y78569D02*
X226634Y78297D01*
X225477Y77523D01*
X224703Y76366D01*
X224431Y75000D01*
X224703Y73634D01*
X225477Y72477D01*
X226634Y71703D01*
X228000Y71431D01*
X229366Y71703D01*
X230523Y72477D01*
X231297Y73634D01*
X231569Y75000D01*
X231297Y76366D01*
X230523Y77523D01*
X229366Y78297D01*
X228000Y78569D01*
D02*
G37*
G36*
X-292770Y76230D02*
X-293658D01*
X-293302Y75697D01*
X-292770Y75342D01*
Y76230D01*
D02*
G37*
G36*
Y79658D02*
X-293302Y79302D01*
X-293658Y78770D01*
X-292770D01*
Y79658D01*
D02*
G37*
G36*
X-290230D02*
Y78770D01*
X-289342D01*
X-289697Y79302D01*
X-290230Y79658D01*
D02*
G37*
G36*
X-233742Y76230D02*
X-234630D01*
Y75342D01*
X-234098Y75697D01*
X-233742Y76230D01*
D02*
G37*
G36*
X-289342D02*
X-290230D01*
Y75342D01*
X-289697Y75697D01*
X-289342Y76230D01*
D02*
G37*
G36*
X-237170D02*
X-238058D01*
X-237703Y75697D01*
X-237170Y75342D01*
Y76230D01*
D02*
G37*
G36*
X-292770Y49658D02*
X-293302Y49302D01*
X-293658Y48770D01*
X-292770D01*
Y49658D01*
D02*
G37*
G36*
X-290230D02*
Y48770D01*
X-289342D01*
X-289697Y49302D01*
X-290230Y49658D01*
D02*
G37*
G36*
X237540Y48000D02*
Y47112D01*
X238428D01*
X238072Y47644D01*
X237540Y48000D01*
D02*
G37*
G36*
X187000Y60137D02*
X185634Y59865D01*
X184477Y59092D01*
X183703Y57934D01*
X183431Y56569D01*
X183703Y55203D01*
X184477Y54045D01*
X185091Y53635D01*
Y52365D01*
X184477Y51955D01*
X183703Y50797D01*
X183431Y49431D01*
X183703Y48066D01*
X184477Y46908D01*
X185634Y46135D01*
X187000Y45863D01*
X188366Y46135D01*
X189523Y46908D01*
X190297Y48066D01*
X190569Y49431D01*
X190297Y50797D01*
X189523Y51955D01*
X188909Y52365D01*
Y53635D01*
X189523Y54045D01*
X190297Y55203D01*
X190569Y56569D01*
X190297Y57934D01*
X189523Y59092D01*
X188366Y59865D01*
X187000Y60137D01*
D02*
G37*
G36*
X235000Y48000D02*
X234468Y47644D01*
X234112Y47112D01*
X235000D01*
Y48000D01*
D02*
G37*
G36*
X-237170Y49658D02*
X-237703Y49302D01*
X-238058Y48770D01*
X-237170D01*
Y49658D01*
D02*
G37*
G36*
X228730Y49730D02*
X227842D01*
X228198Y49198D01*
X228730Y48842D01*
Y49730D01*
D02*
G37*
G36*
X232158D02*
X231270D01*
Y48842D01*
X231802Y49198D01*
X232158Y49730D01*
D02*
G37*
G36*
X-166730Y49658D02*
Y48770D01*
X-165842D01*
X-166198Y49302D01*
X-166730Y49658D01*
D02*
G37*
G36*
X-234630D02*
Y48770D01*
X-233742D01*
X-234098Y49302D01*
X-234630Y49658D01*
D02*
G37*
G36*
X-169270D02*
X-169802Y49302D01*
X-170158Y48770D01*
X-169270D01*
Y49658D01*
D02*
G37*
G36*
X270198Y46430D02*
X269310D01*
Y45542D01*
X269842Y45898D01*
X270198Y46430D01*
D02*
G37*
G36*
X238428Y44572D02*
X237540D01*
Y43684D01*
X238072Y44040D01*
X238428Y44572D01*
D02*
G37*
G36*
X-292770Y46230D02*
X-293658D01*
X-293302Y45697D01*
X-292770Y45342D01*
Y46230D01*
D02*
G37*
G36*
X235000Y44572D02*
X234112D01*
X234468Y44040D01*
X235000Y43684D01*
Y44572D01*
D02*
G37*
G36*
X228730Y43158D02*
X228198Y42802D01*
X227842Y42270D01*
X228730D01*
Y43158D01*
D02*
G37*
G36*
X231270D02*
Y42270D01*
X232158D01*
X231802Y42802D01*
X231270Y43158D01*
D02*
G37*
G36*
X-289342Y46230D02*
X-290230D01*
Y45342D01*
X-289697Y45697D01*
X-289342Y46230D01*
D02*
G37*
G36*
X-165842D02*
X-166730D01*
Y45342D01*
X-166198Y45697D01*
X-165842Y46230D01*
D02*
G37*
G36*
X266770Y46430D02*
X265882D01*
X266238Y45898D01*
X266770Y45542D01*
Y46430D01*
D02*
G37*
G36*
X-169270Y46230D02*
X-170158D01*
X-169802Y45697D01*
X-169270Y45342D01*
Y46230D01*
D02*
G37*
G36*
X-237170D02*
X-238058D01*
X-237703Y45697D01*
X-237170Y45342D01*
Y46230D01*
D02*
G37*
G36*
X-233742D02*
X-234630D01*
Y45342D01*
X-234098Y45697D01*
X-233742Y46230D01*
D02*
G37*
G36*
X-269250Y61068D02*
X-270616Y60797D01*
X-271773Y60023D01*
X-272547Y58865D01*
X-272819Y57500D01*
X-272547Y56134D01*
X-271773Y54977D01*
X-270616Y54203D01*
X-269250Y53931D01*
X-269250Y53931D01*
X-269250Y53931D01*
X-268635Y53906D01*
X-267850Y52908D01*
X-267931Y52500D01*
X-267660Y51134D01*
X-266886Y49977D01*
X-265728Y49203D01*
X-264363Y48931D01*
X-262997Y49203D01*
X-261839Y49977D01*
X-261066Y51134D01*
X-260794Y52500D01*
X-261066Y53865D01*
X-261839Y55023D01*
X-262997Y55797D01*
X-264363Y56068D01*
X-264363Y56069D01*
X-264363Y56068D01*
X-264977Y56094D01*
X-265763Y57092D01*
X-265681Y57500D01*
X-265953Y58865D01*
X-266727Y60023D01*
X-267884Y60797D01*
X-269250Y61068D01*
D02*
G37*
G36*
X81496Y65839D02*
X80131Y65567D01*
X78973Y64793D01*
X78199Y63636D01*
X77927Y62270D01*
X78199Y60904D01*
X78973Y59747D01*
X80131Y58973D01*
X81496Y58701D01*
X82862Y58973D01*
X84019Y59747D01*
X84793Y60904D01*
X85065Y62270D01*
X84793Y63636D01*
X84019Y64793D01*
X82862Y65567D01*
X81496Y65839D01*
D02*
G37*
G36*
X25572Y60000D02*
X24684D01*
X25040Y59468D01*
X25572Y59112D01*
Y60000D01*
D02*
G37*
G36*
X4000Y65799D02*
X2634Y65527D01*
X1477Y64753D01*
X703Y63596D01*
X431Y62230D01*
X703Y60864D01*
X1477Y59707D01*
X2634Y58933D01*
X4000Y58661D01*
X5366Y58933D01*
X6523Y59707D01*
X7297Y60864D01*
X7569Y62230D01*
X7297Y63596D01*
X6523Y64753D01*
X5366Y65527D01*
X4000Y65799D01*
D02*
G37*
G36*
X237270Y58158D02*
Y57270D01*
X238158D01*
X237802Y57802D01*
X237270Y58158D01*
D02*
G37*
G36*
X117226Y65569D02*
X115861Y65297D01*
X114703Y64523D01*
X113929Y63366D01*
X113658Y62000D01*
X113929Y60634D01*
X114703Y59477D01*
X115861Y58703D01*
X117226Y58431D01*
X118592Y58703D01*
X119749Y59477D01*
X120523Y60634D01*
X120795Y62000D01*
X120523Y63366D01*
X119749Y64523D01*
X118592Y65297D01*
X117226Y65569D01*
D02*
G37*
G36*
X29000Y60000D02*
X28112D01*
Y59112D01*
X28644Y59468D01*
X29000Y60000D01*
D02*
G37*
G36*
X-233742Y61230D02*
X-234630D01*
Y60342D01*
X-234098Y60697D01*
X-233742Y61230D01*
D02*
G37*
G36*
X135230Y61230D02*
X134342D01*
X134698Y60698D01*
X135230Y60342D01*
Y61230D01*
D02*
G37*
G36*
X-237170Y61230D02*
X-238058D01*
X-237703Y60697D01*
X-237170Y60342D01*
Y61230D01*
D02*
G37*
G36*
X-292770D02*
X-293658D01*
X-293302Y60697D01*
X-292770Y60342D01*
Y61230D01*
D02*
G37*
G36*
X-289342D02*
X-290230D01*
Y60342D01*
X-289697Y60697D01*
X-289342Y61230D01*
D02*
G37*
G36*
X234730Y58158D02*
X234198Y57802D01*
X233842Y57270D01*
X234730D01*
Y58158D01*
D02*
G37*
G36*
X68158Y50730D02*
X67270D01*
Y49842D01*
X67802Y50198D01*
X68158Y50730D01*
D02*
G37*
G36*
X228730Y53158D02*
X228198Y52802D01*
X227842Y52270D01*
X228730D01*
Y53158D01*
D02*
G37*
G36*
X64730Y50730D02*
X63842D01*
X64198Y50198D01*
X64730Y49842D01*
Y50730D01*
D02*
G37*
G36*
X266770Y49858D02*
X266238Y49502D01*
X265882Y48970D01*
X266770D01*
Y49858D01*
D02*
G37*
G36*
X269310D02*
Y48970D01*
X270198D01*
X269842Y49502D01*
X269310Y49858D01*
D02*
G37*
G36*
X231270Y53158D02*
Y52270D01*
X232158D01*
X231802Y52802D01*
X231270Y53158D01*
D02*
G37*
G36*
X234730Y54730D02*
X233842D01*
X234198Y54198D01*
X234730Y53842D01*
Y54730D01*
D02*
G37*
G36*
X238158D02*
X237270D01*
Y53842D01*
X237802Y54198D01*
X238158Y54730D01*
D02*
G37*
G36*
X145000Y60569D02*
X143634Y60297D01*
X142477Y59523D01*
X141703Y58366D01*
X141431Y57000D01*
X141703Y55634D01*
X142477Y54477D01*
X143634Y53703D01*
X145000Y53431D01*
X146366Y53703D01*
X147523Y54477D01*
X148297Y55634D01*
X148569Y57000D01*
X148297Y58366D01*
X147523Y59523D01*
X146366Y60297D01*
X145000Y60569D01*
D02*
G37*
G36*
X64730Y54158D02*
X64198Y53802D01*
X63842Y53270D01*
X64730D01*
Y54158D01*
D02*
G37*
G36*
X67270D02*
Y53270D01*
X68158D01*
X67802Y53802D01*
X67270Y54158D01*
D02*
G37*
%LPD*%
G36*
X47840Y107000D02*
Y103840D01*
X40000Y96000D01*
X37650D01*
X35897Y97753D01*
Y99897D01*
X44000Y108000D01*
X46840D01*
X47840Y107000D01*
D02*
G37*
D40*
X83340Y48340D02*
X130340D01*
X75000Y40000D02*
X83340Y48340D01*
X66000Y40000D02*
X75000D01*
X55000Y85000D02*
X182000D01*
X40000Y100000D02*
X55000Y85000D01*
D41*
X-65000Y-15000D02*
Y7460D01*
X-26730Y45730D01*
X-61000Y-16657D02*
Y4000D01*
X-31000Y34000D01*
X-93000Y-43000D02*
X-65000Y-15000D01*
X-91343Y-47000D02*
X-61000Y-16657D01*
X-189363Y-47000D02*
X-91343D01*
X-191020Y-43000D02*
X-93000D01*
X-234750Y-82500D02*
X-230520D01*
X-191020Y-43000D01*
X-229863Y-87500D02*
X-189363Y-47000D01*
X289941Y-190000D02*
G03*
X299941Y-180000I0J10000D01*
G01*
Y180000D02*
G03*
X289941Y190000I-10000J0D01*
G01*
X-300000Y-180000D02*
G03*
X-290000Y-190000I10000J0D01*
G01*
Y190000D02*
G03*
X-300000Y180000I0J-10000D01*
G01*
X300000Y-180000D02*
Y180000D01*
X-300000Y-180000D02*
Y180000D01*
X-290000Y-190000D02*
X289941Y-190000D01*
X-290000Y190000D02*
X289941Y190000D01*
X-290000D02*
G03*
X-300000Y180000I0J-10000D01*
G01*
Y-180000D02*
G03*
X-290000Y-190000I10000J0D01*
G01*
X299941Y180000D02*
G03*
X289941Y190000I-10000J0D01*
G01*
Y-190000D02*
G03*
X299941Y-180000I0J10000D01*
G01*
X-290000Y190000D02*
X289941Y190000D01*
X-290000Y-190000D02*
X289941Y-190000D01*
X-300000Y-180000D02*
Y180000D01*
X300000Y-180000D02*
Y180000D01*
D47*
X53993Y-154584D02*
X54000D01*
X27493Y-143984D02*
X27500D01*
X2493D02*
X2500D01*
X28993Y-154584D02*
X29000D01*
D49*
X-276200Y-132000D02*
D03*
Y132000D02*
D03*
X60000Y-140000D02*
D03*
X50000Y-125000D02*
D03*
X-96000Y105000D02*
D03*
X-108000D02*
D03*
X-120000D02*
D03*
X-132000D02*
D03*
X-144000D02*
D03*
X260500Y-70000D02*
D03*
X269000Y-65000D02*
D03*
X7500Y-3500D02*
D03*
X25500Y10500D02*
D03*
X-222000Y-24000D02*
D03*
X-217000Y-30069D02*
D03*
X-207000Y18000D02*
D03*
X86340Y33340D02*
D03*
X66500Y-11000D02*
D03*
X108000Y135000D02*
D03*
X10000Y99000D02*
D03*
X-15131Y19131D02*
D03*
X12000Y18500D02*
D03*
X3500D02*
D03*
X-213941Y99941D02*
D03*
X66000Y16000D02*
D03*
Y28000D02*
D03*
Y40000D02*
D03*
X66000Y52000D02*
D03*
X-5000Y-16431D02*
D03*
X-21000Y-11000D02*
D03*
X-25500Y17500D02*
D03*
X-38596Y72000D02*
D03*
X-26730Y74255D02*
D03*
X4000Y62230D02*
D03*
X-54000Y65000D02*
D03*
X145000Y57000D02*
D03*
X151620Y93620D02*
D03*
X21000Y-12000D02*
D03*
X166632Y-24368D02*
D03*
X142000Y18322D02*
D03*
X130340Y48340D02*
D03*
X37500Y43000D02*
D03*
X-3500Y-44500D02*
D03*
X-54000Y3500D02*
D03*
X-43500Y-10500D02*
D03*
X17500Y-52500D02*
D03*
X43000Y-24500D02*
D03*
X3500Y-42500D02*
D03*
X24500D02*
D03*
X-26730Y45730D02*
D03*
X58000Y69000D02*
D03*
X37500Y76000D02*
D03*
X-8000Y84500D02*
D03*
X43500Y-10500D02*
D03*
X10500Y43500D02*
D03*
X-31000Y34000D02*
D03*
X-43500Y10500D02*
D03*
X-25500Y-17500D02*
D03*
X-48013Y-3500D02*
D03*
X43000Y-40000D02*
D03*
X-10500Y-42500D02*
D03*
X-17500Y-44500D02*
D03*
X-27000D02*
D03*
X187000Y49431D02*
D03*
X268040Y47700D02*
D03*
X141730Y40158D02*
D03*
X183313Y-86000D02*
D03*
X100000Y-171000D02*
D03*
X213000Y28000D02*
D03*
X188000D02*
D03*
X-156000Y105000D02*
D03*
X-194442Y-93174D02*
D03*
X-93000Y26000D02*
D03*
X78736Y-31263D02*
D03*
X-26000Y-118000D02*
D03*
Y-125000D02*
D03*
X-33000D02*
D03*
X-47000D02*
D03*
X-40000Y-118000D02*
D03*
X-47000D02*
D03*
X-33000D02*
D03*
X-235900Y107500D02*
D03*
X-257000Y122500D02*
D03*
X-235900Y77500D02*
D03*
Y62500D02*
D03*
Y47500D02*
D03*
X-246523Y-133123D02*
D03*
X-270400Y-107500D02*
D03*
X-291500Y-102500D02*
D03*
Y-77500D02*
D03*
Y-42500D02*
D03*
X-270400Y-17500D02*
D03*
X-291500Y-12500D02*
D03*
Y12500D02*
D03*
Y32500D02*
D03*
Y47500D02*
D03*
Y62500D02*
D03*
Y77500D02*
D03*
Y92500D02*
D03*
Y107500D02*
D03*
X-156270Y117000D02*
D03*
X-163270D02*
D03*
X-34000Y129000D02*
D03*
X-46000Y122000D02*
D03*
X-57000Y133000D02*
D03*
X222000Y-136000D02*
D03*
X257000Y-82500D02*
D03*
X182000Y85000D02*
D03*
X228000Y75000D02*
D03*
X230000Y51000D02*
D03*
Y41000D02*
D03*
X169500Y-105000D02*
D03*
X13000Y112000D02*
D03*
X180500Y-54500D02*
D03*
X-152000Y-18000D02*
D03*
X-162000Y3000D02*
D03*
X-146000Y-1000D02*
D03*
X-108000Y-60000D02*
D03*
X-142359Y-83431D02*
D03*
X-1000Y-179000D02*
D03*
X135000Y-170000D02*
D03*
X258000Y-183000D02*
D03*
X203000Y39000D02*
D03*
X136500Y62500D02*
D03*
X98000Y121000D02*
D03*
X181500Y102000D02*
D03*
X252000Y130000D02*
D03*
X228730Y137842D02*
D03*
X170000Y180000D02*
D03*
X65000D02*
D03*
X98730Y164230D02*
D03*
X-4000Y152000D02*
D03*
X22000Y164230D02*
D03*
X-213000Y184000D02*
D03*
X-291500Y122500D02*
D03*
X179500Y-95500D02*
D03*
X31680Y-94680D02*
D03*
X132000Y145000D02*
D03*
X75000Y123000D02*
D03*
X83000Y-95000D02*
D03*
X-264363Y67500D02*
D03*
X-198500Y-142500D02*
D03*
X-261000Y27000D02*
D03*
X51851Y-65297D02*
D03*
X-10000Y137112D02*
D03*
X-69000Y-148000D02*
D03*
X-79000Y-68000D02*
D03*
X182000Y115000D02*
D03*
X150678Y-57106D02*
D03*
X0Y109620D02*
D03*
X292000Y67500D02*
D03*
X-120000Y-171000D02*
D03*
X236270Y35842D02*
D03*
X81730Y178230D02*
D03*
X-234556Y-92575D02*
D03*
X-40000Y-125000D02*
D03*
X170678Y-81188D02*
D03*
X71000Y-147000D02*
D03*
X225000Y-121000D02*
D03*
X201640Y-24059D02*
D03*
X206000Y500D02*
D03*
X231200Y22800D02*
D03*
X224354D02*
D03*
Y15298D02*
D03*
X231200D02*
D03*
X257000Y-5000D02*
D03*
X236270Y45842D02*
D03*
X224000Y-17500D02*
D03*
X220979Y-28000D02*
D03*
X293000Y-35000D02*
D03*
X263000Y0D02*
D03*
X72000Y154000D02*
D03*
X141000Y180000D02*
D03*
X62842Y138730D02*
D03*
X-223000Y-182000D02*
D03*
X-14588Y69412D02*
D03*
X236000Y56000D02*
D03*
X-170000Y117000D02*
D03*
X-131268Y7000D02*
D03*
X-244000Y-147000D02*
D03*
X26842Y61270D02*
D03*
X-78000Y-140000D02*
D03*
X-183000Y3000D02*
D03*
X292000Y-87500D02*
D03*
X211000Y64000D02*
D03*
X84500Y-81500D02*
D03*
X10500Y-44500D02*
D03*
X212000Y149000D02*
D03*
X294000Y-19000D02*
D03*
X270000Y-122500D02*
D03*
X268000Y-110000D02*
D03*
X225000Y95000D02*
D03*
X257000Y4270D02*
D03*
X170678Y-57106D02*
D03*
X103500Y-46000D02*
D03*
X176000Y-24000D02*
D03*
X155000Y-24334D02*
D03*
X-270400Y-87500D02*
D03*
Y-117500D02*
D03*
X-264363Y52500D02*
D03*
X-269250Y57500D02*
D03*
X-264363Y37500D02*
D03*
X-269250Y42500D02*
D03*
X292000Y7500D02*
D03*
X120000Y-61000D02*
D03*
X292000Y-42500D02*
D03*
Y-77500D02*
D03*
X270000Y-82500D02*
D03*
X292000Y-57500D02*
D03*
X-269250Y72500D02*
D03*
X262000Y-47000D02*
D03*
X209000Y-51000D02*
D03*
X211500Y-60500D02*
D03*
X213000Y-34000D02*
D03*
X187979Y5000D02*
D03*
X265000Y-37500D02*
D03*
X269000Y-44000D02*
D03*
X217000Y-52000D02*
D03*
X222000Y-36000D02*
D03*
X236000Y-27500D02*
D03*
X149000Y-83000D02*
D03*
X133178Y-72250D02*
D03*
X188178Y-70000D02*
D03*
X-269250Y87500D02*
D03*
X-264363Y82500D02*
D03*
X-269250Y102500D02*
D03*
X-264363Y97500D02*
D03*
X-269250Y117500D02*
D03*
X-264363Y112500D02*
D03*
X-164000Y-24000D02*
D03*
X-215000Y42000D02*
D03*
X-234000Y-52500D02*
D03*
X-210500Y30000D02*
D03*
X-229000Y-57610D02*
D03*
X-234750Y-82500D02*
D03*
X-229863Y-87500D02*
D03*
X160632Y-1866D02*
D03*
X-215000Y-39000D02*
D03*
X-184000Y29704D02*
D03*
X-229000Y39000D02*
D03*
X148000Y0D02*
D03*
X206000Y-95000D02*
D03*
X215500Y-77500D02*
D03*
X258000Y-112500D02*
D03*
X233000Y66000D02*
D03*
X-20000Y177000D02*
D03*
X-30000D02*
D03*
X-40000D02*
D03*
X-51000D02*
D03*
X-20000Y168000D02*
D03*
X-30000D02*
D03*
X-40000D02*
D03*
X-51000D02*
D03*
X5000Y178500D02*
D03*
X31500Y161500D02*
D03*
X108230Y161230D02*
D03*
X184500Y-104500D02*
D03*
X-219500Y-172500D02*
D03*
X-159000Y-143000D02*
D03*
X-120000Y-178000D02*
D03*
X-6250Y-131000D02*
D03*
X-19000Y-161000D02*
D03*
X-44380D02*
D03*
X-18750Y-131000D02*
D03*
X169500Y-116000D02*
D03*
X213000Y5000D02*
D03*
X213657Y-69000D02*
D03*
X292000Y-27500D02*
D03*
X207000Y-29000D02*
D03*
X195000Y5000D02*
D03*
X236000Y-17500D02*
D03*
X117226Y62000D02*
D03*
X81496Y62270D02*
D03*
X187000Y56569D02*
D03*
X259500Y-12500D02*
D03*
X260500Y-28000D02*
D03*
X240000Y-150000D02*
D03*
X-226140Y-105342D02*
D03*
X40000Y100000D02*
D03*
X45000Y105000D02*
D03*
X225000Y-93000D02*
D03*
X161000Y157000D02*
D03*
X125000Y120000D02*
D03*
X130000Y112000D02*
D03*
X-61477Y97000D02*
D03*
X169500Y140500D02*
D03*
X-54000Y97000D02*
D03*
X-197000Y124000D02*
D03*
X154620Y-118000D02*
D03*
X-168000Y47500D02*
D03*
X-201101Y-73500D02*
D03*
X-89000Y-87000D02*
D03*
X-2000Y-66000D02*
D03*
X-134000Y-99000D02*
D03*
X-159500Y-57500D02*
D03*
X262000Y-91000D02*
D03*
X55656Y147156D02*
D03*
X231000Y115000D02*
D03*
X-215000Y-97500D02*
D03*
X-185000Y-72000D02*
D03*
X-185198Y-78802D02*
D03*
X135000Y-180000D02*
D03*
X124750Y-177750D02*
D03*
X83663Y-167002D02*
D03*
X124750Y-155250D02*
D03*
X70000Y-125000D02*
D03*
X188750Y-126587D02*
D03*
X201250D02*
D03*
X261000Y-120000D02*
D03*
X196250Y-164000D02*
D03*
X146730Y-139643D02*
D03*
X208750Y-164000D02*
D03*
X134523Y-139643D02*
D03*
X221250Y-164000D02*
D03*
X158993Y-139643D02*
D03*
X171000Y-164000D02*
D03*
X-10000Y129000D02*
D03*
X-273000Y179000D02*
D03*
X-285000Y152000D02*
D03*
X-289000Y163000D02*
D03*
X-262000Y174000D02*
D03*
X-273000Y147000D02*
D03*
X-285000Y174000D02*
D03*
X-257000Y163000D02*
D03*
X-262000Y151000D02*
D03*
X-273000Y-147000D02*
D03*
X-285000Y-174000D02*
D03*
X-289000Y-163000D02*
D03*
X-262000Y-152000D02*
D03*
X-273000Y-179000D02*
D03*
X-285000Y-152000D02*
D03*
X-257000Y-163000D02*
D03*
X-262000Y-175000D02*
D03*
X273000Y-147000D02*
D03*
X261000Y-174000D02*
D03*
X257000Y-163000D02*
D03*
X284000Y-152000D02*
D03*
X273000Y-179000D02*
D03*
X261000Y-152000D02*
D03*
X289000Y-163000D02*
D03*
X284000Y-175000D02*
D03*
X273000Y179000D02*
D03*
X261000Y152000D02*
D03*
X257000Y163000D02*
D03*
X284000Y174000D02*
D03*
X273000Y147000D02*
D03*
X261000Y174000D02*
D03*
X289000Y163000D02*
D03*
X284000Y151000D02*
D03*
D50*
X-273000Y163000D02*
D03*
X273000D02*
D03*
X-273000Y-163000D02*
D03*
X273000D02*
D03*
D51*
X229700Y170000D02*
D03*
D52*
X204300D02*
D03*
D53*
X-100000Y-1000D02*
D03*
X100000D02*
D03*
M02*
