%FSLAX44Y44*%
%MOMM*%
G71*
G01*
G75*
G04 Layer_Physical_Order=1*
G04 Layer_Color=255*
%ADD10R,0.5000X0.6000*%
%ADD11R,0.6000X0.5000*%
%ADD12R,0.5000X1.1000*%
%ADD13R,1.1000X0.5000*%
%ADD14R,0.8128X0.8128*%
%ADD15R,1.0160X0.8890*%
%ADD16R,2.4000X1.2500*%
%ADD17R,1.2000X1.2500*%
%ADD18R,0.8890X1.0160*%
%ADD19R,1.6002X1.2954*%
%ADD20R,0.7600X1.5200*%
%ADD21R,0.8128X0.8128*%
%ADD22R,1.0668X0.8128*%
G04:AMPARAMS|DCode=23|XSize=0.22mm|YSize=0.8mm|CornerRadius=0mm|HoleSize=0mm|Usage=FLASHONLY|Rotation=90.000|XOffset=0mm|YOffset=0mm|HoleType=Round|Shape=RoundedRectangle|*
%AMROUNDEDRECTD23*
21,1,0.2200,0.8000,0,0,90.0*
21,1,0.2200,0.8000,0,0,90.0*
1,1,0.0000,0.4000,0.1100*
1,1,0.0000,0.4000,-0.1100*
1,1,0.0000,-0.4000,-0.1100*
1,1,0.0000,-0.4000,0.1100*
%
%ADD23ROUNDEDRECTD23*%
G04:AMPARAMS|DCode=24|XSize=0.22mm|YSize=0.8mm|CornerRadius=0mm|HoleSize=0mm|Usage=FLASHONLY|Rotation=0.000|XOffset=0mm|YOffset=0mm|HoleType=Round|Shape=RoundedRectangle|*
%AMROUNDEDRECTD24*
21,1,0.2200,0.8000,0,0,0.0*
21,1,0.2200,0.8000,0,0,0.0*
1,1,0.0000,0.1100,-0.4000*
1,1,0.0000,-0.1100,-0.4000*
1,1,0.0000,-0.1100,0.4000*
1,1,0.0000,0.1100,0.4000*
%
%ADD24ROUNDEDRECTD24*%
%ADD25R,4.3000X4.3000*%
%ADD26R,0.7000X0.6000*%
%ADD27R,1.2500X0.3000*%
%ADD28R,0.7000X1.6000*%
%ADD29R,1.1000X1.4000*%
%ADD30R,1.6000X1.4000*%
%ADD31R,1.2000X2.2000*%
%ADD32R,1.2000X1.4000*%
%ADD33R,0.8000X1.6000*%
%ADD34R,1.4000X0.6000*%
%ADD35P,1.8385X4X90.0*%
%ADD36R,1.2700X0.5080*%
%ADD37R,1.3970X1.3970*%
%ADD38R,1.2000X1.6000*%
%ADD39R,1.5000X0.4000*%
%ADD40C,0.4000*%
%ADD41C,0.2000*%
%ADD42C,0.3000*%
%ADD43C,0.2540*%
%ADD44C,0.1270*%
%ADD45C,0.6000*%
%ADD46R,1.3000X1.2000*%
%ADD47C,0.0254*%
%ADD48C,4.4000*%
%ADD49C,0.5000*%
G04:AMPARAMS|DCode=50|XSize=4mm|YSize=4mm|CornerRadius=2mm|HoleSize=0mm|Usage=FLASHONLY|Rotation=0.000|XOffset=0mm|YOffset=0mm|HoleType=Round|Shape=RoundedRectangle|*
%AMROUNDEDRECTD50*
21,1,4.0000,0.0000,0,0,0.0*
21,1,0.0000,4.0000,0,0,0.0*
1,1,4.0000,0.0000,0.0000*
1,1,4.0000,0.0000,0.0000*
1,1,4.0000,0.0000,0.0000*
1,1,4.0000,0.0000,0.0000*
%
%ADD50ROUNDEDRECTD50*%
%ADD51R,1.5240X1.5240*%
%ADD52C,1.5240*%
G36*
X-141718Y57127D02*
Y54118D01*
X-144159D01*
Y36380D01*
X-166562D01*
X-176616Y46434D01*
Y47931D01*
X-184616D01*
Y49201D01*
X-185886D01*
Y56201D01*
X-186383D01*
X-189000Y58818D01*
X-188514Y59991D01*
X-144583D01*
X-141718Y57127D01*
D02*
G37*
G36*
X-75715Y59680D02*
Y54118D01*
X-78156D01*
Y36380D01*
X-80123D01*
Y42848D01*
X-87123D01*
Y36380D01*
X-89089D01*
Y54118D01*
X-91531D01*
Y64147D01*
X-91531Y64147D01*
X-91763Y65318D01*
X-92427Y66310D01*
X-92427Y66310D01*
X-100934Y74818D01*
X-100449Y75991D01*
X-92026D01*
X-75715Y59680D01*
D02*
G37*
G36*
X139158Y121158D02*
Y115158D01*
X132703Y108703D01*
X128297D01*
X121000Y116000D01*
Y122000D01*
X124000Y125000D01*
X135316D01*
X139158Y121158D01*
D02*
G37*
G36*
X266198Y4802D02*
Y-3802D01*
X261000Y-9000D01*
X242000D01*
X238000Y-5000D01*
Y5000D01*
X240500Y7500D01*
X263500D01*
X266198Y4802D01*
D02*
G37*
G36*
X251022Y27500D02*
X251530Y27000D01*
X251530Y12500D01*
X251030Y12000D01*
X222000Y12000D01*
X220657Y13343D01*
X220657Y26657D01*
X221500Y27500D01*
X251022Y27500D01*
D02*
G37*
G36*
X250528Y54472D02*
Y35999D01*
X247029Y32500D01*
X232500D01*
X226000Y39000D01*
Y52445D01*
X232555Y59000D01*
X246000D01*
X250528Y54472D01*
D02*
G37*
G36*
X-40000Y186941D02*
Y180569D01*
X-41366Y180297D01*
X-42523Y179523D01*
X-43297Y178366D01*
X-43569Y177000D01*
X-43297Y175634D01*
X-42523Y174477D01*
X-41366Y173703D01*
X-40000Y173431D01*
Y171569D01*
X-41366Y171297D01*
X-42523Y170523D01*
X-43297Y169366D01*
X-43569Y168000D01*
X-43297Y166634D01*
X-42523Y165477D01*
X-41366Y164703D01*
X-40000Y164431D01*
Y156201D01*
X-44539D01*
Y146471D01*
X-38539D01*
Y143931D01*
X-44539D01*
Y134201D01*
X-40000D01*
Y74069D01*
X-40399Y73802D01*
X-40754Y73270D01*
X-38596D01*
Y70730D01*
X-40754D01*
X-40399Y70198D01*
X-40000Y69931D01*
Y56111D01*
X-44096D01*
Y54118D01*
X-45153D01*
Y54118D01*
X-48024D01*
X-48490Y54816D01*
X-48490Y54816D01*
X-53970Y60296D01*
X-53601Y61511D01*
X-52634Y61703D01*
X-51477Y62477D01*
X-50703Y63634D01*
X-50431Y65000D01*
X-50703Y66366D01*
X-51477Y67523D01*
X-52634Y68297D01*
X-54000Y68569D01*
X-55366Y68297D01*
X-56523Y67523D01*
X-57297Y66366D01*
X-57489Y65399D01*
X-58705Y65030D01*
X-82887Y89213D01*
X-83879Y89876D01*
X-85050Y90109D01*
X-85050Y90109D01*
X-189629D01*
Y134198D01*
X-187626D01*
Y143928D01*
X-193626D01*
Y146468D01*
X-187626D01*
Y156198D01*
X-189629D01*
Y186043D01*
X-188731Y186941D01*
X-40000Y186941D01*
D02*
G37*
G36*
X-50320Y-93150D02*
X-47579D01*
Y-102225D01*
X-47579Y-102225D01*
X-47346Y-103396D01*
X-46683Y-104388D01*
X-40789Y-110282D01*
X-40789Y-110282D01*
X-40194Y-110680D01*
X-39796Y-110945D01*
X-38626Y-111178D01*
X12852D01*
X18837Y-117163D01*
X18837Y-117163D01*
X19829Y-117826D01*
X19829Y-117826D01*
X19829Y-117826D01*
D01*
X19829Y-117826D01*
X19829Y-117826D01*
X21000Y-118059D01*
X63500D01*
Y-138551D01*
X62285Y-138919D01*
X61802Y-138198D01*
X61270Y-137842D01*
Y-140000D01*
Y-142158D01*
X61802Y-141802D01*
X62285Y-141081D01*
X63500Y-141449D01*
Y-163550D01*
X50320D01*
Y-162850D01*
X47579D01*
Y-162520D01*
X47346Y-161350D01*
X46683Y-160357D01*
X37059Y-150733D01*
Y-131000D01*
X36826Y-129830D01*
X36163Y-128837D01*
X28163Y-120837D01*
X27171Y-120174D01*
X26000Y-119941D01*
X26000Y-119941D01*
X-10750D01*
X-10750Y-119941D01*
X-11921Y-120174D01*
X-12913Y-120837D01*
X-12913Y-120837D01*
X-19695Y-127619D01*
X-20116Y-127703D01*
X-21273Y-128477D01*
X-22047Y-129634D01*
X-22319Y-131000D01*
X-22047Y-132366D01*
X-21273Y-133523D01*
X-20116Y-134297D01*
X-18750Y-134569D01*
X-17384Y-134297D01*
X-16227Y-133523D01*
X-15453Y-132366D01*
X-15369Y-131945D01*
X-9483Y-126059D01*
X-7294D01*
X-6808Y-127232D01*
X-7616Y-127703D01*
X-7616D01*
X-8773Y-128477D01*
X-9547Y-129634D01*
X-9819Y-131000D01*
X-9547Y-132366D01*
X-8773Y-133523D01*
X-7616Y-134297D01*
X-6250Y-134569D01*
X-4884Y-134297D01*
X-3727Y-133523D01*
X-2953Y-132366D01*
X-2869Y-131945D01*
X-983Y-130059D01*
X22733D01*
X25941Y-133267D01*
Y-150733D01*
X16957Y-159717D01*
X16294Y-160709D01*
X16061Y-161880D01*
X16061Y-161880D01*
X16061Y-161880D01*
Y-161952D01*
X15163Y-162850D01*
X13320D01*
Y-163550D01*
X-13180D01*
Y-162850D01*
X-14798D01*
X-15604Y-161868D01*
X-15431Y-161000D01*
X-15703Y-159634D01*
X-16477Y-158477D01*
X-17634Y-157703D01*
X-19000Y-157431D01*
X-20366Y-157703D01*
X-21523Y-158477D01*
X-22297Y-159634D01*
X-22569Y-161000D01*
X-22396Y-161868D01*
X-23201Y-162850D01*
X-24780D01*
D01*
D01*
X-24780Y-162850D01*
X-25880D01*
Y-162850D01*
X-37480D01*
D01*
D01*
X-37480Y-162850D01*
X-38580D01*
Y-162850D01*
X-40178D01*
X-40984Y-161868D01*
X-40811Y-161000D01*
X-41083Y-159634D01*
X-41857Y-158477D01*
X-43014Y-157703D01*
X-44380Y-157431D01*
X-45746Y-157703D01*
X-46903Y-158477D01*
X-47677Y-159634D01*
X-47949Y-161000D01*
X-47776Y-161868D01*
X-48582Y-162850D01*
X-50180D01*
Y-163550D01*
X-63500D01*
Y-92450D01*
X-50320D01*
Y-93150D01*
D02*
G37*
G36*
X49000Y107000D02*
Y102000D01*
X42000Y95000D01*
X38650D01*
X34000Y99650D01*
Y110000D01*
X36000Y112000D01*
X44000D01*
X49000Y107000D01*
D02*
G37*
%LPC*%
G36*
X-48270Y-115842D02*
X-48802Y-116198D01*
X-49158Y-116730D01*
X-48270D01*
Y-115842D01*
D02*
G37*
G36*
X-23842Y-119270D02*
X-24730D01*
Y-120158D01*
X-24198Y-119802D01*
X-23842Y-119270D01*
D02*
G37*
G36*
X-41270Y-115842D02*
X-41802Y-116198D01*
X-42158Y-116730D01*
X-41270D01*
Y-115842D01*
D02*
G37*
G36*
X-45730D02*
Y-116730D01*
X-44842D01*
X-45198Y-116198D01*
X-45730Y-115842D01*
D02*
G37*
G36*
X-34270Y-119270D02*
X-35158D01*
X-34802Y-119802D01*
X-34270Y-120158D01*
Y-119270D01*
D02*
G37*
G36*
X-30842D02*
X-31730D01*
Y-120158D01*
X-31198Y-119802D01*
X-30842Y-119270D01*
D02*
G37*
G36*
X-37842D02*
X-38730D01*
Y-120158D01*
X-38198Y-119802D01*
X-37842Y-119270D01*
D02*
G37*
G36*
X-27270D02*
X-28158D01*
X-27802Y-119802D01*
X-27270Y-120158D01*
Y-119270D01*
D02*
G37*
G36*
X-38730Y-115842D02*
Y-116730D01*
X-37842D01*
X-38198Y-116198D01*
X-38730Y-115842D01*
D02*
G37*
G36*
X-84893Y52118D02*
X-87123D01*
Y45388D01*
X-84893D01*
Y52118D01*
D02*
G37*
G36*
X-165842Y46230D02*
X-166730D01*
Y45342D01*
X-166198Y45697D01*
X-165842Y46230D01*
D02*
G37*
G36*
X-169270Y49658D02*
X-169802Y49302D01*
X-170158Y48770D01*
X-169270D01*
Y49658D01*
D02*
G37*
G36*
X-80123Y52118D02*
X-82353D01*
Y45388D01*
X-80123D01*
Y52118D01*
D02*
G37*
G36*
X-169270Y46230D02*
X-170158D01*
X-169802Y45697D01*
X-169270Y45342D01*
Y46230D01*
D02*
G37*
G36*
X-31730Y-115842D02*
Y-116730D01*
X-30842D01*
X-31198Y-116198D01*
X-31730Y-115842D01*
D02*
G37*
G36*
X-34270D02*
X-34802Y-116198D01*
X-35158Y-116730D01*
X-34270D01*
Y-115842D01*
D02*
G37*
G36*
X-24730D02*
Y-116730D01*
X-23842D01*
X-24198Y-116198D01*
X-24730Y-115842D01*
D02*
G37*
G36*
X-27270D02*
X-27802Y-116198D01*
X-28158Y-116730D01*
X-27270D01*
Y-115842D01*
D02*
G37*
G36*
Y-126270D02*
X-28158D01*
X-27802Y-126802D01*
X-27270Y-127158D01*
Y-126270D01*
D02*
G37*
G36*
X-30842D02*
X-31730D01*
Y-127158D01*
X-31198Y-126802D01*
X-30842Y-126270D01*
D02*
G37*
G36*
X-34270D02*
X-35158D01*
X-34802Y-126802D01*
X-34270Y-127158D01*
Y-126270D01*
D02*
G37*
G36*
X52158D02*
X51270D01*
Y-127158D01*
X51802Y-126802D01*
X52158Y-126270D01*
D02*
G37*
G36*
X48730D02*
X47842D01*
X48198Y-126802D01*
X48730Y-127158D01*
Y-126270D01*
D02*
G37*
G36*
X-23842D02*
X-24730D01*
Y-127158D01*
X-24198Y-126802D01*
X-23842Y-126270D01*
D02*
G37*
G36*
X-48270D02*
X-49158D01*
X-48802Y-126802D01*
X-48270Y-127158D01*
Y-126270D01*
D02*
G37*
G36*
X58730Y-137842D02*
X58198Y-138198D01*
X57842Y-138730D01*
X58730D01*
Y-137842D01*
D02*
G37*
G36*
Y-141270D02*
X57842D01*
X58198Y-141802D01*
X58730Y-142158D01*
Y-141270D01*
D02*
G37*
G36*
X-37842Y-126270D02*
X-38730D01*
Y-127158D01*
X-38198Y-126802D01*
X-37842Y-126270D01*
D02*
G37*
G36*
X-41270D02*
X-42158D01*
X-41802Y-126802D01*
X-41270Y-127158D01*
Y-126270D01*
D02*
G37*
G36*
X-44842D02*
X-45730D01*
Y-127158D01*
X-45198Y-126802D01*
X-44842Y-126270D01*
D02*
G37*
G36*
X-48270Y-122842D02*
X-48802Y-123198D01*
X-49158Y-123730D01*
X-48270D01*
Y-122842D01*
D02*
G37*
G36*
X51270D02*
Y-123730D01*
X52158D01*
X51802Y-123198D01*
X51270Y-122842D01*
D02*
G37*
G36*
X48730D02*
X48198Y-123198D01*
X47842Y-123730D01*
X48730D01*
Y-122842D01*
D02*
G37*
G36*
X-24730D02*
Y-123730D01*
X-23842D01*
X-24198Y-123198D01*
X-24730Y-122842D01*
D02*
G37*
G36*
X-41270Y-119270D02*
X-42158D01*
X-41802Y-119802D01*
X-41270Y-120158D01*
Y-119270D01*
D02*
G37*
G36*
X-44842D02*
X-45730D01*
Y-120158D01*
X-45198Y-119802D01*
X-44842Y-119270D01*
D02*
G37*
G36*
X-48270D02*
X-49158D01*
X-48802Y-119802D01*
X-48270Y-120158D01*
Y-119270D01*
D02*
G37*
G36*
X-38730Y-122842D02*
Y-123730D01*
X-37842D01*
X-38198Y-123198D01*
X-38730Y-122842D01*
D02*
G37*
G36*
X-41270D02*
X-41802Y-123198D01*
X-42158Y-123730D01*
X-41270D01*
Y-122842D01*
D02*
G37*
G36*
X-45730D02*
Y-123730D01*
X-44842D01*
X-45198Y-123198D01*
X-45730Y-122842D01*
D02*
G37*
G36*
X-27270D02*
X-27802Y-123198D01*
X-28158Y-123730D01*
X-27270D01*
Y-122842D01*
D02*
G37*
G36*
X-31730D02*
Y-123730D01*
X-30842D01*
X-31198Y-123198D01*
X-31730Y-122842D01*
D02*
G37*
G36*
X-34270D02*
X-34802Y-123198D01*
X-35158Y-123730D01*
X-34270D01*
Y-122842D01*
D02*
G37*
G36*
X-171270Y119158D02*
X-171802Y118802D01*
X-172158Y118270D01*
X-171270D01*
Y119158D01*
D02*
G37*
G36*
X-154112Y115730D02*
X-155000D01*
Y114842D01*
X-154468Y115198D01*
X-154112Y115730D01*
D02*
G37*
G36*
X-157540D02*
X-158428D01*
X-158072Y115198D01*
X-157540Y114842D01*
Y115730D01*
D02*
G37*
G36*
X-162000Y119158D02*
Y118270D01*
X-161112D01*
X-161468Y118802D01*
X-162000Y119158D01*
D02*
G37*
G36*
X-164540D02*
X-165072Y118802D01*
X-165428Y118270D01*
X-164540D01*
Y119158D01*
D02*
G37*
G36*
X-168730D02*
Y118270D01*
X-167842D01*
X-168198Y118802D01*
X-168730Y119158D01*
D02*
G37*
G36*
X-171270Y115730D02*
X-172158D01*
X-171802Y115198D01*
X-171270Y114842D01*
Y115730D01*
D02*
G37*
G36*
X-94730Y107158D02*
Y106270D01*
X-93842D01*
X-94198Y106802D01*
X-94730Y107158D01*
D02*
G37*
G36*
X-97270D02*
X-97802Y106802D01*
X-98158Y106270D01*
X-97270D01*
Y107158D01*
D02*
G37*
G36*
X-161112Y115730D02*
X-162000D01*
Y114842D01*
X-161468Y115198D01*
X-161112Y115730D01*
D02*
G37*
G36*
X-164540D02*
X-165428D01*
X-165072Y115198D01*
X-164540Y114842D01*
Y115730D01*
D02*
G37*
G36*
X-167842D02*
X-168730D01*
Y114842D01*
X-168198Y115198D01*
X-167842Y115730D01*
D02*
G37*
G36*
X-58270Y135158D02*
X-58802Y134802D01*
X-59158Y134270D01*
X-58270D01*
Y135158D01*
D02*
G37*
G36*
X-54842Y131730D02*
X-55730D01*
Y130842D01*
X-55198Y131198D01*
X-54842Y131730D01*
D02*
G37*
G36*
X-58270D02*
X-59158D01*
X-58802Y131198D01*
X-58270Y130842D01*
Y131730D01*
D02*
G37*
G36*
X-51000Y180569D02*
X-52366Y180297D01*
X-53523Y179523D01*
X-54297Y178366D01*
X-54569Y177000D01*
X-54297Y175634D01*
X-53523Y174477D01*
X-52366Y173703D01*
X-51000Y173431D01*
X-49634Y173703D01*
X-48477Y174477D01*
X-47703Y175634D01*
X-47431Y177000D01*
X-47703Y178366D01*
X-48477Y179523D01*
X-49634Y180297D01*
X-51000Y180569D01*
D02*
G37*
G36*
Y171569D02*
X-52366Y171297D01*
X-53523Y170523D01*
X-54297Y169366D01*
X-54569Y168000D01*
X-54297Y166634D01*
X-53523Y165477D01*
X-52366Y164703D01*
X-51000Y164431D01*
X-49634Y164703D01*
X-48477Y165477D01*
X-47703Y166634D01*
X-47431Y168000D01*
X-47703Y169366D01*
X-48477Y170523D01*
X-49634Y171297D01*
X-51000Y171569D01*
D02*
G37*
G36*
X-55730Y135158D02*
Y134270D01*
X-54842D01*
X-55198Y134802D01*
X-55730Y135158D01*
D02*
G37*
G36*
X-47270Y120730D02*
X-48158D01*
X-47802Y120198D01*
X-47270Y119842D01*
Y120730D01*
D02*
G37*
G36*
X-155000Y119158D02*
Y118270D01*
X-154112D01*
X-154468Y118802D01*
X-155000Y119158D01*
D02*
G37*
G36*
X-157540D02*
X-158072Y118802D01*
X-158428Y118270D01*
X-157540D01*
Y119158D01*
D02*
G37*
G36*
X-44730Y124158D02*
Y123270D01*
X-43842D01*
X-44198Y123802D01*
X-44730Y124158D01*
D02*
G37*
G36*
X-47270D02*
X-47802Y123802D01*
X-48158Y123270D01*
X-47270D01*
Y124158D01*
D02*
G37*
G36*
X-43842Y120730D02*
X-44730D01*
Y119842D01*
X-44198Y120198D01*
X-43842Y120730D01*
D02*
G37*
G36*
X-106730Y107158D02*
Y106270D01*
X-105842D01*
X-106198Y106802D01*
X-106730Y107158D01*
D02*
G37*
G36*
X-129842Y103730D02*
X-130730D01*
Y102842D01*
X-130198Y103198D01*
X-129842Y103730D01*
D02*
G37*
G36*
X-133270D02*
X-134158D01*
X-133802Y103198D01*
X-133270Y102842D01*
Y103730D01*
D02*
G37*
G36*
X-141842D02*
X-142730D01*
Y102842D01*
X-142198Y103198D01*
X-141842Y103730D01*
D02*
G37*
G36*
X-109270D02*
X-110158D01*
X-109802Y103198D01*
X-109270Y102842D01*
Y103730D01*
D02*
G37*
G36*
X-117842D02*
X-118730D01*
Y102842D01*
X-118198Y103198D01*
X-117842Y103730D01*
D02*
G37*
G36*
X-121270D02*
X-122158D01*
X-121802Y103198D01*
X-121270Y102842D01*
Y103730D01*
D02*
G37*
G36*
X-54000Y100569D02*
X-55366Y100297D01*
X-56523Y99523D01*
X-57103Y98655D01*
X-58373D01*
X-58953Y99523D01*
X-60111Y100297D01*
X-61477Y100569D01*
X-62842Y100297D01*
X-64000Y99523D01*
X-64774Y98366D01*
X-65045Y97000D01*
X-64774Y95634D01*
X-64000Y94477D01*
X-62842Y93703D01*
X-61477Y93431D01*
X-60111Y93703D01*
X-58953Y94477D01*
X-58373Y95345D01*
X-57103D01*
X-56523Y94477D01*
X-55366Y93703D01*
X-54000Y93431D01*
X-52634Y93703D01*
X-51477Y94477D01*
X-50703Y95634D01*
X-50431Y97000D01*
X-50703Y98366D01*
X-51477Y99523D01*
X-52634Y100297D01*
X-54000Y100569D01*
D02*
G37*
G36*
X-176616Y56201D02*
X-183346D01*
Y50471D01*
X-176616D01*
Y56201D01*
D02*
G37*
G36*
X-166730Y49658D02*
Y48770D01*
X-165842D01*
X-166198Y49302D01*
X-166730Y49658D01*
D02*
G37*
G36*
X-145270Y103730D02*
X-146158D01*
X-145802Y103198D01*
X-145270Y102842D01*
Y103730D01*
D02*
G37*
G36*
X-153842D02*
X-154730D01*
Y102842D01*
X-154198Y103198D01*
X-153842Y103730D01*
D02*
G37*
G36*
X-157270D02*
X-158158D01*
X-157802Y103198D01*
X-157270Y102842D01*
Y103730D01*
D02*
G37*
G36*
X-130730Y107158D02*
Y106270D01*
X-129842D01*
X-130198Y106802D01*
X-130730Y107158D01*
D02*
G37*
G36*
X-133270D02*
X-133802Y106802D01*
X-134158Y106270D01*
X-133270D01*
Y107158D01*
D02*
G37*
G36*
X-142730D02*
Y106270D01*
X-141842D01*
X-142198Y106802D01*
X-142730Y107158D01*
D02*
G37*
G36*
X-109270D02*
X-109802Y106802D01*
X-110158Y106270D01*
X-109270D01*
Y107158D01*
D02*
G37*
G36*
X-118730D02*
Y106270D01*
X-117842D01*
X-118198Y106802D01*
X-118730Y107158D01*
D02*
G37*
G36*
X-121270D02*
X-121802Y106802D01*
X-122158Y106270D01*
X-121270D01*
Y107158D01*
D02*
G37*
G36*
X-93842Y103730D02*
X-94730D01*
Y102842D01*
X-94198Y103198D01*
X-93842Y103730D01*
D02*
G37*
G36*
X-97270D02*
X-98158D01*
X-97802Y103198D01*
X-97270Y102842D01*
Y103730D01*
D02*
G37*
G36*
X-105842D02*
X-106730D01*
Y102842D01*
X-106198Y103198D01*
X-105842Y103730D01*
D02*
G37*
G36*
X-145270Y107158D02*
X-145802Y106802D01*
X-146158Y106270D01*
X-145270D01*
Y107158D01*
D02*
G37*
G36*
X-154730D02*
Y106270D01*
X-153842D01*
X-154198Y106802D01*
X-154730Y107158D01*
D02*
G37*
G36*
X-157270D02*
X-157802Y106802D01*
X-158158Y106270D01*
X-157270D01*
Y107158D01*
D02*
G37*
%LPD*%
D10*
X-5000Y-24000D02*
D03*
X4000D02*
D03*
X46500Y22000D02*
D03*
X37500D02*
D03*
X210500Y115000D02*
D03*
X201500D02*
D03*
X189500Y-95000D02*
D03*
X198500D02*
D03*
X-101600Y-180474D02*
D03*
X-92600D02*
D03*
X-73053D02*
D03*
X-82053D02*
D03*
X100500D02*
D03*
X91500D02*
D03*
X71953D02*
D03*
X80953D02*
D03*
X60040Y-11000D02*
D03*
X51040D02*
D03*
X28500Y84000D02*
D03*
X37500D02*
D03*
X-70500Y-68000D02*
D03*
X-61500D02*
D03*
X-189500Y-63000D02*
D03*
X-198500D02*
D03*
X-108500Y-67000D02*
D03*
X-117500D02*
D03*
D11*
X10000Y91500D02*
D03*
Y82500D02*
D03*
X117000Y-146500D02*
D03*
Y-137500D02*
D03*
X105000Y-146500D02*
D03*
Y-137500D02*
D03*
X93000Y-146500D02*
D03*
Y-137500D02*
D03*
X81000Y-146500D02*
D03*
Y-137500D02*
D03*
X161000Y140500D02*
D03*
Y149500D02*
D03*
X84000Y126500D02*
D03*
Y135500D02*
D03*
X130340Y53500D02*
D03*
Y62500D02*
D03*
X158900Y-145770D02*
D03*
Y-154770D02*
D03*
X134730Y-145770D02*
D03*
Y-154770D02*
D03*
X146730Y-145770D02*
D03*
Y-154770D02*
D03*
X-131268Y14606D02*
D03*
Y23606D02*
D03*
X-230000Y-172500D02*
D03*
Y-181500D02*
D03*
X95049Y-44566D02*
D03*
Y-53566D02*
D03*
X95130Y-73621D02*
D03*
Y-64621D02*
D03*
X104940Y54500D02*
D03*
Y45500D02*
D03*
X92920Y54500D02*
D03*
Y45500D02*
D03*
X118356Y-81500D02*
D03*
Y-72500D02*
D03*
X80978Y54500D02*
D03*
Y45500D02*
D03*
X117226D02*
D03*
Y54500D02*
D03*
X-169000Y-43500D02*
D03*
Y-34500D02*
D03*
D12*
X37500Y-25500D02*
D03*
X18500D02*
D03*
Y1500D02*
D03*
X28000D02*
D03*
X37500D02*
D03*
D13*
X10842Y51770D02*
D03*
Y70770D02*
D03*
X37842D02*
D03*
Y61270D02*
D03*
Y51770D02*
D03*
D14*
X136380Y118000D02*
D03*
X151620D02*
D03*
D15*
X-143000Y-34001D02*
D03*
Y-17999D02*
D03*
X5000Y169501D02*
D03*
Y153499D02*
D03*
X81730Y169501D02*
D03*
Y153499D02*
D03*
X-146000Y24001D02*
D03*
Y7999D02*
D03*
X203000Y31001D02*
D03*
Y14999D02*
D03*
D16*
X-136750Y-126717D02*
D03*
D17*
X-167500D02*
D03*
D18*
X115999Y135000D02*
D03*
X132001D02*
D03*
X38001Y112000D02*
D03*
X21999D02*
D03*
X210001Y53000D02*
D03*
X193999D02*
D03*
X168001Y102000D02*
D03*
X151999D02*
D03*
D19*
X-15131Y33302D02*
D03*
X10269D02*
D03*
D20*
X44363Y-83550D02*
D03*
X31680D02*
D03*
X18980D02*
D03*
X-19120D02*
D03*
X-31820D02*
D03*
X-44520D02*
D03*
X-44380Y-172450D02*
D03*
X-31680D02*
D03*
X-18980D02*
D03*
X19120D02*
D03*
X31820D02*
D03*
X44520D02*
D03*
D21*
X-8000Y94380D02*
D03*
Y109620D02*
D03*
X-23000Y94380D02*
D03*
Y109620D02*
D03*
X58000Y99620D02*
D03*
Y84380D02*
D03*
D22*
X178608Y139949D02*
D03*
X201544Y149487D02*
D03*
Y130412D02*
D03*
X75608Y101949D02*
D03*
X98544Y111487D02*
D03*
Y92411D02*
D03*
D23*
X130678Y-38000D02*
D03*
Y-42000D02*
D03*
Y-46000D02*
D03*
Y-34000D02*
D03*
Y-30000D02*
D03*
Y-26000D02*
D03*
Y-22000D02*
D03*
Y-18000D02*
D03*
Y-50000D02*
D03*
Y-54000D02*
D03*
Y-62000D02*
D03*
Y-58000D02*
D03*
X190678Y-22000D02*
D03*
Y-18000D02*
D03*
Y-26000D02*
D03*
Y-30000D02*
D03*
Y-62000D02*
D03*
Y-58000D02*
D03*
Y-54000D02*
D03*
Y-50000D02*
D03*
Y-46000D02*
D03*
Y-34000D02*
D03*
Y-38000D02*
D03*
Y-42000D02*
D03*
D24*
X162678Y-10000D02*
D03*
X158678D02*
D03*
X154678D02*
D03*
X166678D02*
D03*
X170678D02*
D03*
X174678D02*
D03*
X178678D02*
D03*
X182678D02*
D03*
X150678D02*
D03*
X146678D02*
D03*
X138678D02*
D03*
X142678D02*
D03*
X182678Y-70000D02*
D03*
X178678D02*
D03*
X174678D02*
D03*
X170678D02*
D03*
X166678D02*
D03*
X138678D02*
D03*
X142678D02*
D03*
X146678D02*
D03*
X150678D02*
D03*
X154678D02*
D03*
X158678D02*
D03*
X162678D02*
D03*
D25*
X160678Y-40000D02*
D03*
D26*
X-65000Y21100D02*
D03*
Y6900D02*
D03*
X-162000Y9900D02*
D03*
Y24100D02*
D03*
D27*
X-246450Y2500D02*
D03*
Y7500D02*
D03*
Y12500D02*
D03*
Y17500D02*
D03*
Y22500D02*
D03*
Y27500D02*
D03*
Y32500D02*
D03*
Y37500D02*
D03*
Y-2500D02*
D03*
Y-7500D02*
D03*
Y-12500D02*
D03*
Y-17500D02*
D03*
Y-22500D02*
D03*
Y-27500D02*
D03*
Y-32500D02*
D03*
Y-37500D02*
D03*
Y-122500D02*
D03*
Y-117500D02*
D03*
Y-112500D02*
D03*
Y-107500D02*
D03*
Y-102500D02*
D03*
Y-97500D02*
D03*
Y-92500D02*
D03*
Y-87500D02*
D03*
Y-82500D02*
D03*
Y-42500D02*
D03*
Y-47500D02*
D03*
Y-52500D02*
D03*
Y-57500D02*
D03*
Y-62500D02*
D03*
Y-67500D02*
D03*
Y-72500D02*
D03*
Y-77500D02*
D03*
Y72500D02*
D03*
Y77500D02*
D03*
Y82500D02*
D03*
Y87500D02*
D03*
Y92500D02*
D03*
Y97500D02*
D03*
Y102500D02*
D03*
Y107500D02*
D03*
Y67500D02*
D03*
Y62500D02*
D03*
Y57500D02*
D03*
Y52500D02*
D03*
Y47500D02*
D03*
Y42500D02*
D03*
Y112500D02*
D03*
Y117500D02*
D03*
Y122500D02*
D03*
X-280950D02*
D03*
Y117500D02*
D03*
Y112500D02*
D03*
Y42500D02*
D03*
Y47500D02*
D03*
Y52500D02*
D03*
Y57500D02*
D03*
Y62500D02*
D03*
Y67500D02*
D03*
Y107500D02*
D03*
Y102500D02*
D03*
Y97500D02*
D03*
Y92500D02*
D03*
Y87500D02*
D03*
Y82500D02*
D03*
Y77500D02*
D03*
Y72500D02*
D03*
Y-77500D02*
D03*
Y-72500D02*
D03*
Y-67500D02*
D03*
Y-62500D02*
D03*
Y-57500D02*
D03*
Y-52500D02*
D03*
Y-47500D02*
D03*
Y-42500D02*
D03*
Y-82500D02*
D03*
Y-87500D02*
D03*
Y-92500D02*
D03*
Y-97500D02*
D03*
Y-102500D02*
D03*
Y-107500D02*
D03*
Y-112500D02*
D03*
Y-117500D02*
D03*
Y-122500D02*
D03*
Y-37500D02*
D03*
Y-32500D02*
D03*
Y-27500D02*
D03*
Y-22500D02*
D03*
Y-17500D02*
D03*
Y-12500D02*
D03*
Y-7500D02*
D03*
Y-2500D02*
D03*
Y37500D02*
D03*
Y32500D02*
D03*
Y27500D02*
D03*
Y22500D02*
D03*
Y17500D02*
D03*
Y12500D02*
D03*
Y7500D02*
D03*
Y2500D02*
D03*
X246450Y2500D02*
D03*
X280950D02*
D03*
Y7500D02*
D03*
X246450D02*
D03*
X280950Y12500D02*
D03*
X246450D02*
D03*
X280950Y17500D02*
D03*
X246450D02*
D03*
X280950Y22500D02*
D03*
X246450D02*
D03*
X280950Y27500D02*
D03*
X246450D02*
D03*
X280950Y32500D02*
D03*
X246450D02*
D03*
X280950Y37500D02*
D03*
X246450D02*
D03*
Y-2500D02*
D03*
X280950D02*
D03*
X246450Y-7500D02*
D03*
X280950D02*
D03*
X246450Y-12500D02*
D03*
X280950D02*
D03*
X246450Y-17500D02*
D03*
X280950D02*
D03*
X246450Y-22500D02*
D03*
X280950D02*
D03*
X246450Y-27500D02*
D03*
X280950D02*
D03*
X246450Y-32500D02*
D03*
X280950D02*
D03*
Y-37500D02*
D03*
X246450D02*
D03*
Y-122500D02*
D03*
X280950D02*
D03*
X246450Y-117500D02*
D03*
X280950D02*
D03*
Y-112500D02*
D03*
X246450D02*
D03*
X280950Y-107500D02*
D03*
X246450D02*
D03*
X280950Y-102500D02*
D03*
X246450D02*
D03*
X280950Y-97500D02*
D03*
X246450D02*
D03*
X280950Y-92500D02*
D03*
X246450D02*
D03*
X280950Y-87500D02*
D03*
X246450D02*
D03*
X280950Y-82500D02*
D03*
X246450D02*
D03*
Y-42500D02*
D03*
X280950D02*
D03*
X246450Y-47500D02*
D03*
X280950D02*
D03*
X246450Y-52500D02*
D03*
X280950D02*
D03*
X246450Y-57500D02*
D03*
X280950D02*
D03*
X246450Y-62500D02*
D03*
X280950D02*
D03*
X246450Y-67500D02*
D03*
X280950D02*
D03*
X246450Y-72500D02*
D03*
X280950D02*
D03*
Y-77500D02*
D03*
X246450D02*
D03*
Y72500D02*
D03*
X280950D02*
D03*
Y77500D02*
D03*
X246450D02*
D03*
X280950Y82500D02*
D03*
X246450D02*
D03*
X280950Y87500D02*
D03*
X246450D02*
D03*
X280950Y92500D02*
D03*
X246450D02*
D03*
X280950Y97500D02*
D03*
X246450D02*
D03*
X280950Y102500D02*
D03*
X246450D02*
D03*
X280950Y107500D02*
D03*
X246450D02*
D03*
Y67500D02*
D03*
X280950D02*
D03*
X246450Y62500D02*
D03*
X280950D02*
D03*
X246450Y57500D02*
D03*
X280950D02*
D03*
X246450Y52500D02*
D03*
X280950D02*
D03*
X246450Y47500D02*
D03*
X280950D02*
D03*
X246450Y42500D02*
D03*
X280950D02*
D03*
X246450Y112500D02*
D03*
X280950D02*
D03*
Y117500D02*
D03*
X246450D02*
D03*
X280950Y122500D02*
D03*
X246450D02*
D03*
D28*
X-50653Y44118D02*
D03*
X-61606D02*
D03*
X-72656D02*
D03*
X-83623D02*
D03*
X-94590D02*
D03*
X-105630D02*
D03*
X-116646D02*
D03*
X-127606D02*
D03*
X-138659D02*
D03*
D29*
X-38596Y49111D02*
D03*
D30*
X-184616Y49201D02*
D03*
D31*
X-38539Y145201D02*
D03*
X-193626Y145198D02*
D03*
D32*
X78736Y-42611D02*
D03*
Y-64612D02*
D03*
X63736D02*
D03*
Y-42611D02*
D03*
D33*
X158750Y-177000D02*
D03*
X171250D02*
D03*
X183750D02*
D03*
X196250D02*
D03*
X208750D02*
D03*
X221250D02*
D03*
D34*
X-156500Y-154800D02*
D03*
X-93500D02*
D03*
Y-163200D02*
D03*
X-156500D02*
D03*
D35*
X177000Y53000D02*
D03*
X155000Y31000D02*
D03*
D36*
X-143000Y-57500D02*
D03*
Y-67000D02*
D03*
Y-76500D02*
D03*
X-169000D02*
D03*
Y-67000D02*
D03*
Y-57500D02*
D03*
D37*
X-146205Y-99000D02*
D03*
X-167795D02*
D03*
D38*
X-110000Y-127000D02*
D03*
X-78000D02*
D03*
D39*
X-187500Y-162000D02*
D03*
Y-155500D02*
D03*
Y-149000D02*
D03*
Y-142500D02*
D03*
X-230500D02*
D03*
Y-149000D02*
D03*
Y-155500D02*
D03*
Y-162000D02*
D03*
D40*
X38000Y129500D02*
X55656Y147156D01*
X38000Y115000D02*
Y129500D01*
Y115000D02*
X42000Y111000D01*
X-38596Y49111D02*
Y72000D01*
X60040Y-11000D02*
X66500D01*
X26842Y61270D02*
X38770D01*
X-92100Y6900D02*
X-65000D01*
X168001Y102000D02*
X181500D01*
X108000Y135000D02*
X115999D01*
X10000Y91500D02*
Y99000D01*
Y91500D02*
X26500D01*
X28500Y89500D01*
Y84000D02*
Y89500D01*
X-15131Y19131D02*
Y33302D01*
X60000Y22000D02*
X66000Y16000D01*
X46500Y22000D02*
X60000D01*
X130340Y62500D02*
X136500D01*
X151620Y93620D02*
Y118000D01*
X130340Y48340D02*
Y53500D01*
X117226Y54500D02*
Y62000D01*
X132000Y122380D02*
X136380Y118000D01*
X43500Y-10500D02*
X50540D01*
X38500Y-24500D02*
X43000D01*
X37500Y22000D02*
Y43000D01*
Y1500D02*
Y22000D01*
Y43000D02*
Y50500D01*
X-169000Y-29000D02*
X-164000Y-24000D01*
X-169000Y-34500D02*
Y-29000D01*
X171250Y-177000D02*
Y-171000D01*
Y-181750D02*
Y-177000D01*
X158610Y-170860D02*
X158750Y-171000D01*
X158420Y-155250D02*
X158900Y-154770D01*
X58000Y69000D02*
Y84380D01*
X37500Y70770D02*
Y81500D01*
X-8000Y84500D02*
Y94380D01*
X202269Y15730D02*
X208269Y9730D01*
X208270D02*
X213000Y5000D01*
X167293Y3889D02*
X179134Y15730D01*
X202269D01*
X208269Y9730D02*
X208270D01*
X183313Y-86000D02*
X189500Y-92187D01*
Y-95000D02*
Y-92187D01*
X-93000Y26000D02*
X-88000D01*
X78736Y-42611D02*
Y-31263D01*
X51851Y-65297D02*
X63051D01*
X71000Y-147000D02*
X116500D01*
X-117526Y-180474D02*
X-101600D01*
X-120000Y-178000D02*
X-117526Y-180474D01*
X-198500Y-142500D02*
X-187500D01*
X-229500Y-182000D02*
X-223000D01*
X-78000Y-140000D02*
Y-127000D01*
X-142359Y-83431D02*
Y-77141D01*
X-108000Y-66500D02*
Y-60000D01*
X-79000Y-68000D02*
X-71500D01*
X-131268Y7000D02*
Y14606D01*
X-152000Y-18000D02*
X-143001D01*
X-177817Y47500D02*
X-168000D01*
X-146000Y-1000D02*
Y7999D01*
X-162000Y3000D02*
Y9900D01*
X-88000Y26000D02*
X-83623Y30377D01*
Y44118D01*
X13000Y112000D02*
X21571D01*
X-4000Y152000D02*
X3501D01*
X72000Y154000D02*
X81229D01*
X98000Y112031D02*
Y121000D01*
X202031Y149000D02*
X212000D01*
X203000Y31001D02*
Y39000D01*
X211000Y53999D02*
Y64000D01*
X-162000Y23606D02*
X-131268D01*
X-172100Y24100D02*
X-162000D01*
X-184000Y29704D02*
X-177704D01*
X-172100Y24100D01*
X132000Y122380D02*
Y145000D01*
X-23000Y94286D02*
X-11892D01*
X-105630Y32371D02*
Y44118D01*
X-131268Y23606D02*
X-114394D01*
X-105630Y32371D01*
X-174000Y-147000D02*
X-170000Y-143000D01*
X-159000D01*
X80953Y-181058D02*
X91500D01*
X-92600Y-180474D02*
X-82053D01*
X154678Y2033D02*
Y26678D01*
X159000Y31000D01*
X81496Y55018D02*
Y62270D01*
X-8000Y109620D02*
X0D01*
X-146205Y-99000D02*
X-134000D01*
D41*
X26000Y-123000D02*
X34000Y-131000D01*
X-10750Y-123000D02*
X26000D01*
X-18750Y-131000D02*
X-10750Y-123000D01*
X24000Y-127000D02*
X29000Y-132000D01*
X-2250Y-127000D02*
X24000D01*
X-6250Y-131000D02*
X-2250Y-127000D01*
X-12881Y-104119D02*
X15776D01*
X22657Y-111000D02*
X123000D01*
X15776Y-104119D02*
X22657Y-111000D01*
X21000Y-115000D02*
X124657D01*
X14119Y-108119D02*
X21000Y-115000D01*
X-38626Y-108119D02*
X14119D01*
X197657Y-54000D02*
X212657Y-69000D01*
X213657D01*
X196000Y-58000D02*
X215500Y-77500D01*
X269000Y-65000D02*
X271500Y-62500D01*
X280950D01*
X230920Y-4920D02*
Y4080D01*
X229380Y5620D02*
X230920Y4080D01*
X224620Y5620D02*
X229380D01*
X230920Y-4920D02*
X238500Y-12500D01*
X222730Y3730D02*
X224620Y5620D01*
X222730Y-7270D02*
Y3730D01*
X221000Y-9000D02*
X222730Y-7270D01*
X217000Y-9000D02*
X221000D01*
X246450Y-117500D02*
X258500D01*
X261000Y-120000D01*
X-54000Y-54000D02*
X-46000Y-62000D01*
X-123000Y-54000D02*
X-54000D01*
X-126500Y-57500D02*
X-123000Y-54000D01*
X-31820Y-83550D02*
Y-68180D01*
X-32000Y-68000D02*
X-31820Y-68180D01*
X-32000Y-68000D02*
X-13000D01*
X-61500D02*
X-31820D01*
X-13000D02*
X-8000Y-73000D01*
X5000D01*
X9842Y-68158D01*
X28158D01*
X31680Y-71680D01*
Y-83550D02*
Y-71680D01*
X-46000Y-62000D02*
X-6000D01*
X-2000Y-66000D01*
X149000Y-83000D02*
X150678Y-81322D01*
Y-70000D01*
X133178Y-18000D02*
Y9165D01*
X130678Y-18000D02*
X133178D01*
X113226Y29117D02*
X133178Y9165D01*
X120000Y-61000D02*
X123000Y-58000D01*
X130678D01*
X98544Y73769D02*
Y92411D01*
X92920Y54500D02*
X104940D01*
X92920Y68145D02*
X98544Y73769D01*
X92920Y54500D02*
Y68145D01*
X78736Y-64612D02*
X106965D01*
X117577Y-54000D01*
X130678D01*
X115920Y-50000D02*
X130678D01*
X112354Y-53566D02*
X115920Y-50000D01*
X95049Y-53566D02*
X112354D01*
X-207000Y-37674D02*
Y17000D01*
X-216826Y-47500D02*
X-207000Y-37674D01*
X-246450Y-47500D02*
X-216826D01*
X-246340Y-57610D02*
X-229000D01*
X-219938Y34147D02*
Y59261D01*
X-217000Y-30069D02*
Y31209D01*
X-219938Y34147D02*
X-217000Y31209D01*
X-224448Y33000D02*
Y60408D01*
Y33000D02*
X-222000Y30552D01*
Y-24000D02*
Y30552D01*
X-230500Y-32500D02*
X-222000Y-24000D01*
X-246450Y-32500D02*
X-230500D01*
X-224431Y-37500D02*
X-217000Y-30069D01*
X-246450Y-37500D02*
X-224431D01*
X-211500Y-35500D02*
Y21157D01*
X-215000Y-39000D02*
X-211500Y-35500D01*
Y21157D02*
X-206000Y26657D01*
X-246450Y-42500D02*
X-218500D01*
X-215000Y-39000D01*
X-202000Y23000D02*
Y54571D01*
X-207000Y18000D02*
X-202000Y23000D01*
X-206000Y56228D02*
X-195178Y67050D01*
X-206000Y26657D02*
Y56228D01*
X-202000Y54571D02*
X-193521Y63050D01*
X161000Y140500D02*
X169500D01*
X-50653Y26133D02*
Y44118D01*
X-55686Y21100D02*
X-50653Y26133D01*
X-65000Y21100D02*
X-55686D01*
X142678Y-10000D02*
Y13000D01*
X142000Y13678D02*
X142678Y13000D01*
X142000Y13678D02*
Y18322D01*
X-5000Y-24000D02*
Y-16431D01*
X-50653Y44118D02*
Y52653D01*
X-85050Y87050D02*
X-50653Y52653D01*
X-203950Y87050D02*
X-85050D01*
X113226Y29117D02*
Y34117D01*
X138678Y-10000D02*
Y9322D01*
X117226Y30774D02*
X138678Y9322D01*
X117226Y30774D02*
Y45500D01*
X108343Y39000D02*
X113226Y34117D01*
X99000Y39000D02*
X108343D01*
X92920Y45080D02*
X99000Y39000D01*
X92920Y45080D02*
Y45500D01*
X80978D02*
X92920D01*
X169500Y140500D02*
X178608D01*
X25500Y10500D02*
X28000Y8000D01*
Y1500D02*
Y8000D01*
X4000Y-24000D02*
X17000D01*
X171000Y-178750D02*
Y-164000D01*
X-210500Y30000D02*
Y57385D01*
X-215000Y42000D02*
Y58542D01*
X10000Y70000D02*
Y82500D01*
X124657Y-115000D02*
X146657Y-93000D01*
X123000Y-111000D02*
X145000Y-89000D01*
X146657Y-93000D02*
X152657D01*
X145000Y-89000D02*
X150000D01*
X119122Y-104888D02*
X146678Y-77333D01*
X24000Y-104888D02*
X119122D01*
X152657Y-93000D02*
X158678Y-86979D01*
X219000Y-19000D02*
X232500Y-32500D01*
X200335Y-19000D02*
X219000D01*
X197335Y-22000D02*
X200335Y-19000D01*
X166678Y1860D02*
X168000Y3182D01*
X-280950Y-117500D02*
X-270400D01*
X-228157Y-67500D02*
X-205000Y-90657D01*
Y-132000D02*
Y-90657D01*
X-215500Y-142500D02*
X-205000Y-132000D01*
X-227500Y-62500D02*
X-201000Y-89000D01*
Y-133657D02*
Y-89000D01*
X-216343Y-149000D02*
X-201000Y-133657D01*
X-246450Y-67500D02*
X-228157D01*
X-246450Y-62500D02*
X-227500D01*
X-111717Y-126717D02*
X-111000Y-126000D01*
X-110000Y-127000D02*
Y-95502D01*
X-101498Y-87000D02*
X-89000D01*
X-110000Y-95502D02*
X-101498Y-87000D01*
X-136750Y-126717D02*
X-111717D01*
X-143000Y-57500D02*
X-126500D01*
X246450Y-42500D02*
X250000D01*
X212000Y-4000D02*
X217000Y-9000D01*
X207000Y-4000D02*
X212000D01*
X202000Y-9000D02*
X207000Y-4000D01*
X196000Y-9000D02*
X202000D01*
X191000Y-4000D02*
X196000Y-9000D01*
X186000Y-4000D02*
X191000D01*
X-280950Y2500D02*
Y7500D01*
X-143000Y-67000D02*
X-117500D01*
X201544Y115044D02*
Y130412D01*
X150000Y-89000D02*
X154678Y-84322D01*
X31680Y-94680D02*
Y-83550D01*
X108230Y147230D02*
Y161230D01*
X96500Y135500D02*
X108230Y147230D01*
X84000Y135500D02*
X96500D01*
X75000Y102557D02*
Y123000D01*
X78500Y126500D02*
X84000D01*
X75000Y123000D02*
X78500Y126500D01*
X47343Y-100343D02*
X118010D01*
X170678Y-81188D02*
Y-70000D01*
X280950Y67500D02*
X292000D01*
X195119Y-17891D02*
Y-17844D01*
X195110Y-17900D02*
X195119Y-17891D01*
X190778Y-17900D02*
X195110D01*
X190678Y-22000D02*
X197335D01*
X280950Y-82500D02*
X280950Y-82500D01*
X270000Y-82500D02*
X280950D01*
X280950Y-42500D02*
X291900D01*
X190678Y-18000D02*
X190778Y-17900D01*
X-280950Y-2500D02*
Y2500D01*
X-246523Y-122573D02*
X-246450Y-122500D01*
X-280950Y-87500D02*
X-270806D01*
X-280950Y52500D02*
X-264363D01*
X-280950Y57500D02*
X-269250D01*
X-280950Y-37500D02*
Y-32500D01*
Y-27500D02*
Y-22500D01*
X280950Y7500D02*
X292000D01*
X280950Y-77500D02*
X292000D01*
X280950Y-57500D02*
X292000D01*
X130678Y-18000D02*
X132681D01*
X132781Y-17900D01*
X280950Y-42500D02*
X280950Y-42500D01*
X-280950Y-122500D02*
Y-117500D01*
Y-87500D02*
Y-82500D01*
Y-92500D02*
Y-87500D01*
Y67500D02*
X-264363D01*
X-280950Y37500D02*
X-264363D01*
X-280950Y42500D02*
X-269250D01*
X174678Y-10000D02*
Y-2168D01*
X170678Y-10000D02*
Y203D01*
X178678Y-10000D02*
Y-5223D01*
X170678Y203D02*
X180475Y10000D01*
X181846Y5000D02*
X187979D01*
X174678Y-2168D02*
X181846Y5000D01*
X182678Y-10000D02*
Y-7322D01*
X186000Y-4000D01*
X238500Y-12500D02*
X246450D01*
X230479Y-37500D02*
X246450D01*
X230547Y-37546D02*
X246450D01*
X-280003Y72500D02*
X-269250D01*
X-268950D01*
X199699Y-26000D02*
X201640Y-24059D01*
X190678Y-26000D02*
X199699D01*
X65191Y-53566D02*
X95049D01*
X63736Y-52112D02*
X65191Y-53566D01*
X63736Y-52112D02*
Y-42611D01*
X182678Y-70000D02*
X188178D01*
X146678Y-77333D02*
Y-70000D01*
X142678Y-75676D02*
Y-70000D01*
X-269250Y87500D02*
X-268950D01*
X-280003D02*
X-269250D01*
X-280950Y82500D02*
X-264363D01*
X-269250Y102500D02*
X-268950D01*
X-280003D02*
X-269250D01*
X-280950Y97500D02*
X-264363D01*
X-269250Y117500D02*
X-268950D01*
X-280003D02*
X-269250D01*
X-280950Y112500D02*
X-264363D01*
X-89102Y83050D02*
X-61606Y55554D01*
Y44118D02*
Y55554D01*
X-90759Y79050D02*
X-72656Y60947D01*
Y44118D02*
Y60947D01*
X-200148Y79050D02*
X-90759D01*
X-201805Y83050D02*
X-89102D01*
X-44520Y-102225D02*
Y-85550D01*
Y-102225D02*
X-38626Y-108119D01*
X-105492Y75050D02*
X-94590Y64147D01*
X-198492Y75050D02*
X-105492D01*
X-246450Y-52500D02*
X-234000D01*
X-94590Y44118D02*
Y64147D01*
X-215000Y58542D02*
X-198492Y75050D01*
X-125070Y71050D02*
X-116646Y62626D01*
X-196835Y71050D02*
X-125070D01*
X-210500Y57385D02*
X-196835Y71050D01*
X-116646Y44118D02*
Y62626D01*
X-136132Y67050D02*
X-127606Y58524D01*
X-195178Y67050D02*
X-136132D01*
X-127606Y44118D02*
Y58524D01*
X-138659Y44118D02*
Y58394D01*
X-143316Y63050D02*
X-138659Y58394D01*
X-193521Y63050D02*
X-143316D01*
X-246450Y-82500D02*
X-234750D01*
X-246450Y-87500D02*
X-229863D01*
X166678Y-10000D02*
Y1860D01*
X118356Y-71595D02*
X127951Y-62000D01*
X130678D01*
X-219938Y59261D02*
X-200148Y79050D01*
X-224448Y60408D02*
X-201805Y83050D01*
X-229000Y39000D02*
Y62000D01*
X-203950Y87050D01*
X44363Y-97363D02*
Y-85550D01*
Y-97363D02*
X47343Y-100343D01*
X18980Y-99868D02*
Y-85550D01*
Y-99868D02*
X24000Y-104888D01*
X-19120Y-97880D02*
X-12881Y-104119D01*
X-19120Y-97880D02*
Y-83550D01*
X146678Y-1322D02*
X148000Y0D01*
X146678Y-10000D02*
Y-1322D01*
X118010Y-100343D02*
X142678Y-75676D01*
X190678Y-46000D02*
X204000D01*
X209000Y-51000D01*
X257500Y67500D02*
X261000Y71000D01*
Y127815D01*
X237558Y151257D02*
X261000Y127815D01*
X246450Y67500D02*
X257500D01*
X204300Y170000D02*
X223043Y151257D01*
X237558D01*
X154678Y-84322D02*
Y-70000D01*
X158678Y-86979D02*
Y-70000D01*
X-230000Y-172500D02*
Y-162500D01*
X-230500Y-142500D02*
X-215500D01*
X-230500Y-149000D02*
X-216343D01*
X-230000Y-172500D02*
X-219500D01*
X-175000Y-162000D02*
X-172800Y-164200D01*
X-187500Y-162000D02*
X-175000D01*
X-187500Y-149000D02*
X-176000D01*
X-174000Y-147000D01*
X-73053Y-180474D02*
X-62526D01*
X-57416Y-185584D01*
X65526Y-180474D02*
X71953D01*
X61000Y-185000D02*
X65526Y-180474D01*
X33000Y-185000D02*
X61000D01*
X31820Y-183820D02*
X33000Y-185000D01*
X31820Y-183820D02*
Y-172450D01*
X-57416Y-185584D02*
X-33584D01*
X-31680Y-183680D01*
Y-172450D01*
X19120Y-174450D02*
Y-172450D01*
Y-161880D01*
X29000Y-152000D01*
Y-132000D01*
X-44380Y-172070D02*
Y-161000D01*
X-19000Y-172430D02*
Y-161000D01*
Y-172430D02*
X-18980Y-172450D01*
X34000Y-152000D02*
Y-131000D01*
X44520Y-172450D02*
Y-162520D01*
X34000Y-152000D02*
X44520Y-162520D01*
X81730Y169231D02*
Y178230D01*
X5000Y169501D02*
Y178500D01*
X154678Y-10000D02*
Y2033D01*
X104940Y45500D02*
X117226D01*
X198500Y-95000D02*
Y-67500D01*
X190678Y-62000D02*
X193000D01*
X198500Y-67500D01*
Y-95000D02*
X206000D01*
X190678Y-58000D02*
X196000D01*
X207000Y-42000D02*
X217000Y-52000D01*
X190678Y-42000D02*
X207000D01*
X262000Y-47000D02*
X267500Y-52500D01*
X280950D01*
X269000Y-44000D02*
X272500Y-47500D01*
X280950D01*
X265000Y-37500D02*
X280950D01*
X190678Y-34000D02*
X213000D01*
X236000Y-27500D02*
X246450D01*
X184401Y500D02*
X206000D01*
X178678Y-5223D02*
X184401Y500D01*
X236500Y-17500D02*
X246450D01*
X224000D02*
X229000Y-22500D01*
X246450D01*
X232500Y-32500D02*
X240975D01*
X190000Y10000D02*
X195000Y5000D01*
X180475Y10000D02*
X190000D01*
X220979Y-28000D02*
X230479Y-37500D01*
X202356Y-29000D02*
X207000D01*
X201356Y-30000D02*
X202356Y-29000D01*
X190678Y-30000D02*
X201356D01*
X195119Y-17844D02*
X199963Y-13000D01*
X231500D01*
X236000Y-17500D01*
X190678Y-50000D02*
X201000D01*
X211500Y-60500D01*
X246450Y-12500D02*
X259500D01*
X249000Y-32500D02*
X256000D01*
X260500Y-28000D01*
X280950Y-27500D02*
X292000D01*
X290500Y-32500D02*
X293000Y-35000D01*
X280950Y-32500D02*
X290500D01*
X-246450Y-92500D02*
X-234481D01*
X-169000Y-97795D02*
Y-76500D01*
X-143000Y-57500D02*
Y-35001D01*
X133178Y-72250D02*
X138606D01*
X138678Y-72322D01*
X246450Y-112500D02*
X258000D01*
X-11892Y94286D02*
X-11500Y93893D01*
X190678Y-38000D02*
X209000D01*
X211000Y-40000D01*
X218000D01*
X222000Y-36000D01*
X190678Y-54000D02*
X197657D01*
X210500Y115000D02*
X231000D01*
X-187500Y-155500D02*
X-150200D01*
X-172800Y-164200D02*
X-150500D01*
X-167795Y-126422D02*
Y-99000D01*
X-246450Y-97500D02*
X-215000D01*
X-178000Y-67000D02*
X-169000D01*
X-182000Y-63000D02*
X-178000Y-67000D01*
X-189500Y-63000D02*
X-182000D01*
X-201101Y-73500D02*
X-198500Y-70899D01*
Y-63000D01*
X233000Y66000D02*
X236500Y62500D01*
X246450D01*
X289941Y-190000D02*
G03*
X299941Y-180000I0J10000D01*
G01*
Y180000D02*
G03*
X289941Y190000I-10000J0D01*
G01*
X-300000Y-180000D02*
G03*
X-290000Y-190000I10000J0D01*
G01*
Y190000D02*
G03*
X-300000Y180000I0J-10000D01*
G01*
X300000Y-180000D02*
Y180000D01*
X-300000Y-180000D02*
Y180000D01*
X-290000Y-190000D02*
X289941Y-190000D01*
X-290000Y190000D02*
X289941Y190000D01*
X-290000D02*
G03*
X-300000Y180000I0J-10000D01*
G01*
Y-180000D02*
G03*
X-290000Y-190000I10000J0D01*
G01*
X299941Y180000D02*
G03*
X289941Y190000I-10000J0D01*
G01*
Y-190000D02*
G03*
X299941Y-180000I0J10000D01*
G01*
X-290000Y190000D02*
X289941Y190000D01*
X-290000Y-190000D02*
X289941Y-190000D01*
X-300000Y-180000D02*
Y180000D01*
X300000Y-180000D02*
Y180000D01*
D42*
X258000Y-67500D02*
X260500Y-70000D01*
X246450Y-67500D02*
X258000D01*
X103750Y-45750D02*
X104000Y-46000D01*
X102066Y-44566D02*
X103500Y-46000D01*
X95049Y-44566D02*
X102066D01*
X-246450Y92500D02*
X-221382D01*
X-213941Y99941D01*
X158900Y-170850D02*
Y-154770D01*
X124750Y-155250D02*
X158420D01*
X95130Y-81500D02*
Y-73621D01*
X84500Y-81500D02*
X118356D01*
X100000Y-179974D02*
Y-171000D01*
X80691Y-44566D02*
X95049D01*
X-246450Y107500D02*
X-235900D01*
X-257000Y122500D02*
X-246450D01*
Y77500D02*
X-235900D01*
X-246450Y62500D02*
X-235900D01*
X-246450Y47500D02*
X-235900D01*
X-246523Y-133123D02*
Y-122573D01*
X-280950Y-107500D02*
X-270400D01*
X-291500Y-102500D02*
X-280950D01*
X-291500Y-77500D02*
X-280950D01*
X-291500Y-42500D02*
X-280950D01*
Y-17500D02*
X-270400D01*
X-291500Y-12500D02*
X-280950D01*
X-291500Y12500D02*
X-280950D01*
X-291500Y32500D02*
X-280950D01*
X-291500Y47500D02*
X-280950D01*
X-291500Y62500D02*
X-280950D01*
X-291500Y77500D02*
X-280950D01*
X-291500Y92500D02*
X-280950D01*
X-291500Y107500D02*
X-280950D01*
X-291500Y122500D02*
X-280950D01*
X290500Y-22500D02*
X294000Y-19000D01*
X280950Y-22500D02*
X290500D01*
X280950Y-87500D02*
X292000D01*
X268000Y-110000D02*
Y-105000D01*
X255500Y-92500D02*
X268000Y-105000D01*
X246450Y-92500D02*
X255500D01*
X250000Y-42500D02*
X256346D01*
Y-52346D02*
Y-42500D01*
Y-52346D02*
X258000Y-54000D01*
Y-67500D02*
Y-54000D01*
X270000Y-122500D02*
X280950D01*
X246450Y-82500D02*
X257000D01*
D43*
X29000Y22000D02*
X37500D01*
X18500Y11500D02*
X29000Y22000D01*
X18500Y1500D02*
Y11500D01*
X161000Y149500D02*
Y157000D01*
X10500Y35523D02*
Y43500D01*
Y50500D01*
X-169000Y-57500D02*
X-159500D01*
X-20000Y129000D02*
Y168000D01*
X-23000Y126000D02*
X-20000Y129000D01*
X-23000Y109620D02*
Y126000D01*
X-169000Y-57500D02*
Y-43500D01*
D44*
X210000Y-150250D02*
Y-110000D01*
X196250Y-164000D02*
X210000Y-150250D01*
X213270Y-153730D02*
Y-111730D01*
X208750Y-158250D02*
X213270Y-153730D01*
X208750Y-164000D02*
Y-158250D01*
X206730Y-144270D02*
Y-108270D01*
X183750Y-167250D02*
X206730Y-144270D01*
X183750Y-171000D02*
Y-167250D01*
X216540Y-159290D02*
X221250Y-164000D01*
X216540Y-159290D02*
Y-113084D01*
X196250Y-171000D02*
Y-164000D01*
X208750Y-171000D02*
Y-164000D01*
X221250Y-171000D02*
Y-164000D01*
X132401Y-132270D02*
X178678Y-85993D01*
X122230Y-132270D02*
X132401D01*
X117000Y-137500D02*
X122230Y-132270D01*
X93000Y-137500D02*
X104770Y-125730D01*
X129692D01*
X166543Y-88879D01*
X131046Y-129000D02*
X174813Y-85234D01*
X113500Y-129000D02*
X131046D01*
X105000Y-137500D02*
X113500Y-129000D01*
X128798Y-122000D02*
X162678Y-88120D01*
X96500Y-122000D02*
X128798D01*
X81000Y-137500D02*
X96500Y-122000D01*
X166543Y-70135D02*
X166678Y-70000D01*
X162678Y-88120D02*
Y-70000D01*
X166543Y-88879D02*
Y-70135D01*
X174678Y-70000D02*
X174813Y-70135D01*
Y-85234D02*
Y-70135D01*
X178678Y-85993D02*
Y-70000D01*
X236876Y-57500D02*
X246450D01*
X237251Y-52500D02*
X246450D01*
X237627Y-47500D02*
X246450D01*
X221110Y-64017D02*
X237627Y-47500D01*
X224380Y-65371D02*
X237251Y-52500D01*
X221110Y-81890D02*
Y-64017D01*
X224380Y-83244D02*
Y-65371D01*
X236500Y-62500D02*
X246450D01*
X229135Y-65241D02*
X236876Y-57500D01*
X233000Y-66000D02*
X236500Y-62500D01*
X246450Y-87500D02*
X258500D01*
X262000Y-91000D01*
X134523Y-145563D02*
X134730Y-145770D01*
X158900D02*
X158993Y-145677D01*
X134523Y-145563D02*
Y-139643D01*
X146730Y-145770D02*
Y-139900D01*
X158993Y-145677D02*
Y-139643D01*
X233000Y-96624D02*
Y-66000D01*
X229135Y-95865D02*
Y-65241D01*
X216540Y-113084D02*
X233000Y-96624D01*
X213270Y-111730D02*
X229135Y-95865D01*
X210000Y-110000D02*
X220000Y-100000D01*
Y-87625D01*
X224380Y-83244D01*
X206730Y-108270D02*
X216000Y-99000D01*
Y-87000D01*
X221110Y-81890D01*
D45*
X50380Y99620D02*
X58000D01*
X45000Y105000D02*
X50380Y99620D01*
X160678Y-11000D02*
Y-1866D01*
D46*
X186500Y53000D02*
D03*
D47*
X53993Y-154584D02*
X54000D01*
X27493Y-143984D02*
X27500D01*
X2493D02*
X2500D01*
X28993Y-154584D02*
X29000D01*
D48*
X-100000Y-1000D02*
D03*
X100000D02*
D03*
D49*
X-276200Y-132000D02*
D03*
Y132000D02*
D03*
X60000Y-140000D02*
D03*
X50000Y-125000D02*
D03*
X-96000Y105000D02*
D03*
X-108000D02*
D03*
X-120000D02*
D03*
X-132000D02*
D03*
X-144000D02*
D03*
X260500Y-70000D02*
D03*
X269000Y-65000D02*
D03*
X7500Y-3500D02*
D03*
X25500Y10500D02*
D03*
X-222000Y-24000D02*
D03*
X-217000Y-30069D02*
D03*
X-207000Y18000D02*
D03*
X86340Y33340D02*
D03*
X66500Y-11000D02*
D03*
X108000Y135000D02*
D03*
X10000Y99000D02*
D03*
X-15131Y19131D02*
D03*
X12000Y18500D02*
D03*
X3500D02*
D03*
X-213941Y99941D02*
D03*
X66000Y16000D02*
D03*
Y28000D02*
D03*
Y40000D02*
D03*
X66000Y52000D02*
D03*
X-5000Y-16431D02*
D03*
X-21000Y-11000D02*
D03*
X-25500Y17500D02*
D03*
X-38596Y72000D02*
D03*
X-26730Y74255D02*
D03*
X4000Y62230D02*
D03*
X-54000Y65000D02*
D03*
X145000Y57000D02*
D03*
X151620Y93620D02*
D03*
X21000Y-12000D02*
D03*
X166632Y-24368D02*
D03*
X142000Y18322D02*
D03*
X130340Y48340D02*
D03*
X37500Y43000D02*
D03*
X-3500Y-44500D02*
D03*
X-54000Y3500D02*
D03*
X-43500Y-10500D02*
D03*
X17500Y-52500D02*
D03*
X43000Y-24500D02*
D03*
X3500Y-42500D02*
D03*
X24500D02*
D03*
X-26730Y45730D02*
D03*
X58000Y69000D02*
D03*
X37500Y76000D02*
D03*
X-8000Y84500D02*
D03*
X43500Y-10500D02*
D03*
X10500Y43500D02*
D03*
X-31000Y34000D02*
D03*
X-43500Y10500D02*
D03*
X-25500Y-17500D02*
D03*
X-48013Y-3500D02*
D03*
X43000Y-40000D02*
D03*
X-10500Y-42500D02*
D03*
X-17500Y-44500D02*
D03*
X-27000D02*
D03*
X187000Y49431D02*
D03*
X268040Y47700D02*
D03*
X141730Y40158D02*
D03*
X183313Y-86000D02*
D03*
X100000Y-171000D02*
D03*
X213000Y28000D02*
D03*
X188000D02*
D03*
X-156000Y105000D02*
D03*
X-194442Y-93174D02*
D03*
X-93000Y26000D02*
D03*
X78736Y-31263D02*
D03*
X-26000Y-118000D02*
D03*
Y-125000D02*
D03*
X-33000D02*
D03*
X-47000D02*
D03*
X-40000Y-118000D02*
D03*
X-47000D02*
D03*
X-33000D02*
D03*
X-235900Y107500D02*
D03*
X-257000Y122500D02*
D03*
X-235900Y77500D02*
D03*
Y62500D02*
D03*
Y47500D02*
D03*
X-246523Y-133123D02*
D03*
X-270400Y-107500D02*
D03*
X-291500Y-102500D02*
D03*
Y-77500D02*
D03*
Y-42500D02*
D03*
X-270400Y-17500D02*
D03*
X-291500Y-12500D02*
D03*
Y12500D02*
D03*
Y32500D02*
D03*
Y47500D02*
D03*
Y62500D02*
D03*
Y77500D02*
D03*
Y92500D02*
D03*
Y107500D02*
D03*
X-156270Y117000D02*
D03*
X-163270D02*
D03*
X-34000Y129000D02*
D03*
X-46000Y122000D02*
D03*
X-57000Y133000D02*
D03*
X222000Y-136000D02*
D03*
X257000Y-82500D02*
D03*
X182000Y85000D02*
D03*
X228000Y75000D02*
D03*
X230000Y51000D02*
D03*
Y41000D02*
D03*
X169500Y-105000D02*
D03*
X13000Y112000D02*
D03*
X180500Y-54500D02*
D03*
X-152000Y-18000D02*
D03*
X-162000Y3000D02*
D03*
X-146000Y-1000D02*
D03*
X-108000Y-60000D02*
D03*
X-142359Y-83431D02*
D03*
X-1000Y-179000D02*
D03*
X135000Y-170000D02*
D03*
X258000Y-183000D02*
D03*
X203000Y39000D02*
D03*
X136500Y62500D02*
D03*
X98000Y121000D02*
D03*
X181500Y102000D02*
D03*
X252000Y130000D02*
D03*
X228730Y137842D02*
D03*
X170000Y180000D02*
D03*
X65000D02*
D03*
X98730Y164230D02*
D03*
X-4000Y152000D02*
D03*
X22000Y164230D02*
D03*
X-213000Y184000D02*
D03*
X-291500Y122500D02*
D03*
X179500Y-95500D02*
D03*
X31680Y-94680D02*
D03*
X132000Y145000D02*
D03*
X75000Y123000D02*
D03*
X83000Y-95000D02*
D03*
X-264363Y67500D02*
D03*
X-198500Y-142500D02*
D03*
X-261000Y27000D02*
D03*
X51851Y-65297D02*
D03*
X-10000Y137112D02*
D03*
X-69000Y-148000D02*
D03*
X-79000Y-68000D02*
D03*
X182000Y115000D02*
D03*
X150678Y-57106D02*
D03*
X0Y109620D02*
D03*
X292000Y67500D02*
D03*
X-120000Y-171000D02*
D03*
X236270Y35842D02*
D03*
X81730Y178230D02*
D03*
X-234556Y-92575D02*
D03*
X-40000Y-125000D02*
D03*
X170678Y-81188D02*
D03*
X71000Y-147000D02*
D03*
X225000Y-121000D02*
D03*
X201640Y-24059D02*
D03*
X206000Y500D02*
D03*
X231200Y22800D02*
D03*
X224354D02*
D03*
Y15298D02*
D03*
X231200D02*
D03*
X257000Y-5000D02*
D03*
X236270Y45842D02*
D03*
X224000Y-17500D02*
D03*
X220979Y-28000D02*
D03*
X293000Y-35000D02*
D03*
X263000Y0D02*
D03*
X72000Y154000D02*
D03*
X141000Y180000D02*
D03*
X62842Y138730D02*
D03*
X-223000Y-182000D02*
D03*
X-14588Y69412D02*
D03*
X236000Y56000D02*
D03*
X-170000Y117000D02*
D03*
X-131268Y7000D02*
D03*
X-244000Y-147000D02*
D03*
X26842Y61270D02*
D03*
X-78000Y-140000D02*
D03*
X-183000Y3000D02*
D03*
X292000Y-87500D02*
D03*
X211000Y64000D02*
D03*
X84500Y-81500D02*
D03*
X10500Y-44500D02*
D03*
X212000Y149000D02*
D03*
X294000Y-19000D02*
D03*
X270000Y-122500D02*
D03*
X268000Y-110000D02*
D03*
X225000Y95000D02*
D03*
X257000Y4270D02*
D03*
X170678Y-57106D02*
D03*
X103500Y-46000D02*
D03*
X176000Y-24000D02*
D03*
X155000Y-24334D02*
D03*
X-270400Y-87500D02*
D03*
Y-117500D02*
D03*
X-264363Y52500D02*
D03*
X-269250Y57500D02*
D03*
X-264363Y37500D02*
D03*
X-269250Y42500D02*
D03*
X292000Y7500D02*
D03*
X120000Y-61000D02*
D03*
X292000Y-42500D02*
D03*
Y-77500D02*
D03*
X270000Y-82500D02*
D03*
X292000Y-57500D02*
D03*
X-269250Y72500D02*
D03*
X262000Y-47000D02*
D03*
X209000Y-51000D02*
D03*
X211500Y-60500D02*
D03*
X213000Y-34000D02*
D03*
X187979Y5000D02*
D03*
X265000Y-37500D02*
D03*
X269000Y-44000D02*
D03*
X217000Y-52000D02*
D03*
X222000Y-36000D02*
D03*
X236000Y-27500D02*
D03*
X149000Y-83000D02*
D03*
X133178Y-72250D02*
D03*
X188178Y-70000D02*
D03*
X-269250Y87500D02*
D03*
X-264363Y82500D02*
D03*
X-269250Y102500D02*
D03*
X-264363Y97500D02*
D03*
X-269250Y117500D02*
D03*
X-264363Y112500D02*
D03*
X-164000Y-24000D02*
D03*
X-215000Y42000D02*
D03*
X-234000Y-52500D02*
D03*
X-210500Y30000D02*
D03*
X-229000Y-57610D02*
D03*
X-234750Y-82500D02*
D03*
X-229863Y-87500D02*
D03*
X160632Y-1866D02*
D03*
X-215000Y-39000D02*
D03*
X-184000Y29704D02*
D03*
X-229000Y39000D02*
D03*
X148000Y0D02*
D03*
X206000Y-95000D02*
D03*
X215500Y-77500D02*
D03*
X258000Y-112500D02*
D03*
X233000Y66000D02*
D03*
X-20000Y177000D02*
D03*
X-30000D02*
D03*
X-40000D02*
D03*
X-51000D02*
D03*
X-20000Y168000D02*
D03*
X-30000D02*
D03*
X-40000D02*
D03*
X-51000D02*
D03*
X5000Y178500D02*
D03*
X31500Y161500D02*
D03*
X108230Y161230D02*
D03*
X184500Y-104500D02*
D03*
X-219500Y-172500D02*
D03*
X-159000Y-143000D02*
D03*
X-120000Y-178000D02*
D03*
X-6250Y-131000D02*
D03*
X-19000Y-161000D02*
D03*
X-44380D02*
D03*
X-18750Y-131000D02*
D03*
X169500Y-116000D02*
D03*
X213000Y5000D02*
D03*
X213657Y-69000D02*
D03*
X292000Y-27500D02*
D03*
X207000Y-29000D02*
D03*
X195000Y5000D02*
D03*
X236000Y-17500D02*
D03*
X117226Y62000D02*
D03*
X81496Y62270D02*
D03*
X187000Y56569D02*
D03*
X259500Y-12500D02*
D03*
X260500Y-28000D02*
D03*
X240000Y-150000D02*
D03*
X-226140Y-105342D02*
D03*
X40000Y100000D02*
D03*
X45000Y105000D02*
D03*
X225000Y-93000D02*
D03*
X161000Y157000D02*
D03*
X125000Y120000D02*
D03*
X130000Y112000D02*
D03*
X-61477Y97000D02*
D03*
X169500Y140500D02*
D03*
X-54000Y97000D02*
D03*
X-197000Y124000D02*
D03*
X154620Y-118000D02*
D03*
X-168000Y47500D02*
D03*
X-201101Y-73500D02*
D03*
X-89000Y-87000D02*
D03*
X-2000Y-66000D02*
D03*
X-134000Y-99000D02*
D03*
X-159500Y-57500D02*
D03*
X262000Y-91000D02*
D03*
X55656Y147156D02*
D03*
X231000Y115000D02*
D03*
X-215000Y-97500D02*
D03*
X-185000Y-72000D02*
D03*
X-185198Y-78802D02*
D03*
X135000Y-180000D02*
D03*
X124750Y-177750D02*
D03*
X83663Y-167002D02*
D03*
X124750Y-155250D02*
D03*
X70000Y-125000D02*
D03*
X188750Y-126587D02*
D03*
X201250D02*
D03*
X261000Y-120000D02*
D03*
X196250Y-164000D02*
D03*
X146730Y-139643D02*
D03*
X208750Y-164000D02*
D03*
X134523Y-139643D02*
D03*
X221250Y-164000D02*
D03*
X158993Y-139643D02*
D03*
X171000Y-164000D02*
D03*
X-10000Y129000D02*
D03*
X-273000Y179000D02*
D03*
X-285000Y152000D02*
D03*
X-289000Y163000D02*
D03*
X-262000Y174000D02*
D03*
X-273000Y147000D02*
D03*
X-285000Y174000D02*
D03*
X-257000Y163000D02*
D03*
X-262000Y151000D02*
D03*
X-273000Y-147000D02*
D03*
X-285000Y-174000D02*
D03*
X-289000Y-163000D02*
D03*
X-262000Y-152000D02*
D03*
X-273000Y-179000D02*
D03*
X-285000Y-152000D02*
D03*
X-257000Y-163000D02*
D03*
X-262000Y-175000D02*
D03*
X273000Y-147000D02*
D03*
X261000Y-174000D02*
D03*
X257000Y-163000D02*
D03*
X284000Y-152000D02*
D03*
X273000Y-179000D02*
D03*
X261000Y-152000D02*
D03*
X289000Y-163000D02*
D03*
X284000Y-175000D02*
D03*
X273000Y179000D02*
D03*
X261000Y152000D02*
D03*
X257000Y163000D02*
D03*
X284000Y174000D02*
D03*
X273000Y147000D02*
D03*
X261000Y174000D02*
D03*
X289000Y163000D02*
D03*
X284000Y151000D02*
D03*
D50*
X-273000Y163000D02*
D03*
X273000D02*
D03*
X-273000Y-163000D02*
D03*
X273000D02*
D03*
D51*
X229700Y170000D02*
D03*
D52*
X204300D02*
D03*
M02*
