%FSLAX44Y44*%
%MOMM*%
G71*
G01*
G75*
G04 Layer_Color=32896*
%ADD10R,0.5000X0.6000*%
%ADD11R,0.6000X0.5000*%
%ADD12R,0.5000X1.1000*%
%ADD13R,1.1000X0.5000*%
%ADD14R,0.8128X0.8128*%
%ADD15R,1.0160X0.8890*%
%ADD16R,2.4000X1.2500*%
%ADD17R,1.2000X1.2500*%
%ADD18R,0.8890X1.0160*%
%ADD19R,1.6002X1.2954*%
%ADD20R,0.7600X1.5200*%
%ADD21R,0.8128X0.8128*%
%ADD22R,1.0668X0.8128*%
G04:AMPARAMS|DCode=23|XSize=0.22mm|YSize=0.8mm|CornerRadius=0mm|HoleSize=0mm|Usage=FLASHONLY|Rotation=90.000|XOffset=0mm|YOffset=0mm|HoleType=Round|Shape=RoundedRectangle|*
%AMROUNDEDRECTD23*
21,1,0.2200,0.8000,0,0,90.0*
21,1,0.2200,0.8000,0,0,90.0*
1,1,0.0000,0.4000,0.1100*
1,1,0.0000,0.4000,-0.1100*
1,1,0.0000,-0.4000,-0.1100*
1,1,0.0000,-0.4000,0.1100*
%
%ADD23ROUNDEDRECTD23*%
G04:AMPARAMS|DCode=24|XSize=0.22mm|YSize=0.8mm|CornerRadius=0mm|HoleSize=0mm|Usage=FLASHONLY|Rotation=0.000|XOffset=0mm|YOffset=0mm|HoleType=Round|Shape=RoundedRectangle|*
%AMROUNDEDRECTD24*
21,1,0.2200,0.8000,0,0,0.0*
21,1,0.2200,0.8000,0,0,0.0*
1,1,0.0000,0.1100,-0.4000*
1,1,0.0000,-0.1100,-0.4000*
1,1,0.0000,-0.1100,0.4000*
1,1,0.0000,0.1100,0.4000*
%
%ADD24ROUNDEDRECTD24*%
%ADD25R,4.3000X4.3000*%
%ADD26R,0.7000X0.6000*%
%ADD27R,1.2500X0.3000*%
%ADD28R,0.7000X1.6000*%
%ADD29R,1.1000X1.4000*%
%ADD30R,1.6000X1.4000*%
%ADD31R,1.2000X2.2000*%
%ADD32R,1.2000X1.4000*%
%ADD33R,0.8000X1.6000*%
%ADD34R,1.4000X0.6000*%
%ADD35P,1.8385X4X90.0*%
%ADD36R,1.2700X0.5080*%
%ADD37R,1.3970X1.3970*%
%ADD38R,1.2000X1.6000*%
%ADD39R,1.5000X0.4000*%
%ADD40C,0.4000*%
%ADD41C,0.2000*%
%ADD42C,0.3000*%
%ADD43C,0.2540*%
%ADD44C,0.1270*%
%ADD45C,0.6000*%
%ADD46R,1.3000X1.2000*%
%ADD47C,0.0254*%
%ADD48C,4.4000*%
%ADD49C,0.5000*%
G04:AMPARAMS|DCode=50|XSize=4mm|YSize=4mm|CornerRadius=2mm|HoleSize=0mm|Usage=FLASHONLY|Rotation=0.000|XOffset=0mm|YOffset=0mm|HoleType=Round|Shape=RoundedRectangle|*
%AMROUNDEDRECTD50*
21,1,4.0000,0.0000,0,0,0.0*
21,1,0.0000,4.0000,0,0,0.0*
1,1,4.0000,0.0000,0.0000*
1,1,4.0000,0.0000,0.0000*
1,1,4.0000,0.0000,0.0000*
1,1,4.0000,0.0000,0.0000*
%
%ADD50ROUNDEDRECTD50*%
%ADD51R,1.5240X1.5240*%
%ADD52C,1.5240*%
%ADD53C,3.6000*%
%ADD54R,1.4000X1.2000*%
%ADD55R,0.4000X1.0000*%
%ADD56R,1.0000X0.4000*%
%ADD57R,1.6000X1.2000*%
%ADD58O,2.0320X0.6096*%
%ADD59R,2.0320X0.6096*%
%ADD60R,0.7250X2.3500*%
%ADD61R,1.3970X1.3970*%
%ADD62P,1.8385X4X180.0*%
%ADD63R,0.2000X0.7500*%
%ADD64R,0.7500X0.2000*%
%ADD65R,1.5000X0.8000*%
%ADD66R,1.0000X1.5000*%
%ADD67R,2.1000X3.0000*%
%ADD68R,0.8000X2.1000*%
%ADD69R,1.6000X2.2000*%
%ADD70C,0.8000*%
G04:AMPARAMS|DCode=71|XSize=2mm|YSize=2mm|CornerRadius=0mm|HoleSize=0mm|Usage=FLASHONLY|Rotation=180.000|XOffset=0mm|YOffset=0mm|HoleType=Round|Shape=RoundedRectangle|*
%AMROUNDEDRECTD71*
21,1,2.0000,2.0000,0,0,180.0*
21,1,2.0000,2.0000,0,0,180.0*
1,1,0.0000,-1.0000,1.0000*
1,1,0.0000,1.0000,1.0000*
1,1,0.0000,1.0000,-1.0000*
1,1,0.0000,-1.0000,-1.0000*
%
%ADD71ROUNDEDRECTD71*%
%ADD72R,2.1500X6.3000*%
%ADD73C,0.8000*%
%ADD74R,1.1000X0.4000*%
%ADD75R,1.9250X2.3500*%
%ADD76C,4.0000*%
%ADD77C,0.1250*%
%ADD78C,0.1524*%
%ADD79C,0.1200*%
%ADD80C,0.2032*%
%ADD81C,0.1000*%
%ADD82R,0.7000X0.8000*%
%ADD83R,0.8000X0.7000*%
%ADD84R,0.7000X1.3000*%
%ADD85R,1.3000X0.7000*%
%ADD86R,1.0128X1.0128*%
%ADD87R,1.2160X1.0890*%
%ADD88R,2.6000X1.4500*%
%ADD89R,1.4000X1.4500*%
%ADD90R,1.0890X1.2160*%
%ADD91R,1.8002X1.4954*%
%ADD92R,0.9600X1.7200*%
%ADD93R,1.0128X1.0128*%
%ADD94R,1.2668X1.0128*%
G04:AMPARAMS|DCode=95|XSize=0.42mm|YSize=1mm|CornerRadius=0mm|HoleSize=0mm|Usage=FLASHONLY|Rotation=90.000|XOffset=0mm|YOffset=0mm|HoleType=Round|Shape=RoundedRectangle|*
%AMROUNDEDRECTD95*
21,1,0.4200,1.0000,0,0,90.0*
21,1,0.4200,1.0000,0,0,90.0*
1,1,0.0000,0.5000,0.2100*
1,1,0.0000,0.5000,-0.2100*
1,1,0.0000,-0.5000,-0.2100*
1,1,0.0000,-0.5000,0.2100*
%
%ADD95ROUNDEDRECTD95*%
G04:AMPARAMS|DCode=96|XSize=0.42mm|YSize=1mm|CornerRadius=0mm|HoleSize=0mm|Usage=FLASHONLY|Rotation=0.000|XOffset=0mm|YOffset=0mm|HoleType=Round|Shape=RoundedRectangle|*
%AMROUNDEDRECTD96*
21,1,0.4200,1.0000,0,0,0.0*
21,1,0.4200,1.0000,0,0,0.0*
1,1,0.0000,0.2100,-0.5000*
1,1,0.0000,-0.2100,-0.5000*
1,1,0.0000,-0.2100,0.5000*
1,1,0.0000,0.2100,0.5000*
%
%ADD96ROUNDEDRECTD96*%
%ADD97R,4.5000X4.5000*%
%ADD98R,0.9000X0.8000*%
%ADD99R,1.4500X0.5000*%
%ADD100R,0.9000X1.8000*%
%ADD101R,1.3000X1.6000*%
%ADD102R,1.8000X1.6000*%
%ADD103R,1.4000X2.4000*%
%ADD104R,1.4000X1.6000*%
%ADD105R,1.0000X1.8000*%
%ADD106R,1.6000X0.8000*%
%ADD107P,2.1213X4X90.0*%
%ADD108R,1.4700X0.7080*%
%ADD109R,1.5970X1.5970*%
%ADD110R,1.4000X1.8000*%
%ADD111R,1.7000X0.6000*%
%ADD112C,4.6000*%
%ADD113C,0.7000*%
G04:AMPARAMS|DCode=114|XSize=4.2mm|YSize=4.2mm|CornerRadius=2.1mm|HoleSize=0mm|Usage=FLASHONLY|Rotation=0.000|XOffset=0mm|YOffset=0mm|HoleType=Round|Shape=RoundedRectangle|*
%AMROUNDEDRECTD114*
21,1,4.2000,0.0000,0,0,0.0*
21,1,0.0000,4.2000,0,0,0.0*
1,1,4.2000,0.0000,0.0000*
1,1,4.2000,0.0000,0.0000*
1,1,4.2000,0.0000,0.0000*
1,1,4.2000,0.0000,0.0000*
%
%ADD114ROUNDEDRECTD114*%
%ADD115R,1.7240X1.7240*%
%ADD116C,1.7240*%
%ADD117R,1.0750X0.6000*%
%ADD118R,1.4000X2.5500*%
%ADD119R,0.6000X1.2000*%
%ADD120R,1.2000X0.6000*%
%ADD121R,1.8000X1.4000*%
%ADD122O,2.2320X0.8096*%
%ADD123R,2.2320X0.8096*%
%ADD124R,0.9250X2.5500*%
%ADD125R,1.5970X1.5970*%
%ADD126P,2.1213X4X180.0*%
%ADD127R,0.4000X0.9500*%
%ADD128R,0.9500X0.4000*%
%ADD129R,1.7000X1.0000*%
%ADD130R,1.2000X1.7000*%
%ADD131R,2.3000X3.2000*%
%ADD132R,1.0000X2.3000*%
%ADD133R,1.8000X2.4000*%
%ADD134C,1.0000*%
G04:AMPARAMS|DCode=135|XSize=2.2mm|YSize=2.2mm|CornerRadius=0mm|HoleSize=0mm|Usage=FLASHONLY|Rotation=180.000|XOffset=0mm|YOffset=0mm|HoleType=Round|Shape=RoundedRectangle|*
%AMROUNDEDRECTD135*
21,1,2.2000,2.2000,0,0,180.0*
21,1,2.2000,2.2000,0,0,180.0*
1,1,0.0000,-1.1000,1.1000*
1,1,0.0000,1.1000,1.1000*
1,1,0.0000,1.1000,-1.1000*
1,1,0.0000,-1.1000,-1.1000*
%
%ADD135ROUNDEDRECTD135*%
%ADD136R,2.3500X6.5000*%
%ADD137C,4.2000*%
%ADD138C,0.1999*%
%ADD139C,1.4000*%
%ADD140C,0.1501*%
%ADD141C,0.1500*%
%ADD142R,3.2000X3.2000*%
D41*
X-90800Y-116000D02*
X-83800Y-123000D01*
X-90800Y-116000D02*
X-83775Y-108975D01*
X-83780Y-123000D02*
Y-109000D01*
X-90800Y-123200D02*
Y-108800D01*
X-95000Y-116000D02*
X-90800D01*
X-83780D02*
X-79000D01*
X-114000Y-101500D02*
X-64000D01*
Y-130500D02*
Y-128000D01*
Y-104000D02*
Y-101500D01*
X-110000Y-104000D02*
Y-101500D01*
X-114000Y-130500D02*
X-64000D01*
X-110000D02*
Y-128000D01*
X-114000Y-130500D02*
Y-128000D01*
Y-104000D02*
Y-101500D01*
X289941Y-190000D02*
G03*
X299941Y-180000I0J10000D01*
G01*
Y180000D02*
G03*
X289941Y190000I-10000J0D01*
G01*
X-300000Y-180000D02*
G03*
X-290000Y-190000I10000J0D01*
G01*
Y190000D02*
G03*
X-300000Y180000I0J-10000D01*
G01*
X300000Y-180000D02*
Y180000D01*
X-300000Y-180000D02*
Y180000D01*
X-290000Y-190000D02*
X289941Y-190000D01*
X-290000Y190000D02*
X289941Y190000D01*
D43*
X212000Y-95000D02*
G03*
X212000Y-95000I-1000J0D01*
G01*
X-135000Y69000D02*
Y84235D01*
X-145157Y69000D01*
Y84235D01*
X-152774Y79157D02*
X-157853D01*
X-160392Y76617D01*
Y69000D01*
X-152774D01*
X-150235Y71539D01*
X-152774Y74078D01*
X-160392D01*
X-165470Y69000D02*
X-170548D01*
X-168009D01*
Y79157D01*
X-165470D01*
X-188323Y81696D02*
X-185784Y84235D01*
X-180705D01*
X-178166Y81696D01*
Y79157D01*
X-180705Y76617D01*
X-185784D01*
X-188323Y74078D01*
Y71539D01*
X-185784Y69000D01*
X-180705D01*
X-178166Y71539D01*
X-193401Y81696D02*
X-195940Y84235D01*
X-201019D01*
X-203558Y81696D01*
Y79157D01*
X-201019Y76617D01*
X-203558Y74078D01*
Y71539D01*
X-201019Y69000D01*
X-195940D01*
X-193401Y71539D01*
Y74078D01*
X-195940Y76617D01*
X-193401Y79157D01*
Y81696D01*
X-195940Y76617D02*
X-201019D01*
X-208636Y81696D02*
X-211175Y84235D01*
X-216254D01*
X-218793Y81696D01*
Y71539D01*
X-216254Y69000D01*
X-211175D01*
X-208636Y71539D01*
Y81696D01*
X-234028Y69000D02*
X-223871D01*
X-234028Y79157D01*
Y81696D01*
X-231489Y84235D01*
X-226410D01*
X-223871Y81696D01*
D44*
X-42250Y29250D02*
X-38250Y33250D01*
Y42500D01*
X-42250Y-29250D02*
X-38250Y-33250D01*
Y-42500D02*
Y-33250D01*
X-42500Y-42500D02*
Y42500D01*
X42500Y-42500D02*
Y42500D01*
X-42500D02*
X42500D01*
X-42500Y-42500D02*
X42500D01*
X-125250Y64750D02*
X-94750D01*
X-125250Y95250D02*
X-94750D01*
X-125250Y94000D02*
Y95250D01*
Y64750D02*
Y66000D01*
X-94750Y94000D02*
Y95250D01*
Y64750D02*
Y66000D01*
X94750Y64750D02*
X125250D01*
X94750Y95250D02*
X125250D01*
X94750Y94000D02*
Y95250D01*
Y64750D02*
Y66000D01*
X125250Y94000D02*
Y95250D01*
Y64750D02*
Y66000D01*
X94750Y-64750D02*
X125250D01*
X94750Y-95250D02*
X125250D01*
Y-94000D01*
Y-66000D02*
Y-64750D01*
X94750Y-95250D02*
Y-94000D01*
Y-66000D02*
Y-64750D01*
X-125250D02*
X-94750D01*
X-125250Y-95250D02*
X-94750D01*
Y-94000D01*
Y-66000D02*
Y-64750D01*
X-125250Y-95250D02*
Y-94000D01*
Y-66000D02*
Y-64750D01*
X-246450Y74164D02*
X-249782Y67500D01*
X-253114Y74164D01*
X-256447Y75830D02*
X-258113Y77497D01*
X-261445D01*
X-263111Y75830D01*
Y69166D01*
X-261445Y67500D01*
X-258113D01*
X-256447Y69166D01*
Y75830D01*
X-266444Y67500D02*
Y69166D01*
X-268110D01*
Y67500D01*
X-266444D01*
X-281439Y77497D02*
X-278106Y75830D01*
X-274774Y72498D01*
Y69166D01*
X-276440Y67500D01*
X-279773D01*
X-281439Y69166D01*
Y70832D01*
X-279773Y72498D01*
X-274774D01*
D47*
X53993Y-154584D02*
X54000D01*
X27493Y-143984D02*
X27500D01*
X2493D02*
X2500D01*
X28993Y-154584D02*
X29000D01*
D77*
X-54000Y42731D02*
G03*
X-57809Y42728I-1905J634D01*
G01*
X-50190Y42731D02*
G03*
X-53999Y42728I-1905J634D01*
G01*
X-245181Y-117499D02*
G03*
X-245178Y-121309I-634J-1905D01*
G01*
X-245181Y-113689D02*
G03*
X-245178Y-117499I-634J-1905D01*
G01*
X110730Y140230D02*
G03*
X110730Y140230I-2500J0D01*
G01*
X34000D02*
G03*
X34000Y140230I-2500J0D01*
G01*
X-197127Y-178443D02*
G03*
X-167745Y-178443I14691J30662D01*
G01*
X-214772Y-137274D02*
G03*
X-214772Y-158287I32336J-10507D01*
G01*
X-167745Y-117119D02*
G03*
X-197127Y-117119I-14691J-30662D01*
G01*
X-149939Y-157778D02*
G03*
X-149939Y-137783I-32497J9997D01*
G01*
X-214218Y-136276D02*
G03*
X-214563Y-137280I31782J-11505D01*
G01*
X-208328Y-126055D02*
G03*
X-214218Y-136276I25892J-21726D01*
G01*
X-214563Y-158281D02*
G03*
X-214218Y-159285I32127J10501D01*
G01*
X-150147Y-137786D02*
G03*
X-156544Y-126055I-32288J-9995D01*
G01*
X-214218Y-159286D02*
G03*
X-208328Y-169507I31782J11505D01*
G01*
X-156544Y-169507D02*
G03*
X-150147Y-157776I-25892J21726D01*
G01*
X-167831Y-178263D02*
G03*
X-167302Y-178003I-14605J30482D01*
G01*
Y-117558D02*
G03*
X-167831Y-117299I-15134J-30222D01*
G01*
X-204161Y-168469D02*
G03*
X-199038Y-172768I21725J20689D01*
G01*
Y-122793D02*
G03*
X-204161Y-127092I16602J-24988D01*
G01*
X-157156Y-126569D02*
G03*
X-165936Y-119202I-25280J-21212D01*
G01*
X-160711Y-127092D02*
G03*
X-165834Y-122793I-21725J-20689D01*
G01*
X-165936Y-176360D02*
G03*
X-157156Y-168993I-16500J28579D01*
G01*
X-165834Y-172768D02*
G03*
X-160711Y-168469I-16602J24988D01*
G01*
X-197040Y-117299D02*
G03*
X-197570Y-117558I14605J-30482D01*
G01*
X-197623Y-117585D02*
G03*
X-199336Y-118509I15187J-30196D01*
G01*
X-165536Y-118509D02*
G03*
X-167302Y-117558I-16900J-29272D01*
G01*
Y-178003D02*
G03*
X-165536Y-177052I-15134J30222D01*
G01*
X-155061Y-120656D02*
G03*
X-163209Y-114437I-27224J-27224D01*
G01*
Y-181125D02*
G03*
X-155061Y-174906I-19075J33442D01*
G01*
X-209568Y-175043D02*
G03*
X-201653Y-181127I27224J27224D01*
G01*
X-207715Y-168993D02*
G03*
X-198936Y-176360I25280J21212D01*
G01*
X-197570Y-178003D02*
G03*
X-197040Y-178263I15134J30222D01*
G01*
X-199285Y-177082D02*
G03*
X-197570Y-178003I16849J29301D01*
G01*
X-201653Y-181128D02*
G03*
X-201361Y-181295I19308J33308D01*
G01*
X-201653Y-114434D02*
G03*
X-209568Y-120519I19308J-33308D01*
G01*
X-198936Y-119202D02*
G03*
X-207715Y-126569I16500J-28579D01*
G01*
X172000Y16269D02*
G03*
X175809Y16272I1905J-634D01*
G01*
X168190Y16269D02*
G03*
X171999Y16272I1905J-634D01*
G01*
X-245181Y-102499D02*
G03*
X-245178Y-106309I-634J-1905D01*
G01*
X-245181Y-98689D02*
G03*
X-245178Y-102499I-634J-1905D01*
G01*
X136000Y-41487D02*
G03*
X139809Y-41483I1905J-634D01*
G01*
X132190Y-41487D02*
G03*
X135999Y-41483I1905J-634D01*
G01*
X107731Y-39810D02*
G03*
X107728Y-36001I634J1905D01*
G01*
X107731Y-36000D02*
G03*
X107728Y-32191I634J1905D01*
G01*
X148269Y-110000D02*
G03*
X148272Y-113809I-634J-1905D01*
G01*
X148269Y-106190D02*
G03*
X148272Y-109999I-634J-1905D01*
G01*
X-10777Y59000D02*
X-9507Y57730D01*
X-13318Y56460D02*
X-10777Y59000D01*
X-15857D02*
X-13318Y56460D01*
X-18398D02*
X-15857Y59000D01*
X-19668Y57730D02*
X-18398Y56460D01*
X-9507Y48840D02*
Y53920D01*
X-19668Y48840D02*
X-9507D01*
X-19668D02*
Y53920D01*
X-9507Y61540D02*
Y66620D01*
X-19668D02*
X-9507D01*
X-19668Y61540D02*
Y66620D01*
X-7810Y57730D02*
X-6540Y56460D01*
X-4000Y59000D01*
X-1460Y56460D01*
X1080Y59000D01*
X2350Y57730D01*
X-7810Y61540D02*
Y66620D01*
X2350D01*
Y61540D02*
Y66620D01*
X-7810Y48840D02*
Y53920D01*
Y48840D02*
X2350D01*
Y53920D01*
X-47650Y33840D02*
Y57970D01*
X-60350D02*
X-47650D01*
X-60350Y30030D02*
Y57970D01*
Y30030D02*
X-47650D01*
Y33840D01*
X-60000Y44000D02*
X-57810D01*
X-50190D02*
X-48000D01*
X136920Y30000D02*
X138190Y28730D01*
X140730Y31270D01*
X143270Y28730D01*
X145810Y31270D01*
X147080Y30000D01*
X136920Y33810D02*
Y38890D01*
X147080D01*
Y33810D02*
Y38890D01*
X136920Y21110D02*
Y26190D01*
Y21110D02*
X147080D01*
Y26190D01*
X54270Y22920D02*
X55540Y24190D01*
X53000Y26730D02*
X55540Y24190D01*
X53000Y26730D02*
X55540Y29270D01*
X53000Y31810D02*
X55540Y29270D01*
X53000Y31810D02*
X54270Y33080D01*
X45380Y22920D02*
X50460D01*
X45380D02*
Y33080D01*
X50460D01*
X58080Y22920D02*
X63160D01*
Y33080D01*
X58080D02*
X63160D01*
X54270Y10920D02*
X55540Y12190D01*
X53000Y14730D02*
X55540Y12190D01*
X53000Y14730D02*
X55540Y17270D01*
X53000Y19810D02*
X55540Y17270D01*
X53000Y19810D02*
X54270Y21080D01*
X45380Y10920D02*
X50460D01*
X45380D02*
Y21080D01*
X50460D01*
X58080Y10920D02*
X63160D01*
Y21080D01*
X58080D02*
X63160D01*
X15000Y55080D02*
X22620D01*
X15000Y44920D02*
Y55080D01*
Y44920D02*
X22620D01*
X7380Y55080D02*
X15000D01*
Y44920D02*
Y55080D01*
X7380Y44920D02*
X15000D01*
X-33650Y48840D02*
Y53920D01*
X-43810Y48840D02*
X-33650D01*
X-43810D02*
Y53920D01*
X-33650Y61540D02*
Y66620D01*
X-43810D02*
X-33650D01*
X-43810Y61540D02*
Y66620D01*
X-34920Y59000D02*
X-33650Y57730D01*
X-37460Y56460D02*
X-34920Y59000D01*
X-40000D02*
X-37460Y56460D01*
X-42540D02*
X-40000Y59000D01*
X-43810Y57730D02*
X-42540Y56460D01*
X-21650Y48840D02*
Y53920D01*
X-31810Y48840D02*
X-21650D01*
X-31810D02*
Y53920D01*
X-21650Y61540D02*
Y66620D01*
X-31810D02*
X-21650D01*
X-31810Y61540D02*
Y66620D01*
X-22920Y59000D02*
X-21650Y57730D01*
X-25460Y56460D02*
X-22920Y59000D01*
X-28000D02*
X-25460Y56460D01*
X-30540D02*
X-28000Y59000D01*
X-31810Y57730D02*
X-30540Y56460D01*
X46380Y46920D02*
X54000D01*
Y57080D01*
X46380D02*
X54000D01*
Y46920D02*
X61620D01*
X54000D02*
Y57080D01*
X61620D01*
X54270Y34920D02*
X55540Y36190D01*
X53000Y38730D02*
X55540Y36190D01*
X53000Y38730D02*
X55540Y41270D01*
X53000Y43810D02*
X55540Y41270D01*
X53000Y43810D02*
X54270Y45080D01*
X45380Y34920D02*
X50460D01*
X45380D02*
Y45080D01*
X50460D01*
X58080Y34920D02*
X63160D01*
Y45080D01*
X58080D02*
X63160D01*
X-260420Y-111150D02*
X-236290D01*
X-260420Y-123850D02*
Y-111150D01*
Y-123850D02*
X-232480D01*
Y-111150D01*
X-236290D02*
X-232480D01*
X-246450Y-123500D02*
Y-121310D01*
Y-113690D02*
Y-111500D01*
X-216866Y105711D02*
X-215595Y104441D01*
X-219405Y103171D02*
X-216866Y105711D01*
X-221945D02*
X-219405Y103171D01*
X-224485D02*
X-221945Y105711D01*
X-225756Y104441D02*
X-224485Y103171D01*
X-215595Y95551D02*
Y100631D01*
X-225756Y95551D02*
X-215595D01*
X-225756D02*
Y100631D01*
X-215595Y108251D02*
Y113331D01*
X-225756D02*
X-215595D01*
X-225756Y108251D02*
Y113331D01*
X98730Y161730D02*
Y166730D01*
X96230Y164230D02*
X101230D01*
X84230Y158230D02*
X113230D01*
X84230D02*
Y170230D01*
X113230D01*
Y165480D02*
Y170230D01*
X111418Y165480D02*
X113230D01*
X111418Y162980D02*
Y165480D01*
Y162980D02*
X113230D01*
Y158230D02*
Y162980D01*
X127730Y161951D02*
X129000Y163221D01*
X126460Y165761D02*
X129000Y163221D01*
X126460Y165761D02*
X129000Y168301D01*
X126460Y170841D02*
X129000Y168301D01*
X126460Y170841D02*
X127730Y172111D01*
X118840Y161951D02*
X123920D01*
X118840D02*
Y172111D01*
X123920D01*
X131540Y161951D02*
X136620D01*
Y172111D01*
X131540D02*
X136620D01*
X-56410Y124598D02*
Y162698D01*
X-36091Y124598D02*
Y162698D01*
X-56410Y143648D02*
X-36091D01*
X51156Y159910D02*
X58776D01*
X51156Y149750D02*
Y159910D01*
Y149750D02*
X58776D01*
X43536Y159910D02*
X51156D01*
Y149750D02*
Y159910D01*
X43536Y149750D02*
X51156D01*
X22000Y161730D02*
Y166730D01*
X19500Y164230D02*
X24500D01*
X7500Y158230D02*
X36500D01*
X7500D02*
Y170230D01*
X36500D01*
Y165480D02*
Y170230D01*
X34688Y165480D02*
X36500D01*
X34688Y162980D02*
Y165480D01*
Y162980D02*
X36500D01*
Y158230D02*
Y162980D01*
X49886Y183040D02*
X51156Y184310D01*
X49886Y183040D02*
X52426Y180500D01*
X49886Y177960D02*
X52426Y180500D01*
X49886Y177960D02*
X52426Y175420D01*
X51156Y174150D02*
X52426Y175420D01*
X54966Y184310D02*
X60046D01*
Y174150D02*
Y184310D01*
X54966Y174150D02*
X60046D01*
X42266Y184310D02*
X47346D01*
X42266Y174150D02*
Y184310D01*
Y174150D02*
X47346D01*
X68160Y97950D02*
Y136050D01*
X47840Y97950D02*
Y136050D01*
Y117000D02*
X68160D01*
X146250Y-155084D02*
Y-148834D01*
X170250D01*
X220000D02*
X243750D01*
Y-155084D02*
Y-148834D01*
X162000Y-185584D02*
X228000D01*
X171371Y-123056D02*
X176371Y-128056D01*
X171371Y-123056D02*
X181371D01*
X176371Y-128056D02*
X181371Y-123056D01*
X228730Y-75190D02*
X230000Y-73920D01*
X228730Y-75190D02*
X231270Y-77730D01*
X228730Y-80270D02*
X231270Y-77730D01*
X228730Y-80270D02*
X231270Y-82810D01*
X230000Y-84080D02*
X231270Y-82810D01*
X233810Y-73920D02*
X238890D01*
Y-84080D02*
Y-73920D01*
X233810Y-84080D02*
X238890D01*
X221110Y-73920D02*
X226190D01*
X221110Y-84080D02*
Y-73920D01*
Y-84080D02*
X226190D01*
X228730Y-63190D02*
X230000Y-61920D01*
X228730Y-63190D02*
X231270Y-65730D01*
X228730Y-68270D02*
X231270Y-65730D01*
X228730Y-68270D02*
X231270Y-70810D01*
X230000Y-72080D02*
X231270Y-70810D01*
X233810Y-61920D02*
X238890D01*
Y-72080D02*
Y-61920D01*
X233810Y-72080D02*
X238890D01*
X221110Y-61920D02*
X226190D01*
X221110Y-72080D02*
Y-61920D01*
Y-72080D02*
X226190D01*
X-205748Y112538D02*
X-204478Y113808D01*
X-205748Y112538D02*
X-203208Y109999D01*
X-205748Y107458D02*
X-203208Y109999D01*
X-205748Y107458D02*
X-203208Y104918D01*
X-204478Y103649D02*
X-203208Y104918D01*
X-200668Y113808D02*
X-195588D01*
Y103649D02*
Y113808D01*
X-200668Y103649D02*
X-195588D01*
X-213368Y113808D02*
X-208288D01*
X-213368Y103649D02*
Y113808D01*
Y103649D02*
X-208288D01*
X186110Y79920D02*
X191190D01*
X186110D02*
Y90080D01*
X191190D01*
X198810Y79920D02*
X203890D01*
Y90080D01*
X198810D02*
X203890D01*
X195000Y79920D02*
X196270Y81190D01*
X193730Y83730D02*
X196270Y81190D01*
X193730Y83730D02*
X196270Y86270D01*
X193730Y88810D02*
X196270Y86270D01*
X193730Y88810D02*
X195000Y90080D01*
X57002Y-29000D02*
Y-21380D01*
Y-29000D02*
X67161D01*
Y-21380D01*
X57002Y-36620D02*
Y-29000D01*
X67161D01*
Y-36620D02*
Y-29000D01*
X-192791Y-49920D02*
X-187711D01*
Y-60080D02*
Y-49920D01*
X-192791Y-60080D02*
X-187711D01*
X-205491Y-49920D02*
X-200411D01*
X-205491Y-60080D02*
Y-49920D01*
Y-60080D02*
X-200411D01*
X-197871Y-51190D02*
X-196601Y-49920D01*
X-197871Y-51190D02*
X-195331Y-53730D01*
X-197871Y-56270D02*
X-195331Y-53730D01*
X-197871Y-56270D02*
X-195331Y-58810D01*
X-196601Y-60080D02*
X-195331Y-58810D01*
X180380Y-29080D02*
X188000D01*
Y-18920D01*
X180380D02*
X188000D01*
Y-29080D02*
X195620D01*
X188000D02*
Y-18920D01*
X195620D01*
X183098Y-59000D02*
Y-51380D01*
Y-59000D02*
X193258D01*
Y-51380D01*
X183098Y-66620D02*
Y-59000D01*
X193258D01*
Y-66620D02*
Y-59000D01*
X100380Y-61080D02*
X108000D01*
Y-50920D01*
X100380D02*
X108000D01*
Y-61080D02*
X115620D01*
X108000D02*
Y-50920D01*
X115620D01*
X-118399Y-151531D02*
Y-144031D01*
X-122149Y-147781D02*
X-118399Y-144031D01*
X-122149Y-147781D02*
X-118399Y-151531D01*
X-215899Y-142781D02*
X-180899D01*
X-178399Y-145281D01*
Y-150281D02*
Y-145281D01*
X-180899Y-152781D02*
X-178399Y-150281D01*
X-215899Y-152781D02*
X-180899D01*
X-220899Y-137871D02*
X-220899Y-137997D01*
X-220899Y-137871D02*
Y-137760D01*
Y-137671D01*
Y-137611D01*
Y-137583D01*
Y-137581D01*
X-215476Y-139757D02*
Y-138281D01*
Y-157281D02*
Y-155804D01*
X-148436Y-157781D02*
Y-153781D01*
Y-141781D02*
Y-137781D01*
X-145887Y-153781D02*
Y-141781D01*
X-146838Y-153781D02*
Y-141781D01*
X-216899Y-157281D02*
Y-138281D01*
X-148842Y-153022D02*
X-147838D01*
X-148842Y-142540D02*
X-147838D01*
X-148683Y-143691D02*
X-147838D01*
X-148683Y-151870D02*
X-147838D01*
X-216899Y-138281D02*
X-215476D01*
X-219399D02*
X-216899D01*
X-215394D02*
X-215389D01*
X-215476D02*
X-215394D01*
X-219399Y-157281D02*
X-216899D01*
X-215476D01*
X-215394D01*
X-215389D01*
X-220936Y-158281D02*
Y-153781D01*
Y-150195D02*
Y-145362D01*
Y-141781D02*
Y-137281D01*
X-221936Y-159281D02*
X-220936Y-158281D01*
X-221936Y-136281D02*
X-220936Y-137281D01*
X-229436Y-135281D02*
X-224436Y-130281D01*
X-221936Y-136281D02*
X-218136D01*
X-221936Y-159281D02*
Y-153781D01*
Y-150281D02*
Y-145281D01*
Y-141781D02*
Y-136281D01*
Y-159281D02*
X-218136D01*
X-224436Y-165281D02*
X-219330D01*
X-229436Y-160281D02*
X-224436Y-165281D01*
Y-130281D02*
X-219330D01*
X-143436Y-150013D02*
Y-145549D01*
Y-141781D02*
Y-137781D01*
Y-132281D02*
X-138436D01*
X-135436Y-135281D01*
X-141436Y-150281D02*
Y-145281D01*
X-138436Y-163281D02*
X-135436Y-160329D01*
X-143436Y-163281D02*
X-138436D01*
X-143436Y-157781D02*
Y-153781D01*
X-220899Y-148281D02*
X-219399D01*
X-220899Y-147281D02*
X-219399D01*
X-220899D02*
Y-145553D01*
Y-148281D02*
Y-147281D01*
Y-150009D02*
Y-148281D01*
Y-157981D02*
Y-157565D01*
X-219399Y-150009D02*
Y-148281D01*
Y-147281D01*
Y-145553D01*
Y-137997D02*
Y-137581D01*
Y-157981D02*
Y-157565D01*
X-220899Y-138081D02*
X-219399D01*
X-220899Y-137997D02*
X-219399D01*
X-220899Y-157565D02*
X-219399D01*
X-220899Y-157481D02*
X-219399D01*
X-144887Y-148281D02*
X-143436D01*
Y-150013D02*
X-143387D01*
X-144887Y-148281D02*
Y-147281D01*
Y-150197D02*
Y-148281D01*
Y-147281D02*
Y-145365D01*
X-143436Y-145549D02*
X-143387D01*
X-144887Y-147281D02*
X-143436D01*
X-143387Y-150197D02*
Y-150013D01*
Y-145549D02*
Y-145365D01*
X-147838Y-153781D02*
Y-153022D01*
Y-151870D01*
Y-151112D01*
Y-144450D02*
Y-143691D01*
Y-142540D01*
Y-141781D01*
X-144887Y-150197D02*
X-143387D01*
X-144887Y-145365D02*
X-143387D01*
X-220899Y-150009D02*
X-219399D01*
X-220899Y-145553D02*
X-219399D01*
X-220899Y-157481D02*
Y-153781D01*
Y-157565D02*
Y-157481D01*
Y-157565D02*
Y-157481D01*
Y-138081D02*
X-220899Y-137997D01*
X-220899Y-141781D02*
Y-138081D01*
Y-141781D02*
X-220899Y-137997D01*
X-144887Y-153781D02*
Y-150197D01*
X-142387Y-153781D02*
Y-150281D01*
X-144754D02*
X-142387D01*
X-141436D01*
X-148969Y-141781D02*
X-147838D01*
X-145887D02*
X-144887D01*
X-146838D02*
X-145887D01*
X-147838D02*
X-146838D01*
X-148969Y-153781D02*
X-147838D01*
X-146838D01*
X-145887D01*
X-144887D01*
X-142387D01*
X-141436D01*
Y-150281D01*
X-142387Y-141781D02*
X-141436D01*
Y-145281D02*
Y-141781D01*
X-142387Y-145281D02*
X-141436D01*
X-144887Y-145365D02*
Y-141781D01*
X-142387D01*
Y-145281D02*
Y-141781D01*
X-144754Y-145281D02*
X-142387D01*
X-144887Y-145365D02*
X-144754Y-145281D01*
X-219399Y-141781D02*
Y-138081D01*
X-219399Y-137997D01*
X-221899Y-145281D02*
X-219694D01*
X-221899Y-150281D02*
X-219694D01*
X-219399Y-157481D02*
X-219399Y-157565D01*
X-219399Y-157481D02*
Y-153781D01*
X-221899Y-141781D02*
X-219399D01*
X-221899Y-153781D02*
X-219399D01*
X-148599Y-144450D02*
X-147838D01*
Y-151112D02*
Y-144450D01*
X-148599Y-151112D02*
X-147838D01*
X-172916Y-115141D02*
Y-114281D01*
Y-181281D02*
Y-180421D01*
X-191955Y-181281D02*
Y-180421D01*
Y-115141D02*
Y-114281D01*
X-220936Y-158281D02*
X-218136D01*
X-220936Y-137281D02*
X-218136D01*
X-167809Y-117234D02*
X-167743Y-117119D01*
X-172916Y-114281D02*
X-168979Y-116557D01*
X-195894Y-116558D02*
X-191955Y-114281D01*
X-197128Y-117119D02*
X-197063Y-117233D01*
X-172916Y-181281D02*
X-168979Y-179005D01*
X-167809Y-178328D02*
X-167743Y-178442D01*
X-197128Y-178442D02*
X-197063Y-178328D01*
X-195894Y-179004D02*
X-191955Y-181281D01*
X-218136Y-137281D02*
Y-136281D01*
Y-137281D02*
X-214564D01*
X-218136Y-136281D02*
X-214219D01*
X-218136D02*
Y-129086D01*
Y-158281D02*
X-214564D01*
X-150149Y-137781D02*
X-143436D01*
Y-132281D01*
X-218136Y-159281D02*
X-214219D01*
X-218136Y-166475D02*
Y-159281D01*
Y-158281D01*
X-150149Y-157781D02*
X-143436D01*
Y-163281D02*
Y-157781D01*
X-167809Y-178328D02*
X-167286Y-178025D01*
X-167809Y-178328D02*
Y-178252D01*
Y-117310D02*
Y-117234D01*
X-167286Y-117536D01*
X-197586Y-117536D02*
X-197063Y-117233D01*
Y-117310D02*
Y-117233D01*
Y-178328D02*
Y-178252D01*
X-197586Y-178026D02*
X-197063Y-178328D01*
X-199452Y-114281D02*
X-191955D01*
X-172916D02*
X-165420D01*
X-176626D02*
X-172916D01*
X-191955D02*
X-188245D01*
X-172916Y-181281D02*
X-165420D01*
X-199452D02*
X-191955D01*
X-188245D01*
X-176626D02*
X-172916D01*
X-165935Y-119202D02*
X-165538Y-118508D01*
X-152814Y-172659D02*
X-143436Y-163281D01*
X-155061Y-174906D02*
X-152814Y-172659D01*
X-165935Y-176360D02*
X-165538Y-177054D01*
X-157164Y-169002D02*
X-152814Y-172659D01*
X-166467Y-120129D02*
X-165935Y-119202D01*
X-157977Y-168319D02*
X-157164Y-169002D01*
X-166467Y-175432D02*
X-165935Y-176360D01*
X-198936Y-119202D02*
X-198404Y-120130D01*
X-201665Y-114441D02*
X-201386Y-114281D01*
X-199452D01*
X-197586Y-117536D01*
X-197595Y-117571D02*
X-197586Y-117536D01*
X-167286Y-117536D02*
X-167277Y-117571D01*
X-167286Y-117536D02*
X-165420Y-114281D01*
X-163486D01*
X-165538Y-118508D02*
X-163205Y-114439D01*
X-165420Y-181281D02*
X-163486D01*
X-167286Y-178025D02*
X-165420Y-181281D01*
X-167286Y-178025D02*
X-167277Y-177991D01*
X-165538Y-177054D02*
X-163205Y-181122D01*
X-163486Y-114281D02*
X-163205Y-114439D01*
X-163486Y-181281D02*
X-163205Y-181122D01*
X-197595Y-177991D02*
X-197586Y-178026D01*
X-199452Y-181281D02*
X-197586Y-178026D01*
X-201386Y-181281D02*
X-199452D01*
X-201665Y-181120D02*
X-199334Y-177054D01*
X-198936Y-176360D01*
X-198404Y-175432D01*
X-212009Y-172602D02*
X-209568Y-175043D01*
X-219330Y-165281D02*
X-218136Y-166475D01*
X-212009Y-172602D01*
X-207710Y-168999D02*
X-206895Y-168315D01*
X-212009Y-172602D02*
X-207710Y-168999D01*
X-157977Y-127242D02*
X-157164Y-126559D01*
X-152814Y-122902D01*
X-155061Y-120656D02*
X-152814Y-122902D01*
X-143436Y-132281D01*
X-201665Y-114441D02*
X-199334Y-118508D01*
X-198936Y-119202D01*
X-212009Y-122959D02*
X-207710Y-126563D01*
X-206895Y-127246D01*
X-218136Y-129086D02*
X-212009Y-122959D01*
X-219330Y-130281D02*
X-218136Y-129086D01*
X-212009Y-122959D02*
X-209568Y-120519D01*
X-220899Y-157981D02*
X-219399D01*
X-220899Y-137581D02*
X-219399D01*
X-32349Y143648D02*
X-12029D01*
Y124598D02*
Y162698D01*
X-32349Y124598D02*
Y162698D01*
X228920Y90000D02*
Y97620D01*
Y90000D02*
X239080D01*
Y97620D01*
X228920Y82380D02*
Y90000D01*
X239080D01*
Y82380D02*
Y90000D01*
X74110Y-118080D02*
X79190D01*
X74110D02*
Y-107920D01*
X79190D01*
X86810Y-118080D02*
X91890D01*
Y-107920D01*
X86810D02*
X91890D01*
X83000Y-118080D02*
X84270Y-116810D01*
X81730Y-114270D02*
X84270Y-116810D01*
X81730Y-114270D02*
X84270Y-111730D01*
X81730Y-109190D02*
X84270Y-111730D01*
X81730Y-109190D02*
X83000Y-107920D01*
X55540Y-5920D02*
X63160D01*
X55540Y-16080D02*
Y-5920D01*
Y-16080D02*
X63160D01*
X47920Y-5920D02*
X55540D01*
Y-16080D02*
Y-5920D01*
X47920Y-16080D02*
X55540D01*
X171610Y-121080D02*
X176690D01*
X171610D02*
Y-110920D01*
X176690D01*
X184310Y-121080D02*
X189390D01*
Y-110920D01*
X184310D02*
X189390D01*
X180500Y-121080D02*
X181770Y-119810D01*
X179230Y-117270D02*
X181770Y-119810D01*
X179230Y-117270D02*
X181770Y-114730D01*
X179230Y-112190D02*
X181770Y-114730D01*
X179230Y-112190D02*
X180500Y-110920D01*
X220810Y90080D02*
X225890D01*
Y79920D02*
Y90080D01*
X220810Y79920D02*
X225890D01*
X208110Y90080D02*
X213190D01*
X208110Y79920D02*
Y90080D01*
Y79920D02*
X213190D01*
X215730Y88810D02*
X217000Y90080D01*
X215730Y88810D02*
X218270Y86270D01*
X215730Y83730D02*
X218270Y86270D01*
X215730Y83730D02*
X218270Y81190D01*
X217000Y79920D02*
X218270Y81190D01*
X133920Y-68000D02*
Y-60380D01*
Y-68000D02*
X144080D01*
Y-60380D01*
X133920Y-75620D02*
Y-68000D01*
X144080D01*
Y-75620D02*
Y-68000D01*
X162080Y18380D02*
Y26000D01*
X151920D02*
X162080D01*
X151920Y18380D02*
Y26000D01*
X162080D02*
Y33620D01*
X151920Y26000D02*
X162080D01*
X151920D02*
Y33620D01*
X155758Y-75620D02*
Y-68000D01*
X145598D02*
X155758D01*
X145598Y-75620D02*
Y-68000D01*
X155758D02*
Y-60380D01*
X145598Y-68000D02*
X155758D01*
X145598D02*
Y-60380D01*
X165598Y-68000D02*
Y-60380D01*
Y-68000D02*
X175758D01*
Y-60380D01*
X165598Y-75620D02*
Y-68000D01*
X175758D01*
Y-75620D02*
Y-68000D01*
X15000Y67080D02*
X22620D01*
X15000Y56920D02*
Y67080D01*
Y56920D02*
X22620D01*
X7380Y67080D02*
X15000D01*
Y56920D02*
Y67080D01*
X7380Y56920D02*
X15000D01*
X55080Y-36620D02*
Y-29000D01*
X44920D02*
X55080D01*
X44920Y-36620D02*
Y-29000D01*
X55080D02*
Y-21380D01*
X44920Y-29000D02*
X55080D01*
X44920D02*
Y-21380D01*
X165650Y1030D02*
Y25160D01*
Y1030D02*
X178350D01*
Y28970D01*
X165650D02*
X178350D01*
X165650Y25160D02*
Y28970D01*
X175810Y15000D02*
X178000D01*
X166000D02*
X168190D01*
X-158474Y169773D02*
X-150854D01*
Y179933D01*
X-158474D02*
X-150854D01*
Y169773D02*
X-143234D01*
X-150854D02*
Y179933D01*
X-143234D01*
X-227080Y179000D02*
Y186620D01*
Y179000D02*
X-216920D01*
Y186620D01*
X-227080Y171380D02*
Y179000D01*
X-216920D01*
Y171380D02*
Y179000D01*
X262110Y-18080D02*
X267190D01*
X262110D02*
Y-7920D01*
X267190D01*
X274810Y-18080D02*
X279890D01*
Y-7920D01*
X274810D02*
X279890D01*
X271000Y-18080D02*
X272270Y-16810D01*
X269730Y-14270D02*
X272270Y-16810D01*
X269730Y-14270D02*
X272270Y-11730D01*
X269730Y-9190D02*
X272270Y-11730D01*
X269730Y-9190D02*
X271000Y-7920D01*
X194920Y17000D02*
X196190Y15730D01*
X198730Y18270D01*
X201270Y15730D01*
X203810Y18270D01*
X205080Y17000D01*
X194920Y20810D02*
Y25890D01*
X205080D01*
Y20810D02*
Y25890D01*
X194920Y8110D02*
Y13190D01*
Y8110D02*
X205080D01*
Y13190D01*
X269730Y-24190D02*
X271000Y-22920D01*
X269730Y-24190D02*
X272270Y-26730D01*
X269730Y-29270D02*
X272270Y-26730D01*
X269730Y-29270D02*
X272270Y-31810D01*
X271000Y-33080D02*
X272270Y-31810D01*
X274810Y-22920D02*
X279890D01*
Y-33080D02*
Y-22920D01*
X274810Y-33080D02*
X279890D01*
X262110Y-22920D02*
X267190D01*
X262110Y-33080D02*
Y-22920D01*
Y-33080D02*
X267190D01*
X182920Y17000D02*
X184190Y15730D01*
X186730Y18270D01*
X189270Y15730D01*
X191810Y18270D01*
X193080Y17000D01*
X182920Y20810D02*
Y25890D01*
X193080D01*
Y20810D02*
Y25890D01*
X182920Y8110D02*
Y13190D01*
Y8110D02*
X193080D01*
Y13190D01*
X230920Y-6000D02*
X232190Y-7270D01*
X234730Y-4730D01*
X237270Y-7270D01*
X239810Y-4730D01*
X241080Y-6000D01*
X230920Y-2190D02*
Y2890D01*
X241080D01*
Y-2190D02*
Y2890D01*
X230920Y-14890D02*
Y-9810D01*
Y-14890D02*
X241080D01*
Y-9810D01*
X227810Y-4730D02*
X229080Y-6000D01*
X225270Y-7270D02*
X227810Y-4730D01*
X222730D02*
X225270Y-7270D01*
X220190D02*
X222730Y-4730D01*
X218920Y-6000D02*
X220190Y-7270D01*
X229080Y-14890D02*
Y-9810D01*
X218920Y-14890D02*
X229080D01*
X218920D02*
Y-9810D01*
X229080Y-2190D02*
Y2890D01*
X218920D02*
X229080D01*
X218920Y-2190D02*
Y2890D01*
X218080Y9380D02*
Y17000D01*
X207920D02*
X218080D01*
X207920Y9380D02*
Y17000D01*
X218080D02*
Y24620D01*
X207920Y17000D02*
X218080D01*
X207920D02*
Y24620D01*
X-244000Y141080D02*
X-236380D01*
X-244000Y130920D02*
Y141080D01*
Y130920D02*
X-236380D01*
X-251620Y141080D02*
X-244000D01*
Y130920D02*
Y141080D01*
X-251620Y130920D02*
X-244000D01*
X-242640Y118770D02*
X-241370Y117500D01*
X-245180Y116230D02*
X-242640Y118770D01*
X-247720D02*
X-245180Y116230D01*
X-250260D02*
X-247720Y118770D01*
X-251530Y117500D02*
X-250260Y116230D01*
X-241370Y108610D02*
Y113690D01*
X-251530Y108610D02*
X-241370D01*
X-251530D02*
Y113690D01*
X-241370Y121310D02*
Y126390D01*
X-251530D02*
X-241370D01*
X-251530Y121310D02*
Y126390D01*
X-260420Y-96150D02*
X-236290D01*
X-260420Y-108850D02*
Y-96150D01*
Y-108850D02*
X-232480D01*
Y-96150D01*
X-236290D02*
X-232480D01*
X-246450Y-108500D02*
Y-106310D01*
Y-98690D02*
Y-96500D01*
X129650Y-56725D02*
Y-32595D01*
Y-56725D02*
X142350D01*
Y-28785D01*
X129650D02*
X142350D01*
X129650Y-32595D02*
Y-28785D01*
X139810Y-42755D02*
X142000D01*
X130000D02*
X132190D01*
X-197773Y179452D02*
X-196503Y180722D01*
X-197773Y179452D02*
X-195233Y176912D01*
X-197773Y174372D02*
X-195233Y176912D01*
X-197773Y174372D02*
X-195233Y171832D01*
X-196503Y170562D02*
X-195233Y171832D01*
X-192693Y180722D02*
X-187613D01*
Y170562D02*
Y180722D01*
X-192693Y170562D02*
X-187613D01*
X-205393Y180722D02*
X-200313D01*
X-205393Y170562D02*
Y180722D01*
Y170562D02*
X-200313D01*
X-177561Y113967D02*
X-169942D01*
X-177561Y103807D02*
Y113967D01*
Y103807D02*
X-169942D01*
X-185182Y113967D02*
X-177561D01*
Y103807D02*
Y113967D01*
X-185182Y103807D02*
X-177561D01*
X53000Y7310D02*
X54270Y8580D01*
X53000Y7310D02*
X55540Y4770D01*
X53000Y2230D02*
X55540Y4770D01*
X53000Y2230D02*
X55540Y-310D01*
X54270Y-1580D02*
X55540Y-310D01*
X58080Y8580D02*
X63160D01*
Y-1580D02*
Y8580D01*
X58080Y-1580D02*
X63160D01*
X45380Y8580D02*
X50460D01*
X45380Y-1580D02*
Y8580D01*
Y-1580D02*
X50460D01*
X51156Y161951D02*
X52426Y163221D01*
X49886Y165761D02*
X52426Y163221D01*
X49886Y165761D02*
X52426Y168301D01*
X49886Y170841D02*
X52426Y168301D01*
X49886Y170841D02*
X51156Y172111D01*
X42266Y161951D02*
X47346D01*
X42266D02*
Y172111D01*
X47346D01*
X54966Y161951D02*
X60046D01*
Y172111D01*
X54966D02*
X60046D01*
X109000Y-42000D02*
Y-39810D01*
Y-32190D02*
Y-30000D01*
X95030Y-42350D02*
X98840D01*
X95030D02*
Y-29650D01*
X122970D01*
Y-42350D02*
Y-29650D01*
X98840Y-42350D02*
X122970D01*
X171712Y-21654D02*
Y-14034D01*
X161552D02*
X171712D01*
X161552Y-21654D02*
Y-14034D01*
X171712D02*
Y-6414D01*
X161552Y-14034D02*
X171712D01*
X161552D02*
Y-6414D01*
X-196601Y24920D02*
X-195331Y26190D01*
X-197871Y28730D02*
X-195331Y26190D01*
X-197871Y28730D02*
X-195331Y31270D01*
X-197871Y33810D02*
X-195331Y31270D01*
X-197871Y33810D02*
X-196601Y35080D01*
X-205491Y24920D02*
X-200411D01*
X-205491D02*
Y35080D01*
X-200411D01*
X-192791Y24920D02*
X-187711D01*
Y35080D01*
X-192791D02*
X-187711D01*
X-196601Y36920D02*
X-195331Y38190D01*
X-197871Y40730D02*
X-195331Y38190D01*
X-197871Y40730D02*
X-195331Y43270D01*
X-197871Y45810D02*
X-195331Y43270D01*
X-197871Y45810D02*
X-196601Y47080D01*
X-205491Y36920D02*
X-200411D01*
X-205491D02*
Y47080D01*
X-200411D01*
X-192791Y36920D02*
X-187711D01*
Y47080D01*
X-192791D02*
X-187711D01*
X-196601Y12920D02*
X-195331Y14190D01*
X-197871Y16730D02*
X-195331Y14190D01*
X-197871Y16730D02*
X-195331Y19270D01*
X-197871Y21810D02*
X-195331Y19270D01*
X-197871Y21810D02*
X-196601Y23080D01*
X-205491Y12920D02*
X-200411D01*
X-205491D02*
Y23080D01*
X-200411D01*
X-192791Y12920D02*
X-187711D01*
Y23080D01*
X-192791D02*
X-187711D01*
X-196601Y-44080D02*
X-195331Y-42810D01*
X-197871Y-40270D02*
X-195331Y-42810D01*
X-197871Y-40270D02*
X-195331Y-37730D01*
X-197871Y-35190D02*
X-195331Y-37730D01*
X-197871Y-35190D02*
X-196601Y-33920D01*
X-205491Y-44080D02*
X-200411D01*
X-205491D02*
Y-33920D01*
X-200411D01*
X-192791Y-44080D02*
X-187711D01*
Y-33920D01*
X-192791D02*
X-187711D01*
X-196601Y-20080D02*
X-195331Y-18810D01*
X-197871Y-16270D02*
X-195331Y-18810D01*
X-197871Y-16270D02*
X-195331Y-13730D01*
X-197871Y-11190D02*
X-195331Y-13730D01*
X-197871Y-11190D02*
X-196601Y-9920D01*
X-205491Y-20080D02*
X-200411D01*
X-205491D02*
Y-9920D01*
X-200411D01*
X-192791Y-20080D02*
X-187711D01*
Y-9920D01*
X-192791D02*
X-187711D01*
X-196601Y-32080D02*
X-195331Y-30810D01*
X-197871Y-28270D02*
X-195331Y-30810D01*
X-197871Y-28270D02*
X-195331Y-25730D01*
X-197871Y-23190D02*
X-195331Y-25730D01*
X-197871Y-23190D02*
X-196601Y-21920D01*
X-205491Y-32080D02*
X-200411D01*
X-205491D02*
Y-21920D01*
X-200411D01*
X-192791Y-32080D02*
X-187711D01*
Y-21920D01*
X-192791D02*
X-187711D01*
X-192791Y59080D02*
X-187711D01*
Y48920D02*
Y59080D01*
X-192791Y48920D02*
X-187711D01*
X-205491Y59080D02*
X-200411D01*
X-205491Y48920D02*
Y59080D01*
Y48920D02*
X-200411D01*
X-197871Y57810D02*
X-196601Y59080D01*
X-197871Y57810D02*
X-195331Y55270D01*
X-197871Y52730D02*
X-195331Y55270D01*
X-197871Y52730D02*
X-195331Y50190D01*
X-196601Y48920D02*
X-195331Y50190D01*
X186920Y-96190D02*
Y-91110D01*
X197080D01*
Y-96190D02*
Y-91110D01*
X186920Y-108890D02*
Y-103810D01*
Y-108890D02*
X197080D01*
Y-103810D01*
X186920Y-100000D02*
X188190Y-101270D01*
X190730Y-98730D01*
X193270Y-101270D01*
X195810Y-98730D01*
X197080Y-100000D01*
X200433Y-76270D02*
X205513D01*
Y-86431D02*
Y-76270D01*
X200433Y-86431D02*
X205513D01*
X187733Y-76270D02*
X192813D01*
X187733Y-86431D02*
Y-76270D01*
Y-86431D02*
X192813D01*
X195353Y-77540D02*
X196623Y-76270D01*
X195353Y-77540D02*
X197893Y-80080D01*
X195353Y-82620D02*
X197893Y-80080D01*
X195353Y-82620D02*
X197893Y-85161D01*
X196623Y-86431D02*
X197893Y-85161D01*
X133030Y-103650D02*
X157160D01*
X133030Y-116350D02*
Y-103650D01*
Y-116350D02*
X160970D01*
Y-103650D01*
X157160D02*
X160970D01*
X147000Y-116000D02*
Y-113810D01*
Y-106190D02*
Y-104000D01*
Y-101620D02*
Y-86380D01*
X134300Y-101620D02*
X159700D01*
X134300Y-86380D02*
X159700D01*
X126460Y183040D02*
X127730Y184310D01*
X126460Y183040D02*
X129000Y180500D01*
X126460Y177960D02*
X129000Y180500D01*
X126460Y177960D02*
X129000Y175420D01*
X127730Y174150D02*
X129000Y175420D01*
X131540Y184310D02*
X136620D01*
Y174150D02*
Y184310D01*
X131540Y174150D02*
X136620D01*
X118840Y184310D02*
X123920D01*
X118840Y174150D02*
Y184310D01*
Y174150D02*
X123920D01*
X120110Y149750D02*
X127730D01*
Y159910D01*
X120110D02*
X127730D01*
Y149750D02*
X135350D01*
X127730D02*
Y159910D01*
X135350D01*
X160000Y105840D02*
Y126160D01*
X140950D02*
X179050D01*
X140950Y105840D02*
X179050D01*
X160080Y-21620D02*
Y-14000D01*
X149920D02*
X160080D01*
X149920Y-21620D02*
Y-14000D01*
X160080D02*
Y-6380D01*
X149920Y-14000D02*
X160080D01*
X149920D02*
Y-6380D01*
X129830Y-173620D02*
Y-166000D01*
X119670D02*
X129830D01*
X119670Y-173620D02*
Y-166000D01*
X129830D02*
Y-158380D01*
X119670Y-166000D02*
X129830D01*
X119670D02*
Y-158380D01*
X223000Y71080D02*
X230620D01*
X223000Y60920D02*
Y71080D01*
Y60920D02*
X230620D01*
X215380Y71080D02*
X223000D01*
Y60920D02*
Y71080D01*
X215380Y60920D02*
X223000D01*
D78*
X232200Y152220D02*
G03*
X232200Y152220I-2500J0D01*
G01*
X230700D02*
G03*
X230700Y152220I-1000J0D01*
G01*
X242400Y157300D02*
Y182700D01*
X191600D02*
X242400D01*
X191600Y157300D02*
Y182700D01*
Y157300D02*
X242400D01*
X217000D02*
Y182700D01*
D79*
X-115000Y-134000D02*
G03*
X-118000Y-137000I0J-3000D01*
G01*
Y-181000D02*
G03*
X-115000Y-184000I3000J0D01*
G01*
X-99000D02*
G03*
X-96000Y-181000I0J3000D01*
G01*
Y-137000D02*
G03*
X-99000Y-134000I-3000J0D01*
G01*
X-264810Y-87500D02*
G03*
X-264810Y-87500I-5590J0D01*
G01*
Y-117500D02*
G03*
X-264810Y-117500I-5590J0D01*
G01*
X267590Y-91000D02*
G03*
X267590Y-91000I-5590J0D01*
G01*
X-209410Y-97500D02*
G03*
X-209410Y-97500I-5590J0D01*
G01*
X128364Y25840D02*
Y55840D01*
X88364Y25840D02*
X128364D01*
X88364D02*
Y55840D01*
X128364D01*
X106364Y48840D02*
X108364D01*
Y43840D02*
Y48840D01*
Y32840D02*
X110364D01*
X108364D02*
Y37840D01*
X115364Y20840D02*
X119364Y24840D01*
X115364Y20840D02*
X123364D01*
X119364Y24840D02*
X123364Y20840D01*
X106364Y43840D02*
X110364D01*
Y39840D02*
Y41840D01*
X106364D02*
X110364D01*
X106364Y39840D02*
Y41840D01*
Y39840D02*
X110364D01*
X106364Y37840D02*
X110364D01*
X128364Y25840D02*
Y55840D01*
X88364Y25840D02*
X128364D01*
X88364D02*
Y55840D01*
X128364D01*
X-118000Y-181000D02*
Y-137000D01*
X-115000Y-184000D02*
X-99000D01*
X-96000Y-181000D02*
Y-137000D01*
X-115000Y-134000D02*
X-99000D01*
X-111000Y-157000D02*
X-103000D01*
X-111000Y-161000D02*
X-103000D01*
X-107000Y-165000D02*
Y-161000D01*
Y-157000D02*
Y-153000D01*
X35000Y136000D02*
X39000Y132000D01*
X23000Y136000D02*
X35000D01*
X39000Y120000D02*
Y132000D01*
X22000Y121000D02*
X26000D01*
X24000Y119000D02*
Y123000D01*
X13750Y106000D02*
X25250D01*
X9000Y110750D02*
X13750Y106000D01*
X9000Y110750D02*
Y122000D01*
X-58750Y-154514D02*
Y-148584D01*
X-50000D01*
X58750Y-154014D02*
Y-148584D01*
X0Y-176134D02*
Y-167244D01*
X-5080Y-171584D02*
X5080D01*
X-56260Y-185584D02*
X55680D01*
X50000Y-148584D02*
X58750D01*
X-47000Y-126934D02*
X-43500Y-130434D01*
X-40000Y-126934D01*
X-47000D02*
X-40000D01*
X-44500Y-127934D02*
X-43500Y-128934D01*
X-49500Y-125934D02*
X-43500Y-131934D01*
X-37500Y-125934D01*
X-49500D02*
X-37500D01*
X-43500Y-128934D02*
X-42500Y-127934D01*
X-44500D02*
X-42500D01*
X-107081Y148546D02*
Y152546D01*
X-109081Y150546D02*
X-105081D01*
X-114081Y180546D02*
X-100081D01*
X-114081Y120546D02*
X-100081D01*
X111000Y136000D02*
X115000Y132000D01*
X99000Y136000D02*
X111000D01*
X115000Y120000D02*
Y132000D01*
X98000Y121000D02*
X102000D01*
X100000Y119000D02*
Y123000D01*
X89750Y106000D02*
X101250D01*
X85000Y110750D02*
X89750Y106000D01*
X85000Y110750D02*
Y122000D01*
D80*
X169076Y166549D02*
Y171553D01*
X161456Y175401D02*
Y184291D01*
Y153811D02*
Y162701D01*
X166574Y169051D02*
X171578D01*
X161456Y184291D02*
X174156D01*
X161456Y153811D02*
X174156D01*
D81*
X209000Y-98000D02*
X213000D01*
X223000D02*
X227000D01*
X209000Y-116000D02*
X213250D01*
X223000D02*
X227000D01*
X265000Y79800D02*
Y86100D01*
X262460Y83000D02*
X267540D01*
X-16000Y86000D02*
X-11002D01*
Y88499D01*
X-11835Y89332D01*
X-13501D01*
X-14334Y88499D01*
Y86000D01*
Y87666D02*
X-16000Y89332D01*
Y94331D02*
Y90998D01*
X-12668Y94331D01*
X-11835D01*
X-11002Y93498D01*
Y91831D01*
X-11835Y90998D01*
X-16000Y95997D02*
Y97663D01*
Y96830D01*
X-11002D01*
X-11835Y95997D01*
X-1000Y86000D02*
X3998D01*
Y88499D01*
X3165Y89332D01*
X1499D01*
X666Y88499D01*
Y86000D01*
Y87666D02*
X-1000Y89332D01*
Y90998D02*
Y92664D01*
Y91831D01*
X3998D01*
X3165Y90998D01*
Y95164D02*
X3998Y95997D01*
Y97663D01*
X3165Y98496D01*
X2332D01*
X1499Y97663D01*
X666Y98496D01*
X-167D01*
X-1000Y97663D01*
Y95997D01*
X-167Y95164D01*
X666D01*
X1499Y95997D01*
X2332Y95164D01*
X3165D01*
X1499Y95997D02*
Y97663D01*
X-58002Y13332D02*
Y10000D01*
X-60501D01*
Y11666D01*
Y10000D01*
X-63000D01*
X-58002Y14998D02*
X-63000D01*
Y17498D01*
X-62167Y18331D01*
X-61334D01*
X-60501Y17498D01*
Y14998D01*
Y17498D01*
X-59668Y18331D01*
X-58835D01*
X-58002Y17498D01*
Y14998D01*
X-63000Y19997D02*
Y21663D01*
Y20830D01*
X-58002D01*
X-58835Y19997D01*
X-63000Y27494D02*
Y24162D01*
X-59668Y27494D01*
X-58835D01*
X-58002Y26661D01*
Y24995D01*
X-58835Y24162D01*
X134678Y4000D02*
X139676D01*
Y6499D01*
X138843Y7332D01*
X137177D01*
X136344Y6499D01*
Y4000D01*
Y5666D02*
X134678Y7332D01*
X138843Y8998D02*
X139676Y9831D01*
Y11497D01*
X138843Y12331D01*
X138010D01*
X137177Y11497D01*
Y10664D01*
Y11497D01*
X136344Y12331D01*
X135511D01*
X134678Y11497D01*
Y9831D01*
X135511Y8998D01*
X134678Y16496D02*
X139676D01*
X137177Y13997D01*
Y17329D01*
X-49626Y-26464D02*
Y-21466D01*
X-52125D01*
X-52958Y-22299D01*
Y-23965D01*
X-52125Y-24798D01*
X-49626D01*
X-51292D02*
X-52958Y-26464D01*
X-57957D02*
X-54624D01*
X-57957Y-23132D01*
Y-22299D01*
X-57123Y-21466D01*
X-55457D01*
X-54624Y-22299D01*
X-59623D02*
X-60456Y-21466D01*
X-62122D01*
X-62955Y-22299D01*
Y-25631D01*
X-62122Y-26464D01*
X-60456D01*
X-59623Y-25631D01*
Y-22299D01*
X-50000Y-34971D02*
Y-29972D01*
X-52499D01*
X-53332Y-30805D01*
Y-32471D01*
X-52499Y-33304D01*
X-50000D01*
X-51666D02*
X-53332Y-34971D01*
X-54998D02*
X-56665D01*
X-55831D01*
Y-29972D01*
X-54998Y-30805D01*
X-59164Y-34137D02*
X-59997Y-34971D01*
X-61663D01*
X-62496Y-34137D01*
Y-30805D01*
X-61663Y-29972D01*
X-59997D01*
X-59164Y-30805D01*
Y-31638D01*
X-59997Y-32471D01*
X-62496D01*
X139998Y43499D02*
Y41833D01*
X139165Y41000D01*
X135833D01*
X135000Y41833D01*
Y43499D01*
X135833Y44332D01*
X139165D01*
X139998Y43499D01*
X139165Y49331D02*
X139998Y48498D01*
Y46831D01*
X139165Y45998D01*
X138332D01*
X137499Y46831D01*
Y48498D01*
X136666Y49331D01*
X135833D01*
X135000Y48498D01*
Y46831D01*
X135833Y45998D01*
X139165Y54329D02*
X139998Y53496D01*
Y51830D01*
X139165Y50997D01*
X135833D01*
X135000Y51830D01*
Y53496D01*
X135833Y54329D01*
X135000Y55995D02*
Y57661D01*
Y56828D01*
X139998D01*
X139165Y55995D01*
X36668Y52165D02*
X37501Y52998D01*
X39167D01*
X40000Y52165D01*
Y48833D01*
X39167Y48000D01*
X37501D01*
X36668Y48833D01*
X31669Y48000D02*
X35002D01*
X31669Y51332D01*
Y52165D01*
X32502Y52998D01*
X34169D01*
X35002Y52165D01*
X26671Y52998D02*
X30003D01*
Y50499D01*
X28337Y51332D01*
X27504D01*
X26671Y50499D01*
Y48833D01*
X27504Y48000D01*
X29170D01*
X30003Y48833D01*
X-41000Y86000D02*
X-36002D01*
Y88499D01*
X-36835Y89332D01*
X-38501D01*
X-39334Y88499D01*
Y86000D01*
Y87666D02*
X-41000Y89332D01*
X-36002Y94331D02*
Y90998D01*
X-38501D01*
X-37668Y92664D01*
Y93498D01*
X-38501Y94331D01*
X-40167D01*
X-41000Y93498D01*
Y91831D01*
X-40167Y90998D01*
X-36835Y95997D02*
X-36002Y96830D01*
Y98496D01*
X-36835Y99329D01*
X-37668D01*
X-38501Y98496D01*
Y97663D01*
Y98496D01*
X-39334Y99329D01*
X-40167D01*
X-41000Y98496D01*
Y96830D01*
X-40167Y95997D01*
X-29000Y86000D02*
X-24002D01*
Y88499D01*
X-24835Y89332D01*
X-26501D01*
X-27334Y88499D01*
Y86000D01*
Y87666D02*
X-29000Y89332D01*
X-24002Y94331D02*
Y90998D01*
X-26501D01*
X-25668Y92664D01*
Y93498D01*
X-26501Y94331D01*
X-28167D01*
X-29000Y93498D01*
Y91831D01*
X-28167Y90998D01*
X-29000Y98496D02*
X-24002D01*
X-26501Y95997D01*
Y99329D01*
X56996Y64801D02*
X57829Y65634D01*
X59496D01*
X60329Y64801D01*
Y61469D01*
X59496Y60636D01*
X57829D01*
X56996Y61469D01*
X51998Y60636D02*
X55330D01*
X51998Y63968D01*
Y64801D01*
X52831Y65634D01*
X54497D01*
X55330Y64801D01*
X47000Y65634D02*
X48666Y64801D01*
X50332Y63135D01*
Y61469D01*
X49499Y60636D01*
X47833D01*
X47000Y61469D01*
Y62302D01*
X47833Y63135D01*
X50332D01*
X-49000Y-19000D02*
Y-14002D01*
X-51499D01*
X-52332Y-14835D01*
Y-16501D01*
X-51499Y-17334D01*
X-49000D01*
X-50666D02*
X-52332Y-19000D01*
X-57331Y-14002D02*
X-53998D01*
Y-16501D01*
X-55665Y-15668D01*
X-56498D01*
X-57331Y-16501D01*
Y-18167D01*
X-56498Y-19000D01*
X-54831D01*
X-53998Y-18167D01*
X-62329Y-14002D02*
X-60663Y-14835D01*
X-58997Y-16501D01*
Y-18167D01*
X-59830Y-19000D01*
X-61496D01*
X-62329Y-18167D01*
Y-17334D01*
X-61496Y-16501D01*
X-58997D01*
X6000Y150998D02*
Y146833D01*
X5167Y146000D01*
X3501D01*
X2668Y146833D01*
Y150998D01*
X1002Y146000D02*
X-664D01*
X169D01*
Y150998D01*
X1002Y150165D01*
X-3164D02*
X-3997Y150998D01*
X-5663D01*
X-6496Y150165D01*
Y149332D01*
X-5663Y148499D01*
X-6496Y147666D01*
Y146833D01*
X-5663Y146000D01*
X-3997D01*
X-3164Y146833D01*
Y147666D01*
X-3997Y148499D01*
X-3164Y149332D01*
Y150165D01*
X-3997Y148499D02*
X-5663D01*
X-26000Y-47002D02*
Y-51167D01*
X-26833Y-52000D01*
X-28499D01*
X-29332Y-51167D01*
Y-47002D01*
X-30998Y-52000D02*
X-32664D01*
X-31831D01*
Y-47002D01*
X-30998Y-47835D01*
X-35164Y-47002D02*
X-38496D01*
Y-47835D01*
X-35164Y-51167D01*
Y-52000D01*
X-147000Y116998D02*
Y112833D01*
X-147833Y112000D01*
X-149499D01*
X-150332Y112833D01*
Y116998D01*
X-151998Y112000D02*
X-153665D01*
X-152831D01*
Y116998D01*
X-151998Y116165D01*
X-156164D02*
X-156997Y116998D01*
X-158663D01*
X-159496Y116165D01*
Y115332D01*
X-158663Y114499D01*
X-157830D01*
X-158663D01*
X-159496Y113666D01*
Y112833D01*
X-158663Y112000D01*
X-156997D01*
X-156164Y112833D01*
X83000Y146998D02*
Y142833D01*
X82167Y142000D01*
X80501D01*
X79668Y142833D01*
Y146998D01*
X78002Y142000D02*
X76336D01*
X77169D01*
Y146998D01*
X78002Y146165D01*
X-171000Y-29704D02*
Y-24706D01*
X-173499D01*
X-174332Y-25539D01*
Y-27205D01*
X-173499Y-28038D01*
X-171000D01*
X-172666D02*
X-174332Y-29704D01*
X-175998Y-24706D02*
X-179331D01*
Y-25539D01*
X-175998Y-28871D01*
Y-29704D01*
X-184329Y-24706D02*
X-182663Y-25539D01*
X-180997Y-27205D01*
Y-28871D01*
X-181830Y-29704D01*
X-183496D01*
X-184329Y-28871D01*
Y-28038D01*
X-183496Y-27205D01*
X-180997D01*
X74000Y177000D02*
Y181998D01*
X71501D01*
X70668Y181165D01*
Y179499D01*
X71501Y178666D01*
X74000D01*
X72334D02*
X70668Y177000D01*
X65669Y181998D02*
X67336Y181165D01*
X69002Y179499D01*
Y177833D01*
X68169Y177000D01*
X66502D01*
X65669Y177833D01*
Y178666D01*
X66502Y179499D01*
X69002D01*
X64003Y177000D02*
X62337D01*
X63170D01*
Y181998D01*
X64003Y181165D01*
X76000Y164000D02*
Y168998D01*
X73501D01*
X72668Y168165D01*
Y166499D01*
X73501Y165666D01*
X76000D01*
X74334D02*
X72668Y164000D01*
X67669Y168998D02*
X71002D01*
Y166499D01*
X69335Y167332D01*
X68502D01*
X67669Y166499D01*
Y164833D01*
X68502Y164000D01*
X70169D01*
X71002Y164833D01*
X66003Y168165D02*
X65170Y168998D01*
X63504D01*
X62671Y168165D01*
Y167332D01*
X63504Y166499D01*
X62671Y165666D01*
Y164833D01*
X63504Y164000D01*
X65170D01*
X66003Y164833D01*
Y165666D01*
X65170Y166499D01*
X66003Y167332D01*
Y168165D01*
X65170Y166499D02*
X63504D01*
X-235000Y97000D02*
X-230002D01*
Y99499D01*
X-230835Y100332D01*
X-232501D01*
X-233334Y99499D01*
Y97000D01*
Y98666D02*
X-235000Y100332D01*
Y101998D02*
Y103665D01*
Y102831D01*
X-230002D01*
X-230835Y101998D01*
X-230002Y106164D02*
Y109496D01*
X-230835D01*
X-234167Y106164D01*
X-235000D01*
X154000Y156000D02*
Y160998D01*
X151501D01*
X150668Y160165D01*
Y158499D01*
X151501Y157666D01*
X154000D01*
X152334D02*
X150668Y156000D01*
X149002D02*
X147336D01*
X148169D01*
Y160998D01*
X149002Y160165D01*
X144836D02*
X144003Y160998D01*
X142337D01*
X141504Y160165D01*
Y159332D01*
X142337Y158499D01*
X143170D01*
X142337D01*
X141504Y157666D01*
Y156833D01*
X142337Y156000D01*
X144003D01*
X144836Y156833D01*
X114000Y-99002D02*
Y-104000D01*
X110668D01*
X109002Y-99002D02*
Y-104000D01*
X106503D01*
X105669Y-103167D01*
Y-99835D01*
X106503Y-99002D01*
X109002D01*
X101504Y-104000D02*
Y-99002D01*
X104003Y-101501D01*
X100671D01*
X144000Y86998D02*
Y82000D01*
X140668D01*
X139002Y86998D02*
Y82000D01*
X136502D01*
X135669Y82833D01*
Y86165D01*
X136502Y86998D01*
X139002D01*
X134003Y86165D02*
X133170Y86998D01*
X131504D01*
X130671Y86165D01*
Y85332D01*
X131504Y84499D01*
X132337D01*
X131504D01*
X130671Y83666D01*
Y82833D01*
X131504Y82000D01*
X133170D01*
X134003Y82833D01*
X-102000Y60998D02*
Y56000D01*
X-105332D01*
X-106998Y60998D02*
Y56000D01*
X-109497D01*
X-110331Y56833D01*
Y60165D01*
X-109497Y60998D01*
X-106998D01*
X-115329Y56000D02*
X-111997D01*
X-115329Y59332D01*
Y60165D01*
X-114496Y60998D01*
X-112830D01*
X-111997Y60165D01*
X-93359Y-53085D02*
Y-58083D01*
X-96691D01*
X-98357Y-53085D02*
Y-58083D01*
X-100857D01*
X-101690Y-57250D01*
Y-53918D01*
X-100857Y-53085D01*
X-98357D01*
X-103356Y-58083D02*
X-105022D01*
X-104189D01*
Y-53085D01*
X-103356Y-53918D01*
X27000Y100998D02*
Y96000D01*
X23668D01*
X18669Y100998D02*
X20336Y100165D01*
X22002Y98499D01*
Y96833D01*
X21169Y96000D01*
X19503D01*
X18669Y96833D01*
Y97666D01*
X19503Y98499D01*
X22002D01*
X-92332Y34998D02*
X-90666D01*
X-91499D01*
Y30833D01*
X-90666Y30000D01*
X-89833D01*
X-89000Y30833D01*
X-93998Y34998D02*
X-97331D01*
Y34165D01*
X-93998Y30833D01*
Y30000D01*
X-239782Y-85501D02*
X-236450D01*
Y-88001D01*
X-238116D01*
X-236450D01*
Y-90500D01*
X-241448Y-85501D02*
Y-90500D01*
X-243948D01*
X-244781Y-89667D01*
Y-88834D01*
X-243948Y-88001D01*
X-241448D01*
X-243948D01*
X-244781Y-87168D01*
Y-86334D01*
X-243948Y-85501D01*
X-241448D01*
X-246447Y-90500D02*
X-248113D01*
X-247280D01*
Y-85501D01*
X-246447Y-86334D01*
X-250612D02*
X-251445Y-85501D01*
X-253111D01*
X-253944Y-86334D01*
Y-89667D01*
X-253111Y-90500D01*
X-251445D01*
X-250612Y-89667D01*
Y-86334D01*
X-249838Y-128002D02*
X-246506D01*
Y-130501D01*
X-248172D01*
X-246506D01*
Y-133000D01*
X-251504Y-128002D02*
Y-133000D01*
X-254003D01*
X-254836Y-132167D01*
Y-131334D01*
X-254003Y-130501D01*
X-251504D01*
X-254003D01*
X-254836Y-129668D01*
Y-128835D01*
X-254003Y-128002D01*
X-251504D01*
X-256503Y-132167D02*
X-257336Y-133000D01*
X-259002D01*
X-259835Y-132167D01*
Y-128835D01*
X-259002Y-128002D01*
X-257336D01*
X-256503Y-128835D01*
Y-129668D01*
X-257336Y-130501D01*
X-259835D01*
X138531Y-17099D02*
X141863D01*
Y-19598D01*
X140197D01*
X141863D01*
Y-22097D01*
X136865Y-17099D02*
Y-22097D01*
X134366D01*
X133533Y-21264D01*
Y-20431D01*
X134366Y-19598D01*
X136865D01*
X134366D01*
X133533Y-18765D01*
Y-17932D01*
X134366Y-17099D01*
X136865D01*
X129368Y-22097D02*
Y-17099D01*
X131867Y-19598D01*
X128534D01*
X61668Y93165D02*
X62501Y93998D01*
X64167D01*
X65000Y93165D01*
Y89833D01*
X64167Y89000D01*
X62501D01*
X61668Y89833D01*
X60002Y93165D02*
X59169Y93998D01*
X57502D01*
X56669Y93165D01*
Y92332D01*
X57502Y91499D01*
X58335D01*
X57502D01*
X56669Y90666D01*
Y89833D01*
X57502Y89000D01*
X59169D01*
X60002Y89833D01*
X55003Y93165D02*
X54170Y93998D01*
X52504D01*
X51671Y93165D01*
Y92332D01*
X52504Y91499D01*
X51671Y90666D01*
Y89833D01*
X52504Y89000D01*
X54170D01*
X55003Y89833D01*
Y90666D01*
X54170Y91499D01*
X55003Y92332D01*
Y93165D01*
X54170Y91499D02*
X52504D01*
X72668Y156165D02*
X73501Y156998D01*
X75167D01*
X76000Y156165D01*
Y152833D01*
X75167Y152000D01*
X73501D01*
X72668Y152833D01*
X67669Y152000D02*
X71002D01*
X67669Y155332D01*
Y156165D01*
X68502Y156998D01*
X70169D01*
X71002Y156165D01*
X66003D02*
X65170Y156998D01*
X63504D01*
X62671Y156165D01*
Y155332D01*
X63504Y154499D01*
X62671Y153666D01*
Y152833D01*
X63504Y152000D01*
X65170D01*
X66003Y152833D01*
Y153666D01*
X65170Y154499D01*
X66003Y155332D01*
Y156165D01*
X65170Y154499D02*
X63504D01*
X-88835Y-161668D02*
X-88002Y-162501D01*
Y-164167D01*
X-88835Y-165000D01*
X-92167D01*
X-93000Y-164167D01*
Y-162501D01*
X-92167Y-161668D01*
X-93000Y-160002D02*
Y-158336D01*
Y-159169D01*
X-88002D01*
X-88835Y-160002D01*
X-93000Y-155836D02*
Y-154170D01*
Y-155003D01*
X-88002D01*
X-88835Y-155836D01*
X-45962Y120165D02*
X-45129Y120998D01*
X-43463D01*
X-42629Y120165D01*
Y116833D01*
X-43463Y116000D01*
X-45129D01*
X-45962Y116833D01*
X-50960Y120998D02*
X-47628D01*
Y118499D01*
X-49294Y119332D01*
X-50127D01*
X-50960Y118499D01*
Y116833D01*
X-50127Y116000D01*
X-48461D01*
X-47628Y116833D01*
X153000Y178000D02*
Y182998D01*
X150501D01*
X149668Y182165D01*
Y180499D01*
X150501Y179666D01*
X153000D01*
X151334D02*
X149668Y178000D01*
X148002D02*
X146335D01*
X147169D01*
Y182998D01*
X148002Y182165D01*
X140504Y182998D02*
X143836D01*
Y180499D01*
X142170Y181332D01*
X141337D01*
X140504Y180499D01*
Y178833D01*
X141337Y178000D01*
X143003D01*
X143836Y178833D01*
X-113000Y114998D02*
Y110000D01*
X-116332D01*
X-117998D02*
X-119664D01*
X-118831D01*
Y114998D01*
X-117998Y114165D01*
X-170300Y50151D02*
Y55149D01*
X-172799D01*
X-173632Y54316D01*
Y52650D01*
X-172799Y51817D01*
X-170300D01*
X-171966D02*
X-173632Y50151D01*
X-175299Y55149D02*
X-178631D01*
Y54316D01*
X-175299Y50984D01*
Y50151D01*
X-180297Y54316D02*
X-181130Y55149D01*
X-182796D01*
X-183629Y54316D01*
Y50984D01*
X-182796Y50151D01*
X-181130D01*
X-180297Y50984D01*
Y54316D01*
X185000Y29000D02*
X189998D01*
Y31499D01*
X189165Y32332D01*
X187499D01*
X186666Y31499D01*
Y29000D01*
Y30666D02*
X185000Y32332D01*
X189165Y33998D02*
X189998Y34831D01*
Y36497D01*
X189165Y37331D01*
X188332D01*
X187499Y36497D01*
Y35665D01*
Y36497D01*
X186666Y37331D01*
X185833D01*
X185000Y36497D01*
Y34831D01*
X185833Y33998D01*
X189165Y38997D02*
X189998Y39830D01*
Y41496D01*
X189165Y42329D01*
X188332D01*
X187499Y41496D01*
X186666Y42329D01*
X185833D01*
X185000Y41496D01*
Y39830D01*
X185833Y38997D01*
X186666D01*
X187499Y39830D01*
X188332Y38997D01*
X189165D01*
X187499Y39830D02*
Y41496D01*
X197000Y29000D02*
X201998D01*
Y31499D01*
X201165Y32332D01*
X199499D01*
X198666Y31499D01*
Y29000D01*
Y30666D02*
X197000Y32332D01*
X201165Y33998D02*
X201998Y34831D01*
Y36497D01*
X201165Y37331D01*
X200332D01*
X199499Y36497D01*
Y35665D01*
Y36497D01*
X198666Y37331D01*
X197833D01*
X197000Y36497D01*
Y34831D01*
X197833Y33998D01*
X201998Y42329D02*
X201165Y40663D01*
X199499Y38997D01*
X197833D01*
X197000Y39830D01*
Y41496D01*
X197833Y42329D01*
X198666D01*
X199499Y41496D01*
Y38997D01*
X295040Y-15430D02*
Y-10432D01*
X292540D01*
X291707Y-11265D01*
Y-12931D01*
X292540Y-13764D01*
X295040D01*
X293373D02*
X291707Y-15430D01*
X290041Y-11265D02*
X289208Y-10432D01*
X287542D01*
X286709Y-11265D01*
Y-12098D01*
X287542Y-12931D01*
X288375D01*
X287542D01*
X286709Y-13764D01*
Y-14597D01*
X287542Y-15430D01*
X289208D01*
X290041Y-14597D01*
X285043Y-15430D02*
X283377D01*
X284210D01*
Y-10432D01*
X285043Y-11265D01*
X296252Y-30666D02*
Y-25667D01*
X293753D01*
X292920Y-26500D01*
Y-28166D01*
X293753Y-29000D01*
X296252D01*
X294586D02*
X292920Y-30666D01*
X287921D02*
X291254D01*
X287921Y-27333D01*
Y-26500D01*
X288754Y-25667D01*
X290420D01*
X291254Y-26500D01*
X286255Y-29832D02*
X285422Y-30666D01*
X283756D01*
X282923Y-29832D01*
Y-26500D01*
X283756Y-25667D01*
X285422D01*
X286255Y-26500D01*
Y-27333D01*
X285422Y-28166D01*
X282923D01*
X233460Y6620D02*
X238458D01*
Y9119D01*
X237625Y9952D01*
X235959D01*
X235126Y9119D01*
Y6620D01*
Y8286D02*
X233460Y9952D01*
X237625Y11618D02*
X238458Y12451D01*
Y14117D01*
X237625Y14950D01*
X236792D01*
X235959Y14117D01*
Y13284D01*
Y14117D01*
X235126Y14950D01*
X234293D01*
X233460Y14117D01*
Y12451D01*
X234293Y11618D01*
X237625Y16617D02*
X238458Y17450D01*
Y19116D01*
X237625Y19949D01*
X234293D01*
X233460Y19116D01*
Y17450D01*
X234293Y16617D01*
X237625D01*
X230689Y-136781D02*
X232355D01*
X231522D01*
Y-140946D01*
X232355Y-141779D01*
X233188D01*
X234021Y-140946D01*
X225691Y-136781D02*
X229023D01*
Y-139280D01*
X227357Y-138447D01*
X226524D01*
X225691Y-139280D01*
Y-140946D01*
X226524Y-141779D01*
X228190D01*
X229023Y-140946D01*
X-165399Y-102532D02*
Y-107531D01*
X-167898D01*
X-168731Y-106698D01*
Y-105865D01*
X-167898Y-105032D01*
X-165399D01*
X-167898D01*
X-168731Y-104199D01*
Y-103365D01*
X-167898Y-102532D01*
X-165399D01*
X-170397Y-107531D02*
Y-104199D01*
X-172063Y-102532D01*
X-173729Y-104199D01*
Y-107531D01*
Y-105032D01*
X-170397D01*
X-175396Y-102532D02*
X-178728D01*
X-177062D01*
Y-107531D01*
X-180394D02*
X-182060D01*
X-181227D01*
Y-102532D01*
X-180394Y-103365D01*
X140091Y-169609D02*
X135093D01*
Y-167110D01*
X135926Y-166277D01*
X136759D01*
X137592Y-167110D01*
Y-169609D01*
Y-167110D01*
X138425Y-166277D01*
X139258D01*
X140091Y-167110D01*
Y-169609D01*
X139258Y-161279D02*
X140091Y-162112D01*
Y-163778D01*
X139258Y-164611D01*
X135926D01*
X135093Y-163778D01*
Y-162112D01*
X135926Y-161279D01*
X135093Y-159613D02*
Y-157947D01*
Y-158780D01*
X140091D01*
X139258Y-159613D01*
X162192Y-2523D02*
X157194D01*
Y-24D01*
X158027Y809D01*
X158860D01*
X159693Y-24D01*
Y-2523D01*
Y-24D01*
X160526Y809D01*
X161359D01*
X162192Y-24D01*
Y-2523D01*
X161359Y5807D02*
X162192Y4974D01*
Y3308D01*
X161359Y2475D01*
X158027D01*
X157194Y3308D01*
Y4974D01*
X158027Y5807D01*
X157194Y9973D02*
X162192D01*
X159693Y7473D01*
Y10806D01*
X152998Y-3000D02*
X148000D01*
Y-501D01*
X148833Y332D01*
X149666D01*
X150499Y-501D01*
Y-3000D01*
Y-501D01*
X151332Y332D01*
X152165D01*
X152998Y-501D01*
Y-3000D01*
X152165Y5331D02*
X152998Y4498D01*
Y2831D01*
X152165Y1998D01*
X148833D01*
X148000Y2831D01*
Y4498D01*
X148833Y5331D01*
X152998Y10329D02*
Y6997D01*
X150499D01*
X151332Y8663D01*
Y9496D01*
X150499Y10329D01*
X148833D01*
X148000Y9496D01*
Y7830D01*
X148833Y6997D01*
X153181Y-77965D02*
Y-82963D01*
X150682D01*
X149849Y-82130D01*
Y-81297D01*
X150682Y-80464D01*
X153181D01*
X150682D01*
X149849Y-79631D01*
Y-78798D01*
X150682Y-77965D01*
X153181D01*
X144851Y-78798D02*
X145684Y-77965D01*
X147350D01*
X148183Y-78798D01*
Y-82130D01*
X147350Y-82963D01*
X145684D01*
X144851Y-82130D01*
X143185Y-77965D02*
X139852D01*
Y-78798D01*
X143185Y-82130D01*
Y-82963D01*
X201369Y-65576D02*
X196370D01*
Y-63077D01*
X197203Y-62244D01*
X198036D01*
X198869Y-63077D01*
Y-65576D01*
Y-63077D01*
X199702Y-62244D01*
X200536D01*
X201369Y-63077D01*
Y-65576D01*
X200536Y-57246D02*
X201369Y-58079D01*
Y-59745D01*
X200536Y-60578D01*
X197203D01*
X196370Y-59745D01*
Y-58079D01*
X197203Y-57246D01*
X200536Y-55579D02*
X201369Y-54746D01*
Y-53080D01*
X200536Y-52247D01*
X199702D01*
X198869Y-53080D01*
X198036Y-52247D01*
X197203D01*
X196370Y-53080D01*
Y-54746D01*
X197203Y-55579D01*
X198036D01*
X198869Y-54746D01*
X199702Y-55579D01*
X200536D01*
X198869Y-54746D02*
Y-53080D01*
X150998Y-56000D02*
X146000D01*
Y-53501D01*
X146833Y-52668D01*
X147666D01*
X148499Y-53501D01*
Y-56000D01*
Y-53501D01*
X149332Y-52668D01*
X150165D01*
X150998Y-53501D01*
Y-56000D01*
X150165Y-47669D02*
X150998Y-48502D01*
Y-50169D01*
X150165Y-51002D01*
X146833D01*
X146000Y-50169D01*
Y-48502D01*
X146833Y-47669D01*
Y-46003D02*
X146000Y-45170D01*
Y-43504D01*
X146833Y-42671D01*
X150165D01*
X150998Y-43504D01*
Y-45170D01*
X150165Y-46003D01*
X149332D01*
X148499Y-45170D01*
Y-42671D01*
X215791Y27000D02*
X210793D01*
Y29499D01*
X211626Y30332D01*
X212459D01*
X213292Y29499D01*
Y27000D01*
Y29499D01*
X214125Y30332D01*
X214958D01*
X215791Y29499D01*
Y27000D01*
X214958Y35330D02*
X215791Y34497D01*
Y32831D01*
X214958Y31998D01*
X211626D01*
X210793Y32831D01*
Y34497D01*
X211626Y35330D01*
X210793Y36996D02*
Y38663D01*
Y37829D01*
X215791D01*
X214958Y36996D01*
Y41162D02*
X215791Y41995D01*
Y43661D01*
X214958Y44494D01*
X211626D01*
X210793Y43661D01*
Y41995D01*
X211626Y41162D01*
X214958D01*
X195000Y-10002D02*
Y-15000D01*
X192501D01*
X191668Y-14167D01*
Y-13334D01*
X192501Y-12501D01*
X195000D01*
X192501D01*
X191668Y-11668D01*
Y-10835D01*
X192501Y-10002D01*
X195000D01*
X186669Y-10835D02*
X187502Y-10002D01*
X189169D01*
X190002Y-10835D01*
Y-14167D01*
X189169Y-15000D01*
X187502D01*
X186669Y-14167D01*
X185003Y-15000D02*
X183337D01*
X184170D01*
Y-10002D01*
X185003Y-10835D01*
X177506Y-15000D02*
X180838D01*
X177506Y-11668D01*
Y-10835D01*
X178339Y-10002D01*
X180005D01*
X180838Y-10835D01*
X159998Y37000D02*
X155000D01*
Y39499D01*
X155833Y40332D01*
X156666D01*
X157499Y39499D01*
Y37000D01*
Y39499D01*
X158332Y40332D01*
X159165D01*
X159998Y39499D01*
Y37000D01*
X159165Y45331D02*
X159998Y44497D01*
Y42831D01*
X159165Y41998D01*
X155833D01*
X155000Y42831D01*
Y44497D01*
X155833Y45331D01*
X155000Y46997D02*
Y48663D01*
Y47830D01*
X159998D01*
X159165Y46997D01*
Y51162D02*
X159998Y51995D01*
Y53661D01*
X159165Y54494D01*
X158332D01*
X157499Y53661D01*
Y52828D01*
Y53661D01*
X156666Y54494D01*
X155833D01*
X155000Y53661D01*
Y51995D01*
X155833Y51162D01*
X95408Y-62042D02*
X90409D01*
Y-59543D01*
X91243Y-58710D01*
X92076D01*
X92909Y-59543D01*
Y-62042D01*
Y-59543D01*
X93742Y-58710D01*
X94575D01*
X95408Y-59543D01*
Y-62042D01*
X94575Y-53711D02*
X95408Y-54544D01*
Y-56210D01*
X94575Y-57043D01*
X91243D01*
X90409Y-56210D01*
Y-54544D01*
X91243Y-53711D01*
X90409Y-52045D02*
Y-50379D01*
Y-51212D01*
X95408D01*
X94575Y-52045D01*
X90409Y-45381D02*
X95408D01*
X92909Y-47880D01*
Y-44548D01*
X158998Y-56000D02*
X154000D01*
Y-53501D01*
X154833Y-52668D01*
X155666D01*
X156499Y-53501D01*
Y-56000D01*
Y-53501D01*
X157332Y-52668D01*
X158165D01*
X158998Y-53501D01*
Y-56000D01*
X158165Y-47669D02*
X158998Y-48502D01*
Y-50169D01*
X158165Y-51002D01*
X154833D01*
X154000Y-50169D01*
Y-48502D01*
X154833Y-47669D01*
X154000Y-46003D02*
Y-44337D01*
Y-45170D01*
X158998D01*
X158165Y-46003D01*
X158998Y-38506D02*
Y-41838D01*
X156499D01*
X157332Y-40172D01*
Y-39339D01*
X156499Y-38506D01*
X154833D01*
X154000Y-39339D01*
Y-41005D01*
X154833Y-41838D01*
X172998Y-57000D02*
X168000D01*
Y-54501D01*
X168833Y-53668D01*
X169666D01*
X170499Y-54501D01*
Y-57000D01*
Y-54501D01*
X171332Y-53668D01*
X172165D01*
X172998Y-54501D01*
Y-57000D01*
X172165Y-48669D02*
X172998Y-49502D01*
Y-51169D01*
X172165Y-52002D01*
X168833D01*
X168000Y-51169D01*
Y-49502D01*
X168833Y-48669D01*
X168000Y-47003D02*
Y-45337D01*
Y-46170D01*
X172998D01*
X172165Y-47003D01*
X172998Y-39506D02*
X172165Y-41172D01*
X170499Y-42838D01*
X168833D01*
X168000Y-42005D01*
Y-40339D01*
X168833Y-39506D01*
X169666D01*
X170499Y-40339D01*
Y-42838D01*
X63736Y-41002D02*
Y-46000D01*
X61237D01*
X60404Y-45167D01*
Y-44334D01*
X61237Y-43501D01*
X63736D01*
X61237D01*
X60404Y-42668D01*
Y-41835D01*
X61237Y-41002D01*
X63736D01*
X55406Y-41835D02*
X56239Y-41002D01*
X57905D01*
X58738Y-41835D01*
Y-45167D01*
X57905Y-46000D01*
X56239D01*
X55406Y-45167D01*
X53740Y-46000D02*
X52074D01*
X52907D01*
Y-41002D01*
X53740Y-41835D01*
X49574D02*
X48741Y-41002D01*
X47075D01*
X46242Y-41835D01*
Y-42668D01*
X47075Y-43501D01*
X46242Y-44334D01*
Y-45167D01*
X47075Y-46000D01*
X48741D01*
X49574Y-45167D01*
Y-44334D01*
X48741Y-43501D01*
X49574Y-42668D01*
Y-41835D01*
X48741Y-43501D02*
X47075D01*
X42551Y63567D02*
Y58569D01*
X40051D01*
X39218Y59402D01*
Y60235D01*
X40051Y61068D01*
X42551D01*
X40051D01*
X39218Y61901D01*
Y62734D01*
X40051Y63567D01*
X42551D01*
X34220Y62734D02*
X35053Y63567D01*
X36719D01*
X37552Y62734D01*
Y59402D01*
X36719Y58569D01*
X35053D01*
X34220Y59402D01*
X29222Y58569D02*
X32554D01*
X29222Y61901D01*
Y62734D01*
X30055Y63567D01*
X31721D01*
X32554Y62734D01*
X27555D02*
X26722Y63567D01*
X25056D01*
X24223Y62734D01*
Y59402D01*
X25056Y58569D01*
X26722D01*
X27555Y59402D01*
Y62734D01*
X62998Y-67000D02*
X58000D01*
Y-64501D01*
X58833Y-63668D01*
X59666D01*
X60499Y-64501D01*
Y-67000D01*
Y-64501D01*
X61332Y-63668D01*
X62165D01*
X62998Y-64501D01*
Y-67000D01*
X62165Y-58669D02*
X62998Y-59502D01*
Y-61169D01*
X62165Y-62002D01*
X58833D01*
X58000Y-61169D01*
Y-59502D01*
X58833Y-58669D01*
X58000Y-53671D02*
Y-57003D01*
X61332Y-53671D01*
X62165D01*
X62998Y-54504D01*
Y-56170D01*
X62165Y-57003D01*
X62998Y-48673D02*
Y-52005D01*
X60499D01*
X61332Y-50339D01*
Y-49506D01*
X60499Y-48673D01*
X58833D01*
X58000Y-49506D01*
Y-51172D01*
X58833Y-52005D01*
X208668Y74165D02*
X209501Y74998D01*
X211167D01*
X212000Y74165D01*
Y70833D01*
X211167Y70000D01*
X209501D01*
X208668Y70833D01*
X207002Y70000D02*
X205336D01*
X206169D01*
Y74998D01*
X207002Y74165D01*
X246516Y88832D02*
X247349Y87999D01*
Y86333D01*
X246516Y85500D01*
X243184D01*
X242351Y86333D01*
Y87999D01*
X243184Y88832D01*
X242351Y93831D02*
Y90498D01*
X245683Y93831D01*
X246516D01*
X247349Y92998D01*
Y91331D01*
X246516Y90498D01*
X-165332Y174165D02*
X-164499Y174998D01*
X-162833D01*
X-162000Y174165D01*
Y170833D01*
X-162833Y170000D01*
X-164499D01*
X-165332Y170833D01*
X-166998Y174165D02*
X-167831Y174998D01*
X-169498D01*
X-170331Y174165D01*
Y173332D01*
X-169498Y172499D01*
X-168664D01*
X-169498D01*
X-170331Y171666D01*
Y170833D01*
X-169498Y170000D01*
X-167831D01*
X-166998Y170833D01*
X-22332Y120135D02*
X-21499Y120968D01*
X-19833D01*
X-19000Y120135D01*
Y116803D01*
X-19833Y115970D01*
X-21499D01*
X-22332Y116803D01*
X-26497Y115970D02*
Y120968D01*
X-23998Y118469D01*
X-27331D01*
X146858Y150435D02*
X147691Y151268D01*
X149357D01*
X150190Y150435D01*
Y147103D01*
X149357Y146270D01*
X147691D01*
X146858Y147103D01*
X141859Y151268D02*
X143525Y150435D01*
X145192Y148769D01*
Y147103D01*
X144359Y146270D01*
X142692D01*
X141859Y147103D01*
Y147936D01*
X142692Y148769D01*
X145192D01*
X161259Y99938D02*
X162092Y100771D01*
X163758D01*
X164592Y99938D01*
Y96606D01*
X163758Y95773D01*
X162092D01*
X161259Y96606D01*
X159593Y100771D02*
X156261D01*
Y99938D01*
X159593Y96606D01*
Y95773D01*
X-176332Y98165D02*
X-175499Y98998D01*
X-173833D01*
X-173000Y98165D01*
Y94833D01*
X-173833Y94000D01*
X-175499D01*
X-176332Y94833D01*
X-177998Y98165D02*
X-178831Y98998D01*
X-180498D01*
X-181331Y98165D01*
Y97332D01*
X-180498Y96499D01*
X-181331Y95666D01*
Y94833D01*
X-180498Y94000D01*
X-178831D01*
X-177998Y94833D01*
Y95666D01*
X-178831Y96499D01*
X-177998Y97332D01*
Y98165D01*
X-178831Y96499D02*
X-180498D01*
X-229835Y178332D02*
X-229002Y177499D01*
Y175833D01*
X-229835Y175000D01*
X-233167D01*
X-234000Y175833D01*
Y177499D01*
X-233167Y178332D01*
Y179998D02*
X-234000Y180831D01*
Y182498D01*
X-233167Y183331D01*
X-229835D01*
X-229002Y182498D01*
Y180831D01*
X-229835Y179998D01*
X-230668D01*
X-231501Y180831D01*
Y183331D01*
X-240495Y148771D02*
X-239662Y149604D01*
X-237996D01*
X-237163Y148771D01*
Y145439D01*
X-237996Y144606D01*
X-239662D01*
X-240495Y145439D01*
X-242161Y144606D02*
X-243827D01*
X-242994D01*
Y149604D01*
X-242161Y148771D01*
X-246326D02*
X-247159Y149604D01*
X-248825D01*
X-249659Y148771D01*
Y145439D01*
X-248825Y144606D01*
X-247159D01*
X-246326Y145439D01*
Y148771D01*
X51165Y-60668D02*
X51998Y-61501D01*
Y-63167D01*
X51165Y-64000D01*
X47833D01*
X47000Y-63167D01*
Y-61501D01*
X47833Y-60668D01*
X47000Y-55669D02*
Y-59002D01*
X50332Y-55669D01*
X51165D01*
X51998Y-56502D01*
Y-58169D01*
X51165Y-59002D01*
X47000Y-51504D02*
X51998D01*
X49499Y-54003D01*
Y-50671D01*
X-75000Y-93002D02*
Y-98000D01*
X-77499D01*
X-78332Y-97167D01*
Y-93835D01*
X-77499Y-93002D01*
X-75000D01*
X-83331Y-98000D02*
X-79998D01*
X-83331Y-94668D01*
Y-93835D01*
X-82498Y-93002D01*
X-80831D01*
X-79998Y-93835D01*
X178000Y149998D02*
Y145000D01*
X175501D01*
X174668Y145833D01*
Y149165D01*
X175501Y149998D01*
X178000D01*
X173002Y149165D02*
X172169Y149998D01*
X170502D01*
X169669Y149165D01*
Y148332D01*
X170502Y147499D01*
X171336D01*
X170502D01*
X169669Y146666D01*
Y145833D01*
X170502Y145000D01*
X172169D01*
X173002Y145833D01*
X150603Y-119324D02*
X153936D01*
Y-121824D01*
X152269D01*
X153936D01*
Y-124323D01*
X148937Y-119324D02*
Y-124323D01*
X146438D01*
X145605Y-123490D01*
Y-122657D01*
X146438Y-121824D01*
X148937D01*
X146438D01*
X145605Y-120990D01*
Y-120157D01*
X146438Y-119324D01*
X148937D01*
X140607Y-124323D02*
X143939D01*
X140607Y-120990D01*
Y-120157D01*
X141440Y-119324D01*
X143106D01*
X143939Y-120157D01*
X173998Y35332D02*
Y32000D01*
X171499D01*
Y33666D01*
Y32000D01*
X169000D01*
X173998Y36998D02*
X169000D01*
Y39498D01*
X169833Y40331D01*
X170666D01*
X171499Y39498D01*
Y36998D01*
Y39498D01*
X172332Y40331D01*
X173165D01*
X173998Y39498D01*
Y36998D01*
X173165Y41997D02*
X173998Y42830D01*
Y44496D01*
X173165Y45329D01*
X172332D01*
X171499Y44496D01*
Y43663D01*
Y44496D01*
X170666Y45329D01*
X169833D01*
X169000Y44496D01*
Y42830D01*
X169833Y41997D01*
X-34002Y-196751D02*
Y-198417D01*
Y-197584D01*
X-38167D01*
X-39000Y-198417D01*
Y-199251D01*
X-38167Y-200084D01*
X-34835Y-195085D02*
X-34002Y-194252D01*
Y-192586D01*
X-34835Y-191753D01*
X-35668D01*
X-36501Y-192586D01*
Y-193419D01*
Y-192586D01*
X-37334Y-191753D01*
X-38167D01*
X-39000Y-192586D01*
Y-194252D01*
X-38167Y-195085D01*
X216668Y153998D02*
X218334D01*
X217501D01*
Y149833D01*
X218334Y149000D01*
X219167D01*
X220000Y149833D01*
X212502Y149000D02*
Y153998D01*
X215002Y151499D01*
X211669D01*
X98000Y102544D02*
Y97546D01*
X94668D01*
X89669D02*
X93002D01*
X89669Y100878D01*
Y101711D01*
X90502Y102544D01*
X92169D01*
X93002Y101711D01*
X198000Y94000D02*
Y98998D01*
X195501D01*
X194668Y98165D01*
Y96499D01*
X195501Y95666D01*
X198000D01*
X196334D02*
X194668Y94000D01*
X189669Y98998D02*
X191336Y98165D01*
X193002Y96499D01*
Y94833D01*
X192169Y94000D01*
X190502D01*
X189669Y94833D01*
Y95666D01*
X190502Y96499D01*
X193002D01*
X221000Y93000D02*
Y97998D01*
X218501D01*
X217668Y97165D01*
Y95499D01*
X218501Y94666D01*
X221000D01*
X219334D02*
X217668Y93000D01*
X216002Y97998D02*
X212669D01*
Y97165D01*
X216002Y93833D01*
Y93000D01*
X-174000Y174000D02*
Y178998D01*
X-176499D01*
X-177332Y178165D01*
Y176499D01*
X-176499Y175666D01*
X-174000D01*
X-175666D02*
X-177332Y174000D01*
X-178998D02*
X-180665D01*
X-179831D01*
Y178998D01*
X-178998Y178165D01*
X-183164Y174000D02*
X-184830D01*
X-183997D01*
Y178998D01*
X-183164Y178165D01*
X-198000Y95000D02*
Y99998D01*
X-200499D01*
X-201332Y99165D01*
Y97499D01*
X-200499Y96666D01*
X-198000D01*
X-199666D02*
X-201332Y95000D01*
X-202998D02*
X-204664D01*
X-203831D01*
Y99998D01*
X-202998Y99165D01*
X-210496Y95000D02*
X-207164D01*
X-210496Y98332D01*
Y99165D01*
X-209663Y99998D01*
X-207997D01*
X-207164Y99165D01*
X-254842Y123770D02*
X-259840D01*
Y121271D01*
X-259007Y120437D01*
X-257341D01*
X-256508Y121271D01*
Y123770D01*
Y122104D02*
X-254842Y120437D01*
Y118771D02*
Y117105D01*
Y117938D01*
X-259840D01*
X-259007Y118771D01*
X-259840Y111274D02*
X-259007Y112940D01*
X-257341Y114606D01*
X-255675D01*
X-254842Y113773D01*
Y112107D01*
X-255675Y111274D01*
X-256508D01*
X-257341Y112107D01*
Y114606D01*
X255000Y-81000D02*
Y-76002D01*
X252501D01*
X251668Y-76835D01*
Y-78501D01*
X252501Y-79334D01*
X255000D01*
X253334D02*
X251668Y-81000D01*
X246669D02*
X250002D01*
X246669Y-77668D01*
Y-76835D01*
X247502Y-76002D01*
X249169D01*
X250002Y-76835D01*
X245003Y-76002D02*
X241671D01*
Y-76835D01*
X245003Y-80167D01*
Y-81000D01*
X236000Y-60000D02*
Y-55002D01*
X233501D01*
X232668Y-55835D01*
Y-57501D01*
X233501Y-58334D01*
X236000D01*
X234334D02*
X232668Y-60000D01*
X227669D02*
X231002D01*
X227669Y-56668D01*
Y-55835D01*
X228503Y-55002D01*
X230169D01*
X231002Y-55835D01*
X226003D02*
X225170Y-55002D01*
X223504D01*
X222671Y-55835D01*
Y-56668D01*
X223504Y-57501D01*
X222671Y-58334D01*
Y-59167D01*
X223504Y-60000D01*
X225170D01*
X226003Y-59167D01*
Y-58334D01*
X225170Y-57501D01*
X226003Y-56668D01*
Y-55835D01*
X225170Y-57501D02*
X223504D01*
X203000Y-124000D02*
Y-119002D01*
X200501D01*
X199668Y-119835D01*
Y-121501D01*
X200501Y-122334D01*
X203000D01*
X201334D02*
X199668Y-124000D01*
X195502D02*
Y-119002D01*
X198002Y-121501D01*
X194669D01*
X193003Y-124000D02*
X191337D01*
X192170D01*
Y-119002D01*
X193003Y-119835D01*
X221558Y6620D02*
X226557D01*
Y9119D01*
X225724Y9952D01*
X224057D01*
X223224Y9119D01*
Y6620D01*
Y8286D02*
X221558Y9952D01*
Y14117D02*
X226557D01*
X224057Y11618D01*
Y14950D01*
X221558Y19949D02*
Y16617D01*
X224890Y19949D01*
X225724D01*
X226557Y19116D01*
Y17450D01*
X225724Y16617D01*
X206000Y-74000D02*
Y-69002D01*
X203501D01*
X202668Y-69835D01*
Y-71501D01*
X203501Y-72334D01*
X206000D01*
X204334D02*
X202668Y-74000D01*
X198502D02*
Y-69002D01*
X201002Y-71501D01*
X197669D01*
X193504Y-74000D02*
Y-69002D01*
X196003Y-71501D01*
X192671D01*
X179000Y-102000D02*
X183998D01*
Y-99501D01*
X183165Y-98668D01*
X181499D01*
X180666Y-99501D01*
Y-102000D01*
Y-100334D02*
X179000Y-98668D01*
Y-94502D02*
X183998D01*
X181499Y-97002D01*
Y-93669D01*
X183998Y-88671D02*
X183165Y-90337D01*
X181499Y-92003D01*
X179833D01*
X179000Y-91170D01*
Y-89504D01*
X179833Y-88671D01*
X180666D01*
X181499Y-89504D01*
Y-92003D01*
X90042Y-104760D02*
Y-99762D01*
X87543D01*
X86710Y-100595D01*
Y-102261D01*
X87543Y-103094D01*
X90042D01*
X88376D02*
X86710Y-104760D01*
X82545D02*
Y-99762D01*
X85044Y-102261D01*
X81712D01*
X80046Y-103927D02*
X79213Y-104760D01*
X77547D01*
X76713Y-103927D01*
Y-100595D01*
X77547Y-99762D01*
X79213D01*
X80046Y-100595D01*
Y-101428D01*
X79213Y-102261D01*
X76713D01*
X-50000Y-44000D02*
Y-39002D01*
X-52499D01*
X-53332Y-39835D01*
Y-41501D01*
X-52499Y-42334D01*
X-50000D01*
X-51666D02*
X-53332Y-44000D01*
X-58331Y-39002D02*
X-54998D01*
Y-41501D01*
X-56665Y-40668D01*
X-57498D01*
X-58331Y-41501D01*
Y-43167D01*
X-57498Y-44000D01*
X-55831D01*
X-54998Y-43167D01*
X-63329Y-39002D02*
X-59997D01*
Y-41501D01*
X-61663Y-40668D01*
X-62496D01*
X-63329Y-41501D01*
Y-43167D01*
X-62496Y-44000D01*
X-60830D01*
X-59997Y-43167D01*
X-209955Y-57610D02*
Y-52611D01*
X-212454D01*
X-213287Y-53444D01*
Y-55110D01*
X-212454Y-55943D01*
X-209955D01*
X-211621D02*
X-213287Y-57610D01*
X-218286Y-52611D02*
X-216619Y-53444D01*
X-214953Y-55110D01*
Y-56776D01*
X-215786Y-57610D01*
X-217453D01*
X-218286Y-56776D01*
Y-55943D01*
X-217453Y-55110D01*
X-214953D01*
X-223284Y-52611D02*
X-221618Y-53444D01*
X-219952Y-55110D01*
Y-56776D01*
X-220785Y-57610D01*
X-222451D01*
X-223284Y-56776D01*
Y-55943D01*
X-222451Y-55110D01*
X-219952D01*
X-171331Y39411D02*
Y44409D01*
X-173830D01*
X-174663Y43576D01*
Y41910D01*
X-173830Y41077D01*
X-171331D01*
X-172997D02*
X-174663Y39411D01*
X-176329Y44409D02*
X-179661D01*
Y43576D01*
X-176329Y40244D01*
Y39411D01*
X-181327D02*
X-182994D01*
X-182161D01*
Y44409D01*
X-181327Y43576D01*
X-171331Y28099D02*
Y33098D01*
X-173830D01*
X-174663Y32265D01*
Y30598D01*
X-173830Y29765D01*
X-171331D01*
X-172997D02*
X-174663Y28099D01*
X-176329Y33098D02*
X-179661D01*
Y32265D01*
X-176329Y28932D01*
Y28099D01*
X-184660D02*
X-181327D01*
X-184660Y31432D01*
Y32265D01*
X-183827Y33098D01*
X-182161D01*
X-181327Y32265D01*
X-171331Y-41040D02*
Y-36042D01*
X-173830D01*
X-174663Y-36875D01*
Y-38541D01*
X-173830Y-39374D01*
X-171331D01*
X-172997D02*
X-174663Y-41040D01*
X-176329Y-36042D02*
X-179661D01*
Y-36875D01*
X-176329Y-40207D01*
Y-41040D01*
X-181327Y-36875D02*
X-182161Y-36042D01*
X-183827D01*
X-184660Y-36875D01*
Y-37708D01*
X-183827Y-38541D01*
X-182994D01*
X-183827D01*
X-184660Y-39374D01*
Y-40207D01*
X-183827Y-41040D01*
X-182161D01*
X-181327Y-40207D01*
X-171331Y16745D02*
Y21743D01*
X-173830D01*
X-174663Y20910D01*
Y19244D01*
X-173830Y18411D01*
X-171331D01*
X-172997D02*
X-174663Y16745D01*
X-176329Y21743D02*
X-179661D01*
Y20910D01*
X-176329Y17578D01*
Y16745D01*
X-183827D02*
Y21743D01*
X-181327Y19244D01*
X-184660D01*
X-171000Y-16899D02*
Y-11901D01*
X-173499D01*
X-174332Y-12734D01*
Y-14400D01*
X-173499Y-15233D01*
X-171000D01*
X-172666D02*
X-174332Y-16899D01*
X-175998Y-11901D02*
X-179331D01*
Y-12734D01*
X-175998Y-16066D01*
Y-16899D01*
X-184329Y-11901D02*
X-180997D01*
Y-14400D01*
X-182663Y-13567D01*
X-183496D01*
X-184329Y-14400D01*
Y-16066D01*
X-183496Y-16899D01*
X-181830D01*
X-180997Y-16066D01*
X253668Y127165D02*
X254501Y127998D01*
X256167D01*
X257000Y127165D01*
Y126332D01*
X256167Y125499D01*
X254501D01*
X253668Y124666D01*
Y123833D01*
X254501Y123000D01*
X256167D01*
X257000Y123833D01*
X252002Y127998D02*
Y123000D01*
X250336Y124666D01*
X248669Y123000D01*
Y127998D01*
X247003Y123000D02*
X245337D01*
X246170D01*
Y127998D01*
X247003Y127165D01*
X-280713Y-115123D02*
X-284045D01*
X-282379D01*
Y-120122D01*
X-285711D02*
Y-115123D01*
X-288210D01*
X-289044Y-115956D01*
Y-117622D01*
X-288210Y-118456D01*
X-285711D01*
X-290710Y-120122D02*
X-292376D01*
X-291543D01*
Y-115123D01*
X-290710Y-115956D01*
X-267163Y-74002D02*
X-270495D01*
X-268829D01*
Y-79000D01*
X-272161D02*
Y-74002D01*
X-274660D01*
X-275494Y-74835D01*
Y-76501D01*
X-274660Y-77334D01*
X-272161D01*
X-280492Y-79000D02*
X-277160D01*
X-280492Y-75668D01*
Y-74835D01*
X-279659Y-74002D01*
X-277993D01*
X-277160Y-74835D01*
X284000Y-89002D02*
X280668D01*
X282334D01*
Y-94000D01*
X279002D02*
Y-89002D01*
X276502D01*
X275669Y-89835D01*
Y-91501D01*
X276502Y-92334D01*
X279002D01*
X274003Y-89835D02*
X273170Y-89002D01*
X271504D01*
X270671Y-89835D01*
Y-90668D01*
X271504Y-91501D01*
X272337D01*
X271504D01*
X270671Y-92334D01*
Y-93167D01*
X271504Y-94000D01*
X273170D01*
X274003Y-93167D01*
X-207500Y-83002D02*
X-210832D01*
X-209166D01*
Y-88000D01*
X-212498D02*
Y-83002D01*
X-214997D01*
X-215830Y-83835D01*
Y-85501D01*
X-214997Y-86334D01*
X-212498D01*
X-219996Y-88000D02*
Y-83002D01*
X-217496Y-85501D01*
X-220829D01*
X119668Y-22002D02*
X123000D01*
Y-24501D01*
X121334D01*
X123000D01*
Y-27000D01*
X118002Y-22002D02*
Y-27000D01*
X115503D01*
X114669Y-26167D01*
Y-25334D01*
X115503Y-24501D01*
X118002D01*
X115503D01*
X114669Y-23668D01*
Y-22835D01*
X115503Y-22002D01*
X118002D01*
X113003Y-27000D02*
X111337D01*
X112170D01*
Y-22002D01*
X113003Y-22835D01*
X108838Y-27000D02*
X107172D01*
X108005D01*
Y-22002D01*
X108838Y-22835D01*
X251000Y-95002D02*
Y-99167D01*
X250167Y-100000D01*
X248501D01*
X247668Y-99167D01*
Y-95002D01*
X246002Y-100000D02*
X244335D01*
X245169D01*
Y-95002D01*
X246002Y-95835D01*
X241836Y-99167D02*
X241003Y-100000D01*
X239337D01*
X238504Y-99167D01*
Y-95835D01*
X239337Y-95002D01*
X241003D01*
X241836Y-95835D01*
Y-96668D01*
X241003Y-97501D01*
X238504D01*
D138*
X-200490Y167740D02*
G03*
X-187790Y167740I6350J0D01*
G01*
X-181440Y116940D02*
Y167740D01*
X-206840Y116940D02*
X-181440D01*
X-206840D02*
Y167740D01*
X-200490D01*
X-187790D02*
X-181440D01*
D139*
X-77000Y-78000D02*
X77000D01*
Y-21000D01*
X-77000Y-78000D02*
Y-21000D01*
Y19000D02*
Y76000D01*
X77000D01*
Y19000D02*
Y76000D01*
D140*
X281100Y98300D02*
X291100D01*
X281100D02*
X291100D01*
X281100D02*
X291100D01*
X281100D02*
X291100D01*
X281200Y68200D02*
X291100D01*
X281200D02*
X291100D01*
X281200D02*
X291100D01*
X281200D02*
X291100D01*
X291200D02*
Y98100D01*
Y68200D02*
Y98100D01*
Y68200D02*
Y98100D01*
Y68200D02*
Y98100D01*
X281000Y60140D02*
Y106380D01*
X257800Y118900D02*
X268480D01*
X257800Y70820D02*
Y96220D01*
D141*
X281100Y98300D02*
X291100D01*
X281100D02*
X291100D01*
X281100D02*
X291100D01*
X281100D02*
X291100D01*
X281200Y68200D02*
X291100D01*
X281200D02*
X291100D01*
X281200D02*
X291100D01*
X281200D02*
X291100D01*
X291200D02*
Y98100D01*
Y68200D02*
Y98100D01*
Y68200D02*
Y98100D01*
Y68200D02*
Y98100D01*
X257800Y47700D02*
Y55580D01*
Y108920D02*
Y118900D01*
Y47700D02*
X268040D01*
D142*
X-1Y-1D02*
D03*
M02*
