G04*
G04 #@! TF.GenerationSoftware,Altium Limited,Altium Designer,20.0.2 (26)*
G04*
G04 Layer_Color=8388736*
%FSLAX44Y44*%
%MOMM*%
G71*
G01*
G75*
%ADD11C,0.2000*%
%ADD17C,0.0254*%
%ADD48R,0.8040X0.7040*%
%ADD49R,0.7040X0.8040*%
%ADD50R,1.0168X1.0168*%
%ADD51R,1.6040X0.8040*%
%ADD52R,1.6040X1.4040*%
%ADD53R,0.9040X1.8040*%
%ADD54R,1.3040X1.6040*%
%ADD55R,1.8040X1.6040*%
%ADD56R,1.4040X2.4040*%
%ADD57R,1.7040X0.6040*%
%ADD58R,1.4040X1.8040*%
%ADD59R,1.6010X1.6010*%
%ADD60R,1.4740X0.7120*%
%ADD61R,1.2200X1.0930*%
%ADD62R,1.0930X1.2200*%
%ADD63P,2.1270X4X90.0*%
%ADD64R,1.0040X1.8040*%
%ADD65R,1.4040X1.6040*%
%ADD66R,0.8040X0.9040*%
%ADD67R,1.2708X1.0168*%
G04:AMPARAMS|DCode=68|XSize=0.424mm|YSize=1.004mm|CornerRadius=0mm|HoleSize=0mm|Usage=FLASHONLY|Rotation=180.000|XOffset=0mm|YOffset=0mm|HoleType=Round|Shape=RoundedRectangle|*
%AMROUNDEDRECTD68*
21,1,0.4240,1.0040,0,0,180.0*
21,1,0.4240,1.0040,0,0,180.0*
1,1,0.0000,-0.2120,0.5020*
1,1,0.0000,0.2120,0.5020*
1,1,0.0000,0.2120,-0.5020*
1,1,0.0000,-0.2120,-0.5020*
%
%ADD68ROUNDEDRECTD68*%
%ADD69R,4.5040X4.5040*%
G04:AMPARAMS|DCode=70|XSize=0.424mm|YSize=1.004mm|CornerRadius=0mm|HoleSize=0mm|Usage=FLASHONLY|Rotation=270.000|XOffset=0mm|YOffset=0mm|HoleType=Round|Shape=RoundedRectangle|*
%AMROUNDEDRECTD70*
21,1,0.4240,1.0040,0,0,270.0*
21,1,0.4240,1.0040,0,0,270.0*
1,1,0.0000,-0.5020,-0.2120*
1,1,0.0000,-0.5020,0.2120*
1,1,0.0000,0.5020,0.2120*
1,1,0.0000,0.5020,-0.2120*
%
%ADD70ROUNDEDRECTD70*%
%ADD71R,0.9640X1.7240*%
%ADD72R,1.8042X1.4994*%
%ADD73R,1.4040X1.4540*%
%ADD74R,2.6040X1.4540*%
%ADD75R,1.0168X1.0168*%
%ADD76R,0.7040X1.3040*%
%ADD77R,2.0040X0.4540*%
%ADD78C,4.6040*%
%ADD79C,0.2040*%
%ADD80C,0.5040*%
%ADD81C,1.7280*%
%ADD82R,1.7280X1.7280*%
G04:AMPARAMS|DCode=83|XSize=4.204mm|YSize=4.204mm|CornerRadius=2.102mm|HoleSize=0mm|Usage=FLASHONLY|Rotation=0.000|XOffset=0mm|YOffset=0mm|HoleType=Round|Shape=RoundedRectangle|*
%AMROUNDEDRECTD83*
21,1,4.2040,0.0000,0,0,0.0*
21,1,0.0000,4.2040,0,0,0.0*
1,1,4.2040,0.0000,0.0000*
1,1,4.2040,0.0000,0.0000*
1,1,4.2040,0.0000,0.0000*
1,1,4.2040,0.0000,0.0000*
%
%ADD83ROUNDEDRECTD83*%
%ADD84C,0.7040*%
D11*
X-290000Y190000D02*
G03*
X-300000Y180000I0J-10000D01*
G01*
Y-180000D02*
G03*
X-290000Y-190000I10000J0D01*
G01*
X299941Y180000D02*
G03*
X289941Y190000I-10000J0D01*
G01*
Y-190000D02*
G03*
X299941Y-180000I0J10000D01*
G01*
X-290000Y190000D02*
X289941Y190000D01*
X-290000Y-190000D02*
X289941Y-190000D01*
X-300000Y-180000D02*
Y180000D01*
X300000Y-180000D02*
Y180000D01*
D17*
X28993Y-154584D02*
X29000D01*
X2493Y-143984D02*
X2500D01*
X27493D02*
X27500D01*
X53993Y-154584D02*
X54000D01*
D48*
X141270Y-165500D02*
D03*
Y-174500D02*
D03*
X5000Y45500D02*
D03*
Y54500D02*
D03*
X25000Y-34500D02*
D03*
Y-25500D02*
D03*
X-61000Y-8500D02*
D03*
Y-17500D02*
D03*
X-23000Y-41500D02*
D03*
Y-32500D02*
D03*
X-11000Y45500D02*
D03*
Y54500D02*
D03*
X-24000Y45500D02*
D03*
Y54500D02*
D03*
X5000Y34500D02*
D03*
Y25500D02*
D03*
X-18000Y-9500D02*
D03*
Y-500D02*
D03*
X82000Y44500D02*
D03*
Y53500D02*
D03*
X70000Y44500D02*
D03*
Y53500D02*
D03*
X9500Y-49230D02*
D03*
Y-40230D02*
D03*
X42000Y-57500D02*
D03*
Y-48500D02*
D03*
X126080Y-157500D02*
D03*
Y-166500D02*
D03*
X114080Y-157500D02*
D03*
Y-166500D02*
D03*
X102080Y-157500D02*
D03*
Y-166500D02*
D03*
X90080Y-157500D02*
D03*
Y-166500D02*
D03*
X7000Y89500D02*
D03*
Y80500D02*
D03*
X144000Y102500D02*
D03*
Y93500D02*
D03*
Y56500D02*
D03*
Y47500D02*
D03*
X105000D02*
D03*
Y56500D02*
D03*
X118356Y-83994D02*
D03*
Y-92994D02*
D03*
X117000Y47500D02*
D03*
Y56500D02*
D03*
X132000Y47500D02*
D03*
Y56500D02*
D03*
X109000Y-65500D02*
D03*
Y-74500D02*
D03*
Y-54500D02*
D03*
Y-45500D02*
D03*
X-230000Y-181500D02*
D03*
Y-172500D02*
D03*
X191428Y-98420D02*
D03*
Y-107420D02*
D03*
X165270Y-155230D02*
D03*
Y-146230D02*
D03*
X153270Y-155230D02*
D03*
Y-146230D02*
D03*
X141270Y-155230D02*
D03*
Y-146230D02*
D03*
X7000Y117500D02*
D03*
Y108500D02*
D03*
X161000Y149500D02*
D03*
Y140500D02*
D03*
D49*
X194500Y-121000D02*
D03*
X185500D02*
D03*
X80500Y-26000D02*
D03*
X71500D02*
D03*
X-196250Y-80000D02*
D03*
X-187250D02*
D03*
X-40500Y14000D02*
D03*
X-31500D02*
D03*
X-40500Y-10000D02*
D03*
X-31500D02*
D03*
X-40500Y2000D02*
D03*
X-31500D02*
D03*
X50500Y36000D02*
D03*
X59500D02*
D03*
X80500Y21000D02*
D03*
X71500D02*
D03*
X53500Y12000D02*
D03*
X62500D02*
D03*
X50875Y24000D02*
D03*
X59875D02*
D03*
X80500Y-14000D02*
D03*
X71500D02*
D03*
X500Y-30000D02*
D03*
X9500D02*
D03*
X-88500Y-33000D02*
D03*
X-97500D02*
D03*
X29500Y-57000D02*
D03*
X20500D02*
D03*
X80500Y0D02*
D03*
X71500D02*
D03*
X9500Y12000D02*
D03*
X500D02*
D03*
X71500Y33000D02*
D03*
X80500D02*
D03*
X500Y0D02*
D03*
X9500D02*
D03*
X500Y-12000D02*
D03*
X9500D02*
D03*
X-21500Y-22000D02*
D03*
X-30500D02*
D03*
X39500Y10000D02*
D03*
X30500D02*
D03*
X39500Y30000D02*
D03*
X30500D02*
D03*
X-196403Y-53866D02*
D03*
X-187403D02*
D03*
X-117500Y-67000D02*
D03*
X-108500D02*
D03*
X-196250D02*
D03*
X-187250D02*
D03*
X-70500Y-93000D02*
D03*
X-79500D02*
D03*
X39500Y-10000D02*
D03*
X30500D02*
D03*
X80953Y-178000D02*
D03*
X71953D02*
D03*
X91500D02*
D03*
X100500D02*
D03*
X-82053D02*
D03*
X-73053D02*
D03*
X-92500D02*
D03*
X-101500D02*
D03*
X201500Y115000D02*
D03*
X210500D02*
D03*
X36500Y72000D02*
D03*
X27500D02*
D03*
X91500Y136000D02*
D03*
X82500D02*
D03*
X-25500Y75000D02*
D03*
X-34500D02*
D03*
D50*
X130000Y101620D02*
D03*
Y86380D02*
D03*
X28000Y85380D02*
D03*
Y100620D02*
D03*
D51*
X-156500Y-163200D02*
D03*
X-93500D02*
D03*
Y-154800D02*
D03*
X-156500D02*
D03*
D52*
X-73000Y-46500D02*
D03*
X-51000D02*
D03*
Y-31500D02*
D03*
X-73000D02*
D03*
D53*
X-50653Y44118D02*
D03*
X-61606D02*
D03*
X-72656D02*
D03*
X-83623D02*
D03*
X-94590D02*
D03*
X-105630D02*
D03*
X-116646D02*
D03*
X-127606D02*
D03*
X-138659D02*
D03*
D54*
X-38596Y49111D02*
D03*
D55*
X-184616Y49201D02*
D03*
D56*
X-38539Y145201D02*
D03*
X-193626Y145198D02*
D03*
D57*
X-230500Y-162000D02*
D03*
Y-155500D02*
D03*
Y-149000D02*
D03*
Y-142500D02*
D03*
X-187500D02*
D03*
Y-149000D02*
D03*
Y-155500D02*
D03*
Y-162000D02*
D03*
D58*
X-78000Y-127000D02*
D03*
X-110000D02*
D03*
D59*
X-167205Y-101000D02*
D03*
X-188795D02*
D03*
D60*
X-169000Y-57500D02*
D03*
Y-67000D02*
D03*
Y-76500D02*
D03*
X-143000D02*
D03*
Y-67000D02*
D03*
Y-57500D02*
D03*
D61*
X203810Y10269D02*
D03*
Y26271D02*
D03*
X81730Y153499D02*
D03*
Y169501D02*
D03*
X5000Y153499D02*
D03*
Y169501D02*
D03*
X-143000Y-22999D02*
D03*
Y-39001D02*
D03*
D62*
X159999Y102000D02*
D03*
X176001D02*
D03*
X200999Y51366D02*
D03*
X217001D02*
D03*
X56001Y117000D02*
D03*
X39999D02*
D03*
X132001Y135000D02*
D03*
X115999D02*
D03*
D63*
X161000Y26000D02*
D03*
X183000Y48000D02*
D03*
D64*
X221250Y-177000D02*
D03*
X208750D02*
D03*
X196250D02*
D03*
X183750D02*
D03*
X171250D02*
D03*
X158750D02*
D03*
D65*
X77500Y-44000D02*
D03*
Y-66000D02*
D03*
X92500D02*
D03*
Y-44000D02*
D03*
D66*
X-76100Y24000D02*
D03*
X-61900D02*
D03*
D67*
X106544Y100412D02*
D03*
Y119487D02*
D03*
X83608Y109949D02*
D03*
X201544Y130412D02*
D03*
Y149487D02*
D03*
X178608Y139949D02*
D03*
D68*
X162678Y-81495D02*
D03*
X158678D02*
D03*
X154678D02*
D03*
X150678D02*
D03*
X146678D02*
D03*
X142678D02*
D03*
X138678D02*
D03*
X166678D02*
D03*
X170678D02*
D03*
X174678D02*
D03*
X178678D02*
D03*
X182678D02*
D03*
X142678Y-21494D02*
D03*
X138678D02*
D03*
X146678D02*
D03*
X150678D02*
D03*
X182678D02*
D03*
X178678D02*
D03*
X174678D02*
D03*
X170678D02*
D03*
X166678D02*
D03*
X154678D02*
D03*
X158678D02*
D03*
X162678D02*
D03*
D69*
X160678Y-51494D02*
D03*
D70*
X190678Y-53495D02*
D03*
Y-49495D02*
D03*
Y-45494D02*
D03*
Y-57494D02*
D03*
Y-61494D02*
D03*
Y-65494D02*
D03*
Y-69494D02*
D03*
Y-73494D02*
D03*
Y-41494D02*
D03*
Y-37494D02*
D03*
Y-29495D02*
D03*
Y-33495D02*
D03*
X130678Y-69494D02*
D03*
Y-73494D02*
D03*
Y-65494D02*
D03*
Y-61494D02*
D03*
Y-29494D02*
D03*
Y-33494D02*
D03*
Y-37494D02*
D03*
Y-41494D02*
D03*
Y-45494D02*
D03*
Y-57494D02*
D03*
Y-53494D02*
D03*
Y-49494D02*
D03*
D71*
X43520Y-170450D02*
D03*
X30820D02*
D03*
X18120D02*
D03*
X-19980D02*
D03*
X-32680D02*
D03*
X-45380D02*
D03*
X-45520Y-81550D02*
D03*
X-32820D02*
D03*
X-20120D02*
D03*
X17980D02*
D03*
X30680D02*
D03*
X43363D02*
D03*
D72*
X79662Y77270D02*
D03*
X54262D02*
D03*
D73*
X-167500Y-126717D02*
D03*
D74*
X-136750D02*
D03*
D75*
X159620Y118000D02*
D03*
X144380D02*
D03*
D76*
X-6500Y116500D02*
D03*
X-16000D02*
D03*
X-25500D02*
D03*
Y89500D02*
D03*
X-6500D02*
D03*
D77*
X244700Y122500D02*
D03*
X282700D02*
D03*
X244700Y117500D02*
D03*
X282700D02*
D03*
Y112500D02*
D03*
X244700D02*
D03*
X282700Y42500D02*
D03*
X244700D02*
D03*
X282700Y47500D02*
D03*
X244700D02*
D03*
X282700Y52500D02*
D03*
X244700D02*
D03*
X282700Y57500D02*
D03*
X244700D02*
D03*
X282700Y62500D02*
D03*
X244700D02*
D03*
X282700Y67500D02*
D03*
X244700D02*
D03*
Y107500D02*
D03*
X282700D02*
D03*
X244700Y102500D02*
D03*
X282700D02*
D03*
X244700Y97500D02*
D03*
X282700D02*
D03*
X244700Y92500D02*
D03*
X282700D02*
D03*
X244700Y87500D02*
D03*
X282700D02*
D03*
X244700Y82500D02*
D03*
X282700D02*
D03*
X244700Y77500D02*
D03*
X282700D02*
D03*
Y72500D02*
D03*
X244700D02*
D03*
Y-77500D02*
D03*
X282700D02*
D03*
Y-72500D02*
D03*
X244700D02*
D03*
X282700Y-67500D02*
D03*
X244700D02*
D03*
X282700Y-62500D02*
D03*
X244700D02*
D03*
X282700Y-57500D02*
D03*
X244700D02*
D03*
X282700Y-52500D02*
D03*
X244700D02*
D03*
X282700Y-47500D02*
D03*
X244700D02*
D03*
X282700Y-42500D02*
D03*
X244700D02*
D03*
Y-82500D02*
D03*
X282700D02*
D03*
X244700Y-87500D02*
D03*
X282700D02*
D03*
X244700Y-92500D02*
D03*
X282700D02*
D03*
X244700Y-97500D02*
D03*
X282700D02*
D03*
X244700Y-102500D02*
D03*
X282700D02*
D03*
X244700Y-107500D02*
D03*
X282700D02*
D03*
X244700Y-112500D02*
D03*
X282700D02*
D03*
Y-117500D02*
D03*
X244700D02*
D03*
X282700Y-122500D02*
D03*
X244700D02*
D03*
Y-37500D02*
D03*
X282700D02*
D03*
Y-32500D02*
D03*
X244700D02*
D03*
X282700Y-27500D02*
D03*
X244700D02*
D03*
X282700Y-22500D02*
D03*
X244700D02*
D03*
X282700Y-17500D02*
D03*
X244700D02*
D03*
X282700Y-12500D02*
D03*
X244700D02*
D03*
X282700Y-7500D02*
D03*
X244700D02*
D03*
X282700Y-2500D02*
D03*
X244700D02*
D03*
Y37500D02*
D03*
X282700D02*
D03*
X244700Y32500D02*
D03*
X282700D02*
D03*
X244700Y27500D02*
D03*
X282700D02*
D03*
X244700Y22500D02*
D03*
X282700D02*
D03*
X244700Y17500D02*
D03*
X282700D02*
D03*
X244700Y12500D02*
D03*
X282700D02*
D03*
X244700Y7500D02*
D03*
X282700D02*
D03*
Y2500D02*
D03*
X244700D02*
D03*
X-281700Y2500D02*
D03*
Y7500D02*
D03*
Y12500D02*
D03*
Y17500D02*
D03*
Y22500D02*
D03*
Y27500D02*
D03*
Y32500D02*
D03*
Y37500D02*
D03*
Y-2500D02*
D03*
Y-7500D02*
D03*
Y-12500D02*
D03*
Y-17500D02*
D03*
Y-22500D02*
D03*
Y-27500D02*
D03*
Y-32500D02*
D03*
Y-37500D02*
D03*
Y-122500D02*
D03*
Y-117500D02*
D03*
Y-112500D02*
D03*
Y-107500D02*
D03*
Y-102500D02*
D03*
Y-97500D02*
D03*
Y-92500D02*
D03*
Y-87500D02*
D03*
Y-82500D02*
D03*
Y-42500D02*
D03*
Y-47500D02*
D03*
Y-52500D02*
D03*
Y-57500D02*
D03*
Y-62500D02*
D03*
Y-67500D02*
D03*
Y-72500D02*
D03*
Y-77500D02*
D03*
Y72500D02*
D03*
Y77500D02*
D03*
Y82500D02*
D03*
Y87500D02*
D03*
Y92500D02*
D03*
Y97500D02*
D03*
Y102500D02*
D03*
Y107500D02*
D03*
Y67500D02*
D03*
Y62500D02*
D03*
Y57500D02*
D03*
Y52500D02*
D03*
Y47500D02*
D03*
Y42500D02*
D03*
Y112500D02*
D03*
Y117500D02*
D03*
Y122500D02*
D03*
X-245700D02*
D03*
Y117500D02*
D03*
Y112500D02*
D03*
Y42500D02*
D03*
Y47500D02*
D03*
Y52500D02*
D03*
Y57500D02*
D03*
Y62500D02*
D03*
Y67500D02*
D03*
Y107500D02*
D03*
Y102500D02*
D03*
Y97500D02*
D03*
Y92500D02*
D03*
Y87500D02*
D03*
Y82500D02*
D03*
Y77500D02*
D03*
Y72500D02*
D03*
Y-77500D02*
D03*
Y-72500D02*
D03*
Y-67500D02*
D03*
Y-62500D02*
D03*
Y-57500D02*
D03*
Y-52500D02*
D03*
Y-47500D02*
D03*
Y-42500D02*
D03*
Y-82500D02*
D03*
Y-87500D02*
D03*
Y-92500D02*
D03*
Y-97500D02*
D03*
Y-102500D02*
D03*
Y-107500D02*
D03*
Y-112500D02*
D03*
Y-117500D02*
D03*
Y-122500D02*
D03*
Y-37500D02*
D03*
Y-32500D02*
D03*
Y-27500D02*
D03*
Y-22500D02*
D03*
Y-17500D02*
D03*
Y-12500D02*
D03*
Y-7500D02*
D03*
Y-2500D02*
D03*
Y37500D02*
D03*
Y32500D02*
D03*
Y27500D02*
D03*
Y22500D02*
D03*
Y17500D02*
D03*
Y12500D02*
D03*
Y7500D02*
D03*
Y2500D02*
D03*
D78*
X110000Y-1000D02*
D03*
X-110000Y-1000D02*
D03*
D79*
X-66676Y149208D02*
D03*
D80*
X-146563Y149244D02*
D03*
D81*
X204300Y170000D02*
D03*
D82*
X229700D02*
D03*
D83*
X273000Y-163000D02*
D03*
X-273000D02*
D03*
X273000Y163000D02*
D03*
X-273000D02*
D03*
D84*
X276200Y-132000D02*
D03*
Y132000D02*
D03*
X-276200D02*
D03*
Y-132000D02*
D03*
X-220000Y-172500D02*
D03*
X88500Y21000D02*
D03*
X80500Y7698D02*
D03*
X109000Y-39000D02*
D03*
X92000Y-83000D02*
D03*
X92011Y-93000D02*
D03*
X-264000Y-70000D02*
D03*
X-164499Y84499D02*
D03*
X-170001Y79999D02*
D03*
X-196000Y77186D02*
D03*
X-196001Y69999D02*
D03*
X-179999Y70999D02*
D03*
X-185501Y65499D02*
D03*
X-154000Y86000D02*
D03*
X-137000Y-102000D02*
D03*
X-198000Y-41000D02*
D03*
X-112000Y69000D02*
D03*
X117000Y-120000D02*
D03*
X164000D02*
D03*
X133000D02*
D03*
X201000Y-111000D02*
D03*
Y-121000D02*
D03*
X179000D02*
D03*
X201000Y-99000D02*
D03*
X141270Y-139730D02*
D03*
X153270Y-139730D02*
D03*
X165270Y-139730D02*
D03*
X200000Y-3000D02*
D03*
X197000Y-11000D02*
D03*
X224000Y-26000D02*
D03*
X181000Y-7340D02*
D03*
X117000Y40000D02*
D03*
X120000Y-29494D02*
D03*
X148000Y8000D02*
D03*
Y-3569D02*
D03*
M02*
