%FSLAX44Y44*%
%MOMM*%
G71*
G01*
G75*
G04 Layer_Color=16711935*
%ADD10R,1.8000X0.2500*%
%ADD11R,0.5000X0.6000*%
%ADD12R,0.5000X1.1000*%
%ADD13R,0.8128X0.8128*%
%ADD14R,1.0160X0.8890*%
%ADD15R,2.4000X1.2500*%
%ADD16R,1.2000X1.2500*%
%ADD17R,0.8890X1.0160*%
%ADD18R,1.6002X1.2954*%
%ADD19R,0.7600X1.5200*%
%ADD20R,0.6000X0.5000*%
%ADD21R,0.8128X0.8128*%
%ADD22R,1.0668X0.8128*%
G04:AMPARAMS|DCode=23|XSize=0.22mm|YSize=0.8mm|CornerRadius=0mm|HoleSize=0mm|Usage=FLASHONLY|Rotation=90.000|XOffset=0mm|YOffset=0mm|HoleType=Round|Shape=RoundedRectangle|*
%AMROUNDEDRECTD23*
21,1,0.2200,0.8000,0,0,90.0*
21,1,0.2200,0.8000,0,0,90.0*
1,1,0.0000,0.4000,0.1100*
1,1,0.0000,0.4000,-0.1100*
1,1,0.0000,-0.4000,-0.1100*
1,1,0.0000,-0.4000,0.1100*
%
%ADD23ROUNDEDRECTD23*%
G04:AMPARAMS|DCode=24|XSize=0.22mm|YSize=0.8mm|CornerRadius=0mm|HoleSize=0mm|Usage=FLASHONLY|Rotation=0.000|XOffset=0mm|YOffset=0mm|HoleType=Round|Shape=RoundedRectangle|*
%AMROUNDEDRECTD24*
21,1,0.2200,0.8000,0,0,0.0*
21,1,0.2200,0.8000,0,0,0.0*
1,1,0.0000,0.1100,-0.4000*
1,1,0.0000,-0.1100,-0.4000*
1,1,0.0000,-0.1100,0.4000*
1,1,0.0000,0.1100,0.4000*
%
%ADD24ROUNDEDRECTD24*%
%ADD25R,4.3000X4.3000*%
%ADD26R,0.6000X0.7000*%
%ADD27R,1.2000X1.4000*%
%ADD28R,0.8000X1.6000*%
%ADD29P,1.8385X4X90.0*%
%ADD30R,1.2700X0.5080*%
%ADD31R,1.3970X1.3970*%
%ADD32R,1.2000X1.6000*%
%ADD33R,1.5000X0.4000*%
%ADD34R,1.2000X2.2000*%
%ADD35R,1.6000X1.4000*%
%ADD36R,1.1000X1.4000*%
%ADD37R,0.7000X1.6000*%
%ADD38R,1.4000X1.2000*%
%ADD39R,1.4000X0.6000*%
%ADD40C,0.2000*%
%ADD41C,0.2540*%
%ADD42C,0.1270*%
%ADD43C,0.4000*%
%ADD44C,0.6000*%
%ADD45C,0.3000*%
%ADD46C,1.0000*%
%ADD47C,0.5000*%
%ADD48C,0.0254*%
%ADD49C,0.5000*%
G04:AMPARAMS|DCode=50|XSize=4mm|YSize=4mm|CornerRadius=2mm|HoleSize=0mm|Usage=FLASHONLY|Rotation=0.000|XOffset=0mm|YOffset=0mm|HoleType=Round|Shape=RoundedRectangle|*
%AMROUNDEDRECTD50*
21,1,4.0000,0.0000,0,0,0.0*
21,1,0.0000,4.0000,0,0,0.0*
1,1,4.0000,0.0000,0.0000*
1,1,4.0000,0.0000,0.0000*
1,1,4.0000,0.0000,0.0000*
1,1,4.0000,0.0000,0.0000*
%
%ADD50ROUNDEDRECTD50*%
%ADD51R,1.5240X1.5240*%
%ADD52C,1.5240*%
%ADD53C,0.3000*%
%ADD54C,4.4000*%
%ADD55C,0.8000*%
%ADD56C,3.6000*%
%ADD57R,1.2000X2.0000*%
%ADD58R,1.6000X1.2000*%
%ADD59O,2.0320X0.6096*%
%ADD60R,2.0320X0.6096*%
%ADD61R,2.3500X0.7250*%
%ADD62R,1.3970X1.3970*%
%ADD63P,1.8385X4X180.0*%
%ADD64R,2.1000X3.0000*%
%ADD65R,0.8000X2.1000*%
%ADD66R,1.6000X2.2000*%
%ADD67C,0.8000*%
G04:AMPARAMS|DCode=68|XSize=2mm|YSize=2mm|CornerRadius=0mm|HoleSize=0mm|Usage=FLASHONLY|Rotation=180.000|XOffset=0mm|YOffset=0mm|HoleType=Round|Shape=RoundedRectangle|*
%AMROUNDEDRECTD68*
21,1,2.0000,2.0000,0,0,180.0*
21,1,2.0000,2.0000,0,0,180.0*
1,1,0.0000,-1.0000,1.0000*
1,1,0.0000,1.0000,1.0000*
1,1,0.0000,1.0000,-1.0000*
1,1,0.0000,-1.0000,-1.0000*
%
%ADD68ROUNDEDRECTD68*%
%ADD69R,2.1500X6.3000*%
%ADD70C,0.6000*%
%ADD71R,1.6000X1.6000*%
%ADD72R,0.4064X0.5500*%
%ADD73R,0.3048X0.5500*%
%ADD74R,0.2000X0.7500*%
%ADD75R,0.7500X0.2000*%
%ADD76R,0.7000X0.6000*%
%ADD77R,2.3500X1.9250*%
%ADD78C,4.0000*%
%ADD79C,0.1250*%
%ADD80C,0.1524*%
%ADD81C,0.1200*%
%ADD82C,0.2032*%
%ADD83C,0.1000*%
%ADD84R,2.0040X0.4540*%
%ADD85R,0.7040X0.8040*%
%ADD86R,0.7040X1.3040*%
%ADD87R,1.0168X1.0168*%
%ADD88R,1.2200X1.0930*%
%ADD89R,2.6040X1.4540*%
%ADD90R,1.4040X1.4540*%
%ADD91R,1.0930X1.2200*%
%ADD92R,1.8042X1.4994*%
%ADD93R,0.9640X1.7240*%
%ADD94R,0.8040X0.7040*%
%ADD95R,1.0168X1.0168*%
%ADD96R,1.2708X1.0168*%
G04:AMPARAMS|DCode=97|XSize=0.424mm|YSize=1.004mm|CornerRadius=0mm|HoleSize=0mm|Usage=FLASHONLY|Rotation=90.000|XOffset=0mm|YOffset=0mm|HoleType=Round|Shape=RoundedRectangle|*
%AMROUNDEDRECTD97*
21,1,0.4240,1.0040,0,0,90.0*
21,1,0.4240,1.0040,0,0,90.0*
1,1,0.0000,0.5020,0.2120*
1,1,0.0000,0.5020,-0.2120*
1,1,0.0000,-0.5020,-0.2120*
1,1,0.0000,-0.5020,0.2120*
%
%ADD97ROUNDEDRECTD97*%
G04:AMPARAMS|DCode=98|XSize=0.424mm|YSize=1.004mm|CornerRadius=0mm|HoleSize=0mm|Usage=FLASHONLY|Rotation=0.000|XOffset=0mm|YOffset=0mm|HoleType=Round|Shape=RoundedRectangle|*
%AMROUNDEDRECTD98*
21,1,0.4240,1.0040,0,0,0.0*
21,1,0.4240,1.0040,0,0,0.0*
1,1,0.0000,0.2120,-0.5020*
1,1,0.0000,-0.2120,-0.5020*
1,1,0.0000,-0.2120,0.5020*
1,1,0.0000,0.2120,0.5020*
%
%ADD98ROUNDEDRECTD98*%
%ADD99R,4.5040X4.5040*%
%ADD100R,0.8040X0.9040*%
%ADD101R,1.4040X1.6040*%
%ADD102R,1.0040X1.8040*%
%ADD103P,2.1270X4X90.0*%
%ADD104R,1.4740X0.7120*%
%ADD105R,1.6010X1.6010*%
%ADD106R,1.4040X1.8040*%
%ADD107R,1.7040X0.6040*%
%ADD108R,1.4040X2.4040*%
%ADD109R,1.8040X1.6040*%
%ADD110R,1.3040X1.6040*%
%ADD111R,0.9040X1.8040*%
%ADD112R,1.6040X1.4040*%
%ADD113R,1.6040X0.8040*%
%ADD114C,0.7040*%
G04:AMPARAMS|DCode=115|XSize=4.204mm|YSize=4.204mm|CornerRadius=2.102mm|HoleSize=0mm|Usage=FLASHONLY|Rotation=0.000|XOffset=0mm|YOffset=0mm|HoleType=Round|Shape=RoundedRectangle|*
%AMROUNDEDRECTD115*
21,1,4.2040,0.0000,0,0,0.0*
21,1,0.0000,4.2040,0,0,0.0*
1,1,4.2040,0.0000,0.0000*
1,1,4.2040,0.0000,0.0000*
1,1,4.2040,0.0000,0.0000*
1,1,4.2040,0.0000,0.0000*
%
%ADD115ROUNDEDRECTD115*%
%ADD116R,1.7280X1.7280*%
%ADD117C,1.7280*%
%ADD118C,0.5040*%
%ADD119C,0.2040*%
%ADD120C,4.6040*%
%ADD121R,2.5500X1.4000*%
%ADD122R,1.4040X2.2040*%
%ADD123R,1.8040X1.4040*%
%ADD124O,2.2360X0.8136*%
%ADD125R,2.2360X0.8136*%
%ADD126R,2.5540X0.9290*%
%ADD127R,1.6010X1.6010*%
%ADD128P,2.1270X4X180.0*%
%ADD129R,2.3040X3.2040*%
%ADD130R,1.0040X2.3040*%
%ADD131R,1.8040X2.4040*%
%ADD132C,1.0040*%
G04:AMPARAMS|DCode=133|XSize=2.204mm|YSize=2.204mm|CornerRadius=0mm|HoleSize=0mm|Usage=FLASHONLY|Rotation=180.000|XOffset=0mm|YOffset=0mm|HoleType=Round|Shape=RoundedRectangle|*
%AMROUNDEDRECTD133*
21,1,2.2040,2.2040,0,0,180.0*
21,1,2.2040,2.2040,0,0,180.0*
1,1,0.0000,-1.1020,1.1020*
1,1,0.0000,1.1020,1.1020*
1,1,0.0000,1.1020,-1.1020*
1,1,0.0000,-1.1020,-1.1020*
%
%ADD133ROUNDEDRECTD133*%
%ADD134R,2.3540X6.5040*%
%ADD135C,0.8040*%
%ADD136R,1.8040X1.8040*%
%ADD137R,0.6104X0.7540*%
%ADD138R,0.5088X0.7540*%
%ADD139R,0.4040X0.9540*%
%ADD140R,0.9540X0.4040*%
%ADD141R,0.9040X0.8040*%
%ADD142C,4.2040*%
D40*
X289941Y-190000D02*
G03*
X299941Y-180000I0J10000D01*
G01*
Y180000D02*
G03*
X289941Y190000I-10000J0D01*
G01*
X-300000Y-180000D02*
G03*
X-290000Y-190000I10000J0D01*
G01*
Y190000D02*
G03*
X-300000Y180000I0J-10000D01*
G01*
X300000Y-180000D02*
Y180000D01*
X-300000Y-180000D02*
Y180000D01*
X-290000Y-190000D02*
X289941Y-190000D01*
X-290000Y190000D02*
X289941Y190000D01*
D48*
X53993Y-154584D02*
X54000D01*
X27493Y-143984D02*
X27500D01*
X2493D02*
X2500D01*
X28993Y-154584D02*
X29000D01*
D70*
X55000Y-50000D02*
D03*
D85*
X-206500Y109000D02*
D03*
X-215500D02*
D03*
X123230Y167031D02*
D03*
X132230D02*
D03*
X55656Y154830D02*
D03*
X46656D02*
D03*
X55656Y179230D02*
D03*
X46656D02*
D03*
X234500Y-79000D02*
D03*
X225500D02*
D03*
X234500Y-67000D02*
D03*
X225500D02*
D03*
X267500Y21000D02*
D03*
X276500D02*
D03*
X183500Y-35494D02*
D03*
X192500D02*
D03*
X109500Y-67000D02*
D03*
X118500D02*
D03*
X78500Y-113000D02*
D03*
X87500D02*
D03*
X-155354Y174853D02*
D03*
X-146354D02*
D03*
X-226500Y175642D02*
D03*
X-217500D02*
D03*
X-239500Y136000D02*
D03*
X-248500D02*
D03*
X-192003Y175642D02*
D03*
X-201003D02*
D03*
X-173062Y108887D02*
D03*
X-182062D02*
D03*
X46656Y167031D02*
D03*
X55656D02*
D03*
X185500Y-110840D02*
D03*
X194500D02*
D03*
X194658Y-99110D02*
D03*
X185658D02*
D03*
X132230Y179230D02*
D03*
X123230D02*
D03*
Y154830D02*
D03*
X132230D02*
D03*
X218500Y68000D02*
D03*
X209500D02*
D03*
D86*
X108230Y181299D02*
D03*
X89230D02*
D03*
Y154299D02*
D03*
X98730D02*
D03*
X108230D02*
D03*
X31500Y181299D02*
D03*
X12500D02*
D03*
Y154299D02*
D03*
X22000D02*
D03*
X31500D02*
D03*
D87*
X135620Y-53494D02*
D03*
X120380D02*
D03*
D88*
X133000Y-110506D02*
D03*
Y-94504D02*
D03*
X-140000Y74999D02*
D03*
Y91001D02*
D03*
D94*
X-227000Y100500D02*
D03*
Y109500D02*
D03*
X188178Y-65995D02*
D03*
Y-74994D02*
D03*
X264000Y41500D02*
D03*
Y50500D02*
D03*
X277000D02*
D03*
Y41500D02*
D03*
X139000Y-74994D02*
D03*
Y-83994D02*
D03*
X160000Y19500D02*
D03*
Y28500D02*
D03*
X150678Y-83994D02*
D03*
Y-74994D02*
D03*
X170678D02*
D03*
Y-83994D02*
D03*
X267000Y-12500D02*
D03*
Y-3500D02*
D03*
X200000Y21500D02*
D03*
Y12500D02*
D03*
X279000Y-3500D02*
D03*
Y-12500D02*
D03*
X188000Y21500D02*
D03*
Y12500D02*
D03*
X236000Y-1500D02*
D03*
Y-10500D02*
D03*
X224000D02*
D03*
Y-1500D02*
D03*
X213000Y12500D02*
D03*
Y21500D02*
D03*
X-246450Y113000D02*
D03*
Y122000D02*
D03*
X166632Y-30029D02*
D03*
Y-21029D02*
D03*
X155000Y-29994D02*
D03*
Y-20994D02*
D03*
X-112000Y84500D02*
D03*
Y75500D02*
D03*
X148000Y28500D02*
D03*
Y19500D02*
D03*
D95*
X174000Y19620D02*
D03*
Y4380D02*
D03*
X117000Y-109620D02*
D03*
Y-94380D02*
D03*
D96*
X180544Y178589D02*
D03*
Y159513D02*
D03*
X157608Y169051D02*
D03*
D102*
X43750Y-142584D02*
D03*
X18750D02*
D03*
X-43750D02*
D03*
X-31250D02*
D03*
X-18750D02*
D03*
X-6250D02*
D03*
X6250D02*
D03*
X31250D02*
D03*
D105*
X170795Y116000D02*
D03*
X149205D02*
D03*
D114*
X-276200Y-132000D02*
D03*
Y132000D02*
D03*
X276200D02*
D03*
Y-132000D02*
D03*
X148000Y-3569D02*
D03*
Y8000D02*
D03*
X120000Y-29494D02*
D03*
X117000Y40000D02*
D03*
X181000Y-7340D02*
D03*
X224000Y-26000D02*
D03*
X197000Y-11000D02*
D03*
X200000Y-3000D02*
D03*
X165270Y-139730D02*
D03*
X153270Y-139730D02*
D03*
X141270Y-139730D02*
D03*
X201000Y-99000D02*
D03*
X179000Y-121000D02*
D03*
X201000D02*
D03*
Y-111000D02*
D03*
X133000Y-120000D02*
D03*
X164000D02*
D03*
X117000D02*
D03*
X-112000Y69000D02*
D03*
X-198000Y-41000D02*
D03*
X-137000Y-102000D02*
D03*
X-154000Y86000D02*
D03*
X-185501Y65499D02*
D03*
X-179999Y70999D02*
D03*
X-196001Y69999D02*
D03*
X-196000Y77186D02*
D03*
X-170001Y79999D02*
D03*
X-164499Y84499D02*
D03*
X-264000Y-70000D02*
D03*
X92011Y-93000D02*
D03*
X92000Y-83000D02*
D03*
X109000Y-39000D02*
D03*
X80500Y7698D02*
D03*
X88500Y21000D02*
D03*
X-220000Y-172500D02*
D03*
D115*
X-273000Y163000D02*
D03*
X273000D02*
D03*
X-273000Y-163000D02*
D03*
X273000D02*
D03*
D116*
X229700Y170000D02*
D03*
D117*
X204300D02*
D03*
D118*
X-146563Y149244D02*
D03*
D119*
X-66676Y149208D02*
D03*
D121*
X-164613Y20249D02*
D03*
X-198612Y15749D02*
D03*
X-198612Y-22250D02*
D03*
X-164613Y-17751D02*
D03*
D122*
X263778Y68431D02*
D03*
Y128431D02*
D03*
D123*
X-108000Y-147000D02*
D03*
Y-179000D02*
D03*
D124*
X-222080Y161390D02*
D03*
Y148691D02*
D03*
Y135990D02*
D03*
Y123291D02*
D03*
X-166200D02*
D03*
Y135990D02*
D03*
Y148691D02*
D03*
D125*
Y161390D02*
D03*
D126*
X-164612Y5000D02*
D03*
Y31000D02*
D03*
X-198612D02*
D03*
Y5000D02*
D03*
Y-7000D02*
D03*
Y-33000D02*
D03*
X-164612D02*
D03*
Y-7000D02*
D03*
D127*
X-46251Y154443D02*
D03*
Y132853D02*
D03*
X57000Y113825D02*
D03*
Y135415D02*
D03*
X-22189Y132853D02*
D03*
Y154443D02*
D03*
D128*
X13000Y136000D02*
D03*
X35000Y114000D02*
D03*
X89000Y136000D02*
D03*
X111000Y114000D02*
D03*
D129*
X240000Y-171584D02*
D03*
X150000D02*
D03*
X69250D02*
D03*
X-69250D02*
D03*
D130*
X176250Y-140584D02*
D03*
X188750D02*
D03*
X201250D02*
D03*
X213750D02*
D03*
D131*
X-238750Y-147000D02*
D03*
X-139250D02*
D03*
D132*
X-281700Y-87500D02*
D03*
Y-117500D02*
D03*
X-220000Y-97500D02*
D03*
X261000Y-133000D02*
D03*
D133*
X-65000Y-121000D02*
D03*
X-109000D02*
D03*
D134*
X-127831Y150546D02*
D03*
X-86331D02*
D03*
D135*
X-60000Y35000D02*
D03*
Y25000D02*
D03*
Y15000D02*
D03*
Y5000D02*
D03*
Y-5000D02*
D03*
Y-15000D02*
D03*
Y-25000D02*
D03*
Y-35000D02*
D03*
X60000Y35000D02*
D03*
Y25000D02*
D03*
Y15000D02*
D03*
Y5000D02*
D03*
Y-5000D02*
D03*
Y-15000D02*
D03*
Y-25000D02*
D03*
Y-35000D02*
D03*
X-40000Y55000D02*
D03*
X-30000D02*
D03*
X-20000D02*
D03*
X-10000D02*
D03*
X0D02*
D03*
X10000D02*
D03*
X20000D02*
D03*
X30000D02*
D03*
X40000D02*
D03*
X-40000Y-55000D02*
D03*
X-30000D02*
D03*
X-20000D02*
D03*
X-10000D02*
D03*
X0D02*
D03*
X10000D02*
D03*
X20000D02*
D03*
X30000D02*
D03*
X40000D02*
D03*
X50000Y-35000D02*
D03*
Y-25000D02*
D03*
Y-15000D02*
D03*
Y-5000D02*
D03*
Y5000D02*
D03*
Y15000D02*
D03*
Y25000D02*
D03*
Y35000D02*
D03*
X40000Y-45000D02*
D03*
Y-35000D02*
D03*
Y-25000D02*
D03*
Y-15000D02*
D03*
Y-5000D02*
D03*
Y5000D02*
D03*
Y15000D02*
D03*
Y25000D02*
D03*
Y35000D02*
D03*
Y45000D02*
D03*
X30000Y-45000D02*
D03*
Y-35000D02*
D03*
Y-25000D02*
D03*
Y-15000D02*
D03*
Y-5000D02*
D03*
Y5000D02*
D03*
Y15000D02*
D03*
Y25000D02*
D03*
Y35000D02*
D03*
Y45000D02*
D03*
X20000Y-45000D02*
D03*
Y-35000D02*
D03*
Y-25000D02*
D03*
Y-15000D02*
D03*
Y-5000D02*
D03*
Y5000D02*
D03*
Y15000D02*
D03*
Y25000D02*
D03*
Y35000D02*
D03*
Y45000D02*
D03*
X10000Y-45000D02*
D03*
Y-35000D02*
D03*
Y-25000D02*
D03*
Y25000D02*
D03*
Y35000D02*
D03*
Y45000D02*
D03*
X0Y-45000D02*
D03*
Y-35000D02*
D03*
Y-25000D02*
D03*
Y25000D02*
D03*
Y35000D02*
D03*
Y45000D02*
D03*
X-10000Y-45000D02*
D03*
Y-35000D02*
D03*
Y-25000D02*
D03*
Y25000D02*
D03*
Y35000D02*
D03*
Y45000D02*
D03*
X-20000Y-45000D02*
D03*
Y-35000D02*
D03*
Y-25000D02*
D03*
Y-15000D02*
D03*
Y-5000D02*
D03*
Y5000D02*
D03*
Y15000D02*
D03*
Y25000D02*
D03*
Y35000D02*
D03*
Y45000D02*
D03*
X-30000Y-45000D02*
D03*
Y-35000D02*
D03*
Y-25000D02*
D03*
Y-15000D02*
D03*
Y-5000D02*
D03*
Y5000D02*
D03*
Y15000D02*
D03*
Y25000D02*
D03*
Y35000D02*
D03*
Y45000D02*
D03*
X-40000Y-45000D02*
D03*
Y-35000D02*
D03*
Y-25000D02*
D03*
Y-15000D02*
D03*
Y-5000D02*
D03*
Y5000D02*
D03*
Y15000D02*
D03*
Y25000D02*
D03*
Y35000D02*
D03*
Y45000D02*
D03*
X-50000Y-35000D02*
D03*
Y-25000D02*
D03*
Y-15000D02*
D03*
Y-5000D02*
D03*
Y5000D02*
D03*
Y15000D02*
D03*
Y25000D02*
D03*
Y35000D02*
D03*
D136*
X55000Y50000D02*
D03*
X-55000Y-50000D02*
D03*
Y50000D02*
D03*
D137*
X-179999Y47750D02*
D03*
X-196001D02*
D03*
Y58250D02*
D03*
X-179999D02*
D03*
X-153999Y47750D02*
D03*
X-170001D02*
D03*
Y58250D02*
D03*
X-153999D02*
D03*
D138*
X-185501Y47750D02*
D03*
X-190499D02*
D03*
Y58250D02*
D03*
X-185501D02*
D03*
X-159501Y47750D02*
D03*
X-164499D02*
D03*
Y58250D02*
D03*
X-159501D02*
D03*
D139*
X224000Y-98000D02*
D03*
X228000D02*
D03*
Y-116000D02*
D03*
X224000D02*
D03*
D140*
X235000Y-101000D02*
D03*
Y-105000D02*
D03*
Y-109000D02*
D03*
Y-113000D02*
D03*
X217000D02*
D03*
Y-109000D02*
D03*
Y-105000D02*
D03*
Y-101000D02*
D03*
D141*
X-125000Y89100D02*
D03*
Y74900D02*
D03*
D142*
X-110000Y-1000D02*
D03*
X110000Y-1000D02*
D03*
M02*
