%FSLAX44Y44*%
%MOMM*%
G71*
G01*
G75*
G04 Layer_Physical_Order=4*
G04 Layer_Color=16711680*
%ADD10R,1.8000X0.2500*%
%ADD11R,0.5000X0.6000*%
%ADD12R,0.5000X1.1000*%
%ADD13R,0.8128X0.8128*%
%ADD14R,1.0160X0.8890*%
%ADD15R,2.4000X1.2500*%
%ADD16R,1.2000X1.2500*%
%ADD17R,0.8890X1.0160*%
%ADD18R,1.6002X1.2954*%
%ADD19R,0.7600X1.5200*%
%ADD20R,0.6000X0.5000*%
%ADD21R,0.8128X0.8128*%
%ADD22R,1.0668X0.8128*%
G04:AMPARAMS|DCode=23|XSize=0.22mm|YSize=0.8mm|CornerRadius=0mm|HoleSize=0mm|Usage=FLASHONLY|Rotation=90.000|XOffset=0mm|YOffset=0mm|HoleType=Round|Shape=RoundedRectangle|*
%AMROUNDEDRECTD23*
21,1,0.2200,0.8000,0,0,90.0*
21,1,0.2200,0.8000,0,0,90.0*
1,1,0.0000,0.4000,0.1100*
1,1,0.0000,0.4000,-0.1100*
1,1,0.0000,-0.4000,-0.1100*
1,1,0.0000,-0.4000,0.1100*
%
%ADD23ROUNDEDRECTD23*%
G04:AMPARAMS|DCode=24|XSize=0.22mm|YSize=0.8mm|CornerRadius=0mm|HoleSize=0mm|Usage=FLASHONLY|Rotation=0.000|XOffset=0mm|YOffset=0mm|HoleType=Round|Shape=RoundedRectangle|*
%AMROUNDEDRECTD24*
21,1,0.2200,0.8000,0,0,0.0*
21,1,0.2200,0.8000,0,0,0.0*
1,1,0.0000,0.1100,-0.4000*
1,1,0.0000,-0.1100,-0.4000*
1,1,0.0000,-0.1100,0.4000*
1,1,0.0000,0.1100,0.4000*
%
%ADD24ROUNDEDRECTD24*%
%ADD25R,4.3000X4.3000*%
%ADD26R,0.6000X0.7000*%
%ADD27R,1.2000X1.4000*%
%ADD28R,0.8000X1.6000*%
%ADD29P,1.8385X4X90.0*%
%ADD30R,1.2700X0.5080*%
%ADD31R,1.3970X1.3970*%
%ADD32R,1.2000X1.6000*%
%ADD33R,1.5000X0.4000*%
%ADD34R,1.2000X2.2000*%
%ADD35R,1.6000X1.4000*%
%ADD36R,1.1000X1.4000*%
%ADD37R,0.7000X1.6000*%
%ADD38R,1.4000X1.2000*%
%ADD39R,1.4000X0.6000*%
%ADD40C,0.2000*%
%ADD41C,0.2540*%
%ADD42C,0.1270*%
%ADD43C,0.4000*%
%ADD44C,0.6000*%
%ADD45C,0.3000*%
%ADD46C,1.0000*%
%ADD47C,0.5000*%
%ADD48C,0.0254*%
%ADD49C,0.5000*%
G04:AMPARAMS|DCode=50|XSize=4mm|YSize=4mm|CornerRadius=2mm|HoleSize=0mm|Usage=FLASHONLY|Rotation=0.000|XOffset=0mm|YOffset=0mm|HoleType=Round|Shape=RoundedRectangle|*
%AMROUNDEDRECTD50*
21,1,4.0000,0.0000,0,0,0.0*
21,1,0.0000,4.0000,0,0,0.0*
1,1,4.0000,0.0000,0.0000*
1,1,4.0000,0.0000,0.0000*
1,1,4.0000,0.0000,0.0000*
1,1,4.0000,0.0000,0.0000*
%
%ADD50ROUNDEDRECTD50*%
%ADD51R,1.5240X1.5240*%
%ADD52C,1.5240*%
%ADD53C,0.3000*%
%ADD54C,4.4000*%
%ADD55C,0.8000*%
%ADD56C,3.6000*%
%ADD57R,1.2000X2.0000*%
%ADD58R,1.6000X1.2000*%
%ADD59O,2.0320X0.6096*%
%ADD60R,2.0320X0.6096*%
%ADD61R,2.3500X0.7250*%
%ADD62R,1.3970X1.3970*%
%ADD63P,1.8385X4X180.0*%
%ADD64R,2.1000X3.0000*%
%ADD65R,0.8000X2.1000*%
%ADD66R,1.6000X2.2000*%
%ADD67C,0.8000*%
G04:AMPARAMS|DCode=68|XSize=2mm|YSize=2mm|CornerRadius=0mm|HoleSize=0mm|Usage=FLASHONLY|Rotation=180.000|XOffset=0mm|YOffset=0mm|HoleType=Round|Shape=RoundedRectangle|*
%AMROUNDEDRECTD68*
21,1,2.0000,2.0000,0,0,180.0*
21,1,2.0000,2.0000,0,0,180.0*
1,1,0.0000,-1.0000,1.0000*
1,1,0.0000,1.0000,1.0000*
1,1,0.0000,1.0000,-1.0000*
1,1,0.0000,-1.0000,-1.0000*
%
%ADD68ROUNDEDRECTD68*%
%ADD69R,2.1500X6.3000*%
%ADD70C,0.6000*%
%ADD71R,1.6000X1.6000*%
%ADD72R,0.4064X0.5500*%
%ADD73R,0.3048X0.5500*%
%ADD74R,0.2000X0.7500*%
%ADD75R,0.7500X0.2000*%
%ADD76R,0.7000X0.6000*%
%ADD77R,2.3500X1.9250*%
%ADD78C,4.0000*%
G36*
X63000Y-58000D02*
X47000D01*
Y-45000D01*
X50000Y-42000D01*
X63000D01*
Y-58000D01*
D02*
G37*
G36*
X-23000Y-117000D02*
Y-127000D01*
X-27250Y-131250D01*
Y-143854D01*
X-35250D01*
Y-132750D01*
X-39566Y-128434D01*
X-48566D01*
X-50000Y-127000D01*
Y-117000D01*
X-48000Y-115000D01*
X-25000D01*
X-23000Y-117000D01*
D02*
G37*
G36*
X-146000Y113000D02*
X-83000D01*
X-81000Y111000D01*
Y104000D01*
X-87000Y98000D01*
X-164000D01*
X-173885Y107885D01*
X-174019D01*
Y122730D01*
X-170749Y126000D01*
X-159000D01*
X-146000Y113000D01*
D02*
G37*
G36*
X-10000Y178000D02*
Y163000D01*
X-15000Y158000D01*
X-84000D01*
Y179000D01*
X-81000Y182000D01*
X-14000D01*
X-10000Y178000D01*
D02*
G37*
G36*
X148340Y120160D02*
Y110840D01*
X145500Y108000D01*
X112500D01*
X108500Y112000D01*
Y115000D01*
X116500Y123000D01*
X145500D01*
X148340Y120160D01*
D02*
G37*
D11*
X-206500Y109000D02*
D03*
X-215500D02*
D03*
X123230Y167031D02*
D03*
X132230D02*
D03*
X55656Y154830D02*
D03*
X46656D02*
D03*
X55656Y179230D02*
D03*
X46656D02*
D03*
X234500Y-79000D02*
D03*
X225500D02*
D03*
X234500Y-67000D02*
D03*
X225500D02*
D03*
X267500Y21000D02*
D03*
X276500D02*
D03*
X183500Y-35494D02*
D03*
X192500D02*
D03*
X109500Y-67000D02*
D03*
X118500D02*
D03*
X78500Y-113000D02*
D03*
X87500D02*
D03*
X-155354Y174853D02*
D03*
X-146354D02*
D03*
X-226500Y175642D02*
D03*
X-217500D02*
D03*
X-239500Y136000D02*
D03*
X-248500D02*
D03*
X-192003Y175642D02*
D03*
X-201003D02*
D03*
X-173062Y108887D02*
D03*
X-182062D02*
D03*
X46656Y167031D02*
D03*
X55656D02*
D03*
X185500Y-110840D02*
D03*
X194500D02*
D03*
X194658Y-99110D02*
D03*
X185658D02*
D03*
X132230Y179230D02*
D03*
X123230D02*
D03*
Y154830D02*
D03*
X132230D02*
D03*
X218500Y68000D02*
D03*
X209500D02*
D03*
D12*
X108230Y181299D02*
D03*
X89230D02*
D03*
Y154299D02*
D03*
X98730D02*
D03*
X108230D02*
D03*
X31500Y181299D02*
D03*
X12500D02*
D03*
Y154299D02*
D03*
X22000D02*
D03*
X31500D02*
D03*
D13*
X135620Y-53494D02*
D03*
X120380D02*
D03*
D14*
X133000Y-110506D02*
D03*
Y-94504D02*
D03*
X-140000Y74999D02*
D03*
Y91001D02*
D03*
D20*
X-227000Y100500D02*
D03*
Y109500D02*
D03*
X188178Y-65995D02*
D03*
Y-74994D02*
D03*
X264000Y41500D02*
D03*
Y50500D02*
D03*
X277000D02*
D03*
Y41500D02*
D03*
X139000Y-74994D02*
D03*
Y-83994D02*
D03*
X160000Y19500D02*
D03*
Y28500D02*
D03*
X150678Y-83994D02*
D03*
Y-74994D02*
D03*
X170678D02*
D03*
Y-83994D02*
D03*
X267000Y-12500D02*
D03*
Y-3500D02*
D03*
X200000Y21500D02*
D03*
Y12500D02*
D03*
X279000Y-3500D02*
D03*
Y-12500D02*
D03*
X188000Y21500D02*
D03*
Y12500D02*
D03*
X236000Y-1500D02*
D03*
Y-10500D02*
D03*
X224000D02*
D03*
Y-1500D02*
D03*
X213000Y12500D02*
D03*
Y21500D02*
D03*
X-246450Y113000D02*
D03*
Y122000D02*
D03*
X166632Y-30029D02*
D03*
Y-21029D02*
D03*
X155000Y-29994D02*
D03*
Y-20994D02*
D03*
X-112000Y84500D02*
D03*
Y75500D02*
D03*
X148000Y28500D02*
D03*
Y19500D02*
D03*
D21*
X174000Y19620D02*
D03*
Y4380D02*
D03*
X117000Y-109620D02*
D03*
Y-94380D02*
D03*
D22*
X180544Y178589D02*
D03*
Y159513D02*
D03*
X157608Y169051D02*
D03*
D28*
X43750Y-142584D02*
D03*
X18750D02*
D03*
X-43750D02*
D03*
X-31250D02*
D03*
X-18750D02*
D03*
X-6250D02*
D03*
X6250D02*
D03*
X31250D02*
D03*
D31*
X170795Y116000D02*
D03*
X149205D02*
D03*
D40*
X43750Y-142584D02*
Y-123093D01*
X-11343Y-68000D02*
X43750Y-123093D01*
X-13000Y-72000D02*
X31250Y-116250D01*
X232000Y-14500D02*
X236000Y-10500D01*
X232000Y-17500D02*
Y-14500D01*
X268000Y-105000D02*
X283000Y-90000D01*
X235000Y-105000D02*
X268000D01*
X265000Y-101000D02*
X271000Y-95000D01*
X235000Y-101000D02*
X265000D01*
X271000Y-95000D02*
Y-82500D01*
X-293307Y-117500D02*
X-281700D01*
X-293307Y-87500D02*
X-281700D01*
X234500Y-67000D02*
Y-61500D01*
X283000Y-90000D02*
Y-69500D01*
X295000Y-57500D01*
X219500Y68000D02*
X225000D01*
X264000Y50500D02*
X277000D01*
X264000D02*
Y68209D01*
X-248500Y128500D02*
Y136000D01*
Y128500D02*
X-246450Y126450D01*
Y122000D02*
Y126450D01*
X-230244Y135756D02*
X-220699D01*
X-239491Y135990D02*
X-222080D01*
X-6250Y-142584D02*
Y-131000D01*
X-18750Y-142584D02*
Y-131000D01*
X41680Y-94680D02*
X60000Y-113000D01*
X31680Y-94680D02*
X41680D01*
X31540Y-94820D02*
X31680Y-94680D01*
X60000Y-113000D02*
X78500D01*
X170678Y-92683D02*
Y-85994D01*
X188178Y-81495D02*
Y-74994D01*
X180544Y159513D02*
X193513D01*
X204000Y170000D01*
X204300D01*
X46656Y154830D02*
Y180384D01*
X39884D02*
X46656D01*
X37500Y178000D02*
X39884Y180384D01*
X31500Y178000D02*
X37500D01*
X123230Y155230D02*
Y179230D01*
X116730D02*
X123230D01*
X108230Y177730D02*
X115230D01*
X116730Y179230D01*
X6250Y-154750D02*
Y-142584D01*
X-19000Y-161000D02*
X-0D01*
X6250Y-154750D01*
X-44380Y-161000D02*
X-39380Y-166000D01*
X6000D01*
X18750Y-153250D01*
Y-142584D01*
X5000Y178500D02*
X12000D01*
X81730Y178230D02*
X88730D01*
X31500Y154299D02*
Y164799D01*
X108230Y154299D02*
Y164797D01*
X234500Y-79000D02*
Y-67000D01*
X259500Y-12500D02*
X267000D01*
X-227000Y108908D02*
Y123000D01*
X-228000Y108908D02*
X-216515D01*
X-201003Y153997D02*
Y175642D01*
X-206544Y148456D02*
X-201003Y153997D01*
X-220699Y148456D02*
X-206544D01*
X-146354Y174853D02*
X-133853D01*
X-127831Y168831D01*
Y150546D02*
Y168831D01*
X-160147Y174853D02*
X-155354D01*
X-164819Y170181D02*
X-160147Y174853D01*
X-164819Y161156D02*
Y170181D01*
X-192003Y156793D02*
X-183666Y148456D01*
X-192003Y156793D02*
Y175642D01*
X188750Y-154000D02*
Y-140584D01*
X201250Y-154580D02*
Y-140584D01*
X15000Y0D02*
X20000Y-5000D01*
X15000Y-10000D02*
X20000Y-15000D01*
X35000Y-50000D02*
X40000Y-55000D01*
X10000Y-35000D02*
X15000Y-30000D01*
X30000Y-35000D02*
X35000Y-30000D01*
X25000Y-20000D02*
X30000Y-25000D01*
X-35000Y-50000D02*
X-30000Y-45000D01*
X-35000Y-60000D02*
X-30000Y-55000D01*
X-25000Y-60000D02*
X-20000Y-55000D01*
X-25000Y-50000D02*
X-20000Y-45000D01*
X-15000Y-50000D02*
X-10000Y-45000D01*
X-15000Y-60000D02*
X-10000Y-55000D01*
X-40000Y-35000D02*
X-35000Y-40000D01*
X-50000Y-35000D02*
X-40000D01*
X-35000Y-30000D02*
X-30000Y-25000D01*
X15000Y20000D02*
X20000Y25000D01*
X5000Y20000D02*
X10000Y25000D01*
X0Y25000D02*
Y25000D01*
Y25000D02*
X5000Y20000D01*
X15000Y10000D02*
X20000Y15000D01*
X-15000Y60000D02*
X-10000Y55000D01*
X-40000Y35000D02*
X-35000Y30000D01*
X-30000Y25000D02*
X-25000Y30000D01*
X-20000Y25000D02*
X-15000Y30000D01*
X-30000Y35000D02*
X-25000Y30000D01*
X-20000Y35000D02*
X-20000D01*
X-30000Y45000D02*
Y45000D01*
X-40000Y35000D02*
Y45000D01*
X-10000Y25000D02*
X-5000Y30000D01*
X-10000Y35000D02*
X-5000Y40000D01*
X-30000Y15000D02*
X-25000Y20000D01*
X-20000Y15000D02*
X-15000Y20000D01*
X-30000Y5000D02*
X-25000Y10000D01*
X-20000Y5000D02*
X-15000Y10000D01*
X-30000Y-5000D02*
X-25000Y0D01*
X-20000Y-5000D02*
X-15000Y0D01*
X15023Y-60023D02*
X20023Y-55023D01*
X30000Y55000D02*
X35000Y60000D01*
X30000Y45000D02*
X35000Y50000D01*
X20000Y35000D02*
X25000Y40000D01*
X30000Y35000D02*
X35000Y40000D01*
X40000Y25000D02*
X45000Y30000D01*
X40000Y-15000D02*
X45000Y-10000D01*
X40000Y5000D02*
X45000Y10000D01*
X55000Y-30000D02*
X60000Y-35000D01*
X55000Y0D02*
X60000Y-5000D01*
X45000Y-30000D02*
X50000Y-35000D01*
X60000Y25000D02*
X65000Y30000D01*
X60000Y15000D02*
X65000Y20000D01*
X60000Y5000D02*
X65000Y10000D01*
X65000Y30000D02*
X65000D01*
X60000Y35000D02*
X65000Y30000D01*
X5000Y-20000D02*
X10000Y-25000D01*
X40000D02*
X45000Y-20000D01*
X50000Y-25000D02*
X55000Y-20000D01*
X40000Y-5000D02*
X45000Y0D01*
X-20000Y35000D02*
X-15000Y40000D01*
X10000Y45000D02*
X15000Y40000D01*
X10000Y35000D02*
X15000Y30000D01*
X25000Y20000D02*
X30000Y25000D01*
X25000Y10000D02*
X30000Y15000D01*
X25000Y-0D02*
X30000Y5000D01*
X40000Y35000D02*
X45000Y40000D01*
X40000Y45000D02*
X40000D01*
X45000Y40000D01*
X50000Y35000D01*
X20000Y45000D02*
X25000Y40000D01*
Y50000D02*
X25000D01*
X20000Y45000D02*
X25000Y50000D01*
X20000Y55000D02*
X25000Y50000D01*
X20000Y35000D02*
X25000Y30000D01*
X45000Y20000D02*
X50000Y25000D01*
X40000Y55000D02*
X45000Y60000D01*
X-5000Y40000D02*
X0Y35000D01*
X20000Y-35000D02*
X25000Y-40000D01*
X20000Y-45000D02*
X25000Y-50000D01*
X40000Y-45000D02*
X45000Y-40000D01*
X35000Y-40000D02*
X40000Y-35000D01*
X20000Y-25000D02*
X25000Y-20000D01*
X-10000Y-35000D02*
X-5000Y-40000D01*
X0Y-35000D02*
Y-35000D01*
X-5000Y-40000D02*
X0Y-35000D01*
X-60000Y15000D02*
X-55000Y10000D01*
X-45000Y20000D02*
X-40000Y25000D01*
X-55000Y50000D02*
Y67000D01*
X-50000Y-45000D02*
Y-35000D01*
X-66674Y-28326D02*
Y-20000D01*
Y-28326D02*
X-60000Y-35000D01*
X-10000D02*
Y-25000D01*
X-15000Y-40000D02*
X-10000Y-35000D01*
X-20000D02*
X-15000Y-40000D01*
X45000Y20000D02*
X45000D01*
X50000Y15000D01*
Y-5000D02*
X55000Y-10000D01*
X-30000Y-15000D02*
X-25000Y-10000D01*
Y-10000D02*
Y-10000D01*
Y-10000D02*
X-20000Y-15000D01*
X-10000D02*
X0Y-25000D01*
X-10000Y25000D02*
X-5000Y20000D01*
X-40000Y55000D02*
X-30000D01*
X-25000Y60000D01*
X5000D02*
X10000Y55000D01*
X45000Y60000D02*
Y60000D01*
X50000Y5000D02*
Y15000D01*
X45000Y0D02*
X50000Y5000D01*
X45000Y0D02*
X45000D01*
X60000Y-25000D02*
X65000Y-20000D01*
X-15000Y0D02*
X-11431D01*
X65000Y10000D02*
X68569D01*
X-25000Y40000D02*
X-20000Y45000D01*
X-20000D01*
X-15000Y40000D01*
X-20000Y45000D02*
Y55000D01*
X-5000Y40000D02*
X-5000D01*
X-10000Y45000D02*
Y45000D01*
X-15000Y40000D02*
X-10000Y45000D01*
X-5000Y40000D01*
X-15000Y30000D02*
X-10000Y35000D01*
X-5000Y30000D02*
X0Y35000D01*
X-30000Y-35000D02*
Y-35000D01*
X-35000Y-40000D02*
X-30000Y-35000D01*
X0Y45000D02*
X5000Y40000D01*
X0Y45000D02*
Y55000D01*
X55000Y50000D02*
Y65000D01*
X-30000Y45000D02*
Y45000D01*
Y45000D02*
X-25000Y40000D01*
X-20000Y-25000D02*
X-15000Y-30000D01*
X31250Y-142584D02*
Y-116250D01*
X277000Y15000D02*
Y41500D01*
Y15000D02*
X284500Y7500D01*
X295000D01*
X259500Y-22000D02*
X274000D01*
X279000Y-17000D01*
Y-12500D01*
X-217500Y162741D02*
Y175642D01*
X148000Y8000D02*
Y19500D01*
X199840Y-2840D02*
Y6660D01*
X224000Y-26000D02*
Y-10500D01*
X234500Y-61500D02*
X243700Y-52300D01*
X181000Y-7340D02*
X187979Y-361D01*
Y12479D01*
X200000Y-3000D02*
Y12500D01*
X213000Y1431D02*
X215931Y-1500D01*
X241200D02*
X243700Y-4000D01*
X213000Y1431D02*
Y5000D01*
Y12500D01*
X215931Y-1500D02*
X219500D01*
X224000D01*
X236000D01*
X241200D01*
X243700Y-52300D02*
Y-4000D01*
X228000Y-128759D02*
Y-116000D01*
X224000Y-98000D02*
Y-92806D01*
X214000Y-78000D02*
X225000Y-67000D01*
X225500D01*
X228000Y-98000D02*
Y-91637D01*
X220110Y-79000D02*
X225500D01*
X206000Y-80494D02*
X208506Y-83000D01*
X216110D01*
X220110Y-79000D01*
X194500Y-110840D02*
X200840D01*
X206680Y-105000D01*
X217000D01*
X201000Y-99000D02*
X203000Y-101000D01*
X213000D01*
X194960Y-99000D02*
X201000D01*
X185658Y-110682D02*
Y-99110D01*
Y-93342D01*
X189323Y-89677D01*
X220871D01*
X224000Y-92806D01*
X201000Y-121000D02*
X222000D01*
X224000Y-119000D01*
Y-116000D01*
X179443Y-110840D02*
X185500D01*
X170506Y-129000D02*
Y-119778D01*
X179443Y-110840D01*
X-87000Y-72000D02*
X-13000D01*
X-48000Y-68000D02*
X-47000Y-67000D01*
X-85343Y-68000D02*
X-48000D01*
X-11343D01*
X-198000Y-39002D02*
Y-33612D01*
X-164612Y-74388D02*
Y-33000D01*
Y-74388D02*
X-137000Y-102000D01*
X-164612Y-7000D02*
Y5000D01*
X-198612Y31000D02*
X-164612D01*
X-234000Y-52500D02*
Y48000D01*
X-198612Y-7000D02*
Y5000D01*
X-229000Y-57610D02*
Y47343D01*
X-153999Y58250D02*
Y86000D01*
X-185501Y58250D02*
Y65499D01*
X-218093Y58250D02*
X-196001D01*
X-229000Y47343D02*
X-218093Y58250D01*
X-179999D02*
Y70999D01*
X-196001Y58250D02*
Y69999D01*
X-196000Y77186D02*
X-190499Y71685D01*
Y58250D02*
Y71685D01*
X-204814Y77186D02*
X-196000D01*
X-234000Y48000D02*
X-204814Y77186D01*
X-170001Y58250D02*
Y79999D01*
X-164499Y58250D02*
Y84499D01*
X-140000Y91001D02*
Y99000D01*
X-125000Y89100D02*
Y100000D01*
X-112000Y84500D02*
Y100000D01*
X-146000Y16000D02*
X-138000Y24000D01*
X-146000Y-13000D02*
X-87000Y-72000D01*
X-146000Y-13000D02*
Y16000D01*
X-142000Y13000D02*
X-138000Y17000D01*
X-142000Y-11343D02*
X-85343Y-68000D01*
X-142000Y-11343D02*
Y13000D01*
X289941Y-190000D02*
G03*
X299941Y-180000I0J10000D01*
G01*
Y180000D02*
G03*
X289941Y190000I-10000J0D01*
G01*
X-300000Y-180000D02*
G03*
X-290000Y-190000I10000J0D01*
G01*
Y190000D02*
G03*
X-300000Y180000I0J-10000D01*
G01*
X300000Y-180000D02*
Y180000D01*
X-300000Y-180000D02*
Y180000D01*
X-290000Y-190000D02*
X289941Y-190000D01*
X-290000Y190000D02*
X289941Y190000D01*
X-290000D02*
G03*
X-300000Y180000I0J-10000D01*
G01*
Y-180000D02*
G03*
X-290000Y-190000I10000J0D01*
G01*
X299941Y180000D02*
G03*
X289941Y190000I-10000J0D01*
G01*
Y-190000D02*
G03*
X299941Y-180000I0J10000D01*
G01*
X-290000Y190000D02*
X289941Y190000D01*
X-290000Y-190000D02*
X289941Y-190000D01*
X-300000Y-180000D02*
Y180000D01*
X300000Y-180000D02*
Y180000D01*
D41*
X251000Y21000D02*
X268500D01*
D43*
X120000Y-67494D02*
Y-53874D01*
Y-72494D02*
Y-67494D01*
Y-53874D02*
X120380Y-53494D01*
X-46000Y129000D02*
X-34000D01*
X-46000D02*
Y132603D01*
X263000Y500D02*
Y1000D01*
Y500D02*
X267000Y-3500D01*
X279000D01*
X189000Y78000D02*
X228296D01*
X148000Y28500D02*
Y37000D01*
X166632Y-35862D02*
Y-30029D01*
Y-21029D02*
Y-19361D01*
X160632Y-13361D02*
X166632Y-19361D01*
X155000Y-18993D02*
X160632Y-13361D01*
X155000Y-20994D02*
Y-18993D01*
X192500Y-35494D02*
Y-29994D01*
X-69000Y-171334D02*
Y-148000D01*
X180500Y-65995D02*
X188178D01*
X170678Y-74994D02*
Y-68600D01*
X139000Y-74994D02*
X150678D01*
Y-68600D01*
X155000Y-35828D02*
Y-29994D01*
X176000Y-35494D02*
X183500D01*
X170000Y180000D02*
X179133D01*
X133000D02*
X141000D01*
X-119000Y-181000D02*
X-110000D01*
X-125000Y-176000D02*
X-110000D01*
X-235000Y175642D02*
X-226500D01*
X22000Y154299D02*
Y164230D01*
X98730Y154299D02*
Y164230D01*
X171795Y115000D02*
X182000D01*
X216000Y-141000D02*
X223000D01*
X132000Y145000D02*
Y154600D01*
X132230D02*
Y167230D01*
X193845Y-35386D02*
X201532D01*
X193845Y-35680D02*
Y-35386D01*
X12500Y129500D02*
Y150730D01*
X89230Y128730D02*
Y150730D01*
X55656Y154830D02*
Y167031D01*
Y147156D02*
Y154830D01*
X135000Y-180000D02*
X141584D01*
X71002Y-167002D02*
X83663D01*
X71000Y-169834D02*
Y-147000D01*
X246416Y-183000D02*
X258000D01*
X240000Y-171584D02*
Y-150000D01*
X-61834Y-179000D02*
X-1000D01*
X61834D01*
X34795Y109000D02*
X54000D01*
X42000Y109000D02*
X47000Y104000D01*
X34000Y106205D02*
X53205D01*
X51851Y-65297D02*
Y-53149D01*
X204000Y68000D02*
X209500D01*
X174000Y-11494D02*
Y4380D01*
Y-11494D02*
X192500Y-29994D01*
X144000Y-19000D02*
X160000Y-3000D01*
X144000Y-45114D02*
Y-19000D01*
X135620Y-53494D02*
X144000Y-45114D01*
X160000Y-3000D02*
Y19500D01*
X173880D01*
X148000Y28500D02*
X160000D01*
X251000Y-76000D02*
Y55296D01*
X228296Y78000D02*
X251000Y55296D01*
X229934Y-89703D02*
X237297D01*
X251000Y-76000D01*
X176250Y-140584D02*
Y-134744D01*
X133178Y-83744D02*
X138750D01*
X143494Y-110506D02*
X161000Y-93000D01*
X150678Y-68600D02*
X161000D01*
X170678D01*
X161000Y-93000D02*
Y-68600D01*
X170506Y-129000D02*
X176250Y-134744D01*
X133178Y-94326D02*
Y-83744D01*
X133000Y-94504D02*
X133178Y-94326D01*
X133000Y-110506D02*
X143494D01*
X133000Y-120000D02*
Y-110506D01*
X117000Y-120000D02*
X126000Y-129000D01*
X117000Y-120000D02*
Y-109620D01*
X126000Y-129000D02*
X170506D01*
X-139499Y75500D02*
X-112000D01*
Y69000D02*
Y75500D01*
X-206500Y109000D02*
X-199000D01*
X87500Y-113000D02*
Y-108500D01*
X101496Y-94504D01*
X133000D01*
X92000Y-83000D02*
Y-74000D01*
X98506Y-67494D01*
X-159000Y-143000D02*
X-143000D01*
X-137000Y-149000D01*
X99000Y-67000D02*
X109500D01*
D44*
X-34000Y129000D02*
X-26042D01*
X-20000Y137112D02*
X-5000D01*
X-58831Y137000D02*
X-48228D01*
X-164819Y135756D02*
X-131293D01*
X-183666Y148456D02*
X-164819D01*
X-59000Y129000D02*
X-50104D01*
X-53416Y-142584D02*
X-43750D01*
X-65000Y-131000D02*
X-53416Y-142584D01*
X-65000Y-131000D02*
Y-116000D01*
X-183666Y111334D02*
Y148456D01*
X174000Y19620D02*
Y39000D01*
X184000Y49000D01*
X193000D01*
Y45000D02*
Y53000D01*
X-245700Y-99300D02*
X-229000Y-116000D01*
X-245700Y-99300D02*
Y49300D01*
X-183666Y111334D01*
X-124000Y-122000D02*
X-109000D01*
X-130000Y-116000D02*
X-124000Y-122000D01*
X-108000Y-147000D02*
Y-122000D01*
X-229000Y-116000D02*
X-130000D01*
D45*
X58000Y127795D02*
Y139000D01*
X65000Y146000D01*
X67205Y127795D02*
X73000Y122000D01*
X58000Y127795D02*
X67205D01*
X264000Y36000D02*
Y41500D01*
X-251950Y107500D02*
X-246450Y113000D01*
X-258000Y107500D02*
X-251950D01*
X262209Y130000D02*
X263778Y128431D01*
X252000Y130000D02*
X262209D01*
X150678Y-90494D02*
Y-83994D01*
X149000Y-92172D02*
X150678Y-90494D01*
X149000Y-94494D02*
Y-92172D01*
X-251000Y-148000D02*
X-238430D01*
X188000Y21500D02*
X213000D01*
Y28000D01*
X188000Y21500D02*
Y28000D01*
X56426Y180000D02*
X65000D01*
X-196001Y46750D02*
X-145250D01*
X-140000Y52000D01*
Y74999D01*
X-227000Y94000D02*
Y100500D01*
X-261500D02*
X-227000D01*
X-281700Y80300D02*
X-261500Y100500D01*
X-281700Y-52300D02*
Y80300D01*
Y-52300D02*
X-264000Y-70000D01*
D46*
X47000Y100000D02*
X53205Y106205D01*
X40000Y100000D02*
X47000D01*
D48*
X53993Y-154584D02*
X54000D01*
X27493Y-143984D02*
X27500D01*
X2493D02*
X2500D01*
X28993Y-154584D02*
X29000D01*
D49*
X-276200Y-132000D02*
D03*
Y132000D02*
D03*
X276200D02*
D03*
Y-132000D02*
D03*
X222000Y-47494D02*
D03*
X224491Y-37546D02*
D03*
X261000Y-133000D02*
D03*
X73000Y122000D02*
D03*
X264000Y36000D02*
D03*
X232000Y-42500D02*
D03*
X258158Y-4270D02*
D03*
X257730Y5842D02*
D03*
X263000Y1000D02*
D03*
X231698Y35046D02*
D03*
X226428Y39888D02*
D03*
X231270Y45158D02*
D03*
X230842Y55270D02*
D03*
X226000Y50000D02*
D03*
X-59000Y129000D02*
D03*
X40000Y100000D02*
D03*
X225000Y68000D02*
D03*
X-178648Y-57500D02*
D03*
X-206000Y-50000D02*
D03*
X-258000Y62500D02*
D03*
X-199000Y109000D02*
D03*
X-258000Y92500D02*
D03*
Y107500D02*
D03*
X-293307Y-117500D02*
D03*
Y107500D02*
D03*
Y122500D02*
D03*
X60000Y-140000D02*
D03*
X50000Y-125000D02*
D03*
X-96000Y105000D02*
D03*
X-108000D02*
D03*
X-120000D02*
D03*
X-132000D02*
D03*
X-144000D02*
D03*
X257000Y-67500D02*
D03*
X271000Y-62500D02*
D03*
X117000Y144000D02*
D03*
X-55000Y67000D02*
D03*
X160632Y93368D02*
D03*
X166632Y-35862D02*
D03*
X193000Y45000D02*
D03*
X148000Y37000D02*
D03*
X106000Y-178000D02*
D03*
X213000Y28000D02*
D03*
X188000D02*
D03*
X-156000Y105000D02*
D03*
X-198955Y-101000D02*
D03*
X-84000Y31639D02*
D03*
X92500Y-30072D02*
D03*
X-26000Y-118000D02*
D03*
Y-125000D02*
D03*
X-33000D02*
D03*
X-47000D02*
D03*
X-40000Y-118000D02*
D03*
X-47000D02*
D03*
X-33000D02*
D03*
X-258000Y122500D02*
D03*
X-234000Y77500D02*
D03*
X-258000Y47500D02*
D03*
X-245700Y-133049D02*
D03*
X-269500Y-107500D02*
D03*
X-293307Y-102500D02*
D03*
Y-77500D02*
D03*
Y-42500D02*
D03*
X-269500Y-17500D02*
D03*
X-293307Y-12500D02*
D03*
Y12500D02*
D03*
Y32500D02*
D03*
Y47500D02*
D03*
Y62500D02*
D03*
Y77500D02*
D03*
Y92500D02*
D03*
X-156270Y117000D02*
D03*
X-163270D02*
D03*
X-34000Y129000D02*
D03*
X-58831Y137000D02*
D03*
X223000Y-141000D02*
D03*
X257000Y-82500D02*
D03*
X189000Y78000D02*
D03*
X7000Y102000D02*
D03*
X180500Y-65995D02*
D03*
X-82000Y24000D02*
D03*
X-142359Y-83431D02*
D03*
X-1000Y-179000D02*
D03*
X258000Y-183000D02*
D03*
X203000Y39000D02*
D03*
X176001Y88501D02*
D03*
X252000Y130000D02*
D03*
X170000Y180000D02*
D03*
X65000D02*
D03*
X98730Y164230D02*
D03*
X-4000Y152000D02*
D03*
X22000Y164230D02*
D03*
X-235000Y175642D02*
D03*
X31680Y-94680D02*
D03*
X132000Y145000D02*
D03*
X83608Y102449D02*
D03*
X-264363Y67500D02*
D03*
X-198500Y-142500D02*
D03*
X51851Y-65297D02*
D03*
X-5000Y137000D02*
D03*
X-69000Y-148000D02*
D03*
X182000Y115000D02*
D03*
X150678Y-68600D02*
D03*
X295000Y67500D02*
D03*
X-125000Y-176000D02*
D03*
X81730Y178230D02*
D03*
X-234000Y-92575D02*
D03*
X-40000Y-125000D02*
D03*
X170678Y-92683D02*
D03*
X71000Y-147000D02*
D03*
X228000Y-128759D02*
D03*
X201640Y-35554D02*
D03*
X231200Y22800D02*
D03*
X224354D02*
D03*
Y15298D02*
D03*
X231200D02*
D03*
X295000Y-32500D02*
D03*
X72000Y154000D02*
D03*
X141000Y180000D02*
D03*
X65000Y146000D02*
D03*
X-223500Y-181500D02*
D03*
X-170000Y117000D02*
D03*
X-251000Y-148000D02*
D03*
X-78000Y-140000D02*
D03*
X295000Y-87500D02*
D03*
X204000Y68000D02*
D03*
X75500Y-77200D02*
D03*
X212000Y149000D02*
D03*
X295000Y-22500D02*
D03*
Y-122500D02*
D03*
X257000Y-92500D02*
D03*
X170678Y-68600D02*
D03*
X176000Y-35494D02*
D03*
X155000Y-35828D02*
D03*
X-293307Y-87500D02*
D03*
X-264363Y52500D02*
D03*
X-269500Y57500D02*
D03*
X-264363Y37500D02*
D03*
X-269500Y42500D02*
D03*
X295000Y7500D02*
D03*
X120000Y-72494D02*
D03*
X295000Y-42500D02*
D03*
Y-77500D02*
D03*
X271000Y-82500D02*
D03*
X295000Y-57500D02*
D03*
X-269500Y72500D02*
D03*
X260500Y-45500D02*
D03*
X209000Y-62494D02*
D03*
X213000Y-45494D02*
D03*
X265000Y-32500D02*
D03*
Y-41069D02*
D03*
X217000Y-63494D02*
D03*
X232000Y-27500D02*
D03*
X149000Y-94494D02*
D03*
X133178Y-83744D02*
D03*
X188178Y-81495D02*
D03*
X-234000Y-52500D02*
D03*
X-229000Y-57610D02*
D03*
X-234000Y-82500D02*
D03*
X-229863Y-87500D02*
D03*
X160632Y-13361D02*
D03*
X257000Y-112500D02*
D03*
X-20000Y177000D02*
D03*
X-30000D02*
D03*
X-40000D02*
D03*
X-51000D02*
D03*
X-20000Y168000D02*
D03*
X-30000D02*
D03*
X-40000D02*
D03*
X-51000D02*
D03*
X5000Y178500D02*
D03*
X31500Y164799D02*
D03*
X108230D02*
D03*
X-159000Y-143000D02*
D03*
X-119000Y-181000D02*
D03*
X-6250Y-131000D02*
D03*
X-19000Y-161000D02*
D03*
X-44380D02*
D03*
X-18750Y-131000D02*
D03*
X213000Y1431D02*
D03*
X271000Y-27500D02*
D03*
X207000Y-40494D02*
D03*
X193000Y53000D02*
D03*
X259500Y-12500D02*
D03*
Y-22000D02*
D03*
X240000Y-150000D02*
D03*
X229934Y-89703D02*
D03*
X161000Y157000D02*
D03*
X125000Y120000D02*
D03*
X130000Y112000D02*
D03*
X169500Y140500D02*
D03*
X-227000Y94000D02*
D03*
X263366Y-87500D02*
D03*
X55656Y147156D02*
D03*
X231000Y115000D02*
D03*
X-220000Y-97500D02*
D03*
X135000Y-180000D02*
D03*
X124750Y-177750D02*
D03*
X83663Y-167002D02*
D03*
X188750Y-154000D02*
D03*
X201250Y-154580D02*
D03*
X263366Y-117500D02*
D03*
X196250Y-166000D02*
D03*
X208750D02*
D03*
X221250D02*
D03*
X171000D02*
D03*
X-273000Y179000D02*
D03*
X-285000Y152000D02*
D03*
X-289000Y163000D02*
D03*
X-262000Y174000D02*
D03*
X-273000Y147000D02*
D03*
X-285000Y174000D02*
D03*
X-257000Y163000D02*
D03*
X-262000Y151000D02*
D03*
X-273000Y-147000D02*
D03*
X-285000Y-174000D02*
D03*
X-289000Y-163000D02*
D03*
X-262000Y-152000D02*
D03*
X-273000Y-179000D02*
D03*
X-285000Y-152000D02*
D03*
X-257000Y-163000D02*
D03*
X-262000Y-175000D02*
D03*
X273000Y-147000D02*
D03*
X261000Y-174000D02*
D03*
X257000Y-163000D02*
D03*
X284000Y-152000D02*
D03*
X273000Y-179000D02*
D03*
X261000Y-152000D02*
D03*
X289000Y-163000D02*
D03*
X284000Y-175000D02*
D03*
X273000Y179000D02*
D03*
X261000Y152000D02*
D03*
X257000Y163000D02*
D03*
X284000Y174000D02*
D03*
X273000Y147000D02*
D03*
X261000Y174000D02*
D03*
X289000Y163000D02*
D03*
X284000Y151000D02*
D03*
X15000Y0D02*
D03*
Y-10000D02*
D03*
X35000Y-50000D02*
D03*
X15000Y-30000D02*
D03*
X35000D02*
D03*
X25000Y-20000D02*
D03*
X-66674D02*
D03*
X-35000Y-50000D02*
D03*
Y-60000D02*
D03*
X-25000D02*
D03*
Y-50000D02*
D03*
X-15000D02*
D03*
Y-60000D02*
D03*
X-35000Y-40000D02*
D03*
X-35000Y-30000D02*
D03*
X15000Y20000D02*
D03*
X5000D02*
D03*
X15000Y10000D02*
D03*
X-25000Y60000D02*
D03*
X-15000D02*
D03*
X-35000Y30000D02*
D03*
X-25000Y30000D02*
D03*
X-15000D02*
D03*
X-5000D02*
D03*
X-25000Y20000D02*
D03*
X-15000D02*
D03*
X-25000Y10000D02*
D03*
X-15000D02*
D03*
X-25000Y0D02*
D03*
X15023Y-60023D02*
D03*
X25000Y50000D02*
D03*
X35000Y60000D02*
D03*
Y50000D02*
D03*
X25000Y40000D02*
D03*
X35000D02*
D03*
X45000Y30000D02*
D03*
Y-10000D02*
D03*
Y10000D02*
D03*
X55000Y-30000D02*
D03*
Y0D02*
D03*
X45000Y-30000D02*
D03*
X65000Y30000D02*
D03*
Y20000D02*
D03*
X68569Y10000D02*
D03*
X5000Y-20000D02*
D03*
X-15000Y-40000D02*
D03*
X45000Y-20000D02*
D03*
X55000D02*
D03*
X45000Y0D02*
D03*
X-15000Y40000D02*
D03*
X15000Y40000D02*
D03*
Y30000D02*
D03*
X25000Y20000D02*
D03*
Y10000D02*
D03*
Y-0D02*
D03*
X45000Y40000D02*
D03*
X25000Y30000D02*
D03*
X45000Y20000D02*
D03*
X45000Y60000D02*
D03*
X25000Y-40000D02*
D03*
Y-50000D02*
D03*
X45000Y-40000D02*
D03*
X35000Y-40000D02*
D03*
X-5000D02*
D03*
X-55000Y10000D02*
D03*
X-45000Y20000D02*
D03*
X76000Y67270D02*
D03*
X-138000Y24000D02*
D03*
Y17000D02*
D03*
X-85000Y-93000D02*
D03*
X160632Y66000D02*
D03*
X55000Y-10000D02*
D03*
X20000Y76000D02*
D03*
X-25000Y-10000D02*
D03*
X-10000Y-15000D02*
D03*
X-5000Y20000D02*
D03*
X-10015Y78770D02*
D03*
X7000Y96000D02*
D03*
X43000Y72000D02*
D03*
X5000Y60000D02*
D03*
X20000Y68000D02*
D03*
X-2000Y78770D02*
D03*
X-9767Y70706D02*
D03*
X-1702Y70954D02*
D03*
X84000Y67270D02*
D03*
X76000Y59270D02*
D03*
X84000D02*
D03*
X124904Y56770D02*
D03*
X98412Y100412D02*
D03*
X65000Y-20000D02*
D03*
X-76000Y-22000D02*
D03*
X-11431Y0D02*
D03*
X-55000Y-10000D02*
D03*
X88500Y44500D02*
D03*
Y32802D02*
D03*
X-46000Y-60000D02*
D03*
X-34500Y81500D02*
D03*
X-25000Y40000D02*
D03*
X5000D02*
D03*
X-38596Y64404D02*
D03*
X55000Y65000D02*
D03*
X144000Y88000D02*
D03*
X-15000Y-30000D02*
D03*
X-202000Y-80000D02*
D03*
X-187250Y-86750D02*
D03*
X47000Y100000D02*
D03*
X-16000Y102000D02*
D03*
X-136000Y-8000D02*
D03*
X6299Y-63634D02*
D03*
X148000Y-3569D02*
D03*
Y8000D02*
D03*
X120000Y-29494D02*
D03*
X117000Y40000D02*
D03*
X206000Y-80494D02*
D03*
X211500Y-71994D02*
D03*
X214000Y-78000D02*
D03*
X181000Y-7340D02*
D03*
X224000Y-26000D02*
D03*
X197000Y-11000D02*
D03*
X200000Y-3000D02*
D03*
X232000Y-17500D02*
D03*
X165270Y-139730D02*
D03*
X153270Y-139730D02*
D03*
X141270Y-139730D02*
D03*
X201000Y-99000D02*
D03*
X179000Y-121000D02*
D03*
X201000D02*
D03*
Y-111000D02*
D03*
X133000Y-120000D02*
D03*
X164000D02*
D03*
X135000Y-155230D02*
D03*
X117000Y-120000D02*
D03*
X-112000Y69000D02*
D03*
X-198000Y-41000D02*
D03*
X-137000Y-102000D02*
D03*
X-154000Y86000D02*
D03*
X-185501Y65499D02*
D03*
X-179999Y70999D02*
D03*
X-196001Y69999D02*
D03*
X-196000Y77186D02*
D03*
X-170001Y79999D02*
D03*
X-164499Y84499D02*
D03*
X-264000Y-70000D02*
D03*
X92011Y-93000D02*
D03*
X92000Y-83000D02*
D03*
X109000Y-39000D02*
D03*
X80500Y7698D02*
D03*
X88500Y21000D02*
D03*
X-220000Y-172500D02*
D03*
D50*
X-273000Y163000D02*
D03*
X273000D02*
D03*
X-273000Y-163000D02*
D03*
X273000D02*
D03*
D51*
X229700Y170000D02*
D03*
D52*
X204300D02*
D03*
D53*
X-146563Y149244D02*
D03*
D57*
X263778Y68431D02*
D03*
Y128431D02*
D03*
D58*
X-108000Y-147000D02*
D03*
Y-179000D02*
D03*
D59*
X-222080Y161390D02*
D03*
Y148691D02*
D03*
Y135990D02*
D03*
Y123291D02*
D03*
X-166200D02*
D03*
Y135990D02*
D03*
Y148691D02*
D03*
D60*
Y161390D02*
D03*
D61*
X-164612Y5000D02*
D03*
Y31000D02*
D03*
X-198612D02*
D03*
Y5000D02*
D03*
Y-7000D02*
D03*
Y-33000D02*
D03*
X-164612D02*
D03*
Y-7000D02*
D03*
D62*
X-46251Y154443D02*
D03*
Y132853D02*
D03*
X57000Y113825D02*
D03*
Y135415D02*
D03*
X-22189Y132853D02*
D03*
Y154443D02*
D03*
D63*
X13000Y136000D02*
D03*
X35000Y114000D02*
D03*
X89000Y136000D02*
D03*
X111000Y114000D02*
D03*
D64*
X240000Y-171584D02*
D03*
X150000D02*
D03*
X69250D02*
D03*
X-69250D02*
D03*
D65*
X176250Y-140584D02*
D03*
X188750D02*
D03*
X201250D02*
D03*
X213750D02*
D03*
D66*
X-238750Y-147000D02*
D03*
X-139250D02*
D03*
D67*
X-281700Y-87500D02*
D03*
Y-117500D02*
D03*
X-220000Y-97500D02*
D03*
X261000Y-133000D02*
D03*
D68*
X-65000Y-121000D02*
D03*
X-109000D02*
D03*
D69*
X-127831Y150546D02*
D03*
X-86331D02*
D03*
D70*
X-60000Y35000D02*
D03*
Y25000D02*
D03*
Y15000D02*
D03*
Y5000D02*
D03*
Y-5000D02*
D03*
Y-15000D02*
D03*
Y-25000D02*
D03*
Y-35000D02*
D03*
X60000Y35000D02*
D03*
Y25000D02*
D03*
Y15000D02*
D03*
Y5000D02*
D03*
Y-5000D02*
D03*
Y-15000D02*
D03*
Y-25000D02*
D03*
Y-35000D02*
D03*
X-40000Y55000D02*
D03*
X-30000D02*
D03*
X-20000D02*
D03*
X-10000D02*
D03*
X0D02*
D03*
X10000D02*
D03*
X20000D02*
D03*
X30000D02*
D03*
X40000D02*
D03*
X-40000Y-55000D02*
D03*
X-30000D02*
D03*
X-20000D02*
D03*
X-10000D02*
D03*
X0D02*
D03*
X10000D02*
D03*
X20000D02*
D03*
X30000D02*
D03*
X40000D02*
D03*
X55000Y-50000D02*
D03*
X50000Y-35000D02*
D03*
Y-25000D02*
D03*
Y-15000D02*
D03*
Y-5000D02*
D03*
Y5000D02*
D03*
Y15000D02*
D03*
Y25000D02*
D03*
Y35000D02*
D03*
X40000Y-45000D02*
D03*
Y-35000D02*
D03*
Y-25000D02*
D03*
Y-15000D02*
D03*
Y-5000D02*
D03*
Y5000D02*
D03*
Y15000D02*
D03*
Y25000D02*
D03*
Y35000D02*
D03*
Y45000D02*
D03*
X30000Y-45000D02*
D03*
Y-35000D02*
D03*
Y-25000D02*
D03*
Y-15000D02*
D03*
Y-5000D02*
D03*
Y5000D02*
D03*
Y15000D02*
D03*
Y25000D02*
D03*
Y35000D02*
D03*
Y45000D02*
D03*
X20000Y-45000D02*
D03*
Y-35000D02*
D03*
Y-25000D02*
D03*
Y-15000D02*
D03*
Y-5000D02*
D03*
Y5000D02*
D03*
Y15000D02*
D03*
Y25000D02*
D03*
Y35000D02*
D03*
Y45000D02*
D03*
X10000Y-45000D02*
D03*
Y-35000D02*
D03*
Y-25000D02*
D03*
Y25000D02*
D03*
Y35000D02*
D03*
Y45000D02*
D03*
X0Y-45000D02*
D03*
Y-35000D02*
D03*
Y-25000D02*
D03*
Y25000D02*
D03*
Y35000D02*
D03*
Y45000D02*
D03*
X-10000Y-45000D02*
D03*
Y-35000D02*
D03*
Y-25000D02*
D03*
Y25000D02*
D03*
Y35000D02*
D03*
Y45000D02*
D03*
X-20000Y-45000D02*
D03*
Y-35000D02*
D03*
Y-25000D02*
D03*
Y-15000D02*
D03*
Y-5000D02*
D03*
Y5000D02*
D03*
Y15000D02*
D03*
Y25000D02*
D03*
Y35000D02*
D03*
Y45000D02*
D03*
X-30000Y-45000D02*
D03*
Y-35000D02*
D03*
Y-25000D02*
D03*
Y-15000D02*
D03*
Y-5000D02*
D03*
Y5000D02*
D03*
Y15000D02*
D03*
Y25000D02*
D03*
Y35000D02*
D03*
Y45000D02*
D03*
X-40000Y-45000D02*
D03*
Y-35000D02*
D03*
Y-25000D02*
D03*
Y-15000D02*
D03*
Y-5000D02*
D03*
Y5000D02*
D03*
Y15000D02*
D03*
Y25000D02*
D03*
Y35000D02*
D03*
Y45000D02*
D03*
X-50000Y-35000D02*
D03*
Y-25000D02*
D03*
Y-15000D02*
D03*
Y-5000D02*
D03*
Y5000D02*
D03*
Y15000D02*
D03*
Y25000D02*
D03*
Y35000D02*
D03*
D71*
X55000Y50000D02*
D03*
X-55000Y-50000D02*
D03*
Y50000D02*
D03*
D72*
X-179999Y47750D02*
D03*
X-196001D02*
D03*
Y58250D02*
D03*
X-179999D02*
D03*
X-153999Y47750D02*
D03*
X-170001D02*
D03*
Y58250D02*
D03*
X-153999D02*
D03*
D73*
X-185501Y47750D02*
D03*
X-190499D02*
D03*
Y58250D02*
D03*
X-185501D02*
D03*
X-159501Y47750D02*
D03*
X-164499D02*
D03*
Y58250D02*
D03*
X-159501D02*
D03*
D74*
X224000Y-98000D02*
D03*
X228000D02*
D03*
Y-116000D02*
D03*
X224000D02*
D03*
D75*
X235000Y-101000D02*
D03*
Y-105000D02*
D03*
Y-109000D02*
D03*
Y-113000D02*
D03*
X217000D02*
D03*
Y-109000D02*
D03*
Y-105000D02*
D03*
Y-101000D02*
D03*
D76*
X-125000Y89100D02*
D03*
Y74900D02*
D03*
D77*
X-164620Y23876D02*
D03*
X-198615Y12128D02*
D03*
X-198610Y-25880D02*
D03*
X-164616Y-14127D02*
D03*
D78*
X-110000Y-1000D02*
D03*
X110000Y-1000D02*
D03*
M02*
