%FSLAX44Y44*%
%MOMM*%
G71*
G01*
G75*
%ADD10R,1.8000X0.2500*%
%ADD11R,0.5000X0.6000*%
%ADD12R,0.5000X1.1000*%
%ADD13R,0.8128X0.8128*%
%ADD14R,1.0160X0.8890*%
%ADD15R,2.4000X1.2500*%
%ADD16R,1.2000X1.2500*%
%ADD17R,0.8890X1.0160*%
%ADD18R,1.6002X1.2954*%
%ADD19R,0.7600X1.5200*%
%ADD20R,0.6000X0.5000*%
%ADD21R,0.8128X0.8128*%
%ADD22R,1.0668X0.8128*%
G04:AMPARAMS|DCode=23|XSize=0.22mm|YSize=0.8mm|CornerRadius=0mm|HoleSize=0mm|Usage=FLASHONLY|Rotation=90.000|XOffset=0mm|YOffset=0mm|HoleType=Round|Shape=RoundedRectangle|*
%AMROUNDEDRECTD23*
21,1,0.2200,0.8000,0,0,90.0*
21,1,0.2200,0.8000,0,0,90.0*
1,1,0.0000,0.4000,0.1100*
1,1,0.0000,0.4000,-0.1100*
1,1,0.0000,-0.4000,-0.1100*
1,1,0.0000,-0.4000,0.1100*
%
%ADD23ROUNDEDRECTD23*%
G04:AMPARAMS|DCode=24|XSize=0.22mm|YSize=0.8mm|CornerRadius=0mm|HoleSize=0mm|Usage=FLASHONLY|Rotation=0.000|XOffset=0mm|YOffset=0mm|HoleType=Round|Shape=RoundedRectangle|*
%AMROUNDEDRECTD24*
21,1,0.2200,0.8000,0,0,0.0*
21,1,0.2200,0.8000,0,0,0.0*
1,1,0.0000,0.1100,-0.4000*
1,1,0.0000,-0.1100,-0.4000*
1,1,0.0000,-0.1100,0.4000*
1,1,0.0000,0.1100,0.4000*
%
%ADD24ROUNDEDRECTD24*%
%ADD25R,4.3000X4.3000*%
%ADD26R,0.6000X0.7000*%
%ADD27R,1.2000X1.4000*%
%ADD28R,0.8000X1.6000*%
%ADD29P,1.8385X4X90.0*%
%ADD30R,1.2700X0.5080*%
%ADD31R,1.3970X1.3970*%
%ADD32R,1.2000X1.6000*%
%ADD33R,1.5000X0.4000*%
%ADD34R,1.2000X2.2000*%
%ADD35R,1.6000X1.4000*%
%ADD36R,1.1000X1.4000*%
%ADD37R,0.7000X1.6000*%
%ADD38R,1.4000X1.2000*%
%ADD39R,1.4000X0.6000*%
%ADD40C,0.2000*%
%ADD41C,0.2540*%
%ADD42C,0.1270*%
%ADD43C,0.4000*%
%ADD44C,0.6000*%
%ADD45C,0.3000*%
%ADD46C,1.0000*%
%ADD47C,0.5000*%
%ADD48C,0.0254*%
%ADD49C,0.5000*%
G04:AMPARAMS|DCode=50|XSize=4mm|YSize=4mm|CornerRadius=2mm|HoleSize=0mm|Usage=FLASHONLY|Rotation=0.000|XOffset=0mm|YOffset=0mm|HoleType=Round|Shape=RoundedRectangle|*
%AMROUNDEDRECTD50*
21,1,4.0000,0.0000,0,0,0.0*
21,1,0.0000,4.0000,0,0,0.0*
1,1,4.0000,0.0000,0.0000*
1,1,4.0000,0.0000,0.0000*
1,1,4.0000,0.0000,0.0000*
1,1,4.0000,0.0000,0.0000*
%
%ADD50ROUNDEDRECTD50*%
%ADD51R,1.5240X1.5240*%
%ADD52C,1.5240*%
%ADD53C,0.3000*%
%ADD54C,4.4000*%
%ADD55C,0.8000*%
%ADD56C,3.6000*%
%ADD57R,1.2000X2.0000*%
%ADD58R,1.6000X1.2000*%
%ADD59O,2.0320X0.6096*%
%ADD60R,2.0320X0.6096*%
%ADD61R,2.3500X0.7250*%
%ADD62R,1.3970X1.3970*%
%ADD63P,1.8385X4X180.0*%
%ADD64R,2.1000X3.0000*%
%ADD65R,0.8000X2.1000*%
%ADD66R,1.6000X2.2000*%
%ADD67C,0.8000*%
G04:AMPARAMS|DCode=68|XSize=2mm|YSize=2mm|CornerRadius=0mm|HoleSize=0mm|Usage=FLASHONLY|Rotation=180.000|XOffset=0mm|YOffset=0mm|HoleType=Round|Shape=RoundedRectangle|*
%AMROUNDEDRECTD68*
21,1,2.0000,2.0000,0,0,180.0*
21,1,2.0000,2.0000,0,0,180.0*
1,1,0.0000,-1.0000,1.0000*
1,1,0.0000,1.0000,1.0000*
1,1,0.0000,1.0000,-1.0000*
1,1,0.0000,-1.0000,-1.0000*
%
%ADD68ROUNDEDRECTD68*%
%ADD69R,2.1500X6.3000*%
%ADD70C,0.6000*%
%ADD71R,1.6000X1.6000*%
%ADD72R,0.4064X0.5500*%
%ADD73R,0.3048X0.5500*%
%ADD74R,0.2000X0.7500*%
%ADD75R,0.7500X0.2000*%
%ADD76R,0.7000X0.6000*%
%ADD77R,2.3500X1.9250*%
%ADD78C,4.0000*%
%ADD79C,0.1250*%
%ADD80C,0.1524*%
%ADD81C,0.1200*%
%ADD82C,0.2032*%
%ADD83C,0.1000*%
G36*
X-151313Y-126717D02*
X-158250Y-133654D01*
Y-119779D01*
X-151313Y-126717D01*
D02*
G37*
D40*
X-290000Y190000D02*
G03*
X-300000Y180000I0J-10000D01*
G01*
Y-180000D02*
G03*
X-290000Y-190000I10000J0D01*
G01*
X299941Y180000D02*
G03*
X289941Y190000I-10000J0D01*
G01*
Y-190000D02*
G03*
X299941Y-180000I0J10000D01*
G01*
X128428Y-83744D02*
X133178D01*
X128428D02*
Y-78994D01*
X130678Y-81495D02*
Y-78994D01*
Y-21495D02*
X133178D01*
X130678Y-23995D02*
Y-21495D01*
X188178D02*
X190678D01*
Y-23995D02*
Y-21495D01*
Y-81495D02*
Y-78994D01*
X188178Y-81495D02*
X190678D01*
X130678D02*
X133178D01*
Y-83744D02*
Y-78994D01*
X128428D02*
X133178D01*
X-290000Y190000D02*
X289941Y190000D01*
X300000Y-180000D02*
Y180000D01*
X-290000Y-190000D02*
X289941Y-190000D01*
X-300000Y-180000D02*
Y180000D01*
X289941Y-190000D02*
G03*
X299941Y-180000I0J10000D01*
G01*
Y180000D02*
G03*
X289941Y190000I-10000J0D01*
G01*
X-300000Y-180000D02*
G03*
X-290000Y-190000I10000J0D01*
G01*
Y190000D02*
G03*
X-300000Y180000I0J-10000D01*
G01*
X300000Y-180000D02*
Y180000D01*
X-300000Y-180000D02*
Y180000D01*
X-290000Y-190000D02*
X289941Y-190000D01*
X-290000Y190000D02*
X289941Y190000D01*
D42*
X56726Y-103140D02*
G03*
X56726Y-103140I-4387J0D01*
G01*
X-146883Y48951D02*
Y49471D01*
X-171353D02*
X-146883D01*
X-171353Y48951D02*
Y49471D01*
Y48951D02*
X-146883D01*
X-189629Y59448D02*
Y131448D01*
Y158448D02*
Y189188D01*
X-164629D01*
X-142629Y182188D01*
X-42629D01*
Y158448D02*
Y182188D01*
Y59448D02*
Y131448D01*
D48*
X53993Y-154584D02*
X54000D01*
X27493Y-143984D02*
X27500D01*
X2493D02*
X2500D01*
X28993Y-154584D02*
X29000D01*
D79*
X-4000Y127000D02*
G03*
X-4000Y127000I-2500J0D01*
G01*
X150728Y114191D02*
G03*
X150731Y118000I637J1904D01*
G01*
X150728Y118001D02*
G03*
X150731Y121810I637J1904D01*
G01*
X27999Y91728D02*
G03*
X24190Y91731I-1904J637D01*
G01*
X31809Y91728D02*
G03*
X28000Y91731I-1904J637D01*
G01*
X-176204Y-104810D02*
G03*
X-176204Y-104810I-1796J0D01*
G01*
Y-101000D02*
G03*
X-176204Y-101000I-1796J0D01*
G01*
Y-97190D02*
G03*
X-176204Y-97190I-1796J0D01*
G01*
X130001Y95272D02*
G03*
X133810Y95269I1904J-637D01*
G01*
X126191Y95272D02*
G03*
X130000Y95269I1904J-637D01*
G01*
X-37620Y80080D02*
X-30000D01*
Y69920D02*
Y80080D01*
X-37620Y69920D02*
X-30000D01*
Y80080D02*
X-22380D01*
X-30000Y69920D02*
Y80080D01*
Y69920D02*
X-22380D01*
X-16000Y100500D02*
Y105500D01*
X-18500Y103000D02*
X-13500D01*
X-30500Y109000D02*
X-1500D01*
X-30500Y97000D02*
Y109000D01*
Y97000D02*
X-1500D01*
Y101750D01*
X-3313D02*
X-1500D01*
X-3313D02*
Y104250D01*
X-1500D01*
Y109000D01*
X141840Y124350D02*
X165970D01*
Y111650D02*
Y124350D01*
X138030Y111650D02*
X165970D01*
X138030D02*
Y124350D01*
X141840D01*
X152000Y112000D02*
Y114190D01*
Y121810D02*
Y124000D01*
X-150620Y-31000D02*
X-148080D01*
X-146810Y-29730D01*
X-144270Y-32270D01*
X-141730Y-29730D01*
X-139190Y-32270D01*
X-137920Y-31000D01*
X-135380D01*
X-150620Y-46240D02*
Y-34810D01*
Y-46240D02*
X-135380D01*
Y-34810D01*
X-150620Y-27190D02*
Y-15760D01*
X-135380D01*
Y-27190D02*
Y-15760D01*
X-2620Y161500D02*
X12620D01*
X-2620Y148800D02*
Y174200D01*
X12620Y148800D02*
Y174200D01*
X-164500Y-136467D02*
Y-134467D01*
Y-118967D02*
Y-116967D01*
X-136750Y-136217D02*
Y-134717D01*
X-136750Y-118717D02*
X-136750Y-116967D01*
X-134500Y-136467D02*
Y-134717D01*
Y-118717D02*
Y-116967D01*
X-164500D02*
X-134500D01*
X-164500Y-136467D02*
X-134500D01*
X-135500Y-118717D02*
X-135500Y-116967D01*
Y-136217D02*
Y-134717D01*
X-136750D02*
X-134500D01*
X-136750Y-118717D02*
X-134500D01*
X111300Y127380D02*
X136700D01*
X111300Y142620D02*
X136700D01*
X124000Y127380D02*
Y142620D01*
X82962Y67270D02*
Y69269D01*
X77963D02*
X82962D01*
X77963Y67270D02*
Y69269D01*
Y67270D02*
X82962D01*
Y85271D02*
Y87270D01*
X77963D02*
X82962D01*
X77963Y85271D02*
Y87270D01*
Y85271D02*
X82962D01*
Y67270D02*
Y69269D01*
X50963Y67270D02*
X82962D01*
X50963D02*
Y69269D01*
Y85271D02*
Y87270D01*
X82962D01*
Y85271D02*
Y87270D01*
X48000Y109380D02*
Y124620D01*
X35300Y109380D02*
X60700D01*
X35300Y124620D02*
X60700D01*
X155920Y145000D02*
X157190Y146270D01*
X159730Y143730D01*
X162270Y146270D01*
X164810Y143730D01*
X166080Y145000D01*
X155920Y136110D02*
Y141190D01*
Y136110D02*
X166080D01*
Y141190D01*
X155920Y148810D02*
Y153890D01*
X166080D01*
Y148810D02*
Y153890D01*
X87000Y141080D02*
X88270Y139810D01*
X85730Y137270D02*
X88270Y139810D01*
X85730Y137270D02*
X88270Y134730D01*
X85730Y132190D02*
X88270Y134730D01*
X85730Y132190D02*
X87000Y130920D01*
X78110Y141080D02*
X83190D01*
X78110Y130920D02*
Y141080D01*
Y130920D02*
X83190D01*
X90810Y141080D02*
X95890D01*
Y130920D02*
Y141080D01*
X90810Y130920D02*
X95890D01*
X1920Y105380D02*
Y113000D01*
X12080D01*
Y105380D02*
Y113000D01*
X1920D02*
Y120620D01*
Y113000D02*
X12080D01*
Y120620D01*
X24380Y77080D02*
X32000D01*
Y66920D02*
Y77080D01*
X24380Y66920D02*
X32000D01*
Y77080D02*
X39620D01*
X32000Y66920D02*
Y77080D01*
Y66920D02*
X39620D01*
X145080Y-152000D02*
X146350Y-150730D01*
X142540Y-149460D02*
X145080Y-152000D01*
X140000D02*
X142540Y-149460D01*
X137460D02*
X140000Y-152000D01*
X136190Y-150730D02*
X137460Y-149460D01*
X146350Y-146920D02*
Y-141840D01*
X136190D02*
X146350D01*
X136190Y-146920D02*
Y-141840D01*
X146350Y-159620D02*
Y-154540D01*
X136190Y-159620D02*
X146350D01*
X136190D02*
Y-154540D01*
X157080Y-152000D02*
X158350Y-150730D01*
X154540Y-149460D02*
X157080Y-152000D01*
X152000D02*
X154540Y-149460D01*
X149460D02*
X152000Y-152000D01*
X148190Y-150730D02*
X149460Y-149460D01*
X158350Y-146920D02*
Y-141840D01*
X148190D02*
X158350D01*
X148190Y-146920D02*
Y-141840D01*
X158350Y-159620D02*
Y-154540D01*
X148190Y-159620D02*
X158350D01*
X148190D02*
Y-154540D01*
X169080Y-152000D02*
X170350Y-150730D01*
X166540Y-149460D02*
X169080Y-152000D01*
X164000D02*
X166540Y-149460D01*
X161460D02*
X164000Y-152000D01*
X160190Y-150730D02*
X161460Y-149460D01*
X170350Y-146920D02*
Y-141840D01*
X160190D02*
X170350D01*
X160190Y-146920D02*
Y-141840D01*
X170350Y-159620D02*
Y-154540D01*
X160190Y-159620D02*
X170350D01*
X160190D02*
Y-154540D01*
X22000Y93000D02*
X24190D01*
X31810D02*
X34000D01*
X21650Y79030D02*
Y82840D01*
Y79030D02*
X34350D01*
Y106970D01*
X21650D02*
X34350D01*
X21650Y82840D02*
Y106970D01*
X209810Y109920D02*
X214890D01*
Y120080D01*
X209810D02*
X214890D01*
X197110Y109920D02*
X202190D01*
X197110D02*
Y120080D01*
X202190D01*
X204730Y111190D02*
X206000Y109920D01*
X204730Y111190D02*
X207270Y113730D01*
X204730Y116270D02*
X207270Y113730D01*
X204730Y116270D02*
X207270Y118810D01*
X206000Y120080D02*
X207270Y118810D01*
X186348Y-110540D02*
Y-102920D01*
X196508D01*
Y-110540D02*
Y-102920D01*
X186348D02*
Y-95300D01*
Y-102920D02*
X196508D01*
Y-95300D01*
X-68000Y21730D02*
Y26270D01*
X-70270Y24000D02*
X-68000Y26270D01*
X-70270Y24000D02*
X-68000Y21730D01*
X-77000Y29500D02*
X-61000D01*
X-77000Y18500D02*
X-61000D01*
X-70000Y21000D02*
Y27000D01*
X-71000Y24033D02*
X-70000D01*
X-68000Y24000D02*
X-67000D01*
X-224920Y-177000D02*
Y-169380D01*
X-235080Y-177000D02*
X-224920D01*
X-235080D02*
Y-169380D01*
X-224920Y-184620D02*
Y-177000D01*
X-235080D02*
X-224920D01*
X-235080Y-184620D02*
Y-177000D01*
X114080Y-50000D02*
Y-42380D01*
X103920Y-50000D02*
X114080D01*
X103920D02*
Y-42380D01*
X114080Y-57620D02*
Y-50000D01*
X103920D02*
X114080D01*
X103920Y-57620D02*
Y-50000D01*
Y-77620D02*
Y-70000D01*
X114080D01*
Y-77620D02*
Y-70000D01*
X103920D02*
Y-62380D01*
Y-70000D02*
X114080D01*
Y-62380D01*
X135810Y50730D02*
X137080Y52000D01*
X133270Y53270D02*
X135810Y50730D01*
X130730D02*
X133270Y53270D01*
X128190D02*
X130730Y50730D01*
X126920Y52000D02*
X128190Y53270D01*
X137080Y55810D02*
Y60890D01*
X126920D02*
X137080D01*
X126920Y55810D02*
Y60890D01*
X137080Y43110D02*
Y48190D01*
X126920Y43110D02*
X137080D01*
X126920D02*
Y48190D01*
X120810Y50730D02*
X122080Y52000D01*
X118270Y53270D02*
X120810Y50730D01*
X115730D02*
X118270Y53270D01*
X113190D02*
X115730Y50730D01*
X111920Y52000D02*
X113190Y53270D01*
X122080Y55810D02*
Y60890D01*
X111920D02*
X122080D01*
X111920Y55810D02*
Y60890D01*
X122080Y43110D02*
Y48190D01*
X111920Y43110D02*
X122080D01*
X111920D02*
Y48190D01*
X113276Y-88494D02*
X114546Y-87224D01*
X117086Y-89764D01*
X119626Y-87224D01*
X122166Y-89764D01*
X123436Y-88494D01*
X113276Y-97384D02*
Y-92304D01*
Y-97384D02*
X123436D01*
Y-92304D01*
X113276Y-84684D02*
Y-79604D01*
X123436D01*
Y-84684D02*
Y-79604D01*
X108810Y50730D02*
X110080Y52000D01*
X106270Y53270D02*
X108810Y50730D01*
X103730D02*
X106270Y53270D01*
X101190D02*
X103730Y50730D01*
X99920Y52000D02*
X101190Y53270D01*
X110080Y55810D02*
Y60890D01*
X99920D02*
X110080D01*
X99920Y55810D02*
Y60890D01*
X110080Y43110D02*
Y48190D01*
X99920Y43110D02*
X110080D01*
X99920D02*
Y48190D01*
X138920Y52000D02*
X140190Y53270D01*
X142730Y50730D01*
X145270Y53270D01*
X147810Y50730D01*
X149080Y52000D01*
X138920Y43110D02*
Y48190D01*
Y43110D02*
X149080D01*
Y48190D01*
X138920Y55810D02*
Y60890D01*
X149080D01*
Y55810D02*
Y60890D01*
X-104620Y-172920D02*
X-97000D01*
Y-183080D02*
Y-172920D01*
X-104620Y-183080D02*
X-97000D01*
Y-172920D02*
X-89380D01*
X-97000Y-183080D02*
Y-172920D01*
Y-183080D02*
X-89380D01*
X-73743D02*
X-68663D01*
Y-172920D01*
X-73743D02*
X-68663D01*
X-86443Y-183080D02*
X-81363D01*
X-86443D02*
Y-172920D01*
X-81363D01*
X-78823Y-181810D02*
X-77553Y-183080D01*
X-78823Y-181810D02*
X-76283Y-179270D01*
X-78823Y-176730D02*
X-76283Y-179270D01*
X-78823Y-176730D02*
X-76283Y-174190D01*
X-77553Y-172920D02*
X-76283Y-174190D01*
X96000Y-183080D02*
X103620D01*
X96000D02*
Y-172920D01*
X103620D01*
X88380Y-183080D02*
X96000D01*
Y-172920D01*
X88380D02*
X96000D01*
X67563D02*
X72643D01*
X67563Y-183080D02*
Y-172920D01*
Y-183080D02*
X72643D01*
X80263Y-172920D02*
X85343D01*
Y-183080D02*
Y-172920D01*
X80263Y-183080D02*
X85343D01*
X76453Y-172920D02*
X77723Y-174190D01*
X75183Y-176730D02*
X77723Y-174190D01*
X75183Y-176730D02*
X77723Y-179270D01*
X75183Y-181810D02*
X77723Y-179270D01*
X75183Y-181810D02*
X76453Y-183080D01*
X27380Y-4920D02*
X35000D01*
Y-15080D02*
Y-4920D01*
X27380Y-15080D02*
X35000D01*
Y-4920D02*
X42620D01*
X35000Y-15080D02*
Y-4920D01*
Y-15080D02*
X42620D01*
X138920Y90380D02*
Y98000D01*
X149080D01*
Y90380D02*
Y98000D01*
X138920D02*
Y105620D01*
Y98000D02*
X149080D01*
Y105620D01*
X74110Y161500D02*
X89350D01*
X74110Y148800D02*
Y174200D01*
X89350Y148800D02*
Y174200D01*
X-82620Y-87920D02*
X-75000D01*
Y-98080D02*
Y-87920D01*
X-82620Y-98080D02*
X-75000D01*
Y-87920D02*
X-67380D01*
X-75000Y-98080D02*
Y-87920D01*
Y-98080D02*
X-67380D01*
X209000Y43746D02*
Y58986D01*
X196300D02*
X221700D01*
X196300Y43746D02*
X221700D01*
X168000Y94380D02*
Y109620D01*
X155300D02*
X180700D01*
X155300Y94380D02*
X180700D01*
X196190Y18270D02*
X211430D01*
X196190Y5570D02*
Y30970D01*
X211430Y5570D02*
Y30970D01*
X-180000Y-54500D02*
X-177000Y-57500D01*
X-180000Y-60500D02*
Y-54500D01*
Y-60500D02*
X-177000Y-57500D01*
X-147110Y-82240D02*
Y-80970D01*
X-164890Y-82240D02*
X-147110D01*
X-164890D02*
Y-80970D01*
X-147110Y-53030D02*
Y-51760D01*
X-164890D02*
X-147110D01*
X-164890Y-53030D02*
Y-51760D01*
X-193020Y-70810D02*
X-191750Y-72080D01*
X-193020Y-70810D02*
X-190480Y-68270D01*
X-193020Y-65730D02*
X-190480Y-68270D01*
X-193020Y-65730D02*
X-190480Y-63190D01*
X-191750Y-61920D02*
X-190480Y-63190D01*
X-187940Y-72080D02*
X-182860D01*
Y-61920D01*
X-187940D02*
X-182860D01*
X-200640Y-72080D02*
X-195560D01*
X-200640D02*
Y-61920D01*
X-195560D01*
X-178000Y-94650D02*
Y-90840D01*
Y-111160D02*
Y-107350D01*
X-198320Y-90840D02*
X-181810D01*
X-198320Y-111160D02*
Y-90840D01*
Y-111160D02*
X-181810D01*
X-174190D02*
X-157680D01*
Y-90840D01*
X-174190D02*
X-157680D01*
X-113000Y-72080D02*
X-105380D01*
X-113000D02*
Y-61920D01*
X-105380D01*
X-120620Y-72080D02*
X-113000D01*
Y-61920D01*
X-120620D02*
X-113000D01*
X-191903Y-58946D02*
X-184283D01*
X-191903D02*
Y-48786D01*
X-184283D01*
X-199523Y-58946D02*
X-191903D01*
Y-48786D01*
X-199523D02*
X-191903D01*
X1920Y77380D02*
Y85000D01*
X12080D01*
Y77380D02*
Y85000D01*
X1920D02*
Y92620D01*
Y85000D02*
X12080D01*
Y92620D01*
X27380Y35080D02*
X35000D01*
Y24920D02*
Y35080D01*
X27380Y24920D02*
X35000D01*
Y35080D02*
X42620D01*
X35000Y24920D02*
Y35080D01*
Y24920D02*
X42620D01*
X27380Y15080D02*
X35000D01*
Y4920D02*
Y15080D01*
X27380Y4920D02*
X35000D01*
Y15080D02*
X42620D01*
X35000Y4920D02*
Y15080D01*
Y4920D02*
X42620D01*
X-26000Y-16920D02*
X-24730Y-18190D01*
X-27270Y-20730D02*
X-24730Y-18190D01*
X-27270Y-20730D02*
X-24730Y-23270D01*
X-27270Y-25810D02*
X-24730Y-23270D01*
X-27270Y-25810D02*
X-26000Y-27080D01*
X-34890Y-16920D02*
X-29810D01*
X-34890Y-27080D02*
Y-16920D01*
Y-27080D02*
X-29810D01*
X-22190Y-16920D02*
X-17110D01*
Y-27080D02*
Y-16920D01*
X-22190Y-27080D02*
X-17110D01*
X8810Y-17080D02*
X13890D01*
Y-6920D01*
X8810D02*
X13890D01*
X-3890Y-17080D02*
X1190D01*
X-3890D02*
Y-6920D01*
X1190D01*
X3730Y-15810D02*
X5000Y-17080D01*
X3730Y-15810D02*
X6270Y-13270D01*
X3730Y-10730D02*
X6270Y-13270D01*
X3730Y-10730D02*
X6270Y-8190D01*
X5000Y-6920D02*
X6270Y-8190D01*
X8810Y-5080D02*
X13890D01*
Y5080D01*
X8810D02*
X13890D01*
X-3890Y-5080D02*
X1190D01*
X-3890D02*
Y5080D01*
X1190D01*
X3730Y-3810D02*
X5000Y-5080D01*
X3730Y-3810D02*
X6270Y-1270D01*
X3730Y1270D02*
X6270Y-1270D01*
X3730Y1270D02*
X6270Y3810D01*
X5000Y5080D02*
X6270Y3810D01*
X76000Y27920D02*
X83620D01*
X76000D02*
Y38080D01*
X83620D01*
X68380Y27920D02*
X76000D01*
Y38080D01*
X68380D02*
X76000D01*
X-170000Y-165000D02*
X-167000Y-163000D01*
X-170000Y-165000D02*
Y-161000D01*
X-167000Y-163000D01*
X-165000Y-168000D02*
Y-150000D01*
Y-168000D02*
X-85000D01*
Y-150000D01*
X-165000D02*
X-85000D01*
X85000Y-169620D02*
Y-162000D01*
X95160D01*
Y-169620D02*
Y-162000D01*
X85000D02*
Y-154380D01*
Y-162000D02*
X95160D01*
Y-154380D01*
X97000Y-169620D02*
Y-162000D01*
X107160D01*
Y-169620D02*
Y-162000D01*
X97000D02*
Y-154380D01*
Y-162000D02*
X107160D01*
Y-154380D01*
X109000Y-169620D02*
Y-162000D01*
X119160D01*
Y-169620D02*
Y-162000D01*
X109000D02*
Y-154380D01*
Y-162000D02*
X119160D01*
Y-154380D01*
X121000Y-169620D02*
Y-162000D01*
X131160D01*
Y-169620D02*
Y-162000D01*
X121000D02*
Y-154380D01*
Y-162000D02*
X131160D01*
Y-154380D01*
X5000Y17080D02*
X6270Y15810D01*
X3730Y13270D02*
X6270Y15810D01*
X3730Y13270D02*
X6270Y10730D01*
X3730Y8190D02*
X6270Y10730D01*
X3730Y8190D02*
X5000Y6920D01*
X-3890Y17080D02*
X1190D01*
X-3890Y6920D02*
Y17080D01*
Y6920D02*
X1190D01*
X8810Y17080D02*
X13890D01*
Y6920D02*
Y17080D01*
X8810Y6920D02*
X13890D01*
X68380Y5080D02*
X76000D01*
Y-5080D02*
Y5080D01*
X68380Y-5080D02*
X76000D01*
Y5080D02*
X83620D01*
X76000Y-5080D02*
Y5080D01*
Y-5080D02*
X83620D01*
X45810Y-54270D02*
X47080Y-53000D01*
X43270Y-51730D02*
X45810Y-54270D01*
X40730D02*
X43270Y-51730D01*
X38190D02*
X40730Y-54270D01*
X36920Y-53000D02*
X38190Y-51730D01*
X47080Y-49190D02*
Y-44110D01*
X36920D02*
X47080D01*
X36920Y-49190D02*
Y-44110D01*
X47080Y-61890D02*
Y-56810D01*
X36920Y-61890D02*
X47080D01*
X36920D02*
Y-56810D01*
X25000Y-51920D02*
X26270Y-53190D01*
X23730Y-55730D02*
X26270Y-53190D01*
X23730Y-55730D02*
X26270Y-58270D01*
X23730Y-60810D02*
X26270Y-58270D01*
X23730Y-60810D02*
X25000Y-62080D01*
X16110Y-51920D02*
X21190D01*
X16110Y-62080D02*
Y-51920D01*
Y-62080D02*
X21190D01*
X28810Y-51920D02*
X33890D01*
Y-62080D02*
Y-51920D01*
X28810Y-62080D02*
X33890D01*
X-100620Y-27920D02*
X-93000D01*
Y-38080D02*
Y-27920D01*
X-100620Y-38080D02*
X-93000D01*
Y-27920D02*
X-85380D01*
X-93000Y-38080D02*
Y-27920D01*
Y-38080D02*
X-85380D01*
X3730Y-33810D02*
X5000Y-35080D01*
X3730Y-33810D02*
X6270Y-31270D01*
X3730Y-28730D02*
X6270Y-31270D01*
X3730Y-28730D02*
X6270Y-26190D01*
X5000Y-24920D02*
X6270Y-26190D01*
X8810Y-35080D02*
X13890D01*
Y-24920D01*
X8810D02*
X13890D01*
X-3890Y-35080D02*
X1190D01*
X-3890D02*
Y-24920D01*
X1190D01*
X14580Y-44730D02*
Y-37110D01*
X4420Y-44730D02*
X14580D01*
X4420D02*
Y-37110D01*
X14580Y-52350D02*
Y-44730D01*
X4420D02*
X14580D01*
X4420Y-52350D02*
Y-44730D01*
X68380Y-8920D02*
X76000D01*
Y-19080D02*
Y-8920D01*
X68380Y-19080D02*
X76000D01*
Y-8920D02*
X83620D01*
X76000Y-19080D02*
Y-8920D01*
Y-19080D02*
X83620D01*
X133810Y94000D02*
X136000D01*
X124000D02*
X126190D01*
X136350Y104160D02*
Y107970D01*
X123650D02*
X136350D01*
X123650Y80030D02*
Y107970D01*
Y80030D02*
X136350D01*
Y104160D01*
X75080Y49000D02*
Y56620D01*
X64920Y49000D02*
X75080D01*
X64920D02*
Y56620D01*
X75080Y41380D02*
Y49000D01*
X64920D02*
X75080D01*
X64920Y41380D02*
Y49000D01*
X55375Y18920D02*
X62995D01*
X55375D02*
Y29080D01*
X62995D01*
X47755Y18920D02*
X55375D01*
Y29080D01*
X47755D02*
X55375D01*
X58000Y6920D02*
X65620D01*
X58000D02*
Y17080D01*
X65620D01*
X50380Y6920D02*
X58000D01*
Y17080D01*
X50380D02*
X58000D01*
X87080Y49000D02*
Y56620D01*
X76920Y49000D02*
X87080D01*
X76920D02*
Y56620D01*
X87080Y41380D02*
Y49000D01*
X76920D02*
X87080D01*
X76920Y41380D02*
Y49000D01*
X68380Y26080D02*
X76000D01*
Y15920D02*
Y26080D01*
X68380Y15920D02*
X76000D01*
Y26080D02*
X83620D01*
X76000Y15920D02*
Y26080D01*
Y15920D02*
X83620D01*
X55000Y30920D02*
X62620D01*
X55000D02*
Y41080D01*
X62620D01*
X47380Y30920D02*
X55000D01*
Y41080D01*
X47380D02*
X55000D01*
X-36000Y-3080D02*
X-28380D01*
X-36000D02*
Y7080D01*
X-28380D01*
X-43620Y-3080D02*
X-36000D01*
Y7080D01*
X-43620D02*
X-36000D01*
Y-15080D02*
X-28380D01*
X-36000D02*
Y-4920D01*
X-28380D01*
X-43620Y-15080D02*
X-36000D01*
Y-4920D01*
X-43620D02*
X-36000D01*
Y8920D02*
X-28380D01*
X-36000D02*
Y19080D01*
X-28380D01*
X-43620Y8920D02*
X-36000D01*
Y19080D01*
X-43620D02*
X-36000D01*
X-12920Y-5000D02*
Y2620D01*
X-23080Y-5000D02*
X-12920D01*
X-23080D02*
Y2620D01*
X-12920Y-12620D02*
Y-5000D01*
X-23080D02*
X-12920D01*
X-23080Y-12620D02*
Y-5000D01*
X-80Y22380D02*
Y30000D01*
X10080D01*
Y22380D02*
Y30000D01*
X-80D02*
Y37620D01*
Y30000D02*
X10080D01*
Y37620D01*
X-18920Y50000D02*
Y57620D01*
X-29080Y50000D02*
X-18920D01*
X-29080D02*
Y57620D01*
X-18920Y42380D02*
Y50000D01*
X-29080D02*
X-18920D01*
X-29080Y42380D02*
Y50000D01*
X-5920D02*
Y57620D01*
X-16080Y50000D02*
X-5920D01*
X-16080D02*
Y57620D01*
X-5920Y42380D02*
Y50000D01*
X-16080D02*
X-5920D01*
X-16080Y42380D02*
Y50000D01*
X-17920Y-37000D02*
Y-29380D01*
X-28080Y-37000D02*
X-17920D01*
X-28080D02*
Y-29380D01*
X-17920Y-44620D02*
Y-37000D01*
X-28080D02*
X-17920D01*
X-28080Y-44620D02*
Y-37000D01*
X-66080Y-20620D02*
Y-13000D01*
X-55920D01*
Y-20620D02*
Y-13000D01*
X-66080D02*
Y-5380D01*
Y-13000D02*
X-55920D01*
Y-5380D01*
X30080Y-30000D02*
Y-22380D01*
X19920Y-30000D02*
X30080D01*
X19920D02*
Y-22380D01*
X30080Y-37620D02*
Y-30000D01*
X19920D02*
X30080D01*
X19920Y-37620D02*
Y-30000D01*
X10080Y50000D02*
Y57620D01*
X-80Y50000D02*
X10080D01*
X-80D02*
Y57620D01*
X10080Y42380D02*
Y50000D01*
X-80D02*
X10080D01*
X-80Y42380D02*
Y50000D01*
X-187940Y-85080D02*
X-182860D01*
Y-74920D01*
X-187940D02*
X-182860D01*
X-200640Y-85080D02*
X-195560D01*
X-200640D02*
Y-74920D01*
X-195560D01*
X-193020Y-83810D02*
X-191750Y-85080D01*
X-193020Y-83810D02*
X-190480Y-81270D01*
X-193020Y-78730D02*
X-190480Y-81270D01*
X-193020Y-78730D02*
X-190480Y-76190D01*
X-191750Y-74920D02*
X-190480Y-76190D01*
X68380Y-20920D02*
X76000D01*
Y-31080D02*
Y-20920D01*
X68380Y-31080D02*
X76000D01*
Y-20920D02*
X83620D01*
X76000Y-31080D02*
Y-20920D01*
Y-31080D02*
X83620D01*
X181110Y-115920D02*
X186190D01*
X181110Y-126080D02*
Y-115920D01*
Y-126080D02*
X186190D01*
X193810Y-115920D02*
X198890D01*
Y-126080D02*
Y-115920D01*
X193810Y-126080D02*
X198890D01*
X190000Y-115920D02*
X191270Y-117190D01*
X188730Y-119730D02*
X191270Y-117190D01*
X188730Y-119730D02*
X191270Y-122270D01*
X188730Y-124810D02*
X191270Y-122270D01*
X188730Y-124810D02*
X190000Y-126080D01*
X136190Y-177620D02*
Y-170000D01*
X146350D01*
Y-177620D02*
Y-170000D01*
X136190D02*
Y-162380D01*
Y-170000D02*
X146350D01*
Y-162380D01*
D80*
X64256Y70762D02*
G03*
X64137Y83665I-4789J6408D01*
G01*
X69624Y70820D02*
Y83520D01*
X64212Y77170D02*
X66830D01*
D81*
X-116000Y-116000D02*
G03*
X-119000Y-119000I0J-3000D01*
G01*
X-69000D02*
G03*
X-72000Y-116000I-3000J0D01*
G01*
Y-138000D02*
G03*
X-69000Y-135000I0J3000D01*
G01*
X-119000D02*
G03*
X-116000Y-138000I3000J0D01*
G01*
X-231950Y-122500D02*
X-230950Y-123500D01*
Y-121500D01*
X-231950Y-122500D02*
X-230950Y-121500D01*
X-233450Y-122500D02*
X-229950Y-126000D01*
Y-119000D01*
X-233450Y-122500D02*
X-229950Y-119000D01*
X-234950Y-122500D02*
X-228950Y-128500D01*
Y-116500D01*
X-234950Y-122500D02*
X-228950Y-116500D01*
X224450Y-128750D02*
X230450Y-122750D01*
X224450Y-116750D02*
X230450Y-122750D01*
X225450Y-126250D02*
X228950Y-122750D01*
X225450Y-119250D02*
X228950Y-122750D01*
X226450Y-123750D02*
X227450Y-122750D01*
X226450Y-121750D02*
X227450Y-122750D01*
X226450Y-123750D02*
Y-121750D01*
X224450Y-128750D02*
Y-116750D01*
X225450Y-126250D02*
Y-119250D01*
X70000Y-35000D02*
X100000D01*
X70000Y-75000D02*
Y-35000D01*
Y-75000D02*
X100000D01*
Y-35000D01*
X93000Y-57000D02*
Y-55000D01*
X88000D02*
X93000D01*
X77000D02*
Y-53000D01*
Y-55000D02*
X82000D01*
X65000Y-48000D02*
X69000Y-44000D01*
X65000Y-48000D02*
Y-40000D01*
X69000Y-44000D01*
X88000Y-57000D02*
Y-53000D01*
X84000D02*
X86000D01*
Y-57000D02*
Y-53000D01*
X84000Y-57000D02*
X86000D01*
X84000D02*
Y-53000D01*
X82000Y-57000D02*
Y-53000D01*
X70000Y-35000D02*
X100000D01*
X70000Y-75000D02*
Y-35000D01*
Y-75000D02*
X100000D01*
Y-35000D01*
X157000Y48000D02*
X161000Y52000D01*
Y52000D02*
X173000D01*
X157000Y36000D02*
Y48000D01*
X170000Y37000D02*
X174000D01*
X172000Y35000D02*
Y39000D01*
X170750Y22000D02*
X182250Y22000D01*
X182250Y22000D02*
X187000Y26750D01*
X187000Y38000D02*
X187000Y26750D01*
X-116000Y-116000D02*
X-72000D01*
X-69000Y-135000D02*
Y-119000D01*
X-116000Y-138000D02*
X-72000D01*
X-119000Y-135000D02*
Y-119000D01*
X-96000Y-131000D02*
Y-123000D01*
X-92000Y-131000D02*
Y-123000D01*
Y-127000D02*
X-88000D01*
X-100000D02*
X-96000D01*
X-209000Y-154250D02*
Y-150250D01*
X-211000Y-152250D02*
X-207000D01*
X-220000Y-167250D02*
X-213000D01*
Y-163250D01*
X-205000D01*
Y-167250D02*
Y-163250D01*
Y-167250D02*
X-198250D01*
Y-137250D01*
X-220000D02*
X-198250D01*
X-220000Y-167250D02*
Y-137250D01*
X-198250Y-167250D02*
X-180250D01*
X-198250Y-166250D02*
X-180250D01*
X-82000Y-54000D02*
Y-24000D01*
Y-54000D02*
X-42000D01*
Y-24000D01*
X-82000D02*
X-42000D01*
X-62000Y-31000D02*
X-60000D01*
X-62000Y-36000D02*
Y-31000D01*
X-64000Y-47000D02*
X-62000D01*
Y-42000D01*
X-73000Y-55000D02*
X-69000Y-59000D01*
X-77000D02*
X-69000D01*
X-77000D02*
X-73000Y-55000D01*
X-64000Y-36000D02*
X-60000D01*
X-64000Y-40000D02*
Y-38000D01*
X-60000D01*
Y-40000D02*
Y-38000D01*
X-64000Y-40000D02*
X-60000D01*
X-64000Y-42000D02*
X-60000D01*
X-82000Y-54000D02*
Y-24000D01*
Y-54000D02*
X-42000D01*
Y-24000D01*
X-82000D02*
X-42000D01*
D82*
X-64500Y-90450D02*
X-51800Y-90440D01*
X49800D02*
X62500Y-90450D01*
X-64500Y-161550D02*
X-51800Y-161560D01*
X49800D02*
X62500Y-161550D01*
X-13700Y-161560D02*
X11700D01*
X-64500Y-161550D02*
Y-90450D01*
X-13700Y-90440D02*
X11700D01*
X62500Y-161550D02*
Y-90450D01*
X182456Y155189D02*
X195156D01*
X182456Y124709D02*
X195156D01*
X187574Y139949D02*
X192578D01*
X182456Y146299D02*
Y155189D01*
Y124709D02*
Y133599D01*
X190076Y137447D02*
Y142451D01*
X87456Y125189D02*
X100156D01*
X87456Y94709D02*
X100156D01*
X92574Y109949D02*
X97578D01*
X87456Y116299D02*
Y125189D01*
Y94709D02*
Y103599D01*
X95076Y107447D02*
Y112451D01*
D83*
X-20000Y13000D02*
Y17998D01*
X-17501D01*
X-16668Y17165D01*
Y15499D01*
X-17501Y14666D01*
X-20000D01*
X-18334D02*
X-16668Y13000D01*
X-11669D02*
X-15002D01*
X-11669Y16332D01*
Y17165D01*
X-12502Y17998D01*
X-14169D01*
X-15002Y17165D01*
X-10003Y13000D02*
X-8337D01*
X-9170D01*
Y17998D01*
X-10003Y17165D01*
X36000Y-70000D02*
Y-65002D01*
X38499D01*
X39332Y-65835D01*
Y-67501D01*
X38499Y-68334D01*
X36000D01*
X37666D02*
X39332Y-70000D01*
X44331D02*
X40998D01*
X44331Y-66668D01*
Y-65835D01*
X43498Y-65002D01*
X41831D01*
X40998Y-65835D01*
X45997D02*
X46830Y-65002D01*
X48496D01*
X49329Y-65835D01*
Y-69167D01*
X48496Y-70000D01*
X46830D01*
X45997Y-69167D01*
Y-65835D01*
X19000Y-70000D02*
Y-65002D01*
X21499D01*
X22332Y-65835D01*
Y-67501D01*
X21499Y-68334D01*
X19000D01*
X20666D02*
X22332Y-70000D01*
X23998D02*
X25665D01*
X24831D01*
Y-65002D01*
X23998Y-65835D01*
X28164Y-69167D02*
X28997Y-70000D01*
X30663D01*
X31496Y-69167D01*
Y-65835D01*
X30663Y-65002D01*
X28997D01*
X28164Y-65835D01*
Y-66668D01*
X28997Y-67501D01*
X31496D01*
X-165000Y-171002D02*
Y-171835D01*
X-163334Y-173501D01*
X-161668Y-171835D01*
Y-171002D01*
X-163334Y-173501D02*
Y-176000D01*
X-156669D02*
X-160002D01*
X-156669Y-172668D01*
Y-171835D01*
X-157502Y-171002D01*
X-159169D01*
X-160002Y-171835D01*
X-127000Y-38000D02*
X-131998D01*
Y-35501D01*
X-131165Y-34668D01*
X-129499D01*
X-128666Y-35501D01*
Y-38000D01*
Y-36334D02*
X-127000Y-34668D01*
X-131998Y-29669D02*
X-131165Y-31335D01*
X-129499Y-33002D01*
X-127833D01*
X-127000Y-32169D01*
Y-30503D01*
X-127833Y-29669D01*
X-128666D01*
X-129499Y-30503D01*
Y-33002D01*
X-131165Y-28003D02*
X-131998Y-27170D01*
Y-25504D01*
X-131165Y-24671D01*
X-130332D01*
X-129499Y-25504D01*
X-128666Y-24671D01*
X-127833D01*
X-127000Y-25504D01*
Y-27170D01*
X-127833Y-28003D01*
X-128666D01*
X-129499Y-27170D01*
X-130332Y-28003D01*
X-131165D01*
X-129499Y-27170D02*
Y-25504D01*
X-186000Y-116002D02*
Y-121000D01*
X-183501D01*
X-182668Y-120167D01*
Y-116835D01*
X-183501Y-116002D01*
X-186000D01*
X-178503Y-121000D02*
Y-116002D01*
X-181002Y-118501D01*
X-177669D01*
X35419Y136319D02*
Y131321D01*
X37918D01*
X38751Y132154D01*
Y132987D01*
X37918Y133820D01*
X35419D01*
X37918D01*
X38751Y134653D01*
Y135486D01*
X37918Y136319D01*
X35419D01*
X43750Y135486D02*
X42917Y136319D01*
X41250D01*
X40417Y135486D01*
Y132154D01*
X41250Y131321D01*
X42917D01*
X43750Y132154D01*
X48748Y131321D02*
X45416D01*
X48748Y134653D01*
Y135486D01*
X47915Y136319D01*
X46249D01*
X45416Y135486D01*
X50414Y132154D02*
X51247Y131321D01*
X52913D01*
X53746Y132154D01*
Y135486D01*
X52913Y136319D01*
X51247D01*
X50414Y135486D01*
Y134653D01*
X51247Y133820D01*
X53746D01*
X-9998Y153000D02*
X-5000D01*
Y155499D01*
X-5833Y156332D01*
X-6666D01*
X-7499Y155499D01*
Y153000D01*
Y155499D01*
X-8332Y156332D01*
X-9165D01*
X-9998Y155499D01*
Y153000D01*
X-9165Y161331D02*
X-9998Y160497D01*
Y158831D01*
X-9165Y157998D01*
X-5833D01*
X-5000Y158831D01*
Y160497D01*
X-5833Y161331D01*
X-5000Y166329D02*
Y162997D01*
X-8332Y166329D01*
X-9165D01*
X-9998Y165496D01*
Y163830D01*
X-9165Y162997D01*
Y167995D02*
X-9998Y168828D01*
Y170494D01*
X-9165Y171327D01*
X-8332D01*
X-7499Y170494D01*
X-6666Y171327D01*
X-5833D01*
X-5000Y170494D01*
Y168828D01*
X-5833Y167995D01*
X-6666D01*
X-7499Y168828D01*
X-8332Y167995D01*
X-9165D01*
X-7499Y168828D02*
Y170494D01*
X150002Y71000D02*
X155000D01*
Y73499D01*
X154167Y74332D01*
X153334D01*
X152501Y73499D01*
Y71000D01*
Y73499D01*
X151668Y74332D01*
X150835D01*
X150002Y73499D01*
Y71000D01*
X150835Y79331D02*
X150002Y78498D01*
Y76831D01*
X150835Y75998D01*
X154167D01*
X155000Y76831D01*
Y78498D01*
X154167Y79331D01*
X155000Y84329D02*
Y80997D01*
X151668Y84329D01*
X150835D01*
X150002Y83496D01*
Y81830D01*
X150835Y80997D01*
X155000Y85995D02*
Y87661D01*
Y86828D01*
X150002D01*
X150835Y85995D01*
X25002Y112332D02*
Y109000D01*
X27501D01*
Y110666D01*
Y109000D01*
X30000D01*
X25002Y113998D02*
X30000D01*
Y116498D01*
X29167Y117331D01*
X28334D01*
X27501Y116498D01*
Y113998D01*
Y116498D01*
X26668Y117331D01*
X25835D01*
X25002Y116498D01*
Y113998D01*
X25835Y118997D02*
X25002Y119830D01*
Y121496D01*
X25835Y122329D01*
X26668D01*
X27501Y121496D01*
X28334Y122329D01*
X29167D01*
X30000Y121496D01*
Y119830D01*
X29167Y118997D01*
X28334D01*
X27501Y119830D01*
X26668Y118997D01*
X25835D01*
X27501Y119830D02*
Y121496D01*
X128002Y-184000D02*
X133000D01*
Y-181501D01*
X132167Y-180668D01*
X131334D01*
X130501Y-181501D01*
Y-184000D01*
Y-181501D01*
X129668Y-180668D01*
X128835D01*
X128002Y-181501D01*
Y-184000D01*
X128835Y-175669D02*
X128002Y-176502D01*
Y-178169D01*
X128835Y-179002D01*
X132167D01*
X133000Y-178169D01*
Y-176502D01*
X132167Y-175669D01*
X133000Y-174003D02*
Y-172337D01*
Y-173170D01*
X128002D01*
X128835Y-174003D01*
X93732Y155855D02*
X98730D01*
Y158354D01*
X97897Y159187D01*
X97064D01*
X96231Y158354D01*
Y155855D01*
Y158354D01*
X95398Y159187D01*
X94565D01*
X93732Y158354D01*
Y155855D01*
X94565Y164186D02*
X93732Y163353D01*
Y161686D01*
X94565Y160853D01*
X97897D01*
X98730Y161686D01*
Y163353D01*
X97897Y164186D01*
X98730Y169184D02*
Y165852D01*
X95398Y169184D01*
X94565D01*
X93732Y168351D01*
Y166685D01*
X94565Y165852D01*
X117000Y151998D02*
Y147000D01*
X119499D01*
X120332Y147833D01*
Y148666D01*
X119499Y149499D01*
X117000D01*
X119499D01*
X120332Y150332D01*
Y151165D01*
X119499Y151998D01*
X117000D01*
X125331Y151165D02*
X124497Y151998D01*
X122831D01*
X121998Y151165D01*
Y147833D01*
X122831Y147000D01*
X124497D01*
X125331Y147833D01*
X126997Y151165D02*
X127830Y151998D01*
X129496D01*
X130329Y151165D01*
Y150332D01*
X129496Y149499D01*
X128663D01*
X129496D01*
X130329Y148666D01*
Y147833D01*
X129496Y147000D01*
X127830D01*
X126997Y147833D01*
X169000Y91998D02*
Y87000D01*
X171499D01*
X172332Y87833D01*
Y88666D01*
X171499Y89499D01*
X169000D01*
X171499D01*
X172332Y90332D01*
Y91165D01*
X171499Y91998D01*
X169000D01*
X177331Y91165D02*
X176497Y91998D01*
X174831D01*
X173998Y91165D01*
Y87833D01*
X174831Y87000D01*
X176497D01*
X177331Y87833D01*
X182329Y91998D02*
X180663Y91165D01*
X178997Y89499D01*
Y87833D01*
X179830Y87000D01*
X181496D01*
X182329Y87833D01*
Y88666D01*
X181496Y89499D01*
X178997D01*
X213812Y10270D02*
X218810D01*
Y12769D01*
X217977Y13602D01*
X217144D01*
X216311Y12769D01*
Y10270D01*
Y12769D01*
X215478Y13602D01*
X214645D01*
X213812Y12769D01*
Y10270D01*
X214645Y18601D02*
X213812Y17767D01*
Y16101D01*
X214645Y15268D01*
X217977D01*
X218810Y16101D01*
Y17767D01*
X217977Y18601D01*
X218810Y20267D02*
Y21933D01*
Y21100D01*
X213812D01*
X214645Y20267D01*
X218810Y24432D02*
Y26098D01*
Y25265D01*
X213812D01*
X214645Y24432D01*
X202000Y67364D02*
Y62366D01*
X204499D01*
X205332Y63199D01*
Y64032D01*
X204499Y64865D01*
X202000D01*
X204499D01*
X205332Y65698D01*
Y66531D01*
X204499Y67364D01*
X202000D01*
X210331Y66531D02*
X209498Y67364D01*
X207831D01*
X206998Y66531D01*
Y63199D01*
X207831Y62366D01*
X209498D01*
X210331Y63199D01*
X211997Y62366D02*
X213663D01*
X212830D01*
Y67364D01*
X211997Y66531D01*
X216162Y67364D02*
X219494D01*
Y66531D01*
X216162Y63199D01*
Y62366D01*
X-121000Y-31002D02*
Y-36000D01*
X-118501D01*
X-117668Y-35167D01*
Y-34334D01*
X-118501Y-33501D01*
X-121000D01*
X-118501D01*
X-117668Y-32668D01*
Y-31835D01*
X-118501Y-31002D01*
X-121000D01*
X-112669Y-31835D02*
X-113503Y-31002D01*
X-115169D01*
X-116002Y-31835D01*
Y-35167D01*
X-115169Y-36000D01*
X-113503D01*
X-112669Y-35167D01*
X-111003Y-36000D02*
X-109337D01*
X-110170D01*
Y-31002D01*
X-111003Y-31835D01*
X-106838D02*
X-106005Y-31002D01*
X-104339D01*
X-103506Y-31835D01*
Y-32668D01*
X-104339Y-33501D01*
X-103506Y-34334D01*
Y-35167D01*
X-104339Y-36000D01*
X-106005D01*
X-106838Y-35167D01*
Y-34334D01*
X-106005Y-33501D01*
X-106838Y-32668D01*
Y-31835D01*
X-106005Y-33501D02*
X-104339D01*
X57962Y96268D02*
Y91270D01*
X60462D01*
X61295Y92103D01*
Y92936D01*
X60462Y93769D01*
X57962D01*
X60462D01*
X61295Y94602D01*
Y95435D01*
X60462Y96268D01*
X57962D01*
X66293Y95435D02*
X65460Y96268D01*
X63794D01*
X62961Y95435D01*
Y92103D01*
X63794Y91270D01*
X65460D01*
X66293Y92103D01*
X67959Y91270D02*
X69625D01*
X68792D01*
Y96268D01*
X67959Y95435D01*
X72124Y92103D02*
X72958Y91270D01*
X74624D01*
X75457Y92103D01*
Y95435D01*
X74624Y96268D01*
X72958D01*
X72124Y95435D01*
Y94602D01*
X72958Y93769D01*
X75457D01*
X86000Y36998D02*
Y32000D01*
X88499D01*
X89332Y32833D01*
Y33666D01*
X88499Y34499D01*
X86000D01*
X88499D01*
X89332Y35332D01*
Y36165D01*
X88499Y36998D01*
X86000D01*
X94331Y36165D02*
X93498Y36998D01*
X91831D01*
X90998Y36165D01*
Y32833D01*
X91831Y32000D01*
X93498D01*
X94331Y32833D01*
X99329Y32000D02*
X95997D01*
X99329Y35332D01*
Y36165D01*
X98496Y36998D01*
X96830D01*
X95997Y36165D01*
X100995D02*
X101828Y36998D01*
X103494D01*
X104327Y36165D01*
Y32833D01*
X103494Y32000D01*
X101828D01*
X100995Y32833D01*
Y36165D01*
X22000Y63998D02*
Y59000D01*
X24499D01*
X25332Y59833D01*
Y60666D01*
X24499Y61499D01*
X22000D01*
X24499D01*
X25332Y62332D01*
Y63165D01*
X24499Y63998D01*
X22000D01*
X30331Y63165D02*
X29498Y63998D01*
X27831D01*
X26998Y63165D01*
Y59833D01*
X27831Y59000D01*
X29498D01*
X30331Y59833D01*
X35329Y59000D02*
X31997D01*
X35329Y62332D01*
Y63165D01*
X34496Y63998D01*
X32830D01*
X31997Y63165D01*
X39494Y59000D02*
Y63998D01*
X36995Y61499D01*
X40327D01*
X13636Y79297D02*
X18634D01*
Y81796D01*
X17801Y82629D01*
X16968D01*
X16135Y81796D01*
Y79297D01*
Y81796D01*
X15302Y82629D01*
X14469D01*
X13636Y81796D01*
Y79297D01*
X14469Y87627D02*
X13636Y86795D01*
Y85128D01*
X14469Y84295D01*
X17801D01*
X18634Y85128D01*
Y86795D01*
X17801Y87627D01*
X18634Y92626D02*
Y89294D01*
X15302Y92626D01*
X14469D01*
X13636Y91793D01*
Y90127D01*
X14469Y89294D01*
X13636Y97624D02*
Y94292D01*
X16135D01*
X15302Y95958D01*
Y96791D01*
X16135Y97624D01*
X17801D01*
X18634Y96791D01*
Y95125D01*
X17801Y94292D01*
X4002Y123000D02*
X9000D01*
Y125499D01*
X8167Y126332D01*
X7334D01*
X6501Y125499D01*
Y123000D01*
Y125499D01*
X5668Y126332D01*
X4835D01*
X4002Y125499D01*
Y123000D01*
X4835Y131331D02*
X4002Y130498D01*
Y128831D01*
X4835Y127998D01*
X8167D01*
X9000Y128831D01*
Y130498D01*
X8167Y131331D01*
X9000Y136329D02*
Y132997D01*
X5668Y136329D01*
X4835D01*
X4002Y135496D01*
Y133830D01*
X4835Y132997D01*
X4002Y141327D02*
X4835Y139661D01*
X6501Y137995D01*
X8167D01*
X9000Y138828D01*
Y140494D01*
X8167Y141327D01*
X7334D01*
X6501Y140494D01*
Y137995D01*
X-244998Y-184000D02*
X-240000D01*
Y-181501D01*
X-240833Y-180668D01*
X-241666D01*
X-242499Y-181501D01*
Y-184000D01*
Y-181501D01*
X-243332Y-180668D01*
X-244165D01*
X-244998Y-181501D01*
Y-184000D01*
X-244165Y-175669D02*
X-244998Y-176502D01*
Y-178169D01*
X-244165Y-179002D01*
X-240833D01*
X-240000Y-178169D01*
Y-176502D01*
X-240833Y-175669D01*
X-240000Y-170671D02*
Y-174003D01*
X-243332Y-170671D01*
X-244165D01*
X-244998Y-171504D01*
Y-173170D01*
X-244165Y-174003D01*
X-244998Y-169005D02*
Y-165673D01*
X-244165D01*
X-240833Y-169005D01*
X-240000D01*
X117425Y-53060D02*
X116593Y-53894D01*
Y-55560D01*
X117425Y-56393D01*
X120758D01*
X121591Y-55560D01*
Y-53894D01*
X120758Y-53060D01*
X121591Y-51394D02*
Y-49728D01*
Y-50561D01*
X116593D01*
X117425Y-51394D01*
X116593Y-47229D02*
Y-43897D01*
X117425D01*
X120758Y-47229D01*
X121591D01*
X116792Y-73918D02*
X115959Y-74751D01*
Y-76417D01*
X116792Y-77250D01*
X120125D01*
X120958Y-76417D01*
Y-74751D01*
X120125Y-73918D01*
X120958Y-72252D02*
Y-70586D01*
Y-71419D01*
X115959D01*
X116792Y-72252D01*
Y-68087D02*
X115959Y-67253D01*
Y-65587D01*
X116792Y-64754D01*
X117626D01*
X118459Y-65587D01*
X119292Y-64754D01*
X120125D01*
X120958Y-65587D01*
Y-67253D01*
X120125Y-68087D01*
X119292D01*
X118459Y-67253D01*
X117626Y-68087D01*
X116792D01*
X118459Y-67253D02*
Y-65587D01*
X178693Y-105855D02*
X177860Y-106688D01*
Y-108354D01*
X178693Y-109187D01*
X182026D01*
X182859Y-108354D01*
Y-106688D01*
X182026Y-105855D01*
X182859Y-104189D02*
Y-102523D01*
Y-103356D01*
X177860D01*
X178693Y-104189D01*
X182026Y-100024D02*
X182859Y-99191D01*
Y-97524D01*
X182026Y-96691D01*
X178693D01*
X177860Y-97524D01*
Y-99191D01*
X178693Y-100024D01*
X179526D01*
X180359Y-99191D01*
Y-96691D01*
X-78710Y-101373D02*
X-79543Y-100540D01*
X-81209D01*
X-82042Y-101373D01*
Y-104705D01*
X-81209Y-105538D01*
X-79543D01*
X-78710Y-104705D01*
X-73712Y-105538D02*
X-77044D01*
X-73712Y-102206D01*
Y-101373D01*
X-74545Y-100540D01*
X-76211D01*
X-77044Y-101373D01*
X-72046D02*
X-71213Y-100540D01*
X-69546D01*
X-68713Y-101373D01*
Y-104705D01*
X-69546Y-105538D01*
X-71213D01*
X-72046Y-104705D01*
Y-101373D01*
X110332Y-177835D02*
X109499Y-177002D01*
X107833D01*
X107000Y-177835D01*
Y-181167D01*
X107833Y-182000D01*
X109499D01*
X110332Y-181167D01*
X115331Y-182000D02*
X111998D01*
X115331Y-178668D01*
Y-177835D01*
X114497Y-177002D01*
X112831D01*
X111998Y-177835D01*
X116997Y-182000D02*
X118663D01*
X117830D01*
Y-177002D01*
X116997Y-177835D01*
X-118568Y-175361D02*
X-119401Y-174528D01*
X-121067D01*
X-121900Y-175361D01*
Y-178693D01*
X-121067Y-179526D01*
X-119401D01*
X-118568Y-178693D01*
X-113569Y-179526D02*
X-116902D01*
X-113569Y-176194D01*
Y-175361D01*
X-114403Y-174528D01*
X-116069D01*
X-116902Y-175361D01*
X-108571Y-179526D02*
X-111903D01*
X-108571Y-176194D01*
Y-175361D01*
X-109404Y-174528D01*
X-111070D01*
X-111903Y-175361D01*
X31332Y2165D02*
X30499Y2998D01*
X28833D01*
X28000Y2165D01*
Y-1167D01*
X28833Y-2000D01*
X30499D01*
X31332Y-1167D01*
X36331Y-2000D02*
X32998D01*
X36331Y1332D01*
Y2165D01*
X35498Y2998D01*
X33831D01*
X32998Y2165D01*
X37997D02*
X38830Y2998D01*
X40496D01*
X41329Y2165D01*
Y1332D01*
X40496Y499D01*
X39663D01*
X40496D01*
X41329Y-334D01*
Y-1167D01*
X40496Y-2000D01*
X38830D01*
X37997Y-1167D01*
X32332Y41165D02*
X31499Y41998D01*
X29833D01*
X29000Y41165D01*
Y37833D01*
X29833Y37000D01*
X31499D01*
X32332Y37833D01*
X37331Y37000D02*
X33998D01*
X37331Y40332D01*
Y41165D01*
X36497Y41998D01*
X34831D01*
X33998Y41165D01*
X41496Y37000D02*
Y41998D01*
X38997Y39499D01*
X42329D01*
X30332Y21165D02*
X29499Y21998D01*
X27833D01*
X27000Y21165D01*
Y17833D01*
X27833Y17000D01*
X29499D01*
X30332Y17833D01*
X35331Y17000D02*
X31998D01*
X35331Y20332D01*
Y21165D01*
X34497Y21998D01*
X32831D01*
X31998Y21165D01*
X40329Y21998D02*
X36997D01*
Y19499D01*
X38663Y20332D01*
X39496D01*
X40329Y19499D01*
Y17833D01*
X39496Y17000D01*
X37830D01*
X36997Y17833D01*
X-2165Y-55668D02*
X-2998Y-56501D01*
Y-58167D01*
X-2165Y-59000D01*
X1167D01*
X2000Y-58167D01*
Y-56501D01*
X1167Y-55668D01*
X2000Y-50669D02*
Y-54002D01*
X-1332Y-50669D01*
X-2165D01*
X-2998Y-51502D01*
Y-53169D01*
X-2165Y-54002D01*
X-2998Y-45671D02*
X-2165Y-47337D01*
X-499Y-49003D01*
X1167D01*
X2000Y-48170D01*
Y-46504D01*
X1167Y-45671D01*
X334D01*
X-499Y-46504D01*
Y-49003D01*
X-31668Y67165D02*
X-32501Y67998D01*
X-34167D01*
X-35000Y67165D01*
Y63833D01*
X-34167Y63000D01*
X-32501D01*
X-31668Y63833D01*
X-30002Y67165D02*
X-29169Y67998D01*
X-27502D01*
X-26669Y67165D01*
Y66332D01*
X-27502Y65499D01*
X-28335D01*
X-27502D01*
X-26669Y64666D01*
Y63833D01*
X-27502Y63000D01*
X-29169D01*
X-30002Y63833D01*
X-25003Y63000D02*
X-23337D01*
X-24170D01*
Y67998D01*
X-25003Y67165D01*
X-195668Y-41835D02*
X-196501Y-41002D01*
X-198167D01*
X-199000Y-41835D01*
Y-45167D01*
X-198167Y-46000D01*
X-196501D01*
X-195668Y-45167D01*
X-194002Y-41835D02*
X-193169Y-41002D01*
X-191502D01*
X-190669Y-41835D01*
Y-42668D01*
X-191502Y-43501D01*
X-192335D01*
X-191502D01*
X-190669Y-44334D01*
Y-45167D01*
X-191502Y-46000D01*
X-193169D01*
X-194002Y-45167D01*
X-185671Y-46000D02*
X-189003D01*
X-185671Y-42668D01*
Y-41835D01*
X-186504Y-41002D01*
X-188170D01*
X-189003Y-41835D01*
X-96668Y-107835D02*
X-97501Y-107002D01*
X-99167D01*
X-100000Y-107835D01*
Y-111167D01*
X-99167Y-112000D01*
X-97501D01*
X-96668Y-111167D01*
X-95002Y-107835D02*
X-94169Y-107002D01*
X-92502D01*
X-91669Y-107835D01*
Y-108668D01*
X-92502Y-109501D01*
X-93336D01*
X-92502D01*
X-91669Y-110334D01*
Y-111167D01*
X-92502Y-112000D01*
X-94169D01*
X-95002Y-111167D01*
X-90003Y-107835D02*
X-89170Y-107002D01*
X-87504D01*
X-86671Y-107835D01*
Y-108668D01*
X-87504Y-109501D01*
X-88337D01*
X-87504D01*
X-86671Y-110334D01*
Y-111167D01*
X-87504Y-112000D01*
X-89170D01*
X-90003Y-111167D01*
X-97394Y-65346D02*
X-98226Y-64513D01*
X-99893D01*
X-100726Y-65346D01*
Y-68678D01*
X-99893Y-69511D01*
X-98226D01*
X-97394Y-68678D01*
X-95727Y-65346D02*
X-94894Y-64513D01*
X-93228D01*
X-92395Y-65346D01*
Y-66179D01*
X-93228Y-67012D01*
X-94061D01*
X-93228D01*
X-92395Y-67845D01*
Y-68678D01*
X-93228Y-69511D01*
X-94894D01*
X-95727Y-68678D01*
X-88230Y-69511D02*
Y-64513D01*
X-90729Y-67012D01*
X-87397D01*
X159332Y133998D02*
X156000D01*
Y131499D01*
X157666D01*
X156000D01*
Y129000D01*
X160998Y133998D02*
Y129000D01*
X163498D01*
X164331Y129833D01*
Y130666D01*
X163498Y131499D01*
X160998D01*
X163498D01*
X164331Y132332D01*
Y133165D01*
X163498Y133998D01*
X160998D01*
X165997Y129000D02*
X167663D01*
X166830D01*
Y133998D01*
X165997Y133165D01*
X243332Y148998D02*
X241666D01*
X242499D01*
Y144833D01*
X241666Y144000D01*
X240833D01*
X240000Y144833D01*
X244998Y144000D02*
X246665D01*
X245831D01*
Y148998D01*
X244998Y148165D01*
X-240668Y143998D02*
X-242334D01*
X-241501D01*
Y139833D01*
X-242334Y139000D01*
X-243167D01*
X-244000Y139833D01*
X-235669Y139000D02*
X-239002D01*
X-235669Y142332D01*
Y143165D01*
X-236502Y143998D01*
X-238169D01*
X-239002Y143165D01*
X176332Y-160002D02*
X174666D01*
X175499D01*
Y-164167D01*
X174666Y-165000D01*
X173833D01*
X173000Y-164167D01*
X181331Y-160002D02*
X179664Y-160835D01*
X177998Y-162501D01*
Y-164167D01*
X178831Y-165000D01*
X180498D01*
X181331Y-164167D01*
Y-163334D01*
X180498Y-162501D01*
X177998D01*
X-202668Y177998D02*
X-204334D01*
X-203501D01*
Y173833D01*
X-204334Y173000D01*
X-205167D01*
X-206000Y173833D01*
X-201002Y173000D02*
X-199335D01*
X-200169D01*
Y177998D01*
X-201002Y177165D01*
X-196836D02*
X-196003Y177998D01*
X-194337D01*
X-193504Y177165D01*
Y173833D01*
X-194337Y173000D01*
X-196003D01*
X-196836Y173833D01*
Y177165D01*
X164000Y62998D02*
Y58000D01*
X167332D01*
X171497D02*
Y62998D01*
X168998Y60499D01*
X172331D01*
X-210000Y-98002D02*
Y-103000D01*
X-206668D01*
X-201669Y-98002D02*
X-205002D01*
Y-100501D01*
X-203335Y-99668D01*
X-202502D01*
X-201669Y-100501D01*
Y-102167D01*
X-202502Y-103000D01*
X-204169D01*
X-205002Y-102167D01*
X-89998Y-55501D02*
Y-57167D01*
X-89165Y-58000D01*
X-85833D01*
X-85000Y-57167D01*
Y-55501D01*
X-85833Y-54668D01*
X-89165D01*
X-89998Y-55501D01*
X-89165Y-49669D02*
X-89998Y-50503D01*
Y-52169D01*
X-89165Y-53002D01*
X-88332D01*
X-87499Y-52169D01*
Y-50503D01*
X-86666Y-49669D01*
X-85833D01*
X-85000Y-50503D01*
Y-52169D01*
X-85833Y-53002D01*
X-89165Y-44671D02*
X-89998Y-45504D01*
Y-47170D01*
X-89165Y-48003D01*
X-85833D01*
X-85000Y-47170D01*
Y-45504D01*
X-85833Y-44671D01*
X-85000Y-43005D02*
Y-41339D01*
Y-42172D01*
X-89998D01*
X-89165Y-43005D01*
X186332Y160346D02*
Y163678D01*
X185499Y164512D01*
X183833D01*
X183000Y163678D01*
Y160346D01*
X183833Y159513D01*
X185499D01*
X184666Y161179D02*
X186332Y159513D01*
X185499D02*
X186332Y160346D01*
X187998Y159513D02*
X189664D01*
X188831D01*
Y164512D01*
X187998Y163678D01*
X74174Y124103D02*
Y127435D01*
X73341Y128268D01*
X71675D01*
X70842Y127435D01*
Y124103D01*
X71675Y123270D01*
X73341D01*
X72508Y124936D02*
X74174Y123270D01*
X73341D02*
X74174Y124103D01*
X79173Y123270D02*
X75840D01*
X79173Y126602D01*
Y127435D01*
X78339Y128268D01*
X76673D01*
X75840Y127435D01*
X147000Y149000D02*
Y153998D01*
X149499D01*
X150332Y153165D01*
Y151499D01*
X149499Y150666D01*
X147000D01*
X148666D02*
X150332Y149000D01*
X151998D02*
X153665D01*
X152831D01*
Y153998D01*
X151998Y153165D01*
X68000Y138000D02*
Y142998D01*
X70499D01*
X71332Y142165D01*
Y140499D01*
X70499Y139666D01*
X68000D01*
X69666D02*
X71332Y138000D01*
X76331D02*
X72998D01*
X76331Y141332D01*
Y142165D01*
X75497Y142998D01*
X73831D01*
X72998Y142165D01*
X134747Y64563D02*
X129749D01*
Y67062D01*
X130582Y67895D01*
X132248D01*
X133081Y67062D01*
Y64563D01*
Y66229D02*
X134747Y67895D01*
X130582Y69561D02*
X129749Y70394D01*
Y72060D01*
X130582Y72894D01*
X131415D01*
X132248Y72060D01*
Y71227D01*
Y72060D01*
X133081Y72894D01*
X133914D01*
X134747Y72060D01*
Y70394D01*
X133914Y69561D01*
X219000Y113000D02*
Y117998D01*
X221499D01*
X222332Y117165D01*
Y115499D01*
X221499Y114666D01*
X219000D01*
X220666D02*
X222332Y113000D01*
X226497D02*
Y117998D01*
X223998Y115499D01*
X227331D01*
X119621Y64435D02*
X114622D01*
Y66934D01*
X115455Y67767D01*
X117121D01*
X117955Y66934D01*
Y64435D01*
Y66101D02*
X119621Y67767D01*
X114622Y72766D02*
Y69433D01*
X117121D01*
X116288Y71100D01*
Y71933D01*
X117121Y72766D01*
X118788D01*
X119621Y71933D01*
Y70267D01*
X118788Y69433D01*
X167830Y-134920D02*
X162832D01*
Y-132421D01*
X163665Y-131588D01*
X165331D01*
X166164Y-132421D01*
Y-134920D01*
Y-133254D02*
X167830Y-131588D01*
X163665Y-129922D02*
X162832Y-129089D01*
Y-127423D01*
X163665Y-126589D01*
X164498D01*
X165331Y-127423D01*
X166164Y-126589D01*
X166997D01*
X167830Y-127423D01*
Y-129089D01*
X166997Y-129922D01*
X166164D01*
X165331Y-129089D01*
X164498Y-129922D01*
X163665D01*
X165331Y-129089D02*
Y-127423D01*
X144660Y-135351D02*
X139662D01*
Y-132852D01*
X140495Y-132019D01*
X142161D01*
X142994Y-132852D01*
Y-135351D01*
Y-133685D02*
X144660Y-132019D01*
X143827Y-130353D02*
X144660Y-129520D01*
Y-127854D01*
X143827Y-127021D01*
X140495D01*
X139662Y-127854D01*
Y-129520D01*
X140495Y-130353D01*
X141328D01*
X142161Y-129520D01*
Y-127021D01*
X155830Y-135351D02*
X150832D01*
Y-132852D01*
X151665Y-132019D01*
X153331D01*
X154164Y-132852D01*
Y-135351D01*
Y-133685D02*
X155830Y-132019D01*
Y-130353D02*
Y-128687D01*
Y-129520D01*
X150832D01*
X151665Y-130353D01*
Y-126188D02*
X150832Y-125355D01*
Y-123689D01*
X151665Y-122856D01*
X154997D01*
X155830Y-123689D01*
Y-125355D01*
X154997Y-126188D01*
X151665D01*
X121000Y-114505D02*
X116002D01*
Y-112006D01*
X116835Y-111173D01*
X118501D01*
X119334Y-112006D01*
Y-114505D01*
Y-112839D02*
X121000Y-111173D01*
X116835Y-109506D02*
X116002Y-108673D01*
Y-107007D01*
X116835Y-106174D01*
X117668D01*
X118501Y-107007D01*
Y-107840D01*
Y-107007D01*
X119334Y-106174D01*
X120167D01*
X121000Y-107007D01*
Y-108673D01*
X120167Y-109506D01*
X121000Y-101176D02*
Y-104508D01*
X117668Y-101176D01*
X116835D01*
X116002Y-102009D01*
Y-103675D01*
X116835Y-104508D01*
X192000Y-135000D02*
Y-130002D01*
X194499D01*
X195332Y-130835D01*
Y-132501D01*
X194499Y-133334D01*
X192000D01*
X193666D02*
X195332Y-135000D01*
X199498D02*
Y-130002D01*
X196998Y-132501D01*
X200331D01*
X201997Y-135000D02*
X203663D01*
X202830D01*
Y-130002D01*
X201997Y-130835D01*
X107671Y64307D02*
X102673D01*
Y66806D01*
X103506Y67639D01*
X105172D01*
X106005Y66806D01*
Y64307D01*
Y65973D02*
X107671Y67639D01*
Y71805D02*
X102673D01*
X105172Y69306D01*
Y72638D01*
X103506Y74304D02*
X102673Y75137D01*
Y76803D01*
X103506Y77636D01*
X104339D01*
X105172Y76803D01*
X106005Y77636D01*
X106838D01*
X107671Y76803D01*
Y75137D01*
X106838Y74304D01*
X106005D01*
X105172Y75137D01*
X104339Y74304D01*
X103506D01*
X105172Y75137D02*
Y76803D01*
X146736Y64307D02*
X141737D01*
Y66806D01*
X142570Y67639D01*
X144236D01*
X145070Y66806D01*
Y64307D01*
Y65973D02*
X146736Y67639D01*
X141737Y72638D02*
Y69306D01*
X144236D01*
X143403Y70972D01*
Y71805D01*
X144236Y72638D01*
X145903D01*
X146736Y71805D01*
Y70139D01*
X145903Y69306D01*
X142570Y74304D02*
X141737Y75137D01*
Y76803D01*
X142570Y77636D01*
X145903D01*
X146736Y76803D01*
Y75137D01*
X145903Y74304D01*
X142570D01*
X54000Y-181000D02*
Y-176002D01*
X56499D01*
X57332Y-176835D01*
Y-178501D01*
X56499Y-179334D01*
X54000D01*
X55666D02*
X57332Y-181000D01*
X62331Y-176002D02*
X58998D01*
Y-178501D01*
X60665Y-177668D01*
X61498D01*
X62331Y-178501D01*
Y-180167D01*
X61498Y-181000D01*
X59831D01*
X58998Y-180167D01*
X63997Y-181000D02*
X65663D01*
X64830D01*
Y-176002D01*
X63997Y-176835D01*
X-65000Y-179688D02*
Y-174690D01*
X-62501D01*
X-61668Y-175523D01*
Y-177189D01*
X-62501Y-178022D01*
X-65000D01*
X-63334D02*
X-61668Y-179688D01*
X-56669Y-174690D02*
X-60002D01*
Y-177189D01*
X-58335Y-176356D01*
X-57502D01*
X-56669Y-177189D01*
Y-178855D01*
X-57502Y-179688D01*
X-59169D01*
X-60002Y-178855D01*
X-51671Y-179688D02*
X-55003D01*
X-51671Y-176356D01*
Y-175523D01*
X-52504Y-174690D01*
X-54170D01*
X-55003Y-175523D01*
X-20000Y5000D02*
Y9998D01*
X-17501D01*
X-16668Y9165D01*
Y7499D01*
X-17501Y6666D01*
X-20000D01*
X-18334D02*
X-16668Y5000D01*
X-11669Y9998D02*
X-15002D01*
Y7499D01*
X-13335Y8332D01*
X-12502D01*
X-11669Y7499D01*
Y5833D01*
X-12502Y5000D01*
X-14169D01*
X-15002Y5833D01*
X-10003Y9165D02*
X-9170Y9998D01*
X-7504D01*
X-6671Y9165D01*
Y8332D01*
X-7504Y7499D01*
X-8337D01*
X-7504D01*
X-6671Y6666D01*
Y5833D01*
X-7504Y5000D01*
X-9170D01*
X-10003Y5833D01*
X21703Y-18634D02*
X16705D01*
Y-16135D01*
X17538Y-15302D01*
X19204D01*
X20037Y-16135D01*
Y-18634D01*
Y-16968D02*
X21703Y-15302D01*
X16705Y-10304D02*
Y-13636D01*
X19204D01*
X18371Y-11970D01*
Y-11137D01*
X19204Y-10304D01*
X20870D01*
X21703Y-11137D01*
Y-12803D01*
X20870Y-13636D01*
X21703Y-6138D02*
X16705D01*
X19204Y-8638D01*
Y-5305D01*
X-53000Y-22000D02*
Y-17002D01*
X-50501D01*
X-49668Y-17835D01*
Y-19501D01*
X-50501Y-20334D01*
X-53000D01*
X-51334D02*
X-49668Y-22000D01*
X-44669Y-17002D02*
X-48002D01*
Y-19501D01*
X-46336Y-18668D01*
X-45502D01*
X-44669Y-19501D01*
Y-21167D01*
X-45502Y-22000D01*
X-47169D01*
X-48002Y-21167D01*
X-39671Y-17002D02*
X-43003D01*
Y-19501D01*
X-41337Y-18668D01*
X-40504D01*
X-39671Y-19501D01*
Y-21167D01*
X-40504Y-22000D01*
X-42170D01*
X-43003Y-21167D01*
X-7000Y-49000D02*
X-11998D01*
Y-46501D01*
X-11165Y-45668D01*
X-9499D01*
X-8666Y-46501D01*
Y-49000D01*
Y-47334D02*
X-7000Y-45668D01*
X-11998Y-40669D02*
Y-44002D01*
X-9499D01*
X-10332Y-42336D01*
Y-41502D01*
X-9499Y-40669D01*
X-7833D01*
X-7000Y-41502D01*
Y-43169D01*
X-7833Y-44002D01*
X-11998Y-35671D02*
X-11165Y-37337D01*
X-9499Y-39003D01*
X-7833D01*
X-7000Y-38170D01*
Y-36504D01*
X-7833Y-35671D01*
X-8666D01*
X-9499Y-36504D01*
Y-39003D01*
X-219666Y-81629D02*
Y-76631D01*
X-217167D01*
X-216334Y-77464D01*
Y-79130D01*
X-217167Y-79963D01*
X-219666D01*
X-218000D02*
X-216334Y-81629D01*
X-211336Y-76631D02*
X-213002Y-77464D01*
X-214668Y-79130D01*
Y-80796D01*
X-213835Y-81629D01*
X-212169D01*
X-211336Y-80796D01*
Y-79963D01*
X-212169Y-79130D01*
X-214668D01*
X-206337Y-76631D02*
X-208003Y-77464D01*
X-209669Y-79130D01*
Y-80796D01*
X-208836Y-81629D01*
X-207170D01*
X-206337Y-80796D01*
Y-79963D01*
X-207170Y-79130D01*
X-209669D01*
X-218750Y-69000D02*
Y-64002D01*
X-216251D01*
X-215418Y-64835D01*
Y-66501D01*
X-216251Y-67334D01*
X-218750D01*
X-217084D02*
X-215418Y-69000D01*
X-210419Y-64002D02*
X-212085Y-64835D01*
X-213752Y-66501D01*
Y-68167D01*
X-212919Y-69000D01*
X-211252D01*
X-210419Y-68167D01*
Y-67334D01*
X-211252Y-66501D01*
X-213752D01*
X-208753Y-64002D02*
X-205421D01*
Y-64835D01*
X-208753Y-68167D01*
Y-69000D01*
X-73000Y-78002D02*
X-69668D01*
X-71334D01*
Y-83000D01*
X-68002D02*
X-66336D01*
X-67169D01*
Y-78002D01*
X-68002Y-78835D01*
X-103000Y29998D02*
X-99668D01*
X-101334D01*
Y25000D01*
X-98002Y29998D02*
Y26666D01*
X-96335Y25000D01*
X-94669Y26666D01*
Y29998D01*
X-89671Y29165D02*
X-90504Y29998D01*
X-92170D01*
X-93003Y29165D01*
Y28332D01*
X-92170Y27499D01*
X-90504D01*
X-89671Y26666D01*
Y25833D01*
X-90504Y25000D01*
X-92170D01*
X-93003Y25833D01*
X-84673Y25000D02*
X-88005D01*
X-84673Y28332D01*
Y29165D01*
X-85506Y29998D01*
X-87172D01*
X-88005Y29165D01*
X138678Y-6002D02*
Y-10167D01*
X139511Y-11000D01*
X141177D01*
X142010Y-10167D01*
Y-6002D01*
X146176Y-11000D02*
Y-6002D01*
X143676Y-8501D01*
X147009D01*
X-35270Y131840D02*
Y127675D01*
X-34437Y126842D01*
X-32771D01*
X-31938Y127675D01*
Y131840D01*
X-30272Y126842D02*
X-28605D01*
X-29439D01*
Y131840D01*
X-30272Y131007D01*
X-26106Y126842D02*
X-24440D01*
X-25273D01*
Y131840D01*
X-26106Y131007D01*
X-172000Y-41002D02*
Y-45167D01*
X-171167Y-46000D01*
X-169501D01*
X-168668Y-45167D01*
Y-41002D01*
X-167002Y-46000D02*
X-165336D01*
X-166169D01*
Y-41002D01*
X-167002Y-41835D01*
X-159504Y-46000D02*
X-162836D01*
X-159504Y-42668D01*
Y-41835D01*
X-160337Y-41002D01*
X-162003D01*
X-162836Y-41835D01*
X-215000Y-127002D02*
Y-131167D01*
X-214167Y-132000D01*
X-212501D01*
X-211668Y-131167D01*
Y-127002D01*
X-210002Y-132000D02*
X-208335D01*
X-209169D01*
Y-127002D01*
X-210002Y-127835D01*
X-202504Y-127002D02*
X-204170Y-127835D01*
X-205836Y-129501D01*
Y-131167D01*
X-205003Y-132000D01*
X-203337D01*
X-202504Y-131167D01*
Y-130334D01*
X-203337Y-129501D01*
X-205836D01*
X71764Y-78390D02*
Y-79223D01*
X73430Y-80889D01*
X75096Y-79223D01*
Y-78390D01*
X73430Y-80889D02*
Y-83389D01*
X76762D02*
X78428D01*
X77595D01*
Y-78390D01*
X76762Y-79223D01*
X87915Y-146668D02*
X87082Y-147501D01*
Y-149167D01*
X87915Y-150000D01*
X91247D01*
X92080Y-149167D01*
Y-147501D01*
X91247Y-146668D01*
X87915Y-145002D02*
X87082Y-144169D01*
Y-142502D01*
X87915Y-141669D01*
X88748D01*
X89581Y-142502D01*
Y-143336D01*
Y-142502D01*
X90414Y-141669D01*
X91247D01*
X92080Y-142502D01*
Y-144169D01*
X91247Y-145002D01*
Y-140003D02*
X92080Y-139170D01*
Y-137504D01*
X91247Y-136671D01*
X87915D01*
X87082Y-137504D01*
Y-139170D01*
X87915Y-140003D01*
X88748D01*
X89581Y-139170D01*
Y-136671D01*
X99915Y-146668D02*
X99082Y-147501D01*
Y-149167D01*
X99915Y-150000D01*
X103247D01*
X104080Y-149167D01*
Y-147501D01*
X103247Y-146668D01*
X104080Y-142502D02*
X99082D01*
X101581Y-145002D01*
Y-141669D01*
X99915Y-140003D02*
X99082Y-139170D01*
Y-137504D01*
X99915Y-136671D01*
X103247D01*
X104080Y-137504D01*
Y-139170D01*
X103247Y-140003D01*
X99915D01*
X111915Y-146668D02*
X111082Y-147501D01*
Y-149167D01*
X111915Y-150000D01*
X115247D01*
X116080Y-149167D01*
Y-147501D01*
X115247Y-146668D01*
X116080Y-142502D02*
X111082D01*
X113581Y-145002D01*
Y-141669D01*
X116080Y-140003D02*
Y-138337D01*
Y-139170D01*
X111082D01*
X111915Y-140003D01*
X124915Y-146668D02*
X124082Y-147501D01*
Y-149167D01*
X124915Y-150000D01*
X128247D01*
X129080Y-149167D01*
Y-147501D01*
X128247Y-146668D01*
X129080Y-142502D02*
X124082D01*
X126581Y-145002D01*
Y-141669D01*
X129080Y-136671D02*
Y-140003D01*
X125748Y-136671D01*
X124915D01*
X124082Y-137504D01*
Y-139170D01*
X124915Y-140003D01*
X-25998Y-64000D02*
X-21000D01*
Y-61501D01*
X-21833Y-60668D01*
X-22666D01*
X-23499Y-61501D01*
Y-64000D01*
Y-61501D01*
X-24332Y-60668D01*
X-25165D01*
X-25998Y-61501D01*
Y-64000D01*
X-25165Y-55669D02*
X-25998Y-56502D01*
Y-58169D01*
X-25165Y-59002D01*
X-21833D01*
X-21000Y-58169D01*
Y-56502D01*
X-21833Y-55669D01*
X-25165Y-54003D02*
X-25998Y-53170D01*
Y-51504D01*
X-25165Y-50671D01*
X-24332D01*
X-23499Y-51504D01*
Y-52337D01*
Y-51504D01*
X-22666Y-50671D01*
X-21833D01*
X-21000Y-51504D01*
Y-53170D01*
X-21833Y-54003D01*
X-25165Y-49005D02*
X-25998Y-48172D01*
Y-46506D01*
X-25165Y-45673D01*
X-21833D01*
X-21000Y-46506D01*
Y-48172D01*
X-21833Y-49005D01*
X-25165D01*
X-36270Y37157D02*
Y32158D01*
X-33771D01*
X-32938Y32991D01*
Y33824D01*
X-33771Y34657D01*
X-36270D01*
X-33771D01*
X-32938Y35490D01*
Y36323D01*
X-33771Y37157D01*
X-36270D01*
X-27939Y36323D02*
X-28772Y37157D01*
X-30438D01*
X-31272Y36323D01*
Y32991D01*
X-30438Y32158D01*
X-28772D01*
X-27939Y32991D01*
X-26273Y36323D02*
X-25440Y37157D01*
X-23774D01*
X-22941Y36323D01*
Y35490D01*
X-23774Y34657D01*
X-24607D01*
X-23774D01*
X-22941Y33824D01*
Y32991D01*
X-23774Y32158D01*
X-25440D01*
X-26273Y32991D01*
X-21275Y32158D02*
X-19609D01*
X-20442D01*
Y37157D01*
X-21275Y36323D01*
X-8353Y21270D02*
X-3355D01*
Y23769D01*
X-4188Y24602D01*
X-5021D01*
X-5854Y23769D01*
Y21270D01*
Y23769D01*
X-6687Y24602D01*
X-7520D01*
X-8353Y23769D01*
Y21270D01*
X-7520Y29601D02*
X-8353Y28767D01*
Y27101D01*
X-7520Y26268D01*
X-4188D01*
X-3355Y27101D01*
Y28767D01*
X-4188Y29601D01*
X-7520Y31267D02*
X-8353Y32100D01*
Y33766D01*
X-7520Y34599D01*
X-6687D01*
X-5854Y33766D01*
Y32933D01*
Y33766D01*
X-5021Y34599D01*
X-4188D01*
X-3355Y33766D01*
Y32100D01*
X-4188Y31267D01*
X-3355Y39597D02*
Y36265D01*
X-6687Y39597D01*
X-7520D01*
X-8353Y38764D01*
Y37098D01*
X-7520Y36265D01*
X12002Y46000D02*
X17000D01*
Y48499D01*
X16167Y49332D01*
X15334D01*
X14501Y48499D01*
Y46000D01*
Y48499D01*
X13668Y49332D01*
X12835D01*
X12002Y48499D01*
Y46000D01*
X12835Y54331D02*
X12002Y53498D01*
Y51831D01*
X12835Y50998D01*
X16167D01*
X17000Y51831D01*
Y53498D01*
X16167Y54331D01*
X12835Y55997D02*
X12002Y56830D01*
Y58496D01*
X12835Y59329D01*
X13668D01*
X14501Y58496D01*
Y57663D01*
Y58496D01*
X15334Y59329D01*
X16167D01*
X17000Y58496D01*
Y56830D01*
X16167Y55997D01*
X12835Y60995D02*
X12002Y61828D01*
Y63494D01*
X12835Y64327D01*
X13668D01*
X14501Y63494D01*
Y62661D01*
Y63494D01*
X15334Y64327D01*
X16167D01*
X17000Y63494D01*
Y61828D01*
X16167Y60995D01*
X-73998Y-6000D02*
X-69000D01*
Y-3501D01*
X-69833Y-2668D01*
X-70666D01*
X-71499Y-3501D01*
Y-6000D01*
Y-3501D01*
X-72332Y-2668D01*
X-73165D01*
X-73998Y-3501D01*
Y-6000D01*
X-73165Y2331D02*
X-73998Y1498D01*
Y-169D01*
X-73165Y-1002D01*
X-69833D01*
X-69000Y-169D01*
Y1498D01*
X-69833Y2331D01*
X-73165Y3997D02*
X-73998Y4830D01*
Y6496D01*
X-73165Y7329D01*
X-72332D01*
X-71499Y6496D01*
Y5663D01*
Y6496D01*
X-70666Y7329D01*
X-69833D01*
X-69000Y6496D01*
Y4830D01*
X-69833Y3997D01*
X-69000Y11494D02*
X-73998D01*
X-71499Y8995D01*
Y12327D01*
X32160Y-38730D02*
X37158D01*
Y-36231D01*
X36325Y-35398D01*
X35492D01*
X34659Y-36231D01*
Y-38730D01*
Y-36231D01*
X33826Y-35398D01*
X32993D01*
X32160Y-36231D01*
Y-38730D01*
X32993Y-30399D02*
X32160Y-31233D01*
Y-32899D01*
X32993Y-33732D01*
X36325D01*
X37158Y-32899D01*
Y-31233D01*
X36325Y-30399D01*
X32993Y-28733D02*
X32160Y-27900D01*
Y-26234D01*
X32993Y-25401D01*
X33826D01*
X34659Y-26234D01*
Y-27067D01*
Y-26234D01*
X35492Y-25401D01*
X36325D01*
X37158Y-26234D01*
Y-27900D01*
X36325Y-28733D01*
X32160Y-20403D02*
Y-23735D01*
X34659D01*
X33826Y-22069D01*
Y-21236D01*
X34659Y-20403D01*
X36325D01*
X37158Y-21236D01*
Y-22902D01*
X36325Y-23735D01*
X-12998Y61000D02*
X-8000D01*
Y63499D01*
X-8833Y64332D01*
X-9666D01*
X-10499Y63499D01*
Y61000D01*
Y63499D01*
X-11332Y64332D01*
X-12165D01*
X-12998Y63499D01*
Y61000D01*
X-12165Y69331D02*
X-12998Y68498D01*
Y66831D01*
X-12165Y65998D01*
X-8833D01*
X-8000Y66831D01*
Y68498D01*
X-8833Y69331D01*
X-12165Y70997D02*
X-12998Y71830D01*
Y73496D01*
X-12165Y74329D01*
X-11332D01*
X-10499Y73496D01*
Y72663D01*
Y73496D01*
X-9666Y74329D01*
X-8833D01*
X-8000Y73496D01*
Y71830D01*
X-8833Y70997D01*
X-12998Y79327D02*
X-12165Y77661D01*
X-10499Y75995D01*
X-8833D01*
X-8000Y76828D01*
Y78494D01*
X-8833Y79327D01*
X-9666D01*
X-10499Y78494D01*
Y75995D01*
X-51998Y9000D02*
X-47000D01*
Y11499D01*
X-47833Y12332D01*
X-48666D01*
X-49499Y11499D01*
Y9000D01*
Y11499D01*
X-50332Y12332D01*
X-51165D01*
X-51998Y11499D01*
Y9000D01*
X-51165Y17331D02*
X-51998Y16498D01*
Y14831D01*
X-51165Y13998D01*
X-47833D01*
X-47000Y14831D01*
Y16498D01*
X-47833Y17331D01*
X-51165Y18997D02*
X-51998Y19830D01*
Y21496D01*
X-51165Y22329D01*
X-50332D01*
X-49499Y21496D01*
Y20663D01*
Y21496D01*
X-48666Y22329D01*
X-47833D01*
X-47000Y21496D01*
Y19830D01*
X-47833Y18997D01*
X-51998Y23995D02*
Y27327D01*
X-51165D01*
X-47833Y23995D01*
X-47000D01*
X-13998Y-33000D02*
X-9000D01*
Y-30501D01*
X-9833Y-29668D01*
X-10666D01*
X-11499Y-30501D01*
Y-33000D01*
Y-30501D01*
X-12332Y-29668D01*
X-13165D01*
X-13998Y-30501D01*
Y-33000D01*
X-13165Y-24669D02*
X-13998Y-25503D01*
Y-27169D01*
X-13165Y-28002D01*
X-9833D01*
X-9000Y-27169D01*
Y-25503D01*
X-9833Y-24669D01*
X-13165Y-23003D02*
X-13998Y-22170D01*
Y-20504D01*
X-13165Y-19671D01*
X-12332D01*
X-11499Y-20504D01*
Y-21337D01*
Y-20504D01*
X-10666Y-19671D01*
X-9833D01*
X-9000Y-20504D01*
Y-22170D01*
X-9833Y-23003D01*
X-13165Y-18005D02*
X-13998Y-17172D01*
Y-15506D01*
X-13165Y-14673D01*
X-12332D01*
X-11499Y-15506D01*
X-10666Y-14673D01*
X-9833D01*
X-9000Y-15506D01*
Y-17172D01*
X-9833Y-18005D01*
X-10666D01*
X-11499Y-17172D01*
X-12332Y-18005D01*
X-13165D01*
X-11499Y-17172D02*
Y-15506D01*
X-43730Y27157D02*
Y22158D01*
X-41231D01*
X-40398Y22991D01*
Y23824D01*
X-41231Y24657D01*
X-43730D01*
X-41231D01*
X-40398Y25490D01*
Y26323D01*
X-41231Y27157D01*
X-43730D01*
X-35399Y26323D02*
X-36233Y27157D01*
X-37899D01*
X-38732Y26323D01*
Y22991D01*
X-37899Y22158D01*
X-36233D01*
X-35399Y22991D01*
X-33733Y26323D02*
X-32900Y27157D01*
X-31234D01*
X-30401Y26323D01*
Y25490D01*
X-31234Y24657D01*
X-32067D01*
X-31234D01*
X-30401Y23824D01*
Y22991D01*
X-31234Y22158D01*
X-32900D01*
X-33733Y22991D01*
X-28735D02*
X-27902Y22158D01*
X-26236D01*
X-25403Y22991D01*
Y26323D01*
X-26236Y27157D01*
X-27902D01*
X-28735Y26323D01*
Y25490D01*
X-27902Y24657D01*
X-25403D01*
X-51998Y-13000D02*
X-47000D01*
Y-10501D01*
X-47833Y-9668D01*
X-48666D01*
X-49499Y-10501D01*
Y-13000D01*
Y-10501D01*
X-50332Y-9668D01*
X-51165D01*
X-51998Y-10501D01*
Y-13000D01*
X-51165Y-4669D02*
X-51998Y-5502D01*
Y-7169D01*
X-51165Y-8002D01*
X-47833D01*
X-47000Y-7169D01*
Y-5502D01*
X-47833Y-4669D01*
X-47000Y-504D02*
X-51998D01*
X-49499Y-3003D01*
Y329D01*
X-51165Y1995D02*
X-51998Y2828D01*
Y4494D01*
X-51165Y5327D01*
X-47833D01*
X-47000Y4494D01*
Y2828D01*
X-47833Y1995D01*
X-51165D01*
X45369Y-12374D02*
X50367D01*
Y-9875D01*
X49534Y-9042D01*
X48701D01*
X47868Y-9875D01*
Y-12374D01*
Y-9875D01*
X47035Y-9042D01*
X46202D01*
X45369Y-9875D01*
Y-12374D01*
X46202Y-4044D02*
X45369Y-4877D01*
Y-6543D01*
X46202Y-7376D01*
X49534D01*
X50367Y-6543D01*
Y-4877D01*
X49534Y-4044D01*
X50367Y122D02*
X45369D01*
X47868Y-2377D01*
Y955D01*
X50367Y2621D02*
Y4287D01*
Y3454D01*
X45369D01*
X46202Y2621D01*
X43000Y56997D02*
Y51998D01*
X45499D01*
X46332Y52831D01*
Y53664D01*
X45499Y54498D01*
X43000D01*
X45499D01*
X46332Y55331D01*
Y56164D01*
X45499Y56997D01*
X43000D01*
X51331Y56164D02*
X50497Y56997D01*
X48831D01*
X47998Y56164D01*
Y52831D01*
X48831Y51998D01*
X50497D01*
X51331Y52831D01*
X55496Y51998D02*
Y56997D01*
X52997Y54498D01*
X56329D01*
X61327Y51998D02*
X57995D01*
X61327Y55331D01*
Y56164D01*
X60494Y56997D01*
X58828D01*
X57995Y56164D01*
X43000Y49998D02*
Y45000D01*
X45499D01*
X46332Y45833D01*
Y46666D01*
X45499Y47499D01*
X43000D01*
X45499D01*
X46332Y48332D01*
Y49165D01*
X45499Y49998D01*
X43000D01*
X51331Y49165D02*
X50497Y49998D01*
X48831D01*
X47998Y49165D01*
Y45833D01*
X48831Y45000D01*
X50497D01*
X51331Y45833D01*
X55496Y45000D02*
Y49998D01*
X52997Y47499D01*
X56329D01*
X57995Y49165D02*
X58828Y49998D01*
X60494D01*
X61327Y49165D01*
Y48332D01*
X60494Y47499D01*
X59661D01*
X60494D01*
X61327Y46666D01*
Y45833D01*
X60494Y45000D01*
X58828D01*
X57995Y45833D01*
X74000Y63998D02*
Y59000D01*
X76499D01*
X77332Y59833D01*
Y60666D01*
X76499Y61499D01*
X74000D01*
X76499D01*
X77332Y62332D01*
Y63165D01*
X76499Y63998D01*
X74000D01*
X82331Y63165D02*
X81498Y63998D01*
X79831D01*
X78998Y63165D01*
Y59833D01*
X79831Y59000D01*
X81498D01*
X82331Y59833D01*
X86496Y59000D02*
Y63998D01*
X83997Y61499D01*
X87329D01*
X91494Y59000D02*
Y63998D01*
X88995Y61499D01*
X92327D01*
X46270Y-16272D02*
Y-21270D01*
X48769D01*
X49602Y-20437D01*
Y-19604D01*
X48769Y-18771D01*
X46270D01*
X48769D01*
X49602Y-17938D01*
Y-17105D01*
X48769Y-16272D01*
X46270D01*
X54601Y-17105D02*
X53768Y-16272D01*
X52101D01*
X51268Y-17105D01*
Y-20437D01*
X52101Y-21270D01*
X53768D01*
X54601Y-20437D01*
X58766Y-21270D02*
Y-16272D01*
X56267Y-18771D01*
X59599D01*
X64597Y-16272D02*
X61265D01*
Y-18771D01*
X62931Y-17938D01*
X63764D01*
X64597Y-18771D01*
Y-20437D01*
X63764Y-21270D01*
X62098D01*
X61265Y-20437D01*
X86000Y29998D02*
Y25000D01*
X88499D01*
X89332Y25833D01*
Y26666D01*
X88499Y27499D01*
X86000D01*
X88499D01*
X89332Y28332D01*
Y29165D01*
X88499Y29998D01*
X86000D01*
X94331Y29165D02*
X93498Y29998D01*
X91831D01*
X90998Y29165D01*
Y25833D01*
X91831Y25000D01*
X93498D01*
X94331Y25833D01*
X98496Y25000D02*
Y29998D01*
X95997Y27499D01*
X99329D01*
X104327Y29998D02*
X102661Y29165D01*
X100995Y27499D01*
Y25833D01*
X101828Y25000D01*
X103494D01*
X104327Y25833D01*
Y26666D01*
X103494Y27499D01*
X100995D01*
X53000Y63998D02*
Y59000D01*
X55499D01*
X56332Y59833D01*
Y60666D01*
X55499Y61499D01*
X53000D01*
X55499D01*
X56332Y62332D01*
Y63165D01*
X55499Y63998D01*
X53000D01*
X61331Y63165D02*
X60497Y63998D01*
X58831D01*
X57998Y63165D01*
Y59833D01*
X58831Y59000D01*
X60497D01*
X61331Y59833D01*
X65496Y59000D02*
Y63998D01*
X62997Y61499D01*
X66329D01*
X67995Y63998D02*
X71327D01*
Y63165D01*
X67995Y59833D01*
Y59000D01*
X47000Y-27002D02*
Y-32000D01*
X49499D01*
X50332Y-31167D01*
Y-30334D01*
X49499Y-29501D01*
X47000D01*
X49499D01*
X50332Y-28668D01*
Y-27835D01*
X49499Y-27002D01*
X47000D01*
X55331Y-27835D02*
X54498Y-27002D01*
X52831D01*
X51998Y-27835D01*
Y-31167D01*
X52831Y-32000D01*
X54498D01*
X55331Y-31167D01*
X59496Y-32000D02*
Y-27002D01*
X56997Y-29501D01*
X60329D01*
X61995Y-27835D02*
X62828Y-27002D01*
X64494D01*
X65327Y-27835D01*
Y-28668D01*
X64494Y-29501D01*
X65327Y-30334D01*
Y-31167D01*
X64494Y-32000D01*
X62828D01*
X61995Y-31167D01*
Y-30334D01*
X62828Y-29501D01*
X61995Y-28668D01*
Y-27835D01*
X62828Y-29501D02*
X64494D01*
X55874Y1598D02*
X55041Y2431D01*
X53375D01*
X52542Y1598D01*
Y-1734D01*
X53375Y-2567D01*
X55041D01*
X55874Y-1734D01*
X60040Y-2567D02*
Y2431D01*
X57540Y-68D01*
X60873D01*
X62539Y1598D02*
X63372Y2431D01*
X65038D01*
X65871Y1598D01*
Y765D01*
X65038Y-68D01*
X64205D01*
X65038D01*
X65871Y-901D01*
Y-1734D01*
X65038Y-2567D01*
X63372D01*
X62539Y-1734D01*
X115002Y81332D02*
Y78000D01*
X117501D01*
Y79666D01*
Y78000D01*
X120000D01*
X115002Y82998D02*
X120000D01*
Y85498D01*
X119167Y86331D01*
X118334D01*
X117501Y85498D01*
Y82998D01*
Y85498D01*
X116668Y86331D01*
X115835D01*
X115002Y85498D01*
Y82998D01*
X120000Y87997D02*
Y89663D01*
Y88830D01*
X115002D01*
X115835Y87997D01*
Y92162D02*
X115002Y92995D01*
Y94661D01*
X115835Y95494D01*
X116668D01*
X117501Y94661D01*
Y93828D01*
Y94661D01*
X118334Y95494D01*
X119167D01*
X120000Y94661D01*
Y92995D01*
X119167Y92162D01*
M02*
