G04*
G04 #@! TF.GenerationSoftware,Altium Limited,Altium Designer,20.0.2 (26)*
G04*
G04 Layer_Color=8421504*
%FSLAX44Y44*%
%MOMM*%
G71*
G01*
G75*
%ADD11C,0.2000*%
%ADD17C,0.0254*%
%ADD18R,0.6000X0.5000*%
%ADD19R,0.5000X0.6000*%
%ADD20R,0.8128X0.8128*%
%ADD21R,1.4000X0.6000*%
%ADD22R,1.4000X1.2000*%
%ADD23R,0.7000X1.6000*%
%ADD24R,1.1000X1.4000*%
%ADD25R,1.6000X1.4000*%
%ADD26R,1.2000X2.2000*%
%ADD27R,1.5000X0.4000*%
%ADD28R,1.2000X1.6000*%
%ADD29R,1.3970X1.3970*%
%ADD30R,1.2700X0.5080*%
%ADD31R,1.0160X0.8890*%
%ADD32R,0.8890X1.0160*%
%ADD33P,1.8385X4X90.0*%
%ADD34R,0.8000X1.6000*%
%ADD35R,1.2000X1.4000*%
%ADD36R,0.6000X0.7000*%
%ADD37R,1.0668X0.8128*%
G04:AMPARAMS|DCode=38|XSize=0.22mm|YSize=0.8mm|CornerRadius=0mm|HoleSize=0mm|Usage=FLASHONLY|Rotation=180.000|XOffset=0mm|YOffset=0mm|HoleType=Round|Shape=RoundedRectangle|*
%AMROUNDEDRECTD38*
21,1,0.2200,0.8000,0,0,180.0*
21,1,0.2200,0.8000,0,0,180.0*
1,1,0.0000,-0.1100,0.4000*
1,1,0.0000,0.1100,0.4000*
1,1,0.0000,0.1100,-0.4000*
1,1,0.0000,-0.1100,-0.4000*
%
%ADD38ROUNDEDRECTD38*%
%ADD39R,4.3000X4.3000*%
G04:AMPARAMS|DCode=40|XSize=0.22mm|YSize=0.8mm|CornerRadius=0mm|HoleSize=0mm|Usage=FLASHONLY|Rotation=270.000|XOffset=0mm|YOffset=0mm|HoleType=Round|Shape=RoundedRectangle|*
%AMROUNDEDRECTD40*
21,1,0.2200,0.8000,0,0,270.0*
21,1,0.2200,0.8000,0,0,270.0*
1,1,0.0000,-0.4000,-0.1100*
1,1,0.0000,-0.4000,0.1100*
1,1,0.0000,0.4000,0.1100*
1,1,0.0000,0.4000,-0.1100*
%
%ADD40ROUNDEDRECTD40*%
%ADD41R,0.7600X1.5200*%
%ADD42R,1.6002X1.2954*%
%ADD43R,1.2000X1.2500*%
%ADD44R,2.4000X1.2500*%
%ADD45R,0.8128X0.8128*%
%ADD46R,0.5000X1.1000*%
%ADD47R,1.8000X0.2500*%
D11*
X-290000Y190000D02*
G03*
X-300000Y180000I0J-10000D01*
G01*
Y-180000D02*
G03*
X-290000Y-190000I10000J0D01*
G01*
X299941Y180000D02*
G03*
X289941Y190000I-10000J0D01*
G01*
Y-190000D02*
G03*
X299941Y-180000I0J10000D01*
G01*
X-290000Y190000D02*
X289941Y190000D01*
X-290000Y-190000D02*
X289941Y-190000D01*
X-300000Y-180000D02*
Y180000D01*
X300000Y-180000D02*
Y180000D01*
D17*
X28993Y-154584D02*
X29000D01*
X2493Y-143984D02*
X2500D01*
X27493D02*
X27500D01*
X53993Y-154584D02*
X54000D01*
D18*
X141270Y-165500D02*
D03*
Y-174500D02*
D03*
X5000Y45500D02*
D03*
Y54500D02*
D03*
X25000Y-34500D02*
D03*
Y-25500D02*
D03*
X-61000Y-8500D02*
D03*
Y-17500D02*
D03*
X-23000Y-41500D02*
D03*
Y-32500D02*
D03*
X-11000Y45500D02*
D03*
Y54500D02*
D03*
X-24000Y45500D02*
D03*
Y54500D02*
D03*
X5000Y34500D02*
D03*
Y25500D02*
D03*
X-18000Y-9500D02*
D03*
Y-500D02*
D03*
X82000Y44500D02*
D03*
Y53500D02*
D03*
X70000Y44500D02*
D03*
Y53500D02*
D03*
X9500Y-49230D02*
D03*
Y-40230D02*
D03*
X42000Y-57500D02*
D03*
Y-48500D02*
D03*
X126080Y-157500D02*
D03*
Y-166500D02*
D03*
X114080Y-157500D02*
D03*
Y-166500D02*
D03*
X102080Y-157500D02*
D03*
Y-166500D02*
D03*
X90080Y-157500D02*
D03*
Y-166500D02*
D03*
X7000Y89500D02*
D03*
Y80500D02*
D03*
X144000Y102500D02*
D03*
Y93500D02*
D03*
Y56500D02*
D03*
Y47500D02*
D03*
X105000D02*
D03*
Y56500D02*
D03*
X118356Y-83994D02*
D03*
Y-92994D02*
D03*
X117000Y47500D02*
D03*
Y56500D02*
D03*
X132000Y47500D02*
D03*
Y56500D02*
D03*
X109000Y-65500D02*
D03*
Y-74500D02*
D03*
Y-54500D02*
D03*
Y-45500D02*
D03*
X-230000Y-181500D02*
D03*
Y-172500D02*
D03*
X191428Y-98420D02*
D03*
Y-107420D02*
D03*
X165270Y-155230D02*
D03*
Y-146230D02*
D03*
X153270Y-155230D02*
D03*
Y-146230D02*
D03*
X141270Y-155230D02*
D03*
Y-146230D02*
D03*
X7000Y117500D02*
D03*
Y108500D02*
D03*
X161000Y149500D02*
D03*
Y140500D02*
D03*
D19*
X194500Y-121000D02*
D03*
X185500D02*
D03*
X80500Y-26000D02*
D03*
X71500D02*
D03*
X-196250Y-80000D02*
D03*
X-187250D02*
D03*
X-40500Y14000D02*
D03*
X-31500D02*
D03*
X-40500Y-10000D02*
D03*
X-31500D02*
D03*
X-40500Y2000D02*
D03*
X-31500D02*
D03*
X50500Y36000D02*
D03*
X59500D02*
D03*
X80500Y21000D02*
D03*
X71500D02*
D03*
X53500Y12000D02*
D03*
X62500D02*
D03*
X50875Y24000D02*
D03*
X59875D02*
D03*
X80500Y-14000D02*
D03*
X71500D02*
D03*
X500Y-30000D02*
D03*
X9500D02*
D03*
X-88500Y-33000D02*
D03*
X-97500D02*
D03*
X29500Y-57000D02*
D03*
X20500D02*
D03*
X80500Y0D02*
D03*
X71500D02*
D03*
X9500Y12000D02*
D03*
X500D02*
D03*
X71500Y33000D02*
D03*
X80500D02*
D03*
X500Y0D02*
D03*
X9500D02*
D03*
X500Y-12000D02*
D03*
X9500D02*
D03*
X-21500Y-22000D02*
D03*
X-30500D02*
D03*
X39500Y10000D02*
D03*
X30500D02*
D03*
X39500Y30000D02*
D03*
X30500D02*
D03*
X-196403Y-53866D02*
D03*
X-187403D02*
D03*
X-117500Y-67000D02*
D03*
X-108500D02*
D03*
X-196250D02*
D03*
X-187250D02*
D03*
X-70500Y-93000D02*
D03*
X-79500D02*
D03*
X39500Y-10000D02*
D03*
X30500D02*
D03*
X80953Y-178000D02*
D03*
X71953D02*
D03*
X91500D02*
D03*
X100500D02*
D03*
X-82053D02*
D03*
X-73053D02*
D03*
X-92500D02*
D03*
X-101500D02*
D03*
X201500Y115000D02*
D03*
X210500D02*
D03*
X36500Y72000D02*
D03*
X27500D02*
D03*
X91500Y136000D02*
D03*
X82500D02*
D03*
X-25500Y75000D02*
D03*
X-34500D02*
D03*
D20*
X130000Y101620D02*
D03*
Y86380D02*
D03*
X28000Y85380D02*
D03*
Y100620D02*
D03*
D21*
X-156500Y-163200D02*
D03*
X-93500D02*
D03*
Y-154800D02*
D03*
X-156500D02*
D03*
D22*
X-73000Y-46500D02*
D03*
X-51000D02*
D03*
Y-31500D02*
D03*
X-73000D02*
D03*
D23*
X-50653Y44118D02*
D03*
X-61606D02*
D03*
X-72656D02*
D03*
X-83623D02*
D03*
X-94590D02*
D03*
X-105630D02*
D03*
X-116646D02*
D03*
X-127606D02*
D03*
X-138659D02*
D03*
D24*
X-38596Y49111D02*
D03*
D25*
X-184616Y49201D02*
D03*
D26*
X-38539Y145201D02*
D03*
X-193626Y145198D02*
D03*
D27*
X-230500Y-162000D02*
D03*
Y-155500D02*
D03*
Y-149000D02*
D03*
Y-142500D02*
D03*
X-187500D02*
D03*
Y-149000D02*
D03*
Y-155500D02*
D03*
Y-162000D02*
D03*
D28*
X-78000Y-127000D02*
D03*
X-110000D02*
D03*
D29*
X-167205Y-101000D02*
D03*
X-188795D02*
D03*
D30*
X-169000Y-57500D02*
D03*
Y-67000D02*
D03*
Y-76500D02*
D03*
X-143000D02*
D03*
Y-67000D02*
D03*
Y-57500D02*
D03*
D31*
X203810Y10269D02*
D03*
Y26271D02*
D03*
X81730Y153499D02*
D03*
Y169501D02*
D03*
X5000Y153499D02*
D03*
Y169501D02*
D03*
X-143000Y-22999D02*
D03*
Y-39001D02*
D03*
D32*
X159999Y102000D02*
D03*
X176001D02*
D03*
X200999Y51366D02*
D03*
X217001D02*
D03*
X56001Y117000D02*
D03*
X39999D02*
D03*
X132001Y135000D02*
D03*
X115999D02*
D03*
D33*
X161000Y26000D02*
D03*
X183000Y48000D02*
D03*
D34*
X221250Y-177000D02*
D03*
X208750D02*
D03*
X196250D02*
D03*
X183750D02*
D03*
X171250D02*
D03*
X158750D02*
D03*
D35*
X77500Y-44000D02*
D03*
Y-66000D02*
D03*
X92500D02*
D03*
Y-44000D02*
D03*
D36*
X-76100Y24000D02*
D03*
X-61900D02*
D03*
D37*
X106544Y100412D02*
D03*
Y119487D02*
D03*
X83608Y109949D02*
D03*
X201544Y130412D02*
D03*
Y149487D02*
D03*
X178608Y139949D02*
D03*
D38*
X162678Y-81495D02*
D03*
X158678D02*
D03*
X154678D02*
D03*
X150678D02*
D03*
X146678D02*
D03*
X142678D02*
D03*
X138678D02*
D03*
X166678D02*
D03*
X170678D02*
D03*
X174678D02*
D03*
X178678D02*
D03*
X182678D02*
D03*
X142678Y-21494D02*
D03*
X138678D02*
D03*
X146678D02*
D03*
X150678D02*
D03*
X182678D02*
D03*
X178678D02*
D03*
X174678D02*
D03*
X170678D02*
D03*
X166678D02*
D03*
X154678D02*
D03*
X158678D02*
D03*
X162678D02*
D03*
D39*
X160678Y-51494D02*
D03*
D40*
X190678Y-53495D02*
D03*
Y-49495D02*
D03*
Y-45494D02*
D03*
Y-57494D02*
D03*
Y-61494D02*
D03*
Y-65494D02*
D03*
Y-69494D02*
D03*
Y-73494D02*
D03*
Y-41494D02*
D03*
Y-37494D02*
D03*
Y-29495D02*
D03*
Y-33495D02*
D03*
X130678Y-69494D02*
D03*
Y-73494D02*
D03*
Y-65494D02*
D03*
Y-61494D02*
D03*
Y-29494D02*
D03*
Y-33494D02*
D03*
Y-37494D02*
D03*
Y-41494D02*
D03*
Y-45494D02*
D03*
Y-57494D02*
D03*
Y-53494D02*
D03*
Y-49494D02*
D03*
D41*
X43520Y-170450D02*
D03*
X30820D02*
D03*
X18120D02*
D03*
X-19980D02*
D03*
X-32680D02*
D03*
X-45380D02*
D03*
X-45520Y-81550D02*
D03*
X-32820D02*
D03*
X-20120D02*
D03*
X17980D02*
D03*
X30680D02*
D03*
X43363D02*
D03*
D42*
X79662Y77270D02*
D03*
X54262D02*
D03*
D43*
X-167500Y-126717D02*
D03*
D44*
X-136750D02*
D03*
D45*
X159620Y118000D02*
D03*
X144380D02*
D03*
D46*
X-6500Y116500D02*
D03*
X-16000D02*
D03*
X-25500D02*
D03*
Y89500D02*
D03*
X-6500D02*
D03*
D47*
X244700Y122500D02*
D03*
X282700D02*
D03*
X244700Y117500D02*
D03*
X282700D02*
D03*
Y112500D02*
D03*
X244700D02*
D03*
X282700Y42500D02*
D03*
X244700D02*
D03*
X282700Y47500D02*
D03*
X244700D02*
D03*
X282700Y52500D02*
D03*
X244700D02*
D03*
X282700Y57500D02*
D03*
X244700D02*
D03*
X282700Y62500D02*
D03*
X244700D02*
D03*
X282700Y67500D02*
D03*
X244700D02*
D03*
Y107500D02*
D03*
X282700D02*
D03*
X244700Y102500D02*
D03*
X282700D02*
D03*
X244700Y97500D02*
D03*
X282700D02*
D03*
X244700Y92500D02*
D03*
X282700D02*
D03*
X244700Y87500D02*
D03*
X282700D02*
D03*
X244700Y82500D02*
D03*
X282700D02*
D03*
X244700Y77500D02*
D03*
X282700D02*
D03*
Y72500D02*
D03*
X244700D02*
D03*
Y-77500D02*
D03*
X282700D02*
D03*
Y-72500D02*
D03*
X244700D02*
D03*
X282700Y-67500D02*
D03*
X244700D02*
D03*
X282700Y-62500D02*
D03*
X244700D02*
D03*
X282700Y-57500D02*
D03*
X244700D02*
D03*
X282700Y-52500D02*
D03*
X244700D02*
D03*
X282700Y-47500D02*
D03*
X244700D02*
D03*
X282700Y-42500D02*
D03*
X244700D02*
D03*
Y-82500D02*
D03*
X282700D02*
D03*
X244700Y-87500D02*
D03*
X282700D02*
D03*
X244700Y-92500D02*
D03*
X282700D02*
D03*
X244700Y-97500D02*
D03*
X282700D02*
D03*
X244700Y-102500D02*
D03*
X282700D02*
D03*
X244700Y-107500D02*
D03*
X282700D02*
D03*
X244700Y-112500D02*
D03*
X282700D02*
D03*
Y-117500D02*
D03*
X244700D02*
D03*
X282700Y-122500D02*
D03*
X244700D02*
D03*
Y-37500D02*
D03*
X282700D02*
D03*
Y-32500D02*
D03*
X244700D02*
D03*
X282700Y-27500D02*
D03*
X244700D02*
D03*
X282700Y-22500D02*
D03*
X244700D02*
D03*
X282700Y-17500D02*
D03*
X244700D02*
D03*
X282700Y-12500D02*
D03*
X244700D02*
D03*
X282700Y-7500D02*
D03*
X244700D02*
D03*
X282700Y-2500D02*
D03*
X244700D02*
D03*
Y37500D02*
D03*
X282700D02*
D03*
X244700Y32500D02*
D03*
X282700D02*
D03*
X244700Y27500D02*
D03*
X282700D02*
D03*
X244700Y22500D02*
D03*
X282700D02*
D03*
X244700Y17500D02*
D03*
X282700D02*
D03*
X244700Y12500D02*
D03*
X282700D02*
D03*
X244700Y7500D02*
D03*
X282700D02*
D03*
Y2500D02*
D03*
X244700D02*
D03*
X-281700Y2500D02*
D03*
Y7500D02*
D03*
Y12500D02*
D03*
Y17500D02*
D03*
Y22500D02*
D03*
Y27500D02*
D03*
Y32500D02*
D03*
Y37500D02*
D03*
Y-2500D02*
D03*
Y-7500D02*
D03*
Y-12500D02*
D03*
Y-17500D02*
D03*
Y-22500D02*
D03*
Y-27500D02*
D03*
Y-32500D02*
D03*
Y-37500D02*
D03*
Y-122500D02*
D03*
Y-117500D02*
D03*
Y-112500D02*
D03*
Y-107500D02*
D03*
Y-102500D02*
D03*
Y-97500D02*
D03*
Y-92500D02*
D03*
Y-87500D02*
D03*
Y-82500D02*
D03*
Y-42500D02*
D03*
Y-47500D02*
D03*
Y-52500D02*
D03*
Y-57500D02*
D03*
Y-62500D02*
D03*
Y-67500D02*
D03*
Y-72500D02*
D03*
Y-77500D02*
D03*
Y72500D02*
D03*
Y77500D02*
D03*
Y82500D02*
D03*
Y87500D02*
D03*
Y92500D02*
D03*
Y97500D02*
D03*
Y102500D02*
D03*
Y107500D02*
D03*
Y67500D02*
D03*
Y62500D02*
D03*
Y57500D02*
D03*
Y52500D02*
D03*
Y47500D02*
D03*
Y42500D02*
D03*
Y112500D02*
D03*
Y117500D02*
D03*
Y122500D02*
D03*
X-245700D02*
D03*
Y117500D02*
D03*
Y112500D02*
D03*
Y42500D02*
D03*
Y47500D02*
D03*
Y52500D02*
D03*
Y57500D02*
D03*
Y62500D02*
D03*
Y67500D02*
D03*
Y107500D02*
D03*
Y102500D02*
D03*
Y97500D02*
D03*
Y92500D02*
D03*
Y87500D02*
D03*
Y82500D02*
D03*
Y77500D02*
D03*
Y72500D02*
D03*
Y-77500D02*
D03*
Y-72500D02*
D03*
Y-67500D02*
D03*
Y-62500D02*
D03*
Y-57500D02*
D03*
Y-52500D02*
D03*
Y-47500D02*
D03*
Y-42500D02*
D03*
Y-82500D02*
D03*
Y-87500D02*
D03*
Y-92500D02*
D03*
Y-97500D02*
D03*
Y-102500D02*
D03*
Y-107500D02*
D03*
Y-112500D02*
D03*
Y-117500D02*
D03*
Y-122500D02*
D03*
Y-37500D02*
D03*
Y-32500D02*
D03*
Y-27500D02*
D03*
Y-22500D02*
D03*
Y-17500D02*
D03*
Y-12500D02*
D03*
Y-7500D02*
D03*
Y-2500D02*
D03*
Y37500D02*
D03*
Y32500D02*
D03*
Y27500D02*
D03*
Y22500D02*
D03*
Y17500D02*
D03*
Y12500D02*
D03*
Y7500D02*
D03*
Y2500D02*
D03*
M02*
