%FSLAX44Y44*%
%MOMM*%
G71*
G01*
G75*
G04 Layer_Physical_Order=2*
G04 Layer_Color=36540*
%ADD10R,1.5000X0.4000*%
%ADD11R,0.6000X0.5000*%
%ADD12R,1.2000X1.6000*%
%ADD13R,0.5000X0.6000*%
%ADD14R,1.3970X1.3970*%
%ADD15R,1.2700X0.5080*%
%ADD16R,1.0160X0.8890*%
%ADD17R,0.8890X1.0160*%
%ADD18P,1.8385X4X90.0*%
%ADD19R,0.7000X0.6000*%
%ADD20R,1.4000X0.6000*%
%ADD21R,0.8000X1.6000*%
%ADD22R,1.2500X0.3000*%
%ADD23R,1.2000X1.4000*%
%ADD24R,1.2000X2.2000*%
%ADD25R,1.6000X1.4000*%
%ADD26R,1.1000X1.4000*%
%ADD27R,0.7000X1.6000*%
%ADD28R,1.0668X0.8128*%
G04:AMPARAMS|DCode=29|XSize=0.22mm|YSize=0.8mm|CornerRadius=0mm|HoleSize=0mm|Usage=FLASHONLY|Rotation=180.000|XOffset=0mm|YOffset=0mm|HoleType=Round|Shape=RoundedRectangle|*
%AMROUNDEDRECTD29*
21,1,0.2200,0.8000,0,0,180.0*
21,1,0.2200,0.8000,0,0,180.0*
1,1,0.0000,-0.1100,0.4000*
1,1,0.0000,0.1100,0.4000*
1,1,0.0000,0.1100,-0.4000*
1,1,0.0000,-0.1100,-0.4000*
%
%ADD29ROUNDEDRECTD29*%
%ADD30R,4.3000X4.3000*%
G04:AMPARAMS|DCode=31|XSize=0.22mm|YSize=0.8mm|CornerRadius=0mm|HoleSize=0mm|Usage=FLASHONLY|Rotation=270.000|XOffset=0mm|YOffset=0mm|HoleType=Round|Shape=RoundedRectangle|*
%AMROUNDEDRECTD31*
21,1,0.2200,0.8000,0,0,270.0*
21,1,0.2200,0.8000,0,0,270.0*
1,1,0.0000,-0.4000,-0.1100*
1,1,0.0000,-0.4000,0.1100*
1,1,0.0000,0.4000,0.1100*
1,1,0.0000,0.4000,-0.1100*
%
%ADD31ROUNDEDRECTD31*%
%ADD32R,0.8128X0.8128*%
%ADD33R,0.7600X1.5200*%
%ADD34R,1.2954X1.6002*%
%ADD35R,1.2000X1.2500*%
%ADD36R,2.4000X1.2500*%
%ADD37C,0.4000*%
%ADD38C,0.2000*%
%ADD39C,0.1270*%
%ADD40C,0.2540*%
%ADD41C,0.6000*%
%ADD42C,0.3000*%
%ADD43R,1.3000X1.2000*%
%ADD44C,0.0254*%
%ADD45C,1.5240*%
%ADD46R,1.5240X1.5240*%
G04:AMPARAMS|DCode=47|XSize=4mm|YSize=4mm|CornerRadius=2mm|HoleSize=0mm|Usage=FLASHONLY|Rotation=0.000|XOffset=0mm|YOffset=0mm|HoleType=Round|Shape=RoundedRectangle|*
%AMROUNDEDRECTD47*
21,1,4.0000,0.0000,0,0,0.0*
21,1,0.0000,4.0000,0,0,0.0*
1,1,4.0000,0.0000,0.0000*
1,1,4.0000,0.0000,0.0000*
1,1,4.0000,0.0000,0.0000*
1,1,4.0000,0.0000,0.0000*
%
%ADD47ROUNDEDRECTD47*%
%ADD48C,0.5000*%
%ADD49C,4.4000*%
%ADD50C,3.6000*%
G36*
X-214213Y76887D02*
X-213221Y76224D01*
X-212050Y75991D01*
X-104718D01*
X-21059Y-7668D01*
Y-13278D01*
X-21297Y-13634D01*
X-21569Y-15000D01*
X-21297Y-16366D01*
X-20523Y-17523D01*
X-20220Y-17726D01*
X-20589Y-18941D01*
X-36733D01*
X-49174Y-6501D01*
X-49460Y-5061D01*
X-49439Y-4847D01*
X-48668Y-4332D01*
X-48313Y-3799D01*
X-50471D01*
Y-2529D01*
X-51741D01*
Y-371D01*
X-52273Y-727D01*
X-52788Y-1498D01*
X-53002Y-1519D01*
X-54442Y-1232D01*
X-61623Y5948D01*
Y11289D01*
X-61623Y11289D01*
X-61856Y12459D01*
X-62519Y13452D01*
X-109230Y60163D01*
X-110222Y60826D01*
X-111393Y61059D01*
X-111393Y61059D01*
X-232637D01*
X-232777Y61230D01*
X-235900D01*
Y63770D01*
X-232847D01*
X-232651Y64009D01*
X-217108D01*
X-217020Y63991D01*
X-110396D01*
X-45459Y-945D01*
X-45376Y-1366D01*
X-44602Y-2523D01*
X-43445Y-3297D01*
X-42079Y-3569D01*
X-40713Y-3297D01*
X-39556Y-2523D01*
X-39295Y-2134D01*
X-38031Y-2009D01*
X-37059Y-2982D01*
Y-4278D01*
X-37297Y-4634D01*
X-37569Y-6000D01*
X-37297Y-7366D01*
X-36540Y-8498D01*
X-37246Y-9554D01*
X-37765Y-9451D01*
X-38740Y-9645D01*
X-39567Y-10198D01*
X-39923Y-10730D01*
X-35607D01*
X-35826Y-10402D01*
X-35120Y-9346D01*
X-34000Y-9569D01*
X-32634Y-9297D01*
X-31477Y-8523D01*
X-30703Y-7366D01*
X-30431Y-6000D01*
X-30703Y-4634D01*
X-30941Y-4278D01*
Y-1715D01*
X-31174Y-544D01*
X-31837Y448D01*
X-104602Y73213D01*
X-105595Y73876D01*
X-106765Y74109D01*
X-106765Y74109D01*
X-215293D01*
X-215381Y74126D01*
X-215381Y74126D01*
X-234262D01*
X-234631Y75342D01*
X-234098Y75697D01*
X-233742Y76230D01*
X-235900D01*
Y78770D01*
X-233742D01*
X-233776Y78821D01*
X-233178Y79941D01*
X-217267D01*
X-214213Y76887D01*
D02*
G37*
G36*
X-63223Y101223D02*
X-63348Y99959D01*
X-64000Y99523D01*
X-64774Y98366D01*
X-65045Y97000D01*
X-64774Y95634D01*
X-64000Y94477D01*
X-62842Y93703D01*
X-61477Y93431D01*
X-60111Y93703D01*
X-58953Y94477D01*
X-58517Y95129D01*
X-57253Y95253D01*
X-56617Y94617D01*
X-56523Y94477D01*
X-56383Y94383D01*
X-10000Y48000D01*
X2845Y35155D01*
X2703Y34943D01*
X2431Y33577D01*
X2703Y32211D01*
X3477Y31054D01*
X4634Y30280D01*
X6000Y30008D01*
X6000Y30008D01*
Y30008D01*
X6000Y30008D01*
Y15126D01*
X5025Y14150D01*
X4362Y13158D01*
X4129Y11987D01*
Y11987D01*
D01*
X4136Y11950D01*
Y11388D01*
X3016Y10790D01*
X2695Y11004D01*
Y8846D01*
Y6688D01*
X3016Y6902D01*
X4136Y6304D01*
Y3346D01*
X3965Y3206D01*
Y83D01*
Y-3040D01*
X4136Y-3180D01*
Y-12703D01*
X2921Y-13071D01*
X2523Y-12477D01*
X1366Y-11703D01*
X0Y-11431D01*
X-1366Y-11703D01*
X-1722Y-11941D01*
X-5124D01*
X-5125Y-11941D01*
X-6295Y-12174D01*
X-7287Y-12837D01*
X-7287Y-12837D01*
X-13392Y-18941D01*
X-15411D01*
X-15780Y-17726D01*
X-15477Y-17523D01*
X-14703Y-16366D01*
X-14431Y-15000D01*
X-14646Y-13924D01*
X-13747Y-13026D01*
X-13389Y-13097D01*
X-12023Y-12826D01*
X-10865Y-12052D01*
X-10092Y-10894D01*
X-9820Y-9529D01*
X-10092Y-8163D01*
X-10330Y-7807D01*
Y-5356D01*
X-10563Y-4185D01*
X-11226Y-3193D01*
X-11226Y-3193D01*
X-99632Y85213D01*
X-100624Y85876D01*
X-101795Y86109D01*
X-101795Y86109D01*
X-209126D01*
X-212180Y89163D01*
X-213173Y89826D01*
X-214343Y90059D01*
X-214343Y90059D01*
X-217953D01*
X-218551Y91179D01*
X-218517Y91230D01*
X-220676D01*
Y93770D01*
X-217553D01*
X-217412Y93941D01*
X-212267D01*
X-207213Y88887D01*
X-206220Y88224D01*
X-205050Y87991D01*
X-99748D01*
X-21594Y9837D01*
X-21594Y9837D01*
X-21594D01*
X-21594Y9837D01*
X-21594D01*
X-21594Y9837D01*
Y9837D01*
Y9837D01*
D01*
D01*
X-21594D01*
Y9837D01*
X-20601Y9174D01*
X-19845Y9024D01*
X-19366Y8703D01*
X-18000Y8431D01*
X-16634Y8703D01*
X-16475Y8809D01*
X-15802Y7802D01*
X-16158Y7270D01*
X-15270D01*
Y8796D01*
X-15534Y9190D01*
X-15477Y9477D01*
D01*
X-14703Y10634D01*
X-14431Y12000D01*
X-14703Y13366D01*
X-15477Y14523D01*
X-16634Y15297D01*
X-18000Y15569D01*
X-18562Y15457D01*
X-24531Y21426D01*
X-24406Y22690D01*
X-23977Y22977D01*
X-23203Y24134D01*
X-22931Y25500D01*
X-23203Y26866D01*
X-23977Y28023D01*
X-25134Y28797D01*
X-25555Y28881D01*
X-25703Y29029D01*
X-25989Y30469D01*
X-25968Y30682D01*
X-25198Y31198D01*
X-24683Y31968D01*
X-24469Y31989D01*
X-23029Y31703D01*
X-15122Y23797D01*
Y20245D01*
X-15360Y19889D01*
X-15632Y18523D01*
X-15360Y17157D01*
X-14587Y16000D01*
X-13429Y15226D01*
X-12064Y14954D01*
X-10698Y15226D01*
X-9540Y16000D01*
X-8767Y17157D01*
X-8495Y18523D01*
X-8767Y19889D01*
X-9005Y20245D01*
Y25064D01*
X-9005Y25064D01*
X-9238Y26234D01*
X-9901Y27227D01*
X-9901Y27227D01*
X-11744Y29070D01*
X-11258Y30243D01*
X-7722D01*
X-7366Y30005D01*
X-6000Y29734D01*
X-4634Y30005D01*
X-3477Y30779D01*
X-2703Y31936D01*
X-2431Y33302D01*
X-2703Y34668D01*
X-3477Y35825D01*
X-4634Y36599D01*
X-6000Y36871D01*
X-7366Y36599D01*
X-7722Y36361D01*
X-13035D01*
X-36211Y59537D01*
X-35843Y60752D01*
X-35579Y60805D01*
X-34752Y61357D01*
X-34397Y61890D01*
X-36555D01*
Y63160D01*
X-37825D01*
Y65318D01*
X-38357Y64962D01*
X-38910Y64135D01*
X-38962Y63872D01*
X-40177Y63503D01*
X-65337Y88663D01*
X-65400Y88705D01*
X-70295Y93600D01*
X-70337Y93663D01*
X-86644Y109970D01*
X-87637Y110633D01*
X-88807Y110866D01*
X-88807Y110866D01*
X-197903D01*
X-202200Y115163D01*
X-203192Y115826D01*
X-204363Y116059D01*
X-204363Y116059D01*
X-246733D01*
X-250337Y119663D01*
X-251329Y120326D01*
X-252500Y120559D01*
X-252500Y120559D01*
X-253199D01*
X-254204Y121230D01*
X-259795D01*
X-260800Y120559D01*
X-267528D01*
X-267884Y120797D01*
X-269250Y121068D01*
X-270616Y120797D01*
X-271773Y120023D01*
X-272547Y118865D01*
X-272819Y117500D01*
X-272547Y116134D01*
X-271773Y114976D01*
X-270616Y114203D01*
X-269250Y113931D01*
X-269250Y113931D01*
X-269250Y113931D01*
X-268635Y113906D01*
X-267850Y112907D01*
X-267931Y112500D01*
X-267660Y111134D01*
X-266886Y109976D01*
X-265728Y109203D01*
X-264363Y108931D01*
X-262997Y109203D01*
X-262641Y109441D01*
X-260800D01*
X-259795Y108770D01*
X-257000D01*
Y107500D01*
X-255730D01*
Y105342D01*
X-255197Y105697D01*
X-254645Y106524D01*
X-254451Y107500D01*
X-254513Y107811D01*
X-253393Y108410D01*
X-251820Y106837D01*
X-251820Y106837D01*
X-251225Y106440D01*
X-250827Y106174D01*
X-249657Y105941D01*
X-207286D01*
X-202990Y101644D01*
X-202990Y101644D01*
X-202395Y101247D01*
X-201997Y100981D01*
X-200827Y100749D01*
X-92074D01*
X-28297Y36971D01*
X-28010Y35531D01*
X-28031Y35317D01*
X-28802Y34802D01*
X-29317Y34032D01*
X-29531Y34010D01*
X-30971Y34297D01*
X-93887Y97213D01*
X-94879Y97876D01*
X-96050Y98109D01*
X-96050Y98109D01*
X-202126D01*
X-207180Y103163D01*
X-208172Y103826D01*
X-209343Y104059D01*
X-209343Y104059D01*
X-249750D01*
X-250921Y103826D01*
X-251318Y103560D01*
X-251913Y103163D01*
X-251913Y103163D01*
X-260763Y94313D01*
X-261744Y95119D01*
D01*
Y95119D01*
X-261066Y96134D01*
X-260794Y97500D01*
X-261066Y98865D01*
X-261839Y100023D01*
X-262997Y100797D01*
X-264363Y101068D01*
X-264363Y101068D01*
X-264363Y101068D01*
X-264977Y101094D01*
X-265763Y102092D01*
X-265681Y102500D01*
X-265953Y103865D01*
X-266727Y105023D01*
X-267884Y105797D01*
X-269250Y106068D01*
X-270616Y105797D01*
X-271773Y105023D01*
X-272547Y103865D01*
X-272819Y102500D01*
X-272547Y101134D01*
X-271773Y99976D01*
X-270616Y99203D01*
X-269250Y98931D01*
X-269250Y98931D01*
X-269250Y98931D01*
X-268635Y98906D01*
X-267850Y97907D01*
X-267931Y97500D01*
X-267660Y96134D01*
X-266886Y94976D01*
X-265728Y94203D01*
X-264363Y93931D01*
X-262997Y94203D01*
X-261982Y94881D01*
X-261176Y93899D01*
X-264517Y90559D01*
X-267528D01*
X-267884Y90797D01*
X-269250Y91068D01*
X-270616Y90797D01*
X-271773Y90023D01*
X-272547Y88865D01*
X-272819Y87500D01*
X-272547Y86134D01*
X-271773Y84976D01*
X-270616Y84203D01*
X-269250Y83931D01*
X-269250Y83931D01*
X-269250Y83931D01*
X-268635Y83906D01*
X-267850Y82907D01*
X-267931Y82500D01*
X-267660Y81134D01*
X-266886Y79976D01*
X-265728Y79203D01*
X-264363Y78931D01*
X-262997Y79203D01*
X-262641Y79441D01*
X-262593D01*
X-262593Y79441D01*
X-261423Y79674D01*
X-260430Y80337D01*
X-246826Y93941D01*
X-239164D01*
X-239023Y93770D01*
X-235900D01*
Y91230D01*
X-238058D01*
X-238024Y91179D01*
X-238623Y90059D01*
X-244863D01*
X-246034Y89826D01*
X-246431Y89560D01*
X-247026Y89163D01*
X-247026Y89163D01*
X-260631Y75559D01*
X-267528D01*
X-267884Y75797D01*
X-269250Y76068D01*
X-270616Y75797D01*
X-271773Y75023D01*
X-272547Y73865D01*
X-272819Y72500D01*
X-272547Y71134D01*
X-271773Y69977D01*
X-270616Y69203D01*
X-269250Y68931D01*
X-269250Y68931D01*
X-269250Y68931D01*
X-268635Y68906D01*
X-267850Y67908D01*
X-267931Y67500D01*
X-267660Y66134D01*
X-266886Y64976D01*
X-265728Y64203D01*
X-264363Y63931D01*
X-262997Y64203D01*
X-262641Y64441D01*
X-261151D01*
X-260665Y63268D01*
X-263374Y60559D01*
X-267528D01*
X-267884Y60797D01*
X-269250Y61068D01*
X-270616Y60797D01*
X-271773Y60023D01*
X-272547Y58865D01*
X-272819Y57500D01*
X-272547Y56134D01*
X-271773Y54977D01*
X-270616Y54203D01*
X-269250Y53931D01*
X-269250Y53931D01*
X-269250Y53931D01*
X-268635Y53906D01*
X-267850Y52908D01*
X-267931Y52500D01*
X-267660Y51134D01*
X-266886Y49977D01*
X-265728Y49203D01*
X-264475Y48954D01*
X-264161Y47917D01*
X-264122Y47723D01*
X-266287Y45559D01*
X-267528D01*
X-267884Y45797D01*
X-269250Y46069D01*
X-270616Y45797D01*
X-271773Y45023D01*
X-272547Y43865D01*
X-272819Y42500D01*
X-272547Y41134D01*
X-271773Y39976D01*
X-270616Y39203D01*
X-269250Y38931D01*
X-269250Y38931D01*
X-269250Y38931D01*
X-268635Y38906D01*
X-267850Y37908D01*
X-267931Y37500D01*
X-267660Y36134D01*
X-266886Y34976D01*
X-265728Y34203D01*
X-264363Y33931D01*
X-262997Y34203D01*
X-261839Y34976D01*
X-261066Y36134D01*
X-260982Y36555D01*
X-246596Y50941D01*
X-237437D01*
X-237069Y49726D01*
X-237703Y49302D01*
X-238058Y48770D01*
X-233742D01*
X-234098Y49302D01*
X-234732Y49726D01*
X-234363Y50941D01*
X-169537D01*
X-169168Y49726D01*
X-169802Y49302D01*
X-170158Y48770D01*
X-165842D01*
X-166198Y49302D01*
X-166832Y49726D01*
X-166463Y50941D01*
X-114317D01*
X-93055Y29680D01*
X-93424Y28465D01*
X-93975Y28355D01*
X-94802Y27802D01*
X-95158Y27270D01*
X-93000D01*
Y26000D01*
X-91730D01*
Y23842D01*
X-91198Y24198D01*
X-90645Y25025D01*
X-90535Y25576D01*
X-89320Y25945D01*
X-73059Y9683D01*
Y4000D01*
X-73059Y4000D01*
X-72826Y2830D01*
X-72163Y1837D01*
X-42163Y-28163D01*
X-41171Y-28826D01*
X-40000Y-29059D01*
X-40000Y-29059D01*
X-13767D01*
X-9381Y-33445D01*
X-9297Y-33866D01*
X-8523Y-35023D01*
X-7366Y-35797D01*
X-7091Y-35852D01*
X-6925Y-36398D01*
X-7681Y-37418D01*
X-37582D01*
X-63000Y-12000D01*
X-116899Y41899D01*
X-227039D01*
X-227634Y42297D01*
X-229000Y42569D01*
X-230366Y42297D01*
X-230961Y41899D01*
X-244101D01*
X-246000Y40000D01*
X-256000Y30000D01*
X-273000D01*
X-277000Y34000D01*
X-282000Y39000D01*
Y109000D01*
Y128740D01*
X-280088Y130652D01*
X-278824Y130527D01*
X-278363Y129837D01*
X-277470Y129241D01*
Y132000D01*
X-276200D01*
Y133270D01*
X-273440D01*
X-274037Y134163D01*
X-274865Y134716D01*
X-274901Y135005D01*
X-274599Y136000D01*
X-193869D01*
X-193383Y134827D01*
X-200605Y127605D01*
X-201710Y125951D01*
X-202098Y124000D01*
X-201710Y122049D01*
X-200605Y120395D01*
X-198951Y119290D01*
X-197000Y118902D01*
X-195049Y119290D01*
X-193395Y120395D01*
X-177790Y136000D01*
X-98000D01*
X-63223Y101223D01*
D02*
G37*
G36*
X139500Y120158D02*
Y115500D01*
Y105500D01*
X136000Y102000D01*
X127000Y93000D01*
X102789D01*
X86155Y76366D01*
X75000Y65211D01*
Y-88000D01*
Y-98048D01*
X75713Y-98762D01*
X82952Y-106000D01*
X149422D01*
X158422Y-97000D01*
X167751Y-87671D01*
X180220D01*
X180789Y-88523D01*
X181947Y-89297D01*
X183313Y-89569D01*
X184678Y-89297D01*
X184880Y-89162D01*
X186000Y-89761D01*
Y-94000D01*
Y-97000D01*
X185000Y-98000D01*
X183000Y-100000D01*
X182000D01*
X170078Y-111922D01*
X169500D01*
X169500Y-111922D01*
X168198Y-112181D01*
X167939Y-112232D01*
X166616Y-113116D01*
X166616Y-113116D01*
X155732Y-124000D01*
X79000D01*
X66000Y-111000D01*
X63500Y-108500D01*
Y-92450D01*
Y-88500D01*
X61000Y-86000D01*
X55000Y-80000D01*
X-141670D01*
X-142359Y-79863D01*
X-143048Y-80000D01*
X-178000D01*
X-180000Y-82000D01*
X-182000Y-84000D01*
X-188000D01*
X-189000Y-83000D01*
X-190190Y-81810D01*
Y-72080D01*
Y-67690D01*
X-189500Y-67000D01*
X-188500Y-66000D01*
X-184000D01*
X-181000Y-69000D01*
X-82370D01*
X-82297Y-69366D01*
X-81523Y-70523D01*
X-80366Y-71297D01*
X-79000Y-71569D01*
X-77634Y-71297D01*
X-76477Y-70523D01*
X-75703Y-69366D01*
X-75630Y-69000D01*
X55000D01*
X56000Y-68000D01*
X63000Y-61000D01*
Y-58000D01*
Y75000D01*
X64000Y76000D01*
X70000Y82000D01*
Y83000D01*
Y103000D01*
X62000Y111000D01*
X9250D01*
X9000Y110750D01*
X3250Y105000D01*
X-427D01*
X-1571Y106144D01*
X-1270Y106708D01*
Y109620D01*
Y111778D01*
X-1802Y111422D01*
X-2282Y110704D01*
X-2659Y110818D01*
X-2967Y112050D01*
X4983Y120000D01*
X73190D01*
X73634Y119703D01*
X75000Y119431D01*
X76100Y119650D01*
X85000Y110750D01*
X89750Y106000D01*
X115000D01*
X117000Y108000D01*
X121342Y112342D01*
Y115000D01*
Y119098D01*
D01*
Y121000D01*
X124342Y124000D01*
X135658D01*
X139500Y120158D01*
D02*
G37*
G36*
X28354Y186941D02*
X166329Y186941D01*
X168729Y184541D01*
X168605Y183277D01*
X167477Y182523D01*
X166703Y181366D01*
X166431Y180000D01*
X166703Y178634D01*
X167477Y177477D01*
X168634Y176703D01*
X170000Y176431D01*
X171366Y176703D01*
X172523Y177477D01*
X173277Y178605D01*
X174541Y178729D01*
X218190Y135080D01*
X234038Y119232D01*
X233755Y118549D01*
X232540Y118181D01*
X232366Y118297D01*
X231000Y118569D01*
X229634Y118297D01*
X228477Y117523D01*
X227703Y116366D01*
X227431Y115000D01*
X227703Y113634D01*
X228477Y112477D01*
X229634Y111703D01*
X231000Y111431D01*
X232366Y111703D01*
X232722Y111941D01*
X234833D01*
X238000Y108774D01*
Y78059D01*
X229722D01*
X229366Y78297D01*
X228000Y78569D01*
X226634Y78297D01*
X225477Y77523D01*
X224703Y76366D01*
X224431Y75000D01*
X224703Y73634D01*
X225477Y72477D01*
X226634Y71703D01*
X228000Y71431D01*
X229366Y71703D01*
X229722Y71941D01*
X238000D01*
Y63000D01*
Y60172D01*
X237018Y59366D01*
X236000Y59569D01*
X234634Y59297D01*
X233477Y58523D01*
X232703Y57366D01*
X232431Y56000D01*
X232662Y54842D01*
X231606Y54136D01*
X231366Y54297D01*
X230000Y54569D01*
X228634Y54297D01*
X227477Y53523D01*
X226703Y52366D01*
X226431Y51000D01*
X226703Y49634D01*
X227477Y48477D01*
X228634Y47703D01*
X230000Y47431D01*
X231366Y47703D01*
X232161Y48235D01*
X233060Y47337D01*
X232973Y47207D01*
X232701Y45842D01*
X232937Y44658D01*
X231881Y43953D01*
X231366Y44297D01*
X230000Y44569D01*
X228634Y44297D01*
X227477Y43523D01*
X226703Y42366D01*
X226431Y41000D01*
X226703Y39634D01*
X227477Y38477D01*
X228634Y37703D01*
X230000Y37431D01*
X231366Y37703D01*
X232161Y38235D01*
X233060Y37337D01*
X232973Y37208D01*
X232701Y35842D01*
X232973Y34476D01*
X233747Y33319D01*
X234904Y32545D01*
X236270Y32273D01*
X237018Y32422D01*
X238000Y31616D01*
Y18000D01*
Y13485D01*
X236515Y12000D01*
X234515Y10000D01*
X215000D01*
X213000Y12000D01*
X209000Y16000D01*
X209000D01*
Y25499D01*
X210215Y25868D01*
X210477Y25477D01*
X211634Y24703D01*
X213000Y24431D01*
X214366Y24703D01*
X215523Y25477D01*
X216297Y26634D01*
X216569Y28000D01*
X216297Y29366D01*
X215523Y30523D01*
X214366Y31297D01*
X213000Y31569D01*
X211634Y31297D01*
X210477Y30523D01*
X210215Y30132D01*
X209000Y30501D01*
Y59828D01*
X209982Y60634D01*
X211000Y60431D01*
X212366Y60703D01*
X213523Y61477D01*
X214297Y62634D01*
X214569Y64000D01*
X214297Y65366D01*
X213523Y66523D01*
X212366Y67297D01*
X211000Y67569D01*
X209982Y67366D01*
X209000Y68172D01*
Y92000D01*
X195000Y106000D01*
X185461Y115539D01*
X185297Y116366D01*
X184523Y117523D01*
X183366Y118297D01*
X182539Y118461D01*
X164913Y136087D01*
X165945Y137119D01*
X166366Y137203D01*
X167523Y137977D01*
X168297Y139134D01*
X168569Y140500D01*
X168297Y141866D01*
X167523Y143023D01*
X166366Y143797D01*
X165000Y144069D01*
X163634Y143797D01*
X162477Y143023D01*
X161703Y141866D01*
X161619Y141445D01*
X160174Y140000D01*
X66158D01*
X66139Y140096D01*
X65365Y141253D01*
X64208Y142027D01*
X62842Y142299D01*
X61476Y142027D01*
X60318Y141253D01*
X59545Y140096D01*
X59526Y140000D01*
X-8023D01*
X-8634Y140409D01*
X-10000Y140681D01*
X-11366Y140409D01*
X-11977Y140000D01*
X-54411D01*
X-56410Y142000D01*
X-60423Y146012D01*
X-59856Y147380D01*
X-59616Y149208D01*
X-59856Y151035D01*
X-60562Y152738D01*
X-61684Y154200D01*
X-63146Y155322D01*
X-64849Y156027D01*
X-66676Y156268D01*
X-68503Y156027D01*
X-69871Y155461D01*
X-73000Y158589D01*
Y160000D01*
Y186000D01*
Y186043D01*
X-72102Y186941D01*
X28354D01*
D02*
G37*
%LPC*%
G36*
X-237170Y46230D02*
X-238058D01*
X-237703Y45697D01*
X-237170Y45342D01*
Y46230D01*
D02*
G37*
G36*
X223084Y24958D02*
X222551Y24602D01*
X222196Y24070D01*
X223084D01*
Y24958D01*
D02*
G37*
G36*
X225624D02*
Y24070D01*
X226512D01*
X226156Y24602D01*
X225624Y24958D01*
D02*
G37*
G36*
X232470D02*
Y24070D01*
X233358D01*
X233002Y24602D01*
X232470Y24958D01*
D02*
G37*
G36*
X-11206Y45361D02*
X-12572Y45090D01*
X-13729Y44316D01*
X-14503Y43158D01*
X-14774Y41793D01*
X-14503Y40427D01*
X-13729Y39269D01*
X-12572Y38496D01*
X-11206Y38224D01*
X-9840Y38496D01*
X-8683Y39269D01*
X-7909Y40427D01*
X-7637Y41793D01*
X-7909Y43158D01*
X-8683Y44316D01*
X-9840Y45090D01*
X-11206Y45361D01*
D02*
G37*
G36*
X229930Y24958D02*
X229398Y24602D01*
X229042Y24070D01*
X229930D01*
Y24958D01*
D02*
G37*
G36*
X-94270Y24730D02*
X-95158D01*
X-94802Y24198D01*
X-94270Y23842D01*
Y24730D01*
D02*
G37*
G36*
X229930Y17457D02*
X229398Y17101D01*
X229042Y16568D01*
X229930D01*
Y17457D01*
D02*
G37*
G36*
X232470D02*
Y16568D01*
X233358D01*
X233002Y17101D01*
X232470Y17457D01*
D02*
G37*
G36*
X223084D02*
X222551Y17101D01*
X222196Y16568D01*
X223084D01*
Y17457D01*
D02*
G37*
G36*
X225624D02*
Y16568D01*
X226512D01*
X226156Y17101D01*
X225624Y17457D01*
D02*
G37*
G36*
X229930Y21530D02*
X229042D01*
X229398Y20998D01*
X229930Y20642D01*
Y21530D01*
D02*
G37*
G36*
X233358D02*
X232470D01*
Y20642D01*
X233002Y20998D01*
X233358Y21530D01*
D02*
G37*
G36*
X223084D02*
X222196D01*
X222551Y20998D01*
X223084Y20642D01*
Y21530D01*
D02*
G37*
G36*
X226512D02*
X225624D01*
Y20642D01*
X226156Y20998D01*
X226512Y21530D01*
D02*
G37*
G36*
X-233742Y46230D02*
X-234630D01*
Y45342D01*
X-234098Y45697D01*
X-233742Y46230D01*
D02*
G37*
G36*
X-164540Y115730D02*
X-165428D01*
X-165072Y115198D01*
X-164540Y114842D01*
Y115730D01*
D02*
G37*
G36*
X-161112D02*
X-162000D01*
Y114842D01*
X-161468Y115198D01*
X-161112Y115730D01*
D02*
G37*
G36*
X-171270D02*
X-172158D01*
X-171802Y115198D01*
X-171270Y114842D01*
Y115730D01*
D02*
G37*
G36*
X-167842D02*
X-168730D01*
Y114842D01*
X-168198Y115198D01*
X-167842Y115730D01*
D02*
G37*
G36*
X-150270D02*
X-151158D01*
X-150802Y115198D01*
X-150270Y114842D01*
Y115730D01*
D02*
G37*
G36*
X-146842D02*
X-147730D01*
Y114842D01*
X-147198Y115198D01*
X-146842Y115730D01*
D02*
G37*
G36*
X-157540D02*
X-158428D01*
X-158072Y115198D01*
X-157540Y114842D01*
Y115730D01*
D02*
G37*
G36*
X-154112D02*
X-155000D01*
Y114842D01*
X-154468Y115198D01*
X-154112Y115730D01*
D02*
G37*
G36*
X233000Y69569D02*
X231634Y69297D01*
X230477Y68523D01*
X229703Y67366D01*
X229431Y66000D01*
X229703Y64634D01*
X230477Y63477D01*
X231634Y62703D01*
X233000Y62431D01*
X234366Y62703D01*
X235523Y63477D01*
X236297Y64634D01*
X236569Y66000D01*
X236297Y67366D01*
X235523Y68523D01*
X234366Y69297D01*
X233000Y69569D01*
D02*
G37*
G36*
X-35285Y65318D02*
Y64430D01*
X-34397D01*
X-34752Y64962D01*
X-35285Y65318D01*
D02*
G37*
G36*
X-169270Y46230D02*
X-170158D01*
X-169802Y45697D01*
X-169270Y45342D01*
Y46230D01*
D02*
G37*
G36*
X-165842D02*
X-166730D01*
Y45342D01*
X-166198Y45697D01*
X-165842Y46230D01*
D02*
G37*
G36*
X2158Y108350D02*
X1270D01*
Y107462D01*
X1802Y107818D01*
X2158Y108350D01*
D02*
G37*
G36*
X1270Y111778D02*
Y110890D01*
X2158D01*
X1802Y111422D01*
X1270Y111778D01*
D02*
G37*
G36*
X225000Y98569D02*
X223634Y98297D01*
X222477Y97523D01*
X221703Y96366D01*
X221431Y95000D01*
X221703Y93634D01*
X222477Y92477D01*
X223634Y91703D01*
X225000Y91431D01*
X226366Y91703D01*
X227523Y92477D01*
X228297Y93634D01*
X228569Y95000D01*
X228297Y96366D01*
X227523Y97523D01*
X226366Y98297D01*
X225000Y98569D01*
D02*
G37*
G36*
X-258270Y106230D02*
X-259158D01*
X-258802Y105697D01*
X-258270Y105342D01*
Y106230D01*
D02*
G37*
G36*
X-186468Y-76644D02*
X-187000Y-77000D01*
X-187356Y-77532D01*
X-186468D01*
Y-76644D01*
D02*
G37*
G36*
X-183928D02*
Y-77532D01*
X-183039D01*
X-183395Y-77000D01*
X-183928Y-76644D01*
D02*
G37*
G36*
X-186468Y-80072D02*
X-187356D01*
X-187000Y-80605D01*
X-186468Y-80961D01*
Y-80072D01*
D02*
G37*
G36*
X-183039D02*
X-183928D01*
Y-80961D01*
X-183395Y-80605D01*
X-183039Y-80072D01*
D02*
G37*
G36*
X-186270Y-69842D02*
X-186802Y-70198D01*
X-187158Y-70730D01*
X-186270D01*
Y-69842D01*
D02*
G37*
G36*
X-183730D02*
Y-70730D01*
X-182842D01*
X-183198Y-70198D01*
X-183730Y-69842D01*
D02*
G37*
G36*
X-186270Y-73270D02*
X-187158D01*
X-186802Y-73802D01*
X-186270Y-74158D01*
Y-73270D01*
D02*
G37*
G36*
X-182842D02*
X-183730D01*
Y-74158D01*
X-183198Y-73802D01*
X-182842Y-73270D01*
D02*
G37*
G36*
X180770Y-93342D02*
Y-94230D01*
X181658D01*
X181302Y-93698D01*
X180770Y-93342D01*
D02*
G37*
G36*
X153350Y-115842D02*
X152818Y-116198D01*
X152462Y-116730D01*
X153350D01*
Y-115842D01*
D02*
G37*
G36*
X155890D02*
Y-116730D01*
X156778D01*
X156422Y-116198D01*
X155890Y-115842D01*
D02*
G37*
G36*
X153350Y-119270D02*
X152462D01*
X152818Y-119802D01*
X153350Y-120158D01*
Y-119270D01*
D02*
G37*
G36*
X156778D02*
X155890D01*
Y-120158D01*
X156422Y-119802D01*
X156778Y-119270D01*
D02*
G37*
G36*
X181658Y-96770D02*
X180770D01*
Y-97658D01*
X181302Y-97302D01*
X181658Y-96770D01*
D02*
G37*
G36*
X178230Y-93342D02*
X177698Y-93698D01*
X177342Y-94230D01*
X178230D01*
Y-93342D01*
D02*
G37*
G36*
X169500Y-101431D02*
X168134Y-101703D01*
X166977Y-102477D01*
X166203Y-103634D01*
X165931Y-105000D01*
X166203Y-106366D01*
X166977Y-107523D01*
X168134Y-108297D01*
X169500Y-108569D01*
X170866Y-108297D01*
X172023Y-107523D01*
X172797Y-106366D01*
X173069Y-105000D01*
X172797Y-103634D01*
X172023Y-102477D01*
X170866Y-101703D01*
X169500Y-101431D01*
D02*
G37*
G36*
X178230Y-96770D02*
X177342D01*
X177698Y-97302D01*
X178230Y-97658D01*
Y-96770D01*
D02*
G37*
G36*
X-26270Y-34270D02*
X-27158D01*
X-26802Y-34802D01*
X-26270Y-35158D01*
Y-34270D01*
D02*
G37*
G36*
X-12730Y8158D02*
Y7270D01*
X-11842D01*
X-12198Y7802D01*
X-12730Y8158D01*
D02*
G37*
G36*
X155Y11004D02*
X-377Y10648D01*
X-733Y10116D01*
X155D01*
Y11004D01*
D02*
G37*
G36*
X-11842Y4730D02*
X-12730D01*
Y3842D01*
X-12198Y4198D01*
X-11842Y4730D01*
D02*
G37*
G36*
X155Y7576D02*
X-733D01*
X-377Y7044D01*
X155Y6688D01*
Y7576D01*
D02*
G37*
G36*
X229930Y14028D02*
X229042D01*
X229398Y13496D01*
X229930Y13140D01*
Y14028D01*
D02*
G37*
G36*
X233358D02*
X232470D01*
Y13140D01*
X233002Y13496D01*
X233358Y14028D01*
D02*
G37*
G36*
X223084D02*
X222196D01*
X222551Y13496D01*
X223084Y13140D01*
Y14028D01*
D02*
G37*
G36*
X226512D02*
X225624D01*
Y13140D01*
X226156Y13496D01*
X226512Y14028D01*
D02*
G37*
G36*
X-15270Y4730D02*
X-16158D01*
X-15802Y4198D01*
X-15270Y3842D01*
Y4730D01*
D02*
G37*
G36*
X-23730Y-30842D02*
Y-31730D01*
X-22842D01*
X-23198Y-31198D01*
X-23730Y-30842D01*
D02*
G37*
G36*
X-39035Y-13270D02*
X-39923D01*
X-39567Y-13802D01*
X-39035Y-14158D01*
Y-13270D01*
D02*
G37*
G36*
X-22842Y-34270D02*
X-23730D01*
Y-35158D01*
X-23198Y-34802D01*
X-22842Y-34270D01*
D02*
G37*
G36*
X-26270Y-30842D02*
X-26802Y-31198D01*
X-27158Y-31730D01*
X-26270D01*
Y-30842D01*
D02*
G37*
G36*
X-49201Y-371D02*
Y-1259D01*
X-48313D01*
X-48668Y-727D01*
X-49201Y-371D01*
D02*
G37*
G36*
X1425Y2241D02*
X892Y1886D01*
X537Y1353D01*
X1425D01*
Y2241D01*
D02*
G37*
G36*
X-35607Y-13270D02*
X-36495D01*
Y-14158D01*
X-35962Y-13802D01*
X-35607Y-13270D01*
D02*
G37*
G36*
X1425Y-1187D02*
X537D01*
X892Y-1719D01*
X1425Y-2075D01*
Y-1187D01*
D02*
G37*
G36*
X-171270Y119158D02*
X-171802Y118802D01*
X-172158Y118270D01*
X-171270D01*
Y119158D01*
D02*
G37*
G36*
X-41270Y175730D02*
X-42158D01*
X-41802Y175198D01*
X-41270Y174842D01*
Y175730D01*
D02*
G37*
G36*
X-37842D02*
X-38730D01*
Y174842D01*
X-38198Y175198D01*
X-37842Y175730D01*
D02*
G37*
G36*
X-52270D02*
X-53158D01*
X-52802Y175198D01*
X-52270Y174842D01*
Y175730D01*
D02*
G37*
G36*
X-48842D02*
X-49730D01*
Y174842D01*
X-49198Y175198D01*
X-48842Y175730D01*
D02*
G37*
G36*
X-21270D02*
X-22158D01*
X-21802Y175198D01*
X-21270Y174842D01*
Y175730D01*
D02*
G37*
G36*
X-17842D02*
X-18730D01*
Y174842D01*
X-18198Y175198D01*
X-17842Y175730D01*
D02*
G37*
G36*
X-31270D02*
X-32158D01*
X-31802Y175198D01*
X-31270Y174842D01*
Y175730D01*
D02*
G37*
G36*
X-27842D02*
X-28730D01*
Y174842D01*
X-28198Y175198D01*
X-27842Y175730D01*
D02*
G37*
G36*
X-18730Y170158D02*
Y169270D01*
X-17842D01*
X-18198Y169802D01*
X-18730Y170158D01*
D02*
G37*
G36*
X-49730D02*
Y169270D01*
X-48842D01*
X-49198Y169802D01*
X-49730Y170158D01*
D02*
G37*
G36*
X-41270D02*
X-41802Y169802D01*
X-42158Y169270D01*
X-41270D01*
Y170158D01*
D02*
G37*
G36*
X-17842Y166730D02*
X-18730D01*
Y165842D01*
X-18198Y166198D01*
X-17842Y166730D01*
D02*
G37*
G36*
X-52270Y170158D02*
X-52802Y169802D01*
X-53158Y169270D01*
X-52270D01*
Y170158D01*
D02*
G37*
G36*
X-28730D02*
Y169270D01*
X-27842D01*
X-28198Y169802D01*
X-28730Y170158D01*
D02*
G37*
G36*
X-21270D02*
X-21802Y169802D01*
X-22158Y169270D01*
X-21270D01*
Y170158D01*
D02*
G37*
G36*
X-38730D02*
Y169270D01*
X-37842D01*
X-38198Y169802D01*
X-38730Y170158D01*
D02*
G37*
G36*
X-31270D02*
X-31802Y169802D01*
X-32158Y169270D01*
X-31270D01*
Y170158D01*
D02*
G37*
G36*
X80460Y176960D02*
X79572D01*
X79928Y176428D01*
X80460Y176072D01*
Y176960D01*
D02*
G37*
G36*
X-21270Y179158D02*
X-21802Y178802D01*
X-22158Y178270D01*
X-21270D01*
Y179158D01*
D02*
G37*
G36*
X-18730D02*
Y178270D01*
X-17842D01*
X-18198Y178802D01*
X-18730Y179158D01*
D02*
G37*
G36*
X-31270D02*
X-31802Y178802D01*
X-32158Y178270D01*
X-31270D01*
Y179158D01*
D02*
G37*
G36*
X-28730D02*
Y178270D01*
X-27842D01*
X-28198Y178802D01*
X-28730Y179158D01*
D02*
G37*
G36*
X3730Y180658D02*
X3198Y180302D01*
X2842Y179770D01*
X3730D01*
Y180658D01*
D02*
G37*
G36*
X6270D02*
Y179770D01*
X7158D01*
X6802Y180302D01*
X6270Y180658D01*
D02*
G37*
G36*
X80460Y180388D02*
X79928Y180032D01*
X79572Y179500D01*
X80460D01*
Y180388D01*
D02*
G37*
G36*
X83000D02*
Y179500D01*
X83888D01*
X83532Y180032D01*
X83000Y180388D01*
D02*
G37*
G36*
X-38730Y179158D02*
Y178270D01*
X-37842D01*
X-38198Y178802D01*
X-38730Y179158D01*
D02*
G37*
G36*
X7158Y177230D02*
X6270D01*
Y176342D01*
X6802Y176698D01*
X7158Y177230D01*
D02*
G37*
G36*
X65000Y183569D02*
X63634Y183297D01*
X62477Y182523D01*
X61703Y181366D01*
X61431Y180000D01*
X61703Y178634D01*
X62477Y177477D01*
X63634Y176703D01*
X65000Y176431D01*
X66366Y176703D01*
X67523Y177477D01*
X68297Y178634D01*
X68569Y180000D01*
X68297Y181366D01*
X67523Y182523D01*
X66366Y183297D01*
X65000Y183569D01*
D02*
G37*
G36*
X83888Y176960D02*
X83000D01*
Y176072D01*
X83532Y176428D01*
X83888Y176960D01*
D02*
G37*
G36*
X3730Y177230D02*
X2842D01*
X3198Y176698D01*
X3730Y176342D01*
Y177230D01*
D02*
G37*
G36*
X-49730Y179158D02*
Y178270D01*
X-48842D01*
X-49198Y178802D01*
X-49730Y179158D01*
D02*
G37*
G36*
X-41270D02*
X-41802Y178802D01*
X-42158Y178270D01*
X-41270D01*
Y179158D01*
D02*
G37*
G36*
X141000Y183569D02*
X139634Y183297D01*
X138477Y182523D01*
X137703Y181366D01*
X137431Y180000D01*
X137703Y178634D01*
X138477Y177477D01*
X139634Y176703D01*
X141000Y176431D01*
X142366Y176703D01*
X143523Y177477D01*
X144297Y178634D01*
X144569Y180000D01*
X144297Y181366D01*
X143523Y182523D01*
X142366Y183297D01*
X141000Y183569D01*
D02*
G37*
G36*
X-52270Y179158D02*
X-52802Y178802D01*
X-53158Y178270D01*
X-52270D01*
Y179158D01*
D02*
G37*
G36*
X55656Y150724D02*
X54290Y150453D01*
X53133Y149679D01*
X52359Y148521D01*
X52087Y147156D01*
X52359Y145790D01*
X53133Y144633D01*
X54290Y143859D01*
X55656Y143587D01*
X57021Y143859D01*
X58179Y144633D01*
X58953Y145790D01*
X59224Y147156D01*
X58953Y148521D01*
X58179Y149679D01*
X57021Y150453D01*
X55656Y150724D01*
D02*
G37*
G36*
X-4000Y155569D02*
X-5366Y155297D01*
X-6523Y154523D01*
X-7297Y153366D01*
X-7569Y152000D01*
X-7297Y150634D01*
X-6523Y149477D01*
X-5366Y148703D01*
X-4000Y148432D01*
X-2634Y148703D01*
X-1477Y149477D01*
X-703Y150634D01*
X-431Y152000D01*
X-703Y153366D01*
X-1477Y154523D01*
X-2634Y155297D01*
X-4000Y155569D01*
D02*
G37*
G36*
X-273440Y130730D02*
X-274930D01*
Y129241D01*
X-274037Y129837D01*
X-273440Y130730D01*
D02*
G37*
G36*
X132000Y148569D02*
X130634Y148297D01*
X129477Y147523D01*
X128703Y146366D01*
X128431Y145000D01*
X128703Y143634D01*
X129477Y142477D01*
X130634Y141703D01*
X132000Y141431D01*
X133366Y141703D01*
X134523Y142477D01*
X135297Y143634D01*
X135569Y145000D01*
X135297Y146366D01*
X134523Y147523D01*
X133366Y148297D01*
X132000Y148569D01*
D02*
G37*
G36*
X156158Y154730D02*
X155270D01*
Y153842D01*
X155802Y154198D01*
X156158Y154730D01*
D02*
G37*
G36*
X152730Y158158D02*
X152198Y157802D01*
X151842Y157270D01*
X152730D01*
Y158158D01*
D02*
G37*
G36*
X72000Y157569D02*
X70634Y157297D01*
X69477Y156523D01*
X68703Y155366D01*
X68431Y154000D01*
X68703Y152634D01*
X69477Y151477D01*
X70634Y150703D01*
X72000Y150431D01*
X73366Y150703D01*
X74523Y151477D01*
X75297Y152634D01*
X75569Y154000D01*
X75297Y155366D01*
X74523Y156523D01*
X73366Y157297D01*
X72000Y157569D01*
D02*
G37*
G36*
X152730Y154730D02*
X151842D01*
X152198Y154198D01*
X152730Y153842D01*
Y154730D01*
D02*
G37*
G36*
X-255730Y124658D02*
Y123770D01*
X-254842D01*
X-255197Y124302D01*
X-255730Y124658D01*
D02*
G37*
G36*
X-162000Y119158D02*
Y118270D01*
X-161112D01*
X-161468Y118802D01*
X-162000Y119158D01*
D02*
G37*
G36*
X-157540D02*
X-158072Y118802D01*
X-158428Y118270D01*
X-157540D01*
Y119158D01*
D02*
G37*
G36*
X-168730D02*
Y118270D01*
X-167842D01*
X-168198Y118802D01*
X-168730Y119158D01*
D02*
G37*
G36*
X-164540D02*
X-165072Y118802D01*
X-165428Y118270D01*
X-164540D01*
Y119158D01*
D02*
G37*
G36*
X-147730D02*
Y118270D01*
X-146842D01*
X-147198Y118802D01*
X-147730Y119158D01*
D02*
G37*
G36*
X-258270Y124658D02*
X-258802Y124302D01*
X-259158Y123770D01*
X-258270D01*
Y124658D01*
D02*
G37*
G36*
X-155000Y119158D02*
Y118270D01*
X-154112D01*
X-154468Y118802D01*
X-155000Y119158D01*
D02*
G37*
G36*
X-150270D02*
X-150802Y118802D01*
X-151158Y118270D01*
X-150270D01*
Y119158D01*
D02*
G37*
G36*
X155270Y158158D02*
Y157270D01*
X156158D01*
X155802Y157802D01*
X155270Y158158D01*
D02*
G37*
G36*
X-48842Y166730D02*
X-49730D01*
Y165842D01*
X-49198Y166198D01*
X-48842Y166730D01*
D02*
G37*
G36*
X-41270D02*
X-42158D01*
X-41802Y166198D01*
X-41270Y165842D01*
Y166730D01*
D02*
G37*
G36*
X32770Y163658D02*
Y162770D01*
X33658D01*
X33302Y163302D01*
X32770Y163658D01*
D02*
G37*
G36*
X-52270Y166730D02*
X-53158D01*
X-52802Y166198D01*
X-52270Y165842D01*
Y166730D01*
D02*
G37*
G36*
X-27842D02*
X-28730D01*
Y165842D01*
X-28198Y166198D01*
X-27842Y166730D01*
D02*
G37*
G36*
X-21270D02*
X-22158D01*
X-21802Y166198D01*
X-21270Y165842D01*
Y166730D01*
D02*
G37*
G36*
X-37842D02*
X-38730D01*
Y165842D01*
X-38198Y166198D01*
X-37842Y166730D01*
D02*
G37*
G36*
X-31270D02*
X-32158D01*
X-31802Y166198D01*
X-31270Y165842D01*
Y166730D01*
D02*
G37*
G36*
X30230Y163658D02*
X29698Y163302D01*
X29342Y162770D01*
X30230D01*
Y163658D01*
D02*
G37*
G36*
Y160230D02*
X29342D01*
X29698Y159698D01*
X30230Y159342D01*
Y160230D01*
D02*
G37*
G36*
X33658D02*
X32770D01*
Y159342D01*
X33302Y159698D01*
X33658Y160230D01*
D02*
G37*
G36*
X106960Y159960D02*
X106072D01*
X106428Y159428D01*
X106960Y159072D01*
Y159960D01*
D02*
G37*
G36*
X110388D02*
X109500D01*
Y159072D01*
X110032Y159428D01*
X110388Y159960D01*
D02*
G37*
G36*
X106960Y163388D02*
X106428Y163032D01*
X106072Y162500D01*
X106960D01*
Y163388D01*
D02*
G37*
G36*
X109500D02*
Y162500D01*
X110388D01*
X110032Y163032D01*
X109500Y163388D01*
D02*
G37*
G36*
X22000Y167799D02*
X20634Y167527D01*
X19477Y166753D01*
X18703Y165596D01*
X18431Y164230D01*
X18703Y162864D01*
X19477Y161707D01*
X20634Y160933D01*
X22000Y160661D01*
X23366Y160933D01*
X24523Y161707D01*
X25297Y162864D01*
X25569Y164230D01*
X25297Y165596D01*
X24523Y166753D01*
X23366Y167527D01*
X22000Y167799D01*
D02*
G37*
G36*
X98730D02*
X97364Y167527D01*
X96207Y166753D01*
X95433Y165596D01*
X95161Y164230D01*
X95433Y162864D01*
X96207Y161707D01*
X97364Y160933D01*
X98730Y160661D01*
X100096Y160933D01*
X101253Y161707D01*
X102027Y162864D01*
X102299Y164230D01*
X102027Y165596D01*
X101253Y166753D01*
X100096Y167527D01*
X98730Y167799D01*
D02*
G37*
%LPD*%
D37*
X156023Y-129477D02*
X169500Y-116000D01*
X134523Y-129477D02*
X156023D01*
X124750Y-139250D02*
X134523Y-129477D01*
X124750Y-155250D02*
Y-139250D01*
X-171750Y-155250D02*
X124750D01*
X119755Y-74755D02*
Y-59000D01*
X135428Y-70000D02*
X188178D01*
X133178Y-72250D02*
X135428Y-70000D01*
X202000Y-116000D02*
X225000Y-93000D01*
X160632Y-1866D02*
Y26828D01*
X125730Y61730D02*
X160632Y26828D01*
X90270Y61730D02*
X125730D01*
X90000Y62000D02*
X90270Y61730D01*
X119755Y-74755D02*
X126188Y-81188D01*
X149000Y-83000D02*
Y-82188D01*
X126188Y-81188D02*
X170678D01*
X169500Y-116000D02*
X202000D01*
X-226140Y-105342D02*
X-221658D01*
X-171750Y-155250D01*
D38*
X283600Y67500D02*
X292000D01*
X236100Y115000D02*
X283600Y67500D01*
X231000Y115000D02*
X236100D01*
X-54000Y97000D02*
X-52000Y99000D01*
X7657Y127000D02*
X71000D01*
X-20343Y99000D02*
X7657Y127000D01*
X-52000Y99000D02*
X-20343D01*
X6000Y131000D02*
X155500D01*
X-22000Y103000D02*
X6000Y131000D01*
X-55477Y103000D02*
X-22000D01*
X-19000Y19095D02*
X-16405Y16500D01*
X-19000Y19095D02*
Y25000D01*
X-27000Y33000D02*
X-19000Y25000D01*
X193250Y-131087D02*
X245069D01*
X250157Y-126000D01*
X188750Y-126587D02*
X193250Y-131087D01*
X243913Y-126587D02*
X258000Y-112500D01*
X201250Y-126587D02*
X243913D01*
X250157Y-126000D02*
X259000D01*
X115000Y30000D02*
X129000Y16000D01*
Y-21000D02*
Y16000D01*
X271500Y-56500D02*
X293000Y-35000D01*
X219000Y-47000D02*
X262000D01*
X207000Y-35000D02*
X219000Y-47000D01*
X207000Y-35000D02*
Y-29000D01*
X254000Y-36000D02*
X255500Y-37500D01*
X222000Y-36000D02*
X254000D01*
X187979Y5000D02*
X220979Y-28000D01*
X195000Y5000D02*
X227500Y-27500D01*
X236000D01*
X206000Y500D02*
X224000Y-17500D01*
X267500Y-52000D02*
X292000Y-27500D01*
X217000Y-52000D02*
X267500D01*
X255500Y-37500D02*
X265000D01*
X221000Y-42000D02*
X267000D01*
X213000Y-34000D02*
X221000Y-42000D01*
X267000D02*
X269000Y-44000D01*
X209000Y-51000D02*
X214500Y-56500D01*
X274000Y-60500D02*
X292000Y-42500D01*
X211500Y-60500D02*
X274000D01*
X214828Y-70172D02*
X218157Y-73500D01*
X-5125Y-15000D02*
X0D01*
X-12125Y-22000D02*
X-5125Y-15000D01*
X-12500Y-26000D02*
X-6000Y-32500D01*
X7195Y-27305D02*
Y11980D01*
X7188Y11987D02*
X7195Y11980D01*
X-269250Y42500D02*
X-265020D01*
X-261450Y52500D02*
X-246882Y67067D01*
X-264363Y52500D02*
X-261450D01*
X-262107Y57500D02*
X-248539Y71067D01*
X-269250Y57500D02*
X-262107D01*
X-264363Y67500D02*
X-258707D01*
X-269250Y72500D02*
X-259364D01*
X214500Y-56500D02*
X271500D01*
X155500Y131000D02*
X165000Y140500D01*
X71000Y127000D02*
X75000Y123000D01*
X184500Y-104500D02*
X196500Y-92500D01*
X-226796Y9204D02*
X-215000Y21000D01*
X-226796Y-47718D02*
Y9204D01*
X-231578Y-52500D02*
X-226796Y-47718D01*
X-226037Y-57610D02*
X-222796Y-54368D01*
Y5204D01*
X-215000Y13000D01*
X292000Y7500D02*
Y36364D01*
X253364Y75000D02*
X292000Y36364D01*
X228000Y75000D02*
X253364D01*
X230000Y-73500D02*
X231500Y-72000D01*
X259864D01*
X218157Y-73500D02*
X230000D01*
X259864Y-72000D02*
X264864Y-67000D01*
X294000D01*
X236000Y-77500D02*
X237500Y-76000D01*
X261521D01*
X266521Y-71000D01*
X286000D01*
X292000Y-77000D01*
Y-77500D02*
Y-77000D01*
X215500Y-77500D02*
X236000D01*
X-265020Y42500D02*
X-249519Y58000D01*
X-264363Y37500D02*
X-247863Y54000D01*
X-269250Y87500D02*
X-263250D01*
X-264363Y82500D02*
X-262593D01*
X-269250Y117500D02*
X-252500D01*
X-264363Y112500D02*
X-253156D01*
X-259364Y72500D02*
X-244863Y87000D01*
X-258707Y67500D02*
X-243207Y83000D01*
X-216000D01*
X-244863Y87000D02*
X-214343D01*
X11195Y-29133D02*
Y9093D01*
X14030Y11928D01*
X19404Y24204D02*
X26500D01*
X7188Y11987D02*
Y11987D01*
X19404Y24204D01*
X-4674Y-45002D02*
X11195Y-29133D01*
X-6331Y-41002D02*
X391Y-34279D01*
X306Y-34194D02*
X7195Y-27305D01*
X-28000Y-30000D02*
X-25000Y-33000D01*
X-235900Y77500D02*
X-216157D01*
X-41657Y-30000D02*
X-28000D01*
X-40000Y-26000D02*
X-12500D01*
X-38000Y-22000D02*
X-12125D01*
X-74000Y2343D02*
X-41657Y-30000D01*
X-70000Y4000D02*
X-40000Y-26000D01*
X-64681Y4681D02*
X-38000Y-22000D01*
X-41000Y-12000D02*
X-37765D01*
X-33000D02*
X-28000Y-7000D01*
X-37765Y-12000D02*
X-33000D01*
X-59941Y6941D02*
X-41000Y-12000D01*
X-59941Y6941D02*
Y12205D01*
X-64681Y4681D02*
Y11289D01*
X-70000Y4000D02*
Y10950D01*
X-235900Y47500D02*
X-112206D01*
X-74000Y2343D02*
Y9294D01*
X-248539Y71067D02*
X-215381D01*
X-246882Y67067D02*
X-217038D01*
X-235900Y92500D02*
X-213000D01*
X-19431Y12000D02*
X-18000D01*
X-234750Y-82500D02*
X-228561D01*
X-229863Y-87500D02*
X-227904D01*
X-208247Y-73500D02*
X-201101D01*
X-227322Y-92575D02*
X-208247Y-73500D01*
X-234556Y-92575D02*
X-227322D01*
X-132000Y-45002D02*
X-4674D01*
X-228561Y-82500D02*
X-183061Y-37000D01*
X-227904Y-87500D02*
X-182286Y-41882D01*
X-135119D01*
X-132000Y-45002D01*
X-130343Y-41002D02*
X-6331D01*
X-134345Y-37000D02*
X-130343Y-41002D01*
X-183061Y-37000D02*
X-134345D01*
X-112206Y47500D02*
X-74000Y9294D01*
X-217038Y67067D02*
X-217020Y67050D01*
X-215381Y71067D02*
X-215364Y71050D01*
X-216157Y77500D02*
X-213707Y75050D01*
X-216000Y83000D02*
X-212050Y79050D01*
X-214343Y87000D02*
X-210393Y83050D01*
X-213000Y92500D02*
X-207550Y87050D01*
X-247863Y54000D02*
X-113049D01*
X-70000Y10950D01*
X-249519Y58000D02*
X-111393D01*
X-64681Y11289D01*
X-235900Y62500D02*
X-110236D01*
X-59941Y12205D01*
X-217020Y67050D02*
X-109129D01*
X-42079Y0D01*
X-215364Y71050D02*
X-106765D01*
X-213707Y75050D02*
X-105108D01*
X-212050Y79050D02*
X-103451D01*
X-210393Y83050D02*
X-101795D01*
X-207550Y87050D02*
X-100138D01*
X-98481Y91050D02*
X-19431Y12000D01*
X-93050Y99050D02*
X-27000Y33000D01*
X-257000Y122500D02*
X-251843D01*
X-252500Y117500D02*
X-248000Y113000D01*
X-253156Y112500D02*
X-249657Y109000D01*
X-257000Y107500D02*
X-254500Y105000D01*
X-205050Y91050D02*
X-98481D01*
X-262593Y82500D02*
X-248093Y97000D01*
X-211000D01*
X-205050Y91050D01*
X-263250Y87500D02*
X-249750Y101000D01*
X-209343D01*
X-203393Y95050D01*
X-254500Y105000D02*
X-207686D01*
X-201736Y99050D01*
X-249657Y109000D02*
X-206019D01*
X-200827Y103807D01*
X-248000Y113000D02*
X-204363D01*
X-199170Y107807D01*
X-251843Y122500D02*
X-247487Y118144D01*
X-203142D01*
X-197306Y112307D01*
X-100138Y87050D02*
X-19088Y6000D01*
X-14000D01*
X-101795Y83050D02*
X-13389Y-5356D01*
Y-9529D02*
Y-5356D01*
X-103451Y79050D02*
X-18000Y-6401D01*
Y-15000D02*
Y-6401D01*
X-105108Y75050D02*
X-28000Y-2058D01*
Y-7000D02*
Y-2058D01*
X-106765Y71050D02*
X-34000Y-1715D01*
Y-6000D02*
Y-1715D01*
X-203393Y95050D02*
X-96050D01*
X-26500Y25500D01*
X-199170Y107807D02*
X-88807D01*
X-72500Y91500D01*
X-87650Y112307D02*
X-68500Y93157D01*
X-197306Y112307D02*
X-87650D01*
X-200827Y103807D02*
X-90807D01*
X-12064Y18523D02*
Y25064D01*
X-90807Y103807D02*
X-12064Y25064D01*
X-14302Y33302D02*
X-6000D01*
X-38503Y63160D02*
X-36555D01*
X-68500Y93136D02*
Y93157D01*
Y93136D02*
X-65864Y90500D01*
X-65843D01*
X-38503Y63160D01*
X-72500Y91479D02*
Y91500D01*
Y91479D02*
X-67521Y86500D01*
X-67500D01*
X-14302Y33302D01*
X-201736Y99050D02*
X-93050D01*
X-61477Y97000D02*
X-55477Y103000D01*
X184758Y-44500D02*
X196500Y-56242D01*
Y-92500D02*
Y-56242D01*
X83000Y-95000D02*
X112000Y-66000D01*
Y-38000D01*
X129000Y-21000D01*
X148000Y-29000D02*
Y0D01*
Y-29000D02*
X163500Y-44500D01*
X184758D01*
X-290000Y190000D02*
G03*
X-300000Y180000I0J-10000D01*
G01*
Y-180000D02*
G03*
X-290000Y-190000I10000J0D01*
G01*
X299941Y180000D02*
G03*
X289941Y190000I-10000J0D01*
G01*
Y-190000D02*
G03*
X299941Y-180000I0J10000D01*
G01*
X-290000Y190000D02*
X289941Y190000D01*
X-290000Y-190000D02*
X289941Y-190000D01*
X-300000Y-180000D02*
Y180000D01*
X300000Y-180000D02*
Y180000D01*
X289941Y-190000D02*
G03*
X299941Y-180000I0J10000D01*
G01*
Y180000D02*
G03*
X289941Y190000I-10000J0D01*
G01*
X-300000Y-180000D02*
G03*
X-290000Y-190000I10000J0D01*
G01*
Y190000D02*
G03*
X-300000Y180000I0J-10000D01*
G01*
X300000Y-180000D02*
Y180000D01*
X-300000Y-180000D02*
Y180000D01*
X-290000Y-190000D02*
X289941Y-190000D01*
X-290000Y190000D02*
X289941Y190000D01*
D39*
X172385Y-154865D02*
X217115D01*
X158703Y-141183D02*
X172385Y-154865D01*
X164257Y-159000D02*
X196250D01*
X146440Y-141183D02*
X164257Y-159000D01*
X156573Y-163523D02*
X204227D01*
X134233Y-141183D02*
X156573Y-163523D01*
X217115Y-154865D02*
X221250Y-159000D01*
X204227Y-163523D02*
X208750Y-159000D01*
D40*
X-110105Y-107895D02*
X38895D01*
X63000Y-132000D01*
X-119000Y-99000D02*
X-110105Y-107895D01*
X-134000Y-99000D02*
X-119000D01*
D41*
X-197000Y124000D02*
X-149000Y172000D01*
X-51000D01*
X-171000Y-99000D02*
X-134000D01*
X-194442Y-93174D02*
X-176826D01*
X-171000Y-99000D01*
D44*
X28993Y-154584D02*
X29000D01*
X2493Y-143984D02*
X2500D01*
X27493D02*
X27500D01*
X53993Y-154584D02*
X54000D01*
D45*
X204300Y170000D02*
D03*
D46*
X229700D02*
D03*
D47*
X273000Y-163000D02*
D03*
X-273000D02*
D03*
X273000Y163000D02*
D03*
X-273000D02*
D03*
D48*
X-276200Y132000D02*
D03*
Y-132000D02*
D03*
X284000Y151000D02*
D03*
X289000Y163000D02*
D03*
X261000Y174000D02*
D03*
X273000Y147000D02*
D03*
X284000Y174000D02*
D03*
X257000Y163000D02*
D03*
X261000Y152000D02*
D03*
X273000Y179000D02*
D03*
X284000Y-175000D02*
D03*
X289000Y-163000D02*
D03*
X261000Y-152000D02*
D03*
X273000Y-179000D02*
D03*
X284000Y-152000D02*
D03*
X257000Y-163000D02*
D03*
X261000Y-174000D02*
D03*
X273000Y-147000D02*
D03*
X-262000Y-175000D02*
D03*
X-257000Y-163000D02*
D03*
X-285000Y-152000D02*
D03*
X-273000Y-179000D02*
D03*
X-262000Y-152000D02*
D03*
X-289000Y-163000D02*
D03*
X-285000Y-174000D02*
D03*
X-273000Y-147000D02*
D03*
X-262000Y151000D02*
D03*
X-257000Y163000D02*
D03*
X-285000Y174000D02*
D03*
X-273000Y147000D02*
D03*
X-262000Y174000D02*
D03*
X-289000Y163000D02*
D03*
X-285000Y152000D02*
D03*
X-273000Y179000D02*
D03*
X-10000Y129000D02*
D03*
X171250Y-181750D02*
D03*
X158703Y-141183D02*
D03*
X221250Y-159000D02*
D03*
X134233Y-141183D02*
D03*
X208750Y-159000D02*
D03*
X146440Y-141183D02*
D03*
X196250Y-159000D02*
D03*
X259000Y-126000D02*
D03*
X201250Y-126587D02*
D03*
X188750D02*
D03*
X63000Y-132000D02*
D03*
X124750Y-155250D02*
D03*
X83663Y-167002D02*
D03*
X112000Y-167000D02*
D03*
X135000Y-180000D02*
D03*
X-185198Y-78802D02*
D03*
X-185000Y-72000D02*
D03*
X-215000Y-97500D02*
D03*
X231000Y115000D02*
D03*
X55656Y147156D02*
D03*
X262000Y-91000D02*
D03*
X-159500Y-57500D02*
D03*
X-134000Y-99000D02*
D03*
X115000Y30000D02*
D03*
X-50000Y-58000D02*
D03*
X-89000Y-87000D02*
D03*
X-201101Y-73500D02*
D03*
X-210000Y-50000D02*
D03*
X-168000Y47500D02*
D03*
X154620Y-118000D02*
D03*
X-197000Y124000D02*
D03*
X-54000Y97000D02*
D03*
X165000Y140500D02*
D03*
X-61477Y97000D02*
D03*
X130000Y112000D02*
D03*
X125000Y120000D02*
D03*
X154000Y156000D02*
D03*
X225000Y-93000D02*
D03*
X45000Y105000D02*
D03*
X40000Y100000D02*
D03*
X-226140Y-105342D02*
D03*
X240000Y-150000D02*
D03*
X260500Y-28000D02*
D03*
X259500Y-12500D02*
D03*
X187000Y56569D02*
D03*
X90000Y62000D02*
D03*
X125730Y61730D02*
D03*
X236000Y-17500D02*
D03*
X195000Y5000D02*
D03*
X207000Y-29000D02*
D03*
X292000Y-27500D02*
D03*
X214828Y-70172D02*
D03*
X213000Y5000D02*
D03*
X169500Y-116000D02*
D03*
X-18750Y-131000D02*
D03*
X-44380Y-161000D02*
D03*
X-19000D02*
D03*
X-6250Y-131000D02*
D03*
X-120000Y-178000D02*
D03*
X-159000Y-143000D02*
D03*
X-219500Y-172500D02*
D03*
X184500Y-104500D02*
D03*
X108230Y161230D02*
D03*
X31500Y161500D02*
D03*
X5000Y178500D02*
D03*
X-51000Y168000D02*
D03*
X-40000D02*
D03*
X-30000D02*
D03*
X-20000D02*
D03*
X-51000Y177000D02*
D03*
X-40000D02*
D03*
X-30000D02*
D03*
X-20000D02*
D03*
X233000Y66000D02*
D03*
X258000Y-112500D02*
D03*
X215500Y-77500D02*
D03*
X206000Y-95000D02*
D03*
X148000Y0D02*
D03*
X-229000Y39000D02*
D03*
X-184000Y29704D02*
D03*
X-210000Y-7000D02*
D03*
X-215000Y-19000D02*
D03*
X-219938Y27000D02*
D03*
X-224448Y33000D02*
D03*
X160632Y-1866D02*
D03*
X29964Y-40517D02*
D03*
X-11206Y60198D02*
D03*
Y41793D02*
D03*
X29946Y-59517D02*
D03*
X35695Y-18000D02*
D03*
X18917Y6000D02*
D03*
X14030Y11928D02*
D03*
X-229863Y-87500D02*
D03*
X-234750Y-82500D02*
D03*
X26500Y24204D02*
D03*
X-226037Y-57610D02*
D03*
X-215000Y13000D02*
D03*
X-231578Y-52500D02*
D03*
X-215000Y21000D02*
D03*
X-162000Y-29000D02*
D03*
X6000Y33577D02*
D03*
X-6000Y33302D02*
D03*
X-12064Y18523D02*
D03*
X-18000Y12000D02*
D03*
X-264363Y112500D02*
D03*
X-269250Y117500D02*
D03*
X-264363Y97500D02*
D03*
X-269250Y102500D02*
D03*
X-264363Y82500D02*
D03*
X-269250Y87500D02*
D03*
X188178Y-70000D02*
D03*
X133178Y-72250D02*
D03*
X149000Y-83000D02*
D03*
X-18000Y-15000D02*
D03*
X-13389Y-9529D02*
D03*
X236000Y-27500D02*
D03*
X222000Y-36000D02*
D03*
X217000Y-52000D02*
D03*
X269000Y-44000D02*
D03*
X265000Y-37500D02*
D03*
X187979Y5000D02*
D03*
X213000Y-34000D02*
D03*
X211500Y-60500D02*
D03*
X209000Y-51000D02*
D03*
X262000Y-47000D02*
D03*
X294000Y-67000D02*
D03*
X0Y-15000D02*
D03*
X-6000Y-32500D02*
D03*
X-34000Y-6000D02*
D03*
X-269250Y72500D02*
D03*
X292000Y-57500D02*
D03*
X270000Y-82500D02*
D03*
X292000Y-77500D02*
D03*
Y-42500D02*
D03*
X119755Y-59000D02*
D03*
X292000Y7500D02*
D03*
X-269250Y42500D02*
D03*
X-264363Y37500D02*
D03*
X-269250Y57500D02*
D03*
X-264363Y52500D02*
D03*
X-270400Y-117500D02*
D03*
Y-87500D02*
D03*
X160632Y-24368D02*
D03*
X176000Y-24000D02*
D03*
X104000Y-46000D02*
D03*
X170678Y-57106D02*
D03*
X257000Y4270D02*
D03*
X225000Y95000D02*
D03*
X258000Y-67500D02*
D03*
X268000Y-110000D02*
D03*
Y-122500D02*
D03*
X294000Y-19000D02*
D03*
X212000Y149000D02*
D03*
X12000Y-50000D02*
D03*
X84500Y-81500D02*
D03*
X211000Y64000D02*
D03*
X293500Y-87500D02*
D03*
X23461Y-50017D02*
D03*
X-265000Y-70000D02*
D03*
Y-44000D02*
D03*
X-232888Y26524D02*
D03*
X-78000Y-140000D02*
D03*
X15811Y74367D02*
D03*
X-14000Y6000D02*
D03*
X-244000Y-147000D02*
D03*
X-125000Y14000D02*
D03*
X-170000Y117000D02*
D03*
X236000Y56000D02*
D03*
X-21000Y74000D02*
D03*
X-223000Y-182000D02*
D03*
X62842Y138730D02*
D03*
X141000Y180000D02*
D03*
X72000Y154000D02*
D03*
X263000Y0D02*
D03*
X293000Y-35000D02*
D03*
X220979Y-28000D02*
D03*
X224000Y-17500D02*
D03*
X236270Y45842D02*
D03*
X257000Y-5000D02*
D03*
X231200Y15298D02*
D03*
X224354D02*
D03*
Y22800D02*
D03*
X231200D02*
D03*
X206000Y500D02*
D03*
X201640Y-24059D02*
D03*
X225000Y-121000D02*
D03*
X71000Y-147000D02*
D03*
X1425Y8846D02*
D03*
X170678Y-81188D02*
D03*
X-40000Y-125000D02*
D03*
X-234556Y-92575D02*
D03*
X81730Y178230D02*
D03*
X236270Y35842D02*
D03*
X-120000Y-171000D02*
D03*
X292000Y67500D02*
D03*
X0Y109620D02*
D03*
X150678Y-57106D02*
D03*
X182000Y115000D02*
D03*
X-79000Y-68000D02*
D03*
X-69000Y-148000D02*
D03*
X-10000Y137112D02*
D03*
X51851Y-65297D02*
D03*
X-265000Y24000D02*
D03*
X-234000Y-5000D02*
D03*
X-198500Y-142500D02*
D03*
X-37765Y-12000D02*
D03*
X-264363Y67500D02*
D03*
X83000Y-95000D02*
D03*
X75000Y123000D02*
D03*
X132000Y145000D02*
D03*
X-31820Y-94820D02*
D03*
X31680Y-94680D02*
D03*
X179500Y-95500D02*
D03*
X-268000Y139998D02*
D03*
X-291500Y122500D02*
D03*
X-203000Y142000D02*
D03*
X-213000Y184000D02*
D03*
X22000Y164230D02*
D03*
X-4000Y152000D02*
D03*
X98730Y164230D02*
D03*
X65000Y180000D02*
D03*
X170000D02*
D03*
X228730Y137842D02*
D03*
X252000Y130000D02*
D03*
X165592Y94773D02*
D03*
X98000Y121000D02*
D03*
X147377Y67195D02*
D03*
X203000Y39000D02*
D03*
X258000Y-183000D02*
D03*
X135000Y-170000D02*
D03*
X-1000Y-179000D02*
D03*
X-142359Y-83431D02*
D03*
X-108000Y-60000D02*
D03*
X-146000Y-1000D02*
D03*
X-162000Y3000D02*
D03*
X-152000Y-18000D02*
D03*
X-50471Y-2529D02*
D03*
X180500Y-54500D02*
D03*
X13270Y97158D02*
D03*
X42551Y55000D02*
D03*
X169500Y-105000D02*
D03*
X230000Y41000D02*
D03*
Y51000D02*
D03*
X228000Y75000D02*
D03*
X182000Y85000D02*
D03*
X257000Y-82500D02*
D03*
X222000Y-136000D02*
D03*
X-36555Y63160D02*
D03*
X-57000Y133000D02*
D03*
X-46000Y122000D02*
D03*
X-34000Y129000D02*
D03*
X-163270Y117000D02*
D03*
X-156270D02*
D03*
X-291500Y107500D02*
D03*
Y92500D02*
D03*
Y77500D02*
D03*
Y62500D02*
D03*
Y47500D02*
D03*
Y32500D02*
D03*
Y12500D02*
D03*
Y-12500D02*
D03*
X-270400Y-17500D02*
D03*
X-291500Y-42500D02*
D03*
Y-77500D02*
D03*
Y-102500D02*
D03*
X-270400Y-107500D02*
D03*
X-246523Y-133123D02*
D03*
X-235900Y47500D02*
D03*
Y62500D02*
D03*
Y77500D02*
D03*
Y92500D02*
D03*
X-257000Y122500D02*
D03*
Y107500D02*
D03*
X-33000Y-118000D02*
D03*
X-47000D02*
D03*
X-40000D02*
D03*
X-47000Y-125000D02*
D03*
X-33000D02*
D03*
X-26000D02*
D03*
Y-118000D02*
D03*
X27422Y48422D02*
D03*
X27343Y67657D02*
D03*
X17000Y-17000D02*
D03*
X55933Y-18067D02*
D03*
X58811Y-25812D02*
D03*
X-16000Y-62000D02*
D03*
X50720Y-40517D02*
D03*
X78736Y-31263D02*
D03*
X-25000Y-33000D02*
D03*
X-93000Y26000D02*
D03*
X-194442Y-93174D02*
D03*
X-42079Y0D02*
D03*
X-149000Y117000D02*
D03*
X-220676Y92500D02*
D03*
X-26500Y25500D02*
D03*
X-27000Y33000D02*
D03*
X188000Y28000D02*
D03*
X213000D02*
D03*
X100000Y-171000D02*
D03*
X2695Y83D02*
D03*
X183313Y-86000D02*
D03*
X157000Y62000D02*
D03*
X57877Y9123D02*
D03*
X268040Y47700D02*
D03*
X187000Y49431D02*
D03*
D50*
X100000Y-1000D02*
D03*
X-100000D02*
D03*
M02*
