%FSLAX44Y44*%
%MOMM*%
G71*
G01*
G75*
G04 Layer_Physical_Order=1*
G04 Layer_Color=255*
%ADD10R,1.5000X0.4000*%
%ADD11R,0.6000X0.5000*%
%ADD12R,1.2000X1.6000*%
%ADD13R,0.5000X0.6000*%
%ADD14R,1.3970X1.3970*%
%ADD15R,1.2700X0.5080*%
%ADD16R,1.0160X0.8890*%
%ADD17R,0.8890X1.0160*%
%ADD18P,1.8385X4X90.0*%
%ADD19R,0.7000X0.6000*%
%ADD20R,1.4000X0.6000*%
%ADD21R,0.8000X1.6000*%
%ADD22R,1.2500X0.3000*%
%ADD23R,1.2000X1.4000*%
%ADD24R,1.2000X2.2000*%
%ADD25R,1.6000X1.4000*%
%ADD26R,1.1000X1.4000*%
%ADD27R,0.7000X1.6000*%
%ADD28R,1.0668X0.8128*%
G04:AMPARAMS|DCode=29|XSize=0.22mm|YSize=0.8mm|CornerRadius=0mm|HoleSize=0mm|Usage=FLASHONLY|Rotation=180.000|XOffset=0mm|YOffset=0mm|HoleType=Round|Shape=RoundedRectangle|*
%AMROUNDEDRECTD29*
21,1,0.2200,0.8000,0,0,180.0*
21,1,0.2200,0.8000,0,0,180.0*
1,1,0.0000,-0.1100,0.4000*
1,1,0.0000,0.1100,0.4000*
1,1,0.0000,0.1100,-0.4000*
1,1,0.0000,-0.1100,-0.4000*
%
%ADD29ROUNDEDRECTD29*%
%ADD30R,4.3000X4.3000*%
G04:AMPARAMS|DCode=31|XSize=0.22mm|YSize=0.8mm|CornerRadius=0mm|HoleSize=0mm|Usage=FLASHONLY|Rotation=270.000|XOffset=0mm|YOffset=0mm|HoleType=Round|Shape=RoundedRectangle|*
%AMROUNDEDRECTD31*
21,1,0.2200,0.8000,0,0,270.0*
21,1,0.2200,0.8000,0,0,270.0*
1,1,0.0000,-0.4000,-0.1100*
1,1,0.0000,-0.4000,0.1100*
1,1,0.0000,0.4000,0.1100*
1,1,0.0000,0.4000,-0.1100*
%
%ADD31ROUNDEDRECTD31*%
%ADD32R,0.8128X0.8128*%
%ADD33R,0.7600X1.5200*%
%ADD34R,1.2954X1.6002*%
%ADD35R,1.2000X1.2500*%
%ADD36R,2.4000X1.2500*%
%ADD37C,0.4000*%
%ADD38C,0.2000*%
%ADD39C,0.1270*%
%ADD40C,0.2540*%
%ADD41C,0.6000*%
%ADD42C,0.3000*%
%ADD43R,1.3000X1.2000*%
%ADD44C,0.0254*%
%ADD45C,1.5240*%
%ADD46R,1.5240X1.5240*%
G04:AMPARAMS|DCode=47|XSize=4mm|YSize=4mm|CornerRadius=2mm|HoleSize=0mm|Usage=FLASHONLY|Rotation=0.000|XOffset=0mm|YOffset=0mm|HoleType=Round|Shape=RoundedRectangle|*
%AMROUNDEDRECTD47*
21,1,4.0000,0.0000,0,0,0.0*
21,1,0.0000,4.0000,0,0,0.0*
1,1,4.0000,0.0000,0.0000*
1,1,4.0000,0.0000,0.0000*
1,1,4.0000,0.0000,0.0000*
1,1,4.0000,0.0000,0.0000*
%
%ADD47ROUNDEDRECTD47*%
%ADD48C,0.5000*%
%ADD49C,4.4000*%
G36*
X251022Y27500D02*
X251530Y27000D01*
X251530Y12500D01*
X251030Y12000D01*
X222000Y12000D01*
X220657Y13343D01*
X220657Y26657D01*
X221500Y27500D01*
X251022Y27500D01*
D02*
G37*
G36*
X266198Y4802D02*
Y-3802D01*
X261000Y-9000D01*
X242000D01*
X238000Y-5000D01*
Y5000D01*
X240500Y7500D01*
X263500D01*
X266198Y4802D01*
D02*
G37*
G36*
X250528Y54472D02*
Y35999D01*
X247029Y32500D01*
X232500D01*
X226000Y39000D01*
Y52445D01*
X232555Y59000D01*
X246000D01*
X250528Y54472D01*
D02*
G37*
G36*
X139158Y121158D02*
Y115158D01*
X130970Y106970D01*
X130030D01*
X121000Y116000D01*
Y122000D01*
X124000Y125000D01*
X135316D01*
X139158Y121158D01*
D02*
G37*
G36*
X49000Y107000D02*
Y102000D01*
X42000Y95000D01*
X38650D01*
X31000Y102650D01*
Y109000D01*
X34000Y112000D01*
X44000D01*
X49000Y107000D01*
D02*
G37*
D10*
X-230500Y-162000D02*
D03*
Y-155500D02*
D03*
Y-149000D02*
D03*
Y-142500D02*
D03*
X-187500D02*
D03*
Y-149000D02*
D03*
Y-155500D02*
D03*
Y-162000D02*
D03*
D11*
X-169000Y-34500D02*
D03*
Y-43500D02*
D03*
X18892Y-10367D02*
D03*
Y-1367D02*
D03*
X125730Y54230D02*
D03*
Y45230D02*
D03*
X89482D02*
D03*
Y54230D02*
D03*
X118356Y-72500D02*
D03*
Y-81500D02*
D03*
X101424Y45230D02*
D03*
Y54230D02*
D03*
X113444Y45230D02*
D03*
Y54230D02*
D03*
X95130Y-64621D02*
D03*
Y-73621D02*
D03*
X95049Y-53566D02*
D03*
Y-44566D02*
D03*
X137797Y45230D02*
D03*
Y54230D02*
D03*
X-230000Y-181500D02*
D03*
Y-172500D02*
D03*
X-131268Y23606D02*
D03*
Y14606D02*
D03*
X6172Y26490D02*
D03*
Y17490D02*
D03*
X146440Y-156310D02*
D03*
Y-147310D02*
D03*
X134440Y-156310D02*
D03*
Y-147310D02*
D03*
X158610Y-156310D02*
D03*
Y-147310D02*
D03*
X84000Y135500D02*
D03*
Y126500D02*
D03*
X154000Y149500D02*
D03*
Y140500D02*
D03*
X81000Y-137500D02*
D03*
Y-146500D02*
D03*
X93000Y-137500D02*
D03*
Y-146500D02*
D03*
X105000Y-137500D02*
D03*
Y-146500D02*
D03*
X117000Y-137500D02*
D03*
Y-146500D02*
D03*
D12*
X-78000Y-127000D02*
D03*
X-110000D02*
D03*
D13*
X-117500Y-67000D02*
D03*
X-108500D02*
D03*
X-198500Y-63000D02*
D03*
X-189500D02*
D03*
X-61500Y-69000D02*
D03*
X-70500D02*
D03*
X-12208Y67728D02*
D03*
X-21208D02*
D03*
X35568Y-25812D02*
D03*
X44568D02*
D03*
X42551Y1418D02*
D03*
X33551D02*
D03*
X80953Y-180474D02*
D03*
X71953D02*
D03*
X91500D02*
D03*
X100500D02*
D03*
X-82053D02*
D03*
X-73053D02*
D03*
X-92600D02*
D03*
X-101600D02*
D03*
X198500Y-95000D02*
D03*
X189500D02*
D03*
X201500Y115000D02*
D03*
X210500D02*
D03*
X42551Y13662D02*
D03*
X33551D02*
D03*
X42403Y25493D02*
D03*
X33403D02*
D03*
X33500Y41000D02*
D03*
X42500D02*
D03*
X35568Y-40517D02*
D03*
X44568D02*
D03*
D14*
X-167795Y-99000D02*
D03*
X-146205D02*
D03*
D15*
X-169000Y-57500D02*
D03*
Y-67000D02*
D03*
Y-76500D02*
D03*
X-143000D02*
D03*
Y-67000D02*
D03*
Y-57500D02*
D03*
D16*
X203000Y14999D02*
D03*
Y31001D02*
D03*
X-146000Y7999D02*
D03*
Y24001D02*
D03*
X81730Y153499D02*
D03*
Y169501D02*
D03*
X5000Y153499D02*
D03*
Y169501D02*
D03*
X-143000Y-17999D02*
D03*
Y-34001D02*
D03*
D17*
X148999Y85000D02*
D03*
X165001D02*
D03*
X193999Y53000D02*
D03*
X210001D02*
D03*
X12999Y106000D02*
D03*
X29001D02*
D03*
X148999Y116000D02*
D03*
X165001D02*
D03*
D18*
X155000Y31000D02*
D03*
X177000Y53000D02*
D03*
D19*
X-162000Y24100D02*
D03*
Y9900D02*
D03*
X-51000Y6900D02*
D03*
Y21100D02*
D03*
D20*
X-156500Y-163200D02*
D03*
X-93500D02*
D03*
Y-154800D02*
D03*
X-156500D02*
D03*
D21*
X221250Y-171000D02*
D03*
X208750D02*
D03*
X196250D02*
D03*
X183750D02*
D03*
X171250D02*
D03*
X158750D02*
D03*
D22*
X246450Y122500D02*
D03*
X280950D02*
D03*
X246450Y117500D02*
D03*
X280950D02*
D03*
Y112500D02*
D03*
X246450D02*
D03*
X280950Y42500D02*
D03*
X246450D02*
D03*
X280950Y47500D02*
D03*
X246450D02*
D03*
X280950Y52500D02*
D03*
X246450D02*
D03*
X280950Y57500D02*
D03*
X246450D02*
D03*
X280950Y62500D02*
D03*
X246450D02*
D03*
X280950Y67500D02*
D03*
X246450D02*
D03*
Y107500D02*
D03*
X280950D02*
D03*
X246450Y102500D02*
D03*
X280950D02*
D03*
X246450Y97500D02*
D03*
X280950D02*
D03*
X246450Y92500D02*
D03*
X280950D02*
D03*
X246450Y87500D02*
D03*
X280950D02*
D03*
X246450Y82500D02*
D03*
X280950D02*
D03*
X246450Y77500D02*
D03*
X280950D02*
D03*
Y72500D02*
D03*
X246450D02*
D03*
Y-77500D02*
D03*
X280950D02*
D03*
Y-72500D02*
D03*
X246450D02*
D03*
X280950Y-67500D02*
D03*
X246450D02*
D03*
X280950Y-62500D02*
D03*
X246450D02*
D03*
X280950Y-57500D02*
D03*
X246450D02*
D03*
X280950Y-52500D02*
D03*
X246450D02*
D03*
X280950Y-47500D02*
D03*
X246450D02*
D03*
X280950Y-42500D02*
D03*
X246450D02*
D03*
Y-82500D02*
D03*
X280950D02*
D03*
X246450Y-87500D02*
D03*
X280950D02*
D03*
X246450Y-92500D02*
D03*
X280950D02*
D03*
X246450Y-97500D02*
D03*
X280950D02*
D03*
X246450Y-102500D02*
D03*
X280950D02*
D03*
X246450Y-107500D02*
D03*
X280950D02*
D03*
X246450Y-112500D02*
D03*
X280950D02*
D03*
Y-117500D02*
D03*
X246450D02*
D03*
X280950Y-122500D02*
D03*
X246450D02*
D03*
Y-37500D02*
D03*
X280950D02*
D03*
Y-32500D02*
D03*
X246450D02*
D03*
X280950Y-27500D02*
D03*
X246450D02*
D03*
X280950Y-22500D02*
D03*
X246450D02*
D03*
X280950Y-17500D02*
D03*
X246450D02*
D03*
X280950Y-12500D02*
D03*
X246450D02*
D03*
X280950Y-7500D02*
D03*
X246450D02*
D03*
X280950Y-2500D02*
D03*
X246450D02*
D03*
Y37500D02*
D03*
X280950D02*
D03*
X246450Y32500D02*
D03*
X280950D02*
D03*
X246450Y27500D02*
D03*
X280950D02*
D03*
X246450Y22500D02*
D03*
X280950D02*
D03*
X246450Y17500D02*
D03*
X280950D02*
D03*
X246450Y12500D02*
D03*
X280950D02*
D03*
X246450Y7500D02*
D03*
X280950D02*
D03*
Y2500D02*
D03*
X246450D02*
D03*
X-280950Y2500D02*
D03*
Y7500D02*
D03*
Y12500D02*
D03*
Y17500D02*
D03*
Y22500D02*
D03*
Y27500D02*
D03*
Y32500D02*
D03*
Y37500D02*
D03*
Y-2500D02*
D03*
Y-7500D02*
D03*
Y-12500D02*
D03*
Y-17500D02*
D03*
Y-22500D02*
D03*
Y-27500D02*
D03*
Y-32500D02*
D03*
Y-37500D02*
D03*
Y-122500D02*
D03*
Y-117500D02*
D03*
Y-112500D02*
D03*
Y-107500D02*
D03*
Y-102500D02*
D03*
Y-97500D02*
D03*
Y-92500D02*
D03*
Y-87500D02*
D03*
Y-82500D02*
D03*
Y-42500D02*
D03*
Y-47500D02*
D03*
Y-52500D02*
D03*
Y-57500D02*
D03*
Y-62500D02*
D03*
Y-67500D02*
D03*
Y-72500D02*
D03*
Y-77500D02*
D03*
Y72500D02*
D03*
Y77500D02*
D03*
Y82500D02*
D03*
Y87500D02*
D03*
Y92500D02*
D03*
Y97500D02*
D03*
Y102500D02*
D03*
Y107500D02*
D03*
Y67500D02*
D03*
Y62500D02*
D03*
Y57500D02*
D03*
Y52500D02*
D03*
Y47500D02*
D03*
Y42500D02*
D03*
Y112500D02*
D03*
Y117500D02*
D03*
Y122500D02*
D03*
X-246450D02*
D03*
Y117500D02*
D03*
Y112500D02*
D03*
Y42500D02*
D03*
Y47500D02*
D03*
Y52500D02*
D03*
Y57500D02*
D03*
Y62500D02*
D03*
Y67500D02*
D03*
Y107500D02*
D03*
Y102500D02*
D03*
Y97500D02*
D03*
Y92500D02*
D03*
Y87500D02*
D03*
Y82500D02*
D03*
Y77500D02*
D03*
Y72500D02*
D03*
Y-77500D02*
D03*
Y-72500D02*
D03*
Y-67500D02*
D03*
Y-62500D02*
D03*
Y-57500D02*
D03*
Y-52500D02*
D03*
Y-47500D02*
D03*
Y-42500D02*
D03*
Y-82500D02*
D03*
Y-87500D02*
D03*
Y-92500D02*
D03*
Y-97500D02*
D03*
Y-102500D02*
D03*
Y-107500D02*
D03*
Y-112500D02*
D03*
Y-117500D02*
D03*
Y-122500D02*
D03*
Y-37500D02*
D03*
Y-32500D02*
D03*
Y-27500D02*
D03*
Y-22500D02*
D03*
Y-17500D02*
D03*
Y-12500D02*
D03*
Y-7500D02*
D03*
Y-2500D02*
D03*
Y37500D02*
D03*
Y32500D02*
D03*
Y27500D02*
D03*
Y22500D02*
D03*
Y17500D02*
D03*
Y12500D02*
D03*
Y7500D02*
D03*
Y2500D02*
D03*
D23*
X63736Y-42611D02*
D03*
Y-64612D02*
D03*
X78736D02*
D03*
Y-42611D02*
D03*
D24*
X-193626Y145198D02*
D03*
X-38539Y145201D02*
D03*
D25*
X-184616Y49201D02*
D03*
D26*
X-38596Y49111D02*
D03*
D27*
X-138659Y44118D02*
D03*
X-127606D02*
D03*
X-116646D02*
D03*
X-105630D02*
D03*
X-94590D02*
D03*
X-83623D02*
D03*
X-72656D02*
D03*
X-61606D02*
D03*
X-50653D02*
D03*
D28*
X98544Y92411D02*
D03*
Y111487D02*
D03*
X75608Y101949D02*
D03*
X201544Y130412D02*
D03*
Y149487D02*
D03*
X178608Y139949D02*
D03*
D29*
X162678Y-70000D02*
D03*
X158678D02*
D03*
X154678D02*
D03*
X150678D02*
D03*
X146678D02*
D03*
X142678D02*
D03*
X138678D02*
D03*
X166678D02*
D03*
X170678D02*
D03*
X174678D02*
D03*
X178678D02*
D03*
X182678D02*
D03*
X142678Y-10000D02*
D03*
X138678D02*
D03*
X146678D02*
D03*
X150678D02*
D03*
X182678D02*
D03*
X178678D02*
D03*
X174678D02*
D03*
X170678D02*
D03*
X166678D02*
D03*
X154678D02*
D03*
X158678D02*
D03*
X162678D02*
D03*
D30*
X160678Y-40000D02*
D03*
D31*
X190678Y-42000D02*
D03*
Y-38000D02*
D03*
Y-34000D02*
D03*
Y-46000D02*
D03*
Y-50000D02*
D03*
Y-54000D02*
D03*
Y-58000D02*
D03*
Y-62000D02*
D03*
Y-30000D02*
D03*
Y-26000D02*
D03*
Y-18000D02*
D03*
Y-22000D02*
D03*
X130678Y-58000D02*
D03*
Y-62000D02*
D03*
Y-54000D02*
D03*
Y-50000D02*
D03*
Y-18000D02*
D03*
Y-22000D02*
D03*
Y-26000D02*
D03*
Y-30000D02*
D03*
Y-34000D02*
D03*
Y-46000D02*
D03*
Y-42000D02*
D03*
Y-38000D02*
D03*
D32*
X40000Y72380D02*
D03*
Y87620D02*
D03*
X-23000Y109620D02*
D03*
Y94380D02*
D03*
X-8000Y109620D02*
D03*
Y94380D02*
D03*
X132000Y85380D02*
D03*
Y100620D02*
D03*
D33*
X44520Y-172450D02*
D03*
X31820D02*
D03*
X19120D02*
D03*
X-18980D02*
D03*
X-31680D02*
D03*
X-44380D02*
D03*
X-44520Y-83550D02*
D03*
X-31820D02*
D03*
X-19120D02*
D03*
X18980D02*
D03*
X31680D02*
D03*
X44363D02*
D03*
D34*
X5811Y45667D02*
D03*
Y71067D02*
D03*
D35*
X-167500Y-126717D02*
D03*
D36*
X-136750D02*
D03*
D37*
X-34000Y129000D02*
Y140662D01*
X-5000Y-0D02*
X8000Y-13000D01*
Y-18553D02*
Y-13000D01*
Y-18553D02*
X29964Y-40517D01*
X171250Y-181750D02*
Y-171000D01*
X125810Y-156310D02*
X134440D01*
X124750Y-155250D02*
X125810Y-156310D01*
X158610Y-170860D02*
X158750Y-171000D01*
X158610Y-170860D02*
Y-156310D01*
X134440D02*
X158610D01*
X-11500Y60837D02*
Y81000D01*
X-8000Y84500D01*
Y94380D01*
X-146205Y-99000D02*
X-134000D01*
X-8000Y109620D02*
X0D01*
X90000Y54748D02*
Y62000D01*
X125730Y54230D02*
Y61730D01*
X154678Y26678D02*
X159000Y31000D01*
X154678Y2033D02*
Y26678D01*
X-92600Y-180474D02*
X-82053D01*
X80953Y-181058D02*
X91500D01*
X-170000Y-143000D02*
X-159000D01*
X-174000Y-147000D02*
X-170000Y-143000D01*
X-114394Y23606D02*
X-105630Y32371D01*
X-131268Y23606D02*
X-114394D01*
X-105630Y32371D02*
Y44118D01*
X29964Y-40517D02*
X35568D01*
X35695Y-25077D02*
Y-18000D01*
X-23000Y94286D02*
X-11892D01*
X35695Y-18000D02*
X42551Y-11145D01*
Y1418D01*
Y13662D01*
X40000Y87620D02*
Y100000D01*
X134000Y116000D02*
X148999D01*
X125730Y61730D02*
X132000Y68000D01*
Y85000D01*
Y85380D01*
Y85000D02*
X146999D01*
X132000Y100620D02*
Y145000D01*
X-177704Y29704D02*
X-172100Y24100D01*
X-184000Y29704D02*
X-177704D01*
X-172100Y24100D02*
X-162000D01*
Y23606D02*
X-131268D01*
X42551Y13662D02*
Y55000D01*
X40000Y57551D02*
Y72380D01*
Y57551D02*
X42551Y55000D01*
X211000Y53999D02*
Y64000D01*
X203000Y31001D02*
Y39000D01*
X202031Y149000D02*
X212000D01*
X169795Y115000D02*
X182000D01*
X165592Y85590D02*
Y94773D01*
X137797Y54230D02*
Y57615D01*
X147377Y67195D01*
X98000Y112031D02*
Y121000D01*
X42000Y111000D02*
Y129000D01*
X55656Y142656D01*
Y147156D01*
X72000Y154000D02*
X81229D01*
X-4000Y152000D02*
X3501D01*
X13270Y97158D02*
Y105729D01*
X9111Y74367D02*
X15811D01*
X-21000Y67935D02*
Y74000D01*
X-83623Y30377D02*
Y44118D01*
X-88000Y26000D02*
X-83623Y30377D01*
X-203000Y142000D02*
X-196824D01*
X-162000Y3000D02*
Y9900D01*
X-146000Y-1000D02*
Y7999D01*
X-177817Y47500D02*
X-168000D01*
X-163500Y-29000D02*
X-162000D01*
X-169000Y-34500D02*
X-163500Y-29000D01*
X-152000Y-18000D02*
X-143001D01*
X-130662Y14000D02*
X-125000D01*
X-79000Y-68000D02*
X-71500D01*
X-108000Y-66500D02*
Y-60000D01*
X-142359Y-83431D02*
Y-77141D01*
X-78000Y-140000D02*
Y-127000D01*
X-229500Y-182000D02*
X-223000D01*
X-198500Y-142500D02*
X-187500D01*
X-120000Y-178000D02*
X-117526Y-180474D01*
X-101600D01*
X71000Y-147000D02*
X116500D01*
X33500Y41000D02*
Y42344D01*
X27422Y48422D02*
X33500Y42344D01*
X1425Y8846D02*
Y12743D01*
X6172Y17490D01*
X-11500Y28500D02*
Y60198D01*
Y28500D02*
X-5000Y22000D01*
X51851Y-65297D02*
X63051D01*
X78736Y-42611D02*
Y-31263D01*
X-50471Y-2529D02*
Y6900D01*
X-93000Y26000D02*
X-88000D01*
X-36555Y51153D02*
Y63160D01*
X-5000Y-0D02*
Y22000D01*
X189500Y-95000D02*
Y-92187D01*
X183313Y-86000D02*
X189500Y-92187D01*
X208269Y9730D02*
X208270D01*
X179134Y15730D02*
X202269D01*
X167293Y3889D02*
X179134Y15730D01*
X208270Y9730D02*
X213000Y5000D01*
X202269Y15730D02*
X208269Y9730D01*
D38*
X-38539Y145201D02*
X-34000Y140662D01*
X236500Y62500D02*
X246450D01*
X233000Y66000D02*
X236500Y62500D01*
X259000Y-126000D02*
Y-120000D01*
X-198500Y-70899D02*
Y-63000D01*
X-201101Y-73500D02*
X-198500Y-70899D01*
X-189500Y-63000D02*
X-182000D01*
X-178000Y-67000D01*
X-169000D01*
X-246450Y-97500D02*
X-215000D01*
X-167795Y-126422D02*
Y-99000D01*
X-172800Y-164200D02*
X-150500D01*
X-187500Y-155500D02*
X-150200D01*
X210500Y115000D02*
X231000D01*
X209657Y-65000D02*
X214828Y-70172D01*
X208657Y-65000D02*
X209657D01*
X197657Y-54000D02*
X208657Y-65000D01*
X190678Y-54000D02*
X197657D01*
X218000Y-40000D02*
X222000Y-36000D01*
X211000Y-40000D02*
X218000D01*
X209000Y-38000D02*
X211000Y-40000D01*
X190678Y-38000D02*
X209000D01*
X-11892Y94286D02*
X-11500Y93893D01*
X246450Y-112500D02*
X258000D01*
X98544Y79456D02*
X101424Y76576D01*
X98544Y79456D02*
Y92411D01*
X120756Y-58000D02*
X130678D01*
X119755Y-59000D02*
X120756Y-58000D01*
X138606Y-72250D02*
X138678Y-72322D01*
X133178Y-72250D02*
X138606D01*
X-143000Y-57500D02*
Y-35001D01*
X-169000Y-97795D02*
Y-76500D01*
X-246450Y-92500D02*
X-234481D01*
X101424Y54230D02*
Y76576D01*
X154000Y140500D02*
X165000D01*
X178608D01*
X154000Y149500D02*
Y156000D01*
X280950Y-32500D02*
X290500D01*
X293000Y-35000D01*
X280950Y-27500D02*
X292000D01*
X256000Y-32500D02*
X260500Y-28000D01*
X249000Y-32500D02*
X256000D01*
X246450Y-12500D02*
X259500D01*
X201000Y-50000D02*
X211500Y-60500D01*
X190678Y-50000D02*
X201000D01*
X231500Y-13000D02*
X236000Y-17500D01*
X199963Y-13000D02*
X231500D01*
X195119Y-17844D02*
X199963Y-13000D01*
X190678Y-30000D02*
X201356D01*
X202356Y-29000D01*
X207000D01*
X220979Y-28000D02*
X230479Y-37500D01*
X180475Y10000D02*
X190000D01*
X195000Y5000D01*
X232500Y-32500D02*
X240975D01*
X229000Y-22500D02*
X246450D01*
X224000Y-17500D02*
X229000Y-22500D01*
X236500Y-17500D02*
X246450D01*
X178678Y-5223D02*
X184401Y500D01*
X206000D01*
X236000Y-27500D02*
X246450D01*
X190678Y-34000D02*
X213000D01*
X265000Y-37500D02*
X280950D01*
X272500Y-47500D02*
X280950D01*
X269000Y-44000D02*
X272500Y-47500D01*
X267500Y-52500D02*
X280950D01*
X262000Y-47000D02*
X267500Y-52500D01*
X190678Y-42000D02*
X207000D01*
X217000Y-52000D01*
X196000Y-58000D02*
X215500Y-77500D01*
X190678Y-58000D02*
X196000D01*
X198500Y-95000D02*
X206000D01*
X193000Y-62000D02*
X198500Y-67500D01*
X190678Y-62000D02*
X193000D01*
X198500Y-95000D02*
Y-67500D01*
X116000Y38000D02*
X134678Y19322D01*
X104000Y38000D02*
X116000D01*
X101424Y40576D02*
X104000Y38000D01*
X101424Y40576D02*
Y45230D01*
X142678Y-10000D02*
Y22636D01*
X138678Y-10000D02*
Y20979D01*
X137797Y27516D02*
X142678Y22636D01*
X137797Y27516D02*
Y45230D01*
X125730Y33927D02*
X138678Y20979D01*
X125730Y33927D02*
Y45230D01*
X134678Y-14000D02*
Y19322D01*
X130678Y-18000D02*
X134678Y-14000D01*
X113444Y45230D02*
X125730D01*
X138833D02*
Y45248D01*
X154678Y-10000D02*
Y2033D01*
X5000Y169501D02*
Y178500D01*
X81730Y169231D02*
Y178230D01*
X34000Y-152000D02*
X44520Y-162520D01*
Y-172450D02*
Y-162520D01*
X23000Y-120000D02*
X34000Y-131000D01*
Y-152000D02*
Y-131000D01*
X-19000Y-172430D02*
X-18980Y-172450D01*
X-19000Y-172430D02*
Y-161000D01*
X-44380Y-172070D02*
Y-161000D01*
X29000Y-152000D02*
Y-132000D01*
X19120Y-161880D02*
X29000Y-152000D01*
X19120Y-172450D02*
Y-161880D01*
X22000Y-125000D02*
X29000Y-132000D01*
X19120Y-174450D02*
Y-172450D01*
X-31680Y-183680D02*
Y-172450D01*
X-33584Y-185584D02*
X-31680Y-183680D01*
X-57416Y-185584D02*
X-33584D01*
X31820Y-183820D02*
Y-172450D01*
Y-183820D02*
X33000Y-185000D01*
X61000D01*
X65526Y-180474D01*
X71953D01*
X-62526D02*
X-57416Y-185584D01*
X-73053Y-180474D02*
X-62526D01*
X-176000Y-149000D02*
X-174000Y-147000D01*
X-187500Y-149000D02*
X-176000D01*
X-187500Y-162000D02*
X-175000D01*
X-172800Y-164200D01*
X-230000Y-172500D02*
X-219500D01*
X-230500Y-149000D02*
X-216343D01*
X-230500Y-142500D02*
X-215500D01*
X-230000Y-172500D02*
Y-162500D01*
X158678Y-86979D02*
Y-70000D01*
X154678Y-84322D02*
Y-70000D01*
X223043Y151257D02*
X237558D01*
X204300Y170000D02*
X223043Y151257D01*
X246450Y67500D02*
X257500D01*
X237558Y151257D02*
X261000Y127815D01*
Y71000D02*
Y127815D01*
X257500Y67500D02*
X261000Y71000D01*
X246450Y-117500D02*
X256500D01*
X259000Y-120000D01*
X204000Y-46000D02*
X209000Y-51000D01*
X190678Y-46000D02*
X204000D01*
X118010Y-100343D02*
X142678Y-75676D01*
X146678Y-10000D02*
Y-1322D01*
X148000Y0D01*
X-12881Y-104119D02*
X10964D01*
X-19120Y-97880D02*
Y-83550D01*
Y-97880D02*
X-12881Y-104119D01*
X18980Y-99868D02*
X24000Y-104888D01*
X18980Y-99868D02*
Y-85550D01*
X44363Y-97363D02*
X47343Y-100343D01*
X44363Y-97363D02*
Y-85550D01*
X-229000Y62000D02*
X-203950Y87050D01*
X-229000Y39000D02*
Y62000D01*
X-224448Y60408D02*
X-201805Y83050D01*
X-224448Y42149D02*
Y60408D01*
X-219938Y59261D02*
X-200148Y79050D01*
X-219938Y27000D02*
Y59261D01*
X-224448Y33000D02*
Y42000D01*
Y-21413D02*
Y33000D01*
X-219938Y-22560D02*
Y27000D01*
X-50653Y21447D02*
Y44118D01*
X-51000Y21100D02*
X-50653Y21447D01*
X-203950Y87050D02*
X-84050D01*
X-50653Y53653D01*
Y44118D02*
Y53653D01*
X-215000Y-19000D02*
Y5976D01*
Y-24407D02*
Y-19000D01*
X-210000Y-7000D02*
Y4765D01*
Y-25064D02*
Y-7000D01*
X-215000Y5976D02*
X-206500Y14476D01*
X-233092Y-42500D02*
X-215000Y-24407D01*
X-210000Y4765D02*
X-202500Y12266D01*
X-232436Y-47500D02*
X-210000Y-25064D01*
X-210500Y17500D02*
Y57385D01*
X-215000Y13000D02*
X-210500Y17500D01*
X-235534Y-32500D02*
X-224448Y-21413D01*
X-215000Y21000D02*
Y58542D01*
X-206500Y14476D02*
Y55728D01*
X-202500Y12266D02*
Y54071D01*
X-234878Y-37500D02*
X-219938Y-22560D01*
X101424Y54230D02*
X113444D01*
X89482Y45230D02*
X101424D01*
X127951Y-62000D02*
X130678D01*
X118356Y-71595D02*
X127951Y-62000D01*
X166678Y-10000D02*
Y1860D01*
X29946Y-40535D02*
X29964Y-40517D01*
X29946Y-59517D02*
Y-40535D01*
X18892Y-1367D02*
Y5974D01*
X15763Y13662D02*
X33551D01*
X14030Y11928D02*
X15763Y13662D01*
X28024Y1418D02*
X33551D01*
X23442Y6000D02*
X28024Y1418D01*
X18917Y6000D02*
X23442D01*
X26500Y24204D02*
X32114D01*
X33403Y25493D01*
X-246450Y-87500D02*
X-229863D01*
X-246450Y-82500D02*
X-234750D01*
X-246450Y-47500D02*
X-232436D01*
X-202500Y54071D02*
X-193521Y63050D01*
X-143316D01*
X-138659Y58394D01*
Y44118D02*
Y58394D01*
X-246450Y-42500D02*
X-233092D01*
X-127606Y44118D02*
Y58524D01*
X-206500Y55728D02*
X-195178Y67050D01*
X-136132D01*
X-127606Y58524D01*
X-116646Y44118D02*
Y62626D01*
X-246340Y-57610D02*
X-226037D01*
X-210500Y57385D02*
X-196835Y71050D01*
X-125070D01*
X-116646Y62626D01*
X-215000Y58542D02*
X-198492Y75050D01*
X-94590Y44118D02*
Y64147D01*
X-246450Y-52500D02*
X-231578D01*
X-198492Y75050D02*
X-105492D01*
X-94590Y64147D01*
X-44520Y-102225D02*
X-38626Y-108119D01*
X-44520Y-102225D02*
Y-85550D01*
X-38626Y-108119D02*
X9307D01*
X-201805Y83050D02*
X-89102D01*
X-200148Y79050D02*
X-90759D01*
X-72656Y44118D02*
Y60947D01*
X-90759Y79050D02*
X-72656Y60947D01*
X-61606Y44118D02*
Y55554D01*
X-89102Y83050D02*
X-61606Y55554D01*
X-246450Y-32500D02*
X-235534D01*
X-246450Y-37500D02*
X-234878D01*
X-280950Y112500D02*
X-264363D01*
X-280003Y117500D02*
X-269250D01*
X-268950D01*
X-280950Y97500D02*
X-264363D01*
X-280003Y102500D02*
X-269250D01*
X-268950D01*
X-280950Y82500D02*
X-264363D01*
X-280003Y87500D02*
X-269250D01*
X-268950D01*
X142678Y-75676D02*
Y-70000D01*
X146678Y-77333D02*
Y-70000D01*
X182678D02*
X188178D01*
X110535Y-54000D02*
X130678D01*
X78736Y-64612D02*
X99923D01*
X110535Y-54000D01*
X105312Y-53566D02*
X108878Y-50000D01*
X95049Y-53566D02*
X105312D01*
X63736Y-52112D02*
Y-42611D01*
Y-52112D02*
X65191Y-53566D01*
X95049D01*
X190678Y-26000D02*
X199699D01*
X201640Y-24059D01*
X-269250Y72500D02*
X-268950D01*
X-280003D02*
X-269250D01*
X230547Y-37546D02*
X246450D01*
X230479Y-37500D02*
X246450D01*
X238500Y-12500D02*
X246450D01*
X182678Y-7322D02*
X186000Y-4000D01*
X182678Y-10000D02*
Y-7322D01*
X174678Y-2168D02*
X181846Y5000D01*
X187979D01*
X170678Y203D02*
X180475Y10000D01*
X178678Y-10000D02*
Y-5223D01*
X170678Y-10000D02*
Y203D01*
X174678Y-10000D02*
Y-2168D01*
X289500Y-62500D02*
X294000Y-67000D01*
X280950Y-62500D02*
X289500D01*
X-280950Y42500D02*
X-269250D01*
X-280950Y37500D02*
X-264363D01*
X-280950Y67500D02*
X-264363D01*
X-280950Y-92500D02*
Y-87500D01*
Y-82500D01*
Y-122500D02*
Y-117500D01*
X280950Y-42500D02*
X280950Y-42500D01*
X132681Y-18000D02*
X132781Y-17900D01*
X130678Y-18000D02*
X132681D01*
X280950Y-57500D02*
X292000D01*
X280950Y-77500D02*
X292000D01*
X280950Y7500D02*
X292000D01*
X-280950Y-27500D02*
Y-22500D01*
Y-37500D02*
Y-32500D01*
Y57500D02*
X-269250D01*
X-280950Y52500D02*
X-264363D01*
X-246450Y-87500D02*
X-245950Y-87000D01*
X-280950Y-87500D02*
X-270806D01*
X-246523Y-122573D02*
X-246450Y-122500D01*
X-280950Y-2500D02*
Y2500D01*
X190678Y-18000D02*
X190778Y-17900D01*
X280950Y-42500D02*
X291900D01*
X270000Y-82500D02*
X280950D01*
X280950Y-82500D01*
X190678Y-22000D02*
X197335D01*
X190778Y-17900D02*
X195110D01*
X195119Y-17891D01*
Y-17844D01*
X280950Y67500D02*
X292000D01*
X170678Y-81188D02*
Y-70000D01*
X108878Y-50000D02*
X130678D01*
X47343Y-100343D02*
X118010D01*
X75000Y123000D02*
X78500Y126500D01*
X84000D01*
X75000Y102557D02*
Y123000D01*
X84000Y135500D02*
X96500D01*
X108230Y147230D01*
Y161230D01*
X-31820Y-94820D02*
Y-83550D01*
X31680Y-94680D02*
Y-83550D01*
X149000Y-83000D02*
X150678Y-81322D01*
Y-70000D01*
X150000Y-89000D02*
X154678Y-84322D01*
X201544Y115044D02*
Y130412D01*
X-18750Y-131000D02*
X-7750Y-120000D01*
X23000D01*
X-6250Y-131000D02*
X-250Y-125000D01*
X22000D01*
X-61500Y-69000D02*
X-36820D01*
X-31820Y-74000D01*
Y-83550D02*
Y-74000D01*
X-143000Y-67000D02*
X-117500D01*
X-280950Y2500D02*
Y7500D01*
X186000Y-4000D02*
X191000D01*
X196000Y-9000D01*
X202000D01*
X207000Y-4000D01*
X212000D01*
X217000Y-9000D01*
X235000D01*
X238500Y-12500D01*
X246450Y-42500D02*
X250000D01*
X-143000Y-57500D02*
X-126500D01*
X-119000Y-50000D01*
X-58000D01*
X-50000Y-58000D01*
X-136750Y-126717D02*
X-111717D01*
X-110000Y-95502D02*
X-101498Y-87000D01*
X-89000D01*
X-110000Y-127000D02*
Y-95502D01*
X-111717Y-126717D02*
X-111000Y-126000D01*
X-246450Y-62500D02*
X-227500D01*
X-246450Y-67500D02*
X-228157D01*
X-216343Y-149000D02*
X-201000Y-133657D01*
Y-89000D01*
X-227500Y-62500D02*
X-201000Y-89000D01*
X-215500Y-142500D02*
X-205000Y-132000D01*
Y-90657D01*
X-228157Y-67500D02*
X-205000Y-90657D01*
X-280950Y-117500D02*
X-270400D01*
X166678Y1860D02*
X168000Y3182D01*
X197335Y-22000D02*
X200335Y-19000D01*
X219000D01*
X232500Y-32500D01*
X152657Y-93000D02*
X158678Y-86979D01*
X24000Y-104888D02*
X119122D01*
X146678Y-77333D01*
X145000Y-89000D02*
X150000D01*
X146657Y-93000D02*
X152657D01*
X10964Y-104119D02*
X17845Y-111000D01*
X123000D01*
X145000Y-89000D01*
X16188Y-115000D02*
X124657D01*
X9307Y-108119D02*
X16188Y-115000D01*
X124657D02*
X146657Y-93000D01*
X-290000Y190000D02*
G03*
X-300000Y180000I0J-10000D01*
G01*
Y-180000D02*
G03*
X-290000Y-190000I10000J0D01*
G01*
X299941Y180000D02*
G03*
X289941Y190000I-10000J0D01*
G01*
Y-190000D02*
G03*
X299941Y-180000I0J10000D01*
G01*
X-290000Y190000D02*
X289941Y190000D01*
X-290000Y-190000D02*
X289941Y-190000D01*
X-300000Y-180000D02*
Y180000D01*
X300000Y-180000D02*
Y180000D01*
X289941Y-190000D02*
G03*
X299941Y-180000I0J10000D01*
G01*
Y180000D02*
G03*
X289941Y190000I-10000J0D01*
G01*
X-300000Y-180000D02*
G03*
X-290000Y-190000I10000J0D01*
G01*
Y190000D02*
G03*
X-300000Y180000I0J-10000D01*
G01*
X300000Y-180000D02*
Y180000D01*
X-300000Y-180000D02*
Y180000D01*
X-290000Y-190000D02*
X289941Y-190000D01*
X-290000Y190000D02*
X289941Y190000D01*
D39*
X216000Y-87000D02*
X221110Y-81890D01*
X216000Y-99000D02*
Y-87000D01*
X206730Y-108270D02*
X216000Y-99000D01*
X220000Y-87625D02*
X224380Y-83244D01*
X220000Y-100000D02*
Y-87625D01*
X210000Y-110000D02*
X220000Y-100000D01*
X206730Y-135270D02*
Y-108270D01*
X210000Y-136624D02*
Y-110000D01*
X213270Y-111730D02*
X229135Y-95865D01*
X213270Y-137979D02*
Y-111730D01*
X216540Y-113084D02*
X233000Y-96624D01*
X216540Y-141540D02*
Y-113084D01*
X229135Y-95865D02*
Y-65241D01*
X233000Y-96624D02*
Y-66000D01*
X158703Y-147217D02*
Y-141183D01*
X146440Y-147310D02*
Y-141440D01*
X134233Y-147103D02*
Y-141183D01*
X221250Y-159000D02*
Y-146250D01*
X158610Y-147310D02*
X158703Y-147217D01*
X221250Y-171000D02*
Y-159000D01*
X208750D02*
Y-142499D01*
X134233Y-147103D02*
X134440Y-147310D01*
X208750Y-171000D02*
Y-159000D01*
X196250D02*
Y-150374D01*
Y-171000D02*
Y-159000D01*
X183750Y-171000D02*
Y-158250D01*
X208750Y-142499D02*
X213270Y-137979D01*
X196250Y-150374D02*
X210000Y-136624D01*
X183750Y-158250D02*
X206730Y-135270D01*
X216540Y-141540D02*
X221250Y-146250D01*
X258500Y-87500D02*
X262000Y-91000D01*
X246450Y-87500D02*
X258500D01*
X233000Y-66000D02*
X236500Y-62500D01*
X229135Y-65241D02*
X236876Y-57500D01*
X236500Y-62500D02*
X246450D01*
X224380Y-83244D02*
Y-65371D01*
X221110Y-81890D02*
Y-64017D01*
X224380Y-65371D02*
X237251Y-52500D01*
X221110Y-64017D02*
X237627Y-47500D01*
X246450D01*
X237251Y-52500D02*
X246450D01*
X236876Y-57500D02*
X246450D01*
X178678Y-85993D02*
Y-70000D01*
X174813Y-85234D02*
Y-70135D01*
X174678Y-70000D02*
X174813Y-70135D01*
X166543Y-88879D02*
Y-70135D01*
X162678Y-88120D02*
Y-70000D01*
X166543Y-70135D02*
X166678Y-70000D01*
X81000Y-137500D02*
X96500Y-122000D01*
X128798D01*
X162678Y-88120D01*
X105000Y-137500D02*
X113500Y-129000D01*
X131046D01*
X174813Y-85234D01*
X129692Y-125730D02*
X166543Y-88879D01*
X104770Y-125730D02*
X129692D01*
X93000Y-137500D02*
X104770Y-125730D01*
X117000Y-137500D02*
X122230Y-132270D01*
X132401D01*
X178678Y-85993D01*
D40*
X-169000Y-57500D02*
Y-43500D01*
X6172Y26490D02*
Y45306D01*
X-23000Y109620D02*
Y126000D01*
X-20000Y129000D01*
Y168000D01*
X-169000Y-57500D02*
X-159500D01*
D41*
X160678Y-11000D02*
Y-1866D01*
D42*
X246450Y-82500D02*
X257000D01*
X268000Y-122500D02*
X280950D01*
X246450Y-67500D02*
X258000D01*
Y-54000D01*
X256346Y-52346D02*
X258000Y-54000D01*
X256346Y-52346D02*
Y-42500D01*
X250000D02*
X256346D01*
X246450Y-92500D02*
X255500D01*
X268000Y-105000D01*
Y-110000D02*
Y-105000D01*
X280950Y-87500D02*
X293500D01*
X280950Y-22500D02*
X290500D01*
X294000Y-19000D01*
X-291500Y122500D02*
X-280950D01*
X-291500Y107500D02*
X-280950D01*
X-291500Y92500D02*
X-280950D01*
X-291500Y77500D02*
X-280950D01*
X-291500Y62500D02*
X-280950D01*
X-291500Y47500D02*
X-280950D01*
X-291500Y32500D02*
X-280950D01*
X-291500Y12500D02*
X-280950D01*
X-291500Y-12500D02*
X-280950D01*
Y-17500D02*
X-270400D01*
X-291500Y-42500D02*
X-280950D01*
X-291500Y-77500D02*
X-280950D01*
X-291500Y-102500D02*
X-280950D01*
Y-107500D02*
X-270400D01*
X-246523Y-133123D02*
Y-122573D01*
X-246450Y47500D02*
X-235900D01*
X-246450Y62500D02*
X-235900D01*
X-246450Y77500D02*
X-235900D01*
X-246450Y92500D02*
X-235900D01*
X-257000Y122500D02*
X-246450D01*
X-257000Y107500D02*
X-246450D01*
X17000Y-17000D02*
X18892Y-15108D01*
Y-10367D01*
X44568Y-25812D02*
X58811D01*
X44568Y-40517D02*
X50720D01*
X80691Y-44566D02*
X95049D01*
X102566D01*
X104000Y-46000D01*
X100000Y-179974D02*
Y-171000D01*
X84500Y-81500D02*
X118356D01*
X95130Y-79000D02*
Y-73621D01*
D43*
X186500Y53000D02*
D03*
D44*
X28993Y-154584D02*
X29000D01*
X2493Y-143984D02*
X2500D01*
X27493D02*
X27500D01*
X53993Y-154584D02*
X54000D01*
D45*
X204300Y170000D02*
D03*
D46*
X229700D02*
D03*
D47*
X273000Y-163000D02*
D03*
X-273000D02*
D03*
X273000Y163000D02*
D03*
X-273000D02*
D03*
D48*
X-276200Y132000D02*
D03*
Y-132000D02*
D03*
X284000Y151000D02*
D03*
X289000Y163000D02*
D03*
X261000Y174000D02*
D03*
X273000Y147000D02*
D03*
X284000Y174000D02*
D03*
X257000Y163000D02*
D03*
X261000Y152000D02*
D03*
X273000Y179000D02*
D03*
X284000Y-175000D02*
D03*
X289000Y-163000D02*
D03*
X261000Y-152000D02*
D03*
X273000Y-179000D02*
D03*
X284000Y-152000D02*
D03*
X257000Y-163000D02*
D03*
X261000Y-174000D02*
D03*
X273000Y-147000D02*
D03*
X-262000Y-175000D02*
D03*
X-257000Y-163000D02*
D03*
X-285000Y-152000D02*
D03*
X-273000Y-179000D02*
D03*
X-262000Y-152000D02*
D03*
X-289000Y-163000D02*
D03*
X-285000Y-174000D02*
D03*
X-273000Y-147000D02*
D03*
X-262000Y151000D02*
D03*
X-257000Y163000D02*
D03*
X-285000Y174000D02*
D03*
X-273000Y147000D02*
D03*
X-262000Y174000D02*
D03*
X-289000Y163000D02*
D03*
X-285000Y152000D02*
D03*
X-273000Y179000D02*
D03*
X-10000Y129000D02*
D03*
X171250Y-181750D02*
D03*
X158703Y-141183D02*
D03*
X221250Y-159000D02*
D03*
X134233Y-141183D02*
D03*
X208750Y-159000D02*
D03*
X146440Y-141183D02*
D03*
X196250Y-159000D02*
D03*
X259000Y-126000D02*
D03*
X201250Y-126587D02*
D03*
X188750D02*
D03*
X63000Y-132000D02*
D03*
X124750Y-155250D02*
D03*
X83663Y-167002D02*
D03*
X112000Y-167000D02*
D03*
X135000Y-180000D02*
D03*
X-185198Y-78802D02*
D03*
X-185000Y-72000D02*
D03*
X-215000Y-97500D02*
D03*
X231000Y115000D02*
D03*
X55656Y147156D02*
D03*
X262000Y-91000D02*
D03*
X-159500Y-57500D02*
D03*
X-134000Y-99000D02*
D03*
X115000Y30000D02*
D03*
X-50000Y-58000D02*
D03*
X-89000Y-87000D02*
D03*
X-201101Y-73500D02*
D03*
X-210000Y-50000D02*
D03*
X-168000Y47500D02*
D03*
X154620Y-118000D02*
D03*
X-197000Y124000D02*
D03*
X-54000Y97000D02*
D03*
X165000Y140500D02*
D03*
X-61477Y97000D02*
D03*
X130000Y112000D02*
D03*
X125000Y120000D02*
D03*
X154000Y156000D02*
D03*
X225000Y-93000D02*
D03*
X45000Y105000D02*
D03*
X40000Y100000D02*
D03*
X-226140Y-105342D02*
D03*
X240000Y-150000D02*
D03*
X260500Y-28000D02*
D03*
X259500Y-12500D02*
D03*
X187000Y56569D02*
D03*
X90000Y62000D02*
D03*
X125730Y61730D02*
D03*
X236000Y-17500D02*
D03*
X195000Y5000D02*
D03*
X207000Y-29000D02*
D03*
X292000Y-27500D02*
D03*
X214828Y-70172D02*
D03*
X213000Y5000D02*
D03*
X169500Y-116000D02*
D03*
X-18750Y-131000D02*
D03*
X-44380Y-161000D02*
D03*
X-19000D02*
D03*
X-6250Y-131000D02*
D03*
X-120000Y-178000D02*
D03*
X-159000Y-143000D02*
D03*
X-219500Y-172500D02*
D03*
X184500Y-104500D02*
D03*
X108230Y161230D02*
D03*
X31500Y161500D02*
D03*
X5000Y178500D02*
D03*
X-51000Y168000D02*
D03*
X-40000D02*
D03*
X-30000D02*
D03*
X-20000D02*
D03*
X-51000Y177000D02*
D03*
X-40000D02*
D03*
X-30000D02*
D03*
X-20000D02*
D03*
X233000Y66000D02*
D03*
X258000Y-112500D02*
D03*
X215500Y-77500D02*
D03*
X206000Y-95000D02*
D03*
X148000Y0D02*
D03*
X-229000Y39000D02*
D03*
X-184000Y29704D02*
D03*
X-210000Y-7000D02*
D03*
X-215000Y-19000D02*
D03*
X-219938Y27000D02*
D03*
X-224448Y33000D02*
D03*
X160632Y-1866D02*
D03*
X29964Y-40517D02*
D03*
X-11206Y60198D02*
D03*
Y41793D02*
D03*
X29946Y-59517D02*
D03*
X35695Y-18000D02*
D03*
X18917Y6000D02*
D03*
X14030Y11928D02*
D03*
X-229863Y-87500D02*
D03*
X-234750Y-82500D02*
D03*
X26500Y24204D02*
D03*
X-226037Y-57610D02*
D03*
X-215000Y13000D02*
D03*
X-231578Y-52500D02*
D03*
X-215000Y21000D02*
D03*
X-162000Y-29000D02*
D03*
X6000Y33577D02*
D03*
X-6000Y33302D02*
D03*
X-12064Y18523D02*
D03*
X-18000Y12000D02*
D03*
X-264363Y112500D02*
D03*
X-269250Y117500D02*
D03*
X-264363Y97500D02*
D03*
X-269250Y102500D02*
D03*
X-264363Y82500D02*
D03*
X-269250Y87500D02*
D03*
X188178Y-70000D02*
D03*
X133178Y-72250D02*
D03*
X149000Y-83000D02*
D03*
X-18000Y-15000D02*
D03*
X-13389Y-9529D02*
D03*
X236000Y-27500D02*
D03*
X222000Y-36000D02*
D03*
X217000Y-52000D02*
D03*
X269000Y-44000D02*
D03*
X265000Y-37500D02*
D03*
X187979Y5000D02*
D03*
X213000Y-34000D02*
D03*
X211500Y-60500D02*
D03*
X209000Y-51000D02*
D03*
X262000Y-47000D02*
D03*
X294000Y-67000D02*
D03*
X0Y-15000D02*
D03*
X-6000Y-32500D02*
D03*
X-34000Y-6000D02*
D03*
X-269250Y72500D02*
D03*
X292000Y-57500D02*
D03*
X270000Y-82500D02*
D03*
X292000Y-77500D02*
D03*
Y-42500D02*
D03*
X119755Y-59000D02*
D03*
X292000Y7500D02*
D03*
X-269250Y42500D02*
D03*
X-264363Y37500D02*
D03*
X-269250Y57500D02*
D03*
X-264363Y52500D02*
D03*
X-270400Y-117500D02*
D03*
Y-87500D02*
D03*
X160632Y-24368D02*
D03*
X176000Y-24000D02*
D03*
X104000Y-46000D02*
D03*
X170678Y-57106D02*
D03*
X257000Y4270D02*
D03*
X225000Y95000D02*
D03*
X258000Y-67500D02*
D03*
X268000Y-110000D02*
D03*
Y-122500D02*
D03*
X294000Y-19000D02*
D03*
X212000Y149000D02*
D03*
X12000Y-50000D02*
D03*
X84500Y-81500D02*
D03*
X211000Y64000D02*
D03*
X293500Y-87500D02*
D03*
X23461Y-50017D02*
D03*
X-265000Y-70000D02*
D03*
Y-44000D02*
D03*
X-232888Y26524D02*
D03*
X-78000Y-140000D02*
D03*
X15811Y74367D02*
D03*
X-14000Y6000D02*
D03*
X-244000Y-147000D02*
D03*
X-125000Y14000D02*
D03*
X-170000Y117000D02*
D03*
X236000Y56000D02*
D03*
X-21000Y74000D02*
D03*
X-223000Y-182000D02*
D03*
X62842Y138730D02*
D03*
X141000Y180000D02*
D03*
X72000Y154000D02*
D03*
X263000Y0D02*
D03*
X293000Y-35000D02*
D03*
X220979Y-28000D02*
D03*
X224000Y-17500D02*
D03*
X236270Y45842D02*
D03*
X257000Y-5000D02*
D03*
X231200Y15298D02*
D03*
X224354D02*
D03*
Y22800D02*
D03*
X231200D02*
D03*
X206000Y500D02*
D03*
X201640Y-24059D02*
D03*
X225000Y-121000D02*
D03*
X71000Y-147000D02*
D03*
X1425Y8846D02*
D03*
X170678Y-81188D02*
D03*
X-40000Y-125000D02*
D03*
X-234556Y-92575D02*
D03*
X81730Y178230D02*
D03*
X236270Y35842D02*
D03*
X-120000Y-171000D02*
D03*
X292000Y67500D02*
D03*
X0Y109620D02*
D03*
X150678Y-57106D02*
D03*
X182000Y115000D02*
D03*
X-79000Y-68000D02*
D03*
X-69000Y-148000D02*
D03*
X-10000Y137112D02*
D03*
X51851Y-65297D02*
D03*
X-265000Y24000D02*
D03*
X-234000Y-5000D02*
D03*
X-198500Y-142500D02*
D03*
X-37765Y-12000D02*
D03*
X-264363Y67500D02*
D03*
X83000Y-95000D02*
D03*
X75000Y123000D02*
D03*
X132000Y145000D02*
D03*
X-31820Y-94820D02*
D03*
X31680Y-94680D02*
D03*
X179500Y-95500D02*
D03*
X-268000Y139998D02*
D03*
X-291500Y122500D02*
D03*
X-203000Y142000D02*
D03*
X-213000Y184000D02*
D03*
X22000Y164230D02*
D03*
X-4000Y152000D02*
D03*
X98730Y164230D02*
D03*
X65000Y180000D02*
D03*
X170000D02*
D03*
X228730Y137842D02*
D03*
X252000Y130000D02*
D03*
X165592Y94773D02*
D03*
X98000Y121000D02*
D03*
X147377Y67195D02*
D03*
X203000Y39000D02*
D03*
X258000Y-183000D02*
D03*
X135000Y-170000D02*
D03*
X-1000Y-179000D02*
D03*
X-142359Y-83431D02*
D03*
X-108000Y-60000D02*
D03*
X-146000Y-1000D02*
D03*
X-162000Y3000D02*
D03*
X-152000Y-18000D02*
D03*
X-50471Y-2529D02*
D03*
X180500Y-54500D02*
D03*
X13270Y97158D02*
D03*
X42551Y55000D02*
D03*
X169500Y-105000D02*
D03*
X230000Y41000D02*
D03*
Y51000D02*
D03*
X228000Y75000D02*
D03*
X182000Y85000D02*
D03*
X257000Y-82500D02*
D03*
X222000Y-136000D02*
D03*
X-36555Y63160D02*
D03*
X-57000Y133000D02*
D03*
X-46000Y122000D02*
D03*
X-34000Y129000D02*
D03*
X-163270Y117000D02*
D03*
X-156270D02*
D03*
X-291500Y107500D02*
D03*
Y92500D02*
D03*
Y77500D02*
D03*
Y62500D02*
D03*
Y47500D02*
D03*
Y32500D02*
D03*
Y12500D02*
D03*
Y-12500D02*
D03*
X-270400Y-17500D02*
D03*
X-291500Y-42500D02*
D03*
Y-77500D02*
D03*
Y-102500D02*
D03*
X-270400Y-107500D02*
D03*
X-246523Y-133123D02*
D03*
X-235900Y47500D02*
D03*
Y62500D02*
D03*
Y77500D02*
D03*
Y92500D02*
D03*
X-257000Y122500D02*
D03*
Y107500D02*
D03*
X-33000Y-118000D02*
D03*
X-47000D02*
D03*
X-40000D02*
D03*
X-47000Y-125000D02*
D03*
X-33000D02*
D03*
X-26000D02*
D03*
Y-118000D02*
D03*
X27422Y48422D02*
D03*
X27343Y67657D02*
D03*
X17000Y-17000D02*
D03*
X55933Y-18067D02*
D03*
X58811Y-25812D02*
D03*
X-16000Y-62000D02*
D03*
X50720Y-40517D02*
D03*
X78736Y-31263D02*
D03*
X-25000Y-33000D02*
D03*
X-93000Y26000D02*
D03*
X-194442Y-93174D02*
D03*
X-42079Y0D02*
D03*
X-149000Y117000D02*
D03*
X-220676Y92500D02*
D03*
X-26500Y25500D02*
D03*
X-27000Y33000D02*
D03*
X188000Y28000D02*
D03*
X213000D02*
D03*
X100000Y-171000D02*
D03*
X2695Y83D02*
D03*
X183313Y-86000D02*
D03*
X157000Y62000D02*
D03*
X57877Y9123D02*
D03*
X268040Y47700D02*
D03*
X187000Y49431D02*
D03*
D49*
X100000Y-1000D02*
D03*
X-100000D02*
D03*
M02*
