M48
;Layer_Color=9474304
;FILE_FORMAT=4:4
METRIC,LZ
;TYPE=PLATED
T1F00S00C0.2500
T2F00S00C0.6000
T3F00S00C1.0000
T4F00S00C2.2000
;TYPE=NON_PLATED
T5F00S00C0.8000
%
T01
X-00285Y-00174
X-00289Y-00163
X-00285Y-00152
X-00273Y-00147
X-00262Y-00152
X-00257Y-00163
X-00262Y-00175
X-00273Y-00179
X-00223Y-00182
X-002195Y-001725
X-00244Y-00147
X-00246523Y-00133123
X-002704Y-001175
Y-001075
Y-000875
X-00265Y-0007
Y-00044
X-002915Y-000425
Y-000125
Y000125
X-00265Y00024
X-00232888Y00026524
X-00219938Y00027
X-00215Y00021
X-00215Y00013
Y-00019
X-00234Y-00005
X-002704Y-000175
X-00231578Y-000525
X-00226037Y-0005761
X-0023475Y-000825
X-00229863Y-000875
X-00234556Y-00092575
X-0022614Y-00105342
X-00215Y-000975
X-002915Y-001025
Y-000775
X-00201101Y-000735
X-00185Y-00072
X-00185198Y-00078802
X-00194442Y-00093174
X-001985Y-001425
X-00159Y-00143
X-0012Y-00171
Y-00178
X-00078Y-0014
X-00069Y-00148
X-0004438Y-00161
X-00019
X-0001875Y-00131
X-0000625
X-00026Y-00125
X-00033
X-0004
Y-00118
X-00033
X-00026
X-00047
Y-00125
X-0003182Y-0009482
X-00016Y-00062
X-0005Y-00058
X-00079Y-00068
X-00089Y-00087
X-00108Y-0006
X-001595Y-000575
X-00162Y-00029
X-00152Y-00018
X-00146Y-00001
X-00162Y00003
X-00125Y00014
X-00093Y00026
X-000265Y000255
X-00012064Y00018523
X-00018Y00012
X-00014Y00006
X-00013389Y-00009529
X-00018Y-00015
X0
X00002695Y00000083
X00001425Y00008846
X0001403Y00011928
X00018917Y00006
X00017Y-00017
X00035695Y-00018
X00055933Y-00018067
X00058811Y-00025812
X0005072Y-00040517
X00029964
X00023461Y-00050017
X00012Y-0005
X00029946Y-00059517
X00051851Y-00065297
X000845Y-000815
X00083Y-00095
X0003168Y-0009468
X00063Y-00132
X00071Y-00147
X00083663Y-00167002
X001Y-00171
X00112Y-00167
X0012475Y-0015525
X00134233Y-00141183
X0014644
X00158703
X0015462Y-00118
X001695Y-00116
Y-00105
X001845Y-001045
X001795Y-000955
X00183313Y-00086
X00170678Y-00081188
X00149Y-00083
X00133178Y-0007225
X00119755Y-00059
X00104Y-00046
X00078736Y-00031263
X00057877Y00009123
X000265Y00024204
X-00006Y-000325
X-00025Y-00033
X-00037765Y-00012
X-00034Y-00006
X-00042079Y0
X-00050471Y-00002529
X-0021Y-00007
Y-0005
X-00142359Y-00083431
X-00134Y-00099
X-00001Y-00179
X00135Y-0018
Y-0017
X0017125Y-0018175
X00170678Y-00057106
X001805Y-000545
X00150678Y-00057106
X00160632Y-00024368
X00176Y-00024
X00160632Y-00001866
X00148Y0
X00187979Y00005
X00195
X00206Y000005
X00213Y00005
X00224354Y00015298
X002312
Y000228
X00224354
X00213Y00028
X00188
X0020164Y-00024059
X00207Y-00029
X00213Y-00034
X00222Y-00036
X00220979Y-00028
X00224Y-000175
X00236
Y-000275
X002605Y-00028
X00265Y-000375
X00269Y-00044
X00262Y-00047
X00258Y-000675
X00257Y-000825
X0027Y-000825
X00262Y-00091
X00268Y-0011
Y-001225
X00259Y-00126
X00258Y-001125
X00225Y-00121
X00222Y-00136
X0022125Y-00159
X0020875
X0019625
X0020125Y-00126587
X0018875
X00206Y-00095
X00225Y-00093
X002155Y-000775
X00214828Y-00070172
X002115Y-000605
X00209Y-00051
X00217Y-00052
X00188178Y-0007
X00294Y-00067
X00292Y-000575
Y-000425
X00293Y-00035
X00292Y-000275
X00294Y-00019
X00292Y000075
X00263Y0
X00257Y0000427
Y-00005
X002595Y-000125
X00292Y-000775
X002935Y-000875
X00284Y-00152
X00289Y-00163
X00284Y-00175
X00273Y-00179
X00261Y-00174
X00258Y-00183
X00257Y-00163
X00261Y-00152
X00273Y-00147
X0024Y-0015
X0023627Y00035842
Y00045842
X00236Y00056
X0023Y00051
Y00041
X00233Y00066
X00228Y00075
X00225Y00095
X00231Y00115
X0022873Y00137842
X00212Y00149
X00261Y00152
X00257Y00163
X00261Y00174
X00273Y00179
X00284Y00174
X00289Y00163
X00284Y00151
X00273Y00147
X00252Y0013
X0026804Y000477
X00292Y000675
X00211Y00064
X00187Y00056569
Y00049431
X00203Y00039
X00182Y00085
X00165592Y00094773
X00182Y00115
X00165Y001405
X00154Y00156
X00132Y00145
X00125Y0012
X0013Y00112
X00098Y00121
X00075Y00123
X00062842Y0013873
X00055656Y00147156
X00072Y00154
X00065Y0018
X0008173Y0017823
X0009873Y0016423
X0010823Y0016123
X00141Y0018
X0017
X00157Y00062
X00147377Y00067195
X0012573Y0006173
X0009Y00062
X00042551Y00055
X00027422Y00048422
X00027343Y00067657
X00015811Y00074367
X0001327Y00097158
X0Y0010962
X-0001Y00129
Y00137112
X-00004Y00152
X-0002Y00168
Y00177
X-0003
Y00168
X-0004
Y00177
X-00051
Y00168
X-00057Y00133
X-00046Y00122
X-00034Y00129
X-00054Y00097
X-00061477
X-00036555Y0006316
X-00021Y00074
X-00011206Y00060198
Y00041793
X-00006Y00033302
X00006Y00033577
X-00027Y00033
X0004Y001
X00045Y00105
X000315Y001615
X00022Y0016423
X00005Y001785
X-00149Y00117
X-0015627
X-0016327
X-0017
X-00197Y00124
X-00203Y00142
X-00168Y000475
X-00184Y00029704
X00115Y0003
X-00224448Y00033
X-00229Y00039
X-002359Y000475
Y000625
Y000775
Y000925
X-00220676
X-00264363Y000975
X-0026925Y001025
X-00264363Y001125
X-0026925Y001175
X-00257Y001225
Y001075
X-0026925Y000875
X-00264363Y000825
X-0026925Y000725
X-00264363Y000675
X-0026925Y000575
X-00264363Y000525
X-0026925Y000425
X-00264363Y000375
X-002915Y000325
Y000475
Y000625
Y000775
Y000925
Y001075
Y001225
X-00285Y00152
X-00289Y00163
X-00285Y00174
X-00273Y00179
X-00262Y00174
X-00257Y00163
X-00262Y00151
X-00273Y00147
X-00268Y00139998
X-00213Y00184
T02
X-002762Y-00132
X002762
Y00132
X-002762
T03
X002043Y0017
X002297
X-00066676Y00149208
X-00146563Y00149244
T04
X-00273Y-00163
X-001Y-00001
X001
X00273Y-00163
Y00163
X-00273
T05
X002683Y000722
Y000944
M30
