M48
;Layer_Color=9474304
;FILE_FORMAT=4:4
METRIC,LZ
;TYPE=PLATED
T1F00S00C0.2500
T2F00S00C0.6000
T3F00S00C1.0000
T4F00S00C2.2000
%
T01
X-00285Y-00174
X-00289Y-00163
X-00285Y-00152
X-00273Y-00147
X-00262Y-00152
X-00251Y-00148
X-002457Y-00133049
X-00257Y-00163
X-00262Y-00175
X-00273Y-00179
X-002235Y-001815
X-0022Y-001725
Y-000975
X-00234Y-00092575
X-00229863Y-000875
X-00234Y-000825
X-00229Y-0005761
X-00234Y-000525
X-00264Y-0007
X-00293307Y-000775
Y-000875
Y-001025
Y-001175
X-002695Y-001075
X-00293307Y-000425
Y-000125
Y000125
X-002695Y-000175
X-00198Y-00041
X-00206Y-0005
X-00202Y-0008
X-0018725Y-0008675
X-00198955Y-00101
X-001985Y-001425
X-00159Y-00143
X-00137Y-00102
X-00142359Y-00083431
X-00178648Y-000575
X-00136Y-00008
X-00138Y00017
Y00024
X-00082
X-00045Y0002
X-00055Y0001
X-00055Y-0001
X-00066674Y-0002
X-00076Y-00022
X-00035Y-0003
X-00035Y-0004
X-00035Y-0005
X-00025
Y-0006
X-00035
X-00046Y-0006
X-00015Y-0006
Y-0005
X-00015Y-0004
X-00005
X-00015Y-0003
X-0001Y-00015
X-00011431Y0
X-00015Y0001
X-00025
Y0
Y-0001
Y0002
X-00015
X-00005Y0002
X00005
X00015
X00025
Y0001
X00015
Y0
Y-0001
X00025Y-0
Y-0002
X00015Y-0003
X00035
X00045
X00055
X00055Y-0002
X00045
Y-0001
Y0
Y0001
X00045Y0002
X00065Y0002
X00068569Y0001
X000805Y00007698
X000885Y00021
X00055Y0
X00055Y-0001
X00065Y-0002
X000925Y-00030072
X00109Y-00039
X0012Y-00029494
X00155Y-00035828
X00166632Y-00035862
X00176Y-00035494
X00181Y-0000734
X00160632Y-00013361
X00148Y-00003569
Y00008
X00150678Y-000686
X00170678
X001805Y-00065995
X00170678Y-00092683
X00149Y-00094494
X00133178Y-00083744
X0012Y-00072494
X00092Y-00083
X00092011Y-00093
X000755Y-000772
X00051851Y-00065297
X00045Y-0004
X00035Y-0004
X00025
Y-0005
X00035Y-0005
X00015023Y-00060023
X00006299Y-00063634
X00005Y-0002
X0003168Y-0009468
X0005Y-00125
X0006Y-0014
X00071Y-00147
X00083663Y-00167002
X00106Y-00178
X0012475Y-0017775
X00135Y-0018
Y-0015523
X0014127Y-0013973
X0015327Y-0013973
X0016527Y-0013973
X00164Y-0012
X00179Y-00121
X00133Y-0012
X00117
X00171Y-00166
X-00001Y-00179
X-00019Y-00161
X-0004438
X-00069Y-00148
X-00078Y-0014
X-00047Y-00125
Y-00118
X-0004
X-00033
X-00026
Y-00125
X-00033
X-0004
X-0001875Y-00131
X-0000625
X-00085Y-00093
X-00119Y-00181
X-00125Y-00176
X0019625Y-00166
X0020875
X0022125
X00223Y-00141
X00228Y-00128759
X0024Y-0015
X00261Y-00152
X00257Y-00163
X00261Y-00174
X00258Y-00183
X00273Y-00179
X00284Y-00175
X00289Y-00163
X00284Y-00152
X00273Y-00147
X00261Y-00133
X00263366Y-001175
X00257Y-001125
Y-000925
Y-000825
X00263366Y-000875
X00271Y-000825
Y-000625
X00257Y-000675
X002605Y-000455
X00265Y-00041069
Y-000325
X00271Y-000275
X002595Y-00022
Y-000125
X00258158Y-0000427
X00263Y00001
X0025773Y00005842
X002312Y00015298
X00224354
Y000228
X002312
X00213Y00028
X00188
X002Y-00003
X00197Y-00011
X00213Y00001431
X00232Y-000175
Y-000275
X00224Y-00026
X00224491Y-00037546
X00222Y-00047494
X00213Y-00045494
X00207Y-00040494
X0020164Y-00035554
X00209Y-00062494
X00217Y-00063494
X002115Y-00071994
X00214Y-00078
X00206Y-00080494
X00188178Y-00081495
X00201Y-00099
Y-00111
Y-00121
X0020125Y-0015458
X0018875Y-00154
X00229934Y-00089703
X00232Y-000425
X00295Y-000425
Y-000325
Y-000225
Y000075
Y-000575
Y-000775
Y-000875
Y-001225
X00264Y00036
X00231698Y00035046
X00226428Y00039888
X0023127Y00045158
X00226Y0005
X00230842Y0005527
X00225Y00068
X00204
X00189Y00078
X00193Y00053
Y00045
X00203Y00039
X00231Y00115
X00252Y0013
X00261Y00152
X00257Y00163
X00261Y00174
X00273Y00179
X00284Y00174
X00289Y00163
X00284Y00151
X00273Y00147
X00212Y00149
X00295Y000675
X00160632Y00066
Y00093368
X00176001Y00088501
X00182Y00115
X001695Y001405
X00161Y00157
X0017Y0018
X00141
X00132Y00145
X00117Y00144
X0010823Y00164799
X0009873Y0016423
X0008173Y0017823
X00065Y0018
X00072Y00154
X00065Y00146
X00055656Y00147156
X000315Y00164799
X00022Y0016423
X00005Y001785
X-0002Y00177
Y00168
X-0003
Y00177
X-0004
Y00168
X-00051
Y00177
X-00058831Y00137
X-00059Y00129
X-00034
X-00005Y00137
X-00004Y00152
X00007Y00102
Y00096
X-00002Y0007877
X-00010015
X-00009767Y00070706
X-00001702Y00070954
X00005Y0006
X-00015
X-00025
X-00038596Y00064404
X-00055Y00067
X-000345Y000815
X-00016Y00102
X0004Y001
X00047
X00043Y00072
X00045Y0006
X00035
Y0005
X00025Y0005
Y0004
X00035
X00045
Y0003
X00065
X000885Y00032802
Y000445
X00084Y0005927
Y0006727
X00076
Y0005927
X00055Y00065
X0002Y00068
X0002Y00076
X00015Y0004
Y0003
X00025
X00005Y0004
X-00005Y0003
X-00015
X-00025
X-00035Y0003
X-00025Y0004
X-00015Y0004
X-00084Y00031639
X-00112Y00069
X-00108Y00105
X-00096
X-0012
X-00132
X-00144
X-00156
X-0015627Y00117
X-0016327
X-0017
X-00199Y00109
X-00196Y00077186
X-00196001Y00069999
X-00185501Y00065499
X-00179999Y00070999
X-00170001Y00079999
X-00164499Y00084499
X-00154Y00086
X00083608Y00102449
X00098412Y00100412
X0013Y00112
X00125Y0012
X00144Y00088
X00124904Y0005677
X00117Y0004
X00148Y00037
X00073Y00122
X-00227Y00094
X-00234Y000775
X-00258Y000625
X-00264363Y000675
X-002695Y000725
Y000575
X-00264363Y000525
X-00258Y000475
X-00264363Y000375
X-002695Y000425
X-00293307Y000475
Y000325
Y000625
Y000775
Y000925
Y001075
Y001225
X-00258
Y001075
Y000925
X-00262Y00151
X-00273Y00147
X-00285Y00152
X-00289Y00163
X-00285Y00174
X-00273Y00179
X-00262Y00174
X-00257Y00163
X-00235Y00175642
T02
X-002762Y-00132
X002762
Y00132
X-002762
T03
X002043Y0017
X002297
X-00066676Y00149208
X-00146563Y00149244
T04
X-00273Y-00163
X-0011Y-00001
X0011Y-00001
X00273Y-00163
Y00163
X-00273
M30
