M48
;Layer_Color=9474304
;FILE_FORMAT=4:4
METRIC,LZ
;TYPE=PLATED
T1F00S00C0.2500
T2F00S00C0.6000
T3F00S00C1.0000
T4F00S00C2.2000
;TYPE=NON_PLATED
T5F00S00C0.8000
%
T01
X-00285Y-00174
X-00289Y-00163
X-00285Y-00152
X-00273Y-00147
X-00262Y-00152
X-00257Y-00163
X-00262Y-00175
X-00273Y-00179
X-00223Y-00182
X-002195Y-001725
X-00244Y-00147
X-00246523Y-00133123
X-002704Y-001175
Y-001075
Y-000875
X-002915Y-000775
Y-001025
Y-000425
Y-000125
Y000125
X-00261Y00027
X-002704Y-000175
X-00222Y-00024
X-00217Y-00030069
X-00215Y-00039
X-00234Y-000525
X-00229Y-0005761
X-0023475Y-000825
X-00229863Y-000875
X-00234556Y-00092575
X-0022614Y-00105342
X-00215Y-000975
X-00194442Y-00093174
X-00185198Y-00078802
X-00185Y-00072
X-00201101Y-000735
X-001595Y-000575
X-00164Y-00024
X-00152Y-00018
X-00146Y-00001
X-00162Y00003
X-00183
X-00207Y00018
X-00131268Y00007
X-00093Y00026
X-00054Y000035
X-00048013Y-000035
X-000435Y-000105
Y000105
X-000255Y000175
X-00015131Y00019131
X000035Y000185
X00012
X000255Y000105
X00021Y-00012
X000075Y-000035
X-00005Y-00016431
X-00021Y-00011
X-000255Y-000175
X-00027Y-000445
X-000175
X-000105Y-000425
X-000035Y-000445
X000035Y-000425
X000105Y-000445
X000175Y-000525
X000245Y-000425
X00043Y-0004
Y-000245
X000435Y-000105
X000665Y-00011
X00066Y00016
Y00028
X00078736Y-00031263
X001035Y-00046
X0012Y-00061
X00133178Y-0007225
X00149Y-00083
X00170678Y-00081188
X00183313Y-00086
X001795Y-000955
X001845Y-001045
X001695Y-00105
Y-00116
X0015462Y-00118
X00158993Y-00139643
X0014673
X00134523
X0012475Y-0015525
Y-0017775
X00135Y-0018
Y-0017
X001Y-00171
X00083663Y-00167002
X00071Y-00147
X0006Y-0014
X0005Y-00125
X0007
X00083Y-00095
X000845Y-000815
X00051851Y-00065297
X0003168Y-0009468
X-00002Y-00066
X-0000625Y-00131
X-0001875
X-00026Y-00125
Y-00118
X-00033
X-0004
X-00047
Y-00125
X-0004
X-00033
X-0004438Y-00161
X-00019
X-00001Y-00179
X-00069Y-00148
X-00078Y-0014
X-00089Y-00087
X-00079Y-00068
X-00108Y-0006
X-00142359Y-00083431
X-00134Y-00099
X-00159Y-00143
X-001985Y-001425
X-0012Y-00171
Y-00178
X00171Y-00164
X00170678Y-00057106
X001805Y-000545
X00150678Y-00057106
X00155Y-00024334
X00166632Y-00024368
X00176Y-00024
X00160632Y-00001866
X00148Y0
X00142Y00018322
X00188Y00028
X00187979Y00005
X00195
X00206Y000005
X00213Y00005
X00224354Y00015298
X002312
Y000228
X00224354
X00213Y00028
X00224Y-000175
X00236
Y-000275
X00220979Y-00028
X00222Y-00036
X00213Y-00034
X00207Y-00029
X0020164Y-00024059
X00209Y-00051
X00217Y-00052
X002115Y-000605
X00213657Y-00069
X002155Y-000775
X00225Y-00093
X00206Y-00095
X0020125Y-00126587
X0018875
X00225Y-00121
X00222Y-00136
X0022125Y-00164
X0020875
X0019625
X0024Y-0015
X00261Y-00152
X00257Y-00163
X00261Y-00174
X00258Y-00183
X00273Y-00179
X00284Y-00175
X00289Y-00163
X00284Y-00152
X00273Y-00147
X0027Y-001225
X00261Y-0012
X00258Y-001125
X00268Y-0011
X00262Y-00091
X00257Y-000825
X0027Y-000825
X00269Y-00065
X002605Y-0007
X00262Y-00047
X00269Y-00044
X00265Y-000375
X002605Y-00028
X002595Y-000125
X00257Y-00005
Y0000427
X00263Y0
X00292Y000075
X00294Y-00019
X00292Y-000275
X00293Y-00035
X00292Y-000425
Y-000575
Y-000775
Y-000875
X00188178Y-0007
X00187Y00049431
Y00056569
X00211Y00064
X00233Y00066
X00236Y00056
X0023627Y00045842
Y00035842
X0023Y00041
Y00051
X00228Y00075
X00225Y00095
X00231Y00115
X0022873Y00137842
X00212Y00149
X00261Y00152
X00257Y00163
X00261Y00174
X00273Y00179
X00284Y00174
X00289Y00163
X00284Y00151
X00273Y00147
X00252Y0013
X0026804Y000477
X00292Y000675
X00203Y00039
X0014173Y00040158
X0013034Y0004834
X001365Y000625
X00145Y00057
X00117226Y00062
X00081496Y0006227
X00066Y00052
X00066Y0004
X0008634Y0003334
X000375Y00043
X000105Y000435
X00004Y0006223
X00026842Y0006127
X000375Y00076
X0004Y001
X00045Y00105
X00013Y00112
X0Y0010962
X0001Y00099
X-00008Y000845
X-00014588Y00069412
X-0002673Y00074255
X-00038596Y00072
X-00054Y00065
Y00097
X-00061477
X-00046Y00122
X-00034Y00129
X-0001
Y00137112
X-00004Y00152
X-0002Y00168
Y00177
X-0003
Y00168
X-0004
Y00177
X-00051
Y00168
X-00057Y00133
X-00096Y00105
X-00108
X-0012
X-00132
X-00144
X-00156
X-0015627Y00117
X-0016327
X-0017
X-00197Y00124
X-00168Y000475
X-00184Y00029704
X-002105Y0003
X-00031Y00034
X-0002673Y0004573
X00058Y00069
X00075Y00123
X00098Y00121
X00108Y00135
X0010823Y0016123
X0009873Y0016423
X0008173Y0017823
X00065Y0018
X00072Y00154
X00055656Y00147156
X00062842Y0013873
X000315Y001615
X00022Y0016423
X00005Y001785
X00141Y0018
X0017
X00161Y00157
X001695Y001405
X00182Y00115
X001815Y00102
X00182Y00085
X0015162Y0009362
X0013Y00112
X00125Y0012
X00132Y00145
X-00213Y00184
X-00262Y00174
X-00273Y00179
X-00285Y00174
X-00289Y00163
X-00285Y00152
X-00273Y00147
X-00262Y00151
X-00257Y00163
X-00257Y001225
X-0026925Y001175
X-00264363Y001125
X-0026925Y001025
X-00264363Y000975
X-0026925Y000875
X-00264363Y000825
X-0026925Y000725
X-00264363Y000675
X-0026925Y000575
X-00264363Y000525
X-0026925Y000425
X-00264363Y000375
X-002915Y000325
Y000475
Y000625
Y000775
Y000925
Y001075
Y001225
X-002359Y001075
X-00213941Y00099941
X-002359Y000775
Y000625
Y000475
X-00229Y00039
X-00215Y00042
T02
X-002762Y-00132
X002762
Y00132
X-002762
T03
X002043Y0017
X002297
X-00066676Y00149208
X-00146563Y00149244
T04
X-00273Y-00163
X-001Y-00001
X001
X00273Y-00163
Y00163
X-00273
T05
X002683Y000722
Y000944
M30
